<svg xmlns="http://www.w3.org/2000/svg" viewBox="0 0 227.64 215.62"><defs><style>.cls-1,.cls-2,.cls-3,.cls-4,.cls-5,.cls-6,.cls-7,.cls-8,.cls-9{stroke:#000;stroke-miterlimit:10;stroke-width:0.5px;}.cls-2{fill:#ea5f3d;}.cls-3{fill:#fff;}.cls-4,.cls-6{fill:none;}.cls-5{fill:#f8f300;}.cls-6{stroke-linecap:round;}.cls-7{fill:#4db16d;}.cls-8{fill:#f3b5d3;}.cls-9{fill:#816451;}</style></defs><g id="PREVIEW"><path class="cls-1" d="M85.37,128.78c-2-2.25-4.13-4.42-6.36-6.48-9.49,8.47-18.89,17-27.22,26.6l6.59,6.27C66.64,145.66,76,137.18,85.37,128.78Z"/><path class="cls-2" d="M61.21,153.91a7,7,0,0,1-3.36,10.49L33,157.26,21.7,154s2.22-12.4,15-10.23a24.41,24.41,0,0,1,4.1,1.09,5.58,5.58,0,0,1,.59-3.65,5.21,5.21,0,0,1,2.72-2.41c2.12-.64,6.65,1.23,8.18,4.16Z"/><path class="cls-3" d="M21.7,154a2.86,2.86,0,0,0-1.39,1.49,2.92,2.92,0,0,0,.15,2.34l35.91,11.62a4,4,0,0,0,1.63-5Z"/><path class="cls-3" d="M33,157.26,21.7,154s2.22-12.4,15-10.23C37.27,146.41,37.1,150.92,33,157.26Z"/><line class="cls-4" x1="40.83" y1="144.89" x2="47.65" y2="149.4"/><line class="cls-4" x1="38.91" y1="144.31" x2="44.23" y2="152.27"/><path class="cls-3" d="M49.12,150.07a.86.86,0,1,1-.55-1.08A.86.86,0,0,1,49.12,150.07Z"/><path class="cls-3" d="M45.48,153.18a.86.86,0,1,1-.55-1.08A.86.86,0,0,1,45.48,153.18Z"/><path class="cls-1" d="M131.34,133.91c1.82-2.42,3.72-4.77,5.76-7,10.2,7.6,20.31,15.3,29.45,24.12l-6,6.82C151.46,149.09,141.44,141.45,131.34,133.91Z"/><path class="cls-2" d="M157.6,156.83A7,7,0,0,0,161.86,167L186,157.71l10.94-4.2s-3.29-12.17-15.86-8.88a23.64,23.64,0,0,0-4,1.44,5.69,5.69,0,0,0-.92-3.59,5.16,5.16,0,0,0-2.92-2.16c-2.16-.45-6.52,1.81-7.78,4.86Z"/><path class="cls-3" d="M197,153.51a2.76,2.76,0,0,1,1.56,3.7l-34.75,14.71a4,4,0,0,1-2.06-4.87Z"/><path class="cls-3" d="M186,157.71l10.94-4.2s-3.29-12.17-15.86-8.88C180.79,147.27,181.35,151.75,186,157.71Z"/><line class="cls-4" x1="177.12" y1="146.07" x2="170.71" y2="151.16"/><line class="cls-4" x1="178.98" y1="145.32" x2="174.37" y2="153.72"/><path class="cls-3" d="M169.31,152a.86.86,0,0,0,1.12.46.86.86,0,1,0-.67-1.58A.85.85,0,0,0,169.31,152Z"/><path class="cls-3" d="M173.2,154.73a.86.86,0,1,0,1.58-.67.86.86,0,0,0-1.58.67Z"/><path class="cls-3" d="M152.7,105.18s37.76,3.15,55.06-15.24-10.83-81.71-69.15-14.2Z"/><line class="cls-4" x1="145.46" y1="89.93" x2="189.8" y2="71.11"/><path class="cls-3" d="M73.87,102.19s-37.89-1-53-21.23S40.59,1,91.11,74.48Z"/><line class="cls-4" x1="82.74" y1="87.83" x2="40.75" y2="64.23"/><polygon class="cls-1" points="101.1 151.74 106.32 176.11 115.79 154.05 101.1 151.74"/><path class="cls-5" d="M155.18,99.52c-.12,1.81-.31,3.59-.55,5.35a88.47,88.47,0,0,1-2.39,11.81h0c-3.25,11.67-8.77,21.7-15.67,29-8.11,8.56-18.12,13.34-28.63,12.58-11.33-.82-21.15-7.93-28-18.89-5.3-8.41-8.85-19.09-10-30.92a84.66,84.66,0,0,1-.38-11.21c0-1.31.09-2.63.19-3.95a87.5,87.5,0,0,1,4.34-21.67C81.86,48.7,98.68,33.22,117,34.56s32.81,19.26,37.14,43.26A87.57,87.57,0,0,1,155.18,99.52Z"/><path class="cls-1" d="M155.18,99.52c-.12,1.81-.31,3.59-.55,5.35a157.81,157.81,0,0,1-43.73,2,157.88,157.88,0,0,1-41.38-9.61c0-1.31.09-2.63.19-3.95a87.5,87.5,0,0,1,4.34-21.67A132,132,0,0,0,114.31,81a131.79,131.79,0,0,0,39.79-3.21A87.57,87.57,0,0,1,155.18,99.52Z"/><path class="cls-1" d="M152.24,116.69c-3.25,11.67-8.77,21.7-15.67,29a157.83,157.83,0,0,1-28.77-.6,156.12,156.12,0,0,1-27.89-5.71c-5.3-8.41-8.85-19.09-10-30.92a132.09,132.09,0,0,0,41.79,10.86A132.23,132.23,0,0,0,152.24,116.69Z"/><path class="cls-2" d="M103.1,61.71c2,2.59,5.37,4.82,10.57,5.76a15.89,15.89,0,0,0,12.54-2.55c5-3.7,6.32-10,2.24-12.5-6.52-4-12.29,2.21-12.29,2.21s-7-9.39-13.58-4.5C100.27,51.86,99.68,57.3,103.1,61.71Z"/><path class="cls-4" d="M124.39,56.73c-1.43,1.29-5.27,4.4-9.82,3.65s-7.26-5.11-8.16-6.8"/><path class="cls-1" d="M120.92,45.6A3.62,3.62,0,1,1,117.27,42,3.63,3.63,0,0,1,120.92,45.6Z"/><path class="cls-3" d="M140.12,36.85a9.12,9.12,0,0,0-1,4c0,1.49.78,3.12.64,4.61-.19,1.89-1.81,3.1-2.45,4.82a4.56,4.56,0,0,0-.27,1.16,9.61,9.61,0,0,0-1.4-.91l-.09,0A14.17,14.17,0,0,0,130.23,49a14.94,14.94,0,0,0-3.42.06,12.36,12.36,0,0,0-2.16.48c0-.15,0-.29-.05-.42-.28-1.8-1.65-3.31-1.48-5.2.15-1.49,1.19-2.94,1.51-4.39a9.11,9.11,0,0,0-.23-4.15c-.7-3.45.15-5.09,1.94-8,1.13-1.85.87-3.27.66-5.36a7.92,7.92,0,0,1,.63-3.91A7.67,7.67,0,0,1,135,13.15c4.88.35,6.34,6,5.07,10.12-.61,2-1.14,3.35-.37,5.38C140.93,31.82,141.46,33.59,140.12,36.85Z"/><path class="cls-1" d="M137.1,42.08a12.06,12.06,0,0,0-.95,4.28,30.43,30.43,0,0,1-.63,4.14A14.17,14.17,0,0,0,130.23,49a14.94,14.94,0,0,0-3.42.06,9,9,0,0,1-.73-3.72c.15-1.58,1.06-3.15,1.35-4.69a11.93,11.93,0,0,0-.1-4.38c-.52-3.62.23-5.38,1.8-8.46a8.61,8.61,0,0,0,.74-4.48c-.14-2.62.7-6.26,4.31-6,4.08.27,4.36,6.1,3.2,10.49-.56,2.13-1,3.57-.43,5.7.24.85.45,1.6.6,2.31l-7.22,1.52,7.25,3.07A15,15,0,0,1,137.1,42.08Z"/><path class="cls-6" d="M151.25,25.62a21.75,21.75,0,0,1-6.27.74,22.2,22.2,0,0,1-5.43-1"/><path class="cls-6" d="M151.48,31.58a17.73,17.73,0,0,1-5.67.75,18.43,18.43,0,0,1-5-.81"/><path class="cls-6" d="M151.51,37.78a21.58,21.58,0,0,1-6.11.59,21.19,21.19,0,0,1-5.42-1"/><path class="cls-3" d="M110.67,41.91c-.07,1.89-1.6,3.21-2.14,5a5.2,5.2,0,0,0-.2,1.18,9.28,9.28,0,0,0-1.45-.83l-.93-.39a14.59,14.59,0,0,0-4.54-.86,14.41,14.41,0,0,0-4,.42,11.4,11.4,0,0,0-1.53.47,1.86,1.86,0,0,0-.07-.34.08.08,0,0,0,0-.07v0c-.41-1.77-1.86-3.18-1.8-5.08,0-1.49,1-3,1.22-4.48a9.09,9.09,0,0,0-.49-4.13c-.92-3.39-.17-5.09,1.43-8.07,1-1.91.66-3.32.32-5.39a7.94,7.94,0,0,1,.38-3.94A7.67,7.67,0,0,1,104,9.94c4.89,0,6.7,5.57,5.7,9.77-.48,2.05-.92,3.43,0,5.4,1.39,3.08,2,4.83.9,8.15a9,9,0,0,0-.77,4.09C109.88,38.83,110.72,40.41,110.67,41.91Z"/><path class="cls-1" d="M106.83,37.57c.07,1.6.75,3.3.67,4.91s-1,2.92-1.55,4.34a14.76,14.76,0,0,0-8.54-.45,33.33,33.33,0,0,1,0-4.24,12.36,12.36,0,0,0-.33-4.46,15,15,0,0,1-.23-1.83l7.61-2.06L97.51,31.2c.26-.69.56-1.42.92-2.25.9-2.06.63-3.58.39-5.81-.26-2.44-.47-5,.76-7.25,2-3.53,7.45-4,7.55.94.05,2.52-1,5-.15,7.52,1.11,3.34,1.61,5.22.58,8.81A12.16,12.16,0,0,0,106.83,37.57Z"/><path class="cls-6" d="M85.1,20.74a22.45,22.45,0,0,0,6.1,1.65,21.78,21.78,0,0,0,5.51-.15"/><path class="cls-6" d="M84,26.59a17.25,17.25,0,0,0,5.49,1.58,18.48,18.48,0,0,0,5.07-.06"/><path class="cls-6" d="M83.61,32.8a21,21,0,0,0,6,1.49,21.32,21.32,0,0,0,5.51-.15"/><path d="M73.1,74.62c-.74,2.47-1.37,5-1.9,7.63a15.82,15.82,0,0,1-10.74-7.6c-6-9.86-4.07-22.77-1.08-34.28.31-1.16.62-2.3.94-3.42h0l.09-.3h0c.69-2.44,1.42-4.81,2.08-7,.81-2.7,3.43-3,5.33-1.84a.05.05,0,0,1,0,0h0a4.08,4.08,0,0,1,1.92,4.76c-.5,1.63-1,3.32-1.52,5.06h0a.45.45,0,0,1,0,.11h0c-.4,1.4-.8,2.82-1.18,4.27h0c-2.32,8.73-3.88,18.2-1,26.31A9.15,9.15,0,0,0,73.1,74.62Z"/><path class="cls-3" d="M67.23,18.94S68.5,2.45,73.6,4.12c4,1.29.29,16.81.29,16.81s8.49,6.61-1.13,15.24c0,0-.24,3.67-1.35,4.64S62.18,43.7,58,39.2l.31-3.45a5.54,5.54,0,0,1-3.74-6.24S49.2,18.39,58.5,18.32a5.11,5.11,0,0,1,1.56-2.77c.24-.21,2.15-1.88,4.31-1.17A4.48,4.48,0,0,1,67.23,18.94Z"/><path class="cls-3" d="M58.5,18.32c-.25,2.27-.12,5,1.2,7a4,4,0,0,0,3.11,1.75c1.61.09,3.19-.28,3.88-1.85,1-2.21.75-5.13.39-7.45"/><path class="cls-3" d="M54.39,29a4.83,4.83,0,0,0,2.28,1.2A3.65,3.65,0,0,0,58.89,30a4.22,4.22,0,0,0,2-3.33"/><path class="cls-3" d="M73.89,20.93a27,27,0,0,0-4-1.23c-2.78-.62-7.51-1.64-8.56,2s4.37,5.15,8.14,6c0,0-5.33-.67-6.13,5.29"/><path class="cls-3" d="M58.33,35.75s.56,1.13,3.6,1.54"/><path class="cls-3" d="M67.91,37.71a8.52,8.52,0,0,0,4.85-1.54"/><path class="cls-7" d="M126,86.32a106.39,106.39,0,0,0-5.88,40.78c.19,3.34,3.17,2.24,3-1.12a96.52,96.52,0,0,1,5.16-36.7C129.34,86.25,127.09,83.27,126,86.32Z"/><path class="cls-8" d="M140.54,71.42a6,6,0,0,0-6.87-1.16,4.41,4.41,0,0,0-1.63,1.3A3.22,3.22,0,0,0,131.3,70a6,6,0,0,0-6.87-1.16,3.58,3.58,0,0,0-2.28,3.66,6.28,6.28,0,0,0-5.84-.08c-2.26,1.19-2.83,3.56-1.27,5.28a4.64,4.64,0,0,0,1.09.87,6.12,6.12,0,0,0-2.61.67c-2.26,1.2-2.83,3.56-1.27,5.28a5.68,5.68,0,0,0,4.69,1.6,3.11,3.11,0,0,0-.28,4.59,6,6,0,0,0,6.92,1,4.3,4.3,0,0,0,1.14-.83,3.18,3.18,0,0,0,.56,1.51c1.28,1.85,4.29,2.56,6.73,1.57,1.94-.78,2.92-2.4,2.6-4a6.29,6.29,0,0,0,5.19.41c2.48-.91,3.54-3.17,2.36-5.06a4.37,4.37,0,0,0-1.77-1.54,6.07,6.07,0,0,0,2.9-.59c2.32-1.12,3-3.47,1.55-5.24a5.71,5.71,0,0,0-5.17-1.68A3.18,3.18,0,0,0,140.54,71.42Z"/><line class="cls-4" x1="117.72" y1="74.6" x2="121.41" y2="77.16"/><line class="cls-4" x1="136.24" y1="85.87" x2="139.93" y2="88.43"/><line class="cls-4" x1="114.55" y1="82.79" x2="119.54" y2="82.56"/><line class="cls-4" x1="138.11" y1="80.48" x2="143.1" y2="80.24"/><line class="cls-4" x1="119.88" y1="90.11" x2="123.2" y2="87.25"/><line class="cls-4" x1="134.45" y1="75.78" x2="137.77" y2="72.92"/><line class="cls-4" x1="130.26" y1="92.4" x2="130.03" y2="88.6"/><line class="cls-4" x1="127.62" y1="74.43" x2="127.39" y2="70.63"/><path class="cls-9" d="M136.88,81.28c0,3.5-3.77,6.33-8.36,6.33s-8.3-2.84-8.27-6.34,3.76-6.34,8.36-6.33S136.9,77.78,136.88,81.28Z"/><path d="M173.13,104.38c-4.89,5.35-12.58,9-20.59,11.16a63.43,63.43,0,0,1-17.5,2.15c-5.46-.15-6.3-8.69-.78-8.54a56.17,56.17,0,0,0,20.24-3.37A41.5,41.5,0,0,0,164,101c11.27-7.83,0-15.84-9.49-20.95q-.15-1.12-.36-2.22A77.11,77.11,0,0,0,152,69.19c8.64,4.18,18.5,8.33,23.25,17.12A15.13,15.13,0,0,1,173.13,104.38Z"/><path class="cls-3" d="M136.67,106.92s4.13-2.53,4.6.72c.36,2.47-.48,7.75-.9,10.13a2.93,2.93,0,0,1-2,2.35,4.69,4.69,0,0,1-3.21-1.06c-1.78,1-4.21,3.17-8.53,3.2a20.47,20.47,0,0,1-9.53-2.21,7.63,7.63,0,0,1-3.53-3.32A5,5,0,0,1,113,114a3,3,0,0,1,.49-1.32l.65-.89s-2.42-4.36,2.32-5.85c0,0-3.28-7.09,6.71-4.55.6.15,1.44-2.51,3.92-3.48a7.47,7.47,0,0,1,5.41-.05C135.43,99.09,137.26,102.8,136.67,106.92Z"/><line class="cls-3" x1="116.53" y1="105.96" x2="120.27" y2="107.26"/><line class="cls-3" x1="114.12" y1="111.75" x2="118.12" y2="112.78"/><line class="cls-3" x1="123.15" y1="101.35" x2="128.64" y2="102.96"/><line class="cls-3" x1="136.67" y1="106.92" x2="136.22" y2="110.92"/><line class="cls-3" x1="135.41" y1="116.13" x2="135.14" y2="119.06"/><path class="cls-8" d="M17.68,180.84a.46.46,0,0,0,.63-.17,1.91,1.91,0,0,0,.23-.87,3.19,3.19,0,0,0-.16-1.15A4.84,4.84,0,0,0,16,176a5.31,5.31,0,0,0-1.86-.68,3.57,3.57,0,0,1-.54-2.11,4.82,4.82,0,0,1,.66-2.27A5.59,5.59,0,0,1,19.11,168a10.31,10.31,0,0,1,5.65,1.58,14,14,0,0,1,3.37,2.6,8.9,8.9,0,0,1,1.73,2.6,6,6,0,0,1-.69,1.81A5.6,5.6,0,0,1,28,178a3.26,3.26,0,0,1-1.32.74,6,6,0,0,0-1.12-1.48,8.14,8.14,0,0,0-1.77-1.46,4.51,4.51,0,0,0-1.24-.57.42.42,0,0,0-.49.16.63.63,0,0,0-.08.23,5.19,5.19,0,0,1,1.15.52,7.27,7.27,0,0,1,3.18,3.35,5.44,5.44,0,0,1-.58,5,5.58,5.58,0,0,1-4.16,2.77,9.85,9.85,0,0,1-6.46-1.57A19.41,19.41,0,0,1,12,183.48a11.45,11.45,0,0,1-2.14-2.58,5.47,5.47,0,0,1,.65-3.2,3.47,3.47,0,0,1,2.24-1.7,3.7,3.7,0,0,1,2.8.44,4.71,4.71,0,0,1,1.9,1.85A3.85,3.85,0,0,1,17.68,180.84Z"/><path class="cls-8" d="M32.13,188.56a.58.58,0,0,0-.27.27q-.16.38.42.93a6.84,6.84,0,0,0,1.55,1.06,6.84,6.84,0,0,0-.57,2.25,3,3,0,0,1-1.76.35,6.57,6.57,0,0,1-2.69-.62A6.47,6.47,0,0,1,26,190.63a2.52,2.52,0,0,1-.4-2.59,2.29,2.29,0,0,1,.32-.56l8.1-10.92a9.44,9.44,0,0,1,2.89.06,12.27,12.27,0,0,1,3.1.94,9.33,9.33,0,0,1,3.42,2.4,3.94,3.94,0,0,1,1.07,3.39l-2.43,13.3c-1.39.75-3.08.69-5.08-.2a5.87,5.87,0,0,1-2.23-1.61,2.26,2.26,0,0,1-.51-2l.41-1.68a4.49,4.49,0,0,0,1.61.36c.56,0,.88-.06,1-.27a.44.44,0,0,0,0-.4,4,4,0,0,1-1.42,0,5.76,5.76,0,0,1-1.38-.39A4.74,4.74,0,0,1,32.13,188.56Zm4.49-2.46a.79.79,0,0,0,.41.07c.36-1.38.55-2.22.58-2.49s-.07-.47-.26-.55a.8.8,0,0,0-.34-.06l-.66,2.79A.54.54,0,0,0,36.62,186.1Z"/><path class="cls-8" d="M54.32,186.17l-3.2,8.26a1.34,1.34,0,0,0,.26.14c.29.09.53-.08.71-.5l3.77-9.45a4.15,4.15,0,0,1,1.72-.13,9.44,9.44,0,0,1,2,.38,4.52,4.52,0,0,1,2.69,1.91,3.2,3.2,0,0,1,.21,2.68,22.53,22.53,0,0,1-1.85,3.4c-1.06,1.73-2.52,4.06-4.4,7a3.79,3.79,0,0,1-2.83,1.76,9.23,9.23,0,0,1-3.85-.57,11.87,11.87,0,0,1-2.59-1.21,5.79,5.79,0,0,1-1.74-1.59,43.73,43.73,0,0,1,0-7,66.67,66.67,0,0,1,1.11-8.68,4.66,4.66,0,0,1,4.57-.53Q54.36,183.15,54.32,186.17Z"/><path class="cls-8" d="M70,187.84l7.85,1.75a5.36,5.36,0,0,1,.26,1.55,5.65,5.65,0,0,1-.12,1.43,3.4,3.4,0,0,1-1,2,1.81,1.81,0,0,1-1.65.35l-5.49-1.22c-.33-.08-.53,0-.59.28l0,.11a.2.2,0,0,0,0,.11l6.5,1.46a4.91,4.91,0,0,1,.19,1.15,6.06,6.06,0,0,1-.12,1.28,4.7,4.7,0,0,1-1.16,2.39l-2.95-.66a17,17,0,0,0-2.84-.47,4.56,4.56,0,0,0-1,.06.39.39,0,0,0-.25.28.34.34,0,0,0,.12.34,8.13,8.13,0,0,1,1.56,0c.69.09,1.44.23,2.24.4l3.82.86a4.81,4.81,0,0,1,.2,3,6.92,6.92,0,0,1-.63,1.72,3.36,3.36,0,0,1-1,1.2l-10.19-2.28a4.28,4.28,0,0,1-2.53-1.42,3.14,3.14,0,0,1-.54-2.81l2.9-12.93c.09-.44.66-.64,1.7-.62A25.94,25.94,0,0,1,70,187.84Z"/><path class="cls-8" d="M96.71,199l-.85,9.76a5.11,5.11,0,0,1-1.79.78,7.82,7.82,0,0,1-2.63.15,4.77,4.77,0,0,1-2.53-.9,2.31,2.31,0,0,1-1-2.19l.77-8.94-3.23-.29a5.3,5.3,0,0,1-.73-3.21,5.23,5.23,0,0,1,.54-2,3.65,3.65,0,0,1,1-1.25l14.36,1.25a5.78,5.78,0,0,1,.53,1.57,6,6,0,0,1,.11,1.79,3.39,3.39,0,0,1-.93,2.34,2.53,2.53,0,0,1-2,.6l-4.07-.35a.65.65,0,0,0-.06.21.33.33,0,0,0,.26.35,5,5,0,0,0,1.3.22Z"/><path class="cls-8" d="M119,195.19l.23,13.86a6.51,6.51,0,0,1-4,1.23,5.08,5.08,0,0,1-3-.71,2.57,2.57,0,0,1-1.19-2.24l0-2.76,1,0a1.19,1.19,0,0,0,.72-.15.73.73,0,0,0,.14-.49l-4.38.08a.71.71,0,0,0,.13.47.8.8,0,0,0,.6.14l1.06,0,.08,4.62a6.69,6.69,0,0,1-2,1,8.06,8.06,0,0,1-2,.27,5.12,5.12,0,0,1-3-.71,2.58,2.58,0,0,1-1.2-2.24l-.23-13.87a4.77,4.77,0,0,1,1.77-1.21,6.41,6.41,0,0,1,2.22-.45,4.89,4.89,0,0,1,2.87.79,3.12,3.12,0,0,1,1.31,2.6l0,2.48,1.77,0a.68.68,0,0,0-.14-.49.58.58,0,0,0-.43-.13h-.47l-.06-3.72a4.77,4.77,0,0,1,1.77-1.21,6.13,6.13,0,0,1,2.21-.44,4.84,4.84,0,0,1,2.88.78A3.12,3.12,0,0,1,119,195.19Z"/><path class="cls-8" d="M126,191.23l8-.87a5.4,5.4,0,0,1,.75,1.38,6,6,0,0,1,.35,1.39,3.44,3.44,0,0,1-.32,2.16,1.84,1.84,0,0,1-1.45.88l-5.59.61c-.34,0-.5.19-.47.46l0,.11a.16.16,0,0,0,0,.11l6.62-.73a4.67,4.67,0,0,1,.55,1,5.75,5.75,0,0,1,.3,1.25,4.66,4.66,0,0,1-.33,2.64l-3,.33a16.33,16.33,0,0,0-2.84.47,4.11,4.11,0,0,0-.9.37.37.37,0,0,0-.14.34.35.35,0,0,0,.22.29,8.05,8.05,0,0,1,1.48-.5c.68-.14,1.43-.26,2.25-.35l3.89-.42a4.84,4.84,0,0,1,1.16,2.77,7,7,0,0,1,0,1.83,3.38,3.38,0,0,1-.55,1.46l-10.38,1.14a4.27,4.27,0,0,1-2.85-.53,3.11,3.11,0,0,1-1.42-2.48l-1.45-13.18c0-.44.43-.82,1.42-1.13A26.69,26.69,0,0,1,126,191.23Z"/><path class="cls-8" d="M141.9,191c-.06-.21.06-.48.33-.83a9.37,9.37,0,0,1,3.5-2.23,19.74,19.74,0,0,1,3.07-1q4-1,6.53,0a4.47,4.47,0,0,1,2.73,3.17,4.93,4.93,0,0,1,.11,1.67,2.6,2.6,0,0,1-.52,1.37,3.07,3.07,0,0,0-1.47,0,1,1,0,0,0-.45.24.56.56,0,0,0,0,.49,4.2,4.2,0,0,1,3.46.66,4.89,4.89,0,0,1,1.74,2.82,4.48,4.48,0,0,1-1.34,4.7q-1.92,1.75-6.39,2.86a38.54,38.54,0,0,1-4.63.94,3.36,3.36,0,0,1-2.34-.4,3.29,3.29,0,0,1-1.2-2Zm8.64,3.38a.66.66,0,0,0,.32,0,.49.49,0,0,0,.34-.3,1.42,1.42,0,0,0,0-.7l0-.08a1.57,1.57,0,0,0-.29-.67.42.42,0,0,0-.43-.12.84.84,0,0,0-.34.15,1.06,1.06,0,0,1,.06.22Zm1.26,5.1a.66.66,0,0,0,.32,0,.51.51,0,0,0,.35-.28,1,1,0,0,0,0-.65l-.06-.26a1.6,1.6,0,0,0-.3-.69.42.42,0,0,0-.43-.12.79.79,0,0,0-.34.14,2.35,2.35,0,0,1,.07.23Z"/><path class="cls-8" d="M164.1,182.74l7.58-2.71a5.36,5.36,0,0,1,1,1.17,5.74,5.74,0,0,1,.66,1.27,3.44,3.44,0,0,1,.2,2.18,1.87,1.87,0,0,1-1.21,1.19l-5.3,1.89c-.32.11-.44.3-.34.55l0,.11c0,.05,0,.08.07.09l6.27-2.24a4.32,4.32,0,0,1,.77.88,5.67,5.67,0,0,1,.59,1.14,4.64,4.64,0,0,1,.29,2.64l-2.85,1a17.06,17.06,0,0,0-2.65,1.12,3.7,3.7,0,0,0-.78.57.37.37,0,0,0-.07.36.35.35,0,0,0,.29.23,7.37,7.37,0,0,1,1.32-.83c.63-.3,1.34-.58,2.11-.86l3.68-1.32a4.89,4.89,0,0,1,1.78,2.44,6.67,6.67,0,0,1,.38,1.78,3.29,3.29,0,0,1-.2,1.55l-9.83,3.52a4.35,4.35,0,0,1-2.89.14,3.12,3.12,0,0,1-2-2.08l-4.46-12.48q-.23-.63,1.11-1.44A26.65,26.65,0,0,1,164.1,182.74Z"/><path class="cls-8" d="M178.71,176.82l7.27-3.43a5.11,5.11,0,0,1,1.16,1.07,5,5,0,0,1,.78,1.19,3.44,3.44,0,0,1,.41,2.15,1.84,1.84,0,0,1-1.09,1.3l-5.08,2.4c-.32.14-.41.34-.3.58l0,.1a.17.17,0,0,0,.07.09l6-2.84a4.75,4.75,0,0,1,.85.8,5.3,5.3,0,0,1,.7,1.08,4.64,4.64,0,0,1,.54,2.61l-2.73,1.28a17.34,17.34,0,0,0-2.53,1.37,3.79,3.79,0,0,0-.73.65.39.39,0,0,0,0,.36.35.35,0,0,0,.31.2,7.74,7.74,0,0,1,1.23-.95,22.06,22.06,0,0,1,2-1.06l3.54-1.67a4.92,4.92,0,0,1,2,2.25,6.63,6.63,0,0,1,.55,1.74,3.41,3.41,0,0,1,0,1.57l-9.45,4.44a4.31,4.31,0,0,1-2.87.43,3.11,3.11,0,0,1-2.15-1.89l-5.64-12c-.19-.4.13-.91,1-1.53A25.5,25.5,0,0,1,178.71,176.82Z"/><path class="cls-8" d="M200.43,179.9a.47.47,0,0,0,.15-.64,1.93,1.93,0,0,0-.65-.61,3.44,3.44,0,0,0-1.09-.42,4.83,4.83,0,0,0-3.45.78,5.27,5.27,0,0,0-1.49,1.31,3.62,3.62,0,0,1-2.12-.54,4.71,4.71,0,0,1-1.66-1.66,5.55,5.55,0,0,1-.26-5.62,10.21,10.21,0,0,1,4.09-4.21,14.23,14.23,0,0,1,3.89-1.71,8.67,8.67,0,0,1,3.11-.27,5.58,5.58,0,0,1,1.26,1.47,5.79,5.79,0,0,1,.7,1.67,3.09,3.09,0,0,1,0,1.51,5.82,5.82,0,0,0-1.83.28,8,8,0,0,0-2.12.85,4.45,4.45,0,0,0-1.1.81q-.24.28-.09.51a.65.65,0,0,0,.15.18,5.08,5.08,0,0,1,1-.75,7.21,7.21,0,0,1,4.46-1.19,5.43,5.43,0,0,1,4.11,2.9,5.57,5.57,0,0,1,.44,5,9.85,9.85,0,0,1-4.47,4.92,19.36,19.36,0,0,1-3.45,1.69,11.44,11.44,0,0,1-3.29.64,5.44,5.44,0,0,1-2.49-2.1,3.45,3.45,0,0,1-.42-2.78,3.7,3.7,0,0,1,1.73-2.25,4.61,4.61,0,0,1,2.53-.77A3.71,3.71,0,0,1,200.43,179.9Z"/><path class="cls-8" d="M212,168.48a3.19,3.19,0,0,0-1.23.49.47.47,0,0,0-.15.74l0,0a4.06,4.06,0,0,1,5.45,1.08,3.86,3.86,0,0,1,.68,3,4,4,0,0,1-1.64,2.62,3.87,3.87,0,0,1-3,.69,4,4,0,0,1-3.34-3.6,4.11,4.11,0,0,1,.35-2.08,14,14,0,0,1-3-1.92,15.34,15.34,0,0,1-2.68-2.88L200.82,163a4.94,4.94,0,0,1,.83-1.44A6.45,6.45,0,0,1,203,160.2a3.84,3.84,0,0,1,3.06-.91,5.37,5.37,0,0,1,2.82,2.34l.52.73A15.48,15.48,0,0,1,212,168.48Z"/></g></svg>