<svg xmlns="http://www.w3.org/2000/svg" viewBox="0 0 234.43 222.56"><defs><style>.cls-1{fill:#64bb80;}.cls-1,.cls-2,.cls-3,.cls-4,.cls-5,.cls-6,.cls-8,.cls-9{stroke:#000;stroke-miterlimit:10;stroke-width:0.5px;}.cls-3{fill:#fff;}.cls-4{fill:none;}.cls-5{fill:#71513c;}.cls-6{fill:#f3b5d3;}.cls-7{fill:#ea5f3d;}.cls-8{fill:#5c75ff;}.cls-9{fill:#f8f300;}</style></defs><g id="_02" data-name="02"><path class="cls-1" d="M22.16,167.45s7.78-11.16-12.33-23.21C9.83,144.24,7.28,166.28,22.16,167.45Z"/><path class="cls-1" d="M22.23,167.34a66.84,66.84,0,0,0-7.62-15l-.23-.34"/><path class="cls-1" d="M213.73,159.38s-8.07-10.95,11.71-23.53C225.44,135.85,228.57,157.81,213.73,159.38Z"/><path class="cls-1" d="M213.65,159.27a67.43,67.43,0,0,1,7.22-15.21c.08-.12.15-.24.23-.35"/><path class="cls-2" d="M30.63,103.33c.78,3.34,1.57,7.09,2.51,11,3.62,14.91,9.89,31.48,25.34,32.46-.2-2.64-.41-5.33-.51-7.86-11-1.91-15.65-16-18.14-27.83h0c-.7-3.33-1.29-6.47-1.89-9.07C36.86,97.34,29.56,98.67,30.63,103.33Z"/><path class="cls-3" d="M39.73,106l-.72.31c7-3.13,3.33-15.53-.1-17.54-4.65-2.32-4.17,6.34-4.17,6.34A33.16,33.16,0,0,0,25.3,86.4c-7.37-4.53-5.68,1.49-5.68,1.49s-2.93-2.5-5.78-.74c-2.14,1.76.69,4.07.69,4.07-1.43-.52-4.39-1.29-4.8.79s1.57,3.55,2.72,4.62c1.6,1.5,3.3,2.88,5,4.23.5.39,1.49.94,1.73,1.57,3.41,9.34,10.61,8.48,10.61,8.48-.16,1,0,2.54.47,3a2.72,2.72,0,0,0,2.85.4c2.06-.86,6.61-2.87,8.36-4.39C43.79,107.9,39.73,106,39.73,106Z"/><line class="cls-4" x1="19.62" y1="87.89" x2="27.9" y2="94.7"/><line class="cls-4" x1="14.53" y1="91.22" x2="23.28" y2="98.34"/><line class="cls-4" x1="21.46" y1="99.78" x2="28.72" y2="94.1"/><path class="cls-4" d="M34.74,95.06l.34,1.53s-6.36-.07-5.4,5.57"/><line class="cls-4" x1="31.98" y1="109.66" x2="29.64" y2="110.99"/><path class="cls-2" d="M205.13,103.23c-.65,3.36-1.32,7.14-2.12,11-3.1,15-8.79,31.8-24.19,33.32.1-2.65.22-5.34.23-7.87,11-2.3,15.09-16.54,17.16-28.45h0c.59-3.36,1.06-6.51,1.58-9.13C198.7,97.46,206,98.53,205.13,103.23Z"/><path class="cls-3" d="M196.13,106.16l.74.28c-7.09-2.88-3.88-15.4-.52-17.53,4.57-2.48,4.39,6.19,4.39,6.19a33.15,33.15,0,0,1,9.13-9c7.21-4.79,5.74,1.29,5.74,1.29s2.83-2.6,5.74-.94c2.2,1.69-.54,4.09-.54,4.09,1.4-.57,4.33-1.44,4.82.63s-1.45,3.6-2.56,4.71c-1.55,1.55-3.19,3-4.87,4.4-.48.41-1.46,1-1.67,1.63-3.08,9.45-10.31,8.84-10.31,8.84.2,1,.13,2.54-.36,3a2.74,2.74,0,0,1-2.84.5c-2.09-.8-6.7-2.64-8.5-4.1C192.15,108.25,196.13,106.16,196.13,106.16Z"/><line class="cls-4" x1="215.61" y1="87.41" x2="207.56" y2="94.51"/><line class="cls-4" x1="220.81" y1="90.56" x2="212.31" y2="97.99"/><line class="cls-4" x1="214.18" y1="99.36" x2="206.72" y2="93.94"/><path class="cls-4" d="M200.74,95.1l-.28,1.54s6.35-.29,5.58,5.38"/><line class="cls-4" x1="204.01" y1="109.6" x2="206.39" y2="110.85"/><path class="cls-5" d="M172.3,85.53c-2.07-4.66-7.07-9.49-11.41-11.67-7.19-3.6-13.71,1.69-21-1.25-4.39-1.77-7.91-4.53-12.84-4.78-6.15-.31-9.66,5.74-16.24,5.24-4.14-.31-7.6-2.6-11.59-3.22C94.34,69.09,90.88,73,86,72.61c-4.05-.3-9.1-2.78-12.08,1-2.47,3.13-3.36,7.74-4.78,11.4Z"/><path class="cls-1" d="M190.92,57S206,57,206.38,83.3C206.38,83.3,183.72,71.44,190.92,57Z"/><path class="cls-1" d="M165.74,34.32s11.63,9.11-2.11,27.41C163.63,61.73,152.47,39.93,165.74,34.32Z"/><path class="cls-1" d="M165.84,34.4a72.65,72.65,0,0,1-1,17.64c0,.14-.06.28-.08.42"/><path class="cls-1" d="M177.78,40.14s3.16-13.79,26-6.29C203.74,33.85,188.78,51,177.78,40.14Z"/><path class="cls-1" d="M177.81,40a66.15,66.15,0,0,1,16.55-4.35l.43,0"/><path class="cls-4" d="M197,67.39c-5.65-10.18-11.74-21.16-20.81-28.72-9.91-8.25-20.27-4.89-25.45,6.6-4.7,10.43-4.17,22.81-1.85,33.75"/><path class="cls-1" d="M89.83,19.12S87.2,34.77,60.61,28.4C60.61,28.4,76.47,8,89.83,19.12Z"/><path class="cls-1" d="M125.56,42.7s-15.7,10.73-32.29-17.56C93.27,25.14,124.13,21.88,125.56,42.7Z"/><path class="cls-1" d="M125.42,42.8a94.33,94.33,0,0,1-20.91-10.86l-.47-.33"/><path class="cls-1" d="M125.86,60.39s-3.3-14.69,22.37-18.62C148.23,41.77,141.6,65.43,125.86,60.39Z"/><path class="cls-1" d="M125.83,60.26a74.55,74.55,0,0,1,14.1-12.21l.39-.25"/><path class="cls-1" d="M123.7,27.62S117.51,14,138.22,5C138.22,5,138.14,29.41,123.7,27.62Z"/><path class="cls-1" d="M123.65,27.49a67.64,67.64,0,0,1,9-14.68l.27-.33"/><path class="cls-4" d="M69.92,26.62c9.19-1.18,18.18-5.77,25.39-11.43,4.2-3.3,8.16-8.3,14.1-7.08,3.29.67,5.91,3.08,7.86,5.68,7,9.32,8.34,22.78,8.62,34a165,165,0,0,1-2.31,30.35"/><path class="cls-1" d="M47.1,63.52s10.23,8.27-5.19,24.9C41.91,88.42,33.59,68.63,47.1,63.52Z"/><path class="cls-1" d="M63.11,45S50.67,51.56,39.38,30.34C39.38,30.34,63,30.09,63.11,45Z"/><path class="cls-1" d="M63,45.05a75.53,75.53,0,0,1-15.38-9.12l-.35-.27"/><path class="cls-1" d="M83.22,52.26S81.89,66.26,58,64.05C58,64.05,70.7,44.18,83.22,52.26Z"/><path class="cls-1" d="M83.21,52.39a75.69,75.69,0,0,1-16.07,7.85l-.42.14"/><path class="cls-1" d="M92.73,66.48s-8.32-9.91,6.91-26.95C99.64,39.53,105.18,62,92.73,66.48Z"/><path class="cls-1" d="M92.65,66.39A87.59,87.59,0,0,1,96.81,49l.15-.41"/><path class="cls-4" d="M43.33,77.91s6.34-39.39,28.28-32.52,23,32.26,23,32.26"/><path class="cls-6" d="M64.39,97.58,62,78.73,175.2,80.31l-4.34,18.44S185.7,115,185.5,134.29c-.34,31.58-29.54,50-67.24,50s-69.2-18.37-69.28-50C48.92,111.88,64.39,97.58,64.39,97.58Z"/><polygon class="cls-4" points="175.03 80.38 62.03 78.73 64.39 97.58 170.86 98.75 175.03 80.38"/><circle class="cls-7" cx="149.81" cy="138.06" r="17.25" transform="translate(-53.83 143.84) rotate(-44.29)"/><circle class="cls-7" cx="85.02" cy="137" r="17.25" transform="translate(-39.44 34.5) rotate(-18.7)"/><path class="cls-3" d="M107.84,123.88s-2.14,31.78,9.23,31.76c13,0,9.93-31.8,9.93-31.8a20.86,20.86,0,0,1-19.16,0Z"/><polyline class="cls-4" points="113.7 125.85 113.7 140.12 113.69 154.5 113.69 154.51"/><polyline class="cls-4" points="120.8 125.92 120.69 140.1 120.57 154.7"/><polyline class="cls-4" points="108.23 140.12 113.7 140.12 120.69 140.1 126.85 140.08"/><path class="cls-3" d="M126.74,105.55c0,13.74,9,24.89,20.06,24.89,9.64,0,17.68-8.41,19.63-19.62a31.4,31.4,0,0,0,.45-5.27,30,30,0,0,0-.78-6.85l-26.71-.3-11.77-.13A30.31,30.31,0,0,0,126.74,105.55Z"/><path class="cls-3" d="M68.39,105.55c0,13.74,9,24.89,20.07,24.89,8.25,0,15.35-6.19,18.43-15a30.46,30.46,0,0,0,.7-17.37l-24.66-.27-13.5-.14A30,30,0,0,0,68.39,105.55Z"/><path class="cls-2" d="M148.81,110.88l-6.3,3A20.1,20.1,0,0,1,139,102.33a21,21,0,0,1,.36-3.93l26.71.3a30,30,0,0,1,.78,6.85,31.4,31.4,0,0,1-.45,5.27c-2.48,5.52-7.29,9.27-12.82,9.27a12.78,12.78,0,0,1-8.19-3.06Z"/><path class="cls-2" d="M93.13,111.59l-6.57,3.09a19.89,19.89,0,0,1-4.11-12.35,21.08,21.08,0,0,1,.48-4.55l24.66.27a30.46,30.46,0,0,1-.7,17.37A13.21,13.21,0,0,1,97,120.09a12.54,12.54,0,0,1-7.27-2.38Z"/><path class="cls-4" d="M176.43,111.32a18.9,18.9,0,0,1-9.66-1.87"/><path class="cls-4" d="M173.92,120.18a18.68,18.68,0,0,1-5.1-1.55,19.07,19.07,0,0,1-3.9-2.42"/><path class="cls-4" d="M170.2,127.59a19,19,0,0,1-8-5.69"/><path class="cls-4" d="M58.86,111.15a18.93,18.93,0,0,0,5.33-.09,19.17,19.17,0,0,0,4.41-1.27"/><path class="cls-4" d="M61.14,119.78a19.17,19.17,0,0,0,5.17-1.28,19.47,19.47,0,0,0,4-2.22"/><path class="cls-4" d="M64.59,126.76a18.93,18.93,0,0,0,4.82-2.28,19.66,19.66,0,0,0,3.5-3"/><path class="cls-8" d="M113.12,118.24a3.94,3.94,0,1,0,3.94-3.93A3.93,3.93,0,0,0,113.12,118.24Z"/><path class="cls-9" d="M37.14,177.6,45,184a5.94,5.94,0,0,1-1.41,3.3,5.85,5.85,0,0,1-2.72,2l-.55-.44-3.23,4a13.09,13.09,0,0,1-8.76-3.33,14.26,14.26,0,0,1-3.91-4.7,9.94,9.94,0,0,1-1.08-5.7,12.15,12.15,0,0,1,2.83-6.26q3.53-4.35,8.06-4.62,4.32-.27,8.55,3.16a15.88,15.88,0,0,1,3.44,3.82,11.1,11.1,0,0,1,1.67,3.93,16.21,16.21,0,0,1-1.77,1.8,9.13,9.13,0,0,1-1.92,1.38l-7-5.68a6.32,6.32,0,0,0-3.83,2.3,4.48,4.48,0,0,0-1.17,3,2.75,2.75,0,0,0,1.07,2.16c.28.23.5.25.66.05l.25-.3-.15-.12a2.4,2.4,0,0,1-.9-1.87,3.83,3.83,0,0,1,1-2.43A4.81,4.81,0,0,1,37.14,177.6Z"/><path class="cls-9" d="M59.68,199.14l1.12,4.09A6.89,6.89,0,0,1,57.33,206a5,5,0,0,1-4-.59,5.66,5.66,0,0,1-2.36-2.31,6.56,6.56,0,0,1-.56-4.31l.27-1.76A16.72,16.72,0,0,1,49.16,196a.52.52,0,0,0-.31.26c-.15.27.17.66.95,1.16L49.46,200l-.71,1.28a8.64,8.64,0,0,1-5.09-1.24A6.08,6.08,0,0,1,41,197.55a3,3,0,0,1,.13-2.94L49,180.39c.25-.44.89-.64,1.93-.61a14.16,14.16,0,0,1,3.73.76,23,23,0,0,1,4.13,1.8q4.48,2.49,6,5.74a7.22,7.22,0,0,1-.36,6.91,6.12,6.12,0,0,1-3,2.81,6.69,6.69,0,0,1-4,.4c-.18.32-.07.58.31.8A3.25,3.25,0,0,0,59.68,199.14Zm-5.83-7.7a1,1,0,0,0,.32.24.56.56,0,0,0,.56,0,1.56,1.56,0,0,0,.56-.65l.3-.54a1.93,1.93,0,0,0,.3-.84.51.51,0,0,0-.29-.46,1,1,0,0,0-.43-.16,2,2,0,0,1-.13.26Z"/><path class="cls-9" d="M75.81,190.7l9.3,3.31a6.54,6.54,0,0,1,.1,1.93,7.63,7.63,0,0,1-.36,1.72,4.18,4.18,0,0,1-1.51,2.23,2.24,2.24,0,0,1-2.07.18l-6.5-2.31c-.4-.14-.66,0-.77.26l0,.13a.19.19,0,0,0,0,.14L81.65,201a5.46,5.46,0,0,1,.06,1.44,7.28,7.28,0,0,1-.33,1.53,5.79,5.79,0,0,1-1.78,2.75l-3.5-1.24a20.06,20.06,0,0,0-3.39-1,4.68,4.68,0,0,0-1.19-.07.47.47,0,0,0-.34.3.4.4,0,0,0,.1.43,10.4,10.4,0,0,1,1.89.24c.84.21,1.73.49,2.67.82l4.54,1.61a6,6,0,0,1-.21,3.69,8.37,8.37,0,0,1-1,2,4.21,4.21,0,0,1-1.39,1.32l-12.09-4.29a5.34,5.34,0,0,1-2.86-2.11,3.85,3.85,0,0,1-.25-3.51L68,189.6c.18-.51.91-.68,2.17-.49A32.11,32.11,0,0,1,75.81,190.7Z"/><path class="cls-9" d="M93.56,195.67l9.71,1.8a6.31,6.31,0,0,1,.4,1.89,7,7,0,0,1-.08,1.75,4.25,4.25,0,0,1-1.13,2.44,2.26,2.26,0,0,1-2,.51l-6.79-1.25c-.41-.08-.65.05-.71.37l0,.14a.2.2,0,0,0,0,.14l8,1.49a5.58,5.58,0,0,1,.28,1.4,7,7,0,0,1-.08,1.57,5.81,5.81,0,0,1-1.32,3l-3.65-.68a20.44,20.44,0,0,0-3.51-.44,5.12,5.12,0,0,0-1.19.12.47.47,0,0,0-.29.35.42.42,0,0,0,.17.41,10.08,10.08,0,0,1,1.91-.07c.86.08,1.78.21,2.77.39l4.73.88a6,6,0,0,1,.38,3.67,8.38,8.38,0,0,1-.69,2.14,4.13,4.13,0,0,1-1.17,1.52L86.7,216.88a5.3,5.3,0,0,1-3.16-1.62,3.82,3.82,0,0,1-.8-3.42l3-16c.1-.54.79-.81,2.07-.83A32.86,32.86,0,0,1,93.56,195.67Z"/><path class="cls-9" d="M103.8,216.49l.43-17.15c0-.59.5-1.07,1.47-1.44a8.81,8.81,0,0,1,3.38-.51,7.58,7.58,0,0,1,2,.32,4,4,0,0,1,1.46.71,19.14,19.14,0,0,1,1.24,1.84c.38.63,1.21,2.09,2.51,4.38a.51.51,0,0,0,.35-.11.44.44,0,0,0,.16-.36,2.51,2.51,0,0,0-.4-1L114.68,200l0-.94a6.18,6.18,0,0,1,2.15-1.06,8.71,8.71,0,0,1,2.6-.33,7,7,0,0,1,3.49.87,3.22,3.22,0,0,1,1.48,3L124,217.7a2.23,2.23,0,0,1-1.46,2.1,7.24,7.24,0,0,1-3.21.52,10.13,10.13,0,0,1-2.16-.29,5.46,5.46,0,0,1-1.64-.66,41.27,41.27,0,0,1-2.33-3.55l-1.67-3a.5.5,0,0,0-.51.52,3,3,0,0,0,.47,1.13l2,3.51,0,.9A8,8,0,0,1,109,220.1a7.17,7.17,0,0,1-3.88-1A2.91,2.91,0,0,1,103.8,216.49Z"/><path class="cls-9" d="M155.43,214.73a7.47,7.47,0,0,1-3.76.11,2.77,2.77,0,0,1-2-1.84l-.53-1.53a4.41,4.41,0,0,0,2.12-2.52,1.51,1.51,0,0,0,.11-.82.4.4,0,0,0-.54-.33h-.05a.09.09,0,0,1-.06,0,4,4,0,0,1-3.19,3.36,4.45,4.45,0,0,1-2.41,0,5.42,5.42,0,0,1-2.21-1.6l-.1,0c-.3.08-.42.24-.36.49a1.13,1.13,0,0,0,.35.55,5.26,5.26,0,0,0,2.08,1.35,3.65,3.65,0,0,0,1.8.23l.63,3.18a7.28,7.28,0,0,1-1.88,1.45,13.54,13.54,0,0,1-3.07,1.05,8.17,8.17,0,0,1-3.83.08,3.08,3.08,0,0,1-2.62-2.25c-.35-1.45-.94-5.11-1.74-11-.42-3.06-.67-5.2-.77-6.43a7.6,7.6,0,0,1,4.69-2.76,8.39,8.39,0,0,1,4.24-.08l1.66,2.84v2.59a2,2,0,0,0,.05.5c.09.39.36.54.81.44v-7a8.36,8.36,0,0,1,1.63-1.07,10,10,0,0,1,2.33-.85,6.44,6.44,0,0,1,3.8-.05,3.8,3.8,0,0,1,2.06,2.43c.09.24.24.63.44,1.18q4.66,12.65,5.22,15A7.15,7.15,0,0,1,155.43,214.73Z"/><path class="cls-9" d="M165.53,190.35l6.63,16.4a6.36,6.36,0,0,1-1.52,1.85,9.64,9.64,0,0,1-2.79,1.63,5.86,5.86,0,0,1-3.29.42,2.86,2.86,0,0,1-2.34-1.82l-6.63-16.4a6.39,6.39,0,0,1,1.52-1.85,9.48,9.48,0,0,1,2.78-1.62,6.11,6.11,0,0,1,3.31-.45A2.89,2.89,0,0,1,165.53,190.35Z"/><path class="cls-9" d="M174.1,204.11l-8.43-14.94c-.29-.52-.12-1.18.52-2a8.58,8.58,0,0,1,2.64-2.17,7.46,7.46,0,0,1,1.92-.78,4,4,0,0,1,1.63-.14,19.48,19.48,0,0,1,2,.95c.64.34,2.1,1.17,4.4,2.47a.6.6,0,0,0,.24-.28.43.43,0,0,0-.05-.39,2.46,2.46,0,0,0-.85-.64L175,184.34l-.47-.82a6.25,6.25,0,0,1,1.31-2,8.52,8.52,0,0,1,2-1.62,6.88,6.88,0,0,1,3.45-1,3.21,3.21,0,0,1,2.8,1.8l8,14.12a2.24,2.24,0,0,1-.17,2.56,7.27,7.27,0,0,1-2.49,2.09,9.81,9.81,0,0,1-2,.86,5.32,5.32,0,0,1-1.74.27,38.79,38.79,0,0,1-3.82-1.85l-3-1.68a.51.51,0,0,0-.17.71,2.88,2.88,0,0,0,1,.72l3.56,2,.45.79a8,8,0,0,1-3.27,3.32,7.18,7.18,0,0,1-3.84,1.13A2.9,2.9,0,0,1,174.1,204.11Z"/><path class="cls-9" d="M199.49,192.32a4,4,0,0,1-2.91,1.06,4.1,4.1,0,0,1-2.73-1.72l-9.7-12c-.54-.67-.33-1.79.64-3.35a17.92,17.92,0,0,1,4-4.37q4.4-3.57,8.6-3.44,4.51.12,8.19,4.66,3.31,4.09,2.56,8.42t-5.25,8ZM197,179.1a12.26,12.26,0,0,0-1.61-1.73c-.34-.27-.63-.31-.84-.14a.76.76,0,0,0-.25.42l.6.58a19.38,19.38,0,0,1,1.43,1.66l.7.86c.49.6.83,1.05,1,1.35s.36.55.5.76l.24.34a.7.7,0,0,0,.46-.16c.22-.17.23-.46,0-.85a12,12,0,0,0-1.37-1.93Z"/><path class="cls-9" d="M211.88,167.73a3.93,3.93,0,0,0-1.38.85.58.58,0,0,0,0,.93l.05.05a4.89,4.89,0,0,1,3.42-1.28,4.79,4.79,0,0,1,3.4,1.42,4.74,4.74,0,0,1,1.46,3.45,4.9,4.9,0,0,1-1.41,3.52,4.79,4.79,0,0,1-3.47,1.49,4.71,4.71,0,0,1-3.49-1.38,4.8,4.8,0,0,1-1.33-2.26,5.17,5.17,0,0,1,0-2.59,16.82,16.82,0,0,1-4.08-1.67,18.49,18.49,0,0,1-3.86-2.9l-4-3.89a6.28,6.28,0,0,1,.7-1.92,8.44,8.44,0,0,1,1.39-1.9,4.75,4.75,0,0,1,3.51-1.76q1.72.09,3.92,2.22l.79.77A19.07,19.07,0,0,1,211.88,167.73Z"/></g></svg>