<svg xmlns="http://www.w3.org/2000/svg" viewBox="0 0 234.2 225.92"><defs><style>.cls-1,.cls-7{fill:#fff;}.cls-1,.cls-10,.cls-2,.cls-3,.cls-4,.cls-5,.cls-6,.cls-8{stroke:#000;}.cls-1,.cls-10,.cls-2,.cls-3,.cls-4,.cls-5,.cls-6,.cls-8,.cls-9{stroke-miterlimit:10;stroke-width:0.5px;}.cls-2{fill:#585858;}.cls-3,.cls-9{fill:none;}.cls-5{fill:#cbcbcb;}.cls-6{fill:#dadada;}.cls-8{fill:#8c8c8c;}.cls-9{stroke:#888;}.cls-10{fill:#858585;}</style></defs><g id="_02" data-name="02"><path class="cls-1" d="M5.47,43.08l77.43.18S87.61,12,63.35,20.18c0,0-2.23-13.56-15.34-15.42A17.81,17.81,0,0,0,27.53,21.61S4.46,10.18,5.47,43.08Z"/><path class="cls-1" d="M160.44,57.57l65.94.16s4-26.6-16.65-19.66c0,0-1.9-11.54-13.06-13.12a15.16,15.16,0,0,0-17.44,14.34S159.58,29.56,160.44,57.57Z"/><path class="cls-1" d="M185.72,115.34l40.06.09s2.43-16.16-10.11-11.94c0,0-1.16-7-7.94-8a9.21,9.21,0,0,0-10.59,8.71S185.2,98.32,185.72,115.34Z"/><path class="cls-1" d="M5.45,94.86l40.06.1S47.94,78.8,35.4,83c0,0-1.16-7-7.94-8a9.19,9.19,0,0,0-10.59,8.71S4.93,77.84,5.45,94.86Z"/><path class="cls-2" d="M96.19,164.06s-44.08-63.12-50.37,28.88h8.8s8.6-51.16,33.76-20.93Z"/><path class="cls-3" d="M29.34,219.38a5.79,5.79,0,1,1-5.81-5.76A5.77,5.77,0,0,1,29.34,219.38Z"/><path class="cls-3" d="M26.31,219.21a2.79,2.79,0,1,1-2.8-2.78A2.78,2.78,0,0,1,26.31,219.21Z"/><path class="cls-4" d="M45.15,219.28a5.79,5.79,0,1,1-5.82-5.76A5.79,5.79,0,0,1,45.15,219.28Z"/><path class="cls-3" d="M42.12,219.11a2.79,2.79,0,1,1-2.8-2.77A2.8,2.8,0,0,1,42.12,219.11Z"/><path class="cls-4" d="M29.34,219.38a5.79,5.79,0,1,1-5.81-5.76A5.77,5.77,0,0,1,29.34,219.38Z"/><path class="cls-1" d="M26.31,219.21a2.79,2.79,0,1,1-2.8-2.78A2.78,2.78,0,0,1,26.31,219.21Z"/><path class="cls-4" d="M45.15,219.28a5.79,5.79,0,1,1-5.82-5.76A5.79,5.79,0,0,1,45.15,219.28Z"/><path class="cls-1" d="M42.12,219.11a2.79,2.79,0,1,1-2.8-2.77A2.8,2.8,0,0,1,42.12,219.11Z"/><path class="cls-4" d="M61.84,219.28A5.79,5.79,0,1,1,56,213.52,5.79,5.79,0,0,1,61.84,219.28Z"/><path class="cls-3" d="M58.81,219.11a2.79,2.79,0,1,1-2.8-2.77A2.78,2.78,0,0,1,58.81,219.11Z"/><path class="cls-4" d="M61.84,219.28A5.79,5.79,0,1,1,56,213.52,5.79,5.79,0,0,1,61.84,219.28Z"/><path class="cls-1" d="M58.81,219.11a2.79,2.79,0,1,1-2.8-2.77A2.78,2.78,0,0,1,58.81,219.11Z"/><path class="cls-5" d="M62.59,213,17,213.59S14.8,197.52,35,199c1.51.11,3.16.33,4.94.64l-2.92-10.36,22.44-.88Z"/><path class="cls-6" d="M50.32,197.3c0,.8-3.55,1.46-8,1.48-.77,0-1.52,0-2.23,0l-.51-1.41-.48-1.4c.76,0,2.38,0,3.21,0C46.75,195.87,50.32,196.51,50.32,197.3Z"/><path class="cls-6" d="M49.69,192c0,.8-3.73,1.78-8.13,1.8-.89,0-2.06.08-2.85,0l-1-2.87c.84-.05,2.87,0,3.81,0C45.94,190.92,49.68,191.23,49.69,192Z"/><path class="cls-7" d="M26.41,202a1.09,1.09,0,0,0-1.45-.38,10,10,0,0,0-6.19,7.8,1.07,1.07,0,0,0,1.07,1.06,1.1,1.1,0,0,0,1.05-1.07c0,.22,0-.1,0-.12s0-.2.06-.3a4.21,4.21,0,0,1,.12-.48c.06-.2.12-.38.19-.57l0-.05v0c0-.08.07-.15.1-.23a6.9,6.9,0,0,1,.55-.95,2.2,2.2,0,0,1,.17-.25s.08-.11.1-.14a4,4,0,0,1,.33-.39,8.3,8.3,0,0,1,.78-.79l.39-.33.14-.11.2-.15a11,11,0,0,1,2-1.09A1.06,1.06,0,0,0,26.41,202Z"/><path class="cls-7" d="M55.49,191.21l2,17.74a1.06,1.06,0,0,0,2.1-.23l-2-17.75A1.06,1.06,0,0,0,55.49,191.21Z"/><path class="cls-2" d="M110.83,169.63s25.92,94.3,59.16,6.3l-5.6-6.53s-26.72,50.16-41.63-2.3Z"/><path class="cls-3" d="M185.77,164.36a5.79,5.79,0,1,1-.52,8.18A5.8,5.8,0,0,1,185.77,164.36Z"/><path class="cls-3" d="M187.64,166.76a2.79,2.79,0,1,1-.25,3.94A2.79,2.79,0,0,1,187.64,166.76Z"/><path class="cls-4" d="M175.89,153.51a5.79,5.79,0,1,1-.52,8.17A5.8,5.8,0,0,1,175.89,153.51Z"/><path class="cls-3" d="M177.76,155.91a2.79,2.79,0,1,1-.25,3.93A2.78,2.78,0,0,1,177.76,155.91Z"/><path class="cls-4" d="M185.77,164.36a5.79,5.79,0,1,1-.52,8.18A5.8,5.8,0,0,1,185.77,164.36Z"/><path class="cls-1" d="M187.64,166.76a2.79,2.79,0,1,1-.25,3.94A2.79,2.79,0,0,1,187.64,166.76Z"/><path class="cls-3" d="M195.93,176a5.79,5.79,0,1,1-.52,8.17A5.79,5.79,0,0,1,195.93,176Z"/><path class="cls-3" d="M197.8,178.38a2.78,2.78,0,1,1-.25,3.93A2.79,2.79,0,0,1,197.8,178.38Z"/><path class="cls-4" d="M195.93,176a5.79,5.79,0,1,1-.52,8.17A5.79,5.79,0,0,1,195.93,176Z"/><path class="cls-1" d="M197.8,178.38a2.78,2.78,0,1,1-.25,3.93A2.79,2.79,0,0,1,197.8,178.38Z"/><path class="cls-4" d="M175.89,153.51a5.79,5.79,0,1,1-.52,8.17A5.8,5.8,0,0,1,175.89,153.51Z"/><path class="cls-1" d="M177.76,155.91a2.79,2.79,0,1,1-.25,3.93A2.78,2.78,0,0,1,177.76,155.91Z"/><path class="cls-5" d="M170.7,156.58l30.42,34s-10.7,12.18-22.85-4.07a45.94,45.94,0,0,1-2.77-4.15l-5.89,9L154.2,175.07Z"/><path class="cls-6" d="M166.92,176.16c.6-.53,3.43,1.72,6.34,5,.51.58,1,1.16,1.43,1.71l-.73,1.3-.74,1.28c-.52-.53-1.58-1.76-2.13-2.38C168.19,179.79,166.33,176.68,166.92,176.16Z"/><path class="cls-6" d="M163.37,180.1c.59-.53,3.78,1.64,6.69,4.94.59.67,1.41,1.51,1.89,2.14l-1.52,2.6c-.59-.59-1.92-2.13-2.54-2.83C165,183.65,162.76,180.63,163.37,180.1Z"/><path class="cls-7" d="M186.14,191.13a1.09,1.09,0,0,0,.67,1.33,10,10,0,0,0,9.95-.46,1.06,1.06,0,0,0,.09-1.49,1.09,1.09,0,0,0-1.49-.1l-.11.07-.26.15a4.71,4.71,0,0,1-.45.22,5.31,5.31,0,0,1-.55.23l-.05,0h0l-.24.07a8,8,0,0,1-1.08.22l-.3,0-.17,0h-.51a10,10,0,0,1-1.1-.07l-.51-.08-.17,0-.25-.06a11.05,11.05,0,0,1-2.11-.76A1.06,1.06,0,0,0,186.14,191.13Z"/><path class="cls-7" d="M158.93,176.27,171,163.1a1.06,1.06,0,0,0-1.56-1.43l-12.06,13.17A1.06,1.06,0,0,0,158.93,176.27Z"/><path class="cls-2" d="M39.26,106.13s19.26,38.56,57.46,39.75l2.69-10.71a92.5,92.5,0,0,1-24.5-6.61c-15.94-7-27.7-16-33.53-23.73C41.33,104.77,39.34,106.12,39.26,106.13Z"/><path class="cls-8" d="M55.13,98.51A11,11,0,0,0,50.29,85.4C46.05,83,40,84,35.77,88.14c-3.26-2.35-7.34-1.75-9.09.59s-.48,5.62-.4,5.82a5,5,0,0,0-1.94.34c-3.92,1.52-6.71,8.58-4,13.79,2,3.93,6.87,6.15,11.88,5.3a6.35,6.35,0,0,0,5.64,5.77,5.6,5.6,0,0,0,6.31-4.13,10.41,10.41,0,0,0,12.92-14.93A8.64,8.64,0,0,0,55.13,98.51Z"/><path class="cls-2" d="M186.93,128.38s-27.06,33.54-64.63,26.54l-.34-11a92.57,92.57,0,0,0,25.35-1.22c17.07-3.46,30.49-9.74,37.83-16C185.2,126.61,186.85,128.35,186.93,128.38Z"/><path class="cls-8" d="M173.06,117.54a11.2,11.2,0,0,1,.9-5.8,11.05,11.05,0,0,1,6.63-6c4.67-1.47,10.33.8,13.6,5.78,3.69-1.6,7.55-.14,8.75,2.52s-.73,5.59-.85,5.77a5.21,5.21,0,0,1,1.83.74c3.5,2.33,4.71,9.83,1,14.33-2.84,3.4-8,4.54-12.74,2.63a6.36,6.36,0,0,1-6.74,4.44,5.6,5.6,0,0,1-5.28-5.39,10.41,10.41,0,0,1-9.43-17.35A8.67,8.67,0,0,1,173.06,117.54Z"/><path class="cls-2" d="M83.89,167.14c9.41-13.92,17.73-63.46,17.73-63.46L132.31,107c-6.68,29.6-7.24,67.73-7.24,67.73-2.82,1.67-10.72,5.42-19.23,5.19C92.46,179.51,85.64,169,83.89,167.14Z"/><path class="cls-9" d="M105.74,109.94c-1.08,4.55-1.18,9.19-2,13.76-.94,4.87-2.74,9.53-3.8,14.35-2.75,12.53-5.37,28.64-10.6,33"/><path class="cls-9" d="M109,110.55c.62,6.56-1.56,13.6-4.39,19.38-2.33,4.78-2.88,10-3.78,15.18-.49,2.84-.77,6.06,1.41,8.28a6.53,6.53,0,0,0,8.23,1,12,12,0,0,0,4.63-5.58c1.17-2.7.84-5.21,1-8.08.17-3.1,1-12.53-5.11-9.91-2.6,1.13-3.92,5.28-4.67,7.71s-2.61,7.16-.92,9.56,4.48,1.11,5.84-.66c1.83-2.38,1.53-5.18.59-7.82"/><path class="cls-9" d="M110.24,126.93c4-2.43,9-1.27,9.93,3.84.44,2.59-.32,5.12-.62,7.68-.38,3.29,1.1,6.2,1,9.45-.27,6.48-4.52,11.91-11.42,12a12.23,12.23,0,0,1-5.9-1.79c-1.16-.75-2.26-3-3.84-2.76-2.16.33-1.14,3.5-1,4.89.25,2.9-3.56,12-4.66,14.67"/><path class="cls-9" d="M105.55,162.35c-.68,3.63-1.42,13.29-4.42,16.18"/><path class="cls-9" d="M114.36,123.56c2-1.71,1.23-4.58,1.43-6.81.17-1.88.3-4.76,1.29-6.41"/><path class="cls-9" d="M125.49,109.43c-3.29,3.46-5.17,8.35-3.49,13,.61,1.71,1.69,3.3,2,5.11s-.74,3.26-.65,5.06a14.53,14.53,0,0,1-.92,7.09c-1.21,3.11.78,7.06,1.25,10.19a10.27,10.27,0,0,1-3.49,9.39,10.1,10.1,0,0,1-5.56,2.8c-.56.06-2.16-.3-2.68,0-1.8,1-.19,5.28-.14,6.78.17,5.84-1.68,9.45-2.26,9.43"/><path class="cls-9" d="M121,162.08c-.87,2.64-3.34,3.17-4.62,5.47s.26,6,0,8.51"/><path class="cls-9" d="M98.1,128.69c-6.61,33.18-8.67,29.88-11.29,39.79"/><path class="cls-9" d="M126.43,133.55c-1,3.41-1.89,7-1,10.59"/><path class="cls-9" d="M121.93,174.72a8.47,8.47,0,0,1-1.1-3.81c0-1.7,1.16-2.66,1.79-4.14a20.6,20.6,0,0,0,1.37-8.36"/><path class="cls-8" d="M175.2,63.91c6.72-15.62,4-33.4-6.86-44.85-13.44-14.21-37.19-16.41-55-3.64C99.8-5.85,65.77,8.18,76.15,34.85,47.07,27.31,36.46,65.62,64.56,74.37a12.17,12.17,0,0,0-3.84,4.34C53.46,94.48,61.91,111,74.09,121c13.33,11,34.13,11.65,52.31,1.84,7,12.8,23,15.74,32.38,8.82,7.05-5.2,10.34-15.67,4.83-28.25C194,109.32,204.13,74.84,175.2,63.91Z"/><path class="cls-3" d="M72.8,37.11s1.6,8.5,12.08,8.57"/><path class="cls-3" d="M74.84,30.89s1.61,8.49,12.09,8.56"/><path class="cls-3" d="M79.6,26s1.61,8.49,12.09,8.56"/><path class="cls-4" d="M99.15,26.24c4.81,1.56,5.88,5.6,5.33,9.52-.48,3.48-2.94,5.55-4.21,8.65s1.64,6.34,1.54,9.54c-.12,3.69-2.12,6.31-4.3,9.43s-1.11,5.85-2.62,9c-2.09,4.39-9.6,7.84-13.45,3.7-4.36-4.69-.27-9.16.54-14.19.78-4.87-3-8.74.59-13.68,1.39-1.94,3-3.45,4-5.65,1.56-3.4.41-7,1.6-10.5C89.42,28.31,92.83,24.19,99.15,26.24Z"/><path class="cls-1" d="M82,61.9c-.81,5-4.9,9.5-.54,14.18A5.93,5.93,0,0,0,86,78a5.44,5.44,0,0,1-1.74-1.28C79.9,72,84,67.51,84.8,62.49s-3-8.74.6-13.68c1.39-1.94,3-3.45,4-5.64,1.57-3.4.41-7,1.6-10.51,1.08-3.2,3.7-6.65,8.35-6.35l-.19-.07c-6.32-2-9.72,2.07-11,5.83-1.18,3.54,0,7.1-1.6,10.51-1,2.19-2.59,3.7-4,5.63C79,53.16,82.76,57,82,61.9Z"/><path class="cls-3" d="M158.66,59.27S153.18,66,143.94,61"/><path class="cls-3" d="M159.84,52.83s-5.48,6.69-14.71,1.73"/><path class="cls-3" d="M158,46.25s-5.48,6.68-14.72,1.73"/><path class="cls-4" d="M140.72,37.12c-5-.94-7.84,2.1-9.24,5.8-1.24,3.29-.07,6.28-.44,9.61s-4.47,4.78-5.92,7.64c-1.66,3.3-1.16,6.55-.74,10.34s-1.82,5.67-2,9.16c-.26,4.86,4.68,11.48,10,9.69,6.07-2,4.62-7.92,6.32-12.72s6.78-6.25,6-12.29c-.29-2.37-1-4.46-.81-6.87.26-3.74,3-6.31,3.62-10C148.27,43.58,147.25,38.34,140.72,37.12Z"/><path class="cls-1" d="M138.73,76.64c-1.69,4.8-.24,10.69-6.32,12.71a5.89,5.89,0,0,1-4.91-.54,5.4,5.4,0,0,0,2.15-.29c6.07-2,4.62-7.91,6.32-12.71s6.78-6.25,6-12.3c-.31-2.36-1-4.46-.81-6.86.25-3.74,3-6.32,3.62-10,.59-3.33-.06-7.61-4.29-9.57l.2,0c6.53,1.23,7.55,6.48,6.85,10.38-.65,3.68-3.37,6.25-3.62,10-.17,2.41.51,4.5.81,6.86C145.52,70.39,140.37,72,138.73,76.64Z"/><path class="cls-8" d="M102.64,105.19c-5.32-3-7.29-3.7-11.77-3.54-2.64.09-5.08,1-7.75.62a10,10,0,0,1-6-2.88c-.1-.11-.19-.22-.28-.34-3.33-4.33-2.2-12-.15-16.57,1.35-3,3.72-6,7-6.74,1.59-.35,3.47.33,5,.87a33.31,33.31,0,0,1,3,1.52c4.88,2.29,9.13,4.56,14.09,3.05l1.12-6.28"/><path class="cls-4" d="M85.48,88.4c-1.07,5.37-3.55,9.38-5.52,8.95s-2.69-5.13-1.62-10.5,3.55-9.38,5.53-9S86.56,83,85.48,88.4Z"/><path class="cls-7" d="M88,77.75a.55.55,0,1,0-.92.61c1.94,2.31,1.7,5.31,1.13,8.08a.56.56,0,0,0,1.09.23C90,83.65,90.16,80.27,88,77.75Z"/><path class="cls-7" d="M89.15,88.51a.48.48,0,0,0-.07-.2.39.39,0,0,0-.15-.16.44.44,0,0,0-.19-.1l-.15,0a.65.65,0,0,0-.27.08l-.11.09a.6.6,0,0,0-.14.26l0,.16a.41.41,0,0,0,0,.22.37.37,0,0,0,.06.21.57.57,0,0,0,.15.16.44.44,0,0,0,.19.1h.15a.5.5,0,0,0,.27-.07l.11-.09a.51.51,0,0,0,.14-.26l0-.16A.45.45,0,0,0,89.15,88.51Z"/><path class="cls-10" d="M100.66,69.85a5.55,5.55,0,0,0,2.73,7.52A6,6,0,0,0,111.27,75a5.55,5.55,0,0,0-2.73-7.52A6,6,0,0,0,100.66,69.85Z"/><line class="cls-3" x1="81.53" y1="210.96" x2="101.37" y2="210.96"/><line class="cls-3" x1="73.75" y1="215.98" x2="98.64" y2="215.98"/></g></svg>