<svg xmlns="http://www.w3.org/2000/svg" viewBox="0 0 233.86 215.62"><defs><style>.cls-1,.cls-2,.cls-3,.cls-4,.cls-5,.cls-6,.cls-7,.cls-8,.cls-9{stroke:#000;stroke-miterlimit:10;stroke-width:0.5px;}.cls-2{fill:#858585;}.cls-3{fill:#fff;}.cls-4,.cls-6{fill:none;}.cls-5{fill:#dadada;}.cls-6{stroke-linecap:round;}.cls-7{fill:#8c8c8c;}.cls-8{fill:#cbcbcb;}.cls-9{fill:#6b6b6b;}</style></defs><g id="PREVIEW"><path class="cls-1" d="M88.86,131.42c-2.09-2.31-4.25-4.55-6.55-6.67-9.77,8.72-19.45,17.52-28,27.39l6.79,6.46C69.57,148.81,79.17,140.07,88.86,131.42Z"/><path class="cls-2" d="M64,157.3a7.61,7.61,0,0,1,.79,6.49,7.47,7.47,0,0,1-4.26,4.31l-25.62-7.34-11.6-3.33s2.29-12.78,15.48-10.54A26.11,26.11,0,0,1,43,148a5.76,5.76,0,0,1,.61-3.76,5.35,5.35,0,0,1,2.8-2.48c2.18-.66,6.85,1.27,8.43,4.28Z"/><path class="cls-3" d="M23.29,157.43A2.84,2.84,0,0,0,22,161.37l37,12a4.11,4.11,0,0,0,1.68-5.18Z"/><path class="cls-3" d="M34.89,160.76l-11.6-3.33s2.29-12.78,15.48-10.54C39.33,149.58,39.15,154.23,34.89,160.76Z"/><line class="cls-4" x1="42.99" y1="148.01" x2="50.02" y2="152.66"/><line class="cls-4" x1="41.01" y1="147.41" x2="46.49" y2="155.61"/><path class="cls-3" d="M51.52,153.35a.88.88,0,0,1-1.11.57.88.88,0,1,1,.55-1.68A.87.87,0,0,1,51.52,153.35Z"/><path class="cls-3" d="M47.78,156.55a.88.88,0,1,1-.57-1.11A.89.89,0,0,1,47.78,156.55Z"/><path class="cls-1" d="M136.2,136.7c1.87-2.49,3.83-4.91,5.94-7.22,10.49,7.84,20.9,15.76,30.32,24.85l-6.2,7C156.92,152.34,146.61,144.47,136.2,136.7Z"/><path class="cls-2" d="M163.24,160.31a7.25,7.25,0,0,0,4.39,10.46l24.89-9.55,11.26-4.33s-3.39-12.53-16.34-9.15a24.89,24.89,0,0,0-4.1,1.49,5.69,5.69,0,0,0-.94-3.69,5.25,5.25,0,0,0-3-2.23c-2.22-.47-6.71,1.86-8,5Z"/><path class="cls-3" d="M203.78,156.89a2.9,2.9,0,0,1,1.56,1.4,2.94,2.94,0,0,1,.06,2.41l-35.79,15.15a4.13,4.13,0,0,1-2-2,4.21,4.21,0,0,1-.16-3Z"/><path class="cls-3" d="M192.52,161.22l11.26-4.33s-3.39-12.53-16.34-9.15C187.12,150.47,187.71,155.08,192.52,161.22Z"/><line class="cls-4" x1="183.34" y1="149.23" x2="176.75" y2="154.47"/><line class="cls-4" x1="185.26" y1="148.46" x2="180.51" y2="157.1"/><path class="cls-3" d="M175.3,155.29a.89.89,0,1,0,.47-1.16A.89.89,0,0,0,175.3,155.29Z"/><path class="cls-3" d="M179.31,158.15a.89.89,0,1,0,.47-1.16A.89.89,0,0,0,179.31,158.15Z"/><path class="cls-3" d="M158.19,107.12s38.9,3.24,56.71-15.7S203.75,7.28,143.69,76.8Z"/><line class="cls-4" x1="150.74" y1="91.42" x2="196.4" y2="72.03"/><path class="cls-3" d="M77,104S38,103,22.38,82.18,42.75-.22,94.77,75.5Z"/><line class="cls-4" x1="86.15" y1="89.25" x2="42.91" y2="64.95"/><polygon class="cls-1" points="105.06 155.07 110.44 180.16 120.19 157.45 105.06 155.07"/><path class="cls-5" d="M160.75,101.29q-.19,2.79-.56,5.51A90.24,90.24,0,0,1,157.72,119h0c-3.34,12-9,22.35-16.13,29.86-8.35,8.81-18.67,13.74-29.49,12.95-11.66-.84-21.78-8.17-28.87-19.45-5.45-8.67-9.11-19.67-10.3-31.84A88,88,0,0,1,72.53,99c0-1.35.1-2.71.2-4.07A90.08,90.08,0,0,1,77.2,72.56C85.25,49,102.56,33,121.39,34.39s33.8,19.84,38.25,44.55A89.83,89.83,0,0,1,160.75,101.29Z"/><path class="cls-1" d="M160.75,101.29q-.19,2.79-.56,5.51a162.63,162.63,0,0,1-45,2A162.94,162.94,0,0,1,72.53,99c0-1.35.1-2.71.2-4.07A90.08,90.08,0,0,1,77.2,72.56a136.13,136.13,0,0,0,41.47,9.69,135.93,135.93,0,0,0,41-3.31A89.83,89.83,0,0,1,160.75,101.29Z"/><path class="cls-1" d="M157.72,119c-3.34,12-9,22.35-16.13,29.86a162.88,162.88,0,0,1-29.63-.62,161.8,161.8,0,0,1-28.73-5.88c-5.45-8.67-9.11-19.67-10.3-31.84a136.18,136.18,0,0,0,43,11.18A136,136,0,0,0,157.72,119Z"/><path class="cls-2" d="M107.12,62.35c2.07,2.67,5.53,5,10.88,5.93a16.4,16.4,0,0,0,12.92-2.62c5.15-3.82,6.51-10.27,2.3-12.87-6.71-4.16-12.65,2.27-12.65,2.27s-7.27-9.67-14-4.63C104.2,52.21,103.59,57.81,107.12,62.35Z"/><path class="cls-4" d="M129,57.22c-1.47,1.33-5.43,4.53-10.11,3.77s-7.48-5.27-8.4-7"/><path class="cls-1" d="M125.47,45.76a3.73,3.73,0,1,1-3.75-3.69A3.74,3.74,0,0,1,125.47,45.76Z"/><path class="cls-3" d="M145.24,36.74a9.6,9.6,0,0,0-1.06,4.15c0,1.53.81,3.22.66,4.75-.2,2-1.86,3.19-2.52,5a4.8,4.8,0,0,0-.28,1.19,10.57,10.57,0,0,0-1.45-.93l-.08,0a14.6,14.6,0,0,0-5.45-1.6,15.82,15.82,0,0,0-3.52.06,13,13,0,0,0-2.23.49,2.68,2.68,0,0,0-.05-.42c-.29-1.86-1.7-3.41-1.53-5.36.16-1.53,1.23-3,1.56-4.52a9.53,9.53,0,0,0-.23-4.28c-.73-3.55.15-5.24,2-8.21,1.17-1.9.9-3.36.68-5.51a8,8,0,0,1,.65-4A7.92,7.92,0,0,1,140,12.34c5,.36,6.52,6.17,5.22,10.42-.63,2.06-1.18,3.46-.39,5.55C146.08,31.56,146.63,33.4,145.24,36.74Z"/><path class="cls-1" d="M142.13,42.14a12.7,12.7,0,0,0-1,4.41,32.2,32.2,0,0,1-.64,4.26,14.6,14.6,0,0,0-5.45-1.6,15.82,15.82,0,0,0-3.52.06,9.33,9.33,0,0,1-.76-3.83c.16-1.63,1.09-3.24,1.4-4.82a12.26,12.26,0,0,0-.11-4.52c-.53-3.73.24-5.53,1.85-8.71a8.83,8.83,0,0,0,.77-4.61c-.15-2.71.72-6.45,4.43-6.21,4.21.27,4.49,6.28,3.3,10.79-.57,2.2-1.06,3.68-.44,5.87.25.88.46,1.66.62,2.39l-7.44,1.56,7.47,3.17A14.54,14.54,0,0,1,142.13,42.14Z"/><path class="cls-6" d="M156.71,25.19a23.06,23.06,0,0,1-6.46.75,22.34,22.34,0,0,1-5.59-1"/><path class="cls-6" d="M156.94,31.32a17.8,17.8,0,0,1-5.84.77,18.82,18.82,0,0,1-5.14-.83"/><path class="cls-6" d="M157,37.71a22.08,22.08,0,0,1-11.87-.38"/><path class="cls-3" d="M114.92,42c-.07,1.95-1.65,3.3-2.21,5.11a4.94,4.94,0,0,0-.2,1.21,9.89,9.89,0,0,0-1.5-.85c-.31-.14-.63-.27-1-.4a15.08,15.08,0,0,0-4.67-.89,14.93,14.93,0,0,0-4.13.43,12.5,12.5,0,0,0-1.57.49,2.25,2.25,0,0,0-.06-.36.19.19,0,0,0,0-.07h0c-.42-1.83-1.91-3.28-1.86-5.23.05-1.54,1-3.11,1.27-4.62a9.47,9.47,0,0,0-.51-4.25c-1-3.5-.18-5.24,1.47-8.32,1-2,.69-3.41.33-5.54a8.3,8.3,0,0,1,.39-4.06A7.93,7.93,0,0,1,108,9c5,.05,6.9,5.74,5.86,10.07-.49,2.1-1,3.53,0,5.56,1.43,3.17,2.09,5,.93,8.4a9.23,9.23,0,0,0-.79,4.2C114.1,38.79,115,40.41,114.92,42Z"/><path class="cls-1" d="M111,37.49c.08,1.64.77,3.4.69,5.06s-1,3-1.6,4.47a15.08,15.08,0,0,0-8.8-.46,35.56,35.56,0,0,1,0-4.38,13.09,13.09,0,0,0-.34-4.59,15.87,15.87,0,0,1-.24-1.88l7.84-2.12-7.13-2.66c.26-.71.58-1.46,1-2.31.92-2.12.65-3.69.4-6-.27-2.51-.48-5.18.79-7.46,2-3.64,7.66-4.09,7.77,1,0,2.6-1,5.18-.16,7.75,1.15,3.44,1.66,5.38.6,9.07A12.62,12.62,0,0,0,111,37.49Z"/><path class="cls-6" d="M88.59,20.15a22.88,22.88,0,0,0,6.27,1.71,22,22,0,0,0,5.67-.16"/><path class="cls-6" d="M87.45,26.19a18,18,0,0,0,5.66,1.62,18.71,18.71,0,0,0,5.21-.06"/><path class="cls-6" d="M87.05,32.58a22.25,22.25,0,0,0,6.13,1.54A22,22,0,0,0,98.85,34"/><path d="M76.22,75.65q-1.14,3.81-2,7.86A16.35,16.35,0,0,1,63.2,75.68C57.08,65.52,59,52.23,62.1,40.38c.31-1.2.63-2.37,1-3.53h0l.09-.31h0c.72-2.52,1.46-5,2.15-7.26.83-2.77,3.52-3.06,5.49-1.9,0,0,0,0,0,0h0a4.19,4.19,0,0,1,2,4.9c-.51,1.68-1,3.42-1.56,5.22h0l0,.12h0c-.42,1.43-.83,2.9-1.21,4.39h0c-2.39,9-4,18.75-1,27.1A9.43,9.43,0,0,0,76.22,75.65Z"/><path class="cls-3" d="M70.18,18.3S71.49,1.32,76.74,3c4.07,1.33.29,17.31.29,17.31s8.75,6.81-1.15,15.7c0,0-.25,3.78-1.4,4.77s-9.51,3-13.79-1.65L61,35.61a5.71,5.71,0,0,1-3.86-6.42s-5.55-11.45,4-11.52a5.36,5.36,0,0,1,1.62-2.85C63,14.6,65,12.88,67.24,13.6A4.65,4.65,0,0,1,70.18,18.3Z"/><path class="cls-3" d="M61.18,17.67c-.25,2.33-.12,5.19,1.24,7.19a4.09,4.09,0,0,0,3.2,1.8c1.66.09,3.29-.29,4-1.91,1-2.27.77-5.28.4-7.67"/><path class="cls-3" d="M57,28.71a4.94,4.94,0,0,0,2.36,1.23,3.72,3.72,0,0,0,2.28-.29,4.36,4.36,0,0,0,2.09-3.42"/><path class="cls-3" d="M77,20.35a27.32,27.32,0,0,0-4.16-1.26c-2.87-.64-7.74-1.7-8.82,2s4.5,5.3,8.39,6.19c0,0-5.5-.69-6.32,5.44"/><path class="cls-3" d="M61,35.61s.57,1.17,3.7,1.59"/><path class="cls-3" d="M70.88,37.63a8.77,8.77,0,0,0,5-1.58"/><path class="cls-7" d="M130.7,87.7a109.68,109.68,0,0,0-6.06,42c.2,3.43,3.28,2.3,3.08-1.16A99.23,99.23,0,0,1,133,90.74C134.14,87.62,131.82,84.55,130.7,87.7Z"/><path class="cls-8" d="M145.68,72.35c-1.51-1.82-4.68-2.36-7.08-1.2a4.68,4.68,0,0,0-1.68,1.34,3.3,3.3,0,0,0-.76-1.59c-1.51-1.82-4.68-2.35-7.07-1.19a3.67,3.67,0,0,0-2.35,3.77,6.47,6.47,0,0,0-6-.09c-2.33,1.23-2.92,3.67-1.31,5.44a4.68,4.68,0,0,0,1.13.89,6.32,6.32,0,0,0-2.69.7c-2.33,1.23-2.91,3.66-1.31,5.44a5.88,5.88,0,0,0,4.83,1.64,3.21,3.21,0,0,0-.29,4.73,6.19,6.19,0,0,0,7.13,1,4.79,4.79,0,0,0,1.17-.86,3.32,3.32,0,0,0,.58,1.56c1.32,1.9,4.42,2.63,6.93,1.62,2-.81,3-2.48,2.67-4.09a6.48,6.48,0,0,0,5.35.43c2.56-.94,3.65-3.27,2.43-5.22a4.54,4.54,0,0,0-1.82-1.58,6.33,6.33,0,0,0,3-.61c2.39-1.16,3.11-3.57,1.59-5.39a5.87,5.87,0,0,0-5.32-1.73C146.6,76.08,147,74,145.68,72.35Z"/><line class="cls-4" x1="122.18" y1="75.62" x2="125.97" y2="78.27"/><line class="cls-4" x1="141.25" y1="87.23" x2="145.04" y2="89.87"/><line class="cls-4" x1="118.91" y1="84.07" x2="124.05" y2="83.82"/><line class="cls-4" x1="143.17" y1="81.68" x2="148.31" y2="81.43"/><line class="cls-4" x1="124.39" y1="91.6" x2="127.82" y2="88.65"/><line class="cls-4" x1="139.4" y1="76.84" x2="142.83" y2="73.9"/><line class="cls-4" x1="135.09" y1="93.96" x2="134.85" y2="90.04"/><line class="cls-4" x1="132.37" y1="75.45" x2="132.13" y2="71.53"/><path class="cls-9" d="M141.91,82.51c0,3.6-3.88,6.52-8.61,6.51s-8.55-2.93-8.52-6.53S128.66,76,133.39,76,141.93,78.9,141.91,82.51Z"/><path d="M179.24,106.3c-5,5.5-13,9.31-21.2,11.49A66.23,66.23,0,0,1,140,120c-5.62-.16-6.48-9-.8-8.8a58,58,0,0,0,20.84-3.47,42.92,42.92,0,0,0,9.73-4.93c11.61-8.07,0-16.32-9.77-21.58-.1-.78-.23-1.54-.37-2.29a79.56,79.56,0,0,0-2.13-8.89c8.89,4.31,19.05,8.58,23.94,17.64A15.59,15.59,0,0,1,179.24,106.3Z"/><path class="cls-3" d="M141.69,108.91s4.26-2.61,4.74.74c.37,2.55-.49,8-.93,10.43a3,3,0,0,1-2.08,2.42,4.79,4.79,0,0,1-3.3-1.09c-1.83,1.08-4.34,3.27-8.79,3.3a21.1,21.1,0,0,1-9.81-2.27,8,8,0,0,1-3.64-3.42,5.18,5.18,0,0,1-.58-2.86,3,3,0,0,1,.5-1.36l.67-.92s-2.5-4.49,2.38-6c0,0-3.37-7.3,6.91-4.69.62.16,1.49-2.58,4-3.58a7.76,7.76,0,0,1,5.58,0C140.41,100.84,142.3,104.67,141.69,108.91Z"/><line class="cls-3" x1="120.95" y1="107.92" x2="124.8" y2="109.26"/><line class="cls-3" x1="118.47" y1="113.88" x2="122.59" y2="114.95"/><line class="cls-3" x1="127.76" y1="103.17" x2="133.42" y2="104.83"/><line class="cls-3" x1="141.69" y1="108.91" x2="141.22" y2="113.02"/><line class="cls-3" x1="140.4" y1="118.4" x2="140.12" y2="121.41"/><path class="cls-8" d="M19.15,185a.47.47,0,0,0,.65-.18A2,2,0,0,0,20,184a3.14,3.14,0,0,0-.16-1.18A5,5,0,0,0,17.46,180a5.47,5.47,0,0,0-1.91-.7,3.71,3.71,0,0,1-.56-2.18,4.88,4.88,0,0,1,.68-2.33,5.71,5.71,0,0,1,5-3,10.49,10.49,0,0,1,5.82,1.62,14.77,14.77,0,0,1,3.48,2.67,9.24,9.24,0,0,1,1.77,2.68,5.83,5.83,0,0,1-.71,1.87,6,6,0,0,1-1.17,1.46,3.32,3.32,0,0,1-1.35.75,6.09,6.09,0,0,0-1.16-1.52,8,8,0,0,0-1.82-1.5,4.64,4.64,0,0,0-1.27-.59.45.45,0,0,0-.51.16.75.75,0,0,0-.08.24,5.08,5.08,0,0,1,1.18.54,7.41,7.41,0,0,1,3.27,3.44,5.56,5.56,0,0,1-.59,5.14,5.69,5.69,0,0,1-4.28,2.85A10.08,10.08,0,0,1,16.54,190a19.47,19.47,0,0,1-3.22-2.28,11.43,11.43,0,0,1-2.2-2.66,5.54,5.54,0,0,1,.67-3.29,3.59,3.59,0,0,1,2.31-1.75,3.74,3.74,0,0,1,2.88.46,4.83,4.83,0,0,1,1.95,1.9A3.88,3.88,0,0,1,19.15,185Z"/><path class="cls-8" d="M34,193a.7.7,0,0,0-.28.29c-.11.25,0,.57.43.95a7,7,0,0,0,1.6,1.09,7.62,7.62,0,0,0-.59,2.32,3,3,0,0,1-1.81.36,6.82,6.82,0,0,1-2.77-.63,6.65,6.65,0,0,1-2.85-2.24,2.62,2.62,0,0,1-.42-2.67,2.86,2.86,0,0,1,.34-.58L36,180.62a9.66,9.66,0,0,1,3,.07,13.49,13.49,0,0,1,3.2,1,9.84,9.84,0,0,1,3.52,2.48,4,4,0,0,1,1.1,3.49l-2.5,13.7c-1.43.77-3.18.71-5.23-.21a6,6,0,0,1-2.3-1.66,2.29,2.29,0,0,1-.52-2.07l.42-1.73a4.73,4.73,0,0,0,1.66.38c.57,0,.91-.07,1-.28a.45.45,0,0,0,0-.42,4,4,0,0,1-1.46,0,6.09,6.09,0,0,1-1.42-.41A4.93,4.93,0,0,1,34,193Zm4.63-2.53a.83.83,0,0,0,.42.08c.36-1.43.56-2.29.59-2.57a.52.52,0,0,0-.26-.57.88.88,0,0,0-.35-.06l-.68,2.87A.47.47,0,0,0,38.66,190.45Z"/><path class="cls-8" d="M56.88,190.52,53.58,199a1.38,1.38,0,0,0,.28.13c.3.1.54-.07.73-.51l3.88-9.73a4.18,4.18,0,0,1,1.77-.14,10,10,0,0,1,2,.4,4.67,4.67,0,0,1,2.77,2,3.35,3.35,0,0,1,.22,2.76,23.67,23.67,0,0,1-1.91,3.51q-1.64,2.67-4.53,7.19a3.88,3.88,0,0,1-2.91,1.8,9.66,9.66,0,0,1-4-.58,12.14,12.14,0,0,1-2.67-1.25,5.88,5.88,0,0,1-1.79-1.64,45,45,0,0,1,0-7.23,70.87,70.87,0,0,1,1.14-9,4.82,4.82,0,0,1,4.71-.54C55.71,187,56.9,188.45,56.88,190.52Z"/><path class="cls-8" d="M73,192.24l8.08,1.81a5.65,5.65,0,0,1,.28,1.6,5.91,5.91,0,0,1-.13,1.46,3.47,3.47,0,0,1-1,2,1.88,1.88,0,0,1-1.7.37l-5.65-1.27c-.35-.07-.55,0-.61.29l0,.12c0,.05,0,.09,0,.11l6.69,1.5a4.42,4.42,0,0,1,.19,1.19,5.86,5.86,0,0,1-.11,1.32,4.81,4.81,0,0,1-1.2,2.46l-3-.68a16.25,16.25,0,0,0-2.92-.48,3.66,3.66,0,0,0-1,.06.4.4,0,0,0-.26.28.34.34,0,0,0,.13.35,8.57,8.57,0,0,1,1.6,0c.72.09,1.48.23,2.31.41l3.93.88a5.06,5.06,0,0,1,.21,3.1,6.86,6.86,0,0,1-.65,1.76,3.4,3.4,0,0,1-1,1.24L66.59,209.8a4.44,4.44,0,0,1-2.6-1.47,3.22,3.22,0,0,1-.56-2.89l3-13.32c.11-.45.69-.66,1.77-.64A28,28,0,0,1,73,192.24Z"/><path class="cls-8" d="M100.54,203.68l-.88,10.06a5.32,5.32,0,0,1-1.84.8,8,8,0,0,1-2.71.16,4.87,4.87,0,0,1-2.61-.93,2.39,2.39,0,0,1-1.06-2.26l.8-9.21L88.91,202a5.52,5.52,0,0,1-.75-3.3,5.14,5.14,0,0,1,.56-2,3.71,3.71,0,0,1,1-1.28l14.79,1.28a6,6,0,0,1,.55,1.62,6.41,6.41,0,0,1,.12,1.84,3.59,3.59,0,0,1-1,2.42,2.67,2.67,0,0,1-2.07.62L98,202.8a.58.58,0,0,0-.07.21.36.36,0,0,0,.27.37,5.36,5.36,0,0,0,1.34.22Z"/><path class="cls-8" d="M123.46,199.82l.24,14.26a6.66,6.66,0,0,1-4.1,1.28,5.37,5.37,0,0,1-3.09-.74,2.64,2.64,0,0,1-1.23-2.3l0-2.85h1c.39,0,.63-.06.73-.17a.63.63,0,0,0,.14-.49l-4.5.07a.76.76,0,0,0,.13.49.84.84,0,0,0,.62.14h1.1l.08,4.75a7,7,0,0,1-2.08,1,8.07,8.07,0,0,1-2,.28,5.27,5.27,0,0,1-3.09-.74,2.64,2.64,0,0,1-1.23-2.3l-.24-14.28a5,5,0,0,1,1.83-1.25,6.48,6.48,0,0,1,2.28-.46,4.9,4.9,0,0,1,2.95.81,3.18,3.18,0,0,1,1.36,2.68l0,2.56,1.82,0a.71.71,0,0,0-.14-.5.58.58,0,0,0-.44-.13h-.49L115,198a5,5,0,0,1,1.83-1.24,6.35,6.35,0,0,1,2.28-.46,5,5,0,0,1,3,.81A3.2,3.2,0,0,1,123.46,199.82Z"/><path class="cls-8" d="M130.65,195.74l8.23-.9a5.3,5.3,0,0,1,.78,1.42,6.5,6.5,0,0,1,.36,1.43,3.51,3.51,0,0,1-.33,2.23,1.86,1.86,0,0,1-1.49.9l-5.75.63c-.36,0-.52.2-.49.47V202a.16.16,0,0,0,.05.11l6.82-.75a4.81,4.81,0,0,1,.56,1.07,5.49,5.49,0,0,1,.31,1.28,4.76,4.76,0,0,1-.33,2.72l-3.1.34a18.12,18.12,0,0,0-2.92.48,4.28,4.28,0,0,0-.93.39.4.4,0,0,0-.15.34.37.37,0,0,0,.24.3,8.24,8.24,0,0,1,1.52-.52c.7-.14,1.47-.26,2.31-.35l4-.44a5,5,0,0,1,1.19,2.86,6.55,6.55,0,0,1,0,1.88,3.36,3.36,0,0,1-.57,1.51l-10.68,1.17a4.41,4.41,0,0,1-2.94-.55,3.22,3.22,0,0,1-1.46-2.55l-1.49-13.57c-.05-.46.44-.85,1.46-1.17A26.76,26.76,0,0,1,130.65,195.74Z"/><path class="cls-8" d="M147.07,195.46c0-.22.06-.5.35-.86a9.6,9.6,0,0,1,3.6-2.3,20.93,20.93,0,0,1,3.16-1c2.79-.7,5-.68,6.73,0a4.63,4.63,0,0,1,2.81,3.27,5.13,5.13,0,0,1,.11,1.71,2.56,2.56,0,0,1-.54,1.41,3.1,3.1,0,0,0-1.51,0,.8.8,0,0,0-.46.24.55.55,0,0,0,0,.5,4.28,4.28,0,0,1,3.56.69,5.11,5.11,0,0,1,1.8,2.89,4.64,4.64,0,0,1-1.39,4.85q-2,1.8-6.58,3a41.91,41.91,0,0,1-4.77,1,3.54,3.54,0,0,1-2.41-.42,3.5,3.5,0,0,1-1.24-2.12Zm8.9,3.48a.63.63,0,0,0,.33,0,.45.45,0,0,0,.35-.3,1.29,1.29,0,0,0,0-.72l0-.09a1.49,1.49,0,0,0-.3-.68.4.4,0,0,0-.44-.12.79.79,0,0,0-.35.14c0,.05,0,.13.07.24Zm1.3,5.25a.7.7,0,0,0,.33,0,.5.5,0,0,0,.36-.28,1.06,1.06,0,0,0,0-.68l-.06-.27a1.87,1.87,0,0,0-.3-.7.44.44,0,0,0-.45-.13.77.77,0,0,0-.36.15.83.83,0,0,1,.08.23Z"/><path class="cls-8" d="M169.94,187l7.8-2.79a5.27,5.27,0,0,1,1.09,1.21,6.29,6.29,0,0,1,.68,1.3,3.59,3.59,0,0,1,.2,2.25,1.88,1.88,0,0,1-1.25,1.22L173,192.13q-.49.18-.36.57l0,.11a.2.2,0,0,0,.07.1l6.46-2.31a4.88,4.88,0,0,1,.8.9,5.92,5.92,0,0,1,.6,1.17,4.88,4.88,0,0,1,.3,2.73l-2.93,1a16.92,16.92,0,0,0-2.73,1.15,3.73,3.73,0,0,0-.81.59.39.39,0,0,0-.07.37.35.35,0,0,0,.3.23,8.35,8.35,0,0,1,1.35-.85c.66-.31,1.38-.6,2.17-.88l3.8-1.36a5,5,0,0,1,1.83,2.5,7.24,7.24,0,0,1,.4,1.84,3.64,3.64,0,0,1-.21,1.6l-10.13,3.62a4.43,4.43,0,0,1-3,.15,3.22,3.22,0,0,1-2-2.15l-4.6-12.85c-.15-.44.23-.93,1.15-1.48A27.51,27.51,0,0,1,169.94,187Z"/><path class="cls-8" d="M185,180.89l7.49-3.52a5.16,5.16,0,0,1,1.2,1.09,5.94,5.94,0,0,1,.8,1.23,3.52,3.52,0,0,1,.42,2.22,1.9,1.9,0,0,1-1.12,1.34l-5.24,2.46q-.48.22-.3.6l.05.11a.17.17,0,0,0,.07.09l6.21-2.92a4.65,4.65,0,0,1,.88.82,5.52,5.52,0,0,1,.71,1.11,4.76,4.76,0,0,1,.57,2.68l-2.82,1.33a16.68,16.68,0,0,0-2.6,1.41,3.76,3.76,0,0,0-.75.66.37.37,0,0,0,0,.38.34.34,0,0,0,.31.2,8.92,8.92,0,0,1,1.27-1c.62-.36,1.31-.73,2.08-1.08l3.65-1.72a5,5,0,0,1,2,2.31,7.19,7.19,0,0,1,.58,1.79,3.62,3.62,0,0,1-.05,1.62l-9.73,4.58a4.42,4.42,0,0,1-3,.43,3.22,3.22,0,0,1-2.22-1.94l-5.81-12.35c-.2-.41.14-.94,1-1.58A27.21,27.21,0,0,1,185,180.89Z"/><path class="cls-8" d="M207.35,184.07c.24-.22.3-.43.16-.66a2,2,0,0,0-.67-.63,3.4,3.4,0,0,0-1.12-.43,5,5,0,0,0-3.56.8,5.59,5.59,0,0,0-1.54,1.35,3.71,3.71,0,0,1-2.17-.55,4.89,4.89,0,0,1-1.72-1.72,5.75,5.75,0,0,1-.27-5.78,10.46,10.46,0,0,1,4.22-4.33,14.54,14.54,0,0,1,4-1.77,9,9,0,0,1,3.2-.28,6.08,6.08,0,0,1,1.3,1.51,6,6,0,0,1,.72,1.73,3.25,3.25,0,0,1,0,1.55,6,6,0,0,0-1.89.29,8.2,8.2,0,0,0-2.19.88,5,5,0,0,0-1.13.83.44.44,0,0,0-.09.52.6.6,0,0,0,.16.19,5.09,5.09,0,0,1,1-.78,7.42,7.42,0,0,1,4.59-1.22,5.58,5.58,0,0,1,4.23,3,5.72,5.72,0,0,1,.45,5.13,10.14,10.14,0,0,1-4.6,5.07,20.14,20.14,0,0,1-3.55,1.74,11.4,11.4,0,0,1-3.39.65A5.57,5.57,0,0,1,201,189a3.58,3.58,0,0,1-.43-2.87,3.76,3.76,0,0,1,1.78-2.31,4.8,4.8,0,0,1,2.6-.8A3.86,3.86,0,0,1,207.35,184.07Z"/><path class="cls-8" d="M219.3,172.31a3.4,3.4,0,0,0-1.27.5.49.49,0,0,0-.15.77l0,0a4.15,4.15,0,0,1,3-.55,4,4,0,0,1,2.59,1.67,4,4,0,0,1,.7,3.06,4.08,4.08,0,0,1-1.68,2.7,4,4,0,0,1-3.08.72,4,4,0,0,1-2.69-1.65,4.08,4.08,0,0,1-.76-2.06,4.35,4.35,0,0,1,.36-2.14,14.51,14.51,0,0,1-3.12-2,15.37,15.37,0,0,1-2.77-3l-2.73-3.79a5.16,5.16,0,0,1,.86-1.49,6.83,6.83,0,0,1,1.43-1.36,4,4,0,0,1,3.15-.94,5.55,5.55,0,0,1,2.91,2.41l.54.75A16.15,16.15,0,0,1,219.3,172.31Z"/></g></svg>