<svg xmlns="http://www.w3.org/2000/svg" xmlns:xlink="http://www.w3.org/1999/xlink" viewBox="0 0 234.2 218.73"><defs><style>.cls-1,.cls-7{fill:#fff;}.cls-1,.cls-10,.cls-12,.cls-13,.cls-2,.cls-3,.cls-4,.cls-5,.cls-6,.cls-8,.cls-9{stroke:#000;stroke-miterlimit:10;stroke-width:0.5px;}.cls-2{fill:#dadada;}.cls-3{fill:#e0e0e0;}.cls-5{fill:#858585;}.cls-6{fill:none;}.cls-8{fill:#888;}.cls-9{fill:#a3a3a3;}.cls-10{fill:#999;}.cls-11{clip-path:url(#clip-path);}.cls-12{fill:#585858;}.cls-13{fill:#8c8c8c;}</style><clipPath id="clip-path"><path class="cls-1" d="M128.29,98.41c6.49,0,10.83-3.47,16.78-3.6,3.35-.08,6.62.54,7,4.36.65,7-4.18,12-10.25,15.27a30.74,30.74,0,0,1-25.45,1.31c-7-2.68-14.37-7.52-13.41-15.86.45-3.81,3.51-4.54,6.85-4.55C115.75,95.3,122.36,98.46,128.29,98.41Z"/></clipPath></defs><g id="_02" data-name="02"><path class="cls-2" d="M18.63,88.7c16.82-11.61,18.67-24,2.84-19,15.83-5,7.91-14.32-12.14-14.26,20-.06,29-9.42,13.64-14.34,15.31,4.92,14.73-7.49-.89-19C37.7,33.6,50.25,30.87,41.31,17.91c8.94,13,15.95,2.2,10.72-16.49C57.26,20.11,68.65,25.05,69.48,9c-.83,16.06,11.08,11,18.24-7.67-7.16,18.72-1.27,29.43,9,16.41-10.3,13,2,15.69,18.78,4.08-16.82,11.61-18.67,24-2.84,19-15.83,5-7.9,14.33,12.14,14.27-20,.06-28.95,9.42-13.64,14.34-15.31-4.92-14.73,7.48.89,19C96.46,76.9,83.91,79.63,92.86,92.59c-9-13-16-2.19-10.73,16.5-5.22-18.69-16.62-23.63-17.45-7.57.83-16.06-11.08-11-18.24,7.67,7.16-18.72,1.27-29.44-9-16.41C47.71,79.75,35.45,77.09,18.63,88.7Z"/><circle class="cls-3" cx="69.01" cy="55.73" r="33.08" transform="translate(-1.31 109.8) rotate(-76.48)"/><path class="cls-4" d="M86.43,196.35c-3.92-4.7-7.43-10.41-6.82-16.8.63-6.62,4.91-9.7,8.86-14.34,2.74-3.22-2.75-6.85-5.46-3.67-2.34,2.76-5.1,4.62-6.91,7.9a23.84,23.84,0,0,0-3.12,11c-.14,7.71,3.72,14.51,8.52,20.27C84.22,204,89.14,199.6,86.43,196.35Z"/><path class="cls-5" d="M72.11,194.88a3.85,3.85,0,0,0-1.59,2.27,3.58,3.58,0,0,0,.57,2.6c1.84,2.74,7.37,1.66,7.37,1.66l.11,2.51S60.46,197.55,57,207.48,71.1,218.86,79.59,218s15.23.12,13.64-9.1l-.87-7.52c0-.12.46-.59.53-.69a9.29,9.29,0,0,0,1-1.72,3.64,3.64,0,0,0,0-3.11,3,3,0,0,0-.86-.95c-1.93-1.37-5.9,1.33-10.47,1.41C77.37,196.44,74.63,193.12,72.11,194.88Z"/><path class="cls-1" d="M79.59,218c-8.37.83-25.57-.57-22.74-10.11,1.85,6.39,15.63,7.32,22.84,6.61,6.83-.67,12.54-.18,13.66-4.78C94.4,218.08,87.82,217.21,79.59,218Z"/><line class="cls-6" x1="78.53" y1="203.94" x2="85.38" y2="206.25"/><line class="cls-6" x1="78.35" y1="201.45" x2="86.3" y2="201.89"/><path class="cls-7" d="M59.69,205.87a4.87,4.87,0,0,0-.73,3.06.82.82,0,1,0,1.64-.08,3.22,3.22,0,0,1,0-.62s0,0,0,0,0-.11,0-.16,0-.22.07-.33a.5.5,0,0,0,0-.13l0-.09,0-.09.06-.16c.1-.21.2-.42.32-.62l.17-.27c-.09.15,0,0,0,0l.1-.14a4.65,4.65,0,0,1,.45-.53,1.81,1.81,0,0,1,.24-.24l.17-.16a3.72,3.72,0,0,1,.45-.33.83.83,0,1,0-.89-1.39A7.18,7.18,0,0,0,59.69,205.87Z"/><path class="cls-4" d="M164.18,196.35c3.93-4.7,7.44-10.41,6.83-16.8-.63-6.62-4.92-9.7-8.86-14.34-2.74-3.22,2.74-6.85,5.45-3.67,2.35,2.76,5.1,4.62,6.91,7.9a23.85,23.85,0,0,1,3.13,11c.14,7.71-3.72,14.51-8.53,20.27C166.4,204,161.48,199.6,164.18,196.35Z"/><path class="cls-5" d="M178.5,194.88a3.85,3.85,0,0,1,1.6,2.27,3.63,3.63,0,0,1-.57,2.6c-1.84,2.74-7.38,1.66-7.38,1.66l-.1,2.51s18.11-6.37,21.58,3.56S179.52,218.86,171,218s-15.23.12-13.64-9.1l.86-7.52c0-.12-.45-.59-.52-.69a9.34,9.34,0,0,1-1-1.72,3.64,3.64,0,0,1,0-3.11,3.19,3.19,0,0,1,.86-.95c1.94-1.37,5.9,1.33,10.47,1.41C173.24,196.44,176,193.12,178.5,194.88Z"/><path class="cls-1" d="M171,218c8.36.83,25.56-.57,22.73-10.11-1.84,6.39-15.62,7.32-22.84,6.61-6.83-.67-12.54-.18-13.66-4.78C156.21,218.08,162.79,217.21,171,218Z"/><line class="cls-6" x1="172.08" y1="203.94" x2="165.24" y2="206.25"/><line class="cls-6" x1="172.27" y1="201.45" x2="164.32" y2="201.89"/><path class="cls-7" d="M190.92,205.87a4.81,4.81,0,0,1,.74,3.06.83.83,0,0,1-1.65-.08,3.22,3.22,0,0,0,0-.62v0l0-.16c0-.11,0-.22-.07-.33a.93.93,0,0,0,0-.13l0-.09,0-.09a1.11,1.11,0,0,0-.07-.16,5.2,5.2,0,0,0-.32-.62c0-.09-.11-.18-.17-.27.1.15,0,0,0,0a1.71,1.71,0,0,0-.11-.14,4.58,4.58,0,0,0-.44-.53,2.72,2.72,0,0,0-.24-.24l-.17-.16a4.84,4.84,0,0,0-.46-.33.84.84,0,0,1-.24-1.14.83.83,0,0,1,1.13-.25A7.07,7.07,0,0,1,190.92,205.87Z"/><ellipse class="cls-8" cx="128.98" cy="111.59" rx="75.25" ry="74.65" transform="translate(-2.71 3.21) rotate(-1.41)"/><path class="cls-9" d="M199,106.57c.76,8.63-3.92,8.21-4.43,9.84s-.62,8.12-2.07,16.27-4.9,2-4.51,6.32-7.2,8.83-10.7,11.89-3.52,3.6-7.06,3.15-3.29-17.89-1.65-22.67c1.54-4.51-1.14-12.4-1.78-16.17,0,0,0-.08,0-.11a7.76,7.76,0,0,0-7.26-6.34,36.74,36.74,0,0,0-9.62.65c-7.1,1.52-10.8-3.79-14.44-6.68s-3-10.74-4-15.57c-.4-2.08.82-10.82,2.66-8.66,2.57,3,4.24-7,2.55-11.64l-.23-.64c-.81-2.22.84-3.35,2.47-3.91a1.39,1.39,0,0,0,1-1.33,1.37,1.37,0,0,0-.49-1,1.4,1.4,0,0,1-.38-1.65,2,2,0,0,1,2.17-1.1c1,.09,2.24-1.12,3.37-2.58a15.1,15.1,0,0,1,10.15-5.76c4.62-.58,9.38-1.54,13.86.25a34.75,34.75,0,0,1,8.46,5l0,0a53,53,0,0,1,5.45,5,2.5,2.5,0,0,1,.23.23,95.85,95.85,0,0,1,13,17.67A71,71,0,0,1,199,84.11c-.56,1.62-2,6.39-.3,9.22C200.73,96.8,198.2,97.94,199,106.57Z"/><path class="cls-9" d="M117.68,145.06c-1,3.81,1.31,9.26-3,10.53s-3.77,11.52-4.82,12.9a3.92,3.92,0,0,1-2.18,1.17,1.78,1.78,0,0,0-1.17,2.48,28.87,28.87,0,0,0,2.43,4.25,1,1,0,0,1-.91,1.56c-3-.29-8.7-2.13-14.14-11-7.88-12.78-5.8-16.07-12.61-18.34s-11.87-10.94-11-12.49c.7-1.3-.84-5.36.69-7.11a4.19,4.19,0,0,0,.9-3.16c-.21-2-.38-4.61,0-5.4.62-1.32-6.34-4.7-4.46-7.78s-6.46-.69-8.32-5.57c-1.44-3.73-3.92-3.12-5-2.63A74.71,74.71,0,0,1,93.75,45.62a81.91,81.91,0,0,0-4.48,9.86c-1.77,4.9,13-9.37,15.16-3.46,2.09,5.71,2.42,10.36,1,12.25-2,2.61-7.12,3.42-7.12,3.42a2,2,0,0,1,1,1.74,2,2,0,0,1-1.06,1.8,27.92,27.92,0,0,1-5.52,2.54c-1.89.32-3.17,2.78-3.17,2.78A6.93,6.93,0,0,0,85,81.19c-1.64,5-2.82,1.2-5.16,4.58C76.19,91.12,79,96.8,75,96.89c-2.63.06-3-6.66-3-6.66s-7,.71-7.14,6.39,1.1,7.15,5.07,8.52c5.66,2,1.64,6,3.17,7.71,1.88,2.08,4.09,1.58,10.36,4.12a37.22,37.22,0,0,1,8.06,4.47,2.76,2.76,0,0,0,3,.13c1-.6,2.62-.8,4.46,1.24,3.33,3.7.92,4.84,7.17,6.31s13.81,1,14.17,4.79S118.67,141.25,117.68,145.06Z"/><path class="cls-10" d="M129.42,80.89l-.58,4.76s-7.38-4.11-7.88-.44S128.32,91,128.32,91"/><path class="cls-1" d="M171.29,78.67a51.57,51.57,0,0,1-2.22,14.49,32.65,32.65,0,0,0-5.61-2,40.41,40.41,0,0,0-5.73-1.06c-.82-.11-1.66-.19-2.53-.23a41.55,41.55,0,0,0-10.45.63A29.76,29.76,0,0,0,140,91.83a54,54,0,0,1,.37-27.31.08.08,0,0,1,0,0c2.85-9.78,8.47-16.4,14.87-16.3C164.35,48.33,171.5,62,171.29,78.67Z"/><path class="cls-6" d="M171.94,51.25s.3,5.77-4.27,7.84"/><path class="cls-6" d="M176.42,57.68s-1.18,6.22-6.62,6.76"/><path class="cls-6" d="M177.84,66.67s-1.35,5.41-6.79,6.07"/><path class="cls-4" d="M164.41,69.67,152.92,73l11.61,3.82c-.05.76-.09,1.51-.16,2.29-.31,3.67-.23,8.67-.91,12.14a40.41,40.41,0,0,0-5.73-1.06c-.82-.11-1.66-.19-2.53-.23a41.55,41.55,0,0,0-10.45.63,54.07,54.07,0,0,1-.79-12.8,54.77,54.77,0,0,1,2.48-13.85.08.08,0,0,1,0,0c2.49-6.12,5.93-10.09,9.41-10.11C160.37,53.75,163.65,60.34,164.41,69.67Z"/><path class="cls-7" d="M160.55,62.78c-4.36.72-4.85,1.23-5.33,5.52-.77-4.26-1.29-4.74-5.69-5.23,4.36-.72,4.85-1.23,5.33-5.52C155.62,61.81,156.15,62.29,160.55,62.78Z"/><path class="cls-7" d="M161.29,79.79c-3,0-3.39.27-4.32,3,.1-2.9-.17-3.28-3-4.11,3,0,3.38-.26,4.32-3C158.17,78.59,158.45,79,161.29,79.79Z"/><path class="cls-1" d="M116.91,79.12a51.13,51.13,0,0,1-1.51,13.69,31.63,31.63,0,0,0-5.7-1.46,35.47,35.47,0,0,0-4.24-.47c-.2,0-.4,0-.61,0A43.45,43.45,0,0,0,90.9,92.47c-.54.15-1.05.32-1.56.49h0c-.38.12-.73.25-1.08.39-.64.24-1.26.49-1.86.76l-.13-.41s0-.07,0-.11a.34.34,0,0,1,0-.14,51.23,51.23,0,0,1-2.1-13.83c0-.48,0-1,0-1.46,0-.09,0-.16,0-.25,0-.34,0-.67,0-1s0-.9,0-1.34c0-.64.09-1.26.13-1.89a.64.64,0,0,0,0-.07c0-.45.08-.9.14-1.34.14-1.35.35-2.66.59-3.9.09-.46.19-.93.31-1.4s.21-.9.33-1.33.19-.67.29-1,.12-.42.19-.62.11-.3.17-.46.07-.22.1-.35a33.65,33.65,0,0,1,1.17-3.17h0c2.88-6.59,7.29-10.82,12.32-10.9C109,49,116.59,62.42,116.91,79.12Z"/><path class="cls-6" d="M83.28,52.2S83,58,87.59,60.05"/><path class="cls-6" d="M78.83,58.63S80,64.85,85.49,65.4"/><path class="cls-6" d="M77.46,67.62s1.38,5.41,6.83,6.07"/><path class="cls-4" d="M98.67,74.17l11.94,2.53c0,.78.06,1.57.08,2.37a81.14,81.14,0,0,1-1,12.28,35.47,35.47,0,0,0-4.24-.47c-.2,0-.4,0-.61,0A43.45,43.45,0,0,0,90.9,92.47a67.92,67.92,0,0,1-1.47-13.66c0-.48,0-1,0-1.46,0-.1,0-.18,0-.27l.06-1c0-.46.05-.91.1-1.36,0-.64.13-1.28.2-1.9,0,0,0,0,0-.08.05-.45.12-.91.2-1.35a38,38,0,0,1,.75-3.93c.1-.48.23-.94.35-1.41s.26-.9.4-1.34.19-.67.31-1l.22-.61c.1-.28.21-.55.3-.81,1.84-4.72,4.39-7.82,7.25-8.17,2.22-.27,4.32,1.17,6.06,3.86a31.26,31.26,0,0,1,4.07,11.46l-.11,0Z"/><path class="cls-7" d="M105.85,64.51c-4.36.72-4.84,1.23-5.32,5.52-.77-4.26-1.29-4.74-5.69-5.23,4.36-.72,4.84-1.23,5.32-5.52C100.93,63.54,101.45,64,105.85,64.51Z"/><path class="cls-7" d="M99.89,78.65c-2.77,1-3,1.38-2.7,4.28-1.14-2.73-1.56-3-4.54-2.8,2.78-1,3-1.38,2.7-4.27C96.49,78.59,96.91,78.84,99.89,78.65Z"/><path d="M152.81,93.72a5.12,5.12,0,0,1,1.29.72,6.35,6.35,0,0,1,1,1.11,5.69,5.69,0,0,1,.94,2.88,7.85,7.85,0,0,1-.57,2.94q-.31.67-.66,1.32c-.29.39-.56.8-.86,1.17l-.05,0,.67-1.27c.19-.43.37-.88.53-1.32a8.37,8.37,0,0,0,.44-2.8,5.63,5.63,0,0,0-.78-2.7,5.5,5.5,0,0,0-2-2Z"/><path d="M155.2,93.32a3.81,3.81,0,0,1,1.21.39,4.93,4.93,0,0,1,1,.79,4.86,4.86,0,0,1,1.24,2.32,6.58,6.58,0,0,1-.07,2.58c-.12.41-.24.82-.38,1.21s-.37.76-.59,1.11l-.05,0,.38-1.16c.1-.4.18-.8.26-1.2a7,7,0,0,0,0-2.42,4.82,4.82,0,0,0-1-2.17,4.74,4.74,0,0,0-2-1.38Z"/><path d="M102.47,94.59a6.92,6.92,0,0,0-1.88,2,5.57,5.57,0,0,0-.82,2.5,8.51,8.51,0,0,0,.14,2.7c.09.45.2.91.32,1.36s.28.91.39,1.38l-.05,0-.59-1.31c-.16-.45-.31-.91-.45-1.36a8.34,8.34,0,0,1-.26-2.86,5.64,5.64,0,0,1,3.18-4.51Z"/><path d="M100.1,94a6.22,6.22,0,0,0-1.84,1.46,4.71,4.71,0,0,0-1,2,7.47,7.47,0,0,0-.29,2.28c0,.79.1,1.59.16,2.42l0,0L96.74,101c-.07-.41-.13-.81-.19-1.22a7.23,7.23,0,0,1,.2-2.45A4.82,4.82,0,0,1,100.09,94Z"/><path class="cls-7" d="M128.29,98.41c6.49,0,10.83-3.47,16.78-3.6,3.35-.08,6.62.54,7,4.36.65,7-4.18,12-10.25,15.27a30.74,30.74,0,0,1-25.45,1.31c-7-2.68-14.37-7.52-13.41-15.86.45-3.81,3.51-4.54,6.85-4.55C115.75,95.3,122.36,98.46,128.29,98.41Z"/><g class="cls-11"><path class="cls-6" d="M116.85,96.34a35.08,35.08,0,0,0-.5,19.41"/><path class="cls-6" d="M128.29,98.41a38.46,38.46,0,0,0-1,9.17,37.59,37.59,0,0,0,1.61,10.29"/><path class="cls-6" d="M140.4,95.54a35.54,35.54,0,0,0,1.4,18.9"/></g><path class="cls-6" d="M128.29,98.41c6.49,0,10.83-3.47,16.78-3.6,3.35-.08,6.62.54,7,4.36.65,7-4.18,12-10.25,15.27a30.74,30.74,0,0,1-25.45,1.31c-7-2.68-14.37-7.52-13.41-15.86.45-3.81,3.51-4.54,6.85-4.55C115.75,95.3,122.36,98.46,128.29,98.41Z"/><path d="M115.29,151.55c-11.87,6-24.27,12.06-37.88,12.07-.8,0-1.63,0-2.46-.06-10.18-.42-22.62-3.47-29.78-10.67-11.7-11.78-.37-29.08,8.57-40.6,0,.39,0,.76,0,1.15a74.85,74.85,0,0,0,1.13,11.29c-5.35,8-9.51,17.46-2.94,22.94,4.06,3.37,9.58,5.49,15.26,6.58a52,52,0,0,0,13.22.84c10.93-.74,21-5.94,30.61-10.82C115.86,141.82,120.12,149.08,115.29,151.55Z"/><path d="M142.9,151.55c11.87,6,24.27,12.06,37.88,12.07q1.22,0,2.46-.06c10.18-.42,22.63-3.47,29.78-10.67,11.7-11.78.37-29.08-8.57-40.6,0,.39,0,.76,0,1.15a73.58,73.58,0,0,1-1.13,11.29c5.36,8,9.51,17.46,2.94,22.94-4.05,3.37-9.58,5.49-15.26,6.58a52,52,0,0,1-13.22.84c-10.93-.74-21-5.94-30.61-10.82C142.33,141.82,138.07,149.08,142.9,151.55Z"/><path class="cls-1" d="M134,141.51a19.17,19.17,0,0,1,12.81-1.7,12.9,12.9,0,0,1,6.91,4c2.89-3.22,7.22-7.5,10.83-6.09,6.37,2.49,2.85,18.36-12.82,19.65l-19,9.75S119.5,148.56,134,141.51Z"/><path class="cls-1" d="M122.77,141.51a19.2,19.2,0,0,0-12.82-1.7,12.84,12.84,0,0,0-6.9,4c-2.9-3.22-7.23-7.5-10.84-6.09-6.37,2.49-2.85,18.36,12.82,19.65l19,9.75S137.24,148.56,122.77,141.51Z"/><path class="cls-12" d="M152,147a5.42,5.42,0,0,0-1.13-1.84c-1.54-1.65-4-2.12-6.2-2.24,1.57-4.47-3.46-8.18-7.72-6.35a5.43,5.43,0,0,0-1.67-3.16A10.2,10.2,0,0,0,126,130.7a10,10,0,0,0-5.45,3,5.47,5.47,0,0,0-1.56,3.22c-4.33-1.67-9.21,2.24-7.48,6.63a13.57,13.57,0,0,0-2.69.37,6.69,6.69,0,0,0-5,5.94,7.39,7.39,0,0,0,.51,2.86,12.76,12.76,0,0,0,1.39,2.86c2.09,3.09,16.39,2.59,22.25,2.46,10.94-.24,20.69.16,22.88-3.33a11.39,11.39,0,0,0,1.38-3.66A7.54,7.54,0,0,0,152,147Z"/><path class="cls-13" d="M141.89,136.32s10.48,2.21,10.38-8.88C152.27,127.44,141.14,126.41,141.89,136.32Z"/><path class="cls-6" d="M148.18,130.55a12.63,12.63,0,0,0-3.65,2.43c-1.8,1.68-3.36,4.94-4.15,7.94"/><path class="cls-13" d="M113.51,137.33s-10.63,1.3-9.62-9.74C103.89,127.59,115.07,127.52,113.51,137.33Z"/><path class="cls-6" d="M107.71,131a12.51,12.51,0,0,1,3.44,2.73,14.81,14.81,0,0,1,3.38,7.42"/><path class="cls-13" d="M131.25,129.86s12.22,1,10.5-11.57C141.75,118.29,129,118.73,131.25,129.86Z"/><path class="cls-6" d="M137.55,122.41a14.06,14.06,0,0,0-3.78,3.28c-1.81,2.17-3.1,6.1-3.57,9.62"/><path class="cls-13" d="M126.23,130.44s-12.16,1.49-11-11.14C115.23,119.3,128,119.23,126.23,130.44Z"/><path class="cls-6" d="M119.6,123.25a14.33,14.33,0,0,1,3.93,3.12,17,17,0,0,1,3.87,8.48"/><path class="cls-1" d="M118.8,159.24c-.54.91-4.52,6.26-.42,9.68,3.89,3.25,10.12-1,10.11-7.74a4.69,4.69,0,0,0-4.39-4.65A5.58,5.58,0,0,0,118.8,159.24Z"/><path class="cls-1" d="M111.61,156.24c2.27-1.8,5.1-2.35,7.23,0,2.47,2.7.37,6.34-1.58,8.72s-5.25,4.13-7.26,2.82C105.84,165.05,108,159.09,111.61,156.24Z"/><path class="cls-1" d="M101,156s6-7.33,11.06-3.35c5.75,4.57-5.61,15-10.44,11.75-4.34-2.92-1.22-7.94-1.22-7.94"/><path class="cls-1" d="M138,159.24c.53.91,4.51,6.26.42,9.68-3.89,3.25-10.13-1-10.12-7.74a4.69,4.69,0,0,1,4.4-4.65A5.6,5.6,0,0,1,138,159.24Z"/><path class="cls-1" d="M145.13,156.24c-2.27-1.8-5.1-2.35-7.23,0-2.47,2.7-.36,6.34,1.58,8.72s5.25,4.13,7.26,2.82C150.9,165.05,148.71,159.09,145.13,156.24Z"/><path class="cls-1" d="M155.77,156s-6.05-7.33-11.06-3.35c-5.75,4.57,5.61,15,10.44,11.75,4.34-2.92,1.22-7.94,1.22-7.94"/><path class="cls-1" d="M172,131l53.8.13s3.27-21.71-13.58-16c0,0-1.55-9.42-10.66-10.71a12.36,12.36,0,0,0-14.23,11.7S171.28,108.11,172,131Z"/><path class="cls-1" d="M9.49,124.18l61.23.14s3.72-24.69-15.46-18.25c0,0-1.77-10.72-12.13-12.18A14.08,14.08,0,0,0,26.94,107.2S8.69,98.17,9.49,124.18Z"/></g></svg>