<svg xmlns="http://www.w3.org/2000/svg" xmlns:xlink="http://www.w3.org/1999/xlink" viewBox="0 0 218.65 218.73"><defs><style>.cls-1,.cls-7{fill:#fff;}.cls-1,.cls-10,.cls-12,.cls-13,.cls-2,.cls-3,.cls-4,.cls-5,.cls-6,.cls-8,.cls-9{stroke:#000;stroke-miterlimit:10;stroke-width:0.5px;}.cls-2{fill:#dadada;}.cls-3{fill:#e0e0e0;}.cls-5{fill:#858585;}.cls-6{fill:none;}.cls-8{fill:#888;}.cls-9{fill:#a4a4a4;}.cls-10{fill:#999;}.cls-11{clip-path:url(#clip-path);}.cls-12{fill:#585858;}.cls-13{fill:#8c8c8c;}</style><clipPath id="clip-path"><path class="cls-1" d="M120.39,99.4c6.22-.06,10.39-3.34,16.11-3.46,3.22-.08,6.36.51,6.7,4.19.63,6.72-4,11.55-9.84,14.66a29.5,29.5,0,0,1-24.45,1.26c-6.7-2.57-13.8-7.22-12.87-15.23.42-3.67,3.36-4.36,6.58-4.38C108.34,96.41,114.69,99.44,120.39,99.4Z"/></clipPath></defs><g id="_02" data-name="02"><path class="cls-2" d="M15.05,90.06C31.21,78.91,33,67,17.78,71.81,33,67,25.37,58.05,6.12,58.11c19.25-.06,27.81-9,13.1-13.77,14.71,4.72,14.15-7.19-.85-18.25,15,11.06,27.05,8.43,18.46-4,8.59,12.45,15.32,2.11,10.3-15.84,5,18,16,22.7,16.76,7.27-.8,15.43,10.65,10.62,17.53-7.37-6.88,18-1.22,28.28,8.67,15.77C80.2,34.41,92,37,108.13,25.82,92,37,90.19,48.89,105.4,44.07c-15.21,4.82-7.59,13.76,11.66,13.7-19.25.06-27.81,9-13.1,13.77-14.71-4.72-14.15,7.2.85,18.25-15-11.05-27.06-8.43-18.46,4C77.75,81.36,71,91.7,76,109.65c-5-18-16-22.69-16.76-7.27.8-15.42-10.64-10.61-17.52,7.37C48.64,91.77,43,81.47,33.09,94,43,81.47,31.21,78.91,15.05,90.06Z"/><circle class="cls-3" cx="63.44" cy="58.4" r="31.78" transform="translate(-8.17 106.43) rotate(-76.48)"/><path class="cls-4" d="M80.18,193.47c-3.77-4.51-7.14-10-6.56-16.14.61-6.35,4.72-9.32,8.51-13.77,2.64-3.1-2.63-6.58-5.24-3.52-2.25,2.64-4.9,4.44-6.63,7.58a22.92,22.92,0,0,0-3,10.55c-.13,7.42,3.58,13.94,8.19,19.48C78.05,200.78,82.78,196.59,80.18,193.47Z"/><path class="cls-5" d="M66.42,192.06a3.68,3.68,0,0,0-1.53,2.18,3.48,3.48,0,0,0,.55,2.5c1.76,2.63,7.08,1.59,7.08,1.59l.1,2.41s-17.39-6.12-20.73,3.42,13.56,10.93,21.71,10.13,14.63.11,13.1-8.75c0,0-.83-7.21-.83-7.22s.44-.57.51-.66a8.85,8.85,0,0,0,.91-1.65,3.48,3.48,0,0,0,0-3,2.92,2.92,0,0,0-.82-.91c-1.86-1.32-5.67,1.27-10.06,1.35C71.47,193.55,68.84,190.37,66.42,192.06Z"/><path class="cls-1" d="M73.6,214.29c-8,.79-24.55-.55-21.84-9.71,1.78,6.13,15,7,21.94,6.35,6.57-.65,12-.18,13.12-4.6C87.83,214.34,81.51,213.5,73.6,214.29Z"/><line class="cls-6" x1="72.59" y1="200.76" x2="79.17" y2="202.98"/><line class="cls-6" x1="72.41" y1="198.37" x2="80.05" y2="198.79"/><path class="cls-7" d="M54.49,202.62a4.63,4.63,0,0,0-.7,2.94.8.8,0,0,0,.83.74.78.78,0,0,0,.74-.83,3.84,3.84,0,0,1,0-.59v0l0-.16a2.82,2.82,0,0,1,.07-.31l0-.13,0-.09,0-.09.07-.15q.13-.3.3-.6c.06-.08.11-.17.17-.26-.1.15,0,0,0,0l.1-.13c.14-.18.28-.35.43-.51l.23-.23L57,202l.44-.32a.79.79,0,1,0-.85-1.33A6.75,6.75,0,0,0,54.49,202.62Z"/><path class="cls-4" d="M154.86,193.47c3.77-4.51,7.14-10,6.56-16.14-.61-6.35-4.73-9.32-8.51-13.77-2.64-3.1,2.63-6.58,5.24-3.52,2.25,2.64,4.89,4.44,6.63,7.58a22.91,22.91,0,0,1,3,10.55c.14,7.42-3.57,13.94-8.18,19.48C157,200.78,152.26,196.59,154.86,193.47Z"/><path class="cls-5" d="M168.61,192.06a3.64,3.64,0,0,1,1.53,2.18,3.49,3.49,0,0,1-.54,2.5c-1.77,2.63-7.09,1.59-7.09,1.59l-.1,2.41s17.4-6.12,20.74,3.42-13.56,10.93-21.72,10.13-14.62.11-13.1-8.75c0,0,.83-7.21.83-7.22s-.43-.57-.5-.66a8.9,8.9,0,0,1-.92-1.65,3.52,3.52,0,0,1,0-3,2.87,2.87,0,0,1,.83-.91c1.86-1.32,5.66,1.27,10.06,1.35C163.56,193.55,166.2,190.37,168.61,192.06Z"/><path class="cls-1" d="M161.43,214.29c8,.79,24.56-.55,21.84-9.71-1.77,6.13-15,7-21.94,6.35-6.56-.65-12-.18-13.12-4.6C147.21,214.34,153.53,213.5,161.43,214.29Z"/><line class="cls-6" x1="162.45" y1="200.76" x2="155.87" y2="202.98"/><line class="cls-6" x1="162.63" y1="198.37" x2="154.99" y2="198.79"/><path class="cls-7" d="M180.54,202.62a4.57,4.57,0,0,1,.71,2.94.79.79,0,0,1-1.58-.09,2.88,2.88,0,0,0,0-.59v0a.78.78,0,0,0,0-.16,2.82,2.82,0,0,0-.07-.31l0-.13a.49.49,0,0,0,0-.09l0-.09-.06-.15a5.71,5.71,0,0,0-.31-.6l-.16-.26c.09.15,0,0,0,0a1.13,1.13,0,0,1-.1-.13c-.14-.18-.28-.35-.43-.51l-.23-.23L178,202c-.14-.11-.28-.22-.43-.32a.79.79,0,0,1,.85-1.33A6.72,6.72,0,0,1,180.54,202.62Z"/><ellipse class="cls-8" cx="121.05" cy="112.05" rx="72.28" ry="71.71" transform="translate(-2.73 3.02) rotate(-1.41)"/><path class="cls-9" d="M188.26,107.23c.73,8.29-3.76,7.89-4.25,9.46s-.6,7.8-2,15.62-4.7,1.94-4.33,6.08-6.92,8.48-10.28,11.41-3.38,3.46-6.78,3-3.16-17.19-1.59-21.77c1.49-4.34-1.09-11.92-1.7-15.54,0,0,0-.07,0-.11a7.47,7.47,0,0,0-7-6.09,35.51,35.51,0,0,0-9.24.63c-6.82,1.47-10.38-3.64-13.87-6.41s-2.9-10.32-3.8-15c-.39-2,.78-10.39,2.55-8.32,2.47,2.89,4.07-6.76,2.46-11.18l-.23-.61c-.78-2.14.81-3.22,2.38-3.76a1.34,1.34,0,0,0,.91-1.27,1.32,1.32,0,0,0-.48-1,1.34,1.34,0,0,1-.36-1.58,1.89,1.89,0,0,1,2.09-1.05c1,.08,2.15-1.08,3.23-2.49a14.51,14.51,0,0,1,9.75-5.53c4.44-.55,9-1.47,13.32.25a33.18,33.18,0,0,1,8.12,4.82h0a54.63,54.63,0,0,1,5.24,4.76l.21.23a91.91,91.91,0,0,1,12.46,17,68.71,68.71,0,0,1,3.17,6.85c-.55,1.56-1.91,6.13-.29,8.86C190,97.84,187.53,98.94,188.26,107.23Z"/><path class="cls-9" d="M110.19,144.2c-.94,3.66,1.26,8.9-2.86,10.12s-3.62,11.07-4.63,12.39a3.77,3.77,0,0,1-2.09,1.12,1.7,1.7,0,0,0-1.12,2.39,26.57,26.57,0,0,0,2.33,4.08,1,1,0,0,1-.88,1.49c-2.89-.27-8.36-2-13.58-10.52-7.57-12.27-5.57-15.44-12.12-17.62s-11.39-10.5-10.59-12c.68-1.26-.8-5.16.66-6.83a4,4,0,0,0,.87-3c-.2-1.92-.37-4.43,0-5.19.59-1.27-6.09-4.51-4.28-7.47s-6.21-.66-8-5.35c-1.38-3.58-3.77-3-4.8-2.53A71.76,71.76,0,0,1,87.21,48.69a78.64,78.64,0,0,0-4.3,9.47c-1.7,4.71,12.48-9,14.55-3.33,2,5.49,2.33,10,1,11.77-1.88,2.51-6.85,3.28-6.85,3.28a2,2,0,0,1-.08,3.4,26.34,26.34,0,0,1-5.31,2.45c-1.8.3-3,2.67-3,2.67a6.66,6.66,0,0,0-4.32,4.45c-1.58,4.78-2.71,1.16-5,4.4-3.56,5.14-.86,10.6-4.7,10.69-2.53,0-2.85-6.4-2.85-6.4s-6.73.68-6.86,6.13,1.06,6.87,4.88,8.19c5.43,1.88,1.57,5.79,3,7.4,1.81,2,3.92,1.52,9.95,4a35.53,35.53,0,0,1,7.74,4.29,2.65,2.65,0,0,0,2.91.12c1-.57,2.52-.77,4.28,1.19,3.2,3.56.89,4.65,6.9,6.06s13.26,1,13.61,4.6S111.14,140.54,110.19,144.2Z"/><path class="cls-10" d="M121.47,82.56l-.56,4.58s-7.08-4-7.57-.42,7.08,5.56,7.08,5.56"/><path class="cls-1" d="M161.68,80.43a48.85,48.85,0,0,1-2.13,13.92,32.31,32.31,0,0,0-5.38-1.87,39,39,0,0,0-5.51-1c-.79-.1-1.6-.18-2.42-.22a39.73,39.73,0,0,0-10,.61,27.82,27.82,0,0,0-4.54,1.22,49.17,49.17,0,0,1-1.5-13.15A49.8,49.8,0,0,1,132,66.84s0,0,0,0c2.74-9.4,8.14-15.76,14.29-15.67C155,51.3,161.89,64.4,161.68,80.43Z"/><path class="cls-6" d="M162.31,54.09s.28,5.54-4.1,7.54"/><path class="cls-6" d="M166.62,60.27s-1.14,6-6.36,6.5"/><path class="cls-6" d="M168,68.91s-1.3,5.2-6.53,5.82"/><path class="cls-4" d="M155.08,71.79,144,75l11.16,3.66c0,.74-.09,1.46-.16,2.21-.3,3.53-.22,8.32-.87,11.66a39,39,0,0,0-5.51-1c-.79-.1-1.6-.18-2.42-.22a39.73,39.73,0,0,0-10,.61,51.55,51.55,0,0,1-.76-12.3,52.25,52.25,0,0,1,2.38-13.31,0,0,0,0,1,0,0c2.39-5.88,5.69-9.7,9-9.71C151.2,56.5,154.35,62.83,155.08,71.79Z"/><path class="cls-7" d="M151.37,65.17c-4.19.7-4.66,1.18-5.12,5.3-.74-4.08-1.24-4.55-5.46-5,4.18-.69,4.65-1.18,5.11-5.3C146.64,64.24,147.14,64.7,151.37,65.17Z"/><path class="cls-7" d="M152.08,81.51c-2.87,0-3.25.25-4.15,2.93.1-2.79-.16-3.15-2.89-3.94,2.87,0,3.25-.26,4.15-2.93C149.09,80.36,149.35,80.72,152.08,81.51Z"/><path class="cls-1" d="M109.45,80.86A49.4,49.4,0,0,1,108,94a30.23,30.23,0,0,0-5.48-1.41,36.79,36.79,0,0,0-4.06-.45l-.6,0a43.77,43.77,0,0,0-4.43,0,40.94,40.94,0,0,0-9,1.53c-.51.14-1,.3-1.49.47h0l-1,.37c-.61.24-1.21.47-1.78.74L80,94.88a.7.7,0,0,1,0-.12.28.28,0,0,1,0-.13,48.6,48.6,0,0,1-2-13.28c0-.47,0-.95,0-1.4a2.11,2.11,0,0,0,0-.25c0-.32,0-.64,0-1s0-.86,0-1.28c0-.62.08-1.22.12-1.82a.64.64,0,0,0,0-.07c0-.43.08-.86.13-1.28.14-1.3.34-2.56.57-3.75.09-.45.19-.89.29-1.34s.21-.86.33-1.28.17-.64.28-1,.11-.39.18-.59.1-.29.16-.44a3.18,3.18,0,0,1,.09-.33c.34-1.07.72-2.09,1.13-3h0c2.76-6.33,7-10.39,11.83-10.47C101.83,51.94,109.14,64.83,109.45,80.86Z"/><path class="cls-6" d="M77.15,55s-.26,5.54,4.14,7.54"/><path class="cls-6" d="M72.87,61.19s1.17,6,6.4,6.49"/><path class="cls-6" d="M71.56,69.82s1.33,5.2,6.56,5.83"/><path class="cls-4" d="M91.93,76.11l11.47,2.43c0,.75.06,1.51.07,2.28a74.8,74.8,0,0,1-1,11.79,36.79,36.79,0,0,0-4.06-.45l-.6,0a43.77,43.77,0,0,0-4.43,0,40.94,40.94,0,0,0-9,1.53,65.71,65.71,0,0,1-1.4-13.12c0-.47,0-.95,0-1.41,0-.09,0-.17,0-.25l.06-1c0-.44,0-.87.09-1.3,0-.62.13-1.23.2-1.83a.2.2,0,0,1,0-.07c.05-.43.11-.88.19-1.3.19-1.31.43-2.58.72-3.77.1-.46.22-.91.34-1.36s.24-.87.38-1.29.19-.64.3-1l.21-.59.29-.78c1.77-4.53,4.22-7.51,7-7.85C95,56.59,97,58,98.7,60.55a29.79,29.79,0,0,1,3.91,11l-.11,0Z"/><path class="cls-7" d="M98.83,66.83c-4.19.7-4.65,1.18-5.11,5.3-.74-4.08-1.24-4.54-5.47-5,4.19-.69,4.66-1.18,5.12-5.3C94.1,65.9,94.6,66.36,98.83,66.83Z"/><path class="cls-7" d="M93.11,80.42c-2.67,1-2.91,1.32-2.6,4.1-1.09-2.62-1.49-2.86-4.36-2.68,2.67-1,2.9-1.33,2.6-4.11C89.84,80.35,90.24,80.6,93.11,80.42Z"/><path d="M143.93,94.89a4.63,4.63,0,0,1,1.25.69,5.13,5.13,0,0,1,1.89,3.84,7.5,7.5,0,0,1-.54,2.83c-.21.43-.42.85-.65,1.26s-.53.77-.83,1.13l-.05,0,.64-1.21c.19-.42.36-.85.52-1.28a7.66,7.66,0,0,0,.41-2.68,5.4,5.4,0,0,0-.74-2.6,5.3,5.3,0,0,0-1.92-1.9Z"/><path d="M146.23,94.5a3.82,3.82,0,0,1,1.17.38,4.57,4.57,0,0,1,1,.75,4.7,4.7,0,0,1,1.19,2.23,6.31,6.31,0,0,1-.07,2.49c-.11.39-.24.78-.37,1.16s-.36.73-.57,1.07l-.05,0,.36-1.12c.09-.38.18-.76.25-1.15a6.75,6.75,0,0,0,0-2.33,4.6,4.6,0,0,0-2.89-3.41Z"/><path d="M95.58,95.73a6.58,6.58,0,0,0-1.79,1.94,5.46,5.46,0,0,0-.79,2.4,8.75,8.75,0,0,0,.13,2.59c.09.43.2.87.31,1.31s.26.87.36,1.33l0,0-.57-1.26c-.15-.43-.3-.87-.43-1.31a7.66,7.66,0,0,1-.25-2.74,5.41,5.41,0,0,1,1-2.56,5.35,5.35,0,0,1,2.09-1.77Z"/><path d="M93.31,95.18a5.89,5.89,0,0,0-1.76,1.41,4.65,4.65,0,0,0-1,1.89,7.93,7.93,0,0,0-.28,2.19c0,.76.1,1.52.14,2.33l0,0-.3-1.15q-.1-.59-.18-1.17a6.89,6.89,0,0,1,.18-2.35,4.64,4.64,0,0,1,3.22-3.22Z"/><path class="cls-7" d="M120.39,99.4c6.22-.06,10.39-3.34,16.11-3.46,3.22-.08,6.36.51,6.7,4.19.63,6.72-4,11.55-9.84,14.66a29.5,29.5,0,0,1-24.45,1.26c-6.7-2.57-13.8-7.22-12.87-15.23.42-3.67,3.36-4.36,6.58-4.38C108.34,96.41,114.69,99.44,120.39,99.4Z"/><g class="cls-11"><path class="cls-6" d="M109.39,97.41a33.85,33.85,0,0,0-.48,18.64"/><path class="cls-6" d="M120.39,99.4a36.09,36.09,0,0,0-.93,8.81,36.52,36.52,0,0,0,1.54,9.87"/><path class="cls-6" d="M132,96.64a34.37,34.37,0,0,0-.52,9.57,33.79,33.79,0,0,0,1.87,8.58"/></g><path class="cls-6" d="M120.39,99.4c6.22-.06,10.39-3.34,16.11-3.46,3.22-.08,6.36.51,6.7,4.19.63,6.72-4,11.55-9.84,14.66a29.5,29.5,0,0,1-24.45,1.26c-6.7-2.57-13.8-7.22-12.87-15.23.42-3.67,3.36-4.36,6.58-4.38C108.34,96.41,114.69,99.44,120.39,99.4Z"/><path d="M107.89,150.43C96.5,156.23,84.58,162,71.51,162c-.77,0-1.56,0-2.36-.06-9.78-.4-21.73-3.32-28.61-10.24-11.24-11.32-.36-27.94,8.23-39,0,.37,0,.73,0,1.1a71.48,71.48,0,0,0,1.09,10.84c-5.14,7.68-9.14,16.78-2.82,22C50.94,150,56.25,152,61.71,153a50.08,50.08,0,0,0,12.69.81c10.5-.72,20.19-5.71,29.4-10.39C108.44,141.09,112.53,148.07,107.89,150.43Z"/><path d="M134.42,150.43c11.4,5.8,23.31,11.59,36.38,11.6q1.17,0,2.37-.06c9.77-.4,21.73-3.32,28.6-10.24,11.24-11.32.36-27.94-8.23-39,0,.37,0,.73,0,1.1a71.48,71.48,0,0,1-1.09,10.84c5.15,7.68,9.14,16.78,2.83,22-3.9,3.24-9.2,5.27-14.66,6.32a50.13,50.13,0,0,1-12.69.81c-10.51-.72-20.2-5.71-29.41-10.39C133.87,141.09,129.78,148.07,134.42,150.43Z"/><path class="cls-1" d="M125.84,140.8a18.42,18.42,0,0,1,12.32-1.64,12.46,12.46,0,0,1,6.63,3.85c2.78-3.1,6.94-7.21,10.4-5.85,6.12,2.39,2.74,17.63-12.31,18.86L124.6,165.4S111.94,147.57,125.84,140.8Z"/><path class="cls-1" d="M115.08,140.8a18.42,18.42,0,0,0-12.32-1.64A12.46,12.46,0,0,0,96.13,143c-2.78-3.1-6.94-7.21-10.4-5.85C79.61,139.55,83,154.79,98,156l18.28,9.38S129,147.57,115.08,140.8Z"/><path class="cls-12" d="M143.11,146.09a5.18,5.18,0,0,0-1.09-1.77c-1.48-1.59-3.81-2-6-2.16,1.51-4.28-3.32-7.85-7.42-6.09a5.19,5.19,0,0,0-1.6-3,9.77,9.77,0,0,0-8.89-2.63,9.56,9.56,0,0,0-5.23,2.9,5.19,5.19,0,0,0-1.5,3.09c-4.15-1.6-8.85,2.15-7.19,6.38a12.45,12.45,0,0,0-2.58.35,6.42,6.42,0,0,0-4.8,5.71,7.18,7.18,0,0,0,.49,2.74,12.38,12.38,0,0,0,1.33,2.75c2,3,15.75,2.49,21.38,2.36,10.51-.23,19.87.16,22-3.19a11,11,0,0,0,1.33-3.52A7.25,7.25,0,0,0,143.11,146.09Z"/><path class="cls-13" d="M133.45,135.81s10.06,2.12,10-8.53C143.42,127.28,132.72,126.29,133.45,135.81Z"/><path class="cls-6" d="M139.49,130.27a11.62,11.62,0,0,0-3.5,2.33c-1.74,1.62-3.23,4.75-4,7.63"/><path class="cls-13" d="M106.19,136.78S96,138,97,127.42C97,127.42,107.69,127.36,106.19,136.78Z"/><path class="cls-6" d="M100.62,130.74a11.92,11.92,0,0,1,3.3,2.62,14.22,14.22,0,0,1,3.25,7.12"/><path class="cls-13" d="M123.23,129.61s11.73.95,10.08-11.12C133.31,118.49,121,118.92,123.23,129.61Z"/><path class="cls-6" d="M129.28,122.45a13.69,13.69,0,0,0-3.63,3.15c-1.74,2.08-3,5.86-3.43,9.24"/><path class="cls-13" d="M118.4,130.16s-11.67,1.43-10.56-10.7C107.84,119.46,120.12,119.39,118.4,130.16Z"/><path class="cls-6" d="M112,123.25a13.83,13.83,0,0,1,3.77,3,16.23,16.23,0,0,1,3.71,8.14"/><path class="cls-1" d="M111.26,157.82c-.51.87-4.33,6-.4,9.3,3.74,3.12,9.73-1,9.72-7.43a4.51,4.51,0,0,0-4.23-4.47A5.37,5.37,0,0,0,111.26,157.82Z"/><path class="cls-1" d="M104.36,154.94c2.18-1.73,4.9-2.26,6.94,0,2.38,2.59.36,6.08-1.51,8.37s-5,4-7,2.71C98.82,163.41,100.92,157.68,104.36,154.94Z"/><path class="cls-1" d="M94.15,154.71s5.8-7.05,10.62-3.22c5.52,4.39-5.39,14.41-10,11.28-4.17-2.8-1.17-7.63-1.17-7.63"/><path class="cls-1" d="M129.66,157.82c.51.87,4.34,6,.4,9.3-3.74,3.12-9.73-1-9.72-7.43a4.51,4.51,0,0,1,4.23-4.47A5.37,5.37,0,0,1,129.66,157.82Z"/><path class="cls-1" d="M136.56,154.94c-2.18-1.73-4.9-2.26-6.94,0-2.38,2.59-.36,6.08,1.51,8.37s5,4,7,2.71C142.1,163.41,140,157.68,136.56,154.94Z"/><path class="cls-1" d="M146.78,154.71s-5.81-7.05-10.63-3.22c-5.52,4.39,5.39,14.41,10,11.28,4.16-2.8,1.16-7.63,1.16-7.63"/><path class="cls-1" d="M162.35,130.67l51.69.13s3.14-20.85-13-15.41c0,0-1.49-9-10.24-10.29a11.89,11.89,0,0,0-13.67,11.24S161.68,108.71,162.35,130.67Z"/><path class="cls-1" d="M6.27,124.15l58.81.14s3.57-23.73-14.84-17.53c0,0-1.7-10.3-11.66-11.71A13.52,13.52,0,0,0,23,107.84S5.51,99.16,6.27,124.15Z"/></g></svg>