<svg xmlns="http://www.w3.org/2000/svg" viewBox="0 0 231.76 225.92"><defs><style>.cls-1{fill:#989898;}.cls-1,.cls-2,.cls-3,.cls-4,.cls-5,.cls-7,.cls-8{stroke:#000;}.cls-1,.cls-2,.cls-3,.cls-4,.cls-5,.cls-6,.cls-7,.cls-8{stroke-miterlimit:10;stroke-width:0.5px;}.cls-2{fill:#fff;}.cls-3,.cls-6{fill:none;}.cls-4{fill:#c4c4c4;}.cls-6{stroke:#fff;}.cls-7{fill:#5f5f5f;}.cls-8{fill:#858585;}.cls-9{fill:#7c7c7c;}</style></defs><g id="PREVIEW"><path class="cls-1" d="M216.55,38.38c-.09.91-.23,1.83-.39,2.73h0a37.64,37.64,0,0,1-1,4.12A46,46,0,0,1,195.9,69.73a35.91,35.91,0,0,1-7.53,3.41c-.89-2.36-1.88-4.65-3-6.89a27.73,27.73,0,0,0,7-3.13,38.86,38.86,0,0,0,14.94-18.37h0a30,30,0,0,0,1.27-4.22,26.11,26.11,0,0,0,.5-3.13,4.9,4.9,0,0,1,.22-1h0a3.27,3.27,0,0,1,2.53-2.07h0A3.84,3.84,0,0,1,216.55,38.38Z"/><path class="cls-2" d="M213.62,26.58s-2.48-16.06-8.06-14.81c-4.39,1,1,16.3,1,16.3Z"/><path class="cls-2" d="M219.2,26.55s6.46-14.61.8-15.38-7,14.89-7,14.89Z"/><path class="cls-2" d="M204.69,29s-4.88,7,1.48,11.07c0,0-3.13,2.58.79,4.31s12.53,2,10.77-2.61c0,0,8.56-3.79,4.52-12.87Z"/><path class="cls-3" d="M206.17,40a14,14,0,0,0,3.87,1.4"/><path class="cls-3" d="M214,41.75a12.36,12.36,0,0,0,3.71,0"/><path class="cls-2" d="M223.18,24.85a3.65,3.65,0,0,0-3.14.38,6.81,6.81,0,0,0-2.49,4c-.35,1.28-.44,2.89.81,3.72,1.79,1.19,3.57-.19,4.65-1.63a6.27,6.27,0,0,0,1.43-4.95A2.11,2.11,0,0,0,223.18,24.85Z"/><path class="cls-2" d="M204.61,29.05c2.88-3.31,10-3.28,12.6-3.18,1.5.06,3,.35,3.58,1.74,1.84,4.58-8.5,6.37-8.5,6.37s1,3.28-1.82,4.26"/><path class="cls-1" d="M15.73,41.54c0,.91.11,1.84.23,2.75h0a35.58,35.58,0,0,0,.79,4.17A46,46,0,0,0,34.48,74.05,35.28,35.28,0,0,0,41.8,77.9c1-2.29,2.15-4.53,3.38-6.69a28,28,0,0,1-6.79-3.54A39,39,0,0,1,24.56,48.45h0a30.08,30.08,0,0,1-1-4.3A25.9,25.9,0,0,1,23.22,41a4.36,4.36,0,0,0-.16-1v0a3.23,3.23,0,0,0-2.4-2.21h0A3.82,3.82,0,0,0,15.73,41.54Z"/><path class="cls-2" d="M19.34,29.93S22.78,14,28.27,15.62c4.33,1.24-1.93,16.22-1.93,16.22Z"/><path class="cls-2" d="M13.78,29.57s-5.59-15,.11-15.4S20,29.45,20,29.45Z"/><path class="cls-2" d="M28.13,32.85s4.45,7.29-2.14,11c0,0,3,2.77-1,4.25S12.32,49.3,14.35,44.82c0,0-8.32-4.29-3.75-13.11Z"/><path class="cls-3" d="M26,43.81A13.77,13.77,0,0,1,22.05,45"/><path class="cls-3" d="M18.05,45.05a12.18,12.18,0,0,1-3.7-.23"/><path class="cls-2" d="M9.91,27.65a3.6,3.6,0,0,1,3.11.56,6.74,6.74,0,0,1,2.25,4.11c.28,1.3.27,2.91-1,3.66-1.86,1.09-3.55-.4-4.54-1.9a6.27,6.27,0,0,1-1.14-5A2.08,2.08,0,0,1,9.91,27.65Z"/><path class="cls-2" d="M28.19,32.93c-2.67-3.47-9.76-3.86-12.38-3.92-1.5,0-3,.17-3.68,1.53C10,35,20.24,37.4,20.24,37.4S19,40.61,21.81,41.76"/><path class="cls-1" d="M93.69,147.58l1.09,52.14s-18.14.84-20.93,15.07l34.6-.56.28-67Z"/><path class="cls-2" d="M94.49,189.37l.29,10.35s-18.14.84-20.93,15.07l34.6-.56.1-24.86Z"/><line class="cls-3" x1="97.63" y1="191.08" x2="97.63" y2="194.93"/><line class="cls-3" x1="101.83" y1="191.08" x2="101.83" y2="194.93"/><line class="cls-3" x1="105.85" y1="190.96" x2="105.85" y2="194.81"/><polygon class="cls-4" points="98.06 223.11 97.82 219.45 96.11 223.11 74.12 223.15 73.85 214.79 108.41 214.17 108.55 222.94 98.06 223.11"/><path class="cls-5" d="M91.93,200.07c-5.21.9-16,4-18.08,14.72l34.6-.56,0-10.14C102.8,205.86,95.67,204.67,91.93,200.07Z"/><line class="cls-6" x1="85.18" y1="201.7" x2="91.41" y2="206.64"/><line class="cls-6" x1="82.01" y1="203.32" x2="88.24" y2="208.27"/><path class="cls-1" d="M145,147.7l-1.66,52.13s18.12,1,20.75,15.3l-34.59-.95.48-67Z"/><path class="cls-2" d="M143.69,189.48l-.4,10.35s18.12,1,20.75,15.3l-34.59-.95.18-24.86Z"/><line class="cls-3" x1="132.71" y1="191.18" x2="132.71" y2="195.02"/><line class="cls-3" x1="136.91" y1="191.18" x2="136.91" y2="195.02"/><line class="cls-3" x1="140.93" y1="191.06" x2="140.93" y2="194.91"/><polygon class="cls-4" points="139.74 223.17 140.02 219.52 141.69 223.19 163.68 223.48 164.04 215.13 129.49 214.12 129.25 222.89 139.74 223.17"/><path class="cls-5" d="M146.12,200.21c5.21.95,15.94,4.2,17.92,14.92l-34.59-.95.08-10.14C135.19,205.88,142.34,204.76,146.12,200.21Z"/><line class="cls-6" x1="152.86" y1="201.91" x2="146.57" y2="206.79"/><line class="cls-6" x1="156.01" y1="203.57" x2="149.72" y2="208.44"/><path class="cls-2" d="M167.76,139c0,.37,0,.75,0,1.12,0,.19,0,.4,0,.59,0,.34-.06.67-.1,1a4.43,4.43,0,0,1-.11.73,3.76,3.76,0,0,1-.1.55,15.89,15.89,0,0,1-.83,2.83,7.06,7.06,0,0,1-.29.71,17.55,17.55,0,0,1-2.06,3.56c-.11.16-.22.31-.35.47l-.66.79a18.6,18.6,0,0,1-2.2,2.15c-.44.36-.9.71-1.37,1L159,155c-.24.16-.49.3-.74.44s-.53.29-.81.43l-.59.28a16.53,16.53,0,0,1-2.26.83,5.25,5.25,0,0,1-.6.16,8.89,8.89,0,0,1-1.05.23l-.52.08a3.71,3.71,0,0,1-.45.06c-.2,0-.41,0-.61.05h-.11c-.3,0-.61,0-.92,0s-.58,0-.87,0h0c-.21,0-.41,0-.62,0s-.69-.09-1-.15a3.94,3.94,0,0,1-.47-.1c-.21,0-.43-.1-.64-.16a6,6,0,0,1-.6-.19,11,11,0,0,1-1.49-.59,3.49,3.49,0,0,1-.39-.19,13.81,13.81,0,0,1-2.42-1.56c-.28-.22-.56-.46-.82-.7h0c-.22-.2-.43-.41-.64-.62-.43-.44-.83-.91-1.23-1.41a.06.06,0,0,1,0,0,.34.34,0,0,1,0,.1l-.07.13a.38.38,0,0,1-.05.11,0,0,0,0,0,0,0,36.54,36.54,0,0,1-2.41,4.43c-.45.7-.92,1.39-1.42,2.05-.16.22-.34.44-.51.65-.52.65-1.06,1.28-1.62,1.87-.37.39-.75.78-1.15,1.14s-.81.72-1.22,1.05-.84.66-1.28,1c-.25.17-.51.35-.78.51s-.51.31-.77.45l-.64.35a3.62,3.62,0,0,1-.4.19l-.44.2a13.63,13.63,0,0,1-1.33.53c-.35.12-.69.23-1.05.33l-.46.12-.43.09-.45.09c-.28.05-.56.1-.84.13s-.73.08-1.12.11-.64,0-1,0h-.35a2.17,2.17,0,0,1-.36,0c-.24,0-.48,0-.72-.05s-.4,0-.61-.06-.68-.09-1-.15l-1.05-.22-.6-.15c-.29-.09-.59-.17-.88-.27a18.1,18.1,0,0,1-2.47-1.08c-.53-.29-1-.59-1.53-.93s-.81-.58-1.2-.89a5.71,5.71,0,0,1-.47-.39c-.21-.17-.41-.35-.62-.54a24.39,24.39,0,0,1-2.58-2.8c-.24-.29-.47-.6-.68-.9s-.45-.61-.65-.93a3.94,3.94,0,0,1-.22-.35c0-.1-.13-.22-.2-.36-.2-.34-.44-.8-.71-1.29s-.64-1.22-1-1.9-.62-1.31-.9-2c-.1-.22-.2-.44-.28-.65a16.64,16.64,0,0,1-1.62,1.79,5.45,5.45,0,0,1-.5.46h0l-.29.26c-.23.2-.45.37-.68.54s-.46.34-.69.49a13.67,13.67,0,0,1-1.42.82,3,3,0,0,1-.41.19,7.75,7.75,0,0,1-.79.33,12.88,12.88,0,0,1-2.07.61c-.25,0-.51.1-.77.13a8.66,8.66,0,0,1-1,.11l-.4,0a11.06,11.06,0,0,1-1.41,0,12.71,12.71,0,0,1-1.63-.19A6.91,6.91,0,0,1,86,157q-.33-.06-.66-.15a2.15,2.15,0,0,1-.36-.11,17.5,17.5,0,0,1-5.11-2.43c-.47-.33-.93-.67-1.37-1s-.86-.76-1.27-1.16a17.87,17.87,0,0,1-5.45-13.35c0-.24,0-.47,0-.7s0-.36.05-.53v0c0-.22,0-.42.07-.63.08-.62.19-1.25.33-1.86a25.14,25.14,0,0,1,2.11-5.93c3.69-7.42,10.72-13.72,17.55-18.33l.32.27a34.64,34.64,0,0,0,5.06,3.74,35.34,35.34,0,0,0,18.46,5.16c1.16,0,2.29,0,3.41-.16A35.21,35.21,0,0,0,137,112.92a34.34,34.34,0,0,0,4.39-3.87c.22-.22.44-.45.64-.68h1.45c7.54,4.46,16.3,11.26,20.95,19.59h0a26.78,26.78,0,0,1,2.81,7.25c.14.63.25,1.25.33,1.88,0,.21.05.42.07.62v.05c0,.17,0,.35.05.52S167.75,138.77,167.76,139Z"/><path class="cls-7" d="M71.81,138.8a21.59,21.59,0,0,1,.48-3.78c3,12.24,19.15,19.74,28.23,8.13a55.47,55.47,0,0,0,3.29,6.52c2.65,4,6.37,7.44,11.08,8.73,11.22,3.07,19.61-5.15,24-14.63,0,0,.18-.35.18-.39,9.09,11.57,25.23,4.08,28.23-8.16a21.83,21.83,0,0,1,.48,3.79c.59,14.79-18.5,25.84-28.71,12.83a3.7,3.7,0,0,1-.18.4c-4.37,9.48-12.76,17.69-24,14.62-4.71-1.28-8.43-4.73-11.08-8.72a55.92,55.92,0,0,1-3.29-6.51C90.32,164.65,71.22,153.6,71.81,138.8Z"/><polyline class="cls-3" points="137.02 112.92 147.55 126.82 148.78 128.44"/><path class="cls-8" d="M147.69,131.45c-1.13-2-1.12-4.08,0-4.75s3,.37,4.15,2.32,1.12,4.09,0,4.76S148.83,133.4,147.69,131.45Z"/><polyline class="cls-3" points="119.21 119.78 120.54 136.74 120.7 138.77"/><path class="cls-8" d="M118.16,140.71c.1-2.26,1.26-4,2.59-4s2.33,1.93,2.23,4.19-1.25,4-2.58,4S118.06,143,118.16,140.71Z"/><polyline class="cls-3" points="97.34 114.78 91.56 130.71 90.87 132.62"/><path class="cls-8" d="M87.76,133.35c1-2,2.82-3.17,4-2.56s1.33,2.72.31,4.74-2.82,3.16-4,2.56S86.74,135.36,87.76,133.35Z"/><path class="cls-2" d="M162,32.85c0,.37,0,.74,0,1.12,0,.22,0,.46-.05.69s0,.35,0,.52c0,.43-.09.85-.16,1.26s-.14.81-.23,1.22a.13.13,0,0,1,0,.06v0a24.4,24.4,0,0,1-1.78,5.2c-3.4,7.37-10.16,13.67-16.89,18.36-.41-.48-.83-.95-1.26-1.39a35.51,35.51,0,0,0-52.83,1.45c-.38.44-.76.9-1.11,1.38-6.41-4.13-13.24-9.81-17.46-16.56a27.26,27.26,0,0,1-3.64-8.64v0a.07.07,0,0,1,0-.06c-.08-.41-.16-.81-.22-1.22A10.42,10.42,0,0,1,66.13,35a3.75,3.75,0,0,1,0-.47c0-.25,0-.5,0-.76a13.58,13.58,0,0,1,0-1.43,4.58,4.58,0,0,1,0-.53c0-.28,0-.55.09-.82a11.69,11.69,0,0,1,.23-1.36c.06-.33.14-.64.22-.95a.43.43,0,0,1,0-.16l.16-.55c0-.13.08-.25.13-.38s.15-.43.23-.65.27-.67.43-1a1.87,1.87,0,0,1,.15-.32c.14-.31.29-.6.45-.89A13.3,13.3,0,0,1,69,23.46c.19-.29.38-.58.6-.86s.21-.3.31-.44A19.57,19.57,0,0,1,72,19.91c.28-.27.58-.52.88-.77a18.27,18.27,0,0,1,3-2c.2-.12.42-.23.63-.33a17.73,17.73,0,0,1,2.72-1,3.74,3.74,0,0,1,.45-.12c.23-.07.48-.12.73-.17s.5-.1.73-.14a14.53,14.53,0,0,1,3.15-.18c.24,0,.48,0,.71.07l.69.08.54.11.48.11a11.35,11.35,0,0,1,1.14.32l.62.23c.16.07.32.13.48.21a3.78,3.78,0,0,1,.5.22c.19.1.4.2.59.31s.36.2.53.32a3.1,3.1,0,0,1,.41.26,13.51,13.51,0,0,1,2.22,1.79c.15.14.31.29.46.45.37.4.74.82,1.1,1.27a1.24,1.24,0,0,1,.12-.28c0-.05,0-.11.06-.12.17-.37.36-.75.54-1.13s.38-.74.58-1.11.37-.68.57-1,.32-.54.48-.8.24-.39.37-.58a28.33,28.33,0,0,1,5.17-6.06c.4-.35.82-.69,1.24-1s.65-.46,1-.68.65-.43,1-.62.64-.36,1-.52A.37.37,0,0,1,107,7c.32-.16.66-.31,1-.45a16.59,16.59,0,0,1,2.35-.78l.66-.15c.26-.05.52-.11.78-.14l.8-.1c.27,0,.54,0,.82-.06l.78,0h0l.7,0a6.06,6.06,0,0,1,.73,0l.6.07a6.2,6.2,0,0,1,.7.1c.32,0,.64.1,1,.18s.66.15,1,.24a14.63,14.63,0,0,1,1.73.58,16.09,16.09,0,0,1,1.63.76,19.93,19.93,0,0,1,1.7,1c.43.3.85.63,1.26,1a23,23,0,0,1,2,1.85c.33.34.65.71,1,1.09a12.14,12.14,0,0,1,.77,1c.36.47.72,1,1,1.46,0,.08.12.19.2.34a2,2,0,0,1,.16.26l.17.29c.05.11.12.21.18.33s.28.51.43.79c.3.57.64,1.22,1,1.9.41.84.83,1.75,1.19,2.61a15.45,15.45,0,0,1,1.1-1.27c.17-.19.35-.36.52-.52s.32-.33.49-.47h0l.29-.25a5.56,5.56,0,0,1,.67-.53c.21-.16.44-.33.66-.48s.54-.34.82-.49l.57-.31c.17-.08.33-.17.5-.24a4.61,4.61,0,0,1,.51-.22,9.38,9.38,0,0,1,1.35-.47l.74-.19.54-.11.55-.08a6.24,6.24,0,0,1,1-.11l.87,0,.78,0a11.45,11.45,0,0,1,1.3.13l.57.1a12.48,12.48,0,0,1,1.42.31,11.15,11.15,0,0,1,1.57.53,17.6,17.6,0,0,1,4.37,2.44l.39.3a18.71,18.71,0,0,1,2.58,2.46c.2.23.4.47.59.72s.19.24.28.37a7.14,7.14,0,0,1,.55.77,3,3,0,0,1,.25.37,8.94,8.94,0,0,1,.51.84l.11.2a16.47,16.47,0,0,1,1.25,2.81c0,.13.08.26.13.38.15.45.28.93.39,1.4,0,.13.06.27.08.41a6,6,0,0,1,.13.72c0,.24.08.49.11.73s.06.6.08.91S162,32.67,162,32.85Z"/><path class="cls-7" d="M162,34a21.61,21.61,0,0,1-.49,3.77c-3-12.24-19.14-19.74-28.22-8.13A55.07,55.07,0,0,0,130,23.1c-2.65-4-6.37-7.45-11.08-8.74-11.22-3.07-19.61,5.15-24,14.64a3.52,3.52,0,0,0-.17.39c-9.1-11.58-25.23-4.09-28.23,8.15A20.9,20.9,0,0,1,66,33.75C65.45,19,84.53,7.91,94.75,20.92a3.7,3.7,0,0,1,.17-.4C99.3,11,107.69,2.83,118.91,5.9c4.71,1.29,8.43,4.73,11.08,8.72a55.47,55.47,0,0,1,3.29,6.52C143.48,8.12,162.58,19.17,162,34Z"/><line class="cls-3" x1="85.57" y1="36.47" x2="97.74" y2="54.09"/><path class="cls-8" d="M86.78,33.51c1,2,1,4.13-.23,4.75s-3-.51-4-2.51-.94-4.12.24-4.74S85.73,31.51,86.78,33.51Z"/><line class="cls-3" x1="114.07" y1="27.38" x2="114.81" y2="48.79"/><path class="cls-8" d="M116.69,25.55c-.2,2.25-1.43,4-2.76,3.86s-2.25-2-2.05-4.28,1.43-4,2.76-3.87S116.89,23.29,116.69,25.55Z"/><line class="cls-3" x1="143.6" y1="34.82" x2="135.44" y2="54.62"/><path class="cls-8" d="M146.74,34.23c-1.11,2-3,3-4.11,2.38s-1.2-2.78-.1-4.75,2.95-3,4.11-2.38S147.85,32.26,146.74,34.23Z"/><path class="cls-2" d="M92,110.77A35.58,35.58,0,0,1,80.51,88.64,35.7,35.7,0,0,1,83.86,68.8a34,34,0,0,1,3.77-6.06c.35-.48.73-.94,1.11-1.38-4.81-5.78-11.18-11.67-18.57-15.18a33.63,33.63,0,0,0-9.07-2.92l-.37,0-1.11-.15c-.45-.05-.9-.1-1.36-.12h0l-.39,0c-.32,0-.66,0-1,0h-.76l-.72,0a20.06,20.06,0,0,0-2.71.31,4.26,4.26,0,0,0-.49.1,15.78,15.78,0,0,0-1.74.42q-.44.12-.87.27c-.32.1-.63.2-.93.32s-.61.24-.9.37l-.58.26-.64.31c-.28.14-.56.29-.84.46s-.5.29-.75.44l-.73.46c-.38.25-.75.52-1.11.8l-.49.4a5.85,5.85,0,0,0-.54.45c-.34.29-.66.6-1,.91l-.46.46-.44.49c-.28.32-.55.66-.81,1a15.66,15.66,0,0,0-1.48,2.29q-.24.45-.45.9a11.77,11.77,0,0,0-.59,1.51,14.89,14.89,0,0,0-.4,1.56A10.28,10.28,0,0,0,36.22,59a11.69,11.69,0,0,0,.37,3.72,10.76,10.76,0,0,0,.73,2,11.58,11.58,0,0,0,.87,1.47,12.91,12.91,0,0,0,1.1,1.42c.18.21.38.43.6.65a18.09,18.09,0,0,0,3,2.4,68.08,68.08,0,0,0-7.27,3.3C31.22,76.52,27.4,80.16,26,84.69c-3.24,10.79,6.19,18.6,17,22.56a4.72,4.72,0,0,0,.45.16c-.26.18-.52.37-.76.56a.23.23,0,0,0-.09.08,7.11,7.11,0,0,0-.68.55,5.2,5.2,0,0,0-.44.38l-.24.22-.63.64a14.12,14.12,0,0,0-1.95,2.62l-.31.58a.76.76,0,0,0,0,.11,11.65,11.65,0,0,0-.57,1.37s0,0,0,0a10.15,10.15,0,0,0-.36,1.39c0,.18-.07.36-.09.53a5.24,5.24,0,0,0-.06.54,3.88,3.88,0,0,0,0,.48,7.62,7.62,0,0,0,0,1.17c0,.12,0,.24,0,.36a4.74,4.74,0,0,0,.07.67c0,.22.07.43.11.64a11.83,11.83,0,0,0,.42,1.63c.08.24.16.47.26.71a11.24,11.24,0,0,0,.78,1.65,4.29,4.29,0,0,0,.31.55,17.3,17.3,0,0,0,1.7,2.38l.48.52a7.44,7.44,0,0,0,.55.58c.14.14.29.29.44.42a13.42,13.42,0,0,0,1.34,1.14c.26.21.53.41.8.6s.52.36.79.54l.62.38c.24.15.48.29.73.42s.73.38,1.09.56c0,0,0,0,0,0,.56.27,1.16.52,1.75.75a22.35,22.35,0,0,0,9,1.38h.11c.38,0,.75-.06,1.13-.09a1.84,1.84,0,0,0,.33,0c.4,0,.8-.1,1.2-.16a0,0,0,0,0,0,0c.47-.07.94-.15,1.42-.26h0a35,35,0,0,0,11.65-4.87c7.51-4.72,13.64-11.8,17.87-18.06"/><path class="cls-7" d="M56.84,42.89a27.31,27.31,0,0,1,4.26.37C47.36,46.41,39.22,62,52.5,70.4a67.07,67.07,0,0,0-7.29,3.3c-4.44,2.63-8.27,6.26-9.62,10.79-3.24,10.79,6.19,18.6,17,22.56,0,0,.4.16.45.16-12.87,9-4.11,24.18,9.75,26.76a27.12,27.12,0,0,1-4.26.55c-16.66.92-29.5-17.05-15-27.11a4.09,4.09,0,0,1-.46-.16c-10.78-4-20.2-11.78-17-22.56,1.36-4.53,5.17-8.16,9.62-10.79a68.54,68.54,0,0,1,7.28-3.3C28.05,61.17,40.13,42.67,56.84,42.89Z"/><polyline class="cls-3" points="86.2 104.08 72.13 114.92 70.65 116.06"/><path class="cls-8" d="M67.93,114.94c1.84-1,3.79-.87,4.36.22s-.46,2.74-2.3,3.71-3.79.86-4.36-.22S66.09,115.9,67.93,114.94Z"/><polyline class="cls-3" points="80.51 88.64 64.15 89.74 62.3 89.86"/><path class="cls-8" d="M60.61,87.46c2.07.18,3.66,1.31,3.55,2.53s-1.87,2.07-3.94,1.88-3.66-1.31-3.55-2.53S58.54,87.27,60.61,87.46Z"/><polyline class="cls-3" points="83.86 68.8 70.85 63.44 69.13 62.73"/><path class="cls-8" d="M68.59,59.84c1.81,1,2.79,2.71,2.19,3.78s-2.56,1.1-4.37.08S63.62,61,64.22,59.93,66.78,58.82,68.59,59.84Z"/><path class="cls-2" d="M206.28,88.44a13.21,13.21,0,0,1-1.45,3.23,17.66,17.66,0,0,1-2.21,2.88,26.76,26.76,0,0,1-6,4.68c-.13.08-.37.21-.7.37l-.66.33-.54.26-1.9.89c-1.11.49-2.33,1-3.48,1.45,14.88,9.43,2.8,27.93-13.9,27.72a28.58,28.58,0,0,1-4.26-.38,32.79,32.79,0,0,1-6.76-1.9h0c-9.58-3.81-17.61-11.76-23-18.92.22-.22.44-.45.64-.68a36.16,36.16,0,0,0,5-7,35.32,35.32,0,0,0,4.32-17V84a35.55,35.55,0,0,0-8.52-22.72c-.41-.48-.83-.95-1.26-1.39,4.48-6.18,10.7-12.77,18.15-17a34,34,0,0,1,9.87-3.77h0c.47-.1.92-.19,1.38-.26l1.36-.18.49,0c.32,0,.66,0,1-.06s.82,0,1.23,0,.78,0,1.15,0a13.3,13.3,0,0,1,1.56.14l.5.06a4.31,4.31,0,0,1,.61.1l.29,0a16.53,16.53,0,0,1,1.69.39l1,.28c.64.21,1.27.43,1.87.69l.45.21a3.76,3.76,0,0,1,.46.2c.25.11.49.24.73.37s.52.27.77.42l.49.29a.93.93,0,0,1,.19.11l.71.47c.26.17.52.35.76.54l.76.59c.3.25.59.51.88.77l.44.42c.14.13.27.27.41.41s.51.56.76.85l.23.28c.35.44.69.88,1,1.33.15.23.3.45.43.69s.28.48.41.71a13.47,13.47,0,0,1,1.18,3c.06.26.13.52.17.77s.1.52.13.77.06.52.09.78a11.22,11.22,0,0,1-.34,3.6c-.06.24-.13.48-.21.71a3.41,3.41,0,0,1-.19.5,4.16,4.16,0,0,1-.16.4A3.41,3.41,0,0,1,194,60c-.1.22-.21.45-.34.68a14,14,0,0,1-2,2.63,17.32,17.32,0,0,1-1.31,1.24,15.65,15.65,0,0,1-1.52,1.18c.09,0,.41.16.45.17.58.21,1.17.44,1.73.68s1.14.47,1.7.73,1.11.53,1.65.81,1.08.57,1.6.87,1,.62,1.53.94l.86.58c.3.2.58.4.85.61a25.58,25.58,0,0,1,2.38,2l.64.64q.42.44.81.87c.25.31.5.61.74.92,0,0,0,0,0,0,.24.32.47.63.68,1s.42.66.62,1,.24.45.35.69a4.83,4.83,0,0,1,.27.56c.13.28.25.57.36.86A13.57,13.57,0,0,1,206.28,88.44Z"/><path class="cls-7" d="M175.48,130.24a27.31,27.31,0,0,1-4.26-.37c13.74-3.15,21.87-18.74,8.6-27.14a67.57,67.57,0,0,0,7.28-3.3c4.45-2.63,8.27-6.26,9.63-10.79,3.24-10.78-6.2-18.6-17-22.56,0,0-.39-.16-.44-.16,12.87-9,4.1-24.18-9.75-26.76a27.14,27.14,0,0,1,4.25-.55c16.67-.91,29.51,17.06,15,27.11.06,0,.42.15.46.16,10.78,4,20.2,11.78,17,22.56-1.35,4.53-5.17,8.16-9.61,10.79a68.54,68.54,0,0,1-7.28,3.3C204.26,112,192.18,130.46,175.48,130.24Z"/><polyline class="cls-3" points="147.03 101.39 162.22 113.08 163.7 114.22"/><path class="cls-8" d="M166.42,113.1c-1.84-1-3.79-.86-4.36.22s.46,2.75,2.3,3.71,3.79.87,4.36-.22S168.26,114.07,166.42,113.1Z"/><line class="cls-3" x1="172.06" y1="85.41" x2="151.34" y2="84.03"/><path class="cls-8" d="M173.74,83c-2.07.19-3.66,1.32-3.55,2.54s1.87,2.06,3.94,1.88,3.66-1.31,3.55-2.53S175.81,82.82,173.74,83Z"/><polyline class="cls-3" points="147.46 68.22 163.5 61.6 165.22 60.89"/><path class="cls-8" d="M165.76,58c-1.81,1-2.79,2.71-2.19,3.78s2.56,1.11,4.37.09,2.79-2.71,2.19-3.78S167.57,57,165.76,58Z"/><path class="cls-3" d="M92.28,111l-.32-.27"/><circle class="cls-4" cx="115.8" cy="84.4" r="35.55"/><circle class="cls-9" cx="93.83" cy="91.45" r="10.36" transform="translate(-32.88 58.1) rotate(-29.52)"/><path class="cls-9" d="M147.16,90.9a10.36,10.36,0,1,1-11.4-9.21A10.36,10.36,0,0,1,147.16,90.9Z"/><path class="cls-2" d="M120,76.36a36.3,36.3,0,0,0,1,8.31,17.5,17.5,0,0,1,8-.93c.46,0,.91.1,1.34.18a18.75,18.75,0,0,1,6,2,34.42,34.42,0,0,0,.93-8.74c-.15-10.11-4.15-18.47-8.94-18.7-3.38-.15-6.24,3.78-7.59,9.65a0,0,0,0,1,0,0A35.63,35.63,0,0,0,120,76.36Z"/><path class="cls-3" d="M137.28,60.58s.25,3.49-2.13,4.68"/><path class="cls-3" d="M139.76,64.54s-.53,3.75-3.39,4"/><path class="cls-3" d="M140.65,70s-.63,3.26-3.49,3.57"/><path class="cls-5" d="M120,76.36a36.3,36.3,0,0,0,1,8.31,17.5,17.5,0,0,1,8-.93c.46,0,.91.1,1.34.18a42.8,42.8,0,0,0,.44-6.82c0-.46,0-.91,0-1.36l-6.26-2.23,5.94-2c-.74-5.53-2.7-9.43-5.08-9.41-1.84,0-3.51,2.37-4.6,6a0,0,0,0,1,0,0A35.63,35.63,0,0,0,120,76.36Z"/><path class="cls-2" d="M93.24,83.29s0,.06,0,.09,0,0,0,.06a2.38,2.38,0,0,1,0,.26,9.9,9.9,0,0,1,1-.34l.55-.17h0a17.52,17.52,0,0,1,5.54-.54,19.3,19.3,0,0,1,2.33.26A2.84,2.84,0,0,1,103,83a16.41,16.41,0,0,1,5,1.75,34.89,34.89,0,0,0,1.12-8c.28-9.86-3.2-18.23-7.77-18.71-2.54-.27-4.87,2-6.49,5.66h0c-.25.56-.47,1.16-.68,1.79l-.06.2L94,66a3.58,3.58,0,0,0-.11.35,5.36,5.36,0,0,0-.17.57c-.08.25-.15.5-.21.76s-.13.54-.19.81c-.16.71-.29,1.47-.4,2.26,0,.25-.08.51-.11.78v0q-.07.54-.12,1.11l-.06.78c0,.19,0,.39,0,.59a.81.81,0,0,1,0,.15c0,.27,0,.57,0,.86A35.7,35.7,0,0,0,93.24,83.29Z"/><path class="cls-3" d="M92.86,58.81s-.28,3.39,2,4.89"/><path class="cls-3" d="M90.45,62.33s.45,3.74,3.18,4.39"/><path class="cls-3" d="M89.52,67.54s.56,3.27,3.28,4"/><path class="cls-5" d="M93.29,83.68s1.35-.44,1.54-.49h0a17.52,17.52,0,0,1,5.54-.54,19.3,19.3,0,0,1,2.33.26,40.17,40.17,0,0,0,.56-6.83c0-.47,0-.93,0-1.38l-6-2,5.58-2.26.06,0a21.29,21.29,0,0,0-2-6.86c-.86-1.64-1.91-2.56-3-2.51-1.44.09-2.75,1.78-3.71,4.45L94,66a3.58,3.58,0,0,0-.11.35,5.36,5.36,0,0,0-.17.57c-.08.25-.15.5-.21.76s-.13.54-.19.81c-.16.71-.29,1.47-.4,2.26,0,.25-.08.51-.11.78v0q-.07.54-.12,1.11l-.06.78c0,.19,0,.39,0,.59a.81.81,0,0,1,0,.15c0,.27,0,.57,0,.86A49,49,0,0,0,93.29,83.68Z"/><path class="cls-8" d="M117.41,81.48c0,2.07-1.29,3.78-3,3.81s-3.08-1.63-3.12-3.7,1.29-3.78,3-3.81S117.37,79.4,117.41,81.48Z"/><path class="cls-2" d="M113.87,87.63c-5.76-.2-9.54-3.34-14.83-3.59-3-.15-5.9.32-6.3,3.71-.75,6.21,3.43,10.8,8.75,13.82a27.36,27.36,0,0,0,22.6,1.76c6.27-2.22,12.95-6.35,12.29-13.78-.31-3.41-3-4.12-6-4.22C125.1,85.16,119.15,87.82,113.87,87.63Z"/><path class="cls-3" d="M124.1,86.06a31.44,31.44,0,0,1,0,17.27"/><path class="cls-3" d="M113.87,87.63a33.38,33.38,0,0,1,.64,8.18,34,34,0,0,1-1.66,9.11"/><path class="cls-3" d="M103.18,84.8a31.75,31.75,0,0,1,.25,8.87,31.35,31.35,0,0,1-1.94,7.9"/></g></svg>