<svg width="27" height="23" viewBox="0 0 27 23" fill="none" xmlns="http://www.w3.org/2000/svg">
<path d="M21.501 15.9649C21.479 16.1632 21.4797 16.3341 21.4963 16.484C21.2934 16.7447 21.1028 17.0342 20.9299 17.3567C20.7754 16.7219 20.5498 16.1751 20.2801 15.7004C20.3186 15.5535 20.3441 15.3833 20.3512 15.1821C20.4355 12.754 16.4924 12.38 15.5925 12.6861C17.1858 13.6514 16.7173 14.0188 17.2009 14.9495C17.6061 15.7293 19.4829 17.0684 20.1315 16.0556C20.3841 16.5812 20.5765 17.1859 20.6774 17.8817C20.3869 18.5569 20.1683 19.6685 20.0535 20.6111C18.6506 20.722 17.475 22.123 17.475 22.123H23.0716C22.2666 21.164 21.7707 20.7063 20.4824 20.6157C20.5286 20.0368 20.6202 19.1982 20.7511 18.7237C20.8332 18.4261 20.9297 18.1479 21.0393 17.8881C21.199 17.5079 21.3873 17.1689 21.5933 16.8626C22.0908 17.9553 24.139 16.9011 24.6519 16.1884C25.2645 15.337 24.8536 14.9059 26.5693 14.1805C25.7231 13.7476 21.7672 13.5497 21.501 15.9649ZM20.0946 16.0115C20.0946 16.0115 19.8397 15.0849 17.8903 13.6889C19.8486 14.5818 20.2159 15.6577 20.2159 15.6577C20.2159 15.6577 20.1712 15.8288 20.0946 16.0115ZM21.6262 16.8203C21.5703 16.6302 21.5441 16.4553 21.5441 16.4553C21.5441 16.4553 22.0483 15.5201 24.0926 14.8464C22.002 16.0213 21.6262 16.8203 21.6262 16.8203Z" fill="white"/>
<path d="M6.49271 14.3042L5.31406 14.4936C5.48419 14.1089 5.67078 13.7301 5.86496 13.3594C5.75052 13.1648 5.65101 12.9813 5.56657 12.8135C4.64125 10.9925 4.4953 9.45956 4.47263 9.03332V9.03097L4.47208 9.01867C4.4584 8.64993 4.58914 8.29777 4.84069 8.02729C5.09181 7.75654 5.43347 7.60008 5.80235 7.58668C5.81963 7.58599 5.8369 7.58543 5.85418 7.58543C6.59886 7.58543 7.20477 8.16868 7.23393 8.91336L7.23573 8.9363C7.23753 8.95772 7.2414 9.00416 7.24886 9.06677C7.26226 9.18646 7.28963 9.3812 7.34367 9.63398C7.39011 9.85305 7.46101 10.1313 7.56536 10.446C7.60544 10.3798 7.64621 10.3127 7.68491 10.2486C8.52689 9.09068 8.60083 7.36623 7.59203 6.68734C6.58324 6.00832 4.75693 6.02739 3.41256 7.69227C1.57727 9.99291 0.768188 11.6297 0.0568207 14.6379C-0.295753 16.8773 1.06009 17.6122 2.25616 18.029C2.68654 18.1791 3.03649 18.2829 3.3342 18.2689C3.45762 18.2761 3.58339 18.2713 3.71054 18.2508L4.1202 18.1848L2.85322 19.2336C2.11781 19.8419 2.0154 20.931 2.62366 21.6663C2.96531 22.079 3.45872 22.2924 3.95573 22.2924C4.34382 22.2924 4.73399 22.1625 5.05629 21.8957L10.3262 17.5334C8.50975 16.5842 7.29005 15.3725 6.49271 14.3042Z" fill="white"/>
<path d="M11.6788 14.7609C11.3583 14.0528 10.5987 13.6445 9.83133 13.768L9.72339 13.7852C10.3211 14.3335 11.0147 14.7987 11.8079 15.1852C11.7835 15.0411 11.7413 14.8985 11.6788 14.7609Z" fill="white"/>
<path d="M17.5907 19.8827C17.5907 19.8827 18.7258 19.8364 18.938 19.2784C19.1504 18.7207 18.3333 17.9309 18.3333 17.9309C18.3333 17.9309 18.3274 17.9275 18.3166 17.9211C18.1473 17.8225 16.7407 17.0053 16.3479 16.856C15.9299 16.6969 15.1397 17.5135 15.1397 17.5135L14.7172 17.3527L14.7812 17.1845C14.7939 17.1518 14.769 17.1116 14.7259 17.0952C14.6829 17.0788 14.6377 17.0923 14.6251 17.1252L14.586 17.2282L14.1468 17.0415C14.1494 17.1921 14.1287 17.3455 14.0788 17.4966C14.0445 17.6005 13.9986 17.698 13.9434 17.7881L14.3239 17.9165L14.2845 18.0195C14.272 18.0525 14.2969 18.0926 14.3397 18.109C14.3831 18.1253 14.4281 18.1119 14.4406 18.0789L14.5046 17.9108L14.9273 18.0714C14.9273 18.0714 14.9743 19.2067 15.3926 19.3659C15.7854 19.5152 17.3794 19.8404 17.5712 19.8789C17.5838 19.8816 17.5907 19.8827 17.5907 19.8827Z" fill="white"/>
<path d="M13.4212 5.99724C14.3576 4.55812 13.95 2.6323 12.5107 1.69581C11.0715 0.759322 9.1456 1.16679 8.20919 2.60591C7.27278 4.04503 7.68042 5.97085 9.11967 6.90734C10.5589 7.84383 12.4848 7.43637 13.4212 5.99724Z" fill="white"/>
<path d="M13.1127 16.0134C10.0478 14.9924 8.5801 13.2244 7.78332 11.6848C7.39067 10.9151 7.18156 10.2022 7.07306 9.69163C7.01861 9.43663 6.98917 9.23249 6.97396 9.09884C6.96622 9.03181 6.96208 8.98233 6.95959 8.95317C6.95876 8.93838 6.95807 8.92871 6.95779 8.92428C6.93374 8.31547 6.4214 7.8403 5.81217 7.86283C5.20197 7.88522 4.72542 8.39839 4.74809 9.00845C4.75403 9.11031 4.8183 10.731 5.81341 12.6893C6.79885 14.6451 8.78783 16.9248 12.4197 18.1132C12.5347 18.1512 12.6516 18.1692 12.7665 18.1692C13.2306 18.1693 13.6629 17.8746 13.8163 17.4098C14.0076 16.8298 13.6925 16.2048 13.1127 16.0134Z" fill="white"/>
</svg>
