<svg width="26" height="26" viewBox="0 0 26 26" fill="none" xmlns="http://www.w3.org/2000/svg">
<path d="M6.41996 15.4656L5.59721 18.537L2.59008 18.6006C1.69139 16.9338 1.18164 15.0266 1.18164 13C1.18164 11.0403 1.65825 9.1922 2.50306 7.56494H2.50371L5.1809 8.05576L6.35366 10.7169C6.10821 11.4325 5.97442 12.2007 5.97442 13C5.97451 13.8675 6.13166 14.6987 6.41996 15.4656Z" fill="#FBBB00"/>
<path d="M24.6116 10.7922C24.7474 11.5071 24.8181 12.2455 24.8181 13C24.8181 13.8461 24.7292 14.6715 24.5597 15.4676C23.9844 18.1767 22.4811 20.5422 20.3987 22.2163L20.398 22.2156L17.026 22.0436L16.5487 19.0643C17.9305 18.2539 19.0104 16.9857 19.5793 15.4676H13.2598V10.7922H19.6715H24.6116Z" fill="#518EF8"/>
<path d="M20.3981 22.2158L20.3988 22.2164C18.3735 23.8444 15.8007 24.8184 13.0001 24.8184C8.49942 24.8184 4.58645 22.3028 2.59033 18.6009L6.42021 15.4658C7.41824 18.1294 9.98773 20.0256 13.0001 20.0256C14.2949 20.0256 15.5079 19.6755 16.5488 19.0645L20.3981 22.2158Z" fill="#28B446"/>
<path d="M20.5432 3.90265L16.7146 7.03706C15.6374 6.3637 14.364 5.97471 12.9997 5.97471C9.91916 5.97471 7.30162 7.95781 6.35358 10.7169L2.50358 7.565H2.50293C4.46983 3.77279 8.43215 1.18188 12.9997 1.18188C15.8672 1.18188 18.4964 2.20333 20.5432 3.90265Z" fill="#F14336"/>
</svg>
