<svg xmlns="http://www.w3.org/2000/svg" viewBox="0 0 216.18 222.01"><defs><style>.cls-1{fill:#dfdfdf;}.cls-2{fill:#989898;}.cls-3{fill:#4a4a4a;}.cls-4{fill:#acacac;}.cls-5{fill:#363636;}.cls-6{fill:#fff;}.cls-7{fill:#7c7c7c;}.cls-8{fill:#c4c4c4;}</style></defs><g id="_02" data-name="02"><path class="cls-1" d="M16.48,60.56l1.32,1a3.63,3.63,0,0,1-.34,1.48,6.34,6.34,0,0,1-.94,1.6,4.25,4.25,0,0,1-1.81,1.42,1.94,1.94,0,0,1-2-.32L4.54,59.25a.89.89,0,0,1-.25-.81A4.55,4.55,0,0,1,4.62,57a12.92,12.92,0,0,1,2.11-3.63,7.75,7.75,0,0,1,4.47-3,5.41,5.41,0,0,1,4.58,1.21,5.33,5.33,0,0,1,2.22,4,6.88,6.88,0,0,1-1.77,4.5,7,7,0,0,1-1,1,4.85,4.85,0,0,1-.86.63.3.3,0,0,0,.13.22C14.78,62.16,15.44,61.7,16.48,60.56Zm-4.07-2.9s.1-.07.19-.18a.35.35,0,0,0,.07-.35,1,1,0,0,0-.35-.42l-.66-.53a1.44,1.44,0,0,0-.5-.28.34.34,0,0,0-.33.14.53.53,0,0,0-.14.25l.15.11Z"/><path d="M14,66.5A2.21,2.21,0,0,1,12.56,66L4.38,59.45a1.17,1.17,0,0,1-.34-1,5,5,0,0,1,.34-1.51,13.13,13.13,0,0,1,2.15-3.7,8,8,0,0,1,4.62-3.11,5.64,5.64,0,0,1,4.78,1.25,5.57,5.57,0,0,1,2.32,4.18,7.17,7.17,0,0,1-1.82,4.67,7.58,7.58,0,0,1-1.06,1.06l-.52.41a5.88,5.88,0,0,0,1.44-1.29l.16-.18L18,61.49v.11a4.14,4.14,0,0,1-.35,1.59,7.22,7.22,0,0,1-1,1.66,4.44,4.44,0,0,1-1.92,1.49A2.35,2.35,0,0,1,14,66.5Zm-1.67-16a5.15,5.15,0,0,0-1,.11,7.56,7.56,0,0,0-4.33,2.93,12.77,12.77,0,0,0-2.07,3.56,4.61,4.61,0,0,0-.31,1.36.82.82,0,0,0,.15.61l8.19,6.54a1.69,1.69,0,0,0,1.74.28,4,4,0,0,0,1.7-1.34A6.37,6.37,0,0,0,17.23,63a3.93,3.93,0,0,0,.32-1.27l-1-.83c-1.11,1.19-1.77,1.55-2.18,1.22a.56.56,0,0,1-.23-.39l0-.17.16-.08a5.27,5.27,0,0,0,.81-.6,6.61,6.61,0,0,0,1-1,6.67,6.67,0,0,0,1.71-4.33,5.13,5.13,0,0,0-2.13-3.81A5.33,5.33,0,0,0,12.28,50.49Zm.08,7.44L10.68,56.6a.43.43,0,0,0-.11-.08l-.16-.09,0-.18a.91.91,0,0,1,.2-.37.57.57,0,0,1,.56-.22,1.45,1.45,0,0,1,.62.33l.65.52a1.27,1.27,0,0,1,.44.54.63.63,0,0,1-.12.59c-.13.17-.21.24-.31.26ZM11,56.22l1.39,1.11h0a.12.12,0,0,0,0-.12s-.06-.14-.27-.31l-.65-.52a1,1,0,0,0-.39-.23.08.08,0,0,0-.09,0Z"/><path class="cls-1" d="M25.14,54.3a2.64,2.64,0,0,1-1.8.87,2.64,2.64,0,0,1-1.85-.93l-7.58-7.67A4.33,4.33,0,0,1,14.39,45a5.74,5.74,0,0,1,1-1.42,3.85,3.85,0,0,1,2.07-1.11,2.46,2.46,0,0,1,2.18.76l4.23,4.29a3.69,3.69,0,0,0-.62,1.1c-.14.42-.14.7,0,.85a.4.4,0,0,0,.38.08,4.94,4.94,0,0,1,1.66-2.93L27.2,44.8a5.28,5.28,0,0,1,2.35,1.35,5.39,5.39,0,0,1,.87,1.21,3.05,3.05,0,0,1,.42,1.31Z"/><path d="M23.33,55.42a2.91,2.91,0,0,1-2-1l-7.66-7.76v-.11a4.38,4.38,0,0,1,.51-1.64,5.49,5.49,0,0,1,1.1-1.48,4.07,4.07,0,0,1,2.21-1.19,2.67,2.67,0,0,1,2.38.84l4.39,4.44a8.45,8.45,0,0,1,.91-1.06l2-1.94.14,0A5.5,5.5,0,0,1,29.73,46a5.93,5.93,0,0,1,.91,1.27,3.37,3.37,0,0,1,.45,1.42v.11l-5.78,5.71a2.87,2.87,0,0,1-2,.94Zm-9.16-8.94,7.5,7.58a2.41,2.41,0,0,0,1.66.86h0a2.38,2.38,0,0,0,1.63-.8l5.62-5.55a3.14,3.14,0,0,0-.39-1.09,5.17,5.17,0,0,0-.83-1.15,5,5,0,0,0-2.1-1.25l-1.76,1.74a4.7,4.7,0,0,0-1.58,2.77l0,.18-.18,0a.62.62,0,0,1-.61-.15c-.21-.22-.23-.58-.05-1.1a3.8,3.8,0,0,1,.52-1l-4.08-4.13a2.22,2.22,0,0,0-2-.7,3.57,3.57,0,0,0-1.93,1.05,5.35,5.35,0,0,0-1,1.36A4.21,4.21,0,0,0,14.17,46.48Zm10,1.15-.06.07a3.28,3.28,0,0,0-.57,1,.93.93,0,0,0-.08.56A4.51,4.51,0,0,1,24.17,47.63Z"/><path class="cls-1" d="M33.65,41.21a.51.51,0,0,0,.08.3c.13.16.4.18.8.05a5.35,5.35,0,0,0,1.33-.67,6,6,0,0,0,1.34,1.24,2.32,2.32,0,0,1-.41,1.36,5.4,5.4,0,0,1-1.45,1.63,5.13,5.13,0,0,1-2.55,1.11,2,2,0,0,1-2-.7,2.3,2.3,0,0,1-.26-.44L26,35.34a7.74,7.74,0,0,1,1.13-2A10.07,10.07,0,0,1,29,31.56a7.52,7.52,0,0,1,3-1.47,3.14,3.14,0,0,1,2.76.53L43,37.33A4.43,4.43,0,0,1,41,40.79a4.49,4.49,0,0,1-2,.93,1.75,1.75,0,0,1-1.59-.4l-1-.92a3.48,3.48,0,0,0,.85-1c.23-.38.29-.64.19-.78a.37.37,0,0,0-.29-.14,3,3,0,0,1-.54,1,4.65,4.65,0,0,1-.8.8A3.65,3.65,0,0,1,33.65,41.21Zm0-4.05a.61.61,0,0,0,.21-.25c-.83-.77-1.34-1.22-1.52-1.34a.39.39,0,0,0-.48,0,.64.64,0,0,0-.17.21l1.69,1.51A.37.37,0,0,0,33.63,37.16Z"/><path d="M32.42,46.5a2.09,2.09,0,0,1-1.78-.82,2.4,2.4,0,0,1-.3-.49l-4.58-9.83,0-.1a7.41,7.41,0,0,1,1.17-2,9.94,9.94,0,0,1,1.87-1.85,7.79,7.79,0,0,1,3.05-1.52,3.39,3.39,0,0,1,3,.59l8.42,6.78v.12A4.64,4.64,0,0,1,41.13,41a4.74,4.74,0,0,1-2.07,1,2,2,0,0,1-1.8-.47l-1.19-1.07-.09.06a.27.27,0,0,1-.08.07l.14.16a6.11,6.11,0,0,0,1.23,1.17l.14,0,0,.15A2.5,2.5,0,0,1,37,43.61a5.75,5.75,0,0,1-1.51,1.71,5.55,5.55,0,0,1-2.68,1.16ZM26.3,35.33,30.8,45a2.07,2.07,0,0,0,.23.39,1.76,1.76,0,0,0,1.73.6,4.87,4.87,0,0,0,2.43-1.06,5.13,5.13,0,0,0,1.38-1.55,2.74,2.74,0,0,0,.4-1.08,6.51,6.51,0,0,1-1.15-1.08,5.56,5.56,0,0,1-1.21.59c-.51.17-.88.12-1.08-.14a.74.74,0,0,1-.13-.44V41h.25a3.53,3.53,0,0,0,2-.86,4.24,4.24,0,0,0,.75-.77,2.71,2.71,0,0,0,.5-.9l0-.18h.19a.6.6,0,0,1,.48.24c.24.31,0,.75-.16,1.06a3.62,3.62,0,0,1-.7.86l.81.73a1.51,1.51,0,0,0,1.37.34,4.46,4.46,0,0,0,1.86-.89,4.28,4.28,0,0,0,2-3.14l-8.23-6.63A2.88,2.88,0,0,0,32,30.33a7.35,7.35,0,0,0-2.86,1.42,10,10,0,0,0-1.78,1.77A7.28,7.28,0,0,0,26.3,35.33Zm7.09,2.18h-.14l-1.9-1.7.1-.17a.79.79,0,0,1,.24-.29.61.61,0,0,1,.76,0A18.36,18.36,0,0,1,34,36.72l.13.12-.07.16a.83.83,0,0,1-.29.36h0A.64.64,0,0,1,33.39,37.51ZM32,35.72,33.44,37l0,0h0l0,0c-.9-.82-1.22-1.09-1.33-1.17A.32.32,0,0,0,32,35.72Z"/><path class="cls-1" d="M43.67,36.07l-5.54-9.56c-.19-.33-.08-.76.32-1.28a5.59,5.59,0,0,1,1.68-1.42,5.28,5.28,0,0,1,1.24-.52,2.66,2.66,0,0,1,1-.1,12.88,12.88,0,0,1,1.3.6l2.85,1.56a.4.4,0,0,0,.16-.18.28.28,0,0,0,0-.26,1.65,1.65,0,0,0-.55-.4l-2.06-1.17-.3-.53a4,4,0,0,1,.82-1.3,5.45,5.45,0,0,1,1.32-1.06,4.41,4.41,0,0,1,2.21-.69,2,2,0,0,1,1.81,1.14l5.24,9a1.42,1.42,0,0,1-.09,1.64,4.72,4.72,0,0,1-1.59,1.37,6.42,6.42,0,0,1-1.29.57,3.68,3.68,0,0,1-1.11.19,25.9,25.9,0,0,1-2.48-1.17L46.7,31.47a.32.32,0,0,0-.1.46,1.81,1.81,0,0,0,.63.46l2.31,1.23.29.51a5.2,5.2,0,0,1-2.08,2.16,4.49,4.49,0,0,1-2.46.75A1.85,1.85,0,0,1,43.67,36.07Z"/><path d="M45.41,37.3h-.14a2.1,2.1,0,0,1-1.82-1.09l-5.53-9.56q-.37-.64.33-1.56A5.83,5.83,0,0,1,40,23.6a5.33,5.33,0,0,1,1.29-.55,2.83,2.83,0,0,1,1.15-.1,11.87,11.87,0,0,1,1.38.62l2.52,1.37L46,24.73l-2.12-1.21-.39-.68,0-.11a4.24,4.24,0,0,1,.87-1.39,5.66,5.66,0,0,1,1.37-1.1,4.62,4.62,0,0,1,2.32-.73h0a2.29,2.29,0,0,1,2,1.26l5.23,9a1.66,1.66,0,0,1-.1,1.91,4.81,4.81,0,0,1-1.67,1.45,7.06,7.06,0,0,1-1.33.58,3.74,3.74,0,0,1-1.2.21l-.09,0a26.21,26.21,0,0,1-2.49-1.18l-1.66-.91a3,3,0,0,0,.51.33l2.37,1.27.4.68-.06.12a5.53,5.53,0,0,1-2.18,2.27A5.13,5.13,0,0,1,45.41,37.3ZM42.19,23.42a3.23,3.23,0,0,0-.76.12,4.7,4.7,0,0,0-1.17.49,5.37,5.37,0,0,0-1.61,1.35c-.34.44-.44.78-.3,1l5.54,9.55a1.58,1.58,0,0,0,1.41.85,4.43,4.43,0,0,0,2.33-.72,5,5,0,0,0,1.92-1.94l-.19-.32-2.25-1.2c-.53-.29-.67-.45-.73-.56a.56.56,0,0,1,.17-.77l.13-.11,2,1.14a24.51,24.51,0,0,0,2.41,1.14,3.47,3.47,0,0,0,1-.18,5.86,5.86,0,0,0,1.23-.55,4.43,4.43,0,0,0,1.51-1.28A1.21,1.21,0,0,0,55,30.05l-5.23-9a1.81,1.81,0,0,0-1.61-1,4,4,0,0,0-2.08.66,5.09,5.09,0,0,0-1.25,1,3.74,3.74,0,0,0-.73,1.11l.21.36,2,1.15c.46.26.58.39.64.49a.51.51,0,0,1,.05.47.59.59,0,0,1-.26.3l-.12.07-.13-.06L43.6,24a13.49,13.49,0,0,0-1.28-.58Z"/><path class="cls-1" d="M62.64,19.07l3,7.13a3.92,3.92,0,0,1-1,1.21,6.31,6.31,0,0,1-1.78,1.08,3.72,3.72,0,0,1-2.11.3,1.8,1.8,0,0,1-1.52-1.14l-2.77-6.54-2.37,1a4.19,4.19,0,0,1-1.69-2,4,4,0,0,1-.36-1.58,2.89,2.89,0,0,1,.26-1.25l10.49-4.45a4.44,4.44,0,0,1,1,.9A4.92,4.92,0,0,1,64.55,15a2.66,2.66,0,0,1,.21,2,2,2,0,0,1-1.18,1.17l-3,1.26a.45.45,0,0,0,0,.16.28.28,0,0,0,.32.16,4.32,4.32,0,0,0,1-.34Z"/><path d="M61.34,29.09a3.55,3.55,0,0,1-.57-.05,2.07,2.07,0,0,1-1.71-1.3l-2.68-6.3-2.25.95L54,22.32a4.43,4.43,0,0,1-1.79-2.09,4.15,4.15,0,0,1-.38-1.68,3.24,3.24,0,0,1,.28-1.35l0-.09,10.71-4.53.11.08a4.63,4.63,0,0,1,1,.94,5.3,5.3,0,0,1,.78,1.27A3,3,0,0,1,65,17a2.27,2.27,0,0,1-1.32,1.31l-2.23.94.4-.16.93-.39,3.16,7.47,0,.1a4.43,4.43,0,0,1-1,1.29A6.57,6.57,0,0,1,63,28.72,4.44,4.44,0,0,1,61.34,29.09Zm-4.69-8.31,2.87,6.77a1.6,1.6,0,0,0,1.33,1,3.59,3.59,0,0,0,2-.29,6.16,6.16,0,0,0,1.72-1,4.28,4.28,0,0,0,.85-1l-2.88-6.8-.47.2A4.6,4.6,0,0,1,61,20a.52.52,0,0,1-.57-.31.75.75,0,0,1,0-.26v-.17l3.12-1.32a1.76,1.76,0,0,0,1.05-1,2.5,2.5,0,0,0-.21-1.8,4.65,4.65,0,0,0-.71-1.15,4.38,4.38,0,0,0-.79-.77L52.54,17.5a3,3,0,0,0-.19,1.06A3.75,3.75,0,0,0,52.69,20a4,4,0,0,0,1.49,1.79Z"/><path class="cls-1" d="M82.08,17.59a.4.4,0,0,0,.18-.1l-.22-1a6.44,6.44,0,0,1,1.87-1.26,11.54,11.54,0,0,1,2.5-.89,4.5,4.5,0,0,1,1.34,1.53,7.19,7.19,0,0,1,.87,2A3.65,3.65,0,0,1,88.1,19a6.89,6.89,0,0,1-1,1.19,8.11,8.11,0,0,1-3.86,2,7.16,7.16,0,0,1-5.65-.76,7.39,7.39,0,0,1-3.17-4.95,7.17,7.17,0,0,1,.94-5.9A6.39,6.39,0,0,1,77.24,8.7a8,8,0,0,1,2.55-1A7.38,7.38,0,0,1,84.52,8,4.05,4.05,0,0,1,87,10.84a2.6,2.6,0,0,1-.42,2.34,3.91,3.91,0,0,1-2.26,1.24,4,4,0,0,1-1.78,0,2.13,2.13,0,0,1-1.19-.56c-.13-.58-.22-1.05-.28-1.39H81l-.08,0a.35.35,0,0,0-.23.15.9.9,0,0,0-.08.42,10,10,0,0,0,.29,1.59C81.33,16.67,81.74,17.66,82.08,17.59Z"/><path d="M81.14,22.63a6.68,6.68,0,0,1-3.71-1.05,7.66,7.66,0,0,1-3.29-5.11,7.42,7.42,0,0,1,1-6.09,6.5,6.5,0,0,1,2-1.89,8.18,8.18,0,0,1,2.62-1.07,7.57,7.57,0,0,1,4.9.34,4.26,4.26,0,0,1,2.59,3,2.88,2.88,0,0,1-.46,2.56,4.5,4.5,0,0,1-4.3,1.28A2.26,2.26,0,0,1,81.13,14l0-.09c-.1-.43-.17-.79-.23-1.09a1.06,1.06,0,0,0,0,.23,10.29,10.29,0,0,0,.28,1.54,9.74,9.74,0,0,0,.82,2.64l-.17-.76.09-.1A6.79,6.79,0,0,1,83.8,15a11.86,11.86,0,0,1,2.56-.9l.1,0,.09.05A4.87,4.87,0,0,1,88,15.76a7.7,7.7,0,0,1,.9,2.07l0,.06,0,.06a3.65,3.65,0,0,1-.55,1.16,7.07,7.07,0,0,1-1.07,1.24,8.4,8.4,0,0,1-4,2A10.1,10.1,0,0,1,81.14,22.63Zm.68-14.95a8.73,8.73,0,0,0-2,.23,7.87,7.87,0,0,0-2.47,1,6.24,6.24,0,0,0-1.83,1.75,6.94,6.94,0,0,0-.91,5.7,7.25,7.25,0,0,0,3.06,4.8,7,7,0,0,0,5.46.73A7.85,7.85,0,0,0,86.9,20a6,6,0,0,0,1-1.14,3.94,3.94,0,0,0,.47-.95A7.12,7.12,0,0,0,87.53,16a4.43,4.43,0,0,0-1.17-1.39,11,11,0,0,0-2.34.84,6.57,6.57,0,0,0-1.7,1.12l.22,1-.1.1a.71.71,0,0,1-.31.16h0c-.45.1-.88-.4-1.5-3.16A9.36,9.36,0,0,1,80.34,13a1,1,0,0,1,.12-.54.57.57,0,0,1,.39-.26l.07,0a.3.3,0,0,1,.19,0l.17,0,0,.17c0,.32.14.76.26,1.32a2.08,2.08,0,0,0,1,.42,3.51,3.51,0,0,0,1.67,0A3.68,3.68,0,0,0,86.37,13a2.34,2.34,0,0,0,.36-2.13,3.76,3.76,0,0,0-2.31-2.68A6.14,6.14,0,0,0,81.82,7.68Z"/><path class="cls-1" d="M94.67,16a.54.54,0,0,0-.09.3c0,.21.24.37.65.48a5.86,5.86,0,0,0,1.48.14,6.13,6.13,0,0,0,.46,1.77,2.29,2.29,0,0,1-1.08.92,5.26,5.26,0,0,1-2.09.6,5.18,5.18,0,0,1-2.75-.44A2,2,0,0,1,90,18.1a1.71,1.71,0,0,1,0-.51L91.41,6.93a7.13,7.13,0,0,1,2-1.06,9.52,9.52,0,0,1,2.51-.54,7.43,7.43,0,0,1,3.28.35,3.12,3.12,0,0,1,2,1.94l3.41,10.13a4.4,4.4,0,0,1-3.59,1.81,4.63,4.63,0,0,1-2.16-.27A1.75,1.75,0,0,1,97.8,18.1l-.36-1.32a3.83,3.83,0,0,0,1.25-.36c.4-.2.59-.39.57-.56a.34.34,0,0,0-.17-.28,2.71,2.71,0,0,1-1,.54,4.42,4.42,0,0,1-1.1.25A3.71,3.71,0,0,1,94.67,16Zm2.17-3.42a.71.71,0,0,0,.31-.1c-.29-1.1-.47-1.75-.56-1.95s-.23-.3-.39-.28a.63.63,0,0,0-.26.08l.62,2.19A.38.38,0,0,0,96.84,12.55Z"/><path d="M93.41,20.45A5.08,5.08,0,0,1,91.14,20a2.22,2.22,0,0,1-1.41-1.84,2.14,2.14,0,0,1,0-.57L91.18,6.79l.08-.06a7.49,7.49,0,0,1,2.09-1.1,10.31,10.31,0,0,1,2.57-.55,7.77,7.77,0,0,1,3.39.37,3.36,3.36,0,0,1,2.19,2.09L105,17.78l-.07.11a4.68,4.68,0,0,1-3.78,1.92,4.93,4.93,0,0,1-2.27-.28,2,2,0,0,1-1.27-1.37l-.43-1.55h-.21l0,.21a5.89,5.89,0,0,0,.41,1.66l.09.11,0,.15a2.42,2.42,0,0,1-1.19,1,5.6,5.6,0,0,1-2.19.63C93.81,20.45,93.61,20.45,93.41,20.45ZM91.64,7.07,90.23,17.62a1.69,1.69,0,0,0,0,.45,1.72,1.72,0,0,0,1.13,1.44,4.82,4.82,0,0,0,2.62.42,5.14,5.14,0,0,0,2-.57,2.59,2.59,0,0,0,.92-.69,6.89,6.89,0,0,1-.39-1.53A5.24,5.24,0,0,1,95.17,17c-.53-.14-.81-.38-.83-.7a.72.72,0,0,1,.11-.45l.14-.22.21.14a3.56,3.56,0,0,0,2.18.37,4.37,4.37,0,0,0,1-.24,2.86,2.86,0,0,0,.9-.5l.14-.12.16.1a.6.6,0,0,1,.28.46c0,.39-.39.65-.71.81a4.25,4.25,0,0,1-1,.35L98,18a1.48,1.48,0,0,0,1,1,4.24,4.24,0,0,0,2,.25,4.31,4.31,0,0,0,3.34-1.6L101,7.7a2.89,2.89,0,0,0-1.89-1.79A7.44,7.44,0,0,0,96,5.57a10.37,10.37,0,0,0-2.45.53A7.47,7.47,0,0,0,91.64,7.07Zm5.14,5.73a.61.61,0,0,1-.39-.12l0,0-.69-2.45.18-.1a.88.88,0,0,1,.35-.11.62.62,0,0,1,.64.42c.09.23.28.88.57,2l0,.17-.13.1a1,1,0,0,1-.44.15Zm0-.5h.09c-.31-1.18-.44-1.58-.49-1.7s-.07-.12-.11-.13Z"/><path class="cls-1" d="M117.87,14.24l1.82,2a4.43,4.43,0,0,1-1.2,2.6,3.2,3.2,0,0,1-2.49.82,3.73,3.73,0,0,1-2-.64,4.27,4.27,0,0,1-1.57-2.32l-.35-1.1a7.91,7.91,0,0,1-1.16-.17.33.33,0,0,0-.1.24c0,.2.28.33.88.39l.56,1.61,0,.94a5.5,5.5,0,0,1-3.29.75,3.87,3.87,0,0,1-2.24-.67,2,2,0,0,1-.78-1.74l.44-10.46q0-.48.93-.9A9.12,9.12,0,0,1,109.63,5a14.86,14.86,0,0,1,2.9-.16,8.63,8.63,0,0,1,5.1,1.57,4.65,4.65,0,0,1,1.8,4.08,4,4,0,0,1-.94,2.49,4.3,4.3,0,0,1-2.16,1.37c0,.24.13.36.41.37A2,2,0,0,0,117.87,14.24Zm-5.58-2.75s.11,0,.25,0a.4.4,0,0,0,.33-.15,1,1,0,0,0,.13-.54l0-.39a1.43,1.43,0,0,0-.07-.58.34.34,0,0,0-.3-.18.73.73,0,0,0-.3,0,.92.92,0,0,1,0,.19Z"/><path d="M116.22,20H116a3.85,3.85,0,0,1-2.15-.69,4.1,4.1,0,0,1-1.42-1.78l.07.2,0,1.11-.11.07a5.78,5.78,0,0,1-3.43.79,4.2,4.2,0,0,1-2.38-.72,2.2,2.2,0,0,1-.88-2l.44-10.46c0-.43.37-.79,1.08-1.12a9.18,9.18,0,0,1,2.43-.66,15.37,15.37,0,0,1,3-.16,8.86,8.86,0,0,1,5.25,1.63,4.91,4.91,0,0,1,1.89,4.28,4.26,4.26,0,0,1-1,2.65,4.58,4.58,0,0,1-1.91,1.32,1.86,1.86,0,0,0,1-.41l.18-.13,2,2.29,0,.11a4.75,4.75,0,0,1-1.27,2.74A3.4,3.4,0,0,1,116.22,20Zm-5.4-4.76.13,0a8.9,8.9,0,0,0,1.13.16h.17l.4,1.26a4,4,0,0,0,1.47,2.19,3.48,3.48,0,0,0,1.89.6,3,3,0,0,0,2.31-.75,4.18,4.18,0,0,0,1.1-2.34l-1.6-1.78a2,2,0,0,1-1.09.38.66.66,0,0,1-.51-.2.56.56,0,0,1-.14-.43v-.18l.17-.05a4,4,0,0,0,2-1.29,3.76,3.76,0,0,0,.88-2.34,4.38,4.38,0,0,0-1.7-3.87,8.45,8.45,0,0,0-5-1.52,14.39,14.39,0,0,0-2.85.16,8.48,8.48,0,0,0-2.3.62c-.5.22-.78.47-.79.68L106.14,17a1.7,1.7,0,0,0,.68,1.53,3.64,3.64,0,0,0,2.1.62,5.3,5.3,0,0,0,3-.64l0-.76-.5-1.42c-.36,0-1-.17-.94-.63a.56.56,0,0,1,.18-.41Zm1,.68.12.32-.11-.32Zm.7-4.08h0a.69.69,0,0,1-.4-.1l-.1-.08.08-1.7V9.77l0-.18.16-.08a.79.79,0,0,1,.42-.06.57.57,0,0,1,.51.32,1.5,1.5,0,0,1,.1.7l0,.39a1.14,1.14,0,0,1-.18.67A.6.6,0,0,1,112.56,11.79Zm0-.5h0a.13.13,0,0,0,.11,0,.81.81,0,0,0,.08-.4l0-.39a1,1,0,0,0,0-.46s0,0-.08,0h0Z"/><path class="cls-1" d="M127.85,6.62l6.28,1a4.52,4.52,0,0,1,.28,1.22,4.58,4.58,0,0,1,0,1.13,2.68,2.68,0,0,1-.7,1.58,1.44,1.44,0,0,1-1.29.35L128,11.22c-.27-.05-.42,0-.46.25v.08s0,.08,0,.09l5.2.87a3.77,3.77,0,0,1,.2.9,4.63,4.63,0,0,1,0,1,3.67,3.67,0,0,1-.81,1.94L129.72,16a12.94,12.94,0,0,0-2.26-.24,2.35,2.35,0,0,0-.76.09.3.3,0,0,0-.19.22.28.28,0,0,0,.12.27,7,7,0,0,1,1.22-.07c.56,0,1.15.12,1.79.22l3.05.51a3.8,3.8,0,0,1,.29,2.36,5.66,5.66,0,0,1-.41,1.38,2.81,2.81,0,0,1-.74,1l-8.14-1.35a3.45,3.45,0,0,1-2.06-1,2.48,2.48,0,0,1-.55-2.2l1.71-10.34c.06-.35.5-.53,1.33-.56A21.19,21.19,0,0,1,127.85,6.62Z"/><path d="M131.9,22l-8.25-1.37a3.61,3.61,0,0,1-2.21-1.09,2.73,2.73,0,0,1-.61-2.4l1.72-10.34c.12-.72,1.2-.76,1.56-.77a20.78,20.78,0,0,1,3.78.38l6.42,1.06.05.13a4.25,4.25,0,0,1,.29,1.29,4.63,4.63,0,0,1,0,1.19,2.94,2.94,0,0,1-.78,1.72,1.64,1.64,0,0,1-1.37.44l.44.07.06.14a3.91,3.91,0,0,1,.21,1,5.28,5.28,0,0,1,0,1.08,3.93,3.93,0,0,1-.88,2.07l-.09.1.69.11.06.12a4.12,4.12,0,0,1,.31,2.51,5.42,5.42,0,0,1-.44,1.45,2.85,2.85,0,0,1-.8,1.08ZM124.35,6.5h-.23c-.64,0-1.05.15-1.08.35l-1.72,10.34a2.27,2.27,0,0,0,.49,2,3.23,3.23,0,0,0,1.92.93l8,1.33a2.54,2.54,0,0,0,.58-.83,5.19,5.19,0,0,0,.4-1.32,3.67,3.67,0,0,0-.22-2.1l-2.92-.48c-.63-.11-1.22-.18-1.76-.22a6.57,6.57,0,0,0-1.18.07h-.11l-.08-.07a.5.5,0,0,1-.2-.5.55.55,0,0,1,.32-.41,2.6,2.6,0,0,1,.86-.11,12,12,0,0,1,2.31.25l2.22.36a3.71,3.71,0,0,0,.67-1.71,4.78,4.78,0,0,0,0-1,3.93,3.93,0,0,0-.14-.7l-5.15-.86-.06-.08a.35.35,0,0,1,0-.28v-.08c0-.14.14-.56.75-.46l4.38.73a1.24,1.24,0,0,0,1.08-.29,2.54,2.54,0,0,0,.63-1.44,4.63,4.63,0,0,0,0-1.07,3.79,3.79,0,0,0-.22-1l-6.13-1A22.65,22.65,0,0,0,124.35,6.5ZM127.57,16h.29l1.13.12a8.8,8.8,0,0,0-1.52-.13,3.87,3.87,0,0,0-.52,0C127.15,16,127.36,16,127.57,16Z"/><path class="cls-1" d="M141.87,24.47a2.57,2.57,0,0,1-1.58-1.23,2.64,2.64,0,0,1,0-2.07L143.81,11a3.93,3.93,0,0,1,1.6-.26,5.5,5.5,0,0,1,1.74.31,3.77,3.77,0,0,1,1.92,1.36,2.44,2.44,0,0,1,.27,2.29l-2,5.7a3.52,3.52,0,0,0-1.26-.07c-.44.06-.69.18-.76.37a.39.39,0,0,0,.1.38,5,5,0,0,1,3.36.18l2.47.85a5.24,5.24,0,0,1-.16,2.71,5.43,5.43,0,0,1-.7,1.31,3.19,3.19,0,0,1-1,1Z"/><path d="M149.47,27.35l-7.68-2.64a2.85,2.85,0,0,1-1.72-1.36,2.84,2.84,0,0,1,0-2.26l3.54-10.31.11,0a4.38,4.38,0,0,1,1.69-.27,6,6,0,0,1,1.82.32,4.1,4.1,0,0,1,2,1.45,2.71,2.71,0,0,1,.31,2.52l-2,5.9a7.93,7.93,0,0,1,1.35.35l2.61.9,0,.14a5.48,5.48,0,0,1-.18,2.83,5.73,5.73,0,0,1-.72,1.38,3.48,3.48,0,0,1-1.07,1ZM144,11.17l-3.47,10.08a2.39,2.39,0,0,0,0,1.88A2.39,2.39,0,0,0,142,24.24l7.47,2.56a3.06,3.06,0,0,0,.81-.83,5.25,5.25,0,0,0,.66-1.25,5,5,0,0,0,.18-2.44l-2.33-.8a4.73,4.73,0,0,0-3.19-.19l-.17.06-.12-.14a.61.61,0,0,1-.13-.61c.1-.29.41-.47,1-.54a3.56,3.56,0,0,1,1.13,0l1.89-5.5a2.18,2.18,0,0,0-.25-2.06,3.52,3.52,0,0,0-1.79-1.26,5.4,5.4,0,0,0-1.67-.3A3.66,3.66,0,0,0,144,11.17Zm2.57,9.36-.43,0c-.37.05-.49.13-.53.18a4.21,4.21,0,0,1,1.79-.1l-.09,0A3,3,0,0,0,146.58,20.53Z"/><path class="cls-1" d="M157.12,30.94a7.94,7.94,0,0,1-2.89-2.3,6.32,6.32,0,0,1-1.3-3.38,8,8,0,0,1,.92-4.19,7.36,7.36,0,0,1,4.43-4.15,7.07,7.07,0,0,1,5.28.56,6.83,6.83,0,0,1,3.83,4.14,7.55,7.55,0,0,1-.61,5.71,7.46,7.46,0,0,1-4.35,4.21A7,7,0,0,1,157.12,30.94ZM161,24a7.45,7.45,0,0,0,.57-1.41c.06-.27,0-.45-.15-.53a.41.41,0,0,0-.31,0c-.05.13-.1.3-.17.51a13,13,0,0,1-.58,1.29l-.31.64c-.22.45-.39.77-.5,1s-.23.36-.31.5l-.13.23a.45.45,0,0,0,.22.23c.15.08.32,0,.5-.22a6.91,6.91,0,0,0,.75-1.32Z"/><path d="M160.61,32.07a8.28,8.28,0,0,1-3.6-.9h0a8.45,8.45,0,0,1-3-2.37,6.63,6.63,0,0,1-1.34-3.52,8.21,8.21,0,0,1,.94-4.32,7.65,7.65,0,0,1,4.58-4.28,7.3,7.3,0,0,1,5.46.58,7.11,7.11,0,0,1,4,4.28,7.85,7.85,0,0,1-.63,5.9,7.71,7.71,0,0,1-4.49,4.34A6.13,6.13,0,0,1,160.61,32.07Zm-3.39-1.35a6.92,6.92,0,0,0,5.14.59,7.29,7.29,0,0,0,4.19-4.09,7.37,7.37,0,0,0,.6-5.53,6.63,6.63,0,0,0-3.7-4,6.83,6.83,0,0,0-5.09-.55,7.15,7.15,0,0,0-4.28,4,7.74,7.74,0,0,0-.9,4.06,6.11,6.11,0,0,0,1.25,3.25,7.79,7.79,0,0,0,2.79,2.23Zm2.21-4.07a.48.48,0,0,1-.23-.06.65.65,0,0,1-.34-.35l-.06-.12.51-.84c.12-.19.28-.51.5-1l.31-.64c.38-.79.51-1.12.56-1.26s.13-.38.17-.51l.05-.13.13,0a.72.72,0,0,1,.48,0c.16.07.4.28.29.81a8.31,8.31,0,0,1-.59,1.46l-.42.86a7.45,7.45,0,0,1-.78,1.37A.78.78,0,0,1,159.43,26.65Zm-.05-.52h0c.05,0,.14-.06.21-.14a7.28,7.28,0,0,0,.72-1.28l.42-.86a7.63,7.63,0,0,0,.55-1.35c0-.1,0-.23,0-.25h0l-.11.34c-.08.22-.28.66-.59,1.32l-.31.64c-.22.45-.4.79-.52,1Z"/><path class="cls-1" d="M176.56,27.62l-4.13,5.66a.86.86,0,0,0,.18.16c.2.13.42.05.64-.24l4.8-6.45a3.29,3.29,0,0,1,1.34.24,7.33,7.33,0,0,1,1.43.7,3.59,3.59,0,0,1,1.67,2,2.54,2.54,0,0,1-.39,2.09A17,17,0,0,1,180,34c-1.16,1.11-2.76,2.59-4.78,4.44a3,3,0,0,1-2.52.76A7.44,7.44,0,0,1,169.87,38a9.56,9.56,0,0,1-1.73-1.45,4.61,4.61,0,0,1-1-1.57,35.17,35.17,0,0,1,1.42-5.37,53.49,53.49,0,0,1,2.62-6.41,3.66,3.66,0,0,1,3.59.52Q177.21,25.31,176.56,27.62Z"/><path d="M173.18,39.5a3,3,0,0,1-.51,0,7.67,7.67,0,0,1-2.93-1.25A10.19,10.19,0,0,1,168,36.72a4.82,4.82,0,0,1-1-1.66l0-.06v-.06a33.72,33.72,0,0,1,1.43-5.41,52.31,52.31,0,0,1,2.62-6.44l0-.09.09,0a4,4,0,0,1,3.83.55c1.72,1.12,2.36,2.53,1.9,4.17l0,.08-4,5.48s.13,0,.28-.19l4.86-6.54h.1a3.38,3.38,0,0,1,1.46.26,6.8,6.8,0,0,1,1.48.72,3.82,3.82,0,0,1,1.78,2.15,2.78,2.78,0,0,1-.42,2.29,17,17,0,0,1-2.14,2.27c-1.15,1.1-2.76,2.59-4.78,4.44A3.24,3.24,0,0,1,173.18,39.5ZM167.39,35a4.46,4.46,0,0,0,.93,1.43A9.44,9.44,0,0,0,170,37.79,7.28,7.28,0,0,0,172.74,39a2.73,2.73,0,0,0,2.31-.71c2-1.84,3.63-3.33,4.77-4.43a19.81,19.81,0,0,0,2.08-2.18,2.29,2.29,0,0,0,.34-1.9,3.32,3.32,0,0,0-1.56-1.85,6.57,6.57,0,0,0-1.38-.67,3.21,3.21,0,0,0-1.12-.24l-4.73,6.36c-.44.56-.83.39-1,.3a1.9,1.9,0,0,1-.22-.2l-.14-.15,4.22-5.79c.37-1.42-.18-2.59-1.7-3.58a3.45,3.45,0,0,0-3.28-.54,53.94,53.94,0,0,0-2.56,6.3A36,36,0,0,0,167.39,35Z"/><path class="cls-1" d="M189.57,34.66l4.86,4.09a3.94,3.94,0,0,1-.38,1.19,4.8,4.8,0,0,1-.6,1,2.77,2.77,0,0,1-1.41,1,1.43,1.43,0,0,1-1.29-.36l-3.4-2.86c-.21-.18-.38-.18-.52,0l-.06.07a.12.12,0,0,0,0,.08l4,3.39a3.34,3.34,0,0,1-.29.88,4.75,4.75,0,0,1-.54.86,3.8,3.8,0,0,1-1.7,1.25l-1.83-1.54a13.44,13.44,0,0,0-1.81-1.37,3.3,3.3,0,0,0-.71-.31.33.33,0,0,0-.27.1.27.27,0,0,0,0,.29,6.31,6.31,0,0,1,1.09.57,17.71,17.71,0,0,1,1.42,1.1l2.37,2a3.81,3.81,0,0,1-.95,2.18,5.49,5.49,0,0,1-1.07,1,2.64,2.64,0,0,1-1.14.48L179,44.34a3.37,3.37,0,0,1-1.25-1.92,2.46,2.46,0,0,1,.64-2.17l6.75-8c.23-.27.7-.21,1.43.19A20.33,20.33,0,0,1,189.57,34.66Z"/><path d="M185.22,49.92l-6.4-5.39a3.65,3.65,0,0,1-1.34-2.06,2.73,2.73,0,0,1,.7-2.38l6.75-8c.47-.57,1.42,0,1.74.13a20.9,20.9,0,0,1,3.06,2.26l5,4.18,0,.14a4.41,4.41,0,0,1-.4,1.26,5,5,0,0,1-.64,1,3,3,0,0,1-1.55,1.08,1.66,1.66,0,0,1-1.4-.32l.34.29,0,.14a4,4,0,0,1-.31.94,5.31,5.31,0,0,1-.58.91,4,4,0,0,1-1.82,1.33l-.12,0,.53.45v.13a4.1,4.1,0,0,1-1,2.31,5.65,5.65,0,0,1-1.12,1,3,3,0,0,1-1.24.53Zm.3-17.6a.29.29,0,0,0-.21.08l-6.75,8a2.24,2.24,0,0,0-.59,2,3.23,3.23,0,0,0,1.17,1.78l6.22,5.24a2.54,2.54,0,0,0,.93-.42,4.94,4.94,0,0,0,1-.93,3.66,3.66,0,0,0,.88-1.91l-2.27-1.91a17.11,17.11,0,0,0-1.4-1.08,6.09,6.09,0,0,0-1-.55l-.1,0,0-.1a.5.5,0,0,1,.08-.54.58.58,0,0,1,.49-.19,2.77,2.77,0,0,1,.79.34,13.85,13.85,0,0,1,1.87,1.4l1.72,1.45a3.68,3.68,0,0,0,1.44-1.14,4.43,4.43,0,0,0,.52-.8,3.92,3.92,0,0,0,.24-.67l-4-3.36v-.11a.39.39,0,0,1,.1-.26l.06-.07a.51.51,0,0,1,.37-.2.68.68,0,0,1,.5.19l3.4,2.86a1.2,1.2,0,0,0,1.08.3,2.48,2.48,0,0,0,1.27-.92,4.37,4.37,0,0,0,.57-.9,3.9,3.9,0,0,0,.33-1l-4.75-4a21.07,21.07,0,0,0-3-2.2A2.1,2.1,0,0,0,185.52,32.32Zm-1.53,10a6.41,6.41,0,0,1,.81.45c.29.21.6.43.91.68a11.27,11.27,0,0,0-1.24-.9Z"/><path class="cls-1" d="M198.74,56l-.14,2.72a4.43,4.43,0,0,1-2.68,1,3.27,3.27,0,0,1-2.34-1.17,3.68,3.68,0,0,1-1-1.89,4.25,4.25,0,0,1,.51-2.75l.52-1a11.49,11.49,0,0,1-.7-.94.36.36,0,0,0-.24.1c-.14.13,0,.43.35.89l-.74,1.54-.68.64a5.51,5.51,0,0,1-2.87-1.78,3.87,3.87,0,0,1-1.11-2.06,1.92,1.92,0,0,1,.66-1.77L196,42.44c.24-.22.67-.22,1.3,0a8.84,8.84,0,0,1,2.13,1.21,15.35,15.35,0,0,1,2.17,1.93,8.58,8.58,0,0,1,2.52,4.71,4.67,4.67,0,0,1-1.6,4.16,4,4,0,0,1-2.42,1.11,4.27,4.27,0,0,1-2.5-.55c-.17.16-.16.35,0,.55A2,2,0,0,0,198.74,56Zm-2-5.88a.54.54,0,0,0,.15.21.37.37,0,0,0,.34.12,1,1,0,0,0,.47-.29l.29-.26a1.31,1.31,0,0,0,.35-.46.33.33,0,0,0-.08-.34A.75.75,0,0,0,198,49l-.13.14Z"/><path d="M196,60h-.05a3.54,3.54,0,0,1-2.53-1.25,4,4,0,0,1-1-2,4.17,4.17,0,0,1,.25-2.26l-.13.22-.78.72-.13,0a5.81,5.81,0,0,1-3-1.86,4.11,4.11,0,0,1-1.18-2.19,2.2,2.2,0,0,1,.74-2l7.68-7.12c.31-.29.82-.3,1.55,0a9.44,9.44,0,0,1,2.2,1.25,14.68,14.68,0,0,1,2.2,2,8.94,8.94,0,0,1,2.59,4.85,4.91,4.91,0,0,1-1.68,4.37,4.23,4.23,0,0,1-2.57,1.18,4.6,4.6,0,0,1-2.29-.4,1.92,1.92,0,0,0,1,.37l.22,0-.15,3.07-.1.07A4.81,4.81,0,0,1,196,60Zm-3.05-8.27h.15l.07.11a9.29,9.29,0,0,0,.68.91l.12.13-.6,1.18a4,4,0,0,0-.5,2.59,3.46,3.46,0,0,0,.92,1.76,3,3,0,0,0,2.17,1.09,4.06,4.06,0,0,0,2.43-.89l.12-2.39a2,2,0,0,1-1-.5.58.58,0,0,1,0-.9l.13-.13.16.09a4.12,4.12,0,0,0,2.36.52,3.8,3.8,0,0,0,2.27-1,4.39,4.39,0,0,0,1.52-4,8.42,8.42,0,0,0-2.45-4.57,15,15,0,0,0-2.14-1.9,8.71,8.71,0,0,0-2.07-1.18c-.51-.18-.88-.21-1-.06l-7.68,7.12a1.71,1.71,0,0,0-.59,1.56,3.74,3.74,0,0,0,1.05,1.92,5.45,5.45,0,0,0,2.61,1.68l.56-.52.65-1.35c-.23-.29-.56-.8-.23-1.11A.58.58,0,0,1,192.92,51.75Zm.41,1.22-.15.31.16-.31Zm3.8-2.22a.58.58,0,0,1-.45-.21c-.15-.16-.21-.25-.22-.36v-.12l1.25-1.15.09-.1.11-.15.17.06a.75.75,0,0,1,.34.25.57.57,0,0,1,.14.59,1.45,1.45,0,0,1-.42.56l-.29.27a1.27,1.27,0,0,1-.6.35ZM197,50.2h0a.11.11,0,0,0,.12,0s.14,0,.34-.22l.29-.27a1.11,1.11,0,0,0,.29-.35s0,0,0-.09l0,0Z"/><path class="cls-1" d="M204.74,62a2.38,2.38,0,0,0-.41-1,.37.37,0,0,0-.59-.11l0,0a3.22,3.22,0,0,1,.48,2.31,3.09,3.09,0,0,1-1.24,2,3,3,0,0,1-2.33.59,3.18,3.18,0,0,1-1.5-5.68,3.23,3.23,0,0,1,1.57-.63,3.33,3.33,0,0,1,1.65.24,10.81,10.81,0,0,1,1.46-2.43A11.77,11.77,0,0,1,206,55.19L208.89,53a3.79,3.79,0,0,1,1.15.63,5.42,5.42,0,0,1,1.07,1.07,3,3,0,0,1,.78,2.41,4.22,4.22,0,0,1-1.79,2.27l-.57.43A12.43,12.43,0,0,1,204.74,62Z"/><path d="M201.1,66.16a3.12,3.12,0,0,1-.52,0,3.34,3.34,0,0,1-2.26-1.34,3.41,3.41,0,0,1,2.34-5.46,3.47,3.47,0,0,1,1.54.16,12.13,12.13,0,0,1,1.4-2.27A12.57,12.57,0,0,1,205.87,55l3-2.25.12,0a4.19,4.19,0,0,1,1.23.67,5.66,5.66,0,0,1,1.12,1.12,3.28,3.28,0,0,1,.83,2.61,4.46,4.46,0,0,1-1.89,2.42l-.57.43a12.53,12.53,0,0,1-4.88,2.2l-.24.06-.06-.24a2.28,2.28,0,0,0-.37-.87l0,0a3.38,3.38,0,0,1,.32,2.15,3.32,3.32,0,0,1-1.33,2.18A3.22,3.22,0,0,1,201.1,66.16Zm0-6.37-.35,0a2.88,2.88,0,0,0-1.44.58,2.93,2.93,0,0,0-.56,4.09,2.91,2.91,0,0,0,1.94,1.15,2.77,2.77,0,0,0,2.15-.55,2.81,2.81,0,0,0,1.14-1.87,2.88,2.88,0,0,0-.44-2.12l-.13-.2.18-.14a.64.64,0,0,1,1,.13,2.55,2.55,0,0,1,.39.81,12,12,0,0,0,4.46-2.06l.57-.43a4.1,4.1,0,0,0,1.7-2.12,2.86,2.86,0,0,0-.73-2.21,5.53,5.53,0,0,0-1-1,4,4,0,0,0-1-.55l-2.76,2.09A11.24,11.24,0,0,0,204,57.52a10.37,10.37,0,0,0-1.43,2.38l-.1.23-.23-.1A3,3,0,0,0,201.06,59.79Z"/><path class="cls-1" d="M66.39,193.35c0,.88,4.17,1.8,9.4,2s9.51-.29,9.55-1.17-4.17-1.8-9.4-2S66.43,192.46,66.39,193.35Z"/><path d="M78.17,195.68c-.87,0-1.69,0-2.39-.05-3.36-.15-9.71-.83-9.64-2.29,0-.38.35-.92,3-1.25a42.34,42.34,0,0,1,6.76-.17c3.36.15,9.71.83,9.64,2.3C85.54,195.38,81.51,195.68,78.17,195.68Zm-4.7-3.32a34.69,34.69,0,0,0-4.22.23c-2.11.26-2.61.65-2.61.77,0,.46,3.19,1.5,9.16,1.77s9.27-.48,9.29-.94-3.19-1.5-9.16-1.77Q74.67,192.36,73.47,192.36Z"/><path d="M85.57,146.66a3.79,3.79,0,0,0-1.32-5,3.72,3.72,0,0,0-5,1.32c-4.7,9.82-8.34,20.45-9.1,31.36a82,82,0,0,0,.35,16.58,159.15,159.15,0,0,0,3.29,17.18c1.12,4.6,8.22,2.65,7.1-2a157.66,157.66,0,0,1-3.07-15.52A76.93,76.93,0,0,1,77.43,175C78.07,165.18,81.35,155.47,85.57,146.66Z"/><path d="M77,210.93a3.48,3.48,0,0,1-3.53-2.81,161.93,161.93,0,0,1-3.3-17.21,82.17,82.17,0,0,1-.35-16.63c.68-9.76,3.67-20,9.13-31.45a3.41,3.41,0,0,1,2.13-1.75,4.1,4.1,0,0,1,3.25.33,4,4,0,0,1,1.42,5.35C81,156.83,78.24,166.33,77.68,175A75.39,75.39,0,0,0,78,190.55,153.78,153.78,0,0,0,81.09,206a3.87,3.87,0,0,1-3,4.77A4.4,4.4,0,0,1,77,210.93Zm5.35-69.53a4,4,0,0,0-1.13.16,2.9,2.9,0,0,0-1.82,1.49C74,154.4,71,164.62,70.36,174.32a81.19,81.19,0,0,0,.35,16.53A161.1,161.1,0,0,0,74,208a3.08,3.08,0,0,0,4,2.32,3.38,3.38,0,0,0,2.65-4.16,158.23,158.23,0,0,1-3.07-15.54A76.37,76.37,0,0,1,77.18,175c.57-8.72,3.31-18.27,8.16-28.4h0a3.55,3.55,0,0,0-1.22-4.71A3.48,3.48,0,0,0,82.39,141.4Z"/><path class="cls-1" d="M85.34,194.21,85,212.77H53a12,12,0,0,1,2-7.11c3.69-5.14,11.27-3.87,11.27-3.87v-.17l.1-8.38h0a.36.36,0,0,0,0,.1c0,.88,4.17,1.8,9.4,2S85.3,195.09,85.34,194.21Z"/><path d="M52.77,213v-.25a12.22,12.22,0,0,1,2-7.25c3.33-4.64,9.79-4.18,11.23-4l.1-8.52h.67l-.16.37s0,0,.06.08c.6.65,4.16,1.46,9.11,1.68,6,.27,9.27-.48,9.29-.94l.5,0L85.21,213Zm11.46-11.11c-2.46,0-6.63.55-9,3.9a11.64,11.64,0,0,0-1.93,6.71H84.72l.36-17.68c-1.59.87-6.49.92-9.3.79-4.35-.19-8-.84-9.17-1.61l-.1,8.08-.29,0A12.58,12.58,0,0,0,64.23,201.92Z"/><path d="M70.21,203.3a11.29,11.29,0,0,1-1.14-.26c-.37-.1-.71-.24-1.07-.32s-.69-.24-1-.37a8.7,8.7,0,0,1-1.09-.45v-.05a8.45,8.45,0,0,1,2.28.39,9.56,9.56,0,0,1,2.08,1Z"/><path d="M71,201.84a8.8,8.8,0,0,1-1.24,0c-.4,0-.79,0-1.18,0s-.78,0-1.17-.07a9.42,9.42,0,0,1-1.24-.14v0a9.43,9.43,0,0,1,4.86.17Z"/><path d="M66.61,212.12a4.63,4.63,0,0,1,0,.65H53a12,12,0,0,1,2-7.11,4.34,4.34,0,0,1,1.45,1.56,6.49,6.49,0,0,1,3-1.7A2.48,2.48,0,0,1,62.21,207c.1.29.14.65.39.84a1.43,1.43,0,0,0,.71.16C65.26,208.1,66.62,210.17,66.61,212.12Z"/><path d="M52.77,213v-.25a12.22,12.22,0,0,1,2-7.25l.14-.2.2.13a4.77,4.77,0,0,1,1.38,1.38,6.22,6.22,0,0,1,2.84-1.55,2.72,2.72,0,0,1,3.1,1.58l.06.21a1.06,1.06,0,0,0,.24.51,1,1,0,0,0,.49.1h.09c2.12.17,3.54,2.42,3.53,4.42a5.07,5.07,0,0,1,0,.68l0,.22Zm2.29-7a11.83,11.83,0,0,0-1.79,6.51H66.35c0-.13,0-.27,0-.4h0c0-1.78-1.22-3.78-3.07-3.92h-.08a1.34,1.34,0,0,1-.76-.2,1.43,1.43,0,0,1-.42-.78c0-.06,0-.12-.05-.19a2.25,2.25,0,0,0-2.54-1.24,6.21,6.21,0,0,0-2.83,1.64l-.24.2-.15-.27A4,4,0,0,0,55.06,206Z"/><path class="cls-1" d="M125.21,193.35c0,.88-4.17,1.8-9.41,2s-9.5-.29-9.54-1.17,4.17-1.8,9.4-2S125.17,192.46,125.21,193.35Z"/><path d="M113.34,195.69a36,36,0,0,1-4.29-.23c-2.69-.33-3-.87-3-1.24s.26-.95,2.92-1.52a48.11,48.11,0,0,1,13.48-.61c2.7.33,3,.87,3,1.25.06,1.46-6.28,2.14-9.64,2.29C115,195.67,114.14,195.69,113.34,195.69Zm4.78-3.33c-.79,0-1.61,0-2.45.06a41.8,41.8,0,0,0-6.64.77c-2.08.45-2.53.89-2.52,1s.49.52,2.6.78a41.47,41.47,0,0,0,6.68.16c6-.27,9.19-1.31,9.17-1.77,0-.12-.5-.51-2.61-.77A34.86,34.86,0,0,0,118.12,192.36Z"/><path d="M106,146.66a3.79,3.79,0,0,1,1.32-5,3.71,3.71,0,0,1,5,1.32c4.7,9.82,8.34,20.45,9.11,31.36a82,82,0,0,1-.35,16.58,164.17,164.17,0,0,1-3.29,17.18c-1.12,4.6-8.22,2.65-7.1-2a157.66,157.66,0,0,0,3.07-15.52,77.66,77.66,0,0,0,.35-15.62C113.53,165.18,110.25,155.47,106,146.66Z"/><path d="M114.55,210.93a4.31,4.31,0,0,1-1-.12,3.87,3.87,0,0,1-3-4.77,154.87,154.87,0,0,0,3.06-15.49,76.81,76.81,0,0,0,.35-15.57c-.57-8.65-3.3-18.15-8.12-28.22h0a4,4,0,0,1,1.42-5.35,4.13,4.13,0,0,1,3.26-.33,3.43,3.43,0,0,1,2.13,1.75c5.46,11.41,8.44,21.69,9.13,31.45a82.17,82.17,0,0,1-.35,16.63,161.45,161.45,0,0,1-3.3,17.21A3.49,3.49,0,0,1,114.55,210.93Zm-5.34-69.53a3.45,3.45,0,0,0-1.73.44,3.55,3.55,0,0,0-1.23,4.71h0c4.85,10.13,7.6,19.68,8.17,28.4a76.31,76.31,0,0,1-.36,15.67A152.54,152.54,0,0,1,111,206.16a3.38,3.38,0,0,0,2.66,4.16A3.07,3.07,0,0,0,117.6,208a160.36,160.36,0,0,0,3.29-17.15,81.19,81.19,0,0,0,.35-16.53c-.68-9.7-3.65-19.92-9.08-31.27a3,3,0,0,0-1.83-1.49A3.84,3.84,0,0,0,109.21,141.4Z"/><path class="cls-1" d="M106.26,194.21l.38,18.56h31.94a12,12,0,0,0-2-7.11c-3.69-5.14-11.27-3.87-11.27-3.87v-.17l-.1-8.38h0a.19.19,0,0,1,0,.1c0,.88-4.17,1.8-9.41,2S106.3,195.09,106.26,194.21Z"/><path d="M138.83,213H106.39L106,194.21l.5,0c0,.46,3.31,1.21,9.28.94,4.95-.22,8.52-1,9.11-1.68a.21.21,0,0,0,.06-.09l-.2-.37h.67l0,.25.1,8.27c1.43-.17,7.9-.63,11.23,4a12.37,12.37,0,0,1,2,7.25Zm-32-.51h31.44a11.64,11.64,0,0,0-1.92-6.71c-3.56-5-11-3.78-11-3.77l-.28,0v-.47L125,194c-1.21.77-4.83,1.42-9.18,1.61-2.8.13-7.7.08-9.29-.79Z"/><path d="M121.35,203.26a3.27,3.27,0,0,1,.88-.86,6.05,6.05,0,0,1,1.08-.54,5.47,5.47,0,0,1,1.2-.2,3.16,3.16,0,0,1,1.21.19v.05a9.47,9.47,0,0,0-4.34,1.4Z"/><path d="M120.56,201.79a3.45,3.45,0,0,1,1.14-.59A6.79,6.79,0,0,1,123,201a6.67,6.67,0,0,1,1.27.13,3.44,3.44,0,0,1,1.18.51v0a10.52,10.52,0,0,0-4.83.17Z"/><path d="M125,212.12c0,.22,0,.44,0,.65h13.56a12,12,0,0,0-2-7.11,4.43,4.43,0,0,0-1.45,1.56,6.43,6.43,0,0,0-3-1.7,2.49,2.49,0,0,0-2.82,1.42c-.1.29-.14.65-.39.84a1.38,1.38,0,0,1-.71.16C126.34,208.1,125,210.17,125,212.12Z"/><path d="M138.83,213h-14l0-.22c0-.22,0-.45,0-.68h0c0-2,1.41-4.25,3.53-4.42h.1a.85.85,0,0,0,.48-.11.9.9,0,0,0,.24-.5l.06-.21a2.73,2.73,0,0,1,3.11-1.58,6.22,6.22,0,0,1,2.84,1.55,4.65,4.65,0,0,1,1.38-1.38l.2-.13.14.2a12.37,12.37,0,0,1,2,7.25Zm-13.58-.51h13.07a11.74,11.74,0,0,0-1.78-6.51,4,4,0,0,0-1.17,1.33l-.15.27-.23-.2a6.26,6.26,0,0,0-2.83-1.64,2.25,2.25,0,0,0-2.54,1.24l-.06.19a1.26,1.26,0,0,1-.42.77,1.24,1.24,0,0,1-.75.21h-.09c-1.84.14-3.07,2.14-3.07,3.92h0C125.23,212.25,125.24,212.39,125.25,212.52Z"/><path class="cls-2" d="M165.93,69l-3.08-1.76c7.2-9.61,12.86-16.5,12.86-16.5a53.31,53.31,0,0,0-12.38,6.95L159.4,55l1.89,4.18A137.36,137.36,0,0,0,150,69l-3.63-1.4,2.16,2.82c-3.67,3.58-7.28,7.38-10.75,11.21l-3.1-1.19,1.92,2.51c-5,5.65-9.74,11.32-13.77,16.38l-2.28-.87,1.46,1.91c-7.79,9.85-12.9,17.18-12.9,17.18l24,3.16c-.18-5.71,4.31-15.16,10.43-25.29L146.48,94l-2-.24c2.18-3.53,4.53-7.12,6.93-10.64l4-.13-2.81-1.6c3-4.31,6-8.48,8.81-12.29Z"/><path d="M133.38,121l-24.69-3.24.24-.34c0-.07,5.14-7.37,12.78-17.05l-1.88-2.45L122.77,99c4.57-5.74,9.12-11.15,13.53-16.1l-2.34-3,3.77,1.45c3.61-4,7.13-7.67,10.48-11L145.65,67,150,68.67a138.78,138.78,0,0,1,11-9.54l-2.17-4.81,4.51,3.07a52.68,52.68,0,0,1,12.31-6.88l.86-.32-.58.71c-.06.07-5.66,6.89-12.69,16.27l3.6,2-5.25.17c-3.06,4.12-5.95,8.15-8.58,12l3.35,1.91-4.76.15c-2.45,3.6-4.68,7-6.65,10.2l2.46.3-3.66,1.67c-7,11.64-10.52,20.08-10.36,25.09Zm-23.8-3.63,23.28,3.06c0-5.14,3.5-13.6,10.48-25.13l0-.07,2.19-1L144.1,94l.2-.33c2-3.31,4.37-6.89,6.94-10.65l.07-.11,3.24-.1-2.28-1.3.15-.23c2.7-3.91,5.67-8,8.82-12.29l.07-.1,3.73-.11-2.56-1.46.17-.23c5.79-7.73,10.64-13.76,12.28-15.78a55,55,0,0,0-11.46,6.59l-.14.1L160,55.73l1.61,3.56-.16.12a135.75,135.75,0,0,0-11.24,9.73l-.12.11-3-1.14,1.75,2.29-.16.16c-3.42,3.34-7,7.11-10.73,11.2l-.12.12L135.44,81l1.51,2-.14.15c-4.48,5-9.11,10.53-13.77,16.38l-.11.14L121.3,99l1,1.36-.12.15C115.46,109,110.67,115.77,109.58,117.32Z"/><path class="cls-3" d="M185,67.15l-2.93-.85c3.18-3,5.17-4.61,5.17-4.61-3.55.37-8.19,3-13.32,6.92l-3-2.29,1.39,3.57c-3.38,2.71-6.92,5.92-10.49,9.39L159,77.13l1.39,3.57c-3.07,3-6.13,6.23-9.09,9.43l-2.68-2,1.35,3.46c-3.33,3.64-6.51,7.26-9.4,10.61l-3.17-2.41L139,104c-7.4,8.68-12.49,15.24-12.49,15.24l18,2.58a111.2,111.2,0,0,1,6.82-15.7l3.88-1.07-2.86-.82a138.47,138.47,0,0,1,8.4-13.39l3.93-1.08L162.07,89a168.39,168.39,0,0,1,18.09-20.86Z"/><path d="M144.68,122.07,126,119.39l.27-.34c0-.06,5.13-6.6,12.4-15.13L136.8,99l3.7,2.8c3.11-3.62,6.19-7.09,9.14-10.32L148,87.36l3.2,2.43c3.08-3.32,6-6.4,8.82-9.16L158.4,76.4,161.77,79c3.68-3.57,7.11-6.64,10.21-9.14l-1.65-4.23,3.57,2.72c5.51-4.21,10-6.52,13.3-6.86l.83-.08-.65.53s-1.89,1.53-4.83,4.29l3.48,1-5.75,1.16a168.65,168.65,0,0,0-17.8,20.49l3.12.9L160.9,91a139.35,139.35,0,0,0-8.18,13l3.41,1-4.63,1.28a111.76,111.76,0,0,0-6.76,15.56ZM127,119l17.37,2.5A111.11,111.11,0,0,1,151.11,106l0-.1,3.13-.86-2.31-.67.15-.27a138.91,138.91,0,0,1,8.41-13.41l.05-.07,3.17-.88-2.1-.6.21-.29A168.23,168.23,0,0,1,180,67.94l0,0,3.89-.79-2.37-.68.32-.3c2.07-2,3.65-3.33,4.5-4.05-3.16.62-7.3,2.88-12.33,6.74l-.15.12-2.46-1.88L172.57,70l-.14.12c-3.16,2.54-6.69,5.69-10.47,9.37l-.15.15-2.3-1.74,1.13,2.89-.12.11c-2.85,2.83-5.91,6-9.08,9.43l-.16.16-2.14-1.63,1.08,2.79-.1.11c-3,3.31-6.19,6.88-9.4,10.61l-.15.17-2.66-2,1.37,3.52-.09.11C132.82,111.61,128.11,117.57,127,119Z"/><path class="cls-2" d="M183.31,84.93l4.33,2.53-1.88-3.95a73.17,73.17,0,0,1,8.89-4.34,49.6,49.6,0,0,0-6.09.88l-2.27-3.69v4.2a53.92,53.92,0,0,0-7.79,2.6l-2-3.19V84A61.19,61.19,0,0,0,169,88.19l-2.49-2.46.88,3.55a74.52,74.52,0,0,0-9.19,7.54l-3.54-1.89,2,3.4A94,94,0,0,0,140,121.39l9.19,1.35A68.4,68.4,0,0,1,157,108.6l3.86,1.06-2.48-2.92a77.91,77.91,0,0,1,6.13-7.09l3.61,2.1-1.84-3.86a92.38,92.38,0,0,1,7.08-6.16l3.67,2.15-1.73-3.63C178.15,88.17,180.85,86.4,183.31,84.93Z"/><path d="M149.35,123l-9.72-1.43.15-.31a94.84,94.84,0,0,1,16.61-23l-2.36-4,4.17,2.21a75.43,75.43,0,0,1,8.94-7.34l-1-4.24,3,2.95a62.15,62.15,0,0,1,7.22-4V79.09l2.31,3.76a54.15,54.15,0,0,1,7.44-2.49V75.48l2.64,4.29a51.34,51.34,0,0,1,5.95-.85l1.77-.15-1.66.63a77.13,77.13,0,0,0-8.66,4.21l2.14,4.47-4.91-2.86c-2.63,1.58-5.21,3.3-7.66,5.11l2,4.17L173.41,92c-2.39,1.88-4.68,3.87-6.8,5.91l2.11,4.43L164.59,100a78.87,78.87,0,0,0-5.86,6.77l2.88,3.39-4.48-1.24a68.29,68.29,0,0,0-7.7,14Zm-9-1.83,8.66,1.28a68.88,68.88,0,0,1,7.79-14l.1-.14,3.25.9-2.09-2.47.12-.16a80,80,0,0,1,6.15-7.11l.14-.14,3.07,1.8L166,97.84l.13-.13a90.94,90.94,0,0,1,7.11-6.17l.13-.11,3.12,1.82L175,90.18l.17-.13c2.55-1.89,5.24-3.69,8-5.34l.13-.07,3.76,2.19-1.64-3.43.21-.11c3.2-1.8,5.82-3,7.37-3.7-1.46.17-2.94.4-4.4.7l-.17,0-1.9-3.08v3.5l-.19,0a53.93,53.93,0,0,0-7.76,2.59l-.19.09-1.61-2.62v3.32l-.14.07a62.83,62.83,0,0,0-7.48,4.15l-.17.11-2-2,.7,2.85-.14.1A74.5,74.5,0,0,0,158.41,97l-.13.12-2.92-1.55,1.65,2.8-.13.14A95.09,95.09,0,0,0,140.38,121.19Z"/><path class="cls-2" d="M74.39,114.8a95.69,95.69,0,0,0-5.34-20.38L72,92l-3.69.5A89.86,89.86,0,0,0,62.69,81l2.71-3.61L61.46,78.9a70.82,70.82,0,0,0-6.41-8.77L57.41,67l-3.82,1.52A56.37,56.37,0,0,0,34.41,54.67a102.29,102.29,0,0,1,9,10.07l-3,1.16,4.5.81A117.61,117.61,0,0,1,56,84.3l-2.8,2.57,3.71-.72a90.36,90.36,0,0,1,5.84,15.36l-3.24,2.17,3.77-.15a72.29,72.29,0,0,1,2,13.23Z"/><path d="M65.1,117.06l0-.29a72.68,72.68,0,0,0-2-13l-4.46.17,3.83-2.56a90.83,90.83,0,0,0-5.69-15l-4.4.85,3.32-3A116.3,116.3,0,0,0,44.76,66.94l-5.28-1L43,64.63a103.6,103.6,0,0,0-8.73-9.78l-1.05-1,1.32.57A56.86,56.86,0,0,1,53.66,68.19l4.48-1.78-2.77,3.71a72,72,0,0,1,6.19,8.47l4.57-1.81L63,81a89.1,89.1,0,0,1,5.47,11.27l4.39-.58-3.5,2.85a96.5,96.5,0,0,1,5.29,20.26l0,.23Zm-1.62-13.79,0,.2a72.71,72.71,0,0,1,2,13l8.55-1.85a97.24,97.24,0,0,0-5.29-20.09l-.07-.17,2.41-2-3,.4-.08-.18a88.6,88.6,0,0,0-5.6-11.53l-.08-.15,2.27-3-3.31,1.32L61.24,79a71.11,71.11,0,0,0-6.38-8.74l-.13-.15,2-2.61-3.15,1.25-.12-.12A56.45,56.45,0,0,0,35.57,55.47a110.78,110.78,0,0,1,8,9.11l.21.27-2.47,1,3.73.67.06.08A116.75,116.75,0,0,1,56.22,84.19l.08.17L54,86.45l3-.59.08.18A90.77,90.77,0,0,1,63,101.44l0,.18-2.66,1.77Z"/><path class="cls-3" d="M110.9,102.79l-3.71-.77c0-4.33-.12-9.33-.38-14.65l3.44-1.25-3.54-.73c-.37-6.55-1-13.54-1.95-20.33L108,62.52l-3.52.53a126.76,126.76,0,0,0-2.84-13.64l3-2.51-3.55.53a60.86,60.86,0,0,0-3.93-10.14l2.43-2.91-3.38,1.14c-2.58-4.51-5.75-7.83-9.65-9.37,0,0,.4,1.85,1,5.22L84.38,31l3.49,2.62c.5,3.11,1.09,7.11,1.65,11.85l-3.23.4,3.45,1.57c.34,3,.66,6.32,1,9.85l-3.2,2.36,3.36-.29c.36,4.88.65,10.17.8,15.79L88.3,77.59l3.4-.3c.11,6,.07,12.36-.21,19l-4.57.69,4.47,1.39c-.29,6.07-.79,12.35-1.54,18.74l17.06.26s.28-5.23.29-13.2Z"/><path d="M107.15,117.58l-17.58-.26,0-.28c.71-6,1.22-12.24,1.54-18.53L85.8,96.86,91.25,96c.25-6,.32-12.25.2-18.46l-4,.34,4-2.92c-.13-5.1-.39-10.28-.77-15.39l-4,.35,3.8-2.81c-.26-3.22-.57-6.44-.92-9.56L85.38,45.7l3.86-.48c-.48-4-1-7.84-1.6-11.49L83.48,30.6l3.72.48c-.54-3.11-.92-4.86-.92-4.87l-.1-.46.44.17c3.68,1.45,6.93,4.58,9.67,9.3l4-1.36-2.89,3.46a61,61,0,0,1,3.81,9.83l4.21-.63-3.54,3a125.64,125.64,0,0,1,2.76,13.27l4.21-.64-3.85,3c.88,6.07,1.52,12.81,1.93,20l4.21.87-4.09,1.48c.22,4.62.35,9.42.37,14.28l4.38.9-4.37,1.58c0,7.79-.28,13-.29,13Zm-17-.75,16.55.25c0-1.12.26-6,.27-13V104l3-1.1-3-.62V102c0-5-.15-9.92-.38-14.65v-.19l2.78-1-2.86-.59v-.19c-.41-7.34-1.06-14.17-1.95-20.32l0-.14,2.58-2-2.82.43,0-.25a126.83,126.83,0,0,0-2.84-13.61l0-.16,2.43-2-2.89.43-.06-.2A60.73,60.73,0,0,0,96.9,37.4l-.07-.15,2-2.35-2.73.92-.1-.17c-2.6-4.53-5.65-7.58-9.1-9.08.16.74.48,2.38.89,4.76l0,.33-2.51-.32,2.81,2.11,0,.1c.6,3.76,1.16,7.75,1.64,11.86l0,.25L87.2,46,90,47.24l0,.14c.36,3.22.68,6.54,1,9.86v.14l-2.6,1.92,2.73-.24,0,.25c.39,5.25.66,10.56.8,15.8v.13l-2.74,2L91.94,77v.27c.12,6.38,0,12.76-.21,19v.2L88,97l3.62,1.11v.2C91.34,104.61,90.83,110.83,90.13,116.83Z"/><path class="cls-2" d="M99.29,117.07c-1.5-1.77-4.87-13.73-8.56-28.26l2.57-3.87-3.18,1.48c-1.12-4.48-2.27-9.16-3.4-13.83l2.55-3.84L86.14,70.2c-1.2-5-2.37-10-3.46-14.59l2.77-3.68-3.27,1.52c-1.24-5.34-2.36-10.18-3.25-14.09l2.13-2.76-2.49,1.16c-1.16-5.08-1.86-8.2-1.86-8.2A69.87,69.87,0,0,0,75.31,45L71,45.48l4.28,1.9c.07,4.54.34,9.39.75,14.34l-3.91,1.34,4.11.92c.53,5.85,1.23,11.79,2,17.46L75,81.85l3.54,1.61c.77,5.43,1.58,10.57,2.34,15.09L77.48,99l3.77,1.71c1.56,9.09,2.82,15.18,2.82,15.18Z"/><path d="M99.87,117.36l-16-1.26,0-.19c0-.06-1.26-6.13-2.79-15l-4.46-2,4-.51c-.85-5-1.61-10-2.27-14.7L74.1,81.71,78,81.22c-.82-6-1.47-11.77-1.95-17l-4.8-1.08,4.57-1.56c-.42-5.1-.67-9.81-.73-14l-5-2.21,5-.61A70,70,0,0,1,76.47,29.5l.25-1.06L77,29.5s.67,3,1.78,7.9l3.14-1.46L79.2,39.42c.87,3.81,2,8.5,3.16,13.68l3.89-1.81L83,55.67c1.14,4.91,2.27,9.68,3.36,14.18L90,68.15l-3,4.49c1.17,4.83,2.28,9.35,3.3,13.42L94,84.34l-3,4.51c5.41,21.3,7.6,27,8.48,28.05Zm-15.59-1.73,14.52,1.15c-1.45-2.51-4.24-11.88-8.31-27.91l0-.11,2.14-3.22L90,86.77l-.08-.29c-1-4.19-2.2-8.84-3.4-13.83l0-.1,2.12-3.2L86,70.56l-.07-.3c-1.11-4.62-2.27-9.53-3.46-14.59l0-.12,2.23-3L82,53.81l-.07-.3c-1.25-5.35-2.36-10.19-3.25-14.09l0-.12,1.58-2-1.85.86-.07-.31c-.75-3.3-1.31-5.77-1.6-7.1A73.74,73.74,0,0,0,75.56,45v.22l-3.6.45,3.61,1.6v.16c.07,4.28.32,9.1.75,14.32l0,.2L73.08,63l3.42.77,0,.18c.48,5.38,1.16,11.25,2,17.45l0,.25L75.92,82l2.86,1.3,0,.13c.68,4.85,1.47,9.93,2.33,15.09l.05.26-2.79.34,3.08,1.4,0,.13C82.89,108.76,84.05,114.54,84.28,115.63Z"/><path class="cls-3" d="M141.42,73.58l-3.18-1.31c2.55-4.64,5.33-9.29,8.33-15.41l4.29-.69-3.31-1.36c1.16-2.47,2.35-5.16,3.57-8.18a104,104,0,0,0-16.11,17l-3.52-1.92,2.15,3.74A120.12,120.12,0,0,0,126.09,77L124,75.79l1.39,2.43a114,114,0,0,0-6.87,14.45l-3.33-.48,2.67,2.22a106.24,106.24,0,0,0-5.79,23.27l15.49,1.73a80.4,80.4,0,0,0,.79-12.57l3.76-1.74-3.71-.43A51.71,51.71,0,0,1,130,92.06c.18-.65.37-1.28.55-1.9l3.83-.61-3.21-1.33a85.24,85.24,0,0,1,6-14Z"/><path d="M127.74,119.69l-16-1.79,0-.25a107.36,107.36,0,0,1,5.74-23.16l-3.21-2.67,4,.58a115.32,115.32,0,0,1,6.74-14.18l-1.76-3.07L126,76.61a123.8,123.8,0,0,1,7.34-11.15l-2.51-4.37L135,63.34a103.85,103.85,0,0,1,16-16.9l.74-.58-.35.87c-1.11,2.73-2.24,5.33-3.47,8l3.89,1.6-5,.81c-2.17,4.4-4.19,8-6.15,11.49-.68,1.21-1.34,2.39-2,3.57l3.74,1.54-5,.8a83.65,83.65,0,0,0-5.87,13.59l3.82,1.57-4.55.73c-.17.57-.34,1.15-.51,1.75a51.94,51.94,0,0,0-1.59,12.31L133,105l-4.43,2,0,1.15a70.57,70.57,0,0,1-.76,11.31Zm-15.41-2.23,15,1.68a71.5,71.5,0,0,0,.72-11l0-1.46,3.1-1.43-3.06-.36v-.23A52.62,52.62,0,0,1,129.74,92c.18-.65.37-1.28.56-1.9l0-.15,3.11-.5-2.61-1.08.07-.22a85.52,85.52,0,0,1,6-14L137,74l3.5-.55-2.62-1.08.14-.25c.69-1.26,1.4-2.52,2.13-3.82,2-3.51,4-7.13,6.18-11.58l.06-.12,3.55-.56-2.74-1.13.12-.24c1.12-2.39,2.17-4.77,3.19-7.24a109.72,109.72,0,0,0-15.31,16.35l-.13.17-2.93-1.6,1.79,3.12-.1.13a122.53,122.53,0,0,0-7.53,11.44l-.12.21-1.55-.84,1,1.77-.07.13a114.94,114.94,0,0,0-6.86,14.42l-.07.19L116,92.57l2.12,1.76-.06.16A107,107,0,0,0,112.33,117.46Z"/><path class="cls-3" d="M88.55,116.22s-3.44-10.78-8-25.35l2.82-2L80,89.09c-1.65-5.19-3.49-10.66-5.47-16l2.56-1.84-3.15.23c-1.84-4.91-3.79-9.69-5.8-14l3.13-2.25-4.06.3a72.76,72.76,0,0,0-6.42-11.16l2-2.87-3.11,1.39a17,17,0,0,0-4.48-4.1s2,4,4.48,10.66l-3.42,2.55,4.23-.38c1.42,3.89,3,8.53,4.41,13.71L61.55,68l3.91-.58c1.08,4,2.08,8.36,2.93,12.9l-3.32,2.77,3.71-.54a140.85,140.85,0,0,1,1.73,14.16l-3.68,2,3.82.19a121.36,121.36,0,0,1,.07,16.41Z"/><path d="M88.9,116.49l-18.45-.89,0-.25a119.39,119.39,0,0,0-.06-16.15L65.94,99l4.31-2.37c-.31-4.45-.88-9.07-1.67-13.74l-4.35.64,3.89-3.25c-.77-4.09-1.73-8.3-2.85-12.52l-4.56.67,3.87-3.22c-1.26-4.48-2.71-9-4.3-13.37l-4.92.45,4-3c-2.46-6.48-4.38-10.42-4.4-10.46l-.36-.73.71.4a17.2,17.2,0,0,1,4.43,4l3.73-1.66L61.09,44.3a74.54,74.54,0,0,1,6.27,10.91l4.76-.35-3.68,2.65c1.83,4,3.74,8.58,5.66,13.69l3.84-.28-3.12,2.24c1.76,4.79,3.56,10.06,5.34,15.67l4.08-.3L80.84,91c4.49,14.31,7.91,25.07,8,25.17ZM71,115.13l17.2.82c-.62-2-3.82-12-7.89-25l0-.17,2.25-1.62-2.7.19-.06-.18c-1.83-5.74-3.66-11.13-5.46-16L74.22,73l2-1.43-2.45.18-.07-.18c-2-5.25-3.91-10-5.79-14l-.09-.19,2.58-1.85-3.34.24L67,55.58a73.07,73.07,0,0,0-6.4-11.12l-.11-.15L62,42l-2.47,1.1L59.45,43a19.06,19.06,0,0,0-3.69-3.58c.68,1.48,2.25,5,4.12,9.9l.06.18-2.86,2.13,3.54-.32.06.18c1.65,4.52,3.13,9.14,4.42,13.74l.05.15-2.76,2.3,3.25-.48.06.22c1.16,4.34,2.15,8.69,2.93,12.91l0,.15-2.75,2.29L69,82.3l0,.24a143,143,0,0,1,1.73,14.2v.16l-3,1.66,3.16.16v.22A125.22,125.22,0,0,1,71,115.13Z"/><path class="cls-2" d="M131.39,54.26l-3.87-1c1.24-4.6,2.47-8.6,3.55-11.85L135.6,40l-3.73-1c1.62-4.71,2.74-7.36,2.74-7.36-.73.5-1.44,1-2.15,1.58l-4-2.59,2,4.2.36-.3A53.72,53.72,0,0,0,123.73,42l-3.2-2.06,1.84,3.83a80.48,80.48,0,0,0-7.64,12.8l-3.87-1.13,2.9,3.18a123.16,123.16,0,0,0-5.29,13.8l-4.41-.31,3.69,2.63c-1.32,4.38-2.42,8.71-3.32,12.84l-4.41.55,3.92,1.78A192.24,192.24,0,0,0,100.3,117l19.53,1.49a191.41,191.41,0,0,1,.73-27.42l3.6-1-3.41-.9c.73-6.89,1.76-13.4,2.93-19.41l4.16-1.25-3.71-1c.88-4.31,1.83-8.32,2.78-12Z"/><path d="M120.09,118.74l-20-1.53V117a192.48,192.48,0,0,1,3.61-27l-4.55-2.07,5.12-.63c.94-4.32,2-8.53,3.23-12.52l-4.27-3.05,5.1.36a124.67,124.67,0,0,1,5.17-13.48l-3.38-3.72,4.51,1.32a80.6,80.6,0,0,1,7.49-12.53l-2.16-4.49,3.75,2.42a53.76,53.76,0,0,1,6.51-6.83L127.85,30l4.6,3c.75-.58,1.4-1.05,2-1.48l.7-.48-.33.79s-1.09,2.59-2.65,7.09L136.51,40l-5.25,1.61c-1.21,3.7-2.37,7.55-3.43,11.47l4.5,1.19-5.21,1.48c-1,3.83-1.9,7.74-2.7,11.61l4.34,1.14L123.9,70c-1.24,6.38-2.21,12.78-2.88,19l4.1,1.08-4.33,1.19a191,191,0,0,0-.71,27.22Zm-19.53-2,19,1.45A193.58,193.58,0,0,1,120.31,91l0-.17,2.87-.79-2.72-.71,0-.22c.68-6.37,1.66-12.91,2.94-19.43l0-.15,3.46-1-3.08-.81,0-.23c.82-4,1.76-8,2.79-12l0-.14,3.73-1-3.23-.86.07-.24c1.09-4.05,2.29-8,3.55-11.86l0-.13L134.69,40l-3.14-.83.08-.25c1.11-3.2,2-5.47,2.43-6.59-.45.32-.92.68-1.44,1.08l-.14.11-3.41-2.2,1.5,3.12.12-.1.31.38a54.19,54.19,0,0,0-7.08,7.38l-.14.17-2.64-1.7,1.52,3.17-.09.12A79.71,79.71,0,0,0,115,56.63l-.09.19-3.21-.94,2.4,2.65-.07.15a123.41,123.41,0,0,0-5.27,13.76l-.06.19-3.73-.26L108,74.59l-.05.17c-1.23,4.09-2.35,8.4-3.31,12.83l0,.17-3.71.46,3.3,1.5,0,.19A196.09,196.09,0,0,0,100.56,116.75Z"/><polygon class="cls-4" points="167.97 98.4 42.83 91.51 37.43 161.43 156.56 169.47 172.43 160.56 180.23 103.8 167.97 98.4"/><path d="M156.61,169.72h-.07L37.16,161.66,42.6,91.24l.25,0L168,98.16h.05l12.42,5.47,0,.19-7.82,56.89ZM37.7,161.19l118.8,8,15.7-8.81L180,104l-12-5.3L43.06,91.77Z"/><polygon points="165 117.67 41.31 110.35 41.34 109.85 165 117.17 178.23 116.66 178.25 117.16 165 117.67"/><polygon points="162.21 135.65 162.17 135.65 40.11 127.47 40.14 126.97 162.17 135.15 175.96 132.34 176.06 132.84 162.21 135.65"/><polygon points="158.96 154.05 158.9 154.05 38.45 145.36 38.49 144.86 158.88 153.54 174.08 147.43 174.26 147.89 158.96 154.05"/><line class="cls-5" x1="168.13" y1="98.12" x2="156.88" y2="169.46"/><rect x="126.39" y="133.54" width="72.22" height="0.5" transform="translate(4.99 273.41) rotate(-81.02)"/><path class="cls-6" d="M92.33,110.2c-.5,9-4.12,16.59-9,20a9.57,9.57,0,0,1-6.09,1.88c-7.62-.43-13.24-10.92-12.55-23.42s7.42-22.28,15-21.85a9.5,9.5,0,0,1,5.57,2.31C89.93,92.93,92.83,101,92.33,110.2Z"/><path d="M77.78,132.32h-.51c-7.75-.44-13.48-11.06-12.79-23.68.44-8,3.35-15.18,7.77-19.14a10.43,10.43,0,0,1,7.54-2.95,9.63,9.63,0,0,1,5.71,2.37c4.79,4,7.57,12.35,7.08,21.31-.48,8.72-4,16.64-9.06,20.16A9.91,9.91,0,0,1,77.78,132.32ZM79.3,87a10.1,10.1,0,0,0-6.71,2.83c-4.33,3.88-7.17,10.9-7.61,18.8C64.3,121,69.83,131.39,77.3,131.81A9.28,9.28,0,0,0,83.23,130c4.9-3.44,8.38-11.2,8.85-19.78h0c.48-8.8-2.23-17-6.9-20.89A9.2,9.2,0,0,0,79.76,87Z"/><path d="M83.82,92.83A6.72,6.72,0,0,0,79.66,91c-5.7-.32-10.77,7.62-11.33,17.74,0,.49,0,1,0,1.45l11.17-2.39L68.66,115.4c1.12,6.93,4.6,12,9,12.23a6.82,6.82,0,0,0,4.56-1.54c3.63-2.76,6.37-8.92,6.77-16.2C89.38,102.45,87.24,95.91,83.82,92.83Z"/><path d="M78,127.89h-.35c-4.42-.24-8-5.13-9.21-12.44l0-.15,9.92-7L68,110.48v-.31c0-.49,0-1,0-1.46C68.45,102,70.84,96,74.31,92.85a7.42,7.42,0,0,1,5.37-2.12A6.92,6.92,0,0,1,84,92.65c3.58,3.22,5.63,10,5.23,17.25s-3,13.47-6.86,16.39A7.18,7.18,0,0,1,78,127.89Zm-9-12.38c1.15,6.88,4.64,11.65,8.71,11.87a6.49,6.49,0,0,0,4.4-1.49c3.67-2.79,6.29-9.08,6.67-16,.4-7.11-1.59-13.73-5.07-16.85h0a6.47,6.47,0,0,0-4-1.79,6.94,6.94,0,0,0-5,2c-3.38,3-5.7,9-6.06,15.51,0,.37,0,.75,0,1.12l12-2.58Z"/><path class="cls-6" d="M105.84,111.61c-.57,9,2.13,17,6.52,20.9a9.68,9.68,0,0,0,5.83,2.59c7.62.47,14.44-9.27,15.24-21.76s-4.73-23-12.35-23.49a9.57,9.57,0,0,0-5.8,1.64C110.27,94.74,106.43,102.43,105.84,111.61Z"/><path d="M118.72,135.36h-.55a9.83,9.83,0,0,1-6-2.65c-4.57-4.1-7.16-12.38-6.61-21.1h0c.58-8.95,4.33-16.92,9.55-20.32a9.69,9.69,0,0,1,6-1.68,10.46,10.46,0,0,1,7.13,3.83c3.92,4.45,6,11.9,5.45,19.92C132.89,125.67,126.24,135.36,118.72,135.36Zm-12.63-23.73c-.55,8.57,2,16.7,6.44,20.69a9.31,9.31,0,0,0,5.67,2.53h.52c7.26,0,13.69-9.49,14.46-21.54.5-7.89-1.49-15.2-5.33-19.56a9.93,9.93,0,0,0-6.78-3.66,9.27,9.27,0,0,0-5.65,1.6c-5.1,3.31-8.77,11.13-9.33,19.93Z"/><path d="M116.35,95.38A6.7,6.7,0,0,1,120.7,94c5.69.35,9.79,8.84,9.15,19,0,.49-.08,1-.13,1.44l-10.8-3.7,9.8,8.85c-1.93,6.74-6,11.36-10.36,11.08a6.84,6.84,0,0,1-4.35-2.07c-3.27-3.17-5.27-9.61-4.8-16.89C109.68,104.27,112.59,98,116.35,95.38Z"/><path d="M118.73,130.93l-.39,0a7,7,0,0,1-4.5-2.14c-3.47-3.36-5.34-9.91-4.88-17.09s3.31-13.74,7.24-16.51h0a7,7,0,0,1,4.51-1.39,7.42,7.42,0,0,1,5.08,2.74c3.08,3.5,4.73,9.82,4.31,16.49,0,.49-.08,1-.13,1.45l0,.31L120,111.36l9,8.14,0,.15C127,126.56,123,130.93,118.73,130.93Zm1.59-36.67a6.64,6.64,0,0,0-3.83,1.32h0c-3.82,2.69-6.58,9-7,16.14-.44,6.93,1.41,13.48,4.72,16.69a6.61,6.61,0,0,0,4.2,2c4.08.25,8.1-4.07,10.06-10.76l-10.6-9.56,11.66,4c0-.37.07-.74.1-1.11.41-6.55-1.19-12.73-4.19-16.13a6.9,6.9,0,0,0-4.73-2.57Z"/><path class="cls-5" d="M100.36,117.38l-.67,4.56s-7.31-1.5-7.9,2.33,8,3.36,8,3.36"/><path d="M99,127.9c-1.72,0-5.44-.19-6.87-1.77a2.18,2.18,0,0,1-.55-1.9,2.78,2.78,0,0,1,1.2-1.92c2-1.37,5.72-.84,6.74-.67l.63-4.29.5.07-.71,4.82-.26-.06s-4.53-.9-6.61.54a2.29,2.29,0,0,0-1,1.58,1.72,1.72,0,0,0,.43,1.5c1.69,1.86,7.3,1.58,7.36,1.58l0,.5S99.46,127.9,99,127.9Z"/><path class="cls-7" d="M105.22,130.08a4,4,0,0,1,5.1,3.49c.37,9.58-.51,29.16-13.84,29.31s-12.92-21-11.92-31.19A3.76,3.76,0,0,1,90,128.87a22.2,22.2,0,0,0,7.48,2.06A20.63,20.63,0,0,0,105.22,130.08Z"/><path d="M96.34,163.13a9.7,9.7,0,0,1-7.47-3.2c-5.78-6.3-5.33-20.41-4.55-28.27a3.71,3.71,0,0,1,1.88-2.88,4.26,4.26,0,0,1,3.9-.14,21.76,21.76,0,0,0,7.4,2,20.3,20.3,0,0,0,7.65-.84h0a4.27,4.27,0,0,1,3.72.64,4,4,0,0,1,1.7,3.08c.27,7.11-.14,20-6,26.1a10.91,10.91,0,0,1-8.11,3.47Zm-8.07-34.39a3.71,3.71,0,0,0-1.82.47,3.24,3.24,0,0,0-1.64,2.5c-.77,7.77-1.22,21.73,4.42,27.89a9.25,9.25,0,0,0,7.25,3,10.47,10.47,0,0,0,7.75-3.31c5.71-6,6.11-18.71,5.84-25.74a3.47,3.47,0,0,0-1.49-2.7,3.78,3.78,0,0,0-3.29-.56h0a20.82,20.82,0,0,1-7.83.86,22.31,22.31,0,0,1-7.57-2.09A3.85,3.85,0,0,0,88.27,128.74Z"/><path class="cls-6" d="M106.44,132.89a1,1,0,0,1,1.3,1c0,5.86-.93,26.84-11.23,26.4-11.78-.51-9.87-21.64-9.14-27.35a1,1,0,0,1,1.38-.87,25.06,25.06,0,0,0,9,2A25.73,25.73,0,0,0,106.44,132.89Z"/><path d="M96.83,160.59H96.5a8.11,8.11,0,0,1-6.07-3c-5.21-6.19-3.85-20.45-3.31-24.67a1.3,1.3,0,0,1,.65-1,1.21,1.21,0,0,1,1.08-.07,25.43,25.43,0,0,0,17.51.77h0a1.22,1.22,0,0,1,1.09.18,1.38,1.38,0,0,1,.54,1.11c0,4.41-.59,19.23-6.25,24.62A7,7,0,0,1,96.83,160.59Zm-8.45-28.31a.81.81,0,0,0-.36.1.83.83,0,0,0-.4.63c-.54,4.17-1.89,18.26,3.19,24.28a7.64,7.64,0,0,0,5.71,2.79,6.45,6.45,0,0,0,4.87-1.89c5.52-5.24,6.07-19.89,6.1-24.26a.85.85,0,0,0-.34-.7.67.67,0,0,0-.64-.1,26,26,0,0,1-17.86-.79A.66.66,0,0,0,88.38,132.28Z"/><rect x="88.01" y="146.45" width="25.56" height="0.5" transform="translate(-51.03 239.6) rotate(-86.97)"/><rect x="80.59" y="146.26" width="25.69" height="0.5" transform="matrix(0.04, -1, 1, 0.04, -57.12, 233.26)"/><polygon points="106.53 147.13 86.94 146.3 86.96 145.8 106.55 146.63 106.54 146.86 106.61 147.12 106.53 147.13"/><path d="M40.4,123l-.92,11.89c-3.08,3.16-6.86,5.5-11.09,3.92-6.13-2.31-7.51-11.46-8.17-17.06-.46-3.87-.54-7.77-.89-11.64-.1-1.18-.24-2.35-.41-3.52-.13-.9-.29-1.8-.48-2.69s-.38-1.61-.61-2.41a3.63,3.63,0,0,1-.16-.93,2.79,2.79,0,0,1,.82-2c1.4-1.42,4.19-1.52,5.31.52a2.71,2.71,0,0,1,.2.42q0,.12.09.27v0A41.11,41.11,0,0,1,25.25,105c.63,4,.8,8,1.06,12a53.83,53.83,0,0,0,1.1,8.59c.48,2.07,1.12,5.28,2.77,6.78C32.2,134.21,36.36,129.21,40.4,123Z"/><path class="cls-6" d="M18.34,91.88a4.92,4.92,0,0,0-.63-1.38A8.45,8.45,0,0,0,14.48,88a3.17,3.17,0,0,0-3,.17,2.26,2.26,0,0,0-.6,3,2.8,2.8,0,0,0-.46-.19L10.18,91a3.68,3.68,0,0,0-1.1,0,2.69,2.69,0,0,0-1.89,1.53A4.68,4.68,0,0,0,7,95.3l-.33,0A3,3,0,0,0,4.24,99c.73,4.21,5.85,5.26,5.85,5.26,1,6.21,6.2,4.06,6.2,4.06,1.46,3.49,4.9,2.05,8.85-3.17s-1.62-5.47-1.62-5.47C27.13,92.38,19.9,92,18.34,91.88Z"/><path d="M18.64,110.48l-.32,0a2.8,2.8,0,0,1-2.16-1.82,5.11,5.11,0,0,1-3.93-.22,5.28,5.28,0,0,1-2.35-4C9,104.23,4.67,102.93,4,99.05a3.62,3.62,0,0,1,.59-2.73,3.07,3.07,0,0,1,2.09-1.24h.09A4.58,4.58,0,0,1,7,92.45,3,3,0,0,1,9,90.77a3.86,3.86,0,0,1,1.18,0l.22,0A2.41,2.41,0,0,1,11.35,88a3.43,3.43,0,0,1,3.22-.19,8.93,8.93,0,0,1,3.35,2.54,4.46,4.46,0,0,1,.6,1.29c1.26.08,4.49.37,5.75,2.54.77,1.33.64,3.1-.37,5.29a3.46,3.46,0,0,1,2.7,1.59c.5,1,.07,2.48-1.26,4.24C22.8,108.66,20.44,110.48,18.64,110.48ZM16.43,108l.1.24A2.43,2.43,0,0,0,18.38,110c1.65.22,4-1.55,6.56-5,1.21-1.6,1.62-2.86,1.21-3.73-.57-1.23-2.62-1.34-2.64-1.34l-.38,0,.17-.34c1.07-2.17,1.26-3.9.54-5.14-1.17-2-4.42-2.23-5.49-2.3h0c-.18,0-.22-.16-.26-.29a4.14,4.14,0,0,0-.55-1.2,8.33,8.33,0,0,0-3.13-2.37,2.91,2.91,0,0,0-2.76.15,2,2,0,0,0-.51,2.69l.43.77-.77-.43a3.22,3.22,0,0,0-.41-.17l-.21,0a3.53,3.53,0,0,0-1,0,2.43,2.43,0,0,0-1.7,1.4,4.38,4.38,0,0,0-.13,2.6l0,.26-.39,0h-.2a2.55,2.55,0,0,0-1.75,1A3.13,3.13,0,0,0,4.48,99c.7,4,5.62,5,5.66,5.05l.17,0,0,.18c.3,1.87,1,3.14,2.14,3.76a4.75,4.75,0,0,0,3.72.11Zm1.91-16.13v0Z"/><path class="cls-7" d="M13.06,85h5.11a0,0,0,0,1,0,0v25.22a2.44,2.44,0,0,1-2.44,2.44h-.24a2.44,2.44,0,0,1-2.44-2.44V85A0,0,0,0,1,13.06,85Z" transform="translate(37.88 1.28) rotate(21.83)"/><path d="M11.49,112.17a2.7,2.7,0,0,1-1-.2l-.22-.09a2.69,2.69,0,0,1-1.49-3.49l9.46-23.64,5.21,2.09-.09.23L14,110.48A2.64,2.64,0,0,1,12.55,112,2.79,2.79,0,0,1,11.49,112.17Zm7-26.77L9.24,108.58a2.19,2.19,0,0,0,1.22,2.84l.22.09a2.15,2.15,0,0,0,1.67,0,2.19,2.19,0,0,0,1.17-1.2L22.8,87.12Z"/><path class="cls-7" d="M22,89.6c17.44.72,7.19-24.66,7.19-24.66C3.79,75.84,17.46,87.69,17.46,87.69Z"/><path d="M22.73,89.86l-.73,0h-.09l-4.61-2c-.05,0-4.49-4-3.66-9.32.8-5.13,6-9.79,15.46-13.85l.23-.1.1.23A52.16,52.16,0,0,1,31.8,73c1.18,6,.76,10.53-1.26,13.38C28.93,88.7,26.3,89.86,22.73,89.86Zm-.66-.51c3.75.14,6.46-.94,8.07-3.22,4.29-6.09-.36-18.95-1.08-20.86-9.14,4-14.16,8.46-14.92,13.36s3.09,8.5,3.46,8.84Z"/><path d="M19.88,70.77c.74.18,1.3-.28,1.87-.71s2.84-2.54,3.32-.81c.33,1.22-.65,2.16-1,3.24a1.62,1.62,0,0,0,.59,1.67,2.06,2.06,0,0,1,.59,1.29c0,.64-.35,1.89.42,2.22,1,.42,1.84-.87,2.64-1.24a.27.27,0,0,1,.36.2,5,5,0,0,0,.68,2.53c.72,1,1.88.68,2.83.1.06-6.75-3-14.32-3-14.32a43,43,0,0,0-9.84,5.58A1.48,1.48,0,0,0,19.88,70.77Z"/><path d="M30.58,80.05a1.68,1.68,0,0,1-1.42-.75,5,5,0,0,1-.72-2.65,4.19,4.19,0,0,0-.77.54c-.6.49-1.28,1.06-2.09.71s-.66-1.23-.6-1.9c0-.2,0-.39,0-.54a1.84,1.84,0,0,0-.53-1.13,1.84,1.84,0,0,1-.63-1.91,5.6,5.6,0,0,1,.49-1.09,2.75,2.75,0,0,0,.49-2c-.11-.4-.3-.46-.36-.48-.57-.18-1.72.74-2.27,1.18l-.3.24-.09.07a2.34,2.34,0,0,1-2,.68h0a1.63,1.63,0,0,1-.61-.29L19,70.53l.26-.2a43.43,43.43,0,0,1,9.89-5.62l.23-.1.1.23c0,.08,3.07,7.7,3,14.42v.14l-.12.07A3.44,3.44,0,0,1,30.58,80.05Zm-2.16-3.89a.53.53,0,0,1,.27.08.45.45,0,0,1,.24.38A4.67,4.67,0,0,0,29.57,79c.6.85,1.6.55,2.37.11,0-5.93-2.38-12.53-2.88-13.85a43.5,43.5,0,0,0-9.25,5.22l.13,0h0a1.91,1.91,0,0,0,1.57-.6l.09-.07.29-.23c.71-.57,1.9-1.53,2.74-1.26a1.06,1.06,0,0,1,.68.82,3.15,3.15,0,0,1-.53,2.38,6.36,6.36,0,0,0-.46,1c-.16.53,0,.88.53,1.43a2.21,2.21,0,0,1,.65,1.44,4.23,4.23,0,0,1,0,.6c-.07.7-.08,1.24.3,1.4s1-.19,1.58-.64a4.48,4.48,0,0,1,.86-.6A.65.65,0,0,1,28.42,76.16Z"/><rect x="15.99" y="82.8" width="11.56" height="0.5" transform="translate(-63.4 72.28) rotate(-68.1)"/><path class="cls-6" d="M6.65,100.65s6.56,3,7-.24S7,95.3,7,95.3"/><path d="M11.48,102.15a14.45,14.45,0,0,1-4.93-1.28l.2-.45s4.28,1.92,6,1a1.29,1.29,0,0,0,.67-1c.45-3-6.38-4.81-6.45-4.83l.13-.48c.3.07,7.33,2,6.82,5.39a1.8,1.8,0,0,1-.93,1.38A3.18,3.18,0,0,1,11.48,102.15Z"/><path class="cls-6" d="M8.56,95.79c4.92,1.81,5.2,4.58,5.2,4.58,7.39-3.38-3-9.22-3-9.22a14.9,14.9,0,0,1,4.85,4c6.23-3,.31-7.19-2.44-7.36"/><path d="M13.55,100.75l0-.35s-.36-2.65-5-4.37l.17-.47c4,1.49,5,3.63,5.29,4.45,1.43-.71,2.18-1.58,2.22-2.57.12-2.85-5.42-6-5.53-6.07h0l.25-.44a15.79,15.79,0,0,1,4.79,3.89c1.79-.9,2.62-2,2.39-3.15-.36-1.87-3.23-3.54-4.91-3.64l0-.5c1.82.11,4.95,1.9,5.37,4,.19,1-.12,2.41-2.62,3.68a3.81,3.81,0,0,1,.73,2.21c-.05,1.26-1,2.32-2.79,3.14Z"/><path class="cls-6" d="M23.91,99.74a9,9,0,0,0,.6-4.21c-.29-2-1.41-3-4.34-3.49a18.27,18.27,0,0,0-6.52-.22,2.76,2.76,0,0,0-2.29,2.36c-.25,3.37,6.75,4,6.75,4s-4.51,4.15,1.47,6.23"/><path d="M19.5,104.65c-1.88-.65-3-1.59-3.22-2.78a4.38,4.38,0,0,1,1.3-3.49c-1.65-.23-6.69-1.16-6.47-4.21a3,3,0,0,1,2.49-2.6,18.52,18.52,0,0,1,6.61.22c2.91.47,4.23,1.55,4.54,3.7a9.13,9.13,0,0,1-.61,4.34l-.47-.18a8.55,8.55,0,0,0,.59-4.08c-.29-1.95-1.41-2.84-4.13-3.28a18.13,18.13,0,0,0-6.44-.23,2.51,2.51,0,0,0-2.08,2.14c-.23,3.09,6.45,3.73,6.52,3.74l.56,0-.41.38s-1.86,1.74-1.51,3.4c.21,1,1.19,1.82,2.9,2.41Z"/><path d="M16.4,108.57l-.15-.48a7.88,7.88,0,0,0,3.05-2.21l.36.35A8.45,8.45,0,0,1,16.4,108.57Z"/><path d="M21.68,104.43l-.33-.37a9.81,9.81,0,0,0,2.31-4.46l.48.14A10.07,10.07,0,0,1,21.68,104.43Z"/><polygon class="cls-8" points="124.39 181.77 108.05 164.11 108.26 161.7 123.93 166.91 124.39 181.77"/><path d="M124.67,182.43,107.79,164.2l.25-2.84,16.13,5.37ZM108.31,164l15.81,17.09-.44-14L108.48,162Z"/><path class="cls-8" d="M105.53,162.79c-.07,2.11.46,3.84,1.19,3.86s1.37-1.66,1.44-3.77-.45-3.83-1.18-3.86S105.61,160.69,105.53,162.79Z"/><path d="M106.73,166.9h0c-1,0-1.49-2.14-1.43-4.12h0c.07-1.95.68-4,1.68-4h0c.33,0,.79.26,1.12,1.33a8.81,8.81,0,0,1,.3,2.79C108.35,164.85,107.74,166.9,106.73,166.9Zm-1-4.1h0c-.07,2.21.5,3.59,1,3.6h0c.45,0,1.11-1.33,1.18-3.52a8,8,0,0,0-.28-2.63c-.21-.71-.48-1-.66-1-.46,0-1.11,1.32-1.19,3.53Z"/><path class="cls-6" d="M106.76,160.6a.18.18,0,0,0,0,.24.17.17,0,0,0,.24,0,.18.18,0,0,0,0-.24A.16.16,0,0,0,106.76,160.6Z"/><path class="cls-6" d="M106.66,164.88a.18.18,0,0,0,0,.24.16.16,0,0,0,.24,0,.18.18,0,0,0,0-.24A.17.17,0,0,0,106.66,164.88Z"/><path class="cls-6" d="M107.24,162.77a.17.17,0,0,0,.29.19.17.17,0,0,0-.29-.19Z"/><path class="cls-6" d="M106.11,162.76a.17.17,0,1,0,.29.19.17.17,0,0,0-.29-.19Z"/><polygon class="cls-8" points="121.53 156.88 143.79 153.63 151.84 185.89 121.37 189.71 121.53 156.88"/><path d="M121.12,190l.16-33.34,22.7-3.31,8.17,32.76Zm.66-32.91-.15,32.34,29.9-3.75-7.93-31.77Z"/><path class="cls-8" d="M161.92,163.53a10.16,10.16,0,0,0-1.55-3.45,9.76,9.76,0,0,0-1.75-1.94,10.24,10.24,0,0,0-13.62.23l1,4.06a6.73,6.73,0,0,1,9.06-2.35,6.74,6.74,0,0,1,3.14,4,6.92,6.92,0,0,1,.22,2.41,6.75,6.75,0,0,1-.6,2.25,6.28,6.28,0,0,1-.88,1.39,6.66,6.66,0,0,1-5.42,2.48,2.23,2.23,0,0,1-.37,0,6.48,6.48,0,0,1-2.84-.92l1,4.18a9.33,9.33,0,0,0,1.69.3,10.38,10.38,0,0,0,2.74-.13h0a10.27,10.27,0,0,0,7.33-5.51,10.14,10.14,0,0,0,1-3.69c0-.18,0-.36,0-.53A10.15,10.15,0,0,0,161.92,163.53Z"/><path d="M151.94,176.45c-.3,0-.61,0-.92,0a10.47,10.47,0,0,1-1.72-.31l-.14,0-1.23-4.91.52.32a6.24,6.24,0,0,0,2.73.88,2.11,2.11,0,0,0,.35,0,6.51,6.51,0,0,0,5.23-2.38,5.87,5.87,0,0,0,.84-1.35,6.13,6.13,0,0,0,.58-2.16,6.46,6.46,0,0,0-.21-2.32,6.55,6.55,0,0,0-3-3.86,6.45,6.45,0,0,0-8.72,2.25l-.31.52-1.2-4.78.11-.1a10.49,10.49,0,0,1,14-.24,10.9,10.9,0,0,1,1.79,2,10.58,10.58,0,0,1,1.87,6.37c0,.17,0,.35,0,.54a10.31,10.31,0,0,1-1.06,3.78,10.57,10.57,0,0,1-7.51,5.65A11,11,0,0,1,151.94,176.45Zm-2.37-.79a10,10,0,0,0,1.5.25,10.48,10.48,0,0,0,2.68-.12,10.12,10.12,0,0,0,7.15-5.38,10.25,10.25,0,0,0,1-3.61l0-.51a10.2,10.2,0,0,0-.27-2.7h0a10,10,0,0,0-3.22-5.26,10,10,0,0,0-13.19.13l.85,3.35a6.88,6.88,0,0,1,6.23-2.83,6.7,6.7,0,0,1,2.85.89,7,7,0,0,1,3.25,4.16,6.93,6.93,0,0,1,.23,2.49,6.72,6.72,0,0,1-.63,2.34,6.46,6.46,0,0,1-.9,1.44,7,7,0,0,1-5.63,2.57,2.55,2.55,0,0,1-.39,0,6.77,6.77,0,0,1-2.43-.67Z"/><rect x="121.37" y="158.17" width="23.34" height="0.5" transform="translate(-21.6 21.01) rotate(-8.35)"/><rect x="121.42" y="183.38" width="29.44" height="0.5" transform="translate(-20.9 17.52) rotate(-6.84)"/><path class="cls-7" d="M126.39,169.21a3.18,3.18,0,0,1,1.45-2.76c1.29-.82,3.62-1.28,6.39,1.94,1.8-3.85,4.13-4,5.59-3.58a3.18,3.18,0,0,1,2.14,2.27c1.44,5.55-6.23,12.15-6.26,12.17S126.5,175,126.39,169.21Z"/><path d="M135.74,179.55l-.15-.07c-.38-.18-9.34-4.44-9.45-10.26h0a3.41,3.41,0,0,1,1.57-3c.94-.6,3.43-1.61,6.46,1.7,1.93-3.84,4.4-3.77,5.72-3.37A3.41,3.41,0,0,1,142.2,167c1.47,5.68-6.26,12.37-6.34,12.43Zm-5.89-13.45a3.48,3.48,0,0,0-1.87.56,2.92,2.92,0,0,0-1.34,2.55h0c.1,5.12,7.85,9.17,9,9.75,1-.88,7.35-6.84,6.06-11.82a2.91,2.91,0,0,0-2-2.09c-1.21-.37-3.5-.41-5.3,3.44l-.16.35-.25-.29C132.41,166.66,131,166.1,129.85,166.1Z"/><path d="M201.58,162.14c-5.84,3.72-13.42,4.68-20.13,5.68q-3,.45-6,.82c-4.78.62-9.56,1.17-14.33,1.88l-1.6.25a3.21,3.21,0,0,1-2.57-.63,3.74,3.74,0,0,1-.84-4.62,3,3,0,0,1,2.1-1.43l.17,0c1.18-.19,2.36-.36,3.54-.53,2.79-.39,5.58-.74,8.37-1.09l4.11-.51c2.9-.38,5.8-.77,8.68-1.25a60,60,0,0,0,11.32-2.61c1.29-.48,3.44-1.08,4.31-2.24s-.19-2.8-1.1-3.8c-4.54-5-11.33-8.15-17.38-10.9-5.87-2.65-11.82-5.1-17.44-8.22l1.08-7.15a2.3,2.3,0,0,1,.52.26c6.21,3.74,13,6.32,19.57,9.35,5.74,2.65,11.46,5.64,16.26,9.81,2.58,2.25,5.1,4.88,5.59,8.43A8.57,8.57,0,0,1,201.58,162.14Z"/><path class="cls-6" d="M170.23,161.93s3-3,4.06-.32c.8,2,1.16,6.69,1.29,8.79a2.58,2.58,0,0,1-1.25,2.41,4.09,4.09,0,0,1-2.93-.25c-1.31,1.25-2.94,3.55-6.61,4.45a18,18,0,0,1-8.54.05,6.73,6.73,0,0,1-3.67-2.11,4.38,4.38,0,0,1-1-2.24,2.54,2.54,0,0,1,.14-1.22l.38-.89s-2.95-3.21.78-5.44c0,0-4.22-5.35,4.78-5.22.54,0,.72-2.42,2.62-3.75a6.61,6.61,0,0,1,4.59-1.14C167.6,155.53,169.91,158.32,170.23,161.93Z"/><path d="M160.33,177.8a17,17,0,0,1-4.14-.5,6.91,6.91,0,0,1-3.8-2.19,4.64,4.64,0,0,1-1.1-2.37,2.75,2.75,0,0,1,.16-1.34l.32-.76a4.31,4.31,0,0,1-1-3.12,3.57,3.57,0,0,1,1.75-2.43c-.39-.58-1.31-2.16-.64-3.5s2.6-1.93,5.78-1.9A3.58,3.58,0,0,0,158,159a6.46,6.46,0,0,1,2.12-3,6.92,6.92,0,0,1,4.78-1.17c2.83.49,5.06,3.18,5.54,6.61.6-.49,1.79-1.34,2.83-1.13a1.77,1.77,0,0,1,1.27,1.23c.83,2.09,1.19,6.9,1.31,8.87a2.84,2.84,0,0,1-1.38,2.64,4.31,4.31,0,0,1-3-.17l-.54.56a11.75,11.75,0,0,1-6.05,3.83A18.82,18.82,0,0,1,160.33,177.8Zm-3-17.61c-2.76,0-4.49.56-5,1.62-.67,1.36.74,3.18.75,3.2l.18.22-.24.15a3.22,3.22,0,0,0-1.74,2.21,4,4,0,0,0,1,2.84l.11.12-.06.15s-.33.77-.37.88a2.14,2.14,0,0,0-.13,1.1,4.15,4.15,0,0,0,1,2.11,6.47,6.47,0,0,0,3.54,2,17.77,17.77,0,0,0,8.42,0,11.34,11.34,0,0,0,5.81-3.7c.24-.25.47-.49.68-.69l.13-.13.17.09a3.84,3.84,0,0,0,2.69.25,2.33,2.33,0,0,0,1.12-2.17c-.12-1.95-.47-6.7-1.27-8.71-.22-.54-.51-.85-.92-.93-1.14-.23-2.72,1.31-2.73,1.33l-.38.38L170,162c-.3-3.39-2.49-6.19-5.19-6.66a6.36,6.36,0,0,0-4.4,1.09,6,6,0,0,0-1.95,2.75c-.27.63-.44,1.05-.82,1.05h-.32Z"/><rect x="154.4" y="163.64" width="0.5" height="3.46" transform="translate(-25.5 302.53) rotate(-84.2)"/><rect x="153.66" y="168.95" width="0.5" height="3.73" transform="translate(-33.29 304.3) rotate(-83.47)"/><rect x="159.86" y="157.57" width="0.5" height="5" transform="matrix(0.05, -1, 1, 0.05, -7.93, 311.79)"/><rect x="170.19" y="161.92" width="0.5" height="3.52" transform="translate(-18.63 21.93) rotate(-6.98)"/><rect x="170.96" y="170" width="0.5" height="2.57" transform="translate(-22.48 25.9) rotate(-8.12)"/></g></svg>