<svg xmlns="http://www.w3.org/2000/svg" viewBox="0 0 234.2 222.01"><defs><style>.cls-1{fill:#dfdfdf;}.cls-2{fill:#989898;}.cls-3{fill:#4a4a4a;}.cls-4{fill:#acacac;}.cls-5{fill:#363636;}.cls-6{fill:#fff;}.cls-7{fill:#7c7c7c;}.cls-8{fill:#c4c4c4;}</style></defs><g id="_02" data-name="02"><path class="cls-1" d="M23.41,62.75l1.36,1.09a3.83,3.83,0,0,1-.34,1.52,6.6,6.6,0,0,1-1,1.65,4.4,4.4,0,0,1-1.86,1.46,2,2,0,0,1-2.05-.33l-8.42-6.73a1,1,0,0,1-.26-.84,5.14,5.14,0,0,1,.34-1.47,13.3,13.3,0,0,1,2.17-3.74A8,8,0,0,1,18,52.25a5.5,5.5,0,0,1,4.71,1.24A5.49,5.49,0,0,1,25,57.6a7.06,7.06,0,0,1-1.82,4.63,8,8,0,0,1-1.05,1.06,6,6,0,0,1-.89.64.3.3,0,0,0,.14.23C21.66,64.4,22.34,63.93,23.41,62.75Zm-4.18-3a.66.66,0,0,0,.19-.18.37.37,0,0,0,.07-.36,1,1,0,0,0-.36-.44l-.68-.54a1.37,1.37,0,0,0-.51-.29.35.35,0,0,0-.34.14.75.75,0,0,0-.15.27.91.91,0,0,1,.16.11Z"/><path d="M20.81,68.87a2.21,2.21,0,0,1-1.43-.53L11,61.61a1.18,1.18,0,0,1-.36-1A5.45,5.45,0,0,1,11,59a13.41,13.41,0,0,1,2.21-3.81A8.25,8.25,0,0,1,17.93,52a5.75,5.75,0,0,1,4.92,1.29,5.71,5.71,0,0,1,2.38,4.3,7.29,7.29,0,0,1-1.87,4.8,7.52,7.52,0,0,1-1.09,1.1c-.21.17-.38.31-.54.42a5.75,5.75,0,0,0,1.49-1.33l.16-.18L25,63.71v.12a4,4,0,0,1-.37,1.63,6.47,6.47,0,0,1-1,1.71,4.54,4.54,0,0,1-2,1.54A2.51,2.51,0,0,1,20.81,68.87ZM19.08,52.4a5.41,5.41,0,0,0-1,.1,7.79,7.79,0,0,0-4.46,3,13.39,13.39,0,0,0-2.13,3.66,4.7,4.7,0,0,0-.32,1.4.8.8,0,0,0,.16.63l8.42,6.73a1.73,1.73,0,0,0,1.8.29,4.13,4.13,0,0,0,1.75-1.38,6.53,6.53,0,0,0,.94-1.58A3.94,3.94,0,0,0,24.51,64l-1.07-.86c-1.14,1.23-1.82,1.6-2.24,1.26A.55.55,0,0,1,21,64l0-.17.16-.09a4.56,4.56,0,0,0,.84-.61,7,7,0,0,0,1-1,6.84,6.84,0,0,0,1.76-4.46,5.26,5.26,0,0,0-2.19-3.92A5.45,5.45,0,0,0,19.08,52.4Zm.09,7.65-1.73-1.37a.43.43,0,0,0-.11-.08l-.16-.09,0-.18a.88.88,0,0,1,.21-.39.59.59,0,0,1,.58-.23,1.46,1.46,0,0,1,.63.34l.68.54a1.24,1.24,0,0,1,.44.56.62.62,0,0,1-.11.6c-.14.17-.23.25-.33.27Zm-1.39-1.76,1.43,1.14h0a.11.11,0,0,0,0-.13A.88.88,0,0,0,19,59l-.68-.54c-.24-.19-.36-.23-.4-.23s-.05,0-.09,0Z"/><path class="cls-1" d="M32.33,56.31a2.63,2.63,0,0,1-1.85.89,2.67,2.67,0,0,1-1.91-1l-7.8-7.89a4.34,4.34,0,0,1,.49-1.6,5.68,5.68,0,0,1,1.09-1.46,3.89,3.89,0,0,1,2.13-1.15,2.52,2.52,0,0,1,2.23.79l4.36,4.42a3.55,3.55,0,0,0-.63,1.13q-.23.65,0,.87a.38.38,0,0,0,.38.08,5.05,5.05,0,0,1,1.71-3l1.92-1.89a5.33,5.33,0,0,1,2.42,1.38,5.91,5.91,0,0,1,.89,1.24,3.2,3.2,0,0,1,.44,1.36Z"/><path d="M30.47,57.46a2.92,2.92,0,0,1-2.08-1l-7.89-8v-.12A4.7,4.7,0,0,1,21,46.64a6.46,6.46,0,0,1,1.13-1.52,4.18,4.18,0,0,1,2.28-1.22,2.79,2.79,0,0,1,2.46.86l4.51,4.57a9,9,0,0,1,.94-1.09l2-2,.15,0a5.59,5.59,0,0,1,2.53,1.45A5.89,5.89,0,0,1,38,49a3.52,3.52,0,0,1,.47,1.46v.12l-6,5.88a2.9,2.9,0,0,1-2,1ZM21,48.26l7.71,7.81a2.52,2.52,0,0,0,1.72.88h0a2.46,2.46,0,0,0,1.67-.82l5.79-5.71a3.26,3.26,0,0,0-.41-1.13,5.42,5.42,0,0,0-.84-1.19,5.12,5.12,0,0,0-2.17-1.27l-1.81,1.78a4.83,4.83,0,0,0-1.63,2.86l0,.18-.18,0a.62.62,0,0,1-.63-.15c-.22-.23-.24-.6-.06-1.14a4.31,4.31,0,0,1,.54-1l-4.2-4.26a2.27,2.27,0,0,0-2-.72,3.73,3.73,0,0,0-2,1.08,5.86,5.86,0,0,0-1,1.4A4.05,4.05,0,0,0,21,48.26Zm10.29,1.19-.06.07a3.48,3.48,0,0,0-.59,1,1,1,0,0,0-.08.58A4.54,4.54,0,0,1,31.33,49.45Z"/><path class="cls-1" d="M41.08,42.84a.59.59,0,0,0,.09.3c.14.18.41.2.83.06a5.62,5.62,0,0,0,1.36-.69,6,6,0,0,0,1.39,1.28,2.46,2.46,0,0,1-.43,1.39,5.45,5.45,0,0,1-1.49,1.68A5.22,5.22,0,0,1,40.2,48a2,2,0,0,1-2-.72,1.94,1.94,0,0,1-.27-.44l-4.67-10a7.31,7.31,0,0,1,1.16-2,10,10,0,0,1,1.88-1.86,7.69,7.69,0,0,1,3.05-1.51,3.18,3.18,0,0,1,2.84.55l8.57,6.9a4.56,4.56,0,0,1-2.11,3.56,4.74,4.74,0,0,1-2,1A1.8,1.8,0,0,1,45,43l-1-.94a3.86,3.86,0,0,0,.88-1c.24-.39.3-.66.19-.8a.37.37,0,0,0-.3-.15,3.06,3.06,0,0,1-.55,1,4.61,4.61,0,0,1-.82.83A3.85,3.85,0,0,1,41.08,42.84Zm0-4.17a.71.71,0,0,0,.21-.26A19.87,19.87,0,0,0,39.72,37a.41.41,0,0,0-.49,0,.71.71,0,0,0-.18.22l1.74,1.55A.37.37,0,0,0,41.07,38.67Z"/><path d="M39.82,48.28A2.17,2.17,0,0,1,38,47.44a2.13,2.13,0,0,1-.31-.5L33,36.81l0-.1a7.56,7.56,0,0,1,1.2-2.11,10.47,10.47,0,0,1,1.92-1.9,7.92,7.92,0,0,1,3.15-1.56,3.48,3.48,0,0,1,3.06.6l8.67,7v.12a4.8,4.8,0,0,1-2.22,3.76,4.9,4.9,0,0,1-2.13,1,2.09,2.09,0,0,1-1.86-.48L43.58,42l-.09.07-.09.07.15.16a6.08,6.08,0,0,0,1.27,1.21l.14.05,0,.15a2.56,2.56,0,0,1-.46,1.57,6.11,6.11,0,0,1-4.31,2.95A2.88,2.88,0,0,1,39.82,48.28ZM33.53,36.79l4.62,9.94a2.49,2.49,0,0,0,.24.4,1.82,1.82,0,0,0,1.78.62,5.09,5.09,0,0,0,2.51-1.09,5.27,5.27,0,0,0,1.41-1.6A2.52,2.52,0,0,0,44.5,44a7.71,7.71,0,0,1-1.18-1.11,5.88,5.88,0,0,1-1.24.61q-.8.25-1.11-.15a.73.73,0,0,1-.14-.45v-.27h.26a3.57,3.57,0,0,0,2.1-.89A4.47,4.47,0,0,0,44,40.9a2.75,2.75,0,0,0,.51-.92l.06-.19h.19a.62.62,0,0,1,.5.25c.25.32,0,.77-.17,1.09a4,4,0,0,1-.71.88l.82.75a1.55,1.55,0,0,0,1.42.35,4.56,4.56,0,0,0,1.91-.91,4.4,4.4,0,0,0,2-3.24L42,32.14a3,3,0,0,0-2.63-.5,7.42,7.42,0,0,0-2.94,1.46,9.86,9.86,0,0,0-1.83,1.82A7,7,0,0,0,33.53,36.79ZM40.82,39h-.14l-2-1.75.1-.18a.93.93,0,0,1,.24-.3.67.67,0,0,1,.79,0,20.39,20.39,0,0,1,1.6,1.41l.13.12-.07.16a.86.86,0,0,1-.29.37h0A.65.65,0,0,1,40.82,39Zm-1.41-1.84,1.46,1.31,0,0h0l0,0c-.92-.85-1.25-1.12-1.36-1.2A.26.26,0,0,0,39.41,37.19Z"/><path class="cls-1" d="M51.4,37.55l-5.7-9.84c-.19-.34-.08-.78.33-1.33a5.89,5.89,0,0,1,1.73-1.45A5.32,5.32,0,0,1,49,24.39a2.87,2.87,0,0,1,1.08-.1c.46.18.91.39,1.34.61l2.93,1.61a.37.37,0,0,0,.16-.19.31.31,0,0,0,0-.26,1.94,1.94,0,0,0-.57-.41l-2.12-1.21-.31-.54a4,4,0,0,1,.85-1.35,5.68,5.68,0,0,1,1.35-1.08A4.63,4.63,0,0,1,56,20.75a2.12,2.12,0,0,1,1.87,1.17l5.39,9.3a1.48,1.48,0,0,1-.09,1.7,4.8,4.8,0,0,1-1.64,1.4,6.5,6.5,0,0,1-1.32.59A3.64,3.64,0,0,1,59,35.1a23.9,23.9,0,0,1-2.55-1.2l-2-1.09a.33.33,0,0,0-.1.47,1.84,1.84,0,0,0,.65.47L57.45,35l.3.52a5.38,5.38,0,0,1-2.14,2.22,4.82,4.82,0,0,1-2.54.78A1.94,1.94,0,0,1,51.4,37.55Z"/><path d="M53.2,38.81h-.14a2.15,2.15,0,0,1-1.88-1.13l-5.7-9.83c-.25-.44-.14-1,.35-1.61a6.14,6.14,0,0,1,1.8-1.53A5.7,5.7,0,0,1,49,24.14,3.2,3.2,0,0,1,50.15,24c.52.21,1,.42,1.42.65s1.26.67,2.59,1.41l-.35-.22-2.18-1.24-.41-.71.05-.11a4.18,4.18,0,0,1,.9-1.43,5.75,5.75,0,0,1,1.41-1.13A4.82,4.82,0,0,1,56,20.5h0a2.36,2.36,0,0,1,2.1,1.3l5.38,9.29a1.72,1.72,0,0,1-.1,2,5.1,5.1,0,0,1-1.72,1.49,6.63,6.63,0,0,1-1.37.6,4,4,0,0,1-1.24.21l-.09,0c-.81-.33-1.68-.74-2.57-1.21l-1.7-.94a3.07,3.07,0,0,0,.52.34l2.44,1.3.41.71-.06.12A5.58,5.58,0,0,1,55.74,38,5.25,5.25,0,0,1,53.2,38.81ZM49.88,24.52a3.37,3.37,0,0,0-.78.12,5.21,5.21,0,0,0-1.21.51,5.83,5.83,0,0,0-1.66,1.39c-.34.45-.44.8-.3,1l5.7,9.84a1.64,1.64,0,0,0,1.45.87,4.62,4.62,0,0,0,2.4-.74,5.11,5.11,0,0,0,2-2l-.19-.33L55,34c-.55-.3-.69-.46-.76-.57a.59.59,0,0,1,.18-.8l.13-.11,2.12,1.18a25.59,25.59,0,0,0,2.47,1.16,3,3,0,0,0,1-.18,5.72,5.72,0,0,0,1.27-.56,4.49,4.49,0,0,0,1.55-1.33A1.22,1.22,0,0,0,63,31.35l-5.39-9.3A1.87,1.87,0,0,0,56,21a4.16,4.16,0,0,0-2.14.68,5.22,5.22,0,0,0-1.29,1,3.89,3.89,0,0,0-.76,1.15l.22.37,2.06,1.18c.48.26.6.4.66.5a.56.56,0,0,1,.05.49.63.63,0,0,1-.27.31l-.12.07-.13-.07c-1.53-.84-2.5-1.38-2.93-1.6a13.24,13.24,0,0,0-1.32-.6Z"/><path class="cls-1" d="M70.94,20l3.11,7.35a4.31,4.31,0,0,1-1,1.24,6.27,6.27,0,0,1-1.84,1.11,3.86,3.86,0,0,1-2.17.32,1.91,1.91,0,0,1-1.57-1.19l-2.85-6.73-2.43,1a4.38,4.38,0,0,1-1.75-2,3.91,3.91,0,0,1-.36-1.62,2.93,2.93,0,0,1,.26-1.29l10.8-4.58a5,5,0,0,1,1,.93,5.17,5.17,0,0,1,.76,1.24,2.85,2.85,0,0,1,.22,2.05,2.06,2.06,0,0,1-1.22,1.2l-3.06,1.29a.33.33,0,0,0,0,.17.27.27,0,0,0,.32.16,4.75,4.75,0,0,0,1-.34Z"/><path d="M69.59,30.36a3.68,3.68,0,0,1-.58-.05A2.13,2.13,0,0,1,67.24,29l-2.75-6.49-2.32,1-.11-.07a4.6,4.6,0,0,1-1.85-2.15,4.37,4.37,0,0,1-.38-1.73,3.1,3.1,0,0,1,.29-1.39l0-.09,11-4.67.12.08a5.72,5.72,0,0,1,1.83,2.28A3,3,0,0,1,73.36,18,2.29,2.29,0,0,1,72,19.3l-2.3,1,.42-.17.95-.41,3.26,7.69,0,.11a4.54,4.54,0,0,1-1,1.32A6.77,6.77,0,0,1,71.32,30,4.44,4.44,0,0,1,69.59,30.36Zm-4.82-8.55,3,7a1.62,1.62,0,0,0,1.37,1,3.54,3.54,0,0,0,2-.3,6.37,6.37,0,0,0,1.77-1.06,4.23,4.23,0,0,0,.87-1.06l-3-7-.48.2a4.66,4.66,0,0,1-1.09.37.54.54,0,0,1-.59-.32.63.63,0,0,1-.06-.27v-.17l3.22-1.36a1.84,1.84,0,0,0,1.08-1,2.62,2.62,0,0,0-.22-1.86,5.19,5.19,0,0,0-.72-1.18,4.64,4.64,0,0,0-.82-.79L60.54,18.43a2.91,2.91,0,0,0-.2,1.09A3.92,3.92,0,0,0,60.69,21a4.11,4.11,0,0,0,1.53,1.85Z"/><path class="cls-1" d="M91,18.52a.4.4,0,0,0,.18-.1l-.22-1a6.65,6.65,0,0,1,1.92-1.3,11.64,11.64,0,0,1,2.57-.91,4.65,4.65,0,0,1,1.38,1.57,7.65,7.65,0,0,1,.9,2.06A3.64,3.64,0,0,1,97.14,20a6.44,6.44,0,0,1-1,1.22,8.31,8.31,0,0,1-4,2,7.4,7.4,0,0,1-5.82-.78A7.7,7.7,0,0,1,83,17.31a7.33,7.33,0,0,1,1-6.07,6.53,6.53,0,0,1,2-1.87A8.08,8.08,0,0,1,88.59,8.3a7.6,7.6,0,0,1,4.87.33A4.18,4.18,0,0,1,96,11.57,2.68,2.68,0,0,1,95.56,14a4,4,0,0,1-2.33,1.27,3.92,3.92,0,0,1-1.83,0,2.1,2.1,0,0,1-1.22-.57c-.14-.6-.23-1.08-.29-1.43,0,0,0,0-.08,0l-.08,0a.42.42,0,0,0-.24.15,1,1,0,0,0-.07.43,9.47,9.47,0,0,0,.29,1.65C90.18,17.58,90.59,18.6,91,18.52Z"/><path d="M90,23.71a6.87,6.87,0,0,1-3.81-1.08,7.91,7.91,0,0,1-3.38-5.26,7.64,7.64,0,0,1,1-6.27,6.91,6.91,0,0,1,2-1.95,8.67,8.67,0,0,1,2.7-1.1,7.78,7.78,0,0,1,5,.35,4.4,4.4,0,0,1,2.67,3.11,2.94,2.94,0,0,1-.48,2.64,4.3,4.3,0,0,1-2.47,1.35,4.16,4.16,0,0,1-2,0A2.34,2.34,0,0,1,90,14.8l0-.1c-.09-.45-.17-.82-.23-1.12,0,.05,0,.12,0,.24A10.33,10.33,0,0,0,90,15.4a9.73,9.73,0,0,0,.85,2.72l-.18-.79.09-.1a7.07,7.07,0,0,1,2-1.35A11.5,11.5,0,0,1,95.35,15l.1,0,.09.06A4.77,4.77,0,0,1,97,16.64a7.85,7.85,0,0,1,.93,2.13v.12a4,4,0,0,1-.57,1.2,7.45,7.45,0,0,1-1.1,1.27,8.53,8.53,0,0,1-4.1,2.09A10,10,0,0,1,90,23.71Zm.71-15.4a9.28,9.28,0,0,0-2,.24,8,8,0,0,0-2.54,1,6.25,6.25,0,0,0-1.89,1.8,7.13,7.13,0,0,0-.93,5.87,7.47,7.47,0,0,0,3.15,4.94,7.21,7.21,0,0,0,5.62.75,8,8,0,0,0,3.86-2,6.38,6.38,0,0,0,1-1.17,3.79,3.79,0,0,0,.48-1,7.36,7.36,0,0,0-.85-1.93,4.7,4.7,0,0,0-1.21-1.43,11.58,11.58,0,0,0-2.4.87,6.69,6.69,0,0,0-1.76,1.15l.23,1-.11.1a.59.59,0,0,1-.31.17h0c-.46.1-.91-.41-1.54-3.26a8.43,8.43,0,0,1-.3-1.7,1,1,0,0,1,.12-.56.58.58,0,0,1,.4-.27l.07,0a.34.34,0,0,1,.2,0l.17,0,0,.17c0,.33.14.78.26,1.36a2.3,2.3,0,0,0,1,.43,3.68,3.68,0,0,0,1.71,0,3.82,3.82,0,0,0,2.19-1.18,2.45,2.45,0,0,0,.38-2.2,3.86,3.86,0,0,0-2.38-2.75A6.37,6.37,0,0,0,90.68,8.31Z"/><path class="cls-1" d="M103.91,16.85a.51.51,0,0,0-.09.31c0,.22.24.38.66.49a5.83,5.83,0,0,0,1.53.15,6.23,6.23,0,0,0,.47,1.82c-.11.3-.49.61-1.11.95a5.57,5.57,0,0,1-2.15.62,5.27,5.27,0,0,1-2.83-.46A2,2,0,0,1,99.08,19a1.78,1.78,0,0,1,0-.52l1.46-11a7.43,7.43,0,0,1,2.08-1.1,10,10,0,0,1,2.59-.55,7.59,7.59,0,0,1,3.38.36,3.24,3.24,0,0,1,2.1,2l3.51,10.44a4.59,4.59,0,0,1-3.7,1.86,4.92,4.92,0,0,1-2.23-.27A1.82,1.82,0,0,1,107.13,19l-.37-1.35a3.91,3.91,0,0,0,1.29-.38c.41-.2.6-.39.59-.57a.36.36,0,0,0-.18-.28,3.23,3.23,0,0,1-1,.55,4.64,4.64,0,0,1-1.14.26A3.81,3.81,0,0,1,103.91,16.85Zm2.23-3.52a.56.56,0,0,0,.32-.11c-.3-1.12-.49-1.79-.57-2s-.24-.31-.41-.29a.9.9,0,0,0-.26.09l.63,2.25A.41.41,0,0,0,106.14,13.33Z"/><path d="M102.61,21.47a5.22,5.22,0,0,1-2.34-.51,2.29,2.29,0,0,1-1.45-1.9,2.22,2.22,0,0,1,0-.58l1.48-11.07.09-.07a7.78,7.78,0,0,1,2.15-1.13,10.43,10.43,0,0,1,2.64-.57,8,8,0,0,1,3.5.38,3.48,3.48,0,0,1,2.25,2.15l3.55,10.55-.07.11a4.79,4.79,0,0,1-3.89,2,5,5,0,0,1-2.34-.29,2.05,2.05,0,0,1-1.31-1.4l-.43-1.59h-.23l0,.21a5.63,5.63,0,0,0,.42,1.7l.09.12,0,.15a2.59,2.59,0,0,1-1.23,1.08,5.73,5.73,0,0,1-2.25.64Q102.93,21.47,102.61,21.47ZM100.79,7.69,99.34,18.55a2.41,2.41,0,0,0,0,.47,1.82,1.82,0,0,0,1.17,1.48,5,5,0,0,0,2.69.43,5.28,5.28,0,0,0,2.06-.59,2.6,2.6,0,0,0,.94-.71,7.58,7.58,0,0,1-.4-1.57,5.54,5.54,0,0,1-1.37-.16c-.54-.14-.83-.38-.86-.72a.76.76,0,0,1,.13-.46l.13-.22.22.14a3.64,3.64,0,0,0,2.25.37,4.82,4.82,0,0,0,1.08-.24,3,3,0,0,0,.93-.51l.14-.12.16.1a.61.61,0,0,1,.29.47c0,.4-.4.67-.73.83a4,4,0,0,1-1.08.36l.3,1.08a1.57,1.57,0,0,0,1,1.06,4.49,4.49,0,0,0,2.1.25,4.39,4.39,0,0,0,3.44-1.64L110.45,8.33a2.94,2.94,0,0,0-1.94-1.83,7.53,7.53,0,0,0-3.27-.35,10.36,10.36,0,0,0-2.52.54A7.6,7.6,0,0,0,100.79,7.69Zm5.29,5.9a.58.58,0,0,1-.4-.13l-.06-.05-.7-2.52.18-.1a1,1,0,0,1,.36-.12.65.65,0,0,1,.66.44c.1.23.29.9.59,2.05l0,.17-.14.1a.9.9,0,0,1-.45.16Zm0-.51h.09c-.32-1.21-.45-1.62-.5-1.75s-.08-.12-.12-.13Z"/><path class="cls-1" d="M127.79,15.08l1.87,2.09a4.51,4.51,0,0,1-1.23,2.67,3.34,3.34,0,0,1-2.56.85,3.84,3.84,0,0,1-2.08-.67,4.31,4.31,0,0,1-1.62-2.39l-.36-1.12a8.77,8.77,0,0,1-1.2-.18.38.38,0,0,0-.1.25c0,.2.3.33.91.4l.57,1.66,0,1a5.61,5.61,0,0,1-3.38.78,4,4,0,0,1-2.31-.7,2,2,0,0,1-.8-1.78l.45-10.77q0-.51,1-.93a9.15,9.15,0,0,1,2.44-.66,15.74,15.74,0,0,1,3-.17A9,9,0,0,1,127.55,7a4.78,4.78,0,0,1,1.84,4.2,4.06,4.06,0,0,1-1,2.57,4.38,4.38,0,0,1-2.22,1.41c0,.24.13.37.42.38A2.15,2.15,0,0,0,127.79,15.08Zm-5.74-2.83a.74.74,0,0,0,.26,0,.36.36,0,0,0,.33-.16,1,1,0,0,0,.14-.55l0-.4a1.27,1.27,0,0,0-.08-.59.34.34,0,0,0-.31-.19.62.62,0,0,0-.3,0,.92.92,0,0,1,0,.19Z"/><path d="M126.09,21h-.23a4,4,0,0,1-2.22-.71,4.27,4.27,0,0,1-1.46-1.83l.07.2,0,1.15-.11.07a6,6,0,0,1-3.53.82,4.46,4.46,0,0,1-2.46-.75,2.27,2.27,0,0,1-.9-2l.46-10.77c0-.45.38-.82,1.1-1.16a10.1,10.1,0,0,1,2.51-.68,15.44,15.44,0,0,1,3-.16,9.18,9.18,0,0,1,5.41,1.67,5,5,0,0,1,1.94,4.41,4.31,4.31,0,0,1-1,2.73,4.67,4.67,0,0,1-2,1.36,1.91,1.91,0,0,0,1-.43l.19-.12,2.11,2.35,0,.12A4.87,4.87,0,0,1,128.61,20,3.5,3.5,0,0,1,126.09,21Zm-5.55-4.9.12,0a10.59,10.59,0,0,0,1.17.17H122l.42,1.3a4.11,4.11,0,0,0,1.51,2.25,3.58,3.58,0,0,0,1.95.62,3.09,3.09,0,0,0,2.38-.78,4.26,4.26,0,0,0,1.13-2.4l-1.65-1.84a2.11,2.11,0,0,1-1.12.4.74.74,0,0,1-.53-.21.6.6,0,0,1-.14-.44V15l.18-.05a4.17,4.17,0,0,0,2.09-1.33,3.84,3.84,0,0,0,.91-2.41,4.52,4.52,0,0,0-1.75-4,8.71,8.71,0,0,0-5.11-1.56,16,16,0,0,0-2.93.16,9,9,0,0,0-2.37.64c-.51.24-.8.49-.81.71l-.45,10.77a1.73,1.73,0,0,0,.69,1.56,3.78,3.78,0,0,0,2.17.65,5.6,5.6,0,0,0,3.12-.66l0-.78-.5-1.46c-.38,0-1-.18-1-.65a.56.56,0,0,1,.18-.43Zm1.07.7.12.33-.11-.33Zm.72-4.2h0a.75.75,0,0,1-.42-.1l-.1-.09.08-1.75v-.14l0-.18.16-.09a.85.85,0,0,1,.43-.06.6.6,0,0,1,.53.33,1.47,1.47,0,0,1,.1.72v.4a1.36,1.36,0,0,1-.19.7A.64.64,0,0,1,122.33,12.55Zm0-.52h0c.06,0,.08,0,.1,0s.08-.13.09-.41l0-.4a1.06,1.06,0,0,0-.05-.47s0,0-.09,0h0Z"/><path class="cls-1" d="M138.07,7.23l6.46,1.07a4.37,4.37,0,0,1,.28,1.25,4.36,4.36,0,0,1,0,1.16,2.73,2.73,0,0,1-.72,1.63,1.49,1.49,0,0,1-1.33.37L138.22,12c-.28-.05-.44,0-.47.26l0,.09a.22.22,0,0,0,0,.09l5.35.89a3.59,3.59,0,0,1,.2.93,4.37,4.37,0,0,1,0,1,3.86,3.86,0,0,1-.84,2l-2.43-.4a13.36,13.36,0,0,0-2.33-.26,2.75,2.75,0,0,0-.78.1.3.3,0,0,0-.19.23.27.27,0,0,0,.12.27,6.53,6.53,0,0,1,1.26-.06c.57,0,1.18.11,1.84.22l3.14.52a4,4,0,0,1,.3,2.43,5.65,5.65,0,0,1-.43,1.43,2.73,2.73,0,0,1-.76,1l-8.38-1.39a3.5,3.5,0,0,1-2.12-1,2.56,2.56,0,0,1-.57-2.26l1.77-10.64c.06-.36.51-.56,1.36-.58A21.74,21.74,0,0,1,138.07,7.23Z"/><path d="M142.24,23l-8.5-1.41a3.77,3.77,0,0,1-2.27-1.12,2.8,2.8,0,0,1-.63-2.47l1.77-10.65c.12-.74,1.24-.78,1.6-.79a21.4,21.4,0,0,1,3.9.39l6.6,1.09.06.14a4.79,4.79,0,0,1,.3,1.32,5.46,5.46,0,0,1,0,1.23,3.08,3.08,0,0,1-.81,1.77,1.7,1.7,0,0,1-1.41.45l.46.08.05.14a3.63,3.63,0,0,1,.22,1,4.92,4.92,0,0,1,0,1.11,4.08,4.08,0,0,1-.9,2.13l-.09.1.71.12.05.12a4.2,4.2,0,0,1,.33,2.58,5.62,5.62,0,0,1-.46,1.49,2.88,2.88,0,0,1-.83,1.12ZM134.46,7.1h-.23c-.67,0-1.08.16-1.12.37l-1.76,10.64a2.28,2.28,0,0,0,.5,2,3.32,3.32,0,0,0,2,1l8.27,1.37a2.73,2.73,0,0,0,.6-.86,5.51,5.51,0,0,0,.41-1.36,3.78,3.78,0,0,0-.22-2.16l-3-.5c-.65-.1-1.26-.18-1.82-.22a6.15,6.15,0,0,0-1.21.07h-.11l-.09-.07a.52.52,0,0,1-.2-.51.56.56,0,0,1,.33-.43,2.73,2.73,0,0,1,.88-.11,12.61,12.61,0,0,1,2.38.25l2.29.38a3.71,3.71,0,0,0,.68-1.76,4.41,4.41,0,0,0,0-1,4.38,4.38,0,0,0-.14-.72l-5.31-.87-.06-.09a.35.35,0,0,1-.05-.28v-.1c0-.13.14-.57.77-.46l4.51.74a1.21,1.21,0,0,0,1.11-.3,2.55,2.55,0,0,0,.65-1.48,4.85,4.85,0,0,0,0-1.1,4,4,0,0,0-.22-1l-6.31-1A24.49,24.49,0,0,0,134.46,7.1Zm3.32,9.77h.3c.37,0,.76.06,1.16.12a9.66,9.66,0,0,0-1.56-.14l-.54,0C137.35,16.88,137.56,16.87,137.78,16.87Z"/><path class="cls-1" d="M152.5,25.61a2.66,2.66,0,0,1-1.62-1.27,2.69,2.69,0,0,1,0-2.13l3.62-10.5a4.28,4.28,0,0,1,1.64-.27,6.09,6.09,0,0,1,1.79.33,3.8,3.8,0,0,1,2,1.4,2.5,2.5,0,0,1,.28,2.35l-2,5.87a3.69,3.69,0,0,0-1.29-.07q-.67.09-.78.39a.38.38,0,0,0,.09.38,5.08,5.08,0,0,1,3.46.19l2.55.88A5.44,5.44,0,0,1,162,26a5.72,5.72,0,0,1-.72,1.34,3.07,3.07,0,0,1-1,1Z"/><path d="M160.32,28.57l-7.91-2.72a2.93,2.93,0,0,1-1.76-1.4,3,3,0,0,1,0-2.33l3.65-10.6.11,0a4.66,4.66,0,0,1,1.75-.28,6,6,0,0,1,1.87.33,4.18,4.18,0,0,1,2.1,1.5,2.77,2.77,0,0,1,.32,2.58l-2.1,6.08a8.26,8.26,0,0,1,1.4.36l2.68.92,0,.15a5.72,5.72,0,0,1-.18,2.92,5.4,5.4,0,0,1-.75,1.41,3.45,3.45,0,0,1-1.1,1.07ZM154.7,11.91l-3.57,10.38a2.43,2.43,0,0,0,0,1.93,2.41,2.41,0,0,0,1.47,1.14L160.27,28a3.12,3.12,0,0,0,.83-.86,4.78,4.78,0,0,0,.87-3.8l-2.4-.82a4.85,4.85,0,0,0-3.29-.2l-.17.07-.12-.15a.65.65,0,0,1-.14-.63c.11-.3.43-.48,1-.55a3.74,3.74,0,0,1,1.16,0L160,15.44a2.26,2.26,0,0,0-.25-2.13,3.71,3.71,0,0,0-1.85-1.3,5.66,5.66,0,0,0-1.71-.31A4.15,4.15,0,0,0,154.7,11.91Zm2.65,9.64-.44,0a1,1,0,0,0-.55.18,4.47,4.47,0,0,1,1.85-.1l-.1,0A3.16,3.16,0,0,0,157.35,21.55Z"/><path class="cls-1" d="M168.19,32.27a8.3,8.3,0,0,1-3-2.37,6.49,6.49,0,0,1-1.33-3.48,8.23,8.23,0,0,1,.94-4.32,7.62,7.62,0,0,1,4.57-4.27,7.23,7.23,0,0,1,5.43.58,7,7,0,0,1,3.94,4.26,7.81,7.81,0,0,1-.63,5.88,7.71,7.71,0,0,1-4.47,4.34A7.33,7.33,0,0,1,168.19,32.27Zm4-7.18a7.55,7.55,0,0,0,.59-1.45c.06-.28,0-.47-.15-.54a.53.53,0,0,0-.33,0l-.17.52a14.26,14.26,0,0,1-.59,1.33l-.32.66a10.82,10.82,0,0,1-.53,1l-.31.52c0,.08-.09.15-.14.23a.49.49,0,0,0,.23.24c.16.08.34,0,.52-.22a7.77,7.77,0,0,0,.77-1.36Z"/><path d="M171.79,33.43a8.51,8.51,0,0,1-3.71-.93h0A8.6,8.6,0,0,1,165,30.06a6.81,6.81,0,0,1-1.39-3.62,8.6,8.6,0,0,1,1-4.45,7.83,7.83,0,0,1,4.72-4.4,7.52,7.52,0,0,1,5.62.59A7.33,7.33,0,0,1,179,22.59a8.06,8.06,0,0,1-.65,6.07,8,8,0,0,1-4.62,4.47A6.52,6.52,0,0,1,171.79,33.43ZM168.31,32a7,7,0,0,0,5.28.61,7.47,7.47,0,0,0,4.32-4.21,7.58,7.58,0,0,0,.62-5.68,6.86,6.86,0,0,0-3.81-4.11,7,7,0,0,0-5.25-.56,7.4,7.4,0,0,0-4.41,4.13,8,8,0,0,0-.91,4.19,6.17,6.17,0,0,0,1.28,3.34A7.88,7.88,0,0,0,168.31,32Zm2.27-4.18a.53.53,0,0,1-.24-.06.72.72,0,0,1-.35-.36l-.06-.12.52-.87c.12-.2.29-.53.51-1l.32-.66a9.54,9.54,0,0,0,.58-1.3c.08-.22.14-.39.18-.52l.05-.13.13,0a.78.78,0,0,1,.5.05c.16.08.41.29.29.84a7.45,7.45,0,0,1-.6,1.5l-.43.89a8.07,8.07,0,0,1-.81,1.41A.79.79,0,0,1,170.58,27.85Zm-.05-.54,0,0c.05,0,.14-.07.21-.15a7.89,7.89,0,0,0,.74-1.31l.43-.89a8,8,0,0,0,.57-1.39c0-.11,0-.24,0-.26h0c0,.09-.07.21-.12.34a12.53,12.53,0,0,1-.6,1.36l-.32.67c-.23.46-.41.81-.54,1Z"/><path class="cls-1" d="M188.21,28.84,184,34.68a1.77,1.77,0,0,0,.18.15q.31.21.66-.24L189.74,28a3.33,3.33,0,0,1,1.38.25,6.71,6.71,0,0,1,1.47.72A3.65,3.65,0,0,1,194.31,31a2.61,2.61,0,0,1-.39,2.15,18.37,18.37,0,0,1-2.17,2.29c-1.19,1.14-2.83,2.67-4.92,4.57a3.05,3.05,0,0,1-2.59.79,7.35,7.35,0,0,1-2.91-1.25,9.81,9.81,0,0,1-1.79-1.5,4.49,4.49,0,0,1-1-1.61A35.79,35.79,0,0,1,180,30.89a54,54,0,0,1,2.69-6.6,3.8,3.8,0,0,1,3.7.54Q188.87,26.47,188.21,28.84Z"/><path d="M184.74,41.07a4.89,4.89,0,0,1-.54,0,7.86,7.86,0,0,1-3-1.29,10,10,0,0,1-1.84-1.54,5.12,5.12,0,0,1-1.09-1.7l0-.06v-.07a35.67,35.67,0,0,1,1.48-5.57,54.49,54.49,0,0,1,2.7-6.63l0-.09.09,0a4.07,4.07,0,0,1,3.94.56c1.77,1.16,2.43,2.61,2,4.3l0,.09-4.11,5.63c.05,0,.13,0,.29-.2l5-6.72.11,0a3.6,3.6,0,0,1,1.5.27,7.8,7.8,0,0,1,1.53.74,4,4,0,0,1,1.82,2.21,2.87,2.87,0,0,1-.43,2.36,17.73,17.73,0,0,1-2.2,2.34c-1.19,1.13-2.84,2.67-4.93,4.57A3.27,3.27,0,0,1,184.74,41.07Zm-6-4.67a4.69,4.69,0,0,0,1,1.46,9.24,9.24,0,0,0,1.74,1.45,7.25,7.25,0,0,0,2.81,1.22,2.79,2.79,0,0,0,2.38-.73c2.08-1.9,3.73-3.43,4.91-4.56A17.6,17.6,0,0,0,193.7,33a2.3,2.3,0,0,0,.36-2,3.45,3.45,0,0,0-1.61-1.91,7.41,7.41,0,0,0-1.41-.69,3.45,3.45,0,0,0-1.16-.24L185,34.74c-.45.58-.85.41-1,.31a1.31,1.31,0,0,1-.23-.2l-.14-.15,4.34-6c.39-1.46-.18-2.66-1.75-3.69a3.57,3.57,0,0,0-3.37-.55A55.32,55.32,0,0,0,180.21,31,36.37,36.37,0,0,0,178.77,36.4Z"/><path class="cls-1" d="M201.6,36.09l5,4.22a3.86,3.86,0,0,1-.39,1.22,4.47,4.47,0,0,1-.62,1,2.75,2.75,0,0,1-1.45,1,1.48,1.48,0,0,1-1.33-.36l-3.5-3c-.22-.18-.39-.18-.54,0l-.05.07a.21.21,0,0,0,0,.09l4.15,3.49a3.32,3.32,0,0,1-.3.91,4.36,4.36,0,0,1-.56.87,3.88,3.88,0,0,1-1.74,1.3l-1.88-1.59a13.84,13.84,0,0,0-1.88-1.41,3.55,3.55,0,0,0-.72-.32.31.31,0,0,0-.28.11.27.27,0,0,0,0,.29,6,6,0,0,1,1.12.59A18.22,18.22,0,0,1,198,45.74l2.44,2a4,4,0,0,1-1,2.25,5.76,5.76,0,0,1-1.1,1,2.65,2.65,0,0,1-1.17.49l-6.5-5.47a3.5,3.5,0,0,1-1.29-2,2.56,2.56,0,0,1,.66-2.23l7-8.25c.23-.28.72-.21,1.46.2A21.22,21.22,0,0,1,201.6,36.09Z"/><path d="M197.12,51.81l-6.59-5.55a3.76,3.76,0,0,1-1.37-2.13,2.77,2.77,0,0,1,.72-2.44l7-8.26c.49-.57,1.46,0,1.79.14a23.22,23.22,0,0,1,3.15,2.32l5.12,4.32,0,.14a4.33,4.33,0,0,1-.42,1.29,5.31,5.31,0,0,1-.65,1,3.09,3.09,0,0,1-1.6,1.12,1.75,1.75,0,0,1-1.44-.33l.35.29,0,.15a4.14,4.14,0,0,1-.32,1,5.28,5.28,0,0,1-.6.94,4.12,4.12,0,0,1-1.87,1.37l-.13,0,.55.46v.14a4.23,4.23,0,0,1-1,2.38,6,6,0,0,1-1.15,1,3,3,0,0,1-1.28.54Zm.32-18.12a.26.26,0,0,0-.22.08L190.27,42a2.32,2.32,0,0,0-.61,2,3.28,3.28,0,0,0,1.21,1.83l6.4,5.4a2.69,2.69,0,0,0,1-.43,5.23,5.23,0,0,0,1-1,3.83,3.83,0,0,0,.92-2l-2.34-2c-.5-.42-1-.8-1.45-1.12a6.42,6.42,0,0,0-1.07-.56l-.1,0,0-.11a.52.52,0,0,1,.08-.55.59.59,0,0,1,.51-.19,2.65,2.65,0,0,1,.82.35,13.14,13.14,0,0,1,1.91,1.43l1.77,1.5a3.9,3.9,0,0,0,1.49-1.17,4.25,4.25,0,0,0,.53-.83,3.44,3.44,0,0,0,.25-.69l-4.11-3.46v-.11a.36.36,0,0,1,.1-.28l.06-.06a.55.55,0,0,1,.38-.21.66.66,0,0,1,.51.2L203,43a1.21,1.21,0,0,0,1.11.31,2.57,2.57,0,0,0,1.31-.94,4.51,4.51,0,0,0,.59-.93,3.88,3.88,0,0,0,.34-1l-4.89-4.12A21.44,21.44,0,0,0,198.37,34,2.2,2.2,0,0,0,197.44,33.69Zm-1.58,10.24a6.73,6.73,0,0,1,.83.46c.31.22.62.45.94.7a9.11,9.11,0,0,0-1.28-.92A4.89,4.89,0,0,0,195.86,43.93Z"/><path class="cls-1" d="M211,58.1l-.14,2.81a4.52,4.52,0,0,1-2.75,1,3.31,3.31,0,0,1-2.42-1.2,3.8,3.8,0,0,1-1-1.94,4.36,4.36,0,0,1,.53-2.83l.54-1.06a10.49,10.49,0,0,1-.73-1,.37.37,0,0,0-.24.11c-.15.14,0,.44.36.92l-.76,1.58-.71.66a5.68,5.68,0,0,1-3-1.83,4.15,4.15,0,0,1-1.15-2.12,2,2,0,0,1,.69-1.83l7.91-7.33c.24-.23.68-.22,1.33,0a9,9,0,0,1,2.19,1.25,16.35,16.35,0,0,1,2.24,2,8.88,8.88,0,0,1,2.59,4.85,4.82,4.82,0,0,1-1.64,4.29,4.08,4.08,0,0,1-2.5,1.14,4.52,4.52,0,0,1-2.57-.56c-.18.16-.17.35,0,.56A2.07,2.07,0,0,0,211,58.1ZM209,52.05s0,.11.15.22a.38.38,0,0,0,.35.12,1.06,1.06,0,0,0,.48-.29l.3-.28a1.45,1.45,0,0,0,.37-.47.34.34,0,0,0-.09-.35.66.66,0,0,0-.24-.19l-.13.14Z"/><path d="M208.2,62.2h-.06a3.61,3.61,0,0,1-2.6-1.29,4,4,0,0,1-1.07-2.07,4.33,4.33,0,0,1,.25-2.33l-.13.23-.8.75-.13,0a6,6,0,0,1-3.09-1.9,4.42,4.42,0,0,1-1.21-2.27,2.21,2.21,0,0,1,.77-2l7.9-7.33c.32-.3.85-.31,1.6,0a9.4,9.4,0,0,1,2.26,1.28,16.22,16.22,0,0,1,2.27,2,9.21,9.21,0,0,1,2.66,5,5.06,5.06,0,0,1-1.73,4.51,4.31,4.31,0,0,1-2.65,1.2,4.62,4.62,0,0,1-2.35-.41,1.89,1.89,0,0,0,1,.39l.22,0L211.15,61l-.09.08A4.89,4.89,0,0,1,208.2,62.2Zm-3.15-8.51h.15l.08.11a8.48,8.48,0,0,0,.7.94l.12.13-.62,1.21a4.16,4.16,0,0,0-.51,2.67,3.62,3.62,0,0,0,.95,1.81,3.06,3.06,0,0,0,2.23,1.12,4.08,4.08,0,0,0,2.5-.91l.12-2.46a2.17,2.17,0,0,1-1.08-.51.61.61,0,0,1,0-.93l.13-.13.17.09a4.17,4.17,0,0,0,2.42.53,3.85,3.85,0,0,0,2.34-1.07,4.52,4.52,0,0,0,1.57-4.07,8.68,8.68,0,0,0-2.53-4.7,15.19,15.19,0,0,0-2.2-2,9.12,9.12,0,0,0-2.13-1.22c-.53-.19-.91-.21-1.07-.06l-7.91,7.33a1.74,1.74,0,0,0-.6,1.6,3.88,3.88,0,0,0,1.08,2,5.56,5.56,0,0,0,2.69,1.72l.57-.53.67-1.4c-.24-.3-.58-.82-.24-1.14A.6.6,0,0,1,205.05,53.69Zm.43,1.25-.16.32.16-.31Zm3.91-2.28a.63.63,0,0,1-.47-.22.66.66,0,0,1-.22-.36V52L210,50.76l.1-.1.11-.15.18.05a1.11,1.11,0,0,1,.35.26.61.61,0,0,1,.14.61,1.53,1.53,0,0,1-.43.58l-.3.28a1.27,1.27,0,0,1-.62.36Zm-.09-.57h0a.11.11,0,0,0,.12,0,.92.92,0,0,0,.35-.23l.3-.28a1,1,0,0,0,.29-.36s0-.05,0-.1l0,0Z"/><path class="cls-1" d="M217.22,64.23a2.39,2.39,0,0,0-.42-1,.39.39,0,0,0-.61-.11l0,0a3.24,3.24,0,0,1,.49,2.37,3.17,3.17,0,0,1-1.27,2.09,3.14,3.14,0,0,1-2.4.61A3.25,3.25,0,0,1,210.81,67a3.27,3.27,0,0,1,2.24-5.22,3.4,3.4,0,0,1,1.7.25,10.6,10.6,0,0,1,1.51-2.51,12.11,12.11,0,0,1,2.28-2.24l3-2.24a4.1,4.1,0,0,1,1.19.66,5.21,5.21,0,0,1,1.1,1.1,3.06,3.06,0,0,1,.8,2.47,4.34,4.34,0,0,1-1.84,2.35l-.58.43A12.69,12.69,0,0,1,217.22,64.23Z"/><path d="M213.48,68.52a3.27,3.27,0,0,1-.54,0,3.55,3.55,0,0,1-3-4,3.4,3.4,0,0,1,1.35-2.32,3.52,3.52,0,0,1,1.74-.69,3.7,3.7,0,0,1,1.59.17,12,12,0,0,1,1.44-2.34A12.71,12.71,0,0,1,218.39,57l3.05-2.31.13,0a4.34,4.34,0,0,1,1.27.69A6.26,6.26,0,0,1,224,56.59a3.39,3.39,0,0,1,.85,2.68,4.57,4.57,0,0,1-2,2.5l-.58.44a12.94,12.94,0,0,1-5,2.27l-.25.06-.06-.25a2.38,2.38,0,0,0-.37-.89l0,0a3.56,3.56,0,0,1-1,4.45A3.33,3.33,0,0,1,213.48,68.52Zm0-6.55-.35,0a3.07,3.07,0,0,0-1.49.59,2.88,2.88,0,0,0-1.15,2,2.82,2.82,0,0,0,.58,2.23A2.9,2.9,0,0,0,213,68a2.81,2.81,0,0,0,2.21-.56,2.94,2.94,0,0,0,1.17-1.92,3,3,0,0,0-.46-2.19l-.13-.2L216,63a.65.65,0,0,1,1,.13,2.57,2.57,0,0,1,.4.83A12.35,12.35,0,0,0,222,61.8l.58-.44a4.16,4.16,0,0,0,1.75-2.19,2.9,2.9,0,0,0-.75-2.27,5.5,5.5,0,0,0-1.05-1,4.29,4.29,0,0,0-1-.57l-2.84,2.15a12,12,0,0,0-2.24,2.2A10.4,10.4,0,0,0,215,62.08l-.1.23-.24-.1A3.2,3.2,0,0,0,213.43,62Z"/><path class="cls-1" d="M74.79,199.46c0,.91,4.3,1.85,9.68,2.09s9.79-.29,9.83-1.21-4.29-1.85-9.68-2.09S74.84,198.55,74.79,199.46Z"/><path d="M86.93,201.86c-.9,0-1.75,0-2.47-.05-3.46-.16-10-.85-9.92-2.36,0-.39.36-.94,3.13-1.29a43.71,43.71,0,0,1,7-.17c3.47.16,10,.85,9.93,2.36C94.51,201.55,90.36,201.86,86.93,201.86Zm-4.84-3.41a34.73,34.73,0,0,0-4.35.23c-2.18.26-2.68.67-2.69.79,0,.48,3.29,1.55,9.44,1.83s9.53-.5,9.56-1-3.29-1.55-9.44-1.83C83.75,198.47,82.9,198.45,82.09,198.45Z"/><path d="M94.54,151.39a3.89,3.89,0,0,0-1.36-5.18A3.82,3.82,0,0,0,88,147.57c-4.83,10.1-8.58,21.05-9.37,32.28A84.7,84.7,0,0,0,79,196.92a168.07,168.07,0,0,0,3.39,17.68c1.15,4.74,8.46,2.73,7.31-2a160.6,160.6,0,0,1-3.16-16,78.55,78.55,0,0,1-.36-16.08C86.82,170.46,90.19,160.46,94.54,151.39Z"/><path d="M85.76,217.56a3.58,3.58,0,0,1-3.64-2.9A167.15,167.15,0,0,1,78.73,197a83.33,83.33,0,0,1-.36-17.12c.7-10,3.77-20.63,9.39-32.37a3.46,3.46,0,0,1,2.2-1.8,4.22,4.22,0,0,1,3.35.33,4.14,4.14,0,0,1,1.46,5.51c-5,10.37-7.77,20.14-8.36,29.05a78.32,78.32,0,0,0,.37,16,157.24,157.24,0,0,0,3.15,15.95,4,4,0,0,1-3.11,4.91A4.66,4.66,0,0,1,85.76,217.56ZM91.26,146a3.73,3.73,0,0,0-1.15.17,3,3,0,0,0-1.88,1.53c-5.59,11.68-8.65,22.21-9.35,32.19a83.68,83.68,0,0,0,.36,17,166.2,166.2,0,0,0,3.38,17.66,3.17,3.17,0,0,0,4.08,2.39,3.48,3.48,0,0,0,2.73-4.28,158.23,158.23,0,0,1-3.16-16,78.6,78.6,0,0,1-.37-16.13c.59-9,3.41-18.81,8.4-29.24h0a3.65,3.65,0,0,0-1.25-4.85A3.55,3.55,0,0,0,91.26,146Z"/><path class="cls-1" d="M94.3,200.34l-.39,19.11H61a12.31,12.31,0,0,1,2-7.31c3.8-5.3,11.6-4,11.6-4V208l.1-8.62h0a.19.19,0,0,0,0,.1c0,.91,4.3,1.85,9.69,2.1S94.26,201.25,94.3,200.34Z"/><path d="M60.77,219.72v-.26A12.74,12.74,0,0,1,62.85,212c3.43-4.77,10.08-4.3,11.56-4.13l.11-8.77h.68l-.16.38.07.09c.61.67,4.28,1.5,9.38,1.73,6.14.27,9.53-.5,9.56-1l.51,0-.39,19.36Zm11.8-11.44c-2.53,0-6.82.57-9.3,4a12,12,0,0,0-2,6.9H93.66L94,201c-1.63.9-6.68.95-9.57.82-4.48-.2-8.19-.87-9.44-1.66l-.1,8.32-.3-.05A12.58,12.58,0,0,0,72.57,208.28Z"/><path d="M78.73,209.7a7.87,7.87,0,0,1-1.18-.27c-.38-.1-.73-.24-1.1-.32s-.71-.24-1.07-.38a11.25,11.25,0,0,1-1.12-.47v0a8.52,8.52,0,0,1,2.34.41,9.49,9.49,0,0,1,2.15,1Z"/><path d="M79.56,208.2a11.28,11.28,0,0,1-1.28.06c-.41,0-.8,0-1.21,0s-.8,0-1.21-.07a9.85,9.85,0,0,1-1.27-.14V208a9.54,9.54,0,0,1,5,.17Z"/><path d="M75,218.78a5.19,5.19,0,0,1,0,.68H61a12.31,12.31,0,0,1,2-7.31,4.32,4.32,0,0,1,1.49,1.6,6.58,6.58,0,0,1,3-1.74,2.56,2.56,0,0,1,2.91,1.45c.1.31.14.67.4.86a1.36,1.36,0,0,0,.73.17C73.63,214.65,75,216.77,75,218.78Z"/><path d="M60.77,219.72v-.26A12.74,12.74,0,0,1,62.85,212l.15-.2.2.13a4.69,4.69,0,0,1,1.42,1.42,6.47,6.47,0,0,1,2.93-1.6,2.8,2.8,0,0,1,3.19,1.63l.06.22a1,1,0,0,0,.25.52,1.16,1.16,0,0,0,.5.11h.09c2.19.18,3.65,2.5,3.64,4.55a5.63,5.63,0,0,1,0,.71l0,.22Zm2.36-7.21a12.17,12.17,0,0,0-1.84,6.69H74.75c0-.14,0-.28,0-.42h0c0-1.82-1.27-3.88-3.16-4h-.09a1.41,1.41,0,0,1-.78-.21,1.35,1.35,0,0,1-.43-.8l-.06-.19a2.31,2.31,0,0,0-2.61-1.28,6.4,6.4,0,0,0-2.92,1.68l-.24.21-.15-.28A4.1,4.1,0,0,0,63.13,212.51Z"/><path class="cls-1" d="M135.34,199.46c0,.91-4.29,1.85-9.68,2.09s-9.78-.29-9.82-1.21,4.29-1.85,9.68-2.09S135.3,198.55,135.34,199.46Z"/><path d="M123.13,201.87a38.14,38.14,0,0,1-4.42-.23c-2.77-.34-3.11-.9-3.13-1.29s.27-1,3-1.56a49.91,49.91,0,0,1,13.88-.63c2.77.35,3.11.9,3.13,1.29.07,1.51-6.46,2.2-9.92,2.36C124.81,201.85,124,201.87,123.13,201.87Zm4.92-3.42c-.81,0-1.66,0-2.52.05a42.81,42.81,0,0,0-6.84.8c-2.14.46-2.6.91-2.6,1s.51.53,2.69.8a45,45,0,0,0,6.87.17c6.15-.28,9.46-1.35,9.44-1.83,0-.12-.51-.53-2.69-.79A34.84,34.84,0,0,0,128.05,198.45Z"/><path d="M115.6,151.39a3.89,3.89,0,0,1,1.36-5.18c1.66-1,4.3-.5,5.18,1.36,4.84,10.1,8.59,21.05,9.37,32.28a84,84,0,0,1-.35,17.07,168.07,168.07,0,0,1-3.39,17.68c-1.15,4.74-8.46,2.73-7.31-2a160.6,160.6,0,0,0,3.16-16,79.27,79.27,0,0,0,.36-16.08C123.32,170.46,119.94,160.46,115.6,151.39Z"/><path d="M124.38,217.56a4.66,4.66,0,0,1-1.06-.12,4,4,0,0,1-3.11-4.91,161.17,161.17,0,0,0,3.15-15.95,78.32,78.32,0,0,0,.37-16c-.59-8.91-3.4-18.68-8.36-29.05h0a4.13,4.13,0,0,1,1.46-5.51,4.22,4.22,0,0,1,3.35-.33,3.46,3.46,0,0,1,2.2,1.8c5.62,11.74,8.69,22.33,9.39,32.37a84,84,0,0,1-.36,17.12A166.68,166.68,0,0,1,128,214.66,3.59,3.59,0,0,1,124.38,217.56ZM118.88,146a3.55,3.55,0,0,0-1.79.45,3.66,3.66,0,0,0-1.26,4.85h0c5,10.43,7.82,20.26,8.41,29.24a78.6,78.6,0,0,1-.37,16.13,158.77,158.77,0,0,1-3.16,16,3.48,3.48,0,0,0,2.73,4.28,3.17,3.17,0,0,0,4.08-2.39,165.73,165.73,0,0,0,3.38-17.66,83.68,83.68,0,0,0,.36-17c-.7-10-3.76-20.51-9.35-32.19a3,3,0,0,0-1.88-1.53A3.77,3.77,0,0,0,118.88,146Z"/><path class="cls-1" d="M115.84,200.34l.39,19.11h32.88a12.31,12.31,0,0,0-2-7.31c-3.8-5.3-11.61-4-11.61-4V208l-.11-8.62h0a.18.18,0,0,1,0,.1c0,.91-4.29,1.85-9.68,2.1S115.88,201.25,115.84,200.34Z"/><path d="M149.37,219.72H116l-.39-19.36.51,0c0,.47,3.42,1.24,9.56,1,5.1-.23,8.77-1.06,9.38-1.73,0,0,.06-.08.06-.1l-.21-.38h.69l.05.26.11,8.51c1.48-.17,8.13-.64,11.56,4.13a12.66,12.66,0,0,1,2.07,7.46Zm-32.89-.53h32.37a12,12,0,0,0-2-6.9c-3.66-5.11-11.28-3.9-11.35-3.88l-.3.05V208l-.09-7.84c-1.25.79-5,1.46-9.44,1.66-2.89.13-7.94.08-9.57-.82Z"/><path d="M131.38,209.66a3.27,3.27,0,0,1,.9-.88,5.55,5.55,0,0,1,1.12-.55,5.11,5.11,0,0,1,1.23-.21,3.1,3.1,0,0,1,1.24.19v0a9.83,9.83,0,0,0-4.47,1.44Z"/><path d="M130.56,208.15a3.69,3.69,0,0,1,1.18-.61,7.1,7.1,0,0,1,1.29-.22,6.4,6.4,0,0,1,1.31.13,3.57,3.57,0,0,1,1.22.53V208a10.84,10.84,0,0,0-5,.17Z"/><path d="M135.11,218.78c0,.23,0,.45,0,.68h14a12.31,12.31,0,0,0-2-7.31,4.43,4.43,0,0,0-1.5,1.6,6.5,6.5,0,0,0-3-1.74,2.56,2.56,0,0,0-2.91,1.45c-.1.31-.14.67-.4.86a1.38,1.38,0,0,1-.73.17C136.51,214.65,135.11,216.77,135.11,218.78Z"/><path d="M149.37,219.72H134.93l0-.22a5.63,5.63,0,0,1,0-.71h0c0-2.05,1.45-4.37,3.63-4.55h.1a1.16,1.16,0,0,0,.5-.11.94.94,0,0,0,.24-.52,1.42,1.42,0,0,1,.07-.22,2.8,2.8,0,0,1,3.19-1.63,6.52,6.52,0,0,1,2.93,1.6,4.69,4.69,0,0,1,1.42-1.42l.2-.13.15.2a12.66,12.66,0,0,1,2.07,7.46Zm-14-.52h13.46a12.17,12.17,0,0,0-1.84-6.69,4.1,4.1,0,0,0-1.2,1.36l-.15.28-.25-.21a6.32,6.32,0,0,0-2.91-1.68,2.31,2.31,0,0,0-2.61,1.28l-.06.19a1.35,1.35,0,0,1-.43.8,1.41,1.41,0,0,1-.78.21h-.09c-1.9.16-3.16,2.22-3.16,4h0C135.37,218.92,135.38,219.06,135.39,219.2Z"/><path class="cls-2" d="M177.27,71.44l-3.17-1.8c7.41-9.9,13.24-17,13.24-17a54.51,54.51,0,0,0-12.75,7.16l-4.05-2.75,2,4.31a141.45,141.45,0,0,0-11.6,10L157.15,70l2.22,2.91c-3.77,3.68-7.49,7.59-11.06,11.54l-3.19-1.23,2,2.58c-5.2,5.82-10,11.66-14.18,16.87l-2.35-.9,1.5,2c-8,10.14-13.27,17.69-13.27,17.69l24.69,3.25c-.19-5.88,4.44-15.61,10.74-26l3-1.38-2-.24c2.24-3.63,4.66-7.33,7.13-11l4.12-.13-2.89-1.65c3-4.43,6.15-8.72,9.06-12.65Z"/><path d="M143.76,124.93l-25.41-3.34.24-.35c0-.07,5.29-7.59,13.16-17.55l-1.94-2.53,3,1.17c4.71-5.92,9.4-11.49,13.93-16.58l-2.4-3.14,3.88,1.49C152,80,155.58,76.21,159,72.84l-2.64-3.44,4.44,1.7a142.26,142.26,0,0,1,11.34-9.81l-2.24-4.95,4.65,3.15a54.53,54.53,0,0,1,12.67-7.08l.89-.32-.6.72c-.06.07-5.82,7.09-13.06,16.75l3.71,2.11-5.41.17c-3.15,4.25-6.12,8.39-8.83,12.31l3.44,2-4.9.15c-2.52,3.7-4.82,7.23-6.84,10.5l2.53.31-3.77,1.72c-7.24,12-10.83,20.67-10.66,25.83Zm-24.51-3.74,24,3.15c0-5.29,3.6-14,10.78-25.87l0-.07,2.26-1-1.52-.19.21-.34c2.1-3.4,4.5-7.09,7.14-11l.08-.11,3.33-.11-2.34-1.34.15-.23c2.78-4,5.83-8.28,9.08-12.65l.07-.1,3.84-.12-2.63-1.5.17-.24c6-8,11-14.17,12.64-16.25A56.56,56.56,0,0,0,174.74,60l-.15.1-3.43-2.33,1.65,3.66-.16.12a139.81,139.81,0,0,0-11.58,10l-.12.11-3-1.17,1.81,2.36-.17.16c-3.52,3.44-7.24,7.32-11.05,11.53l-.11.13-2.51-1,1.55,2-.14.16c-4.61,5.17-9.38,10.84-14.17,16.86l-.12.15-1.67-.64,1.07,1.4-.12.16C125.31,112.67,120.38,119.59,119.25,121.19Z"/><path class="cls-3" d="M196.88,69.54l-3-.87c3.26-3.08,5.32-4.75,5.32-4.75-3.66.38-8.44,3.08-13.72,7.13l-3.1-2.36,1.43,3.67c-3.47,2.79-7.12,6.1-10.8,9.67l-2.91-2.21,1.43,3.67c-3.16,3.12-6.31,6.41-9.36,9.71l-2.75-2.09,1.39,3.57c-3.43,3.74-6.71,7.46-9.68,10.92l-3.27-2.49,1.69,4.34c-7.61,8.94-12.86,15.68-12.86,15.68l18.54,2.67a114,114,0,0,1,7-16.17l4-1.1-2.94-.85a143.35,143.35,0,0,1,8.64-13.78l4-1.11L173.29,92a173.57,173.57,0,0,1,18.63-21.47Z"/><path d="M155.39,126.08l-19.18-2.76.27-.35c.05-.06,5.29-6.79,12.76-15.57l-2-5,3.8,2.89c3.21-3.73,6.38-7.31,9.42-10.63l-1.66-4.27,3.29,2.5c3.17-3.42,6.23-6.59,9.09-9.43l-1.7-4.36L173,81.69c3.79-3.67,7.32-6.84,10.51-9.41l-1.69-4.35,3.67,2.79c5.68-4.33,10.28-6.7,13.69-7l.86-.09-.67.54s-1.95,1.59-5,4.43l3.59,1L192,70.78a173.06,173.06,0,0,0-18.32,21.09l3.21.92-4.84,1.34a142,142,0,0,0-8.42,13.39l3.51,1-4.77,1.31a113.65,113.65,0,0,0-6.95,16Zm-18.23-3.14L155,125.51a115.33,115.33,0,0,1,7-16l.05-.1,3.23-.88-2.38-.69.15-.28a145.13,145.13,0,0,1,8.66-13.8l.06-.08,3.25-.9-2.16-.62.21-.3a174.43,174.43,0,0,1,18.66-21.5l0-.06,4-.81-2.44-.7.33-.31c2.13-2,3.76-3.43,4.63-4.17-3.25.64-7.51,3-12.69,6.94l-.15.12-2.54-1.93,1.17,3-.15.11c-3.26,2.62-6.88,5.87-10.78,9.66l-.16.15-2.36-1.79,1.16,3-.12.12c-2.94,2.91-6.08,6.17-9.35,9.7l-.16.17L160,91.86l1.12,2.87-.11.12c-3.12,3.41-6.37,7.08-9.67,10.92l-.16.18-2.74-2.08,1.42,3.63-.1.11C143.18,115.31,138.33,121.44,137.16,122.94Z"/><path class="cls-2" d="M195.16,87.84l4.46,2.61-1.94-4.07a75.86,75.86,0,0,1,9.16-4.46,50.77,50.77,0,0,0-6.28.9L198.23,79v4.33a54.29,54.29,0,0,0-8,2.68l-2-3.29v4.18a62.75,62.75,0,0,0-7.73,4.29l-2.56-2.54.9,3.65a77.23,77.23,0,0,0-9.46,7.76l-3.64-1.94,2.06,3.5a96.83,96.83,0,0,0-17.19,23.74l9.46,1.39a69.81,69.81,0,0,1,8.07-14.56l4,1.1-2.55-3a79.44,79.44,0,0,1,6.31-7.29l3.71,2.16-1.89-4A93.45,93.45,0,0,1,185,94.85l3.78,2.21L187,93.33C189.85,91.18,192.63,89.36,195.16,87.84Z"/><path d="M160.2,127.06l-10-1.48.15-.31a97.68,97.68,0,0,1,17.09-23.67L165,97.49l4.29,2.28a76.24,76.24,0,0,1,9.21-7.56l-1.08-4.36,3.07,3A63.61,63.61,0,0,1,188,86.75V81.83l2.38,3.87A57.37,57.37,0,0,1,198,83.14v-5l2.72,4.42a54.14,54.14,0,0,1,6.13-.87l1.82-.15-1.71.65A73.86,73.86,0,0,0,198,86.49l2.19,4.6-5.05-3c-2.71,1.63-5.36,3.4-7.89,5.27l2,4.29L185,95.16a90.12,90.12,0,0,0-7,6.09l2.17,4.56-4.25-2.49a78.54,78.54,0,0,0-6,7l3,3.49-4.61-1.27a70.54,70.54,0,0,0-7.93,14.36ZM151,125.18l8.91,1.31a70.72,70.72,0,0,1,8-14.43l.1-.15,3.35.93-2.16-2.54.13-.16a81.81,81.81,0,0,1,6.34-7.32l.14-.15,3.16,1.85-1.62-3.39.14-.13a94.29,94.29,0,0,1,7.31-6.35l.14-.11,3.21,1.87-1.51-3.16.17-.13c2.63-2,5.4-3.8,8.23-5.5l.13-.08L199,89.8l-1.69-3.53.21-.12c3.31-1.85,6-3.11,7.6-3.81-1.51.18-3,.42-4.54.73l-.17,0-1.95-3.17v3.61l-.19,0a54.92,54.92,0,0,0-8,2.66l-.21.09-1.65-2.69v3.42l-.15.07a63.58,63.58,0,0,0-7.69,4.27l-.18.12-2.06-2.05.72,2.94-.15.1a77.13,77.13,0,0,0-9.42,7.74l-.13.13-3-1.6,1.7,2.88-.14.15A98,98,0,0,0,151,125.18Z"/><path class="cls-2" d="M83,118.6a98.28,98.28,0,0,0-5.5-21l3-2.47-3.8.51A92.57,92.57,0,0,0,71,83.75L73.77,80l-4,1.61a74,74,0,0,0-6.6-9l2.43-3.25-3.93,1.56A58,58,0,0,0,41.87,56.7,103.34,103.34,0,0,1,51.1,67.06L48,68.25l4.63.84A120.18,120.18,0,0,1,64.09,87.2l-2.88,2.64L65,89.1a92.61,92.61,0,0,1,6,15.82l-3.34,2.23,3.88-.15a74.59,74.59,0,0,1,2.12,13.61Z"/><path d="M73.47,120.93l0-.3a75.23,75.23,0,0,0-2-13.37l-4.59.18,3.94-2.63a93.58,93.58,0,0,0-5.86-15.42l-4.52.88,3.41-3.13A121.21,121.21,0,0,0,52.53,69.32l-5.44-1L50.68,67a102.91,102.91,0,0,0-9-10.07l-1.08-1,1.36.59A58.35,58.35,0,0,1,61.69,70.62l4.61-1.84L63.45,72.6a74.6,74.6,0,0,1,6.37,8.72l4.7-1.87-3.23,4.32a91.67,91.67,0,0,1,5.64,11.6l4.51-.6-3.6,2.93a99.83,99.83,0,0,1,5.45,20.87l0,.23Zm-1.68-14.2,0,.2a75.4,75.4,0,0,1,2.1,13.37l8.81-1.91a101.21,101.21,0,0,0-5.46-20.68l-.06-.17,2.47-2-3.1.42-.07-.19a93.25,93.25,0,0,0-5.77-11.87l-.08-.15L73,80.6,69.61,82l-.11-.19a73.32,73.32,0,0,0-6.58-9l-.13-.15,2-2.69-3.25,1.29-.12-.13A58.29,58.29,0,0,0,43.07,57.52,115.89,115.89,0,0,1,51.3,66.9l.22.27-2.54,1,3.84.69.06.08A121.19,121.19,0,0,1,64.32,87.08l.09.18-2.35,2.15,3.12-.6.09.18a94.15,94.15,0,0,1,6,15.86l0,.18-2.74,1.82Z"/><path class="cls-3" d="M120.62,106.23l-3.82-.79c0-4.45-.13-9.6-.39-15.09l3.53-1.28-3.64-.75c-.37-6.75-1-13.93-2-20.93l3.31-2.61-3.62.55a128.53,128.53,0,0,0-2.93-14l3.08-2.59-3.66.55a62,62,0,0,0-4-10.44l2.5-3L105.45,37c-2.65-4.64-5.92-8.06-9.93-9.64,0,0,.41,1.9,1,5.36l-3.21-.41L96.91,35c.51,3.2,1.11,7.31,1.69,12.19l-3.32.42,3.56,1.61c.34,3.11.68,6.51,1,10.14l-3.29,2.43,3.46-.3c.37,5,.66,10.47.81,16.25l-3.44,2.55,3.5-.31c.12,6.18.07,12.72-.22,19.52l-4.7.71,4.61,1.43c-.31,6.25-.82,12.71-1.59,19.29l17.56.27s.29-5.39.3-13.59Z"/><path d="M116.76,121.46l-18.1-.27,0-.29c.73-6.18,1.26-12.6,1.58-19.08l-5.49-1.69,5.61-.86c.25-6.22.32-12.61.2-19l-4.13.35,4.07-3c-.14-5.26-.4-10.59-.79-15.85l-4.11.36,3.91-2.89c-.27-3.32-.59-6.63-.94-9.85l-4.26-1.93,4-.49c-.49-4.1-1-8.08-1.65-11.83l-4.28-3.22,3.82.48c-.55-3.2-.94-5-.94-5l-.1-.47.45.18c3.78,1.49,7.13,4.71,9.95,9.57l4.14-1.4-3,3.57A63.17,63.17,0,0,1,110.66,49L115,48.3l-3.64,3.07A131.92,131.92,0,0,1,114.2,65l4.32-.65-4,3.12c.89,6.24,1.56,13.18,2,20.61l4.34.9-4.22,1.52c.23,4.76.36,9.7.39,14.7l4.5.93-4.5,1.63c0,8-.29,13.37-.29,13.43Zm-17.53-.78,17,.26c0-1.15.27-6.2.28-13.33v-.18l3.12-1.13-3.12-.65v-.2c0-5.14-.15-10.21-.39-15.08v-.19l2.86-1-3-.6v-.2c-.41-7.55-1.09-14.59-2-20.92l0-.14,2.66-2.1-2.91.44,0-.25a132.51,132.51,0,0,0-2.92-14l0-.16,2.51-2.11-3,.45-.06-.21a62.29,62.29,0,0,0-4-10.4l-.07-.15,2-2.42-2.81.94-.11-.18c-2.67-4.66-5.82-7.8-9.36-9.35.16.77.49,2.46.91,4.9l.06.34-2.59-.33,2.9,2.18V35c.63,3.86,1.2,8,1.7,12.2l0,.26-2.67.33,2.85,1.3,0,.14c.37,3.31.7,6.73,1,10.15v.14l-2.67,2,2.8-.25,0,.26c.41,5.4.68,10.87.82,16.27v.13L98.24,80l2.86-.24V80c.13,6.57.06,13.14-.21,19.53v.21l-3.81.58,3.73,1.15v.2C100.48,108.11,100,114.51,99.23,120.68Z"/><path class="cls-2" d="M108.67,120.93c-1.55-1.82-5-14.13-8.82-29.09l2.65-4-3.27,1.52c-1.16-4.61-2.35-9.42-3.51-14.22l2.63-4-3.22,1.5c-1.24-5.16-2.44-10.26-3.56-15l2.84-3.78-3.36,1.56c-1.28-5.5-2.43-10.48-3.34-14.51l2.18-2.84-2.56,1.19c-1.19-5.22-1.91-8.44-1.91-8.44A72,72,0,0,0,84,46.69l-4.4.54,4.41,2c.07,4.67.35,9.67.77,14.76l-4,1.38,4.23,1c.55,6,1.28,12.14,2.07,18l-3.36.42,3.65,1.66c.78,5.6,1.62,10.89,2.4,15.54l-3.5.43,3.87,1.76c1.61,9.36,2.9,15.63,2.9,15.63Z"/><path d="M109.26,121.23l-16.48-1.3,0-.19c0-.06-1.3-6.32-2.88-15.5l-4.58-2.08,4.14-.51c-.87-5.18-1.65-10.27-2.34-15.14l-4.35-2,4-.5c-.84-6.22-1.52-12.12-2-17.54l-4.93-1.1,4.7-1.61c-.43-5.25-.69-10.1-.75-14.42l-5.11-2.27,5.09-.63a71.8,71.8,0,0,1,1.45-15.68l.26-1.08.24,1.08s.69,3.1,1.84,8.14l3.23-1.5L88,41c.9,3.92,2,8.75,3.25,14.07l4-1.86-3.39,4.51c1.18,5.06,2.34,10,3.46,14.6l3.75-1.75L96,75.19c1.2,5,2.35,9.63,3.4,13.82l3.82-1.78-3.09,4.65c5.57,21.92,7.82,27.81,8.73,28.88Zm-16.05-1.78,15,1.18c-1.49-2.58-4.37-12.23-8.56-28.73l0-.11,2.21-3.32-2.73,1.27-.07-.3c-1.09-4.31-2.26-9.1-3.51-14.23l0-.11,2.18-3.29L95,73.05l-.07-.3c-1.14-4.76-2.34-9.82-3.56-15l0-.12,2.3-3.06-2.72,1.27-.07-.31C89.52,50,88.37,45,87.45,41l0-.12,1.62-2.1-1.9.88-.07-.31L85.42,32a77.78,77.78,0,0,0-1.19,14.66v.22l-3.7.46L84.25,49v.17c.06,4.4.32,9.36.77,14.74v.2l-3.35,1.15,3.52.79,0,.19c.5,5.54,1.2,11.58,2.06,18l0,.26-2.72.34,3,1.33,0,.14c.7,5,1.51,10.22,2.4,15.53l0,.27-2.87.36,3.17,1.44,0,.13C91.78,112.38,93,118.33,93.21,119.45Z"/><path class="cls-3" d="M152,76.16l-3.27-1.35c2.62-4.77,5.48-9.57,8.57-15.86l4.42-.71-3.41-1.4c1.19-2.54,2.42-5.31,3.68-8.42A107.12,107.12,0,0,0,145.44,66l-3.63-2L144,67.82a126,126,0,0,0-7.76,11.81l-2.18-1.19,1.43,2.49a118.24,118.24,0,0,0-7.07,14.89l-3.43-.5,2.75,2.28a109.13,109.13,0,0,0-6,24l16,1.79a84.07,84.07,0,0,0,.81-12.95l3.87-1.79-3.82-.45a52.92,52.92,0,0,1,1.65-13c.18-.67.38-1.31.57-2l3.94-.63-3.31-1.37a88.26,88.26,0,0,1,6.2-14.37Z"/><path d="M138,123.63l-16.45-1.84,0-.26a110.81,110.81,0,0,1,5.91-23.85l-3.3-2.74,4.12.59a118.41,118.41,0,0,1,6.94-14.59l-1.81-3.16,2.76,1.5a126.86,126.86,0,0,1,7.56-11.48l-2.59-4.49,4.24,2.31a107.53,107.53,0,0,1,16.5-17.4l.76-.6-.36.9C161.13,51.33,160,54,158.7,56.7l4,1.65-5.19.83c-2.23,4.54-4.31,8.24-6.33,11.83-.7,1.24-1.38,2.46-2.05,3.68L153,76.27l-5.15.83a86,86,0,0,0-6.05,14l3.93,1.62-4.68.75c-.18.58-.35,1.18-.53,1.79a53.62,53.62,0,0,0-1.63,12.69l4.5.52-4.56,2.11,0,1.18a73.35,73.35,0,0,1-.79,11.64Zm-15.87-2.29,15.44,1.72a74.21,74.21,0,0,0,.75-11.32l0-1.5,3.2-1.48-3.16-.37v-.23a54.4,54.4,0,0,1,1.66-13c.19-.67.38-1.32.57-2l0-.15,3.2-.51-2.69-1.11.08-.23a87,87,0,0,1,6.21-14.41l.06-.11,3.61-.58-2.7-1.11.14-.25c.71-1.3,1.45-2.6,2.19-3.93,2-3.61,4.13-7.35,6.37-11.92l.06-.12,3.66-.59L158,57l.12-.24c1.16-2.46,2.23-4.91,3.28-7.46a112.65,112.65,0,0,0-15.76,16.84l-.13.17-3-1.65,1.84,3.21-.1.14a123.2,123.2,0,0,0-7.75,11.78l-.13.21-1.59-.87,1.05,1.83-.07.13a116.91,116.91,0,0,0-7.06,14.85l-.07.19-2.73-.39,2.18,1.81-.06.17A109,109,0,0,0,122.09,121.34Z"/><path class="cls-3" d="M97.61,120.06S94.07,109,89.37,94l2.91-2.09-3.49.26c-1.7-5.34-3.59-11-5.62-16.49l2.63-1.9L82.55,74c-1.89-5-3.9-10-6-14.45l3.23-2.32-4.18.31A76,76,0,0,0,69,46l2-3L67.85,44.5a17.81,17.81,0,0,0-4.61-4.22s2,4.11,4.61,11l-3.53,2.62,4.36-.39c1.46,4,3,8.79,4.54,14.12l-3.41,2.84,4-.59c1.1,4.16,2.14,8.61,3,13.28L73.43,86l3.83-.56C78.06,90.13,78.69,95,79,100l-3.79,2.07,3.93.2a125.18,125.18,0,0,1,.08,16.89Z"/><path d="M98,120.33l-19-.91,0-.26a123.22,123.22,0,0,0-.06-16.63l-4.61-.22,4.44-2.44c-.33-4.58-.91-9.34-1.72-14.15l-4.48.66,4-3.34c-.79-4.22-1.77-8.55-2.92-12.89l-4.7.69,4-3.32c-1.3-4.61-2.79-9.23-4.43-13.76l-5.06.46,4.1-3C65,44.5,63,40.44,63,40.4l-.36-.76.72.42a17.51,17.51,0,0,1,4.56,4.13l3.85-1.72L69.33,46a77.15,77.15,0,0,1,6.46,11.23l4.91-.36-3.79,2.72c1.88,4.1,3.84,8.84,5.82,14.1l4-.29-3.21,2.31c1.81,4.93,3.66,10.36,5.49,16.13l4.2-.31-3.5,2.51c4.62,14.74,8.15,25.81,8.18,25.92Zm-18.42-1.39,17.71.84c-.64-2-3.94-12.39-8.13-25.74l-.05-.18,2.32-1.66-2.78.2-.06-.19c-1.88-5.91-3.77-11.45-5.62-16.48l-.07-.19,2-1.47-2.53.19-.07-.19c-2-5.4-4-10.26-6-14.43l-.09-.2,2.66-1.91-3.44.26-.08-.16a75,75,0,0,0-6.59-11.45L68.7,46l1.61-2.35-2.54,1.14-.12-.16A19.25,19.25,0,0,0,63.85,41c.7,1.52,2.32,5.11,4.24,10.19l.07.18-3,2.2,3.64-.33.07.18c1.69,4.65,3.22,9.4,4.55,14.14l0,.16-2.83,2.37L74,69.58l0,.22c1.2,4.47,2.21,9,3,13.29l0,.15L74.3,85.61l3.17-.47,0,.25c.85,5,1.46,9.89,1.79,14.61v.17l-3.13,1.71,3.24.16,0,.23A127.29,127.29,0,0,1,79.54,118.94Z"/><path class="cls-2" d="M141.71,56.27l-4-1.05c1.28-4.74,2.54-8.85,3.65-12.2l4.67-1.43-3.85-1C143.88,35.72,145,33,145,33c-.76.51-1.49,1.06-2.21,1.62L138.7,32l2.07,4.32.38-.31a55.22,55.22,0,0,0-7.33,7.63l-3.29-2.12,1.9,3.94a82.83,82.83,0,0,0-7.88,13.17l-4-1.15,3,3.27a126.39,126.39,0,0,0-5.44,14.2l-4.55-.32,3.8,2.72c-1.36,4.5-2.48,9-3.41,13.21l-4.55.57,4,1.83a198.56,198.56,0,0,0-3.75,27.92l20.11,1.53a196.81,196.81,0,0,1,.75-28.23l3.71-1-3.51-.93c.75-7.09,1.81-13.8,3-20l4.29-1.29-3.83-1c.91-4.43,1.89-8.56,2.87-12.34Z"/><path d="M130.08,122.65l-20.65-1.57v-.25a200.63,200.63,0,0,1,3.72-27.76L108.48,91l5.27-.66c1-4.44,2.09-8.77,3.32-12.88l-4.39-3.14,5.25.37a128.39,128.39,0,0,1,5.32-13.88l-3.47-3.83,4.64,1.36a82.86,82.86,0,0,1,7.71-12.9l-2.22-4.63,3.86,2.5a55.47,55.47,0,0,1,6.69-7l-2.39-5,4.73,3c.78-.59,1.44-1.08,2.08-1.52l.72-.49-.34.81s-1.12,2.67-2.72,7.29L147,41.57l-5.4,1.66C140.33,47,139.14,51,138,55l4.64,1.22-5.37,1.52c-1,3.95-1.95,8-2.77,12L139,70.91l-5,1.51C132.72,79,131.72,85.58,131,92l4.22,1.11-4.46,1.22a198,198,0,0,0-.73,28Zm-20.11-2,19.57,1.48a197.37,197.37,0,0,1,.77-28v-.18l3-.81-2.8-.74,0-.22c.7-6.56,1.71-13.29,3-20l0-.15L137.11,71l-3.18-.84,0-.24c.85-4.12,1.81-8.28,2.87-12.36l0-.14,3.84-1.09-3.32-.88.07-.25c1.12-4.17,2.35-8.28,3.65-12.21l.05-.13,3.93-1.2-3.24-.86.09-.26c1.14-3.3,2-5.63,2.5-6.78-.46.33-1,.69-1.49,1.11l-.14.11-3.51-2.26,1.54,3.2.13-.1.32.4A56.15,56.15,0,0,0,134,43.76l-.14.18-2.72-1.75,1.56,3.26-.09.12a82.82,82.82,0,0,0-7.84,13.14l-.1.19-3.31-1,2.48,2.73-.07.15A127.29,127.29,0,0,0,118.36,75l-.06.19-3.84-.27,3.21,2.29,0,.18c-1.27,4.2-2.42,8.64-3.41,13.2l0,.18-3.82.47,3.4,1.55,0,.2A202,202,0,0,0,110,120.61Z"/><polygon class="cls-4" points="179.37 101.72 50.54 94.62 44.98 166.6 167.62 174.87 183.96 165.71 191.99 107.27 179.37 101.72"/><path d="M167.68,175.14h-.08l-122.9-8.3,5.6-72.49.26,0,128.87,7.1,0,0,12.79,5.63,0,.19-8,58.57ZM45.26,166.36l122.3,8.25,16.16-9.06,8-58.12L179.31,102,50.78,94.89Z"/><polygon points="176.31 121.56 48.97 114.02 49 113.5 176.31 121.04 189.93 120.51 189.95 121.02 176.31 121.56"/><polygon points="173.44 140.06 173.4 140.06 47.74 131.64 47.77 131.13 173.4 139.54 187.59 136.66 187.69 137.16 173.44 140.06"/><polygon points="170.09 159 170.03 159 46.03 150.06 46.07 149.55 170.01 158.48 185.66 152.19 185.85 152.66 170.09 159"/><line class="cls-5" x1="179.53" y1="101.42" x2="167.95" y2="174.87"/><rect x="136.57" y="137.89" width="74.35" height="0.52" transform="translate(10.17 288.19) rotate(-81.02)"/><path class="cls-6" d="M101.5,113.86c-.51,9.26-4.25,17.08-9.22,20.57A9.82,9.82,0,0,1,86,136.36c-7.85-.44-13.63-11.23-12.92-24.1s7.64-22.94,15.48-22.5a9.82,9.82,0,0,1,5.73,2.38C99,96.08,102,104.41,101.5,113.86Z"/><path d="M86.52,136.63H86c-8-.45-13.88-11.39-13.17-24.38.45-8.26,3.45-15.62,8-19.7a10.74,10.74,0,0,1,7.76-3A10,10,0,0,1,94.47,92c4.93,4.1,7.79,12.71,7.28,21.93-.49,9-4.15,17.13-9.32,20.76A10.26,10.26,0,0,1,86.52,136.63ZM88.08,90a10.39,10.39,0,0,0-6.9,2.93c-4.46,4-7.39,11.21-7.84,19.34-.69,12.71,5,23.4,12.68,23.84a9.63,9.63,0,0,0,6.11-1.89c5.05-3.55,8.62-11.54,9.11-20.37h0c.5-9.06-2.29-17.5-7.1-21.51A9.47,9.47,0,0,0,88.56,90Z"/><path d="M92.74,96a7,7,0,0,0-4.28-1.91c-5.87-.33-11.09,7.85-11.67,18.27,0,.5,0,1-.05,1.49l11.5-2.47-11.1,7.85c1.15,7.13,4.72,12.35,9.24,12.6a7,7,0,0,0,4.69-1.59c3.74-2.84,6.56-9.18,7-16.68C98.47,105.88,96.26,99.15,92.74,96Z"/><path d="M86.73,132.08h-.37c-4.54-.26-8.26-5.29-9.48-12.81l0-.16,10.2-7.22-10.58,2.27v-.32c0-.5,0-1,0-1.5C76.91,105.46,79.37,99.2,83,96a7.67,7.67,0,0,1,5.52-2.19,7.2,7.2,0,0,1,4.44,2c3.69,3.31,5.8,10.29,5.39,17.76s-3.12,13.86-7.07,16.88A7.42,7.42,0,0,1,86.73,132.08Zm-9.32-12.75c1.19,7.08,4.79,12,9,12.22A6.78,6.78,0,0,0,90.92,130c3.78-2.88,6.47-9.35,6.87-16.5.4-7.32-1.65-14.13-5.22-17.35h0a6.68,6.68,0,0,0-4.13-1.84,7.17,7.17,0,0,0-5.15,2.06c-3.48,3.11-5.87,9.23-6.24,16,0,.38,0,.77,0,1.15l12.4-2.66Z"/><path class="cls-6" d="M115.41,115.32c-.59,9.25,2.19,17.45,6.71,21.51a9.88,9.88,0,0,0,6,2.66C136,140,143,130,143.81,117.09S138.94,93.4,131.1,92.91a9.81,9.81,0,0,0-6,1.69C120,98,116,105.87,115.41,115.32Z"/><path d="M128.67,139.77l-.57,0A10.1,10.1,0,0,1,122,137c-4.7-4.22-7.37-12.74-6.8-21.72h0c.59-9.21,4.45-17.42,9.84-20.91a9.88,9.88,0,0,1,6.13-1.73,10.75,10.75,0,0,1,7.34,3.94c4,4.58,6.13,12.25,5.6,20.51C143.25,129.78,136.41,139.77,128.67,139.77Zm-13-24.44c-.57,8.83,2,17.19,6.62,21.31a9.62,9.62,0,0,0,5.85,2.6h.53c7.47,0,14.09-9.77,14.88-22.18.52-8.12-1.53-15.65-5.48-20.13a10.22,10.22,0,0,0-7-3.77,9.46,9.46,0,0,0-5.81,1.65c-5.26,3.41-9,11.46-9.6,20.51Z"/><path d="M126.23,98.6a7,7,0,0,1,4.47-1.39c5.87.37,10.09,9.11,9.42,19.52,0,.5-.08,1-.13,1.49l-11.12-3.81L139,123.52c-2,6.94-6.16,11.69-10.66,11.41a7,7,0,0,1-4.48-2.14c-3.37-3.26-5.42-9.89-4.94-17.39C119.36,107.75,122.35,101.33,126.23,98.6Z"/><path d="M128.68,135.2h-.4a7.32,7.32,0,0,1-4.64-2.21c-3.57-3.46-5.49-10.2-5-17.59s3.4-14.15,7.46-17h0A7.24,7.24,0,0,1,130.72,97a7.66,7.66,0,0,1,5.22,2.83c3.18,3.6,4.88,10.1,4.44,17,0,.5-.08,1-.13,1.49l0,.32L130,115.06l9.28,8.38,0,.15C137.17,130.7,133.07,135.2,128.68,135.2Zm1.63-37.74a6.79,6.79,0,0,0-3.94,1.35h0c-3.93,2.77-6.77,9.29-7.24,16.61-.45,7.14,1.46,13.88,4.87,17.19a6.77,6.77,0,0,0,4.31,2.06c4.2.26,8.34-4.18,10.36-11.07l-10.9-9.84,12,4.11c0-.38.07-.76.09-1.15.43-6.74-1.22-13.1-4.3-16.6a7.14,7.14,0,0,0-4.87-2.65Z"/><path class="cls-5" d="M109.77,121.25l-.7,4.69s-7.52-1.54-8.13,2.4,8.28,3.47,8.28,3.47"/><path d="M108.32,132.08c-1.77,0-5.6-.19-7.07-1.82a2.32,2.32,0,0,1-.57-2,2.88,2.88,0,0,1,1.24-2c2-1.41,5.88-.87,6.94-.69l.65-4.42.51.07-.73,5-.27,0s-4.66-.94-6.8.55a2.34,2.34,0,0,0-1,1.63,1.79,1.79,0,0,0,.44,1.54c1.74,1.92,7.51,1.63,7.57,1.63l0,.51S108.84,132.08,108.32,132.08Z"/><path class="cls-7" d="M114.77,134.33a4.07,4.07,0,0,1,5.25,3.59c.38,9.86-.52,30-14.25,30.18S92.47,146.45,93.5,136a3.87,3.87,0,0,1,5.6-2.9,23.07,23.07,0,0,0,7.7,2.13A21.38,21.38,0,0,0,114.77,134.33Z"/><path d="M105.63,168.36a10,10,0,0,1-7.7-3.3c-5.94-6.49-5.48-21-4.68-29.1a3.81,3.81,0,0,1,1.94-3,4.39,4.39,0,0,1,4-.15,22.45,22.45,0,0,0,7.62,2.11,21,21,0,0,0,7.87-.87h0a4.37,4.37,0,0,1,3.83.66,4.09,4.09,0,0,1,1.75,3.17c.28,7.32-.14,20.55-6.16,26.87a11.25,11.25,0,0,1-8.34,3.57Zm-8.31-35.42a3.85,3.85,0,0,0-1.88.49A3.34,3.34,0,0,0,93.76,136c-.79,8-1.26,22.36,4.55,28.7a9.52,9.52,0,0,0,7.46,3.13,10.78,10.78,0,0,0,8-3.41c5.88-6.19,6.29-19.26,6-26.5a3.55,3.55,0,0,0-1.53-2.77,3.88,3.88,0,0,0-3.39-.59h0a21.25,21.25,0,0,1-8.06.89A23.14,23.14,0,0,1,99,133.31,4.13,4.13,0,0,0,97.32,132.94Z"/><path class="cls-6" d="M116,137.22a1,1,0,0,1,1.34,1.08c0,6-1,27.62-11.56,27.17-12.12-.52-10.16-22.28-9.41-28.16a1,1,0,0,1,1.42-.89,26.1,26.1,0,0,0,9.25,2A26.52,26.52,0,0,0,116,137.22Z"/><path d="M106.13,165.73h-.34a8.27,8.27,0,0,1-6.24-3.05c-5.37-6.36-4-21-3.41-25.39a1.35,1.35,0,0,1,.67-1,1.24,1.24,0,0,1,1.11-.07,26.09,26.09,0,0,0,18,.79h0a1.24,1.24,0,0,1,1.12.19,1.38,1.38,0,0,1,.56,1.14c0,4.54-.61,19.8-6.43,25.34A7.15,7.15,0,0,1,106.13,165.73Zm-8.7-29.13a.71.71,0,0,0-.37.1.82.82,0,0,0-.41.65c-.55,4.29-1.94,18.79,3.29,25a7.83,7.83,0,0,0,5.87,2.87,6.66,6.66,0,0,0,5-1.94c5.68-5.4,6.24-20.48,6.28-25a.89.89,0,0,0-.35-.72.74.74,0,0,0-.66-.11,26.24,26.24,0,0,1-9,1.25,26.72,26.72,0,0,1-9.35-2.06A.66.66,0,0,0,97.43,136.6Z"/><rect x="97.05" y="151.18" width="26.31" height="0.51" transform="translate(-46.84 253.49) rotate(-86.97)"/><rect x="89.42" y="150.98" width="26.45" height="0.51" transform="translate(-53.06 246.97) rotate(-87.42)"/><polygon points="116.12 151.88 95.95 151.02 95.97 150.51 116.14 151.37 116.13 151.61 116.19 151.87 116.12 151.88"/><path d="M48,127.07l-.94,12.24c-3.17,3.26-7.06,5.67-11.42,4C29.36,141,28,131.55,27.26,125.78c-.47-4-.55-8-.91-12-.11-1.21-.25-2.42-.42-3.62-.14-.93-.31-1.85-.5-2.77s-.39-1.66-.63-2.48a3.85,3.85,0,0,1-.16-1,2.89,2.89,0,0,1,.85-2.1c1.43-1.45,4.3-1.56,5.46.54a2.83,2.83,0,0,1,.2.43,2.31,2.31,0,0,1,.1.28v0a41.22,41.22,0,0,1,1.18,5.35c.65,4.08.82,8.23,1.1,12.35a54.93,54.93,0,0,0,1.12,8.85c.5,2.13,1.16,5.43,2.85,7C39.59,138.58,43.88,133.43,48,127.07Z"/><path class="cls-6" d="M25.33,95a5.21,5.21,0,0,0-.65-1.42,8.67,8.67,0,0,0-3.33-2.53,3.27,3.27,0,0,0-3.08.17,2.34,2.34,0,0,0-.61,3.12,2.31,2.31,0,0,0-.48-.2,1.31,1.31,0,0,0-.26-.06,3.57,3.57,0,0,0-1.13,0,2.79,2.79,0,0,0-1.94,1.58,4.79,4.79,0,0,0-.15,2.83l-.35,0a3.11,3.11,0,0,0-2.54,3.78c.75,4.34,6,5.41,6,5.41,1,6.4,6.38,4.19,6.38,4.19,1.5,3.59,5.05,2.1,9.11-3.27S30.66,103,30.66,103C34.38,95.52,26.94,95.1,25.33,95Z"/><path d="M25.64,114.15l-.33,0a2.92,2.92,0,0,1-2.23-1.88,5.21,5.21,0,0,1-4-.23A5.42,5.42,0,0,1,16.61,108c-.93-.24-5.36-1.57-6-5.57a3.65,3.65,0,0,1,.61-2.81,3.16,3.16,0,0,1,2.15-1.28h.08a4.65,4.65,0,0,1,.22-2.69,3,3,0,0,1,2.12-1.73,3.75,3.75,0,0,1,1.21,0l.24.05A2.5,2.5,0,0,1,18.13,91a3.58,3.58,0,0,1,3.32-.19,9.06,9.06,0,0,1,3.44,2.62,4.46,4.46,0,0,1,.63,1.33c1.29.08,4.62.37,5.92,2.61.79,1.36.66,3.19-.39,5.44a3.57,3.57,0,0,1,2.78,1.64c.51,1.08.07,2.56-1.3,4.37C29.92,112.27,27.49,114.15,25.64,114.15Zm-2.28-2.56.1.24a2.5,2.5,0,0,0,1.91,1.78c1.7.23,4.1-1.59,6.75-5.1,1.25-1.65,1.67-2.94,1.25-3.84-.59-1.26-2.7-1.38-2.72-1.38l-.39,0,.17-.35c1.11-2.24,1.3-4,.56-5.29-1.21-2.09-4.55-2.3-5.65-2.37h0c-.19,0-.23-.17-.27-.3a4.14,4.14,0,0,0-.57-1.23,8.49,8.49,0,0,0-3.21-2.44,3,3,0,0,0-2.85.14,2.09,2.09,0,0,0-.52,2.78l.43.79-.78-.44a2.41,2.41,0,0,0-.43-.18l-.22,0a3.33,3.33,0,0,0-1.05,0,2.55,2.55,0,0,0-1.76,1.43A4.65,4.65,0,0,0,14,98.48l0,.27-.4,0h-.2a2.65,2.65,0,0,0-1.81,1.07,3.21,3.21,0,0,0-.52,2.42c.72,4.11,5.78,5.19,5.83,5.2l.18,0,0,.18c.31,1.93,1.05,3.23,2.2,3.88a4.92,4.92,0,0,0,3.83.11Zm2-16.61v0Z"/><path class="cls-7" d="M19.89,88h5.26a0,0,0,0,1,0,0v26a2.44,2.44,0,0,1-2.44,2.44h-.39A2.44,2.44,0,0,1,19.89,114V88A0,0,0,0,1,19.89,88Z" transform="translate(39.61 -1.05) rotate(21.83)"/><path d="M18.28,115.89a2.82,2.82,0,0,1-1-.2L17,115.6a2.78,2.78,0,0,1-1.54-3.6l9.74-24.34,5.37,2.15-.1.24-9.65,24.1a2.72,2.72,0,0,1-1.47,1.51A2.77,2.77,0,0,1,18.28,115.89Zm7.23-27.56L16,112.19a2.26,2.26,0,0,0,1.25,2.93l.23.09A2.26,2.26,0,0,0,20.37,114L29.92,90.1Z"/><path class="cls-7" d="M29.11,92.65c18,.74,7.39-25.39,7.39-25.39C10.35,78.49,24.42,90.68,24.42,90.68Z"/><path d="M29.84,92.92H29.1l-.09,0-4.75-2c-.05,0-4.62-4.08-3.77-9.59C21.32,76,26.67,71.21,36.4,67l.24-.11.1.25a51.44,51.44,0,0,1,2.44,8.42c1.22,6.21.78,10.85-1.29,13.78C36.23,91.73,33.53,92.92,29.84,92.92Zm-.68-.53c3.86.15,6.65-1,8.31-3.31,4.42-6.27-.36-19.51-1.11-21.47C27,71.68,21.79,76.31,21,81.36s3.18,8.75,3.56,9.1Z"/><path d="M26.91,73.27a2.31,2.31,0,0,0,1.93-.73c.69-.52,2.92-2.61,3.41-.83.35,1.25-.66,2.22-1,3.33a1.66,1.66,0,0,0,.6,1.72,2.11,2.11,0,0,1,.61,1.32c0,.67-.36,2,.44,2.29,1,.44,1.89-.89,2.72-1.27a.27.27,0,0,1,.37.21,5.07,5.07,0,0,0,.69,2.59c.74,1,1.94.7,2.92.11.06-7-3.09-14.75-3.09-14.75A44,44,0,0,0,26.38,73,1.53,1.53,0,0,0,26.91,73.27Z"/><path d="M37.93,82.83a1.7,1.7,0,0,1-1.46-.78,5.32,5.32,0,0,1-.75-2.73,4,4,0,0,0-.78.56c-.62.51-1.33,1.09-2.16.73s-.68-1.27-.62-2a3.7,3.7,0,0,0,0-.55,1.8,1.8,0,0,0-.54-1.16A1.89,1.89,0,0,1,31,75a6.27,6.27,0,0,1,.5-1.12A2.78,2.78,0,0,0,32,71.78c-.12-.41-.31-.48-.37-.5-.59-.19-1.77.76-2.33,1.22l-.32.25-.09.06a2.41,2.41,0,0,1-2,.71h0a1.87,1.87,0,0,1-.62-.3L26,73l.26-.21A45.34,45.34,0,0,1,36.4,67l.24-.11.1.25c0,.08,3.17,7.92,3.1,14.84v.14l-.12.08A3.55,3.55,0,0,1,37.93,82.83Zm-2.22-4a.6.6,0,0,1,.28.08.49.49,0,0,1,.24.39,4.94,4.94,0,0,0,.65,2.46c.63.88,1.65.57,2.45.11,0-6.1-2.45-12.89-3-14.25A44.62,44.62,0,0,0,26.84,73L27,73h0a2,2,0,0,0,1.62-.62l.09-.06.3-.24c.74-.59,2-1.58,2.82-1.31a1.13,1.13,0,0,1,.7.85A3.22,3.22,0,0,1,32,74.09a5.23,5.23,0,0,0-.47,1c-.17.55,0,.91.54,1.47a2.3,2.3,0,0,1,.67,1.48,4.79,4.79,0,0,1,0,.63c-.06.71-.08,1.27.32,1.44s1.06-.2,1.62-.66a4.35,4.35,0,0,1,.89-.62A.49.49,0,0,1,35.71,78.82Z"/><rect x="22.91" y="85.65" width="11.91" height="0.51" transform="translate(-61.61 80.65) rotate(-68.1)"/><path class="cls-6" d="M13.29,104s6.75,3.06,7.24-.25-6.83-5.26-6.83-5.26"/><path d="M18.27,105.57a15,15,0,0,1-5.08-1.31l.21-.47s4.4,2,6.18,1a1.34,1.34,0,0,0,.7-1.05c.45-3.08-6.58-4.95-6.65-5l.13-.5c.31.08,7.55,2,7,5.55a1.84,1.84,0,0,1-1,1.42A3.21,3.21,0,0,1,18.27,105.57Z"/><path class="cls-6" d="M15.26,99c5.06,1.86,5.36,4.72,5.36,4.72,7.6-3.49-3.1-9.5-3.1-9.5a15.29,15.29,0,0,1,5,4.1c6.42-3.06.33-7.4-2.5-7.57"/><path d="M20.4,104.13l0-.36S20,101,15.17,99.27l.18-.48c4.18,1.53,5.2,3.74,5.45,4.58,1.47-.73,2.24-1.62,2.28-2.64.13-2.94-5.57-6.19-5.69-6.26h0l.25-.45a16.21,16.21,0,0,1,4.94,4c1.85-.93,2.69-2,2.46-3.24C24.66,92.86,21.71,91.14,20,91l0-.52c1.88.12,5.1,2,5.54,4.17.19,1-.13,2.47-2.7,3.78a4,4,0,0,1,.75,2.28c-.05,1.29-1,2.38-2.88,3.23Z"/><path class="cls-6" d="M31.06,103.09a9.29,9.29,0,0,0,.62-4.33c-.3-2-1.45-3.11-4.47-3.6a19.16,19.16,0,0,0-6.71-.23,2.86,2.86,0,0,0-2.36,2.44c-.25,3.47,7,4.12,7,4.12s-4.64,4.28,1.52,6.42"/><path d="M26.52,108.15c-1.94-.67-3.05-1.64-3.31-2.86a4.52,4.52,0,0,1,1.33-3.6c-1.7-.23-6.88-1.2-6.66-4.34a3.12,3.12,0,0,1,2.57-2.67,18.93,18.93,0,0,1,6.8.23c3,.49,4.36,1.59,4.68,3.81a9.56,9.56,0,0,1-.63,4.46l-.48-.18a8.68,8.68,0,0,0,.6-4.2c-.29-2-1.44-2.93-4.25-3.38a18.7,18.7,0,0,0-6.63-.23,2.6,2.6,0,0,0-2.15,2.2c-.22,3.18,6.65,3.84,6.72,3.85l.58.05-.43.39s-1.9,1.79-1.54,3.5c.21,1,1.21,1.87,3,2.48Z"/><path d="M23.33,112.18l-.16-.49a8,8,0,0,0,3.14-2.27l.38.35A8.53,8.53,0,0,1,23.33,112.18Z"/><path d="M28.77,107.92l-.35-.38A9.94,9.94,0,0,0,30.8,103l.5.14A10.42,10.42,0,0,1,28.77,107.92Z"/><polygon class="cls-8" points="134.51 187.54 117.69 169.36 117.89 166.88 134.03 172.24 134.51 187.54"/><path d="M134.79,188.22l-17.37-18.77.25-2.92,16.61,5.52ZM118,169.27l16.28,17.59-.45-14.43-15.66-5.21Z"/><path class="cls-8" d="M115.09,168c-.07,2.17.47,3.95,1.22,4s1.42-1.71,1.49-3.88-.47-3.95-1.22-4S115.17,165.84,115.09,168Z"/><path d="M116.33,172.24h0c-1,0-1.54-2.22-1.47-4.24h0c.07-2,.7-4.13,1.73-4.13h0c.34,0,.82.26,1.15,1.36a9.3,9.3,0,0,1,.32,2.88C118,170.12,117.36,172.24,116.33,172.24Zm-1-4.23h0c-.08,2.28.51,3.7,1,3.71h0c.45,0,1.13-1.37,1.21-3.63a8.29,8.29,0,0,0-.29-2.71c-.22-.73-.49-1-.68-1-.47,0-1.14,1.36-1.22,3.63Z"/><path class="cls-6" d="M116.36,165.75a.18.18,0,0,0,0,.25.19.19,0,0,0,.25-.05.18.18,0,0,0-.05-.25A.18.18,0,0,0,116.36,165.75Z"/><path class="cls-6" d="M116.25,170.16a.18.18,0,0,0,.3.2.19.19,0,0,0,0-.25A.18.18,0,0,0,116.25,170.16Z"/><path class="cls-6" d="M116.85,168a.18.18,0,1,0,.25,0A.19.19,0,0,0,116.85,168Z"/><path class="cls-6" d="M115.68,168a.18.18,0,0,0,0,.24.17.17,0,0,0,.25-.05.18.18,0,0,0,0-.24A.17.17,0,0,0,115.68,168Z"/><polygon class="cls-8" points="131.56 161.91 154.47 158.57 162.76 191.78 131.4 195.72 131.56 161.91"/><path d="M131.14,196l.16-34.32,23.37-3.41L163.08,192Zm.67-33.87-.15,33.29,30.78-3.86-8.16-32.71Z"/><path class="cls-8" d="M173.14,168.76a10.55,10.55,0,0,0-1.59-3.55,10.33,10.33,0,0,0-1.8-2,10.56,10.56,0,0,0-14,.24l1.05,4.17a6.87,6.87,0,0,1,6.5-3.3,6.77,6.77,0,0,1,2.82.89,6.9,6.9,0,0,1,3.23,4.12,7.06,7.06,0,0,1,.23,2.48,6.75,6.75,0,0,1-.62,2.31,6.46,6.46,0,0,1-.9,1.44,6.87,6.87,0,0,1-5.59,2.55,2.42,2.42,0,0,1-.38,0,6.59,6.59,0,0,1-2.92-.95l1.07,4.31a9.88,9.88,0,0,0,1.74.3,10.19,10.19,0,0,0,2.82-.13h0a10.55,10.55,0,0,0,8.62-9.47c0-.19,0-.37,0-.55A10.78,10.78,0,0,0,173.14,168.76Z"/><path d="M162.87,182.06c-.32,0-.63,0-1,0a11.08,11.08,0,0,1-1.77-.31l-.15,0-1.26-5.06.53.32a6.49,6.49,0,0,0,2.81.92l.37,0a6.72,6.72,0,0,0,5.38-2.46,6.52,6.52,0,0,0,.86-1.38,6.67,6.67,0,0,0,.38-4.62,6.71,6.71,0,0,0-3.11-4,6.64,6.64,0,0,0-9,2.32l-.32.53-1.24-4.92.11-.1a10.83,10.83,0,0,1,8.27-2.82,10.89,10.89,0,0,1,7.95,4.61,10.93,10.93,0,0,1,1.63,3.64,10.62,10.62,0,0,1,.29,2.92,5.4,5.4,0,0,1,0,.56,10.67,10.67,0,0,1-1.1,3.89,10.89,10.89,0,0,1-7.73,5.82A11.67,11.67,0,0,1,162.87,182.06Zm-2.44-.81a10.08,10.08,0,0,0,4.29.13,10.33,10.33,0,0,0,8.42-9.25l0-.52a10.42,10.42,0,0,0-.28-2.79h0a10.26,10.26,0,0,0-1.55-3.46,10.5,10.5,0,0,0-1.76-2,10.3,10.3,0,0,0-13.58.13l.87,3.46a7.07,7.07,0,0,1,6.42-2.92,6.88,6.88,0,0,1,2.93.91,7.28,7.28,0,0,1,3.35,4.28,7.16,7.16,0,0,1,.23,2.57,6.78,6.78,0,0,1-.64,2.4,7,7,0,0,1-.93,1.5,7.21,7.21,0,0,1-5.8,2.64l-.4,0a7,7,0,0,1-2.5-.7Z"/><rect x="131.39" y="163.24" width="24.02" height="0.52" transform="translate(-22.23 22.57) rotate(-8.35)"/><rect x="131.45" y="189.2" width="30.3" height="0.51" transform="translate(-21.52 18.81) rotate(-6.84)"/><path class="cls-7" d="M136.56,174.61a3.26,3.26,0,0,1,1.5-2.84c1.32-.84,3.72-1.32,6.57,2,1.86-4,4.26-4.14,5.76-3.68a3.27,3.27,0,0,1,2.2,2.33c1.48,5.72-6.41,12.51-6.44,12.54S136.68,180.52,136.56,174.61Z"/><path d="M146.19,185.25l-.15-.07c-.39-.18-9.62-4.57-9.73-10.56h0a3.51,3.51,0,0,1,1.61-3.07c1-.62,3.53-1.65,6.65,1.75,2-4,4.53-3.88,5.89-3.47a3.52,3.52,0,0,1,2.38,2.52c1.51,5.84-6.45,12.73-6.53,12.8Zm-6.06-13.84a3.56,3.56,0,0,0-1.93.58,3,3,0,0,0-1.38,2.62h0c.1,5.27,8.08,9.44,9.29,10,1-.89,7.56-7,6.23-12.16a3,3,0,0,0-2-2.16c-1.24-.37-3.59-.41-5.44,3.55l-.17.36-.26-.3C142.76,172,141.28,171.41,140.13,171.41Z"/><path d="M214,167.33c-6,3.83-13.81,4.82-20.73,5.85q-3.08.47-6.17.85c-4.92.63-9.84,1.19-14.75,1.93l-1.65.25a3.24,3.24,0,0,1-2.64-.64,3.83,3.83,0,0,1-.87-4.76,3.12,3.12,0,0,1,2.16-1.47l.17,0c1.22-.2,2.44-.38,3.65-.55,2.87-.4,5.74-.76,8.62-1.12l4.23-.53c3-.38,6-.79,8.94-1.28a61.93,61.93,0,0,0,11.65-2.69c1.32-.49,3.54-1.11,4.44-2.3,1-1.35-.2-2.88-1.14-3.92-4.67-5.17-11.66-8.39-17.9-11.21-6-2.74-12.15-5.26-17.95-8.47l1.12-7.37c.18.08.35.17.53.27,6.39,3.85,13.4,6.51,20.15,9.63,5.91,2.73,11.8,5.81,16.73,10.1,2.67,2.32,5.26,5,5.77,8.68A8.82,8.82,0,0,1,214,167.33Z"/><path class="cls-6" d="M181.7,167.12s3.09-3.07,4.17-.33c.83,2.09,1.2,6.88,1.33,9.05a2.65,2.65,0,0,1-1.28,2.48,4.26,4.26,0,0,1-3-.27c-1.33,1.29-3,3.66-6.8,4.59a18.49,18.49,0,0,1-8.78.05,6.93,6.93,0,0,1-3.79-2.17,4.61,4.61,0,0,1-1.07-2.3,2.69,2.69,0,0,1,.15-1.26L163,176s-3-3.3.8-5.6c0,0-4.34-5.51,4.92-5.37.56,0,.74-2.5,2.7-3.86a6.76,6.76,0,0,1,4.73-1.17C179,160.53,181.36,163.4,181.7,167.12Z"/><path d="M171.51,183.45a17.58,17.58,0,0,1-4.27-.51,7.13,7.13,0,0,1-3.91-2.25,4.92,4.92,0,0,1-1.14-2.44,3,3,0,0,1,.17-1.38c0-.09.23-.54.33-.78a4.47,4.47,0,0,1-1.06-3.22,3.64,3.64,0,0,1,1.79-2.5c-.4-.59-1.34-2.22-.66-3.6s2.68-2,6-2a5.37,5.37,0,0,0,.37-.76,6.54,6.54,0,0,1,2.18-3.06,7.1,7.1,0,0,1,4.91-1.21c2.92.51,5.22,3.28,5.71,6.81.61-.51,1.85-1.38,2.91-1.16a1.83,1.83,0,0,1,1.31,1.26c.85,2.15,1.23,7.1,1.35,9.14a2.92,2.92,0,0,1-1.42,2.71,4.39,4.39,0,0,1-3.1-.17l-.55.57a12.17,12.17,0,0,1-6.23,3.95A19.91,19.91,0,0,1,171.51,183.45Zm-3.13-18.13c-2.83,0-4.62.58-5.16,1.68-.69,1.39.76,3.27.77,3.29l.18.23-.25.15a3.27,3.27,0,0,0-1.78,2.27,4.14,4.14,0,0,0,1,2.93l.11.12-.06.15-.39.91a2.41,2.41,0,0,0-.13,1.14,4.39,4.39,0,0,0,1,2.17,6.72,6.72,0,0,0,3.65,2.08,18.26,18.26,0,0,0,8.66-.05,11.67,11.67,0,0,0,6-3.8c.25-.26.48-.51.71-.72l.13-.13.17.09a4,4,0,0,0,2.77.26,2.36,2.36,0,0,0,1.15-2.23c-.12-2-.48-6.9-1.31-9a1.36,1.36,0,0,0-.93-.95c-1.18-.24-2.81,1.36-2.82,1.37l-.39.39-.05-.55c-.31-3.48-2.56-6.37-5.34-6.85a6.52,6.52,0,0,0-4.54,1.13,6.17,6.17,0,0,0-2,2.83c-.28.64-.46,1.07-.84,1.07h-.34Z"/><rect x="165.4" y="168.88" width="0.51" height="3.56" transform="translate(-20.86 318.23) rotate(-84.2)"/><rect x="164.64" y="174.34" width="0.52" height="3.84" transform="translate(-28.97 320.04) rotate(-83.47)"/><rect x="171.02" y="162.63" width="0.51" height="5.15" transform="translate(-2.45 327.81) rotate(-87.07)"/><rect x="181.66" y="167.11" width="0.51" height="3.62" transform="translate(-19.18 23.36) rotate(-6.98)"/><rect x="182.45" y="175.43" width="0.51" height="2.64" transform="matrix(0.99, -0.14, 0.14, 0.99, -23.13, 27.58)"/></g></svg>