<svg width="18" height="23" viewBox="0 0 18 23" fill="none" xmlns="http://www.w3.org/2000/svg">
<path d="M15.76 6.77007C14.6238 7.31352 14.2148 8.26884 13.7557 9.34062C13.6211 9.65546 13.4813 9.9811 13.3164 10.3089C12.9679 10.999 12.5088 11.2912 11.9955 11.3257C11.5833 11.3537 11.1294 11.2243 10.6651 11.0065C10.012 12.2066 9.63217 13.5577 9.56643 14.8914H13.9465V16.2187C13.9465 16.3859 13.8797 16.539 13.7733 16.649C13.6658 16.76 13.5187 16.828 13.357 16.828H5.3135C5.15177 16.828 5.0036 16.759 4.89718 16.649C4.78971 16.5379 4.72398 16.3859 4.72398 16.2187V14.8914H9.10939C9.03948 13.1371 8.54282 11.3623 7.6862 9.7826C7.01738 10.1104 6.35898 10.3077 5.76322 10.2667C5.04953 10.2171 4.41098 9.81496 3.92997 8.86068C3.70772 8.41967 3.5199 7.98083 3.33837 7.55814C2.71339 6.09925 2.15828 4.80427 0.570312 4.09586C1.49686 3.36589 2.77188 3.10819 4.06464 3.23541C5.5807 3.38421 7.1145 4.06243 8.14234 5.13314C9.00941 6.03563 9.16906 6.91333 9.03131 7.67349C8.91966 8.29134 8.61395 8.8434 8.32598 9.27363C8.19347 8.99437 8.05262 8.72371 7.90445 8.46493C6.83393 6.5931 5.37108 5.26461 3.92398 4.88093C3.80608 4.84966 3.68609 4.92406 3.65583 5.0459C3.62557 5.16774 3.69757 5.29174 3.81547 5.32301C5.06755 5.65618 6.34676 6.78079 7.33705 8.38421C7.41635 8.49635 7.49356 8.60957 7.56972 8.72602C8.46077 10.0922 9.07222 11.6448 9.36227 13.2331C9.60121 12.2001 10.0113 11.1952 10.5758 10.2928C11.422 8.93851 12.5384 7.96161 13.562 7.68019C13.5673 7.67911 13.5735 7.68019 13.5787 7.67911C13.6246 7.62412 13.6476 7.5508 13.6288 7.47532C13.5986 7.35348 13.4786 7.27908 13.3607 7.31035C12.2672 7.6004 11.1633 8.60102 10.3578 10.0103C10.2618 10.1774 10.171 10.3499 10.0845 10.5278C9.88934 10.2248 9.69528 9.85071 9.62118 9.43881C9.52206 8.88782 9.63787 8.25165 10.2681 7.59607C11.0256 6.80678 12.1566 6.30755 13.2752 6.19758C14.1903 6.10808 15.0928 6.27953 15.7648 6.76905L15.76 6.77007ZM6.11684 20.286C6.26814 21.306 6.39228 22.146 7.67254 22.146H10.9938C12.3001 22.146 12.4118 21.3211 12.5474 20.3108L12.5641 20.1879L12.9606 17.2851H5.6693L6.11588 20.2859L6.11684 20.286ZM14.2012 0.151907C13.2548 0.191802 12.3064 0.468902 11.4748 0.918532C10.6484 1.36601 9.93996 1.98278 9.47043 2.70303C8.93204 3.5279 8.71082 4.49078 8.99466 5.48709C9.50801 6.28499 9.59044 7.05918 9.46418 7.75575C9.44749 7.84525 9.42766 7.93474 9.40575 8.021C9.52678 7.78702 9.69372 7.54874 9.91703 7.31044C9.92746 7.29966 9.93789 7.28887 9.94833 7.27701C9.96711 7.25437 9.92329 7.30181 9.91181 7.30828C9.90972 7.30936 9.90868 7.30936 9.90972 7.3072C10.036 6.70877 10.8269 2.97266 13.0232 2.08743C13.1369 2.04106 13.2652 2.09929 13.3101 2.21682C13.355 2.33435 13.2986 2.46697 13.1849 2.51333C11.5843 3.15919 10.7903 5.60048 10.4836 6.8026C11.2651 6.21065 12.2542 5.83757 13.2319 5.74159C13.4354 5.7211 13.6378 5.71356 13.8381 5.71787C14.5163 5.20138 14.8888 4.41532 15.2446 3.66487C15.7663 2.5629 16.2567 1.52993 17.5703 1.32506C16.6271 0.444125 15.4188 0.100161 14.2042 0.15084L14.2012 0.151907Z" fill="#FDA14E"/>
</svg>
