<svg xmlns="http://www.w3.org/2000/svg" viewBox="0 0 226.68 225.92"><defs><style>.cls-1{fill:#565656;}.cls-2{fill:#444;}.cls-3{fill:#999;}.cls-4{fill:silver;}.cls-5{fill:#fff;}.cls-6{fill:#ababab;}</style></defs><g id="PREVIEW"><rect class="cls-1" x="11.49" y="65.24" width="4.9" height="25.16" transform="translate(-63.91 91.55) rotate(-89.84)"/><rect class="cls-1" x="28.74" y="8.77" width="4.9" height="23.15" transform="translate(-4.2 31.94) rotate(-51.26)"/><rect class="cls-1" x="15.46" y="34.32" width="4.9" height="27.01" transform="translate(-32.86 53.31) rotate(-75.63)"/><path d="M83.92,118c-.12,2.45,21.19,6.65,42.69,6.56,20.62-.1,41.29-4.14,41.17-6.56-.14-2.87-29.54-3.49-41.93-3.48C113.92,114.49,84.07,115.08,83.92,118Z"/><path d="M125.87,124.73a181.7,181.7,0,0,1-27.18-2.07c-7.83-1.22-13.46-2.78-14.68-4.06a.85.85,0,0,1-.29-.64c.18-3.56,37.84-3.68,42.13-3.68h.08c4.64,0,41.87.11,42,3.68a.86.86,0,0,1-.28.63c-2.5,2.64-22.34,6.06-41.09,6.14ZM83.92,118h.2a.6.6,0,0,0,.18.34c2.33,2.44,22.23,6.09,42.3,6,19.47-.08,38.61-3.7,40.8-6a.54.54,0,0,0,.18-.33c-.11-2.14-21.48-3.29-41.58-3.29h-.15c-20.15,0-41.62,1.16-41.73,3.29Z"/><path class="cls-2" d="M139.68,127.23c-.22-15.67,3.11-31.19,8.33-45.91a142.8,142.8,0,0,1,10.7-23.52c1.27-2.21,4.56,0,3.29,2.22a146.36,146.36,0,0,0-15.76,41.89,111.94,111.94,0,0,0-2.61,22.63,178.78,178.78,0,0,0,1.68,24c1.14,9.08,2.6,18.11,3.59,27.21.28,2.52-3.61,3.3-3.89.76C143.21,160.1,139.92,143.8,139.68,127.23Z"/><path d="M146.73,178.29a1.84,1.84,0,0,1-1.92-1.74c-.59-5.39-1.35-10.85-2.09-16.14-1.51-10.83-3.08-22-3.24-33.18-.21-14.33,2.6-29.8,8.34-46A143.43,143.43,0,0,1,158.53,57.7a1.88,1.88,0,0,1,1.65-1h0a2.44,2.44,0,0,1,2,1.22,2.16,2.16,0,0,1,0,2.22A145.58,145.58,0,0,0,146.44,102a111.89,111.89,0,0,0-2.61,22.58,183.41,183.41,0,0,0,1.68,24c.47,3.68,1,7.42,1.5,11,.74,5.29,1.5,10.77,2.1,16.18a2.29,2.29,0,0,1-2.12,2.53Zm13.45-121.2h0a1.43,1.43,0,0,0-1.29.81A143,143,0,0,0,148.2,81.38c-5.72,16.14-8.52,31.57-8.31,45.85.16,11.12,1.72,22.31,3.23,33.13.74,5.28,1.51,10.75,2.1,16.15a1.46,1.46,0,0,0,1.73,1.36,1.89,1.89,0,0,0,1.75-2.08c-.59-5.4-1.36-10.87-2.1-16.16-.5-3.62-1-7.36-1.49-11a180.79,180.79,0,0,1-1.68-24A112.76,112.76,0,0,1,146,101.87a146.24,146.24,0,0,1,15.78-42,1.73,1.73,0,0,0,0-1.81A2,2,0,0,0,160.18,57.09Z"/><path class="cls-2" d="M145.13,108.35s2.87-19.6,32-20.87C177.15,87.48,171.25,112.17,145.13,108.35Z"/><path d="M150.39,109a37,37,0,0,1-5.29-.4l-.2,0,0-.2a22,22,0,0,1,5.12-10.06c4-4.65,12-10.32,27.09-11l.27,0-.06.27a33.14,33.14,0,0,1-6.26,12A26,26,0,0,1,150.39,109Zm-5-.77c13.27,1.87,21.14-3.83,25.41-9a32.86,32.86,0,0,0,6.1-11.52c-8.24.39-19.42,2.61-26.5,10.81A22.14,22.14,0,0,0,145.37,108.18Z"/><rect x="143.12" y="101.93" width="21.7" height="0.41" transform="translate(-30.79 103.4) rotate(-33.95)"/><path class="cls-3" d="M134.8,24.62c7.79-6.94,14.54,3.69,19.56,8.71l.12,0c-2.57-7.1-5.41-20.57,9.54-21.39,3.61-.2,7,.24,10.17,2.91,3.48,2.91,7.82,11.11-2.06,22.08v0l0,0S187.54,24.41,194,34.82c1.79,2.88,3.14,11,.79,15.44-3.83,7.19-20.61.94-20.61.94v.06c5.85,2.67,20.46,9.37,8.72,21.27-2.66,2.69-9.34,5.88-13.37,5.52-4.86-.44-8.46-3.79-9.69-19.14-2.44,5.41-6.6,22.61-20.13,12.12a14.48,14.48,0,0,1-5.76-10.42c-.68-8.1.48-8.59,13-11.89,0,0,2.1-.58,3.47-1-10.2,1.11-19.83-.78-21.85-5.89C126.19,35.92,132.27,26.87,134.8,24.62Z"/><path d="M170.15,78.28c-.22,0-.44,0-.65,0-4.94-.44-8.51-3.78-9.8-18.51-.21.51-.44,1.09-.68,1.72-1.76,4.54-4.41,11.41-9.55,12.84-2.88.8-6.21-.25-9.9-3.11a14.69,14.69,0,0,1-5.83-10.57c-.7-8.2.46-8.75,13.13-12.09h0c.15-.06.48-.15,1.3-.37-8.75.56-17.78-1.09-19.81-6.22-2.43-6.12,3.94-15.37,6.3-17.47h0c6.67-5.94,12.53.63,17.24,5.9.76.85,1.48,1.66,2.17,2.38C152.31,27.66,151,20.9,154,16.36c1.88-2.84,5.25-4.41,10-4.67,3.14-.18,6.82,0,10.31,3a11.94,11.94,0,0,1,4.06,8.22c.3,4.18-1.41,8.54-5.08,13a40.51,40.51,0,0,1,4.15-2.6c2.89-1.54,7.11-3.26,10.84-2.64a8.41,8.41,0,0,1,5.89,4.1c1.72,2.78,3.21,11.1.79,15.64-3,5.57-13.22,3.37-18.17,1.92,4.17,2.06,9.71,5.43,10.61,10.3.58,3.17-.89,6.57-4.38,10.1C180.4,75.33,174.17,78.28,170.15,78.28ZM160,58.1l.06.79c1.21,15.14,4.68,18.52,9.51,19,3.87.35,10.49-2.71,13.2-5.45,3.39-3.44,4.82-6.71,4.27-9.75-1.07-5.78-9.07-9.44-12.92-11.2l-.08,0,0-.08a.33.33,0,0,1,0-.24l.1-.13.14,0c.17.07,16.66,6.11,20.36-.85,2.35-4.42.9-12.52-.78-15.23a8,8,0,0,0-5.6-3.91c-6.95-1.16-15.83,6-15.92,6.08l-.15.12L172,37l0-.1v-.1l.06-.08c4.29-4.77,6.31-9.43,6-13.86A11.47,11.47,0,0,0,174.06,15c-3.38-2.83-7-3-10-2.87-4.63.26-7.89,1.77-9.7,4.5-3.19,4.81-1.16,12.48.34,16.62l.1.27h-.25c-.12.05-.22.08-.31,0-.83-.83-1.69-1.8-2.61-2.83C147,25.5,141.3,19.1,134.93,24.77h0c-2.3,2.06-8.55,11.08-6.19,17,1.84,4.66,10.54,7,21.64,5.77l.08.39-1.72.47-1.57.44h0l-.2.05c-12.57,3.32-13.51,3.76-12.83,11.67a14.3,14.3,0,0,0,5.67,10.28c3.58,2.78,6.8,3.8,9.55,3,4.94-1.37,7.54-8.12,9.27-12.59.38-1,.7-1.81,1-2.49Zm14.25-7,.07,0Z"/><rect x="158.34" y="26.22" width="13.14" height="0.41" transform="translate(113.1 185.2) rotate(-81.03)"/><rect x="175.29" y="42.27" width="12.81" height="0.41" transform="translate(-4.81 36.55) rotate(-11.34)"/><rect x="143.85" y="30.48" width="0.41" height="15.28" transform="translate(49.87 153.6) rotate(-65.62)"/><polygon points="174.12 68.6 168.63 56.76 169 56.59 174.49 68.43 174.12 68.6"/><rect x="141.6" y="58.16" width="13.55" height="0.41" transform="translate(-2.95 108.6) rotate(-39.84)"/><path class="cls-4" d="M149.72,43.55A12.63,12.63,0,1,0,164.16,33,12.63,12.63,0,0,0,149.72,43.55Z"/><path d="M162.23,58.34a12.5,12.5,0,0,1-2-.16,12.77,12.77,0,1,1,2,.16Zm-.06-25.26a12.43,12.43,0,1,0,2,.15A12.81,12.81,0,0,0,162.17,33.08Z"/><path class="cls-3" d="M163.33,49.52a3.77,3.77,0,1,0,3.72-3.81A3.76,3.76,0,0,0,163.33,49.52Z"/><path class="cls-3" d="M151.59,47a3.77,3.77,0,1,0,3.72-3.8A3.76,3.76,0,0,0,151.59,47Z"/><path d="M169.69,39.82c1.38.34,2.1,2.43,1.82,4.45l-1.44.09,1.19,1.11c-.74,1.74-2.3,2.93-3.61,2.61-1.53-.38-2.31-2.53-1.75-4.81S168.16,39.44,169.69,39.82Z"/><path d="M168.1,48.34a2.14,2.14,0,0,1-.5-.06,2.71,2.71,0,0,1-1.8-1.82,5.63,5.63,0,0,1-.09-3.24c.59-2.39,2.39-4,4-3.6h0c1.58.39,2.24,2.68,2,4.67l0,.17-1.14.07.95.89-.05.13A4.12,4.12,0,0,1,168.1,48.34ZM169.22,40c-1.3,0-2.64,1.39-3.12,3.34a5.26,5.26,0,0,0,.09,3,2.27,2.27,0,0,0,1.51,1.56c1.15.28,2.58-.75,3.32-2.36l-1.43-1.33,1.74-.12c.21-2-.52-3.76-1.69-4h0A1.51,1.51,0,0,0,169.22,40Z"/><path d="M171.24,41.33l-.11-.39a2.9,2.9,0,0,0,.7-.3,2.87,2.87,0,0,0,.72-.58l.3.28a3.4,3.4,0,0,1-1.61,1Z"/><path d="M170.56,40.33l-.27-.31a3.46,3.46,0,0,0,.51-.57,3.29,3.29,0,0,0,.34-.61l.37.17a3.8,3.8,0,0,1-.38.68A4.92,4.92,0,0,1,170.56,40.33Z"/><path d="M169.37,39.85l-.38-.17a3.47,3.47,0,0,0,.23-.71,2.81,2.81,0,0,0,.07-.65h.41a3.45,3.45,0,0,1-.08.72A4.37,4.37,0,0,1,169.37,39.85Z"/><path d="M158.35,37.15c-1.39-.31-3,1.23-3.63,3.15L156,41l-1.56.46c-.12,1.89.73,3.65,2,3.95,1.54.36,3.21-1.21,3.74-3.5S159.88,37.51,158.35,37.15Z"/><path d="M156.89,45.7a2,2,0,0,1-.49-.06c-1.39-.32-2.34-2.11-2.2-4.16v-.15l1.24-.36-1-.58.06-.16c.65-1.89,2.28-3.64,3.86-3.28h0c1.64.38,2.53,2.64,2,5a5.64,5.64,0,0,1-1.54,2.85A2.88,2.88,0,0,1,156.89,45.7Zm-2.29-4.06c-.07,1.77.74,3.34,1.89,3.6a2.26,2.26,0,0,0,2.06-.71A5.29,5.29,0,0,0,160,41.89c.5-2.18-.26-4.21-1.68-4.54-1.17-.27-2.64,1-3.33,2.86l1.5.89Z"/><path d="M156.28,37.8a3.11,3.11,0,0,1-.55-.65,3.45,3.45,0,0,1-.43-1l.39-.11a2.9,2.9,0,0,0,.38.84,3,3,0,0,0,.49.58Z"/><path d="M157.34,37.21a3.8,3.8,0,0,1-.21-.82,3.4,3.4,0,0,1,0-.78l.4,0a3.29,3.29,0,0,0,0,.7,3.56,3.56,0,0,0,.19.73Z"/><path d="M159,37.35l-.4,0a3.79,3.79,0,0,1,.13-.82,3.94,3.94,0,0,1,.25-.68l.37.17a4.62,4.62,0,0,0-.23.62A4.4,4.4,0,0,0,159,37.35Z"/><path class="cls-3" d="M161,44.62a1.19,1.19,0,1,0,1.35-.88A1.14,1.14,0,0,0,161,44.62Z"/><path d="M162.22,46.13a1.06,1.06,0,0,1-.25,0,1.31,1.31,0,1,1,1.59-1A1.34,1.34,0,0,1,162.22,46.13Zm-.06-2.21a.9.9,0,0,0-.12,1.79.9.9,0,1,0,.3-1.77Z"/><path class="cls-5" d="M159.15,46.14s-2.33,8,.59,8.67c3.32.72,4.33-7.6,4.33-7.6a5.5,5.5,0,0,1-4.92-1.07Z"/><path d="M160.14,55.06a2.3,2.3,0,0,1-.45-.05,1.71,1.71,0,0,1-1.12-.84c-1.3-2.19.32-7.85.39-8.09l.08-.3.24.2A5.29,5.29,0,0,0,164,47l.29-.08,0,.3c0,.24-.74,5.86-2.93,7.42A2.07,2.07,0,0,1,160.14,55.06Zm-.87-8.57c-.32,1.19-1.4,5.7-.35,7.47a1.27,1.27,0,0,0,.86.65,1.61,1.61,0,0,0,1.33-.29c1.78-1.26,2.55-5.67,2.72-6.85a5.69,5.69,0,0,1-2.44,0A5.93,5.93,0,0,1,159.27,46.49Z"/><polygon points="159.13 54.37 158.73 54.3 160.35 46.93 160.75 47.02 159.13 54.37"/><rect x="157.75" y="50.87" width="7.56" height="0.41" transform="translate(75.75 197.17) rotate(-77.13)"/><polygon points="163.08 51.56 158.3 50.53 158.38 50.13 163.16 51.17 163.08 51.56"/><path class="cls-2" d="M81.67,53.26A187.31,187.31,0,0,0,105,101.4c4.87,7.17,9.76,14.21,13.78,21.92a116.69,116.69,0,0,1,9.46,24.11,91.69,91.69,0,0,1,2.95,29.17c-.17,2.54-4.09,1.94-3.92-.6,1.11-17-3.51-33.86-11.06-49a178.62,178.62,0,0,0-13.48-21.89A185.69,185.69,0,0,1,89.25,82.34,194.74,194.74,0,0,1,78,54.76C77.23,52.34,80.89,50.83,81.67,53.26Z"/><path d="M129.41,178.43h-.15A2.3,2.3,0,0,1,127,176c1-15.7-2.69-32.16-11-48.92a180,180,0,0,0-13.47-21.86A186.8,186.8,0,0,1,89.07,82.43,193.72,193.72,0,0,1,77.81,54.82a2.27,2.27,0,0,1,1.55-2.89,1.89,1.89,0,0,1,2.51,1.27h0a186.43,186.43,0,0,0,23.27,48.09l1,1.53a205.34,205.34,0,0,1,12.75,20.4,117,117,0,0,1,9.48,24.16,91.91,91.91,0,0,1,3,29.23A1.84,1.84,0,0,1,129.41,178.43ZM80.07,52.23a1.85,1.85,0,0,0-.58.09,1.87,1.87,0,0,0-1.29,2.37A191.91,191.91,0,0,0,89.43,82.24,186.11,186.11,0,0,0,102.86,105a178.65,178.65,0,0,1,13.5,21.9c8.38,16.83,12.11,33.36,11.08,49.14a1.88,1.88,0,0,0,1.84,2,1.45,1.45,0,0,0,1.67-1.43,91.36,91.36,0,0,0-2.94-29.1,116,116,0,0,0-9.44-24.08,205.73,205.73,0,0,0-12.73-20.36l-1-1.53a187.12,187.12,0,0,1-23.32-48.2h0A1.42,1.42,0,0,0,80.07,52.23Z"/><path class="cls-2" d="M102.19,104.39S93.62,86.54,65.41,94C65.41,94,78.39,115.82,102.19,104.39Z"/><path d="M88.82,107.88a25.66,25.66,0,0,1-14-4.22,33.08,33.08,0,0,1-9.53-9.55l-.14-.23.26-.07c8.08-2.14,19.69-3.46,29.13,2.41a22.21,22.21,0,0,1,7.89,8.08l.09.18-.19.09A30.83,30.83,0,0,1,88.82,107.88ZM65.73,94.13A33,33,0,0,0,75,103.32c5.6,3.62,14.8,6.71,26.92,1a22.18,22.18,0,0,0-7.67-7.74C89.15,93.39,80.06,90.4,65.73,94.13Z"/><rect x="91.7" y="90.24" width="0.41" height="21.69" transform="translate(-31.22 160.3) rotate(-73.41)"/><path class="cls-6" d="M48.67,34.33c5.32-9,15-.9,21.27,2.35l.11-.08c-4.6-6-11.4-18,2.59-23.28C76,12,79.36,11.44,83.21,13,87.41,14.72,94,21.22,88,34.67v0l0,0s10.83-16.61,20.15-8.66c2.58,2.2,6.34,9.56,5.44,14.47-1.46,8-19.35,7.17-19.35,7.17v0c6.38.77,22.34,2.71,14.76,17.62-1.71,3.37-7.1,8.43-11,9.31-4.77,1.07-9.22-1-15-15.29-.68,5.9.58,23.56-15.5,17.67a14.47,14.47,0,0,1-8.65-8.19c-3.11-7.5-2.15-8.32,8.76-15.26,0,0,1.83-1.19,3-2-9.39,4.15-19.13,5.28-22.61,1C43.9,47.71,46.94,37.24,48.67,34.33Z"/><path d="M73.2,78.44a17.34,17.34,0,0,1-5.84-1.19A14.64,14.64,0,0,1,58.6,69c-3.16-7.61-2.23-8.47,8.83-15.51h0c.15-.13.48-.34,1.12-.76-8.17,3.2-17.27,4.37-20.77.1-4.17-5.1-.91-15.85.7-18.57h0c4.55-7.68,12.13-3.2,18.22.39,1,.58,1.91,1.13,2.79,1.61C66.28,31.9,63,25.86,64.44,20.63c.93-3.28,3.67-5.8,8.13-7.5,2.94-1.12,6.51-2,10.72-.31a11.89,11.89,0,0,1,6.36,6.59c1.56,3.9,1.25,8.57-.89,13.92a38.68,38.68,0,0,1,3.17-3.73c2.28-2.35,5.78-5.27,9.52-5.81a8.43,8.43,0,0,1,6.86,2.12c2.48,2.12,6.43,9.6,5.5,14.66-1.13,6.2-11.56,7.22-16.72,7.35,4.59.69,10.9,2.22,13.23,6.59,1.51,2.84,1.14,6.53-1.1,10.95C107.43,69,101.91,74,98,74.88c-4.84,1.09-9.26-1-15-14.65,0,.55-.09,1.16-.13,1.84-.29,4.86-.73,12.21-5.19,15.13A8.1,8.1,0,0,1,73.2,78.44ZM67.82,53.66h0l-.17.11c-11,7-11.72,7.68-8.68,15a14.35,14.35,0,0,0,8.53,8.07c4.26,1.56,7.63,1.55,10,0,4.29-2.81,4.72-10,5-14.82.06-1,.11-1.93.2-2.67l.09-.79.3.74C88.87,73.37,93.2,75.54,97.93,74.49c3.79-.85,9.17-5.77,10.92-9.22C111,61,111.41,57.42,110,54.7c-2.77-5.19-11.51-6.24-15.71-6.75h-.09l0-.07a.26.26,0,0,1,0-.22l0-.17h.16c.18,0,17.72.76,19.14-7,.9-4.93-2.94-12.21-5.37-14.28a8,8,0,0,0-6.53-2c-7,1-13.25,10.53-13.31,10.63l-.11.16-.22-.13-.08-.08,0-.09,0-.1c2.64-5.84,3.14-10.9,1.5-15a11.48,11.48,0,0,0-6.14-6.37c-4.08-1.67-7.56-.78-10.42.31-4.34,1.65-7,4.08-7.89,7.23C63.26,26.3,67.52,33,70.21,36.48l.17.22-.23.08c-.1.08-.18.14-.29.09-1-.54-2.17-1.21-3.36-1.91-5.93-3.5-13.31-7.86-17.66-.53h0c-1.57,2.66-4.78,13.16-.73,18.1,3.17,3.88,12.16,3.44,22.37-1.08l.19.36-1.5,1Zm26.45-6.12h0Z"/><polygon points="78.7 33.42 76.7 20.43 77.11 20.37 79.11 33.36 78.7 33.42"/><rect x="92.37" y="36.89" width="12.81" height="0.41" transform="translate(-5.58 52.7) rotate(-29.09)"/><rect x="61.38" y="36.75" width="0.41" height="15.28" transform="translate(10.32 100.37) rotate(-83.3)"/><rect x="95.02" y="52.82" width="0.41" height="13.05" transform="translate(-15.06 79.99) rotate(-42.54)"/><rect x="65.08" y="62.15" width="13.55" height="0.41" transform="matrix(0.54, -0.84, 0.84, 0.54, -19.33, 89.49)"/><path class="cls-4" d="M68.63,47.83A12.63,12.63,0,1,0,79.19,33.42,12.65,12.65,0,0,0,68.63,47.83Z"/><path d="M81.09,58.74A12.83,12.83,0,1,1,93.8,44,12.85,12.85,0,0,1,83.07,58.59,13.2,13.2,0,0,1,81.09,58.74Zm0-25.26a12.52,12.52,0,0,0-1.92.15,12.36,12.36,0,1,0,1.92-.15Z"/><path class="cls-3" d="M84.48,48.62a3.76,3.76,0,1,0,1.31-5.16A3.77,3.77,0,0,0,84.48,48.62Z"/><path class="cls-3" d="M72.52,52.26a3.76,3.76,0,1,0,1.31-5.16A3.77,3.77,0,0,0,72.52,52.26Z"/><path class="cls-3" d="M79.62,45.46a1.19,1.19,0,1,0,1-1.3A1.14,1.14,0,0,0,79.62,45.46Z"/><path d="M80.75,46.55a1.33,1.33,0,0,1-1.33-1h0A1.39,1.39,0,0,1,82.15,45a1.3,1.3,0,0,1-.23,1,1.41,1.41,0,0,1-.89.55Zm-.93-1.13a.93.93,0,0,0,1.13.7,1,1,0,0,0,.64-.39.86.86,0,0,0,.16-.67.93.93,0,0,0-1.13-.7,1,1,0,0,0-.8,1.06Z"/><path d="M85.23,37.92c1.37-.38,3,1.09,3.76,3l-1.21.78,1.58.39c.2,1.88-.58,3.69-1.87,4-1.52.42-3.26-1.08-3.88-3.34S83.71,38.34,85.23,37.92Z"/><path d="M87,46.4a2.9,2.9,0,0,1-1.88-.79,5.65,5.65,0,0,1-1.67-2.78c-.65-2.37.14-4.66,1.77-5.11h0c1.57-.43,3.26,1.25,4,3.12l.06.15-1,.62,1.27.31v.14c.22,2-.64,3.88-2,4.26A2.25,2.25,0,0,1,87,46.4Zm-1.68-8.28c-1.4.38-2.07,2.45-1.48,4.6a5.29,5.29,0,0,0,1.54,2.58,2.3,2.3,0,0,0,2.09.63c1.14-.32,1.89-1.92,1.74-3.68l-1.9-.47,1.47-1c-.78-1.82-2.3-3-3.46-2.71Z"/><path d="M87.32,38.48,87,38.19a3,3,0,0,0,.47-.6,3.15,3.15,0,0,0,.34-.85l.4.09a3.4,3.4,0,0,1-.39,1A3.88,3.88,0,0,1,87.32,38.48Z"/><path d="M86.23,37.94l-.38-.13a3.85,3.85,0,0,0,.16-.75,3.28,3.28,0,0,0,0-.7l.4,0a4.07,4.07,0,0,1,0,.78A3.94,3.94,0,0,1,86.23,37.94Z"/><path d="M84.55,38.14a3.06,3.06,0,0,0-.15-.73,3.16,3.16,0,0,0-.25-.6l.36-.2a4,4,0,0,1,.28.68,3.77,3.77,0,0,1,.17.81Z"/><path d="M73.39,41.41c-1.36.4-2,2.51-1.63,4.52l1.45,0-1.14,1.16c.81,1.71,2.42,2.83,3.71,2.45,1.51-.44,2.2-2.63,1.54-4.88S74.9,41,73.39,41.41Z"/><path d="M75.26,49.85a4.21,4.21,0,0,1-3.38-2.64l-.06-.13.91-.93-1.14,0,0-.17c-.35-2,.21-4.29,1.77-4.75h0c1.62-.47,3.5,1.06,4.19,3.42s-.06,4.66-1.68,5.13A2,2,0,0,1,75.26,49.85Zm-3-2.69c.81,1.58,2.28,2.54,3.42,2.21,1.4-.41,2-2.48,1.4-4.63s-2.28-3.55-3.68-3.14c-1.15.34-1.81,2.17-1.51,4.13l1.74,0Z"/><path d="M71.91,43a4,4,0,0,1-.81-.3,3.38,3.38,0,0,1-.84-.62l.29-.29a3,3,0,0,0,.74.55,2.87,2.87,0,0,0,.71.26Z"/><path d="M72.54,42a4.85,4.85,0,0,1-.59-.61,3.54,3.54,0,0,1-.41-.67l.36-.18a4.6,4.6,0,0,0,.37.6,3.45,3.45,0,0,0,.54.54Z"/><path d="M73.72,41.42a3.66,3.66,0,0,1-.29-.78,3.58,3.58,0,0,1-.11-.73l.41,0a2.84,2.84,0,0,0,.1.65,3.43,3.43,0,0,0,.25.7Z"/><path d="M81.22,50.57a2.63,2.63,0,0,1-2.34-1.38l.34-.21A2.36,2.36,0,0,0,82,50.07a2.77,2.77,0,0,0,2.1-2.41l.41,0a3.18,3.18,0,0,1-2.41,2.78A3.36,3.36,0,0,1,81.22,50.57Z"/><path class="cls-3" d="M84.46,44.88A3.9,3.9,0,0,0,84,47.83a4,4,0,0,0,2.16,2.29"/><path d="M86.17,50.32l-.09,0a4.15,4.15,0,0,1-2.27-2.41,4,4,0,0,1,.48-3.11.19.19,0,0,1,.27-.08.2.2,0,0,1,.08.28,3.63,3.63,0,0,0-.44,2.79,3.77,3.77,0,0,0,2.06,2.16.2.2,0,0,1,.09.27A.18.18,0,0,1,86.17,50.32Z"/><path class="cls-3" d="M77.56,47a4.2,4.2,0,0,1,2,2.32,3.75,3.75,0,0,1-.6,3"/><path d="M78.92,52.52a.15.15,0,0,1-.11,0,.21.21,0,0,1-.06-.28,3.52,3.52,0,0,0,.57-2.84,3.91,3.91,0,0,0-1.86-2.21.2.2,0,0,1-.07-.28.22.22,0,0,1,.28-.07,4.29,4.29,0,0,1,2,2.45,3.9,3.9,0,0,1-.62,3.17A.21.21,0,0,1,78.92,52.52Z"/><path class="cls-2" d="M110.57,174.67c3.83-12.29,7.32-24.73,9.27-37.48a123.53,123.53,0,0,0,1.48-18.92c0-6.58-.55-13.14-1-19.7a148.48,148.48,0,0,1-.18-22.12c.21-2.53,4.18-2.55,4,0-1.11,13.24.88,26.43,1.13,39.66.25,13-1.82,25.93-4.89,38.52-1.74,7.1-3.8,14.12-6,21.09C113.63,178.15,109.81,177.11,110.57,174.67Z"/><path d="M112.52,177.31a2.72,2.72,0,0,1-.75-.11,2,2,0,0,1-1.4-2.59h0c3.44-11,7.23-24.1,9.27-37.45a124.65,124.65,0,0,0,1.48-18.89c0-5.44-.39-11-.75-16.32-.08-1.12-.15-2.24-.23-3.36A147.36,147.36,0,0,1,120,76.43a2.28,2.28,0,0,1,2.56-2.08,1.87,1.87,0,0,1,1.81,2.11c-.72,8.47-.15,17.08.4,25.4.31,4.66.63,9.49.72,14.24.22,11.57-1.38,24.19-4.9,38.58-1.5,6.16-3.34,12.66-6,21.1A2.07,2.07,0,0,1,112.52,177.31Zm-1.76-2.58a1.59,1.59,0,0,0,1.13,2.08,1.77,1.77,0,0,0,2.31-1.15c2.62-8.43,4.47-14.93,6-21.07,3.51-14.36,5.1-26.94,4.88-38.48-.09-4.74-.4-9.57-.71-14.23-.56-8.33-1.13-16.95-.41-25.45a1.46,1.46,0,0,0-1.44-1.67,1.89,1.89,0,0,0-2.12,1.7,148,148,0,0,0,.18,22.1c.07,1.12.15,2.24.22,3.37.36,5.35.74,10.88.75,16.34a124.13,124.13,0,0,1-1.48,19c-2,13.38-5.83,26.47-9.28,37.51Z"/><path class="cls-5" d="M91.3,55c6.42-8.23,15,1,20.81,5l.11-.07c-3.8-6.52-9-19.26,5.54-22.76,3.51-.84,6.9-1,10.52,1,3.95,2.23,9.7,9.52,2,22.09v0l0,0s12.86-15.09,21.09-6c2.27,2.51,5.06,10.28,3.55,15-2.48,7.77-20.11,4.64-20.11,4.64v0c6.23,1.58,21.81,5.54,12.39,19.36-2.12,3.12-8.12,7.46-12.15,7.83-4.86.45-9-2.2-13-17.08-1.42,5.76-2.42,23.43-17.62,15.55a14.44,14.44,0,0,1-7.53-9.22c-2.14-7.84-1.08-8.53,10.63-14,0,0,2-1,3.24-1.57-9.84,2.92-19.64,2.8-22.56-1.86C84.87,67.66,89.22,57.66,91.3,55Z"/><path d="M111.31,102a15.36,15.36,0,0,1-6.93-2,14.72,14.72,0,0,1-7.64-9.35c-2.16-7.95-1.13-8.69,10.74-14.26h0c.13-.08.44-.23,1.21-.6-8.51,2.13-17.69,2.13-20.61-2.55-3.49-5.58,1.12-15.83,3.06-18.32h0c5.49-7,12.44-1.64,18,2.7.9.7,1.76,1.37,2.56,2-2.64-4.69-5.16-11.1-3-16.1,1.34-3.14,4.38-5.29,9-6.4,3.06-.74,6.72-1.19,10.68,1a12,12,0,0,1,5.47,7.35c1,4.06.14,8.66-2.67,13.69a40.18,40.18,0,0,1,3.63-3.3c2.55-2,6.4-4.48,10.18-4.54a8.37,8.37,0,0,1,6.53,3c2.19,2.42,5.15,10.34,3.59,15.24-1.91,6-12.38,5.69-17.51,5.16,4.45,1.27,10.51,3.59,12.27,8.22,1.14,3,.31,6.62-2.49,10.72-2.22,3.27-8.33,7.56-12.3,7.93-5,.45-9.06-2.2-13-16.45-.11.54-.23,1.15-.35,1.81-.91,4.79-2.29,12-7.08,14.35A7.67,7.67,0,0,1,111.31,102Zm-3.47-25.35h0l-.19.09c-11.76,5.52-12.6,6.12-10.52,13.78a14.35,14.35,0,0,0,7.43,9.1c4,2.08,7.37,2.51,9.94,1.26,4.61-2.24,6-9.35,6.86-14,.19-1,.36-1.91.54-2.63l.19-.77.2.77c3.91,14.66,7.93,17.38,12.76,16.93,3.87-.35,9.83-4.56,12-7.75,2.71-4,3.53-7.46,2.44-10.35-2.09-5.49-10.62-7.65-14.72-8.69l-.09,0,0-.08a.29.29,0,0,1,0-.22l.06-.16.17,0c.17,0,17.48,3,19.87-4.5,1.52-4.77-1.36-12.48-3.5-14.85a8,8,0,0,0-6.09-2.84H145c-7,.11-14.49,8.77-14.57,8.85l-.12.15-.21-.15-.06-.1,0-.09,0-.1c3.36-5.45,4.51-10.4,3.4-14.71a11.53,11.53,0,0,0-5.28-7.1c-3.83-2.16-7.39-1.73-10.37-1-4.51,1.08-7.46,3.16-8.74,6.17-2.27,5.31,1.11,12.48,3.32,16.29l.15.25-.25,0c-.11.07-.18.11-.28.06-1-.68-2-1.48-3.1-2.32-5.44-4.24-12.2-9.5-17.45-2.78h0c-1.9,2.43-6.42,12.44-3,17.86,2.65,4.24,11.62,5,22.32,1.77l.15.38-1.6.77Zm27-2.7h0Z"/><polygon points="121.21 57.92 120.88 44.78 121.29 44.77 121.62 57.91 121.21 57.92"/><rect x="134.24" y="63.92" width="12.81" height="0.41" transform="translate(-13.75 56.76) rotate(-21.78)"/><rect x="102.63" y="58.97" width="0.41" height="15.28" transform="translate(13.3 150.26) rotate(-75.99)"/><rect x="134.09" y="79.21" width="0.41" height="13.05" transform="translate(-24.86 93.13) rotate(-35.22)"/><rect x="103.96" y="85.54" width="13.55" height="0.41" transform="translate(-26 116.06) rotate(-50.25)"/><path class="cls-4" d="M109.39,70.93A12.63,12.63,0,1,0,121.69,58,12.62,12.62,0,0,0,109.39,70.93Z"/><path d="M122,83.44a12.85,12.85,0,0,1-12.83-12.51h0a12.83,12.83,0,1,1,13.16,12.51ZM109.59,70.92a12.42,12.42,0,1,0,24.84-.62A12.43,12.43,0,0,0,121.7,58.19a12.44,12.44,0,0,0-12.11,12.73Z"/><path class="cls-3" d="M125.16,73.12a3.77,3.77,0,1,0,3.72-3.8A3.76,3.76,0,0,0,125.16,73.12Z"/><path class="cls-3" d="M111.77,73.44a3.77,3.77,0,1,0,3.72-3.81A3.77,3.77,0,0,0,111.77,73.44Z"/><path d="M128.34,63.13c1.42,0,2.64,1.83,2.88,3.85l-1.38.45,1.43.78c-.28,1.87-1.49,3.42-2.84,3.43-1.57,0-2.87-1.87-2.89-4.22S126.77,63.15,128.34,63.13Z"/><path d="M128.41,71.84a2.66,2.66,0,0,1-2.17-1.31,5.62,5.62,0,0,1-.91-3.11,5.67,5.67,0,0,1,.84-3.13,2.67,2.67,0,0,1,2.17-1.36h0c1.62,0,2.82,2,3.06,4l0,.17-1.08.35,1.14.62,0,.14c-.31,2-1.62,3.59-3,3.6Zm-.07-8.5a2.28,2.28,0,0,0-1.83,1.17,5.64,5.64,0,0,0,.06,5.79,2.3,2.3,0,0,0,1.84,1.14h0c1.18,0,2.31-1.37,2.62-3.12l-1.72-.93,1.66-.55c-.28-2-1.44-3.5-2.63-3.5Z"/><path d="M130.22,64.21l-.2-.36a2.94,2.94,0,0,0,.6-.45,3.15,3.15,0,0,0,.55-.75l.36.19a3.54,3.54,0,0,1-.63.85A3.5,3.5,0,0,1,130.22,64.21Z"/><path d="M129.31,63.41l-.34-.23a3.36,3.36,0,0,0,.35-.68,3.57,3.57,0,0,0,.18-.68l.4.07a3.86,3.86,0,0,1-.2.76A3.9,3.9,0,0,1,129.31,63.41Z"/><path d="M128,63.24l-.4-.06a3.15,3.15,0,0,0,0-.75,3.63,3.63,0,0,0-.09-.65l.4-.09a4.3,4.3,0,0,1,.1.72A3.82,3.82,0,0,1,128,63.24Z"/><path d="M116,63.49c-1.42,0-2.57,1.92-2.73,3.95l1.39.4-1.4.83c.35,1.86,1.62,3.36,3,3.32,1.57,0,2.8-2,2.73-4.33S117.58,63.44,116,63.49Z"/><path d="M116.19,72.19c-1.41,0-2.74-1.48-3.12-3.48l0-.14,1.12-.66-1.1-.32,0-.16c.16-2,1.29-4.1,2.92-4.15h0a2.73,2.73,0,0,1,2.22,1.28,5.75,5.75,0,0,1,1,3.1c.06,2.45-1.25,4.49-2.94,4.53Zm-2.69-3.42c.37,1.74,1.55,3.06,2.73,3,1.46,0,2.6-1.89,2.54-4.12a5.19,5.19,0,0,0-.88-2.87A2.22,2.22,0,0,0,116,63.69h0c-1.2,0-2.3,1.63-2.51,3.6l1.68.48Z"/><path d="M114.17,64.63a3.39,3.39,0,0,1-.7-.49,3.71,3.71,0,0,1-.66-.82l.35-.21a2.91,2.91,0,0,0,.58.72,3.32,3.32,0,0,0,.62.44Z"/><path d="M115.05,63.79a4.15,4.15,0,0,1-.42-.74,3.83,3.83,0,0,1-.23-.75l.4-.08a3.07,3.07,0,0,0,.21.67,3.36,3.36,0,0,0,.37.67Z"/><path d="M116.32,63.58a3.83,3.83,0,0,1-.08-.83,3.53,3.53,0,0,1,.08-.72l.4.08a2.81,2.81,0,0,0-.07.65,3,3,0,0,0,.07.74Z"/><path class="cls-3" d="M120.84,70a1.14,1.14,0,0,0,1.21,1.07A1.11,1.11,0,1,0,120.84,70Z"/><path d="M122,71.29a1.41,1.41,0,0,1-1-.35,1.25,1.25,0,0,1-.43-.91h0a1.2,1.2,0,0,1,.38-.94,1.38,1.38,0,0,1,1-.41,1.42,1.42,0,0,1,1,.35,1.26,1.26,0,0,1,.44.91,1.31,1.31,0,0,1-.38,1,1.44,1.44,0,0,1-1,.4Zm0-2.2h0a1,1,0,0,0-.69.28A.9.9,0,0,0,121,70h0a.92.92,0,0,0,.3.63,1.07,1.07,0,0,0,1.4,0A.85.85,0,0,0,123,70a.84.84,0,0,0-.3-.63A1,1,0,0,0,122,69.09Z"/><path d="M119.78,77a13.07,13.07,0,0,0,2.54,2.76h0A13.88,13.88,0,0,0,124.75,77a5.73,5.73,0,0,0,1-3.54,1.8,1.8,0,0,0-.83-1.4,1.45,1.45,0,0,0-.67-.18c-.59,0-1.31.39-2,1.81-1.07-2-2.13-1.87-2.74-1.49a1.81,1.81,0,0,0-.8,1.44A5.56,5.56,0,0,0,119.78,77Z"/><path d="M122.33,80h-.08l-.06,0a13,13,0,0,1-2.58-2.81h0a5.66,5.66,0,0,1-1.1-3.55,2,2,0,0,1,.89-1.6,1.59,1.59,0,0,1,1.25-.19,3,3,0,0,1,1.59,1.44c.6-1.07,1.29-1.59,2-1.6a1.61,1.61,0,0,1,.76.21,1.94,1.94,0,0,1,.94,1.55,5.73,5.73,0,0,1-1,3.67,13.76,13.76,0,0,1-2.43,2.86l-.06,0Zm-2.08-7.85a1.24,1.24,0,0,0-.64.19,1.63,1.63,0,0,0-.7,1.28,5.32,5.32,0,0,0,1,3.3h0a13.21,13.21,0,0,0,2.37,2.61,13.28,13.28,0,0,0,2.25-2.67,5.43,5.43,0,0,0,1-3.41,1.57,1.57,0,0,0-.73-1.24,1.37,1.37,0,0,0-.58-.16c-.64,0-1.27.59-1.82,1.7l-.17.35-.19-.35a2.9,2.9,0,0,0-1.53-1.56A1,1,0,0,0,120.25,72.13Z"/><path class="cls-6" d="M119.78,77a13.07,13.07,0,0,0,2.54,2.76h0A13.88,13.88,0,0,0,124.75,77a3.45,3.45,0,0,0-2.67-.93A3.73,3.73,0,0,0,119.78,77Z"/><path d="M122.33,80h-.08l-.06,0a13,13,0,0,1-2.58-2.81l-.09-.14.12-.12a3.92,3.92,0,0,1,2.42-1,3.64,3.64,0,0,1,2.83,1l.12.11-.09.14a13.76,13.76,0,0,1-2.43,2.86l-.06,0ZM120.05,77a12.85,12.85,0,0,0,2.27,2.47A13.68,13.68,0,0,0,124.49,77a3.31,3.31,0,0,0-2.4-.76A3.63,3.63,0,0,0,120.05,77Z"/><path d="M122.33,80h-.08l-.06,0a13,13,0,0,1-2.58-2.81h0a5.66,5.66,0,0,1-1.1-3.55,2,2,0,0,1,.89-1.6,1.59,1.59,0,0,1,1.25-.19,3,3,0,0,1,1.59,1.44c.6-1.07,1.29-1.59,2-1.6a1.61,1.61,0,0,1,.76.21,1.94,1.94,0,0,1,.94,1.55,5.73,5.73,0,0,1-1,3.67,13.76,13.76,0,0,1-2.43,2.86l-.06,0Zm-2.08-7.85a1.24,1.24,0,0,0-.64.19,1.63,1.63,0,0,0-.7,1.28,5.32,5.32,0,0,0,1,3.3h0a13.21,13.21,0,0,0,2.37,2.61,13.28,13.28,0,0,0,2.25-2.67,5.43,5.43,0,0,0,1-3.41,1.57,1.57,0,0,0-.73-1.24,1.37,1.37,0,0,0-.58-.16c-.64,0-1.27.59-1.82,1.7l-.17.35-.19-.35a2.9,2.9,0,0,0-1.53-1.56A1,1,0,0,0,120.25,72.13Z"/><path class="cls-6" d="M184.36,140a25.3,25.3,0,0,0-12.68,4.14l1.95,12.25a14.84,14.84,0,0,1,10.89-5.63,14.35,14.35,0,0,1,14.88,14.1,14.87,14.87,0,0,1-14,15.43,14.56,14.56,0,0,1-8.44-2.12l1.82,11.57a25.24,25.24,0,0,0,7.1.66c13.6-.63,24.29-12.41,23.86-26.33S198,139.39,184.36,140Z"/><path d="M184.69,190.65a25.1,25.1,0,0,1-5.93-.69l-.13,0-1.92-12.16.39.25a14.24,14.24,0,0,0,8.32,2.08,14.68,14.68,0,0,0,13.78-15.21,14.39,14.39,0,0,0-4.61-10.22A13.74,13.74,0,0,0,184.53,151a14.7,14.7,0,0,0-10.74,5.56l-.29.36-2-12.84.11-.07a25.66,25.66,0,0,1,12.78-4.18h0a24.06,24.06,0,0,1,17.58,6.45,25.12,25.12,0,0,1,8,17.82c.43,14-10.36,25.91-24.05,26.54ZM179,189.6a24.77,24.77,0,0,0,6.91.61c13.47-.62,24.09-12.33,23.66-26.11a24.71,24.71,0,0,0-7.91-17.54,23.64,23.64,0,0,0-17.28-6.34,25.18,25.18,0,0,0-12.46,4l1.85,11.67a15.13,15.13,0,0,1,10.75-5.36,14.24,14.24,0,0,1,10.36,3.8,14.82,14.82,0,0,1,4.74,10.5,15.1,15.1,0,0,1-14.17,15.64,14.81,14.81,0,0,1-8.18-1.91Z"/><path class="cls-6" d="M68.21,219.57H183.34L167.75,118.34a160.48,160.48,0,0,1-42,5.53,160.53,160.53,0,0,1-41.58-5.53Q76.17,169,68.21,219.57Z"/><path d="M183.58,219.78H68l0-.24L84,118.08l.22.06a160.35,160.35,0,0,0,41.52,5.53h.24a160.45,160.45,0,0,0,41.76-5.53l.22-.06Zm-115.13-.41H183.1L167.59,118.6a161.34,161.34,0,0,1-41.65,5.48h-.24a161.27,161.27,0,0,1-41.41-5.49Z"/><path class="cls-5" d="M10,101.46a2.91,2.91,0,0,1,.51-1.09,5.14,5.14,0,0,1,2.85-1.81,11.44,11.44,0,0,1,6,.37,18.83,18.83,0,0,1,8.22,5.93c.7.81,1.37,1.64,2,2.48.21.27.5.71.79,1.06a32.59,32.59,0,0,0-6.51-3.09c-2.74-.85-5.31-.42-8.08-.09C13.56,105.47,9.15,105,10,101.46Z"/><path d="M31.24,109.13l-1-.56a32.32,32.32,0,0,0-6.47-3.06c-2.44-.76-4.77-.48-7.23-.18l-.77.09c-1.42.17-4.19.06-5.49-1.38a2.8,2.8,0,0,1-.56-2.63h0a3.09,3.09,0,0,1,.55-1.16,5.23,5.23,0,0,1,3-1.88,11.61,11.61,0,0,1,6.13.37,18.85,18.85,0,0,1,8.32,6c.68.8,1.37,1.64,2,2.5l.25.35c.16.22.35.48.53.7Zm-10.88-4.52a11.66,11.66,0,0,1,3.56.51,29.52,29.52,0,0,1,5.7,2.61l-.2-.26c-.65-.85-1.33-1.69-2-2.48a18.45,18.45,0,0,0-8.13-5.86,11.25,11.25,0,0,0-5.92-.37,5,5,0,0,0-2.74,1.73,2.81,2.81,0,0,0-.47,1h0a2.42,2.42,0,0,0,.47,2.27c1,1.15,3.38,1.45,5.14,1.24l.76-.09A31.69,31.69,0,0,1,20.36,104.61Z"/><path class="cls-5" d="M11.69,101.89Z"/><path class="cls-5" d="M16.2,116.65a2,2,0,0,1-.17-.83,3.83,3.83,0,0,1,.81-2.33,8.52,8.52,0,0,1,3.47-2.63,12.65,12.65,0,0,1,7-.63c.72.12,1.44.25,2.16.41.22,0,.57.15.87.21a22.57,22.57,0,0,0-4.88,1.37A14.37,14.37,0,0,0,21,116C19.88,117.15,17.25,119,16.2,116.65Z"/><path d="M17.76,118a1.66,1.66,0,0,1-.32,0A1.87,1.87,0,0,1,16,116.73a2.25,2.25,0,0,1-.2-.91,4.17,4.17,0,0,1,.85-2.46,8.85,8.85,0,0,1,3.56-2.69,12.84,12.84,0,0,1,7.13-.64c.71.11,1.44.25,2.17.41l.29.07.58.14,1.06.19-1.06.21a22.86,22.86,0,0,0-4.83,1.35,12.85,12.85,0,0,0-4.05,3.29l-.38.41A5.52,5.52,0,0,1,17.76,118Zm7-7.75a11,11,0,0,0-4.33.82A8.44,8.44,0,0,0,17,113.61a3.77,3.77,0,0,0-.77,2.2,1.8,1.8,0,0,0,.16.75h0a1.5,1.5,0,0,0,1.11,1c1,.17,2.46-.77,3.34-1.72l.39-.4A12.93,12.93,0,0,1,25.4,112a20.38,20.38,0,0,1,4-1.2c-.72-.15-1.43-.29-2.11-.4A16.8,16.8,0,0,0,24.72,110.22Z"/><path class="cls-5" d="M17.34,116.07Z"/><path class="cls-5" d="M58.36,107.29a2,2,0,0,0-.15-.84,3.66,3.66,0,0,0-1.61-1.79,8.09,8.09,0,0,0-4.17-.94,13,13,0,0,0-6.67,2.42c-.62.41-1.23.85-1.83,1.29-.18.14-.46.38-.72.57a22.24,22.24,0,0,1,5-.82c2,0,3.69.76,5.52,1.52C55.18,109.31,58.26,109.85,58.36,107.29Z"/><path d="M56.11,109.41a6.91,6.91,0,0,1-2.48-.52l-.5-.22a11.92,11.92,0,0,0-4.93-1.29,22.44,22.44,0,0,0-4.94.81l-1.07.27.9-.63c.16-.11.33-.25.48-.37l.24-.19c.61-.46,1.23-.89,1.84-1.3a13.09,13.09,0,0,1,6.77-2.45,8.45,8.45,0,0,1,4.28,1,3.94,3.94,0,0,1,1.7,1.9,2.11,2.11,0,0,1,.16.92,2,2,0,0,1-.88,1.72A2.85,2.85,0,0,1,56.11,109.41ZM48.34,107a12.54,12.54,0,0,1,4.95,1.33l.5.21c1.15.48,2.78.74,3.67.17a1.63,1.63,0,0,0,.7-1.4h0a1.89,1.89,0,0,0-.14-.76,3.51,3.51,0,0,0-1.52-1.68,7.93,7.93,0,0,0-4.06-.91,12.72,12.72,0,0,0-6.57,2.38c-.59.4-1.19.82-1.78,1.26a19.9,19.9,0,0,1,4.1-.6Z"/><path class="cls-5" d="M57.1,107.24Z"/><path class="cls-5" d="M58,90.92a2.77,2.77,0,0,0-.88-.77,4.89,4.89,0,0,0-3.3-.4,11.91,11.91,0,0,0-5.35,3,20.3,20.3,0,0,0-5.22,9c-.33,1-.62,2.09-.89,3.15-.08.33-.19.86-.31,1.31a35.39,35.39,0,0,1,4.74-5.66c2.18-2,4.69-2.71,7.34-3.63C56.26,96.16,60.1,93.79,58,90.92Z"/><path d="M41.53,107.27l.33-1.14c.08-.28.15-.59.21-.86s.07-.31.1-.44c.27-1.07.57-2.13.89-3.16a20.39,20.39,0,0,1,5.28-9.09,12.09,12.09,0,0,1,5.45-3,5,5,0,0,1,3.44.43,2.91,2.91,0,0,1,1,.82,2.82,2.82,0,0,1,.51,2.6c-.59,1.89-3.1,3.21-4.48,3.69l-.74.25a17.34,17.34,0,0,0-6.53,3.34,35,35,0,0,0-4.72,5.63ZM55,89.84a5.65,5.65,0,0,0-1.08.11,11.86,11.86,0,0,0-5.26,2.93,20.06,20.06,0,0,0-5.16,8.91c-.32,1-.61,2.08-.88,3.14a2.21,2.21,0,0,0-.07.3,31.43,31.43,0,0,1,4.17-4.85c2-1.83,4.27-2.6,6.67-3.42l.73-.25c1.23-.43,3.69-1.69,4.23-3.44A2.42,2.42,0,0,0,57.85,91h0a2.7,2.7,0,0,0-.82-.71A4.4,4.4,0,0,0,55,89.84Z"/><path class="cls-5" d="M56.59,92.07h0S56.57,92,56.59,92.07Z"/><path class="cls-5" d="M37.71,117c-3-2.26-7.61-6.52-5.06-10.87,1.44-2.46,4.75-3.4,6.93-1.48C43.13,107.78,40.36,114.27,37.71,117Z"/><path d="M37.73,117.27l-.14-.11c-5.28-4-7.05-7.84-5.12-11.13a5.28,5.28,0,0,1,3.66-2.55,4.31,4.31,0,0,1,3.59,1,5.26,5.26,0,0,1,1.74,3.92c.12,3.12-1.76,6.82-3.6,8.72Zm-.86-13.44a5,5,0,0,0-.67,0,4.91,4.91,0,0,0-3.38,2.36c-1.25,2.13-1.41,5.68,4.87,10.49,1.74-1.88,3.48-5.36,3.36-8.29a4.81,4.81,0,0,0-1.6-3.63A3.88,3.88,0,0,0,36.87,103.83Z"/><path class="cls-6" d="M32.41,126.91l-7.24-12.43,23.64-5.07-3.52,15.12c2.49,31.87,34.18,22.29,34.18,22.29L74.69,178.1C31.33,179.54,32.41,126.91,32.41,126.91Z"/><path d="M73,178.34c-10.65,0-19.44-3.36-26.16-10C32.18,153.9,32.19,128.37,32.2,127l-7.34-12.63,24.22-5.19-3.59,15.39c.72,9.13,3.93,15.7,9.53,19.53,9.95,6.8,24.24,2.59,24.39,2.55l.31-.09L74.86,178.3H74.7ZM25.49,114.62l7.12,12.24v.06c0,.26-.36,26.48,14.49,41.14,7,6.87,16.18,10.19,27.41,9.85l4.71-30.81c-2.16.57-15.14,3.66-24.43-2.7-5.72-3.9-9-10.58-9.71-19.86v-.06l3.44-14.8Z"/><line class="cls-1" x1="32.37" y1="126.94" x2="45.43" y2="124.27"/><rect x="32.23" y="125.4" width="13.33" height="0.41" transform="translate(-24.49 10.4) rotate(-11.61)"/><rect x="69.8" y="211.49" width="112.29" height="0.41"/><path class="cls-5" d="M135.87,151.35a18.82,18.82,0,1,0,19-18.5,17.17,17.17,0,0,0-2.49.15A18.76,18.76,0,0,0,135.87,151.35Z"/><path d="M154.63,170.28h-.11a20,20,0,0,1-2.51-.18,18.8,18.8,0,0,1,.33-37.31,18.31,18.31,0,0,1,2.51-.15,18.93,18.93,0,0,1,13.47,5.66,18.47,18.47,0,0,1,5.38,13.26A19,19,0,0,1,154.63,170.28Zm.11-37.23a17.63,17.63,0,0,0-2.35.15,18.59,18.59,0,0,0-16.31,18.15h0a18.45,18.45,0,0,0,16,18.35,19.13,19.13,0,0,0,2.46.17h.1a18.61,18.61,0,0,0,18.67-18.32,18.11,18.11,0,0,0-5.27-13,18.49,18.49,0,0,0-13.18-5.54Z"/><path d="M177.78,169.91l-.08-.09a13.45,13.45,0,0,0-4-3.29,21.3,21.3,0,0,0-5-2.14l.11-.39a21.72,21.72,0,0,1,5.1,2.18,13.8,13.8,0,0,1,4.13,3.37l.09.09Z"/><path d="M169.49,176.59a24.84,24.84,0,0,0-6-8.42l.28-.3a25.47,25.47,0,0,1,3.63,4.14,24.85,24.85,0,0,1,2.47,4.42Z"/><path d="M159.56,179.92a23.88,23.88,0,0,0-.45-4.62,24.2,24.2,0,0,0-1.56-5.05l.37-.16a24.38,24.38,0,0,1,1.59,5.13,24.79,24.79,0,0,1,.46,4.7Z"/><path d="M162.17,134.26a31.49,31.49,0,0,1-3.3,13.62l-13.47-2.17,7.93,11a32.26,32.26,0,0,1-10.9,9,18.46,18.46,0,0,1-4-24.2A19,19,0,0,1,162.17,134.26Z"/><path d="M142.41,165.88l-.1-.08a18.7,18.7,0,0,1-4-24.47,19.23,19.23,0,0,1,24-7.26l.12.06v.13a31.88,31.88,0,0,1-3.32,13.7l-.07.14L145.85,146l7.74,10.69-.1.12a32.61,32.61,0,0,1-11,9Zm12.1-33a18.78,18.78,0,0,0-15.89,8.71,18.3,18.3,0,0,0,3.84,23.85,32.27,32.27,0,0,0,10.61-8.73l-8.13-11.24,13.81,2.22A31.55,31.55,0,0,0,162,134.39,18.65,18.65,0,0,0,154.51,132.84Z"/><path d="M75.26,168l-.3-.27.08-.1a14.2,14.2,0,0,1,4.19-3.32,22,22,0,0,1,5.14-2.12l.1.39a21.55,21.55,0,0,0-5,2.09,13.9,13.9,0,0,0-4.09,3.24Z"/><path d="M83.44,174.74l-.37-.17a24.85,24.85,0,0,1,2.54-4.38,25.33,25.33,0,0,1,3.7-4.11l.28.31a24.72,24.72,0,0,0-6.15,8.35Z"/><path d="M93.3,178.18h-.4a24.76,24.76,0,0,1,2.21-9.81l.37.17a24.57,24.57,0,0,0-2.18,9.65Z"/><path class="cls-5" d="M81,151.52A18.87,18.87,0,1,0,97.5,133.16,18.62,18.62,0,0,0,81,151.52Z"/><path d="M99.77,170.44h-.11a19.89,19.89,0,0,1-2.51-.18,18.85,18.85,0,0,1-16.34-18.75h0A19,19,0,0,1,97.48,133a16.85,16.85,0,0,1,2.51-.15,18.88,18.88,0,0,1,13.47,5.65,18.49,18.49,0,0,1,5.38,13.26A19,19,0,0,1,99.77,170.44ZM81.22,151.52a18.44,18.44,0,0,0,16,18.34,17.39,17.39,0,0,0,2.46.17h.1a18.61,18.61,0,0,0,18.67-18.31,18.14,18.14,0,0,0-5.27-13A18.53,18.53,0,0,0,100,133.21a19.24,19.24,0,0,0-2.46.15,18.6,18.6,0,0,0-16.31,18.16Z"/><path d="M109.58,135.57a31.45,31.45,0,0,1-4.76,13.19l-13.16-3.58,6.7,11.75a32.31,32.31,0,0,1-11.8,7.75,18.46,18.46,0,0,1-1.34-24.48A19,19,0,0,1,109.58,135.57Z"/><path d="M86.5,164.91l-.09-.09a18.69,18.69,0,0,1-1.35-24.75,19.22,19.22,0,0,1,24.62-4.68l.11.07v.13A32,32,0,0,1,105,148.87l-.08.13-12.83-3.49L98.61,157l-.11.11a32.66,32.66,0,0,1-11.88,7.8Zm13.62-31.67a18.79,18.79,0,0,0-14.74,7.08,18.29,18.29,0,0,0,1.23,24.13,32.46,32.46,0,0,0,11.49-7.56l-6.86-12,13.48,3.66a31.42,31.42,0,0,0,4.64-12.84A18.55,18.55,0,0,0,100.12,133.24Z"/><path class="cls-4" d="M136.22,169.78c2.76-.93,5.82.74,6.09,3.35,1,10.14,1.27,31-14.07,32.05s-16.21-21.4-15.7-32.26c.13-2.68,3.22-4.38,6.07-3.37a27.4,27.4,0,0,0,8.75,1.67A25.58,25.58,0,0,0,136.22,169.78Z"/><path d="M127.19,205.43a11.38,11.38,0,0,1-8.25-3.27c-6.64-6.49-7-21.11-6.6-29.25a3.86,3.86,0,0,1,1.77-3,5.14,5.14,0,0,1,4.57-.52,27.06,27.06,0,0,0,8.69,1.66,25.43,25.43,0,0,0,8.78-1.43h0a5.22,5.22,0,0,1,4.44.53,4.08,4.08,0,0,1,1.92,3c.74,7.29,1.11,20.58-4.81,27.62a13.11,13.11,0,0,1-9.44,4.66C127.89,205.41,127.54,205.43,127.19,205.43Zm-10.29-36a4.6,4.6,0,0,0-2.56.76,3.45,3.45,0,0,0-1.6,2.71c-.38,8.07,0,22.56,6.48,28.94a11.2,11.2,0,0,0,9,3.11,12.69,12.69,0,0,0,9.16-4.52c5.82-6.92,5.45-20.08,4.72-27.31a3.67,3.67,0,0,0-1.74-2.69,4.78,4.78,0,0,0-4.09-.48,26,26,0,0,1-8.92,1.45,27.27,27.27,0,0,1-8.81-1.69A5,5,0,0,0,116.9,169.46Z"/><path class="cls-5" d="M137.8,172.68a1.15,1.15,0,0,1,1.56,1c.32,6.22.64,28.53-11.25,28.77-13.59.28-12.74-22.26-12.26-28.37a1.18,1.18,0,0,1,1.54-1,31.21,31.21,0,0,0,10.47,1.47A32,32,0,0,0,137.8,172.68Z"/><path d="M127.86,202.68a9.49,9.49,0,0,1-7.18-3c-6-6.38-5.38-21.18-5-25.56a1.36,1.36,0,0,1,.6-1,1.39,1.39,0,0,1,1.2-.17,31.62,31.62,0,0,0,20.28-.39h0a1.37,1.37,0,0,1,1.23.14,1.34,1.34,0,0,1,.6,1.06,76.7,76.7,0,0,1-.37,12.58c-.78,6.35-2.44,10.93-4.94,13.61a8.32,8.32,0,0,1-6.13,2.8ZM117,173.22a1,1,0,0,0-.54.17,1,1,0,0,0-.43.72c-.34,4.34-1,19,4.92,25.25a9.21,9.21,0,0,0,7.14,2.91,7.94,7.94,0,0,0,5.84-2.66c5.75-6.18,5.44-21.39,5.21-25.9a1,1,0,0,0-.42-.74,1,1,0,0,0-.88-.1h0a32.14,32.14,0,0,1-20.54.4A1,1,0,0,0,117,173.22Z"/><rect x="131.97" y="174.14" width="0.41" height="27.16" transform="translate(-0.42 0.3) rotate(-0.13)"/><rect x="123.49" y="174.37" width="0.41" height="27.3" transform="translate(-2.32 1.55) rotate(-0.71)"/><polygon points="116.2 188.19 116.19 187.78 138.8 187.31 138.86 187.71 138.81 187.72 116.2 188.19"/><path class="cls-3" d="M128.83,156.86l-.23,3.87s-6.24-.73-6.46,2.52,7,2.24,7,2.24"/><path d="M126.79,165.84c-1.5,0-3.33-.2-4.25-1.06a1.85,1.85,0,0,1-.6-1.55,2.34,2.34,0,0,1,.87-1.68c1.56-1.3,4.74-1.12,5.6-1l.22-3.66.41,0-.25,4.09-.21,0s-3.87-.43-5.51.93a1.86,1.86,0,0,0-.72,1.4,1.44,1.44,0,0,0,.47,1.23c1.54,1.44,6.23.81,6.28.8l.05.4A17.27,17.27,0,0,1,126.79,165.84Z"/></g></svg>