<svg xmlns="http://www.w3.org/2000/svg" viewBox="0 0 234.43 225.92"><defs><style>.cls-1{fill:#565656;}.cls-2{fill:#444;}.cls-3{fill:#999;}.cls-4{fill:silver;}.cls-5{fill:#fff;}.cls-6{fill:#ababab;}</style></defs><g id="PREVIEW"><rect class="cls-1" x="17.18" y="60.74" width="5.23" height="26.85" transform="matrix(0, -1, 1, 0, -54.42, 93.76)"/><rect class="cls-1" x="35.59" y="0.48" width="5.22" height="24.71" transform="translate(4.28 34.6) rotate(-51.26)"/><rect class="cls-1" x="21.42" y="27.74" width="5.23" height="28.83" transform="translate(-22.77 54.97) rotate(-75.63)"/><path d="M94.48,117c-.13,2.62,22.61,7.1,45.55,7,22-.1,44.07-4.42,43.94-7-.15-3.06-31.52-3.72-44.74-3.71C126.5,113.3,94.63,113.92,94.48,117Z"/><path d="M139.25,124.23a193.68,193.68,0,0,1-29-2.21c-8.37-1.31-14.37-3-15.68-4.33a.94.94,0,0,1-.31-.69c.19-3.8,40.38-3.92,45-3.92h.08c4.95,0,44.69.12,44.88,3.92a1,1,0,0,1-.3.68c-2.66,2.81-23.85,6.46-43.86,6.55ZM94.48,117h.22a.58.58,0,0,0,.19.37c2.48,2.6,23.72,6.5,45.14,6.4,20.77-.09,41.21-3.94,43.54-6.41a.58.58,0,0,0,.19-.36c-.12-2.28-22.92-3.51-44.38-3.51h-.15c-21.51,0-44.42,1.24-44.53,3.51Z"/><path class="cls-2" d="M154,126.89c-.24-16.72,3.32-33.28,8.89-49A152.16,152.16,0,0,1,174.3,52.8c1.36-2.36,4.86,0,3.5,2.36A156.5,156.5,0,0,0,161,99.88,119.55,119.55,0,0,0,158.2,124a191.1,191.1,0,0,0,1.8,25.63c1.22,9.69,2.77,19.33,3.83,29,.3,2.68-3.85,3.52-4.15.81C157.76,162,154.24,144.58,154,126.89Z"/><path d="M161.51,181.39a2,2,0,0,1-2-1.86c-.63-5.75-1.44-11.58-2.23-17.22-1.62-11.56-3.29-23.52-3.46-35.41-.22-15.29,2.78-31.81,8.9-49.08a153,153,0,0,1,11.44-25.13,2,2,0,0,1,1.75-1.08h0a2.58,2.58,0,0,1,2.15,1.3,2.3,2.3,0,0,1,0,2.36A155.32,155.32,0,0,0,161.2,99.92,119.36,119.36,0,0,0,158.42,124a194,194,0,0,0,1.79,25.6c.5,3.93,1.06,7.92,1.6,11.78.79,5.65,1.6,11.49,2.24,17.26a2.44,2.44,0,0,1-2.26,2.7ZM175.86,52h0a1.55,1.55,0,0,0-1.38.87A152.92,152.92,0,0,0,163.08,78c-6.11,17.22-9.09,33.68-8.87,48.92.17,11.87,1.84,23.81,3.45,35.36.79,5.64,1.6,11.48,2.24,17.23a1.57,1.57,0,0,0,1.84,1.46,2,2,0,0,0,1.87-2.22c-.63-5.76-1.44-11.6-2.24-17.25-.53-3.86-1.09-7.85-1.59-11.78A194.73,194.73,0,0,1,158,124a120.18,120.18,0,0,1,2.8-24.19,155.53,155.53,0,0,1,16.84-44.78,1.85,1.85,0,0,0,0-1.93A2.16,2.16,0,0,0,175.86,52Z"/><path class="cls-2" d="M159.8,106.75S162.86,85.83,194,84.47C194,84.47,187.68,110.83,159.8,106.75Z"/><path d="M165.42,107.39a39.19,39.19,0,0,1-5.65-.43l-.22,0,0-.22A23.42,23.42,0,0,1,165.06,96c4.27-5,12.76-11,28.91-11.72l.28,0-.06.28a35.41,35.41,0,0,1-6.68,12.76A27.68,27.68,0,0,1,165.42,107.39Zm-5.36-.83c14.16,2,22.56-4.09,27.12-9.56a35.25,35.25,0,0,0,6.51-12.3c-8.79.43-20.73,2.79-28.29,11.54A23.66,23.66,0,0,0,160.06,106.56Z"/><rect x="157.66" y="99.9" width="23.15" height="0.43" transform="translate(-27.06 111.59) rotate(-33.95)"/><path class="cls-3" d="M148.78,17.39c8.32-7.41,15.51,3.93,20.87,9.29l.13-.05C167,19.05,164,4.67,180,3.8c3.84-.21,7.44.26,10.85,3.11,3.71,3.1,8.35,11.86-2.2,23.57h0l0,.05s16.4-13.38,23.29-2.26c1.91,3.06,3.35,11.76.84,16.47-4.09,7.68-22,1-22,1v.06c6.24,2.85,21.83,10,9.3,22.7-2.84,2.87-10,6.27-14.26,5.89-5.2-.47-9-4-10.35-20.43-2.6,5.78-7.05,24.14-21.49,12.94a15.45,15.45,0,0,1-6.13-11.13c-.74-8.63.51-9.16,13.85-12.68,0,0,2.24-.62,3.71-1-10.89,1.19-21.16-.83-23.33-6.28C139.59,29.45,146.08,19.79,148.78,17.39Z"/><path d="M186.51,74.65q-.36,0-.69,0c-5.28-.47-9.09-4-10.47-19.75-.22.54-.46,1.16-.72,1.83-1.88,4.85-4.71,12.18-10.19,13.7-3.08.86-6.63-.26-10.57-3.31a15.64,15.64,0,0,1-6.22-11.28c-.75-8.76.49-9.34,14-12.91h0c.16-.06.51-.15,1.39-.39-9.34.6-19-1.16-21.15-6.63-2.59-6.54,4.22-16.41,6.73-18.66h0c7.12-6.33,13.37.68,18.4,6.3.81.91,1.58,1.77,2.32,2.54-1.88-5.43-3.3-12.65-.09-17.49,2-3,5.6-4.71,10.69-5,3.35-.18,7.28,0,11,3.16a12.74,12.74,0,0,1,4.33,8.77c.31,4.46-1.51,9.12-5.43,13.86a42.65,42.65,0,0,1,4.44-2.77c3.08-1.65,7.58-3.48,11.57-2.81a8.94,8.94,0,0,1,6.28,4.37c1.84,3,3.42,11.84.84,16.69-3.16,5.94-14.1,3.6-19.39,2,4.45,2.2,10.37,5.79,11.32,11,.62,3.38-.95,7-4.67,10.78C197.45,71.51,190.8,74.65,186.51,74.65ZM175.64,53.12l.07.84c1.29,16.15,5,19.77,10.14,20.23,4.14.37,11.2-2.9,14.09-5.83,3.62-3.66,5.15-7.16,4.55-10.39-1.13-6.17-9.67-10.08-13.78-12l-.08,0,0-.09a.35.35,0,0,1,0-.26l.1-.13.15.06c.18.06,17.78,6.51,21.73-.91,2.51-4.72,1-13.37-.83-16.26a8.53,8.53,0,0,0-6-4.18c-7.41-1.23-16.9,6.42-17,6.5l-.16.13-.19-.2-.05-.12v-.1l.06-.09c4.58-5.08,6.73-10.06,6.39-14.79a12.31,12.31,0,0,0-4.17-8.47c-3.61-3-7.44-3.23-10.7-3.05-4.95.27-8.43,1.88-10.36,4.79-3.4,5.14-1.23,13.32.36,17.74l.11.29h-.27c-.12.06-.23.09-.32,0-.89-.88-1.81-1.92-2.79-3-4.9-5.48-11-12.31-17.79-6.26h0c-2.46,2.19-9.13,11.83-6.61,18.17,2,5,11.25,7.43,23.09,6.15l.09.42-1.83.5-1.68.46v0l-.22,0c-13.41,3.54-14.41,4-13.69,12.46a15.28,15.28,0,0,0,6.06,11c3.82,3,7.25,4,10.18,3.23,5.28-1.46,8.06-8.67,9.9-13.43.4-1,.75-1.94,1.07-2.66Zm15.21-7.52.08,0Z"/><rect x="173.9" y="19.09" width="14.03" height="0.43" transform="translate(133.63 195) rotate(-81.03)"/><rect x="191.99" y="36.23" width="13.67" height="0.43" transform="translate(-3.29 39.8) rotate(-11.34)"/><rect x="158.43" y="23.65" width="0.43" height="16.3" transform="translate(64.2 163.18) rotate(-65.62)"/><polygon points="190.74 64.33 184.88 51.69 185.28 51.5 191.13 64.14 190.74 64.33"/><rect x="156.04" y="53.18" width="14.46" height="0.43" transform="translate(3.69 116.99) rotate(-39.84)"/><path class="cls-4" d="M164.7,37.59a13.48,13.48,0,1,0,15.41-11.23A13.48,13.48,0,0,0,164.7,37.59Z"/><path d="M178.05,53.38a14.29,14.29,0,0,1-2.16-.17,13.62,13.62,0,1,1,2.16.17Zm-.06-27a13.26,13.26,0,1,0,2.08.16A13.16,13.16,0,0,0,178,26.42Z"/><path class="cls-3" d="M179.23,44a4,4,0,1,0,4-4.06A4,4,0,0,0,179.23,44Z"/><path class="cls-3" d="M166.7,41.32a4,4,0,1,0,4-4.07A4,4,0,0,0,166.7,41.32Z"/><path d="M186,33.61c1.47.36,2.23,2.59,1.94,4.75l-1.54.09,1.27,1.19c-.79,1.86-2.46,3.13-3.85,2.78-1.63-.4-2.47-2.7-1.87-5.13S184.39,33.21,186,33.61Z"/><path d="M184.31,42.7a1.86,1.86,0,0,1-.52-.07,2.83,2.83,0,0,1-1.92-1.94,6,6,0,0,1-.11-3.45c.63-2.55,2.56-4.27,4.31-3.84h0c1.68.42,2.39,2.86,2.1,5l0,.17-1.21.08,1,1-.06.14C187.13,41.51,185.67,42.7,184.31,42.7Zm1.2-8.93c-1.38,0-2.81,1.48-3.32,3.57a5.57,5.57,0,0,0,.08,3.2,2.44,2.44,0,0,0,1.62,1.67c1.22.3,2.75-.8,3.54-2.51l-1.53-1.43,1.86-.12c.23-2.1-.56-4-1.8-4.33h0A1.68,1.68,0,0,0,185.51,33.77Z"/><path d="M187.67,35.22l-.12-.42a3.29,3.29,0,0,0,.75-.31,3.81,3.81,0,0,0,.77-.62l.32.29a3.62,3.62,0,0,1-.87.7A3.34,3.34,0,0,1,187.67,35.22Z"/><path d="M186.94,34.15l-.29-.32a3.78,3.78,0,0,0,.91-1.26l.4.17a4,4,0,0,1-.41.73A4.36,4.36,0,0,1,186.94,34.15Z"/><path d="M185.67,33.64l-.4-.18a3.28,3.28,0,0,0,.24-.75,3.34,3.34,0,0,0,.08-.7H186a3.94,3.94,0,0,1-.08.77A4.2,4.2,0,0,1,185.67,33.64Z"/><path d="M173.91,30.76c-1.48-.34-3.16,1.31-3.87,3.36l1.33.78-1.67.49c-.14,2,.78,3.9,2.18,4.22,1.64.38,3.42-1.3,4-3.74S175.55,31.14,173.91,30.76Z"/><path d="M172.35,39.88a2.24,2.24,0,0,1-.52-.06c-1.48-.34-2.49-2.25-2.35-4.44v-.15l1.33-.39-1-.62.06-.17c.7-2,2.44-3.89,4.13-3.5h0c1.75.4,2.7,2.81,2.11,5.37a6,6,0,0,1-1.65,3A3.06,3.06,0,0,1,172.35,39.88Zm-2.45-4.32c-.07,1.89.8,3.56,2,3.84a2.44,2.44,0,0,0,2.19-.76,5.53,5.53,0,0,0,1.53-2.82c.53-2.32-.27-4.5-1.79-4.84-1.25-.29-2.81,1.07-3.56,3.05l1.61.94Z"/><path d="M171.71,31.45a3.58,3.58,0,0,1-.6-.69,3.82,3.82,0,0,1-.46-1l.42-.11a3.33,3.33,0,0,0,.41.9,3,3,0,0,0,.52.61Z"/><path d="M172.84,30.83a4.47,4.47,0,0,1-.28-1.72l.44,0a3.78,3.78,0,0,0,0,.75,4.16,4.16,0,0,0,.2.79Z"/><path d="M174.64,31l-.43,0a3.68,3.68,0,0,1,.14-.88,4.55,4.55,0,0,1,.27-.73l.39.19a3.91,3.91,0,0,0-.24.65A4.2,4.2,0,0,0,174.64,31Z"/><path class="cls-3" d="M176.76,38.74a1.27,1.27,0,1,0,1.45-1A1.22,1.22,0,0,0,176.76,38.74Z"/><path d="M178,40.35a1.24,1.24,0,0,1-.27,0,1.43,1.43,0,0,1-1.22-1.62A1.48,1.48,0,1,1,178,40.35ZM178,38a1,1,0,0,0-1,.78,1,1,0,1,0,1.19-.77Z"/><path class="cls-5" d="M174.77,40.35s-2.49,8.58.62,9.26c3.55.77,4.63-8.12,4.63-8.12a5.8,5.8,0,0,1-2.82.06A6,6,0,0,1,174.77,40.35Z"/><path d="M175.82,49.87a2.59,2.59,0,0,1-.47,0,1.8,1.8,0,0,1-1.2-.9c-1.4-2.33.34-8.37.41-8.63l.09-.32.26.21a5.58,5.58,0,0,0,2.34,1.16,5.65,5.65,0,0,0,2.71-.06l.32-.08,0,.32c0,.25-.79,6.25-3.13,7.92A2.19,2.19,0,0,1,175.82,49.87Zm-.93-9.15c-.33,1.28-1.5,6.09-.37,8a1.37,1.37,0,0,0,.92.69,1.71,1.71,0,0,0,1.42-.31c1.9-1.34,2.71-6,2.9-7.3a6.14,6.14,0,0,1-2.6,0A6,6,0,0,1,174.89,40.72Z"/><polygon points="174.75 49.14 174.32 49.06 176.04 41.2 176.47 41.29 174.75 49.14"/><rect x="173.27" y="45.41" width="8.07" height="0.44" transform="translate(93.33 208.31) rotate(-77.13)"/><polygon points="178.96 46.14 173.85 45.04 173.95 44.61 179.05 45.72 178.96 46.14"/><path class="cls-2" d="M92.08,48a199.57,199.57,0,0,0,24.86,51.38c5.2,7.65,10.42,15.16,14.71,23.39a124,124,0,0,1,10.09,25.74,97.2,97.2,0,0,1,3.15,31.12c-.18,2.72-4.36,2.07-4.18-.63,1.18-18.19-3.74-36.14-11.8-52.33a190.87,190.87,0,0,0-14.39-23.35A198.91,198.91,0,0,1,100.16,79a206.58,206.58,0,0,1-12-29.43C87.34,47,91.25,45.36,92.08,48Z"/><path d="M143,181.54h-.17a2.45,2.45,0,0,1-2.37-2.61c1.09-16.75-2.87-34.32-11.78-52.21a191.91,191.91,0,0,0-14.37-23.33A198.89,198.89,0,0,1,100,79.08,205.57,205.57,0,0,1,88,49.62a2.42,2.42,0,0,1,1.66-3.08,2,2,0,0,1,2.67,1.35h0a199.14,199.14,0,0,0,24.83,51.32l1.11,1.63a218.06,218.06,0,0,1,13.61,21.78A123.61,123.61,0,0,1,142,148.4a98,98,0,0,1,3.16,31.2A2,2,0,0,1,143,181.54ZM90.37,46.85a2.06,2.06,0,0,0-.62.1,2,2,0,0,0-1.38,2.53,206.51,206.51,0,0,0,12,29.41,198.82,198.82,0,0,0,14.34,24.26,191.2,191.2,0,0,1,14.4,23.38c8.94,18,12.92,35.6,11.82,52.43a2,2,0,0,0,2,2.14,1.56,1.56,0,0,0,1.78-1.53,97.36,97.36,0,0,0-3.14-31.06,123.32,123.32,0,0,0-10.08-25.69,217.53,217.53,0,0,0-13.58-21.73l-1.11-1.63A199.92,199.92,0,0,1,91.87,48h0A1.51,1.51,0,0,0,90.37,46.85Z"/><path class="cls-2" d="M114,102.52s-9.15-19-39.26-11.08C74.72,91.44,88.58,114.72,114,102.52Z"/><path d="M99.7,106.25a27.4,27.4,0,0,1-15-4.51A35.13,35.13,0,0,1,74.54,91.55l-.15-.25.28-.07c8.62-2.29,21-3.69,31.09,2.58a23.78,23.78,0,0,1,8.42,8.61l.09.2-.19.1A33.09,33.09,0,0,1,99.7,106.25ZM75.07,91.57A35,35,0,0,0,85,101.38c6,3.86,15.8,7.16,28.72,1a23.59,23.59,0,0,0-8.17-8.26C100.06,90.78,90.36,87.59,75.07,91.57Z"/><rect x="102.78" y="87.42" width="0.43" height="23.15" transform="translate(-21.29 169.44) rotate(-73.41)"/><path class="cls-6" d="M56.86,27.75c5.67-9.59,16-1,22.7,2.51l.11-.09C74.76,23.79,67.51,11,82.44,5.33,86,4,89.62,3.32,93.73,5c4.47,1.82,11.55,8.76,5.06,23.12h0l.06,0s11.56-17.72,21.5-9.23c2.75,2.35,6.76,10.2,5.81,15.44C124.6,42.93,105.52,42,105.52,42s0,.06,0,.06c6.81.82,23.84,2.89,15.75,18.8-1.83,3.6-7.58,9-11.8,9.95C104.39,72,99.65,69.71,93.42,54.5c-.73,6.29.62,25.14-16.54,18.85a15.43,15.43,0,0,1-9.23-8.73c-3.32-8-2.29-8.89,9.35-16.29,0,0,2-1.28,3.22-2.11-10,4.43-20.41,5.64-24.13,1.09C51.77,42,55,30.85,56.86,27.75Z"/><path d="M83,74.83a18.52,18.52,0,0,1-6.23-1.27,15.68,15.68,0,0,1-9.36-8.86c-3.37-8.12-2.37-9.05,9.43-16.56v0a14,14,0,0,1,1.19-.81c-8.71,3.41-18.43,4.66-22.16.1-4.45-5.44-1-16.91.75-19.81h0c4.86-8.2,12.94-3.43,19.44.41,1,.62,2,1.21,3,1.71-3.44-4.6-7-11-5.4-16.63,1-3.5,3.91-6.19,8.68-8,3.14-1.2,6.95-2.17,11.44-.34a12.77,12.77,0,0,1,6.79,7c1.66,4.16,1.33,9.15-1,14.86a40.51,40.51,0,0,1,3.39-4c2.43-2.51,6.16-5.62,10.16-6.2a9,9,0,0,1,7.31,2.26c2.66,2.27,6.87,10.25,5.88,15.65C125.17,41,114,42.12,108.54,42.25c4.89.74,11.62,2.37,14.11,7,1.62,3,1.22,7-1.17,11.69-1.91,3.76-7.8,9.14-12,10.06-5.17,1.16-9.88-1.09-16-15.64,0,.58-.09,1.24-.13,2-.32,5.19-.79,13-5.55,16.15A8.61,8.61,0,0,1,83,74.83ZM77.29,48.38h0l-.18.12c-11.7,7.45-12.51,8.2-9.27,16A15.25,15.25,0,0,0,77,73.15c4.54,1.66,8.13,1.66,10.68,0,4.58-3,5-10.71,5.35-15.81.07-1.11.13-2.07.22-2.86l.09-.84.32.79c6.14,15,10.76,17.31,15.82,16.19,4-.91,9.78-6.16,11.65-9.83,2.33-4.59,2.72-8.39,1.18-11.29-3-5.53-12.29-6.66-16.77-7.2h-.09l0-.08a.27.27,0,0,1,0-.24l0-.17h.18c.18,0,18.91.81,20.42-7.47,1-5.26-3.14-13-5.73-15.24a8.55,8.55,0,0,0-7-2.16C105.82,18,99.11,28.18,99,28.28l-.11.17-.24-.13-.08-.09,0-.09,0-.11c2.81-6.24,3.35-11.63,1.59-16A12.24,12.24,0,0,0,93.64,5.2c-4.35-1.78-8.06-.83-11.12.33-4.63,1.76-7.46,4.36-8.41,7.72C72.43,19.18,77,26.31,79.84,30l.19.24-.25.09c-.1.08-.19.14-.3.09-1.12-.58-2.32-1.28-3.59-2C69.56,24.69,61.68,20,57,27.86h0c-1.68,2.84-5.1,14-.78,19.32,3.38,4.13,13,3.67,23.87-1.16l.21.38-1.6,1Zm28.24-6.53h0Z"/><polygon points="88.91 26.79 86.78 12.92 87.2 12.86 89.34 26.72 88.91 26.79"/><rect x="103.49" y="30.49" width="13.67" height="0.44" transform="translate(-1.01 57.52) rotate(-29.09)"/><rect x="70.42" y="30.33" width="0.43" height="16.3" transform="translate(24.19 104.15) rotate(-83.3)"/><rect x="106.32" y="47.48" width="0.43" height="13.93" transform="translate(-8.77 86.36) rotate(-42.54)"/><rect x="74.37" y="57.44" width="14.46" height="0.43" transform="translate(-10.86 95.54) rotate(-57.52)"/><path class="cls-4" d="M78.17,42.16A13.48,13.48,0,1,0,89.43,26.78,13.47,13.47,0,0,0,78.17,42.16Z"/><path d="M91.46,53.8a13.7,13.7,0,1,1,2.11-.16A13.59,13.59,0,0,1,91.46,53.8Zm.05-27a12.84,12.84,0,0,0-2,.16,13.16,13.16,0,1,0,2-.16Z"/><path class="cls-3" d="M95.08,43a4,4,0,1,0,1.4-5.5A4,4,0,0,0,95.08,43Z"/><path class="cls-3" d="M82.31,46.88a4,4,0,1,0,1.41-5.5A4,4,0,0,0,82.31,46.88Z"/><path class="cls-3" d="M89.89,39.63a1.27,1.27,0,1,0,1-1.39A1.22,1.22,0,0,0,89.89,39.63Z"/><path d="M91.1,40.79a1.41,1.41,0,0,1-1.42-1.12h0a1.48,1.48,0,0,1,2.91-.55,1.36,1.36,0,0,1-.25,1.06,1.53,1.53,0,0,1-1,.58Zm-1-1.2a1,1,0,0,0,1.21.75,1.06,1.06,0,0,0,.68-.42.9.9,0,0,0,.17-.72A1,1,0,0,0,91,38.45a1,1,0,0,0-.85,1.14Z"/><path d="M95.88,31.58c1.46-.4,3.21,1.17,4,3.19l-1.29.84,1.68.42c.22,2-.61,3.92-2,4.31-1.62.44-3.47-1.16-4.13-3.57S94.26,32,95.88,31.58Z"/><path d="M97.72,40.63a3.13,3.13,0,0,1-2-.84,6,6,0,0,1-1.77-3c-.7-2.52.15-5,1.88-5.45h0c1.68-.45,3.49,1.33,4.27,3.32l.07.17-1,.66,1.34.33,0,.15c.24,2.19-.69,4.14-2.16,4.54A2.16,2.16,0,0,1,97.72,40.63Zm-1.79-8.84c-1.5.42-2.21,2.62-1.57,4.92A5.59,5.59,0,0,0,96,39.46a2.47,2.47,0,0,0,2.23.67c1.21-.34,2-2.05,1.85-3.93l-2-.5,1.57-1c-.83-1.95-2.45-3.24-3.69-2.9Z"/><path d="M98.11,32.18l-.31-.31a3.45,3.45,0,0,0,.5-.64,3.26,3.26,0,0,0,.36-.91l.43.09a3.78,3.78,0,0,1-.42,1A4,4,0,0,1,98.11,32.18Z"/><path d="M97,31.6l-.41-.14a4.21,4.21,0,0,0,.17-.8,3.66,3.66,0,0,0,0-.74l.43,0a4.61,4.61,0,0,1,0,.83A4.55,4.55,0,0,1,97,31.6Z"/><path d="M95.15,31.82A3.37,3.37,0,0,0,95,31a5.3,5.3,0,0,0-.28-.65l.38-.2a3.82,3.82,0,0,1,.31.72,4.2,4.2,0,0,1,.18.87Z"/><path d="M83.24,35.3c-1.45.43-2.12,2.69-1.73,4.83l1.54,0L81.83,41.4c.87,1.82,2.59,3,4,2.61,1.62-.47,2.35-2.8,1.65-5.21S84.86,34.83,83.24,35.3Z"/><path d="M85.23,44.31a4.48,4.48,0,0,1-3.6-2.82l-.06-.13,1-1-1.22,0,0-.17c-.38-2.11.23-4.59,1.89-5.08h0c1.73-.5,3.73,1.14,4.47,3.65s-.07,5-1.79,5.48A2.28,2.28,0,0,1,85.23,44.31Zm-3.14-2.87c.86,1.69,2.43,2.72,3.64,2.37,1.5-.44,2.17-2.66,1.5-5s-2.44-3.79-3.93-3.35c-1.22.36-1.93,2.31-1.61,4.4l1.86,0Z"/><path d="M81.66,37a3.7,3.7,0,0,1-.86-.32,3.66,3.66,0,0,1-.9-.66l.31-.31a3.12,3.12,0,0,0,1.55.87Z"/><path d="M82.34,35.88a3.52,3.52,0,0,1-.63-.65,4.73,4.73,0,0,1-.45-.71l.39-.19a4.18,4.18,0,0,0,.4.63,4.53,4.53,0,0,0,.57.59Z"/><path d="M83.59,35.32a5,5,0,0,1-.31-.84,4,4,0,0,1-.11-.77l.43,0A3.88,3.88,0,0,0,84,35.12Z"/><path d="M91.59,45.08a2.8,2.8,0,0,1-2.49-1.47l.37-.22a2.5,2.5,0,0,0,2.91,1.15A2.93,2.93,0,0,0,94.63,42h.43a3.39,3.39,0,0,1-2.57,3A3.88,3.88,0,0,1,91.59,45.08Z"/><path class="cls-3" d="M95.06,39a4.13,4.13,0,0,0-.49,3.15,4.23,4.23,0,0,0,2.31,2.44"/><path d="M96.88,44.82l-.09,0a4.45,4.45,0,0,1-2.43-2.58,4.28,4.28,0,0,1,.51-3.32.22.22,0,0,1,.38.21,3.85,3.85,0,0,0-.47,3A4,4,0,0,0,97,44.4a.22.22,0,0,1,.11.29A.23.23,0,0,1,96.88,44.82Z"/><path class="cls-3" d="M87.69,41.25a4.47,4.47,0,0,1,2.09,2.48,4,4,0,0,1-.64,3.21"/><path d="M89.14,47.16a.19.19,0,0,1-.12,0,.22.22,0,0,1-.06-.3,3.74,3.74,0,0,0,.61-3,4.13,4.13,0,0,0-2-2.35.22.22,0,0,1-.07-.3.21.21,0,0,1,.29-.08A4.59,4.59,0,0,1,90,43.67a4.2,4.2,0,0,1-.66,3.39A.26.26,0,0,1,89.14,47.16Z"/><path class="cls-2" d="M122.92,177.52c4.09-13.11,7.82-26.39,9.89-40a131.26,131.26,0,0,0,1.58-20.19c0-7-.58-14-1-21a160.41,160.41,0,0,1-.19-23.61c.23-2.69,4.46-2.72,4.23,0-1.18,14.13.94,28.21,1.21,42.32.26,13.88-1.94,27.68-5.23,41.12-1.85,7.58-4.05,15.06-6.37,22.51C126.19,181.24,122.1,180.13,122.92,177.52Z"/><path d="M125,180.34a2.72,2.72,0,0,1-.8-.12,2.13,2.13,0,0,1-1.49-2.76h0c3.67-11.77,7.71-25.72,9.89-40a132.8,132.8,0,0,0,1.57-20.16c0-5.82-.41-11.72-.79-17.42-.09-1.2-.17-2.4-.24-3.59A156.72,156.72,0,0,1,133,72.68a2.44,2.44,0,0,1,2.73-2.22,2,2,0,0,1,1.93,2.26c-.76,9-.15,18.22.44,27.1.33,5,.67,10.13.76,15.2.24,12.35-1.47,25.82-5.22,41.17-1.61,6.57-3.58,13.52-6.39,22.52A2.21,2.21,0,0,1,125,180.34Zm-1.87-2.75a1.68,1.68,0,0,0,1.2,2.21,1.88,1.88,0,0,0,2.46-1.22c2.81-9,4.77-15.93,6.37-22.49,3.75-15.32,5.45-28.75,5.22-41.06-.1-5.07-.44-10.21-.77-15.19-.59-8.89-1.2-18.09-.43-27.16a1.56,1.56,0,0,0-1.54-1.78,2,2,0,0,0-2.26,1.82,157.12,157.12,0,0,0,.19,23.58l.24,3.59c.38,5.71.78,11.62.8,17.45A132.34,132.34,0,0,1,133,137.56c-2.18,14.28-6.23,28.25-9.9,40Z"/><path class="cls-5" d="M102.36,49.8c6.85-8.78,16,1.08,22.2,5.39l.12-.08c-4.06-7-9.63-20.55,5.91-24.28,3.75-.9,7.37-1.09,11.24,1.1,4.2,2.38,10.34,10.16,2.08,23.58v0l.05,0s13.73-16.11,22.51-6.41c2.43,2.67,5.41,11,3.79,16.05-2.64,8.29-21.46,5-21.46,5v.06c6.64,1.68,23.27,5.91,13.23,20.66-2.27,3.33-8.67,8-13,8.36-5.19.47-9.61-2.35-13.85-18.24-1.53,6.15-2.59,25-18.81,16.6a15.43,15.43,0,0,1-8-9.84c-2.28-8.37-1.14-9.11,11.35-15,0,0,2.09-1,3.46-1.68-10.5,3.12-21,3-24.07-2C95.49,63.32,100.14,52.65,102.36,49.8Z"/><path d="M123.71,99.93a16.43,16.43,0,0,1-7.4-2.15,15.67,15.67,0,0,1-8.15-10c-2.31-8.48-1.2-9.27,11.46-15.22h0c.13-.08.46-.24,1.29-.64-9.08,2.28-18.88,2.28-22-2.71-3.73-6,1.19-16.9,3.26-19.56h0c5.87-7.51,13.28-1.75,19.24,2.89,1,.74,1.87,1.45,2.73,2.07-2.82-5-5.51-11.84-3.23-17.18,1.43-3.35,4.67-5.64,9.62-6.83,3.27-.79,7.17-1.27,11.39,1.12a12.76,12.76,0,0,1,5.84,7.85c1.11,4.33.16,9.24-2.84,14.61a41.35,41.35,0,0,1,3.86-3.52c2.74-2.18,6.84-4.79,10.88-4.85a8.92,8.92,0,0,1,7,3.17c2.35,2.59,5.5,11,3.84,16.27-2.05,6.4-13.21,6.07-18.69,5.5,4.74,1.36,11.22,3.83,13.09,8.77,1.22,3.22.33,7.07-2.65,11.45-2.37,3.48-8.9,8.06-13.13,8.45-5.28.49-9.67-2.34-13.85-17.55-.12.58-.25,1.22-.38,1.94-1,5.1-2.44,12.82-7.56,15.31A8.18,8.18,0,0,1,123.71,99.93ZM120,72.87h0l-.2.1c-12.56,5.89-13.46,6.53-11.23,14.71a15.25,15.25,0,0,0,7.93,9.7c4.29,2.23,7.86,2.69,10.6,1.36,4.92-2.4,6.37-10,7.32-15,.21-1.09.39-2,.58-2.8l.2-.82.22.82c4.17,15.65,8.46,18.55,13.62,18.07,4.12-.38,10.49-4.86,12.81-8.27,2.89-4.25,3.77-8,2.6-11-2.22-5.87-11.33-8.17-15.71-9.28l-.09,0,0-.08a.4.4,0,0,1,0-.24l.06-.16.18,0c.19,0,18.66,3.21,21.21-4.8,1.62-5.1-1.46-13.33-3.74-15.85a8.53,8.53,0,0,0-6.5-3h-.14c-7.51.12-15.46,9.35-15.54,9.45l-.13.15-.22-.16-.07-.11,0-.09,0-.1c3.59-5.83,4.81-11.11,3.63-15.7a12.29,12.29,0,0,0-5.63-7.58c-4.09-2.31-7.9-1.85-11.08-1.08-4.81,1.15-7.95,3.37-9.32,6.58-2.42,5.67,1.18,13.32,3.55,17.38l.15.28-.26,0c-.12.08-.2.12-.31.06-1-.72-2.14-1.58-3.3-2.48-5.8-4.52-13-10.13-18.62-3h0c-2,2.6-6.85,13.27-3.24,19.06,2.83,4.53,12.4,5.29,23.83,1.89l.15.4c-.51.26-1.13.55-1.71.83S120.29,72.72,120,72.87ZM148.86,70Z"/><polygon points="134.28 52.93 133.92 38.91 134.36 38.9 134.71 52.92 134.28 52.93"/><rect x="148.18" y="59.33" width="13.67" height="0.44" transform="translate(-11.03 61.77) rotate(-21.78)"/><rect x="114.44" y="54.05" width="0.44" height="16.3" transform="translate(26.55 158.39) rotate(-75.99)"/><rect x="148.02" y="75.65" width="0.44" height="13.93" transform="translate(-20.51 100.6) rotate(-35.22)"/><rect x="115.86" y="82.4" width="14.46" height="0.44" transform="translate(-19.14 124.44) rotate(-50.25)"/><path class="cls-4" d="M121.66,66.81A13.47,13.47,0,1,0,134.79,53,13.47,13.47,0,0,0,121.66,66.81Z"/><path d="M135.13,80.16a13.71,13.71,0,0,1-13.69-13.35h0a13.71,13.71,0,0,1,13.35-14,13.69,13.69,0,1,1,.69,27.38ZM121.88,66.8a13.28,13.28,0,0,0,13.59,12.92,13.26,13.26,0,0,0,8.8-22.86,13.26,13.26,0,0,0-22.39,9.94Z"/><path class="cls-3" d="M138.49,69.15a4,4,0,1,0,4-4.06A4,4,0,0,0,138.49,69.15Z"/><path class="cls-3" d="M124.2,69.49a4,4,0,1,0,4-4.06A4,4,0,0,0,124.2,69.49Z"/><path d="M141.89,58.49c1.51,0,2.81,1.95,3.06,4.11l-1.46.48,1.53.83c-.3,2-1.6,3.64-3,3.66-1.68,0-3.06-2-3.09-4.51S140.21,58.51,141.89,58.49Z"/><path d="M142,67.79a2.86,2.86,0,0,1-2.32-1.4,6.48,6.48,0,0,1-.07-6.67,2.86,2.86,0,0,1,2.31-1.45h0c1.72,0,3,2.19,3.26,4.3l0,.18-1.15.38,1.21.66,0,.15c-.33,2.18-1.72,3.83-3.24,3.85Zm-.07-9.08a2.45,2.45,0,0,0-2,1.25,5.65,5.65,0,0,0-.82,3.1,5.58,5.58,0,0,0,.89,3.08,2.43,2.43,0,0,0,2,1.21h0c1.26,0,2.47-1.46,2.8-3.32l-1.84-1,1.77-.58c-.3-2.08-1.53-3.74-2.81-3.74Z"/><path d="M143.89,59.64l-.22-.38a3.46,3.46,0,0,0,.65-.49,3.22,3.22,0,0,0,.58-.79l.39.2a3.52,3.52,0,0,1-.67.9A4,4,0,0,1,143.89,59.64Z"/><path d="M142.92,58.78l-.36-.24a4.08,4.08,0,0,0,.37-.72,3.56,3.56,0,0,0,.19-.73l.43.08a3.8,3.8,0,0,1-.22.8A3.63,3.63,0,0,1,142.92,58.78Z"/><path d="M141.56,58.61l-.43-.07a3.61,3.61,0,0,0,0-.8,3.28,3.28,0,0,0-.1-.69l.43-.1a4.92,4.92,0,0,1,.11.77A4.47,4.47,0,0,1,141.56,58.61Z"/><path d="M128.72,58.87c-1.51,0-2.73,2.05-2.91,4.22l1.48.42-1.49.89c.38,2,1.73,3.58,3.17,3.54,1.68,0,3-2.11,2.92-4.62S130.4,58.82,128.72,58.87Z"/><path d="M128.92,68.16c-1.5,0-2.93-1.58-3.33-3.72l0-.15,1.19-.71-1.17-.33,0-.18c.17-2.13,1.38-4.37,3.12-4.42h0A2.92,2.92,0,0,1,131.09,60a6,6,0,0,1,1,3.31c.08,2.62-1.33,4.79-3.13,4.84ZM126,64.51c.4,1.85,1.67,3.27,2.92,3.22,1.56,0,2.77-2,2.71-4.4a5.63,5.63,0,0,0-.94-3.07,2.35,2.35,0,0,0-2-1.17h0c-1.28,0-2.46,1.74-2.68,3.84l1.79.51Z"/><path d="M126.76,60.09a3.67,3.67,0,0,1-1.45-1.4l.38-.22a2.88,2.88,0,0,0,.62.77,2.79,2.79,0,0,0,.66.46Z"/><path d="M127.7,59.2a4.78,4.78,0,0,1-.44-.8,3.63,3.63,0,0,1-.25-.79l.42-.09a3.68,3.68,0,0,0,.23.71,3.32,3.32,0,0,0,.4.71Z"/><path d="M129.06,59a4.38,4.38,0,0,1-.09-.88,4,4,0,0,1,.08-.78l.43.08a3.33,3.33,0,0,0-.07.7,3.47,3.47,0,0,0,.07.79Z"/><path class="cls-3" d="M133.88,65.84a1.27,1.27,0,1,0,1.23-1.21A1.22,1.22,0,0,0,133.88,65.84Z"/><path d="M135.14,67.2a1.49,1.49,0,0,1-1-.38,1.33,1.33,0,0,1-.47-1h0a1.37,1.37,0,0,1,.41-1,1.5,1.5,0,0,1,1-.43,1.56,1.56,0,0,1,1.06.37,1.34,1.34,0,0,1,.05,2,1.54,1.54,0,0,1-1,.44Zm0-2.36h0a1.08,1.08,0,0,0-.73.31.91.91,0,0,0-.28.68h0a.9.9,0,0,0,.32.67,1,1,0,0,0,.75.26,1.13,1.13,0,0,0,.74-.31.88.88,0,0,0,.28-.68.91.91,0,0,0-.32-.66A1.11,1.11,0,0,0,135.15,64.84Z"/><path d="M132.75,73.3a14.24,14.24,0,0,0,2.71,3h0a14.41,14.41,0,0,0,2.58-3,6.05,6.05,0,0,0,1.08-3.78,1.91,1.91,0,0,0-.89-1.49,1.47,1.47,0,0,0-.71-.19c-.62,0-1.39.42-2.15,1.93-1.13-2.1-2.27-2-2.92-1.59a1.92,1.92,0,0,0-.85,1.54A6,6,0,0,0,132.75,73.3Z"/><path d="M135.47,76.47h-.08l-.07,0a14.12,14.12,0,0,1-2.75-3h0a6.07,6.07,0,0,1-1.18-3.79,2.17,2.17,0,0,1,1-1.71,1.68,1.68,0,0,1,1.34-.2,3.13,3.13,0,0,1,1.7,1.53c.63-1.13,1.37-1.69,2.15-1.7a1.77,1.77,0,0,1,.82.22,2.13,2.13,0,0,1,1,1.66,6.29,6.29,0,0,1-1.11,3.92,14.76,14.76,0,0,1-2.6,3l-.06,0Zm-2.22-8.37a1.31,1.31,0,0,0-.68.19,1.7,1.7,0,0,0-.74,1.37,5.64,5.64,0,0,0,1.1,3.52h0A13.25,13.25,0,0,0,135.46,76a14.19,14.19,0,0,0,2.41-2.84,5.86,5.86,0,0,0,1-3.64,1.75,1.75,0,0,0-.78-1.33,1.54,1.54,0,0,0-.62-.16c-.68,0-1.35.62-1.94,1.81l-.19.37-.2-.37a3,3,0,0,0-1.63-1.66A1.15,1.15,0,0,0,133.25,68.1Z"/><path class="cls-6" d="M132.75,73.3a14.24,14.24,0,0,0,2.71,3h0a14.41,14.41,0,0,0,2.58-3,3.71,3.71,0,0,0-2.85-1A4,4,0,0,0,132.75,73.3Z"/><path d="M135.47,76.47h-.08l-.07,0a14.12,14.12,0,0,1-2.75-3l-.1-.15.13-.13A4.15,4.15,0,0,1,135.18,72a3.86,3.86,0,0,1,3,1l.13.12-.09.14a14.61,14.61,0,0,1-2.6,3l-.06,0ZM133,73.34A13.21,13.21,0,0,0,135.46,76a14.09,14.09,0,0,0,2.31-2.69,3.46,3.46,0,0,0-2.55-.81A3.75,3.75,0,0,0,133,73.34Z"/><path d="M135.47,76.47h-.08l-.07,0a14.12,14.12,0,0,1-2.75-3h0a6.07,6.07,0,0,1-1.18-3.79,2.17,2.17,0,0,1,1-1.71,1.68,1.68,0,0,1,1.34-.2,3.13,3.13,0,0,1,1.7,1.53c.63-1.13,1.37-1.69,2.15-1.7a1.77,1.77,0,0,1,.82.22,2.13,2.13,0,0,1,1,1.66,6.29,6.29,0,0,1-1.11,3.92,14.76,14.76,0,0,1-2.6,3l-.06,0Zm-2.22-8.37a1.31,1.31,0,0,0-.68.19,1.7,1.7,0,0,0-.74,1.37,5.64,5.64,0,0,0,1.1,3.52h0A13.25,13.25,0,0,0,135.46,76a14.19,14.19,0,0,0,2.41-2.84,5.86,5.86,0,0,0,1-3.64,1.75,1.75,0,0,0-.78-1.33,1.54,1.54,0,0,0-.62-.16c-.68,0-1.35.62-1.94,1.81l-.19.37-.2-.37a3,3,0,0,0-1.63-1.66A1.15,1.15,0,0,0,133.25,68.1Z"/><path class="cls-6" d="M201.67,140.54A27.08,27.08,0,0,0,188.14,145L190.22,158a15.86,15.86,0,0,1,11.62-6,15.3,15.3,0,0,1,15.88,15,15.88,15.88,0,0,1-14.91,16.47,15.51,15.51,0,0,1-9-2.26l1.94,12.35a26.79,26.79,0,0,0,7.58.7c14.52-.67,25.92-13.25,25.46-28.1S216.19,139.88,201.67,140.54Z"/><path d="M202,194.58a26.28,26.28,0,0,1-6.33-.74l-.14,0-2-13,.41.27a15.27,15.27,0,0,0,8.88,2.22,15.68,15.68,0,0,0,14.71-16.24,15.39,15.39,0,0,0-4.92-10.9,14.7,14.7,0,0,0-10.74-3.94,15.72,15.72,0,0,0-11.46,5.93l-.31.39-2.17-13.7.11-.08a27.21,27.21,0,0,1,13.64-4.45h0a25.65,25.65,0,0,1,18.76,6.87,26.82,26.82,0,0,1,8.58,19c.46,14.94-11.05,27.65-25.67,28.32C202.9,194.57,202.46,194.58,202,194.58Zm-6.09-1.12a27,27,0,0,0,7.38.65c14.38-.66,25.71-13.16,25.26-27.87a26.45,26.45,0,0,0-8.44-18.72,25.23,25.23,0,0,0-18.45-6.76,26.81,26.81,0,0,0-13.3,4.31l2,12.45a16.13,16.13,0,0,1,11.47-5.71,15.16,15.16,0,0,1,11.06,4.05,15.83,15.83,0,0,1,5.05,11.21,16.12,16.12,0,0,1-15.12,16.69,15.77,15.77,0,0,1-8.73-2Z"/><path class="cls-6" d="M77.71,225.45H200.58L184,117.41a171.88,171.88,0,0,1-44.88,5.9,171.91,171.91,0,0,1-44.37-5.9Q86.2,171.43,77.71,225.45Z"/><path d="M200.83,225.66H77.45l0-.25,17-108.28.23.07a171.43,171.43,0,0,0,44.32,5.89h.25a171.54,171.54,0,0,0,44.57-5.89l.24-.07ZM78,225.23H200.33L183.77,117.68a171.94,171.94,0,0,1-44.45,5.85h-.26a171.76,171.76,0,0,1-44.19-5.85Z"/><path class="cls-5" d="M15.54,99.39a3.12,3.12,0,0,1,.54-1.16,5.45,5.45,0,0,1,3.05-1.93,12.14,12.14,0,0,1,6.43.4A20,20,0,0,1,34.33,103c.74.86,1.46,1.75,2.16,2.65.22.28.53.75.84,1.13a35.27,35.27,0,0,0-6.94-3.3c-2.93-.9-5.67-.44-8.63-.1C19.39,103.68,14.68,103.16,15.54,99.39Z"/><path d="M38.26,107.58l-1-.6a34.73,34.73,0,0,0-6.9-3.27c-2.61-.81-5.09-.51-7.72-.19l-.82.1c-1.52.18-4.47.07-5.85-1.47a3,3,0,0,1-.6-2.81h0a3.19,3.19,0,0,1,.58-1.24,5.59,5.59,0,0,1,3.17-2,12.38,12.38,0,0,1,6.55.4,20.16,20.16,0,0,1,8.87,6.39c.73.85,1.46,1.75,2.16,2.66l.28.37c.17.24.37.51.56.75Zm-11.61-4.82a12.65,12.65,0,0,1,3.8.54,30.81,30.81,0,0,1,6.08,2.79l-.21-.29c-.7-.9-1.42-1.79-2.15-2.64a19.84,19.84,0,0,0-8.68-6.26,12,12,0,0,0-6.31-.39,5.25,5.25,0,0,0-2.92,1.85,3,3,0,0,0-.51,1.08h0a2.58,2.58,0,0,0,.5,2.42c1.1,1.22,3.61,1.54,5.48,1.33l.82-.1A33.79,33.79,0,0,1,26.65,102.76Z"/><path class="cls-5" d="M17.39,99.85h0S17.37,99.75,17.39,99.85Z"/><path class="cls-5" d="M22.21,115.6a2.2,2.2,0,0,1-.19-.89,4.2,4.2,0,0,1,.87-2.48,9.17,9.17,0,0,1,3.7-2.81,13.49,13.49,0,0,1,7.49-.66c.77.12,1.54.26,2.31.43.23,0,.61.16.93.22a25.08,25.08,0,0,0-5.21,1.46c-2,.88-3.3,2.42-4.79,4C26.13,116.14,23.33,118.07,22.21,115.6Z"/><path d="M23.87,117a1.87,1.87,0,0,1-.34,0A2,2,0,0,1,22,115.69a2.55,2.55,0,0,1-.21-1,4.41,4.41,0,0,1,.91-2.62,9.35,9.35,0,0,1,3.8-2.88,13.75,13.75,0,0,1,7.61-.68c.75.12,1.53.27,2.31.44l.32.08.61.14,1.13.2-1.12.22a24.55,24.55,0,0,0-5.17,1.45,13.5,13.5,0,0,0-4.31,3.51l-.41.44C26.75,115.8,25.23,117,23.87,117Zm7.43-8.27a11.64,11.64,0,0,0-4.62.88,8.93,8.93,0,0,0-3.62,2.74,4,4,0,0,0-.82,2.35,1.85,1.85,0,0,0,.17.8h0a1.58,1.58,0,0,0,1.19,1c1.1.19,2.61-.82,3.56-1.83l.41-.43A13.69,13.69,0,0,1,32,110.68a21,21,0,0,1,4.27-1.28c-.76-.17-1.52-.31-2.25-.43A17.89,17.89,0,0,0,31.3,108.74Z"/><path class="cls-5" d="M23.42,115Z"/><path class="cls-5" d="M67.2,105.61a2.24,2.24,0,0,0-.16-.89,3.91,3.91,0,0,0-1.72-1.91,8.63,8.63,0,0,0-4.45-1,13.77,13.77,0,0,0-7.11,2.58c-.67.44-1.32.9-2,1.38-.19.15-.49.4-.77.6a24.74,24.74,0,0,1,5.32-.88c2.16,0,3.94.81,5.89,1.63C63.8,107.77,67.1,108.35,67.2,105.61Z"/><path d="M64.8,107.88a7.44,7.44,0,0,1-2.64-.56l-.54-.23a12.7,12.7,0,0,0-5.26-1.38,23.86,23.86,0,0,0-5.28.87l-1.14.28,1-.67c.18-.12.36-.27.52-.39l.25-.2c.65-.49,1.31-1,2-1.39a14,14,0,0,1,7.23-2.62,9,9,0,0,1,4.56,1,4.06,4.06,0,0,1,1.81,2,2.46,2.46,0,0,1,.18,1,2.13,2.13,0,0,1-1,1.85A3.09,3.09,0,0,1,64.8,107.88Zm-8.3-2.61a13.31,13.31,0,0,1,5.29,1.42l.53.23c1.23.51,3,.78,3.92.18a1.7,1.7,0,0,0,.74-1.49h0a1.93,1.93,0,0,0-.14-.81,3.72,3.72,0,0,0-1.63-1.8,8.4,8.4,0,0,0-4.33-1,13.45,13.45,0,0,0-7,2.54c-.64.42-1.28.87-1.91,1.35a20.59,20.59,0,0,1,4.38-.64Z"/><path class="cls-5" d="M65.86,105.56Z"/><path class="cls-5" d="M66.83,88.15a2.8,2.8,0,0,0-.94-.82,5.17,5.17,0,0,0-3.52-.43,12.78,12.78,0,0,0-5.72,3.17,21.73,21.73,0,0,0-5.57,9.61c-.34,1.11-.66,2.24-.95,3.37-.08.35-.19.91-.33,1.39a37.74,37.74,0,0,1,5.07-6c2.32-2.11,5-2.89,7.83-3.87C65,93.74,69.06,91.21,66.83,88.15Z"/><path d="M49.24,105.59l.35-1.21c.09-.3.16-.63.23-.92s.07-.34.1-.47c.29-1.14.61-2.27,1-3.37a21.71,21.71,0,0,1,5.62-9.7,12.85,12.85,0,0,1,5.82-3.23,5.3,5.3,0,0,1,3.67.45A2.89,2.89,0,0,1,67,88a3,3,0,0,1,.55,2.77c-.63,2-3.3,3.43-4.78,3.94L62,95c-2.52.86-4.9,1.67-7,3.56a36.84,36.84,0,0,0-5,6ZM63.56,87a5.62,5.62,0,0,0-1.15.12,12.52,12.52,0,0,0-5.61,3.12,21.5,21.5,0,0,0-5.51,9.52c-.34,1.09-.66,2.22-.94,3.35,0,.09-.05.2-.08.32a34.2,34.2,0,0,1,4.45-5.18c2.14-1.95,4.56-2.77,7.13-3.65l.78-.27c1.3-.45,3.93-1.8,4.51-3.66a2.61,2.61,0,0,0-.49-2.39h0a2.66,2.66,0,0,0-.87-.75A4.61,4.61,0,0,0,63.56,87Z"/><path class="cls-5" d="M65.32,89.37Z"/><path class="cls-5" d="M45.16,116c-3.19-2.41-8.12-7-5.4-11.6,1.54-2.63,5.07-3.63,7.4-1.58C51,106.14,48,113.06,45.16,116Z"/><path d="M45.18,116.26l-.15-.11c-5.63-4.26-7.52-8.36-5.46-11.88a5.67,5.67,0,0,1,3.91-2.72,4.59,4.59,0,0,1,3.83,1.09,5.65,5.65,0,0,1,1.86,4.18c.13,3.33-1.89,7.28-3.85,9.31Zm-.92-14.34a4.34,4.34,0,0,0-.71.06,5.22,5.22,0,0,0-3.6,2.51c-1.34,2.28-1.51,6.07,5.19,11.19,1.86-2,3.72-5.71,3.59-8.84A5.22,5.22,0,0,0,47,103,4.16,4.16,0,0,0,44.26,101.92Z"/><path class="cls-6" d="M39.5,126.56l-7.72-13.27L57,107.88,53.25,124c2.66,34,36.47,23.79,36.47,23.79l-5.09,33.39C38.36,182.72,39.5,126.56,39.5,126.56Z"/><path d="M82.79,181.44c-11.36,0-20.75-3.59-27.92-10.66-15.61-15.42-15.6-42.67-15.59-44.16l-7.84-13.48,25.85-5.54L53.47,124c.77,9.74,4.19,16.75,10.17,20.84,10.62,7.26,25.87,2.77,26,2.72l.33-.1L84.81,181.4h-.18C84,181.43,83.4,181.44,82.79,181.44Zm-50.67-68,7.6,13.07v.06c0,.28-.39,28.26,15.46,43.91,7.43,7.33,17.27,10.87,29.26,10.51l5-32.88c-2.3.61-16.15,3.9-26.07-2.88-6.1-4.16-9.58-11.3-10.36-21.19V124l3.68-15.79Z"/><line class="cls-1" x1="39.46" y1="126.58" x2="53.4" y2="123.73"/><rect x="39.32" y="124.94" width="14.23" height="0.44" transform="translate(-24.25 11.91) rotate(-11.61)"/><rect x="79.41" y="216.82" width="119.83" height="0.43"/><path class="cls-5" d="M149.92,152.64a19.88,19.88,0,0,0,17.26,19.79,19.45,19.45,0,0,0,2.65.19,19.87,19.87,0,1,0,.34-39.73,19.44,19.44,0,0,0-2.65.16A20,20,0,0,0,149.92,152.64Z"/><path d="M169.94,172.84h-.11a20.61,20.61,0,0,1-2.68-.19,20.06,20.06,0,0,1,.35-39.82,19.12,19.12,0,0,1,2.68-.16,20.2,20.2,0,0,1,14.37,6,19.81,19.81,0,0,1,5.75,14.15A20.3,20.3,0,0,1,169.94,172.84Zm.12-39.73a18.27,18.27,0,0,0-2.51.16,19.84,19.84,0,0,0-17.41,19.37h0a19.73,19.73,0,0,0,19.69,19.76h.11a19.86,19.86,0,0,0,19.92-19.55A19.35,19.35,0,0,0,184.24,139a19.74,19.74,0,0,0-14.07-5.9Z"/><path d="M194.65,172.44l-.09-.1a14.6,14.6,0,0,0-4.3-3.5,23.38,23.38,0,0,0-5.34-2.29l.12-.41a23.52,23.52,0,0,1,5.44,2.32,14.75,14.75,0,0,1,4.4,3.6l.09.1Z"/><path d="M185.8,179.57a27.27,27.27,0,0,0-2.59-4.63,26.77,26.77,0,0,0-3.82-4.35l.29-.32a26.27,26.27,0,0,1,3.88,4.42,27.18,27.18,0,0,1,2.64,4.71Z"/><path d="M175.2,183.12a25.84,25.84,0,0,0-2.14-10.31l.4-.17a26.66,26.66,0,0,1,2.18,10.48Z"/><path d="M178,134.4a33.56,33.56,0,0,1-3.53,14.53l-14.37-2.31,8.46,11.7a34.29,34.29,0,0,1-11.62,9.56,19.7,19.7,0,0,1-4.26-25.82A20.25,20.25,0,0,1,178,134.4Z"/><path d="M156.9,168.14l-.11-.09a19.94,19.94,0,0,1-4.3-26.1,20.51,20.51,0,0,1,25.59-7.75l.12.06v.13A34.11,34.11,0,0,1,174.66,149l-.07.15-14-2.25,8.26,11.41-.11.13a34.83,34.83,0,0,1-11.7,9.62Zm12.92-35.26a20.05,20.05,0,0,0-17,9.3A19.51,19.51,0,0,0,157,167.63a34.38,34.38,0,0,0,11.32-9.32l-8.68-12,14.73,2.37a33.48,33.48,0,0,0,3.44-14.15A19.89,19.89,0,0,0,169.82,132.88Z"/><path d="M85.24,170.38l-.32-.3L85,170a14.94,14.94,0,0,1,4.47-3.54A23.48,23.48,0,0,1,95,164.17l.11.42a22.81,22.81,0,0,0-5.38,2.23,14.56,14.56,0,0,0-4.36,3.46Z"/><path d="M94,177.6l-.39-.18a26.27,26.27,0,0,1,2.71-4.68,26.54,26.54,0,0,1,4-4.38l.29.32A26.51,26.51,0,0,0,94,177.6Z"/><path d="M104.49,181.27h-.43a26.34,26.34,0,0,1,.57-5,27.05,27.05,0,0,1,1.79-5.46l.4.18a26.37,26.37,0,0,0-2.33,10.3Z"/><path class="cls-5" d="M91.38,152.81a19.85,19.85,0,0,0,17.25,19.79,18,18,0,0,0,2.65.19,19.87,19.87,0,1,0,.35-39.73,21.23,21.23,0,0,0-2.66.16A20,20,0,0,0,91.38,152.81Z"/><path d="M111.39,173h-.11a20.61,20.61,0,0,1-2.68-.19,20.12,20.12,0,0,1-17.44-20h0A20.27,20.27,0,0,1,109,133a19.21,19.21,0,0,1,2.68-.16,20.22,20.22,0,0,1,14.38,6A19.77,19.77,0,0,1,131.75,153,20.3,20.3,0,0,1,111.39,173Zm-19.8-20.19a19.7,19.7,0,0,0,17.07,19.57,18.17,18.17,0,0,0,2.62.18h.11A19.87,19.87,0,0,0,131.32,153a19.39,19.39,0,0,0-5.62-13.84,19.94,19.94,0,0,0-34.11,13.63Z"/><path d="M121.86,135.8a33.51,33.51,0,0,1-5.08,14.07l-14-3.82,7.15,12.54a34.37,34.37,0,0,1-12.6,8.27,19.7,19.7,0,0,1-1.42-26.13A20.26,20.26,0,0,1,121.86,135.8Z"/><path d="M97.23,167.11l-.09-.09A20,20,0,0,1,95.7,140.6a20.5,20.5,0,0,1,26.27-5l.12.07v.14A34.16,34.16,0,0,1,117,150l-.08.14-13.69-3.73,7,12.22-.12.12a34.94,34.94,0,0,1-12.68,8.33Zm14.54-33.8A20,20,0,0,0,96,140.87a19.52,19.52,0,0,0,1.31,25.74,34.52,34.52,0,0,0,12.27-8.06l-7.32-12.84,14.38,3.91a33.71,33.71,0,0,0,4.95-13.7A19.73,19.73,0,0,0,111.77,133.31Z"/><path class="cls-4" d="M150.29,172.31c3-1,6.22.78,6.5,3.57,1.11,10.82,1.35,33.05-15,34.21S124.47,187.24,125,175.66c.14-2.87,3.44-4.68,6.48-3.6a29.37,29.37,0,0,0,9.34,1.79A27.71,27.71,0,0,0,150.29,172.31Z"/><path d="M140.65,210.35a12.14,12.14,0,0,1-8.8-3.49c-7.09-6.93-7.45-22.53-7-31.21a4.15,4.15,0,0,1,1.89-3.24,5.51,5.51,0,0,1,4.88-.55,28.8,28.8,0,0,0,9.27,1.77,26.94,26.94,0,0,0,9.37-1.53h0a5.57,5.57,0,0,1,4.74.57,4.36,4.36,0,0,1,2,3.19c.79,7.78,1.18,22-5.14,29.47a14,14,0,0,1-10.08,5C141.41,210.33,141,210.35,140.65,210.35Zm-11-38.39a4.9,4.9,0,0,0-2.72.81,3.68,3.68,0,0,0-1.71,2.9c-.41,8.61,0,24.07,6.92,30.88a11.89,11.89,0,0,0,9.6,3.32,13.48,13.48,0,0,0,9.78-4.82c6.21-7.39,5.82-21.43,5-29.15a3.87,3.87,0,0,0-1.86-2.86,5.07,5.07,0,0,0-4.36-.52,27.82,27.82,0,0,1-9.52,1.54,29.43,29.43,0,0,1-9.41-1.79A5.1,5.1,0,0,0,129.67,172Z"/><path class="cls-5" d="M152,175.4a1.24,1.24,0,0,1,1.67,1.09c.34,6.63.67,30.44-12,30.71-14.5.3-13.6-23.77-13.08-30.29a1.25,1.25,0,0,1,1.64-1.08,33.46,33.46,0,0,0,11.17,1.57A34.26,34.26,0,0,0,152,175.4Z"/><path d="M141.38,207.42a10.12,10.12,0,0,1-7.67-3.25c-6.43-6.81-5.74-22.6-5.37-27.27a1.48,1.48,0,0,1,1.92-1.28,33.86,33.86,0,0,0,21.64-.42h0a1.44,1.44,0,0,1,1.32.15,1.42,1.42,0,0,1,.64,1.13,80.84,80.84,0,0,1-.4,13.42c-.82,6.78-2.6,11.67-5.26,14.53a8.92,8.92,0,0,1-6.55,3ZM129.81,176a1,1,0,0,0-.58.18,1,1,0,0,0-.46.77c-.36,4.63-1.06,20.26,5.25,26.94a9.83,9.83,0,0,0,7.62,3.11,8.53,8.53,0,0,0,6.24-2.84c6.13-6.59,5.8-22.82,5.55-27.64a1,1,0,0,0-.45-.79,1.05,1.05,0,0,0-.93-.11h0a34.26,34.26,0,0,1-21.92.43A1.25,1.25,0,0,0,129.81,176Z"/><rect x="145.76" y="176.96" width="0.43" height="28.99" transform="translate(-0.43 0.33) rotate(-0.13)"/><rect x="136.71" y="177.21" width="0.43" height="29.14" transform="matrix(1, -0.01, 0.01, 1, -2.37, 1.71)"/><polygon points="128.93 191.96 128.92 191.52 153.05 191.01 153.11 191.44 153.06 191.45 128.93 191.96"/><path class="cls-3" d="M142.41,158.52l-.25,4.13s-6.65-.78-6.89,2.68,7.45,2.4,7.45,2.4"/><path d="M140.23,168.11c-1.6,0-3.55-.22-4.54-1.14a2,2,0,0,1-.64-1.65,2.52,2.52,0,0,1,.93-1.8c1.67-1.38,5.06-1.19,6-1.11l.23-3.9.44,0-.27,4.36-.22,0s-4.13-.46-5.88,1a2,2,0,0,0-.77,1.49,1.52,1.52,0,0,0,.5,1.31c1.65,1.54,6.65.86,6.7.85l.06.43A17.82,17.82,0,0,1,140.23,168.11Z"/></g></svg>