<svg xmlns="http://www.w3.org/2000/svg" viewBox="0 0 234.43 216.02"><defs><style>.cls-1{fill:#71513c;}.cls-1,.cls-10,.cls-11,.cls-13,.cls-15,.cls-3,.cls-4,.cls-5,.cls-6,.cls-7,.cls-8,.cls-9{stroke:#000;}.cls-1,.cls-10,.cls-11,.cls-13,.cls-15,.cls-2,.cls-3,.cls-4,.cls-5,.cls-6,.cls-7,.cls-8,.cls-9{stroke-miterlimit:10;stroke-width:0.5px;}.cls-2,.cls-7{fill:none;}.cls-2{stroke:#836855;}.cls-3{fill:#74ae70;}.cls-4{fill:#64bb80;}.cls-5{fill:#94d0a7;}.cls-14,.cls-6{fill:#fff;}.cls-8{fill:#f7f449;}.cls-10{fill:#f3b5d3;}.cls-11,.cls-12{fill:#ea5f3d;}.cls-13{fill:#8093ff;}.cls-15{fill:#5c75ff;}</style></defs><g id="PREVIEW"><path class="cls-1" d="M132.23,143s-3,35.07,17.71,73.26H83.53c20.76-38.19,10.24-71.39,10.24-71.39Z"/><path class="cls-2" d="M102.72,152.62c-.53,1.79.24,3.8.58,5.6a95,95,0,0,1,1.66,12.5c.84,15.67-5.48,28.75-.84,44.31"/><path class="cls-2" d="M111,153.47a104.76,104.76,0,0,1,1.43,39.73"/><path class="cls-2" d="M123.59,160.9c-.5,10.62-.07,20.23,2.6,30.55,1.62,6.24,5.18,15.77,3.38,23.69"/><path class="cls-2" d="M114.16,203.49a14.78,14.78,0,0,0,0,6.28"/><path class="cls-2" d="M124.24,156.37l-.28,2"/><path class="cls-1" d="M83.53,216.21h-45S53.9,196.92,83.53,216.21Z"/><path class="cls-1" d="M149.31,216.21h45S179,196.92,149.31,216.21Z"/><path class="cls-3" d="M174.33,59.26C195.82,36,170.14,4.72,138.35,27,133.67-6.21,92-5.31,87.47,27c-22.61-18.35-56.77,7.14-36,32.22-35.74,1-35,45,0,45.55-22.1,24.5,7.5,51.91,36,32.21,7,28.79,47.65,26.92,50.88,0,30.64,20.9,58.89-6.8,36-32.21C211,101.61,211,61.85,174.33,59.26Z"/><path class="cls-3" d="M120.67,14.45s-12.57-2.76-16.19,17.66C104.48,32.11,124.83,27.05,120.67,14.45Z"/><path class="cls-4" d="M120.55,14.43A60.69,60.69,0,0,0,110,25.55l-.22.31"/><path class="cls-3" d="M72.26,112.68s-12.57-2.77-16.19,17.65C56.07,130.33,76.42,125.27,72.26,112.68Z"/><path class="cls-4" d="M72.14,112.65a61.44,61.44,0,0,0-10.6,11.13,3.46,3.46,0,0,0-.22.31"/><path class="cls-3" d="M168.14,115s-12.57-2.77-16.19,17.65C152,132.68,172.3,127.62,168.14,115Z"/><path class="cls-4" d="M168,115a61.46,61.46,0,0,0-10.61,11.13l-.22.31"/><path class="cls-3" d="M109.86,54.54s-4.69,8.25,8.9,15.26C118.76,69.8,119.63,54.36,109.86,54.54Z"/><path class="cls-4" d="M109.81,54.62a45.1,45.1,0,0,0,5.53,9.9c0,.07.11.14.16.22"/><path class="cls-3" d="M105.41,141.26s-.87,9.45,14.4,10.23C119.81,151.49,114.25,137.07,105.41,141.26Z"/><path class="cls-4" d="M105.41,141.35a44.78,44.78,0,0,0,9.11,6.74l.24.13"/><path class="cls-3" d="M41.18,75.41s-4.69,8.24,8.9,15.25C50.08,90.66,51,75.23,41.18,75.41Z"/><path class="cls-4" d="M41.14,75.48a44.62,44.62,0,0,0,5.52,9.9,1.84,1.84,0,0,0,.17.22"/><path class="cls-3" d="M61.2,30.29s-1.61,9.35,13.55,11.33C74.75,41.62,70.34,26.81,61.2,30.29Z"/><path class="cls-4" d="M61.19,30.38a45.2,45.2,0,0,0,8.55,7.44L70,38"/><path class="cls-3" d="M170.73,29.19s-8.68-3.84-14.29,10.38C156.44,39.57,171.89,38.9,170.73,29.19Z"/><path class="cls-4" d="M170.65,29.16a45,45,0,0,0-9.3,6.48l-.2.19"/><path class="cls-3" d="M185,72.71s-9.06,2.82-3.93,17.22C181,89.93,192.23,79.26,185,72.71Z"/><path class="cls-4" d="M184.88,72.74a45.31,45.31,0,0,0-2.73,11,2.64,2.64,0,0,0,0,.28"/><path class="cls-5" d="M116.72,81.63l.14,5.26-.59,0L115,87a6.11,6.11,0,0,0-3.94,1.25,4.73,4.73,0,0,0-1.33,4.18,4.62,4.62,0,0,0,3.62,3.54,6.21,6.21,0,0,0,4.43-.79"/><path class="cls-6" d="M125.45,97.26s3.73,38.82-10.19,39.19C99.41,136.87,102,97.88,102,97.88a25.57,25.57,0,0,0,23.45-.62Z"/><polyline class="cls-7" points="118.34 99.88 118.85 117.33 119.36 134.93 119.36 134.95"/><polyline class="cls-7" points="109.66 100.2 110.3 117.56 110.95 135.41"/><polyline class="cls-7" points="125.55 117.15 118.85 117.33 110.3 117.56 102.75 117.75"/><path class="cls-8" d="M103,76.58c-.49,15.06-8.09,27.28-17.47,28.9a11.74,11.74,0,0,1-2.52.17c-10.5-.34-18.59-13.9-18.06-30.3s9.47-29.4,20-29.06a12.24,12.24,0,0,1,2.5.34C96.7,48.85,103.49,61.51,103,76.58Z"/><path class="cls-9" d="M100.79,87.07v0c-3,9.92-8.69,17-15.24,18.28a10.64,10.64,0,0,1-2.52.21C76.39,105.35,70.72,99.19,67.6,90a1.9,1.9,0,0,1,0-.34c.14-11,7.73-19.87,16.94-19.75C92.87,70,99.68,77.48,100.79,87.07Z"/><line class="cls-7" x1="55.1" y1="59.38" x2="66.5" y2="64.16"/><line class="cls-7" x1="59.88" y1="50.42" x2="69.07" y2="58.25"/><line class="cls-7" x1="53.93" y1="68.63" x2="65.44" y2="71.42"/><path class="cls-8" d="M164.69,75.27c-.49,15.06-8.09,27.28-17.46,28.89a11.22,11.22,0,0,1-2.52.18c-10.51-.34-18.6-13.9-18.07-30.3s9.48-29.4,20-29.06a12.43,12.43,0,0,1,2.51.34C158.38,47.54,165.18,60.2,164.69,75.27Z"/><path class="cls-9" d="M162.47,85.76v0c-3,9.92-8.69,17-15.24,18.28a10.6,10.6,0,0,1-2.52.21c-6.64-.23-12.3-6.39-15.43-15.56,0-.11,0-.22,0-.34.15-11,7.74-19.87,16.95-19.75C154.55,68.73,161.36,76.17,162.47,85.76Z"/><line class="cls-7" x1="174.2" y1="55.63" x2="162.79" y2="60.41"/><line class="cls-7" x1="169.42" y1="46.67" x2="160.22" y2="54.5"/><line class="cls-7" x1="175.37" y1="64.88" x2="163.85" y2="67.67"/><polygon class="cls-10" points="173.53 187.55 146.41 180.1 145.13 177.58 163.9 173.08 173.53 187.55"/><path class="cls-11" d="M143.1,180.35c1.23,2.13,2.82,3.52,3.55,3.1s.34-2.5-.88-4.64-2.82-3.52-3.56-3.1S141.87,178.21,143.1,180.35Z"/><path d="M143,177.42a.2.2,0,0,0,.2.2.19.19,0,0,0,.21-.19.2.2,0,0,0-.2-.21A.21.21,0,0,0,143,177.42Z"/><path d="M145.6,182.09a.21.21,0,0,0,.2.21.21.21,0,0,0,0-.41A.21.21,0,0,0,145.6,182.09Z"/><path d="M144.39,178.48a.21.21,0,1,0,.21-.2A.22.22,0,0,0,144.39,178.48Z"/><path d="M143.16,179a.19.19,0,0,0,.19.21.19.19,0,0,0,.21-.19.2.2,0,1,0-.4,0Z"/><path d="M145.27,180.14a.21.21,0,0,0,.2.21.2.2,0,0,0,.21-.19.2.2,0,0,0-.2-.21A.2.2,0,0,0,145.27,180.14Z"/><path d="M144,180.71a.2.2,0,0,0,.19.21.2.2,0,0,0,.21-.2.19.19,0,0,0-.19-.21A.2.2,0,0,0,144,180.71Z"/><polygon class="cls-10" points="155.32 164.6 175.42 147.64 203.32 174.71 175.44 197.3 155.32 164.6"/><path class="cls-11" d="M185.68,144.12a11.94,11.94,0,0,0-6.13,7.49l3.51,3.39a7.85,7.85,0,1,1,11.39,6.93,7.55,7.55,0,0,1-3.39.84l3.62,3.5a11.51,11.51,0,0,0,1.85-.74,12,12,0,0,0-10.85-21.41Z"/><path class="cls-12" d="M168.91,173a3.36,3.36,0,0,1-.37-3.31c.64-1.49,2.42-3.3,6.8-2.12-.72-4.48,1.23-6,2.79-6.52a3.42,3.42,0,0,1,3.25.72c4.6,4,1.79,14.47,1.78,14.51S172.45,178,168.91,173Z"/><line class="cls-7" x1="157.29" y1="167.84" x2="178.12" y2="150.22"/><line class="cls-7" x1="172.91" y1="192.9" x2="199.77" y2="171.4"/><path d="M213,133.51c-.84,1.89-1.76,3.75-2.64,5.56-.53,1.09-1.06,2.16-1.55,3.21-.88,1.85-2.68,3.08-4.79,2.35-1.78-.6-3.23-2.94-2.36-4.79s2-3.9,3-5.88c.89-1.74,1.76-3.5,2.52-5.3a32.94,32.94,0,0,0,1.94-6c2.24-10.41-7.65-15.84-16.67-16.09a58.71,58.71,0,0,0-15.06,1.94c-.58-.82-1.22-1.64-1.9-2.47-.35-.42-.72-.84-1.1-1.27,7.3-.63,13.15-2.72,17.54-5.67,7.58.09,14.95,2.12,20.35,8.07C219.58,115.3,216.94,124.73,213,133.51Z"/><path class="cls-6" d="M202,133.39s.18-4.95,3.21-3.51c2.31,1.09,6.33,4.78,8.11,6.48a3,3,0,0,1,.86,3,4.85,4.85,0,0,1-2.71,2.13c-.12,2.1.32,5.37-2.1,9.07a20.86,20.86,0,0,1-7.25,6.85,7.9,7.9,0,0,1-4.82,1.13,5.12,5.12,0,0,1-2.68-1.08,3,3,0,0,1-.85-1.16l-.39-1.06s-5.08-.4-3.67-5.27c0,0-7.87-1.22-.08-8.28.47-.43-1.32-2.64-.75-5.3a7.75,7.75,0,0,1,3-4.63C194.66,130,198.86,130.56,202,133.39Z"/><line class="cls-7" x1="189.84" y1="149.98" x2="193.06" y2="147.53"/><line class="cls-7" x1="193.4" y1="155.29" x2="196.9" y2="152.69"/><line class="cls-7" x1="189.65" y1="141.74" x2="194.12" y2="137.98"/><line class="cls-7" x1="202.02" y1="133.39" x2="205.17" y2="136.03"/><line class="cls-7" x1="209.15" y1="139.66" x2="211.49" y2="141.54"/><path class="cls-13" d="M140.46,179.19a17.72,17.72,0,0,0-3.67-.75c-.94-.09-2.34-.27-2.9.7a1.28,1.28,0,0,0,.35,1.66,2.67,2.67,0,0,0,2.15.07,15.91,15.91,0,0,0,3.9-1.59Z"/><path class="cls-14" d="M134.78,179.86a1.41,1.41,0,0,1,1.41-.39.23.23,0,0,0,.29-.12.22.22,0,0,0-.11-.28,1.91,1.91,0,0,0-1.06,0,1.89,1.89,0,0,0-.87.54.22.22,0,0,0,.34.28Z"/><path class="cls-13" d="M144.71,183.85a18.28,18.28,0,0,0-3.06,2.18c-.7.62-1.79,1.52-1.46,2.59a1.28,1.28,0,0,0,1.45.88c.74-.15,1.18-.92,1.52-1.52a16.34,16.34,0,0,0,1.5-3.94C144.68,184,144.69,183.91,144.71,183.85Z"/><path class="cls-14" d="M141.35,188.62a1.41,1.41,0,0,1,.67-1.3.22.22,0,1,0-.17-.4,1.85,1.85,0,0,0-.93,1.76.22.22,0,1,0,.43-.06Z"/><path class="cls-13" d="M140.7,182.54a17.7,17.7,0,0,0-3.54,1.24c-.85.4-2.14,1-2.13,2.08a1.28,1.28,0,0,0,1.16,1.25c.75.06,1.38-.56,1.88-1a16.27,16.27,0,0,0,2.53-3.36Z"/><path class="cls-14" d="M136.13,186a1.4,1.4,0,0,1,1-1.06c.12,0,.21-.11.19-.24a.21.21,0,0,0-.24-.19,1.89,1.89,0,0,0-.92.52,1.94,1.94,0,0,0-.47.91.22.22,0,1,0,.43.06Z"/><path class="cls-15" d="M28.62,161.8h0a3,3,0,0,0,1.23,4.06l20.2,10.84,2.83-5.28-20.2-10.84A3,3,0,0,0,28.62,161.8Z"/><path class="cls-15" d="M49.91,169.9c15.13-13.78,25,16.75,25,16.75-31,9.33-27.68-11.6-27.68-11.6Z"/><path class="cls-9" d="M62.17,188.43a2.61,2.61,0,0,1,2.21-.77c1-.06,4.47.14,3.6-1.78-.62-1.34-2.21-1.45-3.33-2.17-.73-.47-.76-1.15-.73-1.94a2.39,2.39,0,0,0-.44-1.6c-.46-.6-1.74-1.44-1.29-2.31.57-1.13,2.31-.6,3.31-.88a.31.31,0,0,0,.17-.45,5.79,5.79,0,0,1-1.29-2.78c-.11-1.44,1.17-2,2.46-2.22,5.14,6,8.1,15.12,8.1,15.12a50.58,50.58,0,0,1-13,2.39A1.68,1.68,0,0,1,62.17,188.43Z"/><line class="cls-6" x1="60.61" y1="179.16" x2="48.65" y2="172.77"/><path d="M51.49,104.81a35.06,35.06,0,0,0-4.19,5.66c-5.85,3.62-10.68,8.15-12.55,15.4A55.42,55.42,0,0,0,34,147c.26,1.95.6,3.87,1,5.74.12.53.23,1.06.35,1.59,1.1,4.73-6.18,6.73-7.28,2A89.5,89.5,0,0,1,26.39,147c-1-7.95-.85-16.19,1.24-23.76a29.55,29.55,0,0,1,8.2-13.75,43.32,43.32,0,0,1,7.73-5.68A36,36,0,0,0,51.49,104.81Z"/><path class="cls-6" d="M36.74,152.52s3.29-4.22-.21-5.14c-2.67-.7-8.56-.44-11.21-.28A3.24,3.24,0,0,0,22.49,149a5.19,5.19,0,0,0,.77,3.64c-1.38,1.82-4,4.22-4.58,9a22.7,22.7,0,0,0,1.23,10.71,8.51,8.51,0,0,0,3.2,4.28,5.61,5.61,0,0,0,3,1,3.3,3.3,0,0,0,1.51-.37l1.06-.61s4.47,3.2,6.7-1.8c0,0,7.35,4.47,5.82-6.78-.1-.68,2.92-1.27,4.3-3.86a8.37,8.37,0,0,0,.72-5.93C45.16,154.84,41.32,152.37,36.74,152.52Z"/><line class="cls-7" x1="35.28" y1="174.69" x2="34.32" y2="170.43"/><line class="cls-7" x1="28.64" y1="176.6" x2="27.55" y2="172.02"/><line class="cls-7" x1="41.16" y1="168.02" x2="40.08" y2="161.8"/><line class="cls-7" x1="36.74" y1="152.52" x2="32.31" y2="152.51"/><line class="cls-7" x1="26.49" y1="152.74" x2="23.26" y2="152.67"/><path class="cls-3" d="M113.86,206.77s-21.8,2.12-19-21.41C94.84,185.36,117.69,185.92,113.86,206.77Z"/><path class="cls-7" d="M102.43,193a25.45,25.45,0,0,1,6.84,6.05c3.28,4,5.39,10.72,6.31,17.28"/><path class="cls-3" d="M118.18,206.65S140,208.5,136.93,185C136.93,185,114.09,185.85,118.18,206.65Z"/><path class="cls-7" d="M129.44,192.72a25.63,25.63,0,0,0-6.77,6.13c-3.23,4.06-5.57,11-6.41,17.54"/><path class="cls-3" d="M144.32,209.32s15.17,1.29,13-15C157.36,194.28,141.48,194.86,144.32,209.32Z"/><path class="cls-7" d="M152.15,199.63a17.73,17.73,0,0,0-4.7,4.27c-2.25,2.82-3.85,7.92-4.43,12.49"/><path class="cls-3" d="M88.59,210.51S73.49,212.44,74.92,196C74.92,196,90.81,195.94,88.59,210.51Z"/><path class="cls-7" d="M80.36,201.17a17.74,17.74,0,0,1,4.88,4.05,22.37,22.37,0,0,1,4.8,11"/></g></svg>