<svg xmlns="http://www.w3.org/2000/svg" viewBox="0 0 199.12 216.02"><defs><style>.cls-1{fill:#71513c;}.cls-1,.cls-10,.cls-11,.cls-13,.cls-15,.cls-3,.cls-4,.cls-5,.cls-6,.cls-7,.cls-8,.cls-9{stroke:#000;}.cls-1,.cls-10,.cls-11,.cls-13,.cls-15,.cls-2,.cls-3,.cls-4,.cls-5,.cls-6,.cls-7,.cls-8,.cls-9{stroke-miterlimit:10;stroke-width:0.5px;}.cls-2,.cls-7{fill:none;}.cls-2{stroke:#836855;}.cls-3{fill:#74ae70;}.cls-4{fill:#64bb80;}.cls-5{fill:#94d0a7;}.cls-14,.cls-6{fill:#fff;}.cls-8{fill:#f7f449;}.cls-10{fill:#f3b5d3;}.cls-11,.cls-12{fill:#ea5f3d;}.cls-13{fill:#8093ff;}.cls-15{fill:#5c75ff;}</style></defs><g id="PREVIEW"><path class="cls-1" d="M114.29,143.11s-3,33.91,17.12,70.83H67.2c20.07-36.92,9.9-69,9.9-69Z"/><path class="cls-2" d="M85.76,152.45c-.52,1.74.22,3.68.55,5.42A90.8,90.8,0,0,1,87.92,170c.81,15.16-5.31,27.8-.82,42.85"/><path class="cls-2" d="M93.77,153.28a101.52,101.52,0,0,1,1.38,38.41"/><path class="cls-2" d="M105.93,160.46c-.48,10.27-.06,19.56,2.52,29.54,1.56,6,5,15.25,3.26,22.9"/><path class="cls-2" d="M96.81,201.64a14.49,14.49,0,0,0,0,6.08"/><path class="cls-2" d="M106.56,156.08l-.27,1.93"/><path class="cls-1" d="M67.2,213.94H23.7S38.55,195.29,67.2,213.94Z"/><path class="cls-1" d="M130.8,213.94h43.5S159.45,195.29,130.8,213.94Z"/><path class="cls-3" d="M155,62.18C175.77,39.7,150.94,9.46,120.2,31,115.67-1.11,75.34-.24,71,31c-21.85-17.75-54.88,6.9-34.78,31.14-34.55,1-33.87,43.53,0,44.05C14.85,129.92,43.47,156.42,71,137.38c6.8,27.83,46.08,26,49.2,0,29.62,20.2,56.94-6.59,34.79-31.15C190.48,103.13,190.48,64.69,155,62.18Z"/><path class="cls-3" d="M103.1,18.86S91,16.19,87.45,35.93C87.45,35.93,107.13,31,103.1,18.86Z"/><path class="cls-4" d="M103,18.84A59,59,0,0,0,92.74,29.6l-.21.3"/><path class="cls-3" d="M56.3,113.84s-12.15-2.68-15.65,17.07C40.65,130.91,60.32,126,56.3,113.84Z"/><path class="cls-4" d="M56.19,113.81a59.37,59.37,0,0,0-10.26,10.76l-.21.3"/><path class="cls-3" d="M149,116.11s-12.15-2.67-15.65,17.07C133.35,133.18,153,128.28,149,116.11Z"/><path class="cls-4" d="M148.89,116.09a59,59,0,0,0-10.26,10.75l-.21.3"/><path class="cls-3" d="M92.65,57.63s-4.53,8,8.61,14.75C101.26,72.38,102.11,57.45,92.65,57.63Z"/><path class="cls-4" d="M92.61,57.7A43.25,43.25,0,0,0,98,67.27c0,.07.11.14.16.22"/><path class="cls-3" d="M88.36,141.47s-.85,9.14,13.92,9.9C102.28,151.37,96.9,137.42,88.36,141.47Z"/><path class="cls-4" d="M88.35,141.56a43.6,43.6,0,0,0,8.81,6.52l.24.13"/><path class="cls-3" d="M26.25,77.8s-4.54,8,8.6,14.75C34.85,92.55,35.7,77.62,26.25,77.8Z"/><path class="cls-4" d="M26.21,77.87a43,43,0,0,0,5.34,9.57,1.77,1.77,0,0,0,.16.22"/><path class="cls-3" d="M45.61,34.18s-1.56,9,13.1,11C58.71,45.14,54.44,30.81,45.61,34.18Z"/><path class="cls-4" d="M45.6,34.27a43.48,43.48,0,0,0,8.27,7.19l.22.14"/><path class="cls-3" d="M151.51,33.12s-8.39-3.72-13.82,10C137.69,43.15,152.63,42.51,151.51,33.12Z"/><path class="cls-4" d="M151.43,33.08a43.94,43.94,0,0,0-9,6.27l-.2.19"/><path class="cls-3" d="M165.27,75.2s-8.75,2.72-3.79,16.65C161.48,91.85,172.3,81.53,165.27,75.2Z"/><path class="cls-4" d="M165.19,75.22a44.2,44.2,0,0,0-2.64,10.64,2.45,2.45,0,0,1,0,.27"/><path class="cls-5" d="M99.29,83.81l.13,5.09s-.44,0-.56,0l-1.24,0a5.93,5.93,0,0,0-3.82,1.21,4.57,4.57,0,0,0-1.28,4A4.44,4.44,0,0,0,96,97.64a5.94,5.94,0,0,0,4.29-.76"/><path class="cls-6" d="M107.73,98.93s3.61,37.53-9.85,37.89c-15.33.41-12.83-37.29-12.83-37.29a24.71,24.71,0,0,0,22.68-.6Z"/><polyline class="cls-7" points="100.86 101.46 101.35 118.34 101.84 135.35 101.84 135.37"/><polyline class="cls-7" points="92.46 101.77 93.08 118.55 93.71 135.82"/><polyline class="cls-7" points="107.82 118.16 101.35 118.34 93.08 118.55 85.78 118.74"/><path class="cls-8" d="M86,78.93c-.47,14.57-7.82,26.38-16.89,27.94a11.55,11.55,0,0,1-2.43.18c-10.16-.33-18-13.44-17.47-29.31S58.4,49.32,68.56,49.65A11.56,11.56,0,0,1,71,50C79.93,52.13,86.5,64.37,86,78.93Z"/><path class="cls-9" d="M83.89,89.08h0c-2.91,9.6-8.41,16.46-14.74,17.68a11.08,11.08,0,0,1-2.44.21c-6.41-.23-11.89-6.19-14.92-15,0-.11,0-.22,0-.33.14-10.66,7.48-19.21,16.39-19.09C76.22,72.62,82.81,79.81,83.89,89.08Z"/><line class="cls-7" x1="39.71" y1="62.31" x2="50.73" y2="66.93"/><line class="cls-7" x1="44.33" y1="53.64" x2="53.22" y2="61.21"/><line class="cls-7" x1="38.57" y1="71.25" x2="49.71" y2="73.95"/><path class="cls-8" d="M145.67,77.66c-.47,14.57-7.82,26.38-16.89,28a12.26,12.26,0,0,1-2.43.17c-10.16-.33-18-13.44-17.47-29.3S118,48.06,128.2,48.38a11.56,11.56,0,0,1,2.42.33C139.57,50.86,146.14,63.1,145.67,77.66Z"/><path class="cls-9" d="M143.53,87.81v0c-2.91,9.59-8.41,16.45-14.74,17.68a11.07,11.07,0,0,1-2.44.2c-6.42-.23-11.89-6.18-14.92-15,0-.11,0-.22,0-.33.14-10.66,7.48-19.22,16.39-19.1C135.86,71.35,142.45,78.54,143.53,87.81Z"/><line class="cls-7" x1="154.86" y1="58.68" x2="143.84" y2="63.3"/><line class="cls-7" x1="150.24" y1="50.01" x2="141.35" y2="57.59"/><line class="cls-7" x1="155.99" y1="67.62" x2="144.86" y2="70.32"/><polygon class="cls-10" points="154.22 186.23 128 179.02 126.75 176.59 144.9 172.24 154.22 186.23"/><path class="cls-11" d="M124.79,179.26c1.19,2.07,2.73,3.41,3.44,3s.33-2.41-.86-4.48-2.73-3.41-3.44-3S123.6,177.2,124.79,179.26Z"/><path d="M124.66,176.43a.19.19,0,0,0,.19.2.19.19,0,0,0,.2-.19.2.2,0,0,0-.18-.2A.21.21,0,0,0,124.66,176.43Z"/><path d="M127.21,181a.2.2,0,0,0,.39,0,.19.19,0,0,0-.19-.2A.21.21,0,0,0,127.21,181Z"/><path d="M126.05,177.46a.18.18,0,0,0,.18.2.2.2,0,1,0,0-.39A.19.19,0,0,0,126.05,177.46Z"/><path d="M124.85,178a.21.21,0,0,0,.19.21.19.19,0,0,0,.2-.19.2.2,0,1,0-.39,0Z"/><path d="M126.9,179.07a.18.18,0,0,0,.18.2.21.21,0,0,0,.21-.19.19.19,0,0,0-.19-.2A.19.19,0,0,0,126.9,179.07Z"/><path d="M125.7,179.61a.19.19,0,0,0,.19.2.18.18,0,0,0,.2-.18.2.2,0,0,0-.19-.21A.21.21,0,0,0,125.7,179.61Z"/><polygon class="cls-10" points="136.61 164.04 156.04 147.64 183.02 173.81 156.06 195.65 136.61 164.04"/><path class="cls-11" d="M166,144.24a11.53,11.53,0,0,0-5.93,7.24l3.39,3.28a7.59,7.59,0,1,1,11,6.7,7.46,7.46,0,0,1-3.28.81l3.5,3.39a11.35,11.35,0,0,0,1.79-.72A11.6,11.6,0,0,0,166,144.24Z"/><path class="cls-12" d="M149.75,172.17a3.28,3.28,0,0,1-.36-3.2c.62-1.44,2.34-3.19,6.57-2.05-.69-4.33,1.2-5.83,2.7-6.3a3.3,3.3,0,0,1,3.14.69c4.45,3.91,1.74,14,1.73,14S153.17,177,149.75,172.17Z"/><line class="cls-7" x1="138.51" y1="167.17" x2="158.65" y2="150.13"/><line class="cls-7" x1="153.62" y1="191.4" x2="179.59" y2="170.61"/><path d="M192.36,134c-.82,1.83-1.7,3.63-2.55,5.38-.52,1-1,2.09-1.5,3.1-.85,1.79-2.59,3-4.64,2.27-1.72-.58-3.11-2.84-2.27-4.63s1.88-3.78,2.86-5.68c.86-1.69,1.7-3.39,2.44-5.13a33.39,33.39,0,0,0,1.87-5.76c2.16-10.07-7.39-15.32-16.12-15.56a56.65,56.65,0,0,0-14.56,1.88c-.57-.8-1.18-1.59-1.84-2.39-.34-.41-.69-.82-1.06-1.23a35.71,35.71,0,0,0,17-5.48c7.32.08,14.45,2,19.68,7.8C198.74,116.37,196.18,125.49,192.36,134Z"/><path class="cls-6" d="M181.76,133.86s.18-4.78,3.11-3.39c2.23,1.05,6.12,4.63,7.84,6.27a2.88,2.88,0,0,1,.82,2.95,4.61,4.61,0,0,1-2.62,2.05c-.11,2,.32,5.2-2,8.77a20.26,20.26,0,0,1-7,6.63,7.63,7.63,0,0,1-4.66,1.09,5,5,0,0,1-2.58-1,2.77,2.77,0,0,1-.82-1.12c-.05-.12-.38-1-.38-1s-4.91-.38-3.55-5.09c0,0-7.61-1.18-.08-8,.46-.41-1.27-2.56-.72-5.12a7.42,7.42,0,0,1,2.92-4.48C174.65,130.6,178.71,131.13,181.76,133.86Z"/><line class="cls-7" x1="169.98" y1="149.9" x2="173.1" y2="147.53"/><line class="cls-7" x1="173.43" y1="155.03" x2="176.82" y2="152.53"/><line class="cls-7" x1="169.8" y1="141.94" x2="174.12" y2="138.3"/><line class="cls-7" x1="181.76" y1="133.86" x2="184.8" y2="136.41"/><line class="cls-7" x1="188.66" y1="139.92" x2="190.91" y2="141.74"/><path class="cls-13" d="M122.24,178.14a17.89,17.89,0,0,0-3.55-.72c-.91-.08-2.26-.26-2.8.68a1.22,1.22,0,0,0,.34,1.6,2.57,2.57,0,0,0,2.07.07,15.7,15.7,0,0,0,3.78-1.53Z"/><path class="cls-14" d="M116.75,178.79a1.36,1.36,0,0,1,1.36-.38.21.21,0,0,0,.28-.1c0-.1,0-.25-.1-.28a1.81,1.81,0,0,0-1,0,1.83,1.83,0,0,0-.84.53.21.21,0,0,0,0,.29A.22.22,0,0,0,116.75,178.79Z"/><path class="cls-13" d="M126.35,182.65a18,18,0,0,0-3,2.1c-.67.61-1.73,1.48-1.41,2.52a1.23,1.23,0,0,0,1.41.84c.71-.14,1.13-.89,1.46-1.47a15.53,15.53,0,0,0,1.45-3.81C126.32,182.77,126.33,182.71,126.35,182.65Z"/><path class="cls-14" d="M123.1,187.26a1.36,1.36,0,0,1,.65-1.25.22.22,0,0,0,.12-.28.22.22,0,0,0-.28-.11,1.78,1.78,0,0,0-.71.73,1.93,1.93,0,0,0-.2,1,.21.21,0,1,0,.42-.06Z"/><path class="cls-13" d="M122.48,181.38a17.45,17.45,0,0,0-3.43,1.2c-.82.39-2.07.94-2.06,2a1.22,1.22,0,0,0,1.12,1.2c.72.06,1.34-.54,1.82-1a15.64,15.64,0,0,0,2.45-3.26Z"/><path class="cls-14" d="M118.06,184.72a1.33,1.33,0,0,1,1-1,.23.23,0,0,0,.19-.24.21.21,0,0,0-.24-.18,1.84,1.84,0,0,0-.89.5,2,2,0,0,0-.45.88.21.21,0,0,0,.18.24A.22.22,0,0,0,118.06,184.72Z"/><path class="cls-15" d="M14.11,161.33h0a2.9,2.9,0,0,0,1.18,3.93l19.53,10.48,2.74-5.11L18,160.15A2.89,2.89,0,0,0,14.11,161.33Z"/><path class="cls-15" d="M34.69,169.17c14.63-13.33,24.2,16.19,24.2,16.19-30,9-26.76-11.22-26.76-11.22Z"/><path class="cls-9" d="M46.55,187.08a2.51,2.51,0,0,1,2.13-.75c1-.05,4.32.14,3.48-1.71-.6-1.3-2.13-1.41-3.22-2.1a1.85,1.85,0,0,1-.71-1.88,2.22,2.22,0,0,0-.42-1.54c-.44-.58-1.68-1.4-1.25-2.24.55-1.09,2.23-.58,3.2-.85a.31.31,0,0,0,.17-.44,5.51,5.51,0,0,1-1.25-2.69c-.11-1.38,1.14-1.95,2.38-2.14,5,5.82,7.83,14.62,7.83,14.62a48.86,48.86,0,0,1-12.61,2.31A1.38,1.38,0,0,1,46.55,187.08Z"/><line class="cls-6" x1="45.04" y1="178.12" x2="33.47" y2="171.94"/><path d="M36.22,106.23a32.9,32.9,0,0,0-4,5.47c-5.66,3.5-10.33,7.88-12.14,14.89a53.64,53.64,0,0,0-.74,20.46c.25,1.87.58,3.73,1,5.54.11.52.22,1,.34,1.54,1.06,4.57-6,6.51-7,1.93a86.19,86.19,0,0,1-1.61-9,59.44,59.44,0,0,1,1.2-23,28.56,28.56,0,0,1,7.93-13.3,42.25,42.25,0,0,1,7.47-5.49A35,35,0,0,0,36.22,106.23Z"/><path class="cls-6" d="M22,152.35s3.18-4.07-.21-5c-2.57-.68-8.27-.43-10.84-.27A3.14,3.14,0,0,0,8.18,149a5,5,0,0,0,.74,3.52c-1.33,1.76-3.87,4.08-4.43,8.66a22,22,0,0,0,1.2,10.35,8.11,8.11,0,0,0,3.09,4.14,5.44,5.44,0,0,0,2.86.94,3.22,3.22,0,0,0,1.46-.36l1-.59s4.32,3.1,6.47-1.74c0,0,7.11,4.32,5.63-6.56-.09-.66,2.83-1.22,4.16-3.73a8.09,8.09,0,0,0,.7-5.73C30.1,154.6,26.39,152.22,22,152.35Z"/><line class="cls-7" x1="20.54" y1="173.8" x2="19.62" y2="169.68"/><line class="cls-7" x1="14.13" y1="175.64" x2="13.07" y2="171.22"/><line class="cls-7" x1="26.23" y1="167.34" x2="25.19" y2="161.33"/><line class="cls-7" x1="21.96" y1="152.35" x2="17.67" y2="152.35"/><line class="cls-7" x1="12.05" y1="152.57" x2="8.92" y2="152.5"/><path class="cls-3" d="M96.52,204.81s-21.08,2.05-18.38-20.7C78.14,184.11,100.23,184.65,96.52,204.81Z"/><path class="cls-7" d="M85.47,191.47a24.72,24.72,0,0,1,6.61,5.85c3.17,3.89,5.22,10.37,6.1,16.72"/><path class="cls-3" d="M100.7,204.7s21.1,1.79,18.13-20.92C118.83,183.78,96.75,184.58,100.7,204.7Z"/><path class="cls-7" d="M111.58,191.23a24.81,24.81,0,0,0-6.54,5.93c-3.12,3.92-5.38,10.6-6.19,17"/><path class="cls-3" d="M126,207.28s14.66,1.24,12.6-14.55C138.58,192.73,123.23,193.29,126,207.28Z"/><path class="cls-7" d="M133.54,197.91A17.23,17.23,0,0,0,129,202c-2.17,2.73-3.72,7.66-4.28,12.08"/><path class="cls-3" d="M72.09,208.43s-14.6,1.87-13.21-14C58.88,194.43,74.24,194.34,72.09,208.43Z"/><path class="cls-7" d="M64.13,199.39a17.28,17.28,0,0,1,4.72,3.93A21.77,21.77,0,0,1,73.5,214"/></g></svg>