<svg width="24" height="27" viewBox="0 0 24 27" fill="none" xmlns="http://www.w3.org/2000/svg">
<path d="M24 1.8V4.4C24 9.4258 20.0413 13.5 15.1579 13.5H13.8947V14.8H20.2105V23.9C20.2105 25.3365 19.08 26.5 17.6842 26.5H7.57895C6.18316 26.5 5.05263 25.3365 5.05263 23.9V14.8H11.3684V10.9C11.3684 5.8742 15.3272 1.8 20.2105 1.8H24ZM4.42105 0.5C7.61558 0.5 10.44 2.1263 12.1566 4.6197C10.8682 6.363 10.1053 8.5405 10.1053 10.9V12.2H9.47368C4.24168 12.2 0 7.8346 0 2.45V0.5H4.42105Z" fill="black"/>
</svg>
