<svg width="26" height="18" viewBox="0 0 26 18" fill="none" xmlns="http://www.w3.org/2000/svg">
<path d="M25.9764 1.022C25.9118 0.689822 25.719 0.4028 25.4386 0.212963C25.2228 0.0682874 24.9781 0 24.7357 0C24.3283 0 23.9267 0.199075 23.6809 0.562489L21.5388 3.76841C21.4592 3.88647 21.4292 4.0323 21.4592 4.1712C21.4857 4.31356 21.5688 4.43509 21.6865 4.51496L22.2925 4.92121L22.8395 5.28812L22.8984 5.32978C23.143 5.49529 23.4777 5.427 23.6428 5.18164L25.7848 1.97571C25.9741 1.69446 26.0422 1.35652 25.9764 1.022Z" fill="white"/>
<path d="M12.3381 4.67245C12.4501 4.56829 12.6244 4.57523 12.7282 4.6875C12.8321 4.79977 12.8252 4.97454 12.7132 5.0787L10.562 7.07292L10.113 7.48726C10.4119 7.64467 10.8551 7.71874 11.2302 7.73032H11.3629C11.7969 7.73032 12.5124 7.65972 13.1795 7.27663C13.8708 6.87965 14.3405 6.23381 14.5356 5.40973C14.7664 4.43752 14.6302 3.19909 14.1305 1.73269C14.0947 1.62621 14.0001 1.55213 13.8881 1.54634C13.7785 1.53709 13.6723 1.59727 13.6227 1.69797C13.6227 1.69797 13.4634 1.99773 13.0825 2.34727C12.7282 2.66671 12.105 3.0996 11.1321 3.33106C10.1014 3.57643 9.68133 4.25814 9.51283 4.78594C9.37433 5.21533 9.34433 5.72807 9.43319 6.22922C9.49206 6.5614 9.59593 6.86001 9.72519 7.09151L10.1476 6.70031L12.3335 4.6702L12.3381 4.67245Z" fill="white"/>
<path d="M19.9843 14.9134C19.4349 14.3173 18.7194 13.9029 17.9669 13.7455C17.3252 13.6124 16.7908 13.5858 16.2738 13.5615C15.4936 13.5233 14.755 13.484 13.9102 13.0604C12.6695 12.4377 11.6827 12.3289 10.0693 12.3289C8.64507 12.3289 8.36463 12.4654 7.0178 13.1228C6.94394 13.1587 6.87007 13.1969 6.79044 13.2351C5.87175 13.683 5.31893 13.683 4.62186 13.6888C4.06673 13.6888 3.3754 13.6946 2.24667 13.9226C1.49648 14.0742 0.917127 14.5777 0.521277 15.4214C0.17849 16.1529 0.0480768 16.9805 0.000774478 17.5464C-0.00499605 17.6298 0.0215488 17.7096 0.0781009 17.7687C0.134654 17.8312 0.210825 17.8636 0.293922 17.8636H20.8221C20.9052 17.8636 20.9848 17.8277 21.0402 17.7664C21.0968 17.7039 21.1233 17.6217 21.1141 17.5383C21.0079 16.5106 20.6178 15.6032 19.9888 14.9156L19.9843 14.9134Z" fill="white"/>
<path d="M20.1965 8.05314C20.2819 8.10985 20.3823 8.13068 20.4827 8.10985C20.5831 8.08902 20.6686 8.0323 20.7274 7.94666L21.4626 6.84713L22.3016 5.59365L21.9854 5.38069L21.885 5.3124L21.6669 5.16772L20.8278 6.42121L20.0927 7.52073C19.9749 7.6955 20.0223 7.93507 20.1965 8.0543L20.1965 8.05314Z" fill="white"/>
<path d="M21.7475 7.41671L21.1866 8.25467C21.0481 8.46184 20.8346 8.60421 20.5899 8.65165C20.5276 8.66322 20.4688 8.66901 20.4064 8.66901C20.2229 8.66901 20.0463 8.61576 19.8894 8.5116C19.4635 8.22109 19.3493 7.64007 19.6355 7.21068L20.1964 6.37272C19.3216 5.9607 18.5033 5.86579 17.7589 6.09147C16.8956 6.35189 16.1662 7.03708 15.5868 8.12389C14.9313 9.35654 14.6208 10.9213 14.6624 12.7731C15.2094 12.9536 15.7265 12.9803 16.3047 13.0069C16.816 13.0335 17.3976 13.0601 18.0809 13.2025C18.7191 13.3333 19.3331 13.6261 19.8628 14.0439C20.6903 13.5462 21.3701 12.9803 21.8837 12.3552C22.6661 11.4073 23.0216 10.4675 22.9351 9.57053C22.8612 8.79391 22.4619 8.07169 21.7498 7.41661L21.7475 7.41671Z" fill="white"/>
<path d="M7.43652 7.09938L8.67143 8.31117V11.8726C8.84225 11.8402 9.02344 11.8159 9.22426 11.802V8.31701L10.1164 7.49061C10.0217 7.43968 9.94211 7.38066 9.88556 7.31584C9.83247 7.25334 9.77938 7.17695 9.73206 7.09362L8.95534 7.81353L7.80354 6.68506C7.69967 6.83899 7.57618 6.97788 7.43768 7.1029L7.43652 7.09938Z" fill="white"/>
<path d="M4.7498 7.55889C5.03602 7.65033 5.33495 7.69547 5.64538 7.69547C5.93506 7.69547 6.23283 7.65727 6.54096 7.57741C6.88026 7.48829 7.18496 7.32278 7.43654 7.10055L7.04069 6.71282L5.12024 4.82509C5.0106 4.7186 5.00829 4.54384 5.11678 4.43389C5.22296 4.32393 5.39723 4.32162 5.50686 4.43041L7.3973 6.28804L7.8024 6.68502C7.97667 6.4246 8.09439 6.12484 8.14519 5.80191C8.23982 5.17921 8.17173 4.62597 7.9386 4.15723C7.74009 3.75675 7.42155 3.41649 6.98992 3.1468C6.24207 2.67575 5.32108 2.50327 4.7117 2.39101C4.63438 2.37596 4.56051 2.36439 4.49588 2.34934C3.44678 2.14216 2.82009 1.3424 2.81433 1.33313C2.75201 1.2498 2.64929 1.2116 2.54888 1.22896C2.44848 1.24633 2.36307 1.31808 2.33306 1.41531C2.32383 1.43846 2.13802 2.02873 2.11147 2.88174C2.07915 4.01368 2.35037 5.08891 2.89744 5.98692C3.39141 6.79596 4.01116 7.32603 4.74403 7.55984L4.7498 7.55889Z" fill="white"/>
</svg>
