<svg width="26" height="18" viewBox="0 0 26 18" fill="none" xmlns="http://www.w3.org/2000/svg">
<path d="M25.9764 1.168C25.9118 0.835818 25.719 0.548796 25.4386 0.358959C25.2228 0.214283 24.9781 0.145996 24.7357 0.145996C24.3283 0.145996 23.9267 0.345071 23.6809 0.708485L21.5388 3.91441C21.4592 4.03247 21.4292 4.1783 21.4592 4.3172C21.4857 4.45956 21.5688 4.58108 21.6865 4.66096L22.2925 5.06721L22.8395 5.43411L22.8984 5.47578C23.143 5.64129 23.4777 5.573 23.6428 5.32763L25.7848 2.12171C25.9741 1.84045 26.0422 1.50251 25.9764 1.168Z" fill="#C599FF"/>
<path d="M12.3381 4.81845C12.4501 4.71428 12.6244 4.72123 12.7282 4.8335C12.8321 4.94577 12.8252 5.12053 12.7132 5.2247L10.562 7.21892L10.113 7.63326C10.4119 7.79067 10.8551 7.86474 11.2302 7.87631H11.3629C11.7969 7.87631 12.5124 7.80571 13.1795 7.42263C13.8708 7.02565 14.3405 6.37981 14.5356 5.55572C14.7664 4.58351 14.6302 3.34508 14.1305 1.87868C14.0947 1.7722 14.0001 1.69813 13.8881 1.69234C13.7785 1.68308 13.6723 1.74327 13.6227 1.84396C13.6227 1.84396 13.4634 2.14372 13.0825 2.49327C12.7282 2.8127 12.105 3.24559 11.1321 3.47706C10.1014 3.72243 9.68133 4.40414 9.51283 4.93193C9.37433 5.36132 9.34433 5.87407 9.43319 6.37522C9.49206 6.7074 9.59593 7.00601 9.72519 7.2375L10.1476 6.8463L12.3335 4.8162L12.3381 4.81845Z" fill="#C599FF"/>
<path d="M19.9843 15.0594C19.4349 14.4633 18.7194 14.0489 17.9669 13.8915C17.3252 13.7584 16.7908 13.7318 16.2738 13.7075C15.4936 13.6693 14.755 13.63 13.9102 13.2063C12.6695 12.5837 11.6827 12.4749 10.0693 12.4749C8.64507 12.4749 8.36463 12.6114 7.0178 13.2688C6.94394 13.3047 6.87007 13.3429 6.79044 13.3811C5.87175 13.829 5.31893 13.829 4.62186 13.8348C4.06673 13.8348 3.3754 13.8406 2.24667 14.0686C1.49648 14.2202 0.917127 14.7237 0.521277 15.5674C0.17849 16.2989 0.0480768 17.1265 0.000774478 17.6924C-0.00499605 17.7758 0.0215488 17.8556 0.0781009 17.9147C0.134654 17.9772 0.210825 18.0096 0.293922 18.0096H20.8221C20.9052 18.0096 20.9848 17.9737 21.0402 17.9124C21.0968 17.8498 21.1233 17.7677 21.1141 17.6843C21.0079 16.6565 20.6178 15.7492 19.9888 15.0616L19.9843 15.0594Z" fill="#C599FF"/>
<path d="M20.1965 8.19913C20.2819 8.25585 20.3823 8.27668 20.4827 8.25585C20.5831 8.23501 20.6686 8.1783 20.7274 8.09265L21.4626 6.99313L22.3016 5.73965L21.9854 5.52668L21.885 5.4584L21.6669 5.31372L20.8278 6.5672L20.0927 7.66673C19.9749 7.8415 20.0223 8.08107 20.1965 8.2003L20.1965 8.19913Z" fill="#C599FF"/>
<path d="M21.7475 7.56271L21.1866 8.40066C21.0481 8.60784 20.8346 8.7502 20.5899 8.79764C20.5276 8.80922 20.4688 8.815 20.4064 8.815C20.2229 8.815 20.0463 8.76176 19.8894 8.6576C19.4635 8.36709 19.3493 7.78607 19.6355 7.35668L20.1964 6.51872C19.3216 6.10669 18.5033 6.01179 17.7589 6.23747C16.8956 6.49789 16.1662 7.18307 15.5868 8.26989C14.9313 9.50254 14.6208 11.0673 14.6624 12.9191C15.2094 13.0996 15.7265 13.1262 16.3047 13.1529C16.816 13.1795 17.3976 13.2061 18.0809 13.3485C18.7191 13.4793 19.3331 13.7721 19.8628 14.1899C20.6903 13.6922 21.3701 13.1262 21.8837 12.5012C22.6661 11.5533 23.0216 10.6135 22.9351 9.71653C22.8612 8.93991 22.4619 8.21768 21.7498 7.5626L21.7475 7.56271Z" fill="#C599FF"/>
<path d="M7.43652 7.24537L8.67143 8.45716V12.0186C8.84225 11.9862 9.02344 11.9619 9.22426 11.948V8.46301L10.1164 7.63661C10.0217 7.58568 9.94211 7.52665 9.88556 7.46184C9.83247 7.39934 9.77938 7.32295 9.73206 7.23962L8.95534 7.95953L7.80354 6.83105C7.69967 6.98499 7.57618 7.12388 7.43768 7.24889L7.43652 7.24537Z" fill="#C599FF"/>
<path d="M4.7498 7.70489C5.03602 7.79632 5.33495 7.84146 5.64538 7.84146C5.93506 7.84146 6.23283 7.80327 6.54096 7.72341C6.88026 7.63429 7.18496 7.46878 7.43654 7.24655L7.04069 6.85881L5.12024 4.97108C5.0106 4.8646 5.00829 4.68983 5.11678 4.57988C5.22296 4.46993 5.39723 4.46761 5.50686 4.57641L7.3973 6.43404L7.8024 6.83102C7.97667 6.5706 8.09439 6.27084 8.14519 5.94791C8.23982 5.32521 8.17173 4.77196 7.9386 4.30322C7.74009 3.90275 7.42155 3.56248 6.98992 3.29279C6.24207 2.82174 5.32108 2.64927 4.7117 2.537C4.63438 2.52196 4.56051 2.51038 4.49588 2.49533C3.44678 2.28816 2.82009 1.4884 2.81433 1.47913C2.75201 1.39579 2.64929 1.3576 2.54888 1.37496C2.44848 1.39232 2.36307 1.46408 2.33306 1.5613C2.32383 1.58445 2.13802 2.17473 2.11147 3.02773C2.07915 4.15967 2.35037 5.2349 2.89744 6.13292C3.39141 6.94196 4.01116 7.47203 4.74403 7.70584L4.7498 7.70489Z" fill="#C599FF"/>
</svg>
