<svg width="26" height="26" viewBox="0 0 26 26" fill="none" xmlns="http://www.w3.org/2000/svg">
<g clip-path="url(#clip0_2460_1206)">
<path d="M7.66853 25.5134C7.15592 25.1724 6.7016 24.751 6.32303 24.2654C5.90661 23.7642 5.52079 23.2384 5.16766 22.6908C4.33897 21.4767 3.6891 20.1499 3.23797 18.751C2.69603 17.126 2.43359 15.5684 2.43359 14.045C2.43359 12.3436 2.80166 10.8583 3.52153 9.61033C4.05516 8.63488 4.83974 7.81972 5.79409 7.24921C6.71897 6.67474 7.78166 6.36037 8.87022 6.33921C9.25128 6.33921 9.66159 6.39446 10.0971 6.50008C10.4099 6.58864 10.791 6.72839 11.2565 6.90227C11.8488 7.13058 12.1747 7.27033 12.2852 7.30446C12.6321 7.43121 12.9238 7.48645 13.1529 7.48645C13.3268 7.48645 13.5722 7.43121 13.8508 7.34671C14.0077 7.29146 14.3034 7.19395 14.7267 7.01277C15.146 6.86002 15.4758 6.72921 15.7383 6.63171C16.1405 6.51308 16.5297 6.40339 16.8766 6.34814C17.2879 6.2833 17.7053 6.26612 18.1205 6.29696C18.8401 6.34399 19.5488 6.49647 20.2241 6.74952C21.3283 7.19396 22.2212 7.88783 22.8858 8.87421C22.6049 9.04735 22.3413 9.24705 22.0985 9.47058C21.5701 9.93905 21.12 10.489 20.7652 11.0996C20.3015 11.9341 20.0611 12.8742 20.0673 13.8288C20.0843 15.0013 20.385 16.034 20.9773 16.9269C21.4127 17.5887 21.9787 18.1546 22.6405 18.5901C22.9793 18.8184 23.271 18.9752 23.5505 19.0808C23.4197 19.4871 23.2799 19.8803 23.115 20.2703C22.7409 21.1449 22.2875 21.9834 21.7605 22.7753C21.2909 23.457 20.9228 23.9648 20.6433 24.3028C20.2078 24.8187 19.7886 25.2128 19.3653 25.4874C18.8997 25.7961 18.3497 25.9611 17.7907 25.9611C17.4121 25.9756 17.0336 25.9298 16.6694 25.8254C16.3566 25.7198 16.047 25.6052 15.7423 25.4744C15.4256 25.3289 15.099 25.2059 14.7649 25.1063C13.9392 24.8942 13.0734 24.8928 12.247 25.1023C11.9082 25.1998 11.5823 25.3135 11.2606 25.4533C10.808 25.6434 10.5074 25.771 10.3335 25.8254C9.98659 25.927 9.62666 25.9903 9.26266 26.0115C8.69959 26.0115 8.17472 25.8506 7.65472 25.5248L7.66853 25.5134ZM15.0948 5.5137C14.3587 5.88177 13.6558 6.03858 12.9579 5.98739C12.8482 5.28458 12.9579 4.56552 13.2496 3.77821C13.4979 3.1112 13.8648 2.4946 14.3327 1.95821C14.8267 1.39354 15.4261 0.930698 16.0974 0.595643C16.8124 0.22758 17.4941 0.0285176 18.1457 -0.000732422C18.2302 0.735393 18.1457 1.45933 17.8752 2.24177C17.6248 2.93344 17.2585 3.57746 16.7921 4.14627C16.316 4.71171 15.7318 5.17634 15.0737 5.51289L15.0948 5.5137Z" fill="black"/>
</g>
<defs>
<clipPath id="clip0_2460_1206">
<rect width="26" height="26" fill="white"/>
</clipPath>
</defs>
</svg>
