<svg width="17" height="22" viewBox="0 0 17 22" fill="none" xmlns="http://www.w3.org/2000/svg">
<path d="M15.1897 6.62407C14.0535 7.16752 13.6444 8.12285 13.1854 9.19462C13.0508 9.50947 12.911 9.8351 12.7461 10.1629C12.3976 10.853 11.9385 11.1452 11.4252 11.1797C11.013 11.2077 10.5591 11.0783 10.0948 10.8605C9.44166 12.0606 9.06185 13.4117 8.99612 14.7454H13.3762V16.0728C13.3762 16.2399 13.3094 16.393 13.203 16.503C13.0955 16.614 12.9484 16.682 12.7867 16.682H4.74319C4.58146 16.682 4.43328 16.613 4.32687 16.503C4.2194 16.3919 4.15366 16.2399 4.15366 16.0728V14.7454H8.53907C8.46916 12.9911 7.97251 11.2163 7.11588 9.63661C6.44707 9.9644 5.78867 10.1617 5.19291 10.1207C4.47922 10.0711 3.84066 9.66896 3.35965 8.71469C3.13741 8.27367 2.94959 7.83483 2.76806 7.41214C2.14307 5.95326 1.58797 4.65828 0 3.94987C0.92655 3.2199 2.20157 2.96219 3.49433 3.08942C5.01039 3.23821 6.54419 3.91644 7.57203 4.98714C8.43909 5.88963 8.59874 6.76733 8.461 7.5275C8.34935 8.14534 8.04364 8.69741 7.75567 9.12763C7.62315 8.84837 7.48231 8.57772 7.33414 8.31894C6.26362 6.44711 4.80076 5.11862 3.35367 4.73493C3.23576 4.70366 3.11577 4.77806 3.08552 4.8999C3.05526 5.02175 3.12725 5.14574 3.24516 5.17701C4.49724 5.51018 5.77645 6.6348 6.76673 8.23822C6.84603 8.35035 6.92324 8.46357 6.99941 8.58003C7.89046 9.94617 8.5019 11.4988 8.79196 13.0871C9.0309 12.0541 9.44096 11.0492 10.0054 10.1468C10.8516 8.79252 11.9681 7.81561 12.9917 7.53419C12.9969 7.53312 13.0032 7.53419 13.0084 7.53312C13.0543 7.47813 13.0773 7.40481 13.0585 7.32933C13.0282 7.20748 12.9083 7.13308 12.7904 7.16435C11.6969 7.45441 10.5929 8.45503 9.7875 9.86428C9.69151 10.0314 9.60074 10.2039 9.51414 10.3818C9.31903 10.0788 9.12497 9.70471 9.05087 9.29281C8.95175 8.74182 9.06756 8.10565 9.69778 7.45007C10.4553 6.66079 11.5863 6.16155 12.7049 6.05158C13.62 5.96209 14.5225 6.13353 15.1944 6.62305L15.1897 6.62407ZM5.54653 20.14C5.69782 21.16 5.82197 22 7.10223 22H10.4235C11.7298 22 11.8415 21.1751 11.9771 20.1648L11.9938 20.0419L12.3903 17.1391H5.09899L5.54557 20.1399L5.54653 20.14ZM13.6309 0.00591052C12.6845 0.0458055 11.7361 0.322906 10.9045 0.772536C10.0781 1.22001 9.36964 1.83678 8.90012 2.55703C8.36173 3.3819 8.14051 4.34479 8.42434 5.3411C8.9377 6.139 9.02013 6.91319 8.89387 7.60976C8.87717 7.69925 8.85735 7.78875 8.83544 7.87501C8.95647 7.64103 9.12341 7.40274 9.34671 7.16444C9.35715 7.15366 9.36758 7.14288 9.37802 7.13102C9.3968 7.10837 9.35297 7.15582 9.3415 7.16229C9.33941 7.16337 9.33837 7.16337 9.33941 7.16121C9.46566 6.56277 10.2566 2.82667 12.4528 1.94143C12.5666 1.89507 12.6949 1.95329 12.7398 2.07082C12.7846 2.18835 12.7283 2.32098 12.6146 2.36734C11.014 3.0132 10.22 5.45449 9.91328 6.65661C10.6948 6.06466 11.6839 5.69157 12.6616 5.59559C12.865 5.57511 13.0674 5.56756 13.2678 5.57187C13.946 5.05539 14.3185 4.26933 14.6743 3.51888C15.196 2.4169 15.6864 1.38393 17 1.17906C16.0568 0.298129 14.8485 -0.0458355 13.6339 0.00484412L13.6309 0.00591052Z" fill="white"/>
</svg>
