<svg xmlns="http://www.w3.org/2000/svg" viewBox="0 0 234.43 222.56"><defs><style>.cls-1{fill:#9b9b9b;}.cls-1,.cls-2,.cls-3,.cls-4,.cls-5,.cls-6,.cls-8,.cls-9{stroke:#000;stroke-miterlimit:10;stroke-width:0.5px;}.cls-3{fill:#fff;}.cls-4{fill:none;}.cls-5{fill:#585858;}.cls-6{fill:#cbcbcb;}.cls-7{fill:#858585;}.cls-8{fill:#7d7d7d;}.cls-9{fill:#dadada;}</style></defs><g id="_02" data-name="02"><path class="cls-1" d="M22.1,164.26s7.52-10.78-11.92-22.44C10.18,141.82,7.72,163.13,22.1,164.26Z"/><path class="cls-1" d="M22.17,164.16a64.86,64.86,0,0,0-7.36-14.52l-.23-.33"/><path class="cls-1" d="M207.29,156.46s-7.8-10.58,11.32-22.75C218.61,133.71,221.64,154.94,207.29,156.46Z"/><path class="cls-1" d="M207.22,156.36a65.12,65.12,0,0,1,7-14.71l.23-.34"/><path class="cls-2" d="M30.3,102.28c.74,3.23,1.51,6.85,2.41,10.59,3.51,14.41,9.57,30.43,24.5,31.38-.19-2.55-.39-5.15-.49-7.59-10.67-1.86-15.13-15.47-17.53-26.91h0c-.69-3.22-1.25-6.25-1.84-8.77C36.31,96.49,29.26,97.77,30.3,102.28Z"/><path class="cls-3" d="M39.09,104.81l-.7.3c6.75-3,3.23-15-.09-17-4.5-2.25-4,6.12-4,6.12a32,32,0,0,0-9.12-8.37c-7.12-4.38-5.5,1.44-5.5,1.44s-2.82-2.42-5.58-.71c-2.07,1.7.66,3.93.66,3.93-1.37-.5-4.23-1.25-4.63.77s1.52,3.43,2.63,4.46c1.55,1.45,3.18,2.79,4.85,4.09.48.38,1.44.9,1.67,1.52,3.3,9,10.25,8.19,10.25,8.19-.15.94,0,2.46.46,2.89a2.64,2.64,0,0,0,2.75.39c2-.84,6.39-2.78,8.09-4.25C43,106.7,39.09,104.81,39.09,104.81Z"/><line class="cls-4" x1="19.64" y1="87.35" x2="27.66" y2="93.93"/><line class="cls-4" x1="14.72" y1="90.57" x2="23.18" y2="97.46"/><line class="cls-4" x1="21.42" y1="98.85" x2="28.44" y2="93.36"/><path class="cls-4" d="M34.26,94.28l.33,1.48s-6.15-.07-5.21,5.38"/><line class="cls-4" x1="31.6" y1="108.4" x2="29.33" y2="109.68"/><path class="cls-2" d="M199,102.18c-.63,3.25-1.27,6.9-2,10.67-3,14.52-8.49,30.74-23.39,32.22.11-2.56.22-5.17.23-7.61,10.6-2.23,14.59-16,16.59-27.51h0c.57-3.25,1-6.3,1.52-8.83C192.77,96.6,199.86,97.64,199,102.18Z"/><path class="cls-3" d="M190.28,105l.71.28c-6.85-2.79-3.75-14.89-.5-17,4.42-2.39,4.25,6,4.25,6a32,32,0,0,1,8.82-8.68c7-4.63,5.55,1.25,5.55,1.25s2.74-2.52,5.55-.91c2.13,1.63-.53,4-.53,4,1.36-.55,4.2-1.39,4.67.61s-1.4,3.48-2.48,4.55c-1.5,1.5-3.08,2.9-4.71,4.26-.46.39-1.4,1-1.61,1.57-3,9.14-10,8.55-10,8.55.18.93.11,2.45-.36,2.9a2.63,2.63,0,0,1-2.74.48c-2-.77-6.48-2.55-8.22-4C186.43,107,190.28,105,190.28,105Z"/><line class="cls-4" x1="209.11" y1="86.89" x2="201.33" y2="93.75"/><line class="cls-4" x1="214.13" y1="89.93" x2="205.92" y2="97.11"/><line class="cls-4" x1="207.73" y1="98.44" x2="200.52" y2="93.2"/><path class="cls-4" d="M194.74,94.32l-.28,1.49s6.14-.28,5.4,5.2"/><line class="cls-4" x1="197.89" y1="108.34" x2="200.2" y2="109.54"/><path class="cls-5" d="M167.24,85.07c-2-4.51-6.83-9.18-11-11.28-7-3.48-13.25,1.63-20.29-1.21-4.24-1.71-7.65-4.38-12.41-4.62-6-.3-9.34,5.55-15.7,5.07-4-.31-7.34-2.51-11.21-3.12-4.72-.73-8.07,3-12.77,2.67-3.92-.29-8.8-2.69-11.69,1-2.38,3-3.24,7.48-4.61,11Z"/><path class="cls-1" d="M185.24,57.44s14.59,0,14.95,25.47C200.19,82.91,178.29,71.45,185.24,57.44Z"/><path class="cls-1" d="M160.9,35.56s11.25,8.81-2,26.51C158.87,62.07,148.08,41,160.9,35.56Z"/><path class="cls-1" d="M161,35.65a70.73,70.73,0,0,1-1,17.05c0,.13,0,.27-.08.4"/><path class="cls-1" d="M172.54,41.19s3.06-13.33,25.1-6.08C197.64,35.11,183.18,51.72,172.54,41.19Z"/><path class="cls-1" d="M172.57,41.07a64.28,64.28,0,0,1,16-4.21l.41,0"/><path class="cls-4" d="M191.16,67.54c-5.47-9.85-11.35-20.46-20.12-27.77-9.58-8-19.6-4.73-24.6,6.38-4.54,10.09-4,22.05-1.79,32.63"/><path class="cls-1" d="M87.52,20.87S85,36,59.27,29.84C59.27,29.84,74.61,10.08,87.52,20.87Z"/><path class="cls-1" d="M122.06,43.67S106.88,54,90.85,26.69C90.85,26.69,120.67,23.54,122.06,43.67Z"/><path class="cls-1" d="M121.92,43.76a90.92,90.92,0,0,1-20.21-10.49l-.46-.33"/><path class="cls-1" d="M122.35,60.77s-3.19-14.21,21.62-18C144,42.77,137.56,65.64,122.35,60.77Z"/><path class="cls-1" d="M122.32,60.64A72.08,72.08,0,0,1,136,48.84l.38-.24"/><path class="cls-1" d="M120.26,29.09s-6-13.21,14-21.83C134.3,7.26,134.22,30.82,120.26,29.09Z"/><path class="cls-1" d="M120.21,29A65.72,65.72,0,0,1,129,14.77a3.88,3.88,0,0,1,.26-.31"/><path class="cls-4" d="M68.27,28.12c8.89-1.13,17.57-5.57,24.54-11,4.07-3.19,7.9-8,13.64-6.84,3.17.65,5.71,3,7.6,5.49,6.79,9,8,22,8.33,32.9A160.26,160.26,0,0,1,120.15,78"/><path class="cls-1" d="M46.21,63.8s9.9,8-5,24.06C41.19,87.86,33.15,68.73,46.21,63.8Z"/><path class="cls-1" d="M61.69,45.89s-12,6.35-22.94-14.17C38.75,31.72,61.57,31.48,61.69,45.89Z"/><path class="cls-1" d="M61.58,45.94A73.37,73.37,0,0,1,46.7,37.13l-.33-.27"/><path class="cls-1" d="M81.13,52.91S79.84,66.45,56.7,64.31C56.7,64.31,69,45.1,81.13,52.91Z"/><path class="cls-1" d="M81.12,53a72.84,72.84,0,0,1-15.54,7.59l-.4.14"/><path class="cls-1" d="M90.32,66.66s-8-9.58,6.68-26.06C97,40.6,102.36,62.28,90.32,66.66Z"/><path class="cls-1" d="M90.25,66.57a84,84,0,0,1,4-16.79c0-.13.1-.26.14-.39"/><path class="cls-4" d="M42.56,77.7S48.7,39.62,69.91,46.27,92.14,77.45,92.14,77.45"/><path class="cls-6" d="M62.92,96.72,60.65,78.5,170.05,80l-4.2,17.83S180.2,113.53,180,132.21c-.32,30.52-28.56,48.28-65,48.28s-66.89-17.75-67-48.28C48,110.54,62.92,96.72,62.92,96.72Z"/><polygon class="cls-4" points="169.88 80.09 60.65 78.5 62.92 96.72 165.85 97.85 169.88 80.09"/><circle class="cls-7" cx="145.5" cy="135.85" r="16.68" transform="translate(-53.51 140.2) rotate(-44.29)"/><circle class="cls-7" cx="82.87" cy="134.83" r="16.68" transform="translate(-38.86 33.69) rotate(-18.7)"/><path class="cls-3" d="M104.93,122.14s-2.07,30.73,8.92,30.71c12.52,0,9.61-30.74,9.61-30.74a20.16,20.16,0,0,1-18.53,0Z"/><polyline class="cls-4" points="110.6 124.05 110.59 137.84 110.58 151.74 110.58 151.75"/><polyline class="cls-4" points="117.46 124.11 117.35 137.82 117.23 151.94"/><polyline class="cls-4" points="105.3 137.84 110.59 137.84 117.35 137.82 123.31 137.81"/><path class="cls-3" d="M123.2,104.42c0,13.29,8.69,24.07,19.4,24.07,9.31,0,17.08-8.13,19-19a29.67,29.67,0,0,0-.31-11.72l-25.82-.29-11.38-.12A29.3,29.3,0,0,0,123.2,104.42Z"/><path class="cls-3" d="M66.79,104.42c0,13.29,8.69,24.07,19.41,24.07,8,0,14.83-6,17.81-14.52a29.65,29.65,0,0,0,.68-16.8l-23.84-.26-13-.14A29,29,0,0,0,66.79,104.42Z"/><path class="cls-2" d="M144.53,109.58l-6.09,2.86a19.49,19.49,0,0,1-3.36-11.13,20.5,20.5,0,0,1,.35-3.8l25.82.29a29.67,29.67,0,0,1,.31,11.72c-2.39,5.33-7,9-12.39,9a12.32,12.32,0,0,1-7.91-3Z"/><path class="cls-2" d="M90.7,110.27l-6.34,3a19.22,19.22,0,0,1-4-11.94,20.39,20.39,0,0,1,.47-4.4l23.84.26A29.65,29.65,0,0,1,104,114a12.76,12.76,0,0,1-9.53,4.51,12.13,12.13,0,0,1-7-2.3Z"/><path class="cls-4" d="M171.23,110a18.45,18.45,0,0,1-5.14-.36,18.15,18.15,0,0,1-4.2-1.45"/><path class="cls-4" d="M168.81,118.57a18.49,18.49,0,0,1-8.7-3.84"/><path class="cls-4" d="M165.21,125.73a18.38,18.38,0,0,1-7.77-5.5"/><path class="cls-4" d="M57.58,109.84A18.29,18.29,0,0,0,67,108.52"/><path class="cls-4" d="M59.78,118.18a18.93,18.93,0,0,0,5-1.24,18.43,18.43,0,0,0,3.89-2.15"/><path class="cls-4" d="M63.12,124.93a18.42,18.42,0,0,0,8-5.08"/><path class="cls-8" d="M110,116.69a3.81,3.81,0,1,0,3.81-3.8A3.81,3.81,0,0,0,110,116.69Z"/><path class="cls-9" d="M36.59,174.08l7.63,6.17a5.81,5.81,0,0,1-1.37,3.19,5.64,5.64,0,0,1-2.64,2l-.52-.42-3.13,3.86a12.74,12.74,0,0,1-8.47-3.22,13.77,13.77,0,0,1-3.77-4.55,9.63,9.63,0,0,1-1.05-5.51,11.62,11.62,0,0,1,2.74-6q3.4-4.22,7.79-4.47c2.79-.18,5.54.84,8.27,3a15.4,15.4,0,0,1,3.32,3.69,10.87,10.87,0,0,1,1.62,3.8,14.56,14.56,0,0,1-1.72,1.74,8.58,8.58,0,0,1-1.85,1.33l-6.78-5.49a5.69,5.69,0,0,0-1.8.64A6,6,0,0,0,33,175.4a4.34,4.34,0,0,0-1.13,2.9,2.65,2.65,0,0,0,1,2.09c.28.22.49.24.64.05l.24-.3L33.6,180a2.25,2.25,0,0,1-.87-1.81,3.67,3.67,0,0,1,1-2.35A4.57,4.57,0,0,1,36.59,174.08Z"/><path class="cls-9" d="M58.37,194.9l1.08,3.95a6.65,6.65,0,0,1-3.35,2.68,4.87,4.87,0,0,1-3.9-.57,5.57,5.57,0,0,1-2.28-2.23,6.35,6.35,0,0,1-.54-4.17l.27-1.71a12.74,12.74,0,0,1-1.45-1,.49.49,0,0,0-.29.26c-.15.26.16.63.91,1.11l-.33,2.54L47.81,197a8.19,8.19,0,0,1-4.92-1.2,5.92,5.92,0,0,1-2.56-2.42,2.91,2.91,0,0,1,.13-2.85l7.63-13.74c.24-.43.86-.62,1.86-.59a13.61,13.61,0,0,1,3.61.74,22.17,22.17,0,0,1,4,1.73q4.35,2.41,5.8,5.55a7,7,0,0,1-.34,6.69,6,6,0,0,1-2.94,2.71,6.5,6.5,0,0,1-3.82.39c-.17.3-.07.56.3.77A3.18,3.18,0,0,0,58.37,194.9Zm-5.63-7.45c0,.05.12.13.31.23a.55.55,0,0,0,.54,0,1.61,1.61,0,0,0,.54-.63l.29-.52a1.93,1.93,0,0,0,.29-.81.49.49,0,0,0-.28-.45,1,1,0,0,0-.42-.16,2.45,2.45,0,0,1-.12.25Z"/><path class="cls-9" d="M74,186.74l9,3.2a6.46,6.46,0,0,1,.09,1.87,7.24,7.24,0,0,1-.34,1.66,4.12,4.12,0,0,1-1.46,2.15,2.21,2.21,0,0,1-2,.18L73,193.57c-.39-.14-.63-.06-.74.24l0,.13a.17.17,0,0,0,0,.13l7.46,2.65a5.6,5.6,0,0,1,0,1.39,6.91,6.91,0,0,1-.32,1.49,5.48,5.48,0,0,1-1.72,2.65l-3.38-1.2a19.59,19.59,0,0,0-3.28-1,4.9,4.9,0,0,0-1.15-.07.45.45,0,0,0-.33.29.41.41,0,0,0,.1.42,9,9,0,0,1,1.83.23c.8.2,1.66.47,2.58.79l4.38,1.56a5.74,5.74,0,0,1-.2,3.57,8.34,8.34,0,0,1-1,1.93,4.16,4.16,0,0,1-1.35,1.28l-11.68-4.16a5,5,0,0,1-2.77-2,3.67,3.67,0,0,1-.24-3.38l5.27-14.83c.18-.5.88-.66,2.11-.48A30.76,30.76,0,0,1,74,186.74Z"/><path class="cls-9" d="M91.12,191.55l9.4,1.73a6.55,6.55,0,0,1,.38,1.83,7,7,0,0,1-.08,1.69,4,4,0,0,1-1.1,2.36,2.2,2.2,0,0,1-2,.5l-6.56-1.21q-.6-.12-.69.36l0,.13c0,.06,0,.11,0,.13l7.78,1.44a5.83,5.83,0,0,1,.27,1.36,6.58,6.58,0,0,1-.08,1.52,5.55,5.55,0,0,1-1.27,2.89l-3.54-.65a19.67,19.67,0,0,0-3.38-.43,4.67,4.67,0,0,0-1.15.12.44.44,0,0,0-.28.33.39.39,0,0,0,.16.4,9.44,9.44,0,0,1,1.85-.06c.82.07,1.71.2,2.67.37l4.57.85a5.7,5.7,0,0,1,.37,3.55,8.21,8.21,0,0,1-.66,2.07,4.13,4.13,0,0,1-1.13,1.47L84.5,212.05a5.11,5.11,0,0,1-3.06-1.57,3.72,3.72,0,0,1-.77-3.31l2.85-15.48c.1-.52.77-.79,2-.81A30.5,30.5,0,0,1,91.12,191.55Z"/><path class="cls-9" d="M101,211.67l.41-16.58c0-.57.49-1,1.42-1.4a8.64,8.64,0,0,1,3.26-.49,7.47,7.47,0,0,1,2,.31,4.17,4.17,0,0,1,1.42.69c.43.58.83,1.18,1.19,1.78s1.17,2,2.43,4.24a.57.57,0,0,0,.33-.11.39.39,0,0,0,.16-.35,2.31,2.31,0,0,0-.39-.95l-1.71-3.12,0-.91a6.23,6.23,0,0,1,2.08-1,8.43,8.43,0,0,1,2.51-.31,6.54,6.54,0,0,1,3.37.84,3.09,3.09,0,0,1,1.44,2.89l-.39,15.66a2.17,2.17,0,0,1-1.41,2,7,7,0,0,1-3.11.5,9.65,9.65,0,0,1-2.09-.28,5.27,5.27,0,0,1-1.58-.64,37.79,37.79,0,0,1-2.25-3.43l-1.61-2.86a.49.49,0,0,0-.5.5,2.91,2.91,0,0,0,.46,1.09l2,3.4,0,.87a7.76,7.76,0,0,1-4.36,1.14,6.94,6.94,0,0,1-3.75-1A2.77,2.77,0,0,1,101,211.67Z"/><path class="cls-9" d="M150.94,210a7.13,7.13,0,0,1-3.64.12,2.69,2.69,0,0,1-2-1.79l-.51-1.47a4.34,4.34,0,0,0,2.05-2.44,1.47,1.47,0,0,0,.1-.79.38.38,0,0,0-.52-.32h-.05a.06.06,0,0,1-.06,0,3.9,3.9,0,0,1-3.08,3.25,4.17,4.17,0,0,1-2.33,0,5.24,5.24,0,0,1-2.14-1.54l-.09,0c-.29.07-.41.23-.35.48a1.15,1.15,0,0,0,.33.53,5.22,5.22,0,0,0,2,1.3,3.65,3.65,0,0,0,1.74.22l.61,3.08a7.2,7.2,0,0,1-1.82,1.4,12.57,12.57,0,0,1-3,1,7.89,7.89,0,0,1-3.7.08,3,3,0,0,1-2.54-2.18q-.51-2.1-1.68-10.61c-.4-2.95-.64-5-.74-6.22a7.37,7.37,0,0,1,4.53-2.66,8.11,8.11,0,0,1,4.11-.08l1.6,2.75v2.5a1.87,1.87,0,0,0,0,.48c.1.38.36.52.79.43v-6.73a7.35,7.35,0,0,1,1.57-1,9.8,9.8,0,0,1,2.25-.83,6.37,6.37,0,0,1,3.68-.05,3.68,3.68,0,0,1,2,2.36c.09.22.23.6.43,1.14q4.5,12.23,5,14.46A7,7,0,0,1,150.94,210Z"/><path class="cls-9" d="M160.7,186.4l6.41,15.85a6.14,6.14,0,0,1-1.47,1.79,9.52,9.52,0,0,1-2.7,1.58,5.65,5.65,0,0,1-3.18.4,2.74,2.74,0,0,1-2.26-1.76l-6.41-15.85a6.27,6.27,0,0,1,1.47-1.79,9.45,9.45,0,0,1,2.69-1.57,6,6,0,0,1,3.2-.43A2.82,2.82,0,0,1,160.7,186.4Z"/><path class="cls-9" d="M169,199.7l-8.16-14.44c-.28-.5-.11-1.14.5-1.93a8.62,8.62,0,0,1,2.55-2.09,7.58,7.58,0,0,1,1.87-.76,3.89,3.89,0,0,1,1.57-.13,20.27,20.27,0,0,1,1.94.91c.62.34,2,1.13,4.25,2.39a.55.55,0,0,0,.24-.26.46.46,0,0,0-.05-.39,2.52,2.52,0,0,0-.82-.61l-3.07-1.8-.45-.79a6.18,6.18,0,0,1,1.26-2,8.42,8.42,0,0,1,2-1.56,6.6,6.6,0,0,1,3.33-1,3.07,3.07,0,0,1,2.71,1.74l7.71,13.64a2.16,2.16,0,0,1-.17,2.47,6.91,6.91,0,0,1-2.41,2,9.45,9.45,0,0,1-1.94.83,5.14,5.14,0,0,1-1.68.26,36.32,36.32,0,0,1-3.69-1.79l-2.86-1.62a.48.48,0,0,0-.16.68,2.67,2.67,0,0,0,1,.7l3.44,1.9.43.76a7.81,7.81,0,0,1-3.16,3.21,6.91,6.91,0,0,1-3.71,1.09A2.78,2.78,0,0,1,169,199.7Z"/><path class="cls-9" d="M193.53,188.3a3.47,3.47,0,0,1-5.45-.63L178.7,176.1c-.53-.65-.32-1.73.62-3.24a17.3,17.3,0,0,1,3.83-4.23q4.26-3.45,8.32-3.33,4.36.13,7.92,4.51a9.94,9.94,0,0,1,2.47,8.14q-.74,4.19-5.08,7.71Zm-2.4-12.77a11.65,11.65,0,0,0-1.55-1.68c-.34-.26-.61-.3-.82-.13a.64.64,0,0,0-.24.41l.58.55c.24.23.7.76,1.38,1.6l.68.84c.47.58.8,1,1,1.3l.49.74.23.33a.67.67,0,0,0,.45-.16c.2-.16.21-.44,0-.82a10.48,10.48,0,0,0-1.32-1.86Z"/><path class="cls-9" d="M205.51,164.53a3.71,3.71,0,0,0-1.34.83.56.56,0,0,0,0,.9l0,0a4.69,4.69,0,0,1,3.31-1.23,4.63,4.63,0,0,1,3.28,1.37,4.49,4.49,0,0,1,1.41,3.33,4.66,4.66,0,0,1-1.36,3.4,4.78,4.78,0,0,1-6.73.11,4.62,4.62,0,0,1-1.28-2.18,4.86,4.86,0,0,1,0-2.51,16.13,16.13,0,0,1-3.94-1.61,18,18,0,0,1-3.74-2.81l-3.87-3.76a5.77,5.77,0,0,1,.68-1.85,8.11,8.11,0,0,1,1.34-1.84,4.55,4.55,0,0,1,3.39-1.7,6.4,6.4,0,0,1,3.79,2.15l.76.74A18.48,18.48,0,0,1,205.51,164.53Z"/></g></svg>