<svg width="62" height="61" viewBox="0 0 62 61" fill="none" xmlns="http://www.w3.org/2000/svg">
<path d="M27.1219 3.34734C28.1394 -0.679384 33.8606 -0.679398 34.8781 3.34733L37.1199 12.219C37.7306 14.6359 40.3793 15.9115 42.6498 14.882L50.9836 11.1033C54.7662 9.38822 58.3333 13.8612 55.8195 17.1674L50.2811 24.4514C48.7723 26.4358 49.4265 29.302 51.6469 30.4353L59.7972 34.5949C63.4966 36.483 62.2235 42.0607 58.0713 42.1567L48.9233 42.3681C46.4311 42.4257 44.5981 44.7242 45.0965 47.1668L46.926 56.1325C47.7564 60.2019 42.6018 62.6843 39.9379 59.4978L34.0689 52.4774C32.4699 50.5648 29.5301 50.5648 27.9311 52.4774L22.0621 59.4978C19.3982 62.6843 14.2436 60.202 15.074 56.1325L16.9035 47.1668C17.4019 44.7242 15.5689 42.4257 13.0767 42.3681L3.92868 42.1567C-0.223503 42.0607 -1.4966 36.483 2.20275 34.5949L10.3531 30.4353C12.5735 29.302 13.2277 26.4358 11.7189 24.4514L6.18049 17.1674C3.66667 13.8612 7.23377 9.38823 11.0164 11.1033L19.3502 14.882C21.6206 15.9115 24.2694 14.6359 24.8801 12.219L27.1219 3.34734Z" fill="black"/>
</svg>
