<svg xmlns="http://www.w3.org/2000/svg" viewBox="0 0 237.97 225.92"><defs><style>.cls-1,.cls-7{fill:#fff;}.cls-1,.cls-10,.cls-2,.cls-3,.cls-4,.cls-5,.cls-6,.cls-8{stroke:#000;}.cls-1,.cls-10,.cls-2,.cls-3,.cls-4,.cls-5,.cls-6,.cls-8,.cls-9{stroke-miterlimit:10;stroke-width:0.5px;}.cls-2{fill:#71513c;}.cls-3,.cls-9{fill:none;}.cls-5{fill:#f3b5d3;}.cls-6{fill:#f8f300;}.cls-8{fill:#4db16d;}.cls-9{stroke:#9a8375;}.cls-10{fill:#ea5f3d;}</style></defs><g id="_02" data-name="02"><path class="cls-1" d="M17.65,47.36l73.05.17s4.44-29.47-18.44-21.77c0,0-2.11-12.8-14.48-14.55a16.59,16.59,0,0,0-15,5.39,16.42,16.42,0,0,0-4.28,10.5S16.69,16.32,17.65,47.36Z"/><path class="cls-1" d="M163.85,61l62.2.15s3.78-25.1-15.7-18.55c0,0-1.8-10.89-12.33-12.38a14.3,14.3,0,0,0-16.45,13.53S163,34.6,163.85,61Z"/><path class="cls-1" d="M187.7,115.53l37.79.08s2.29-15.24-9.54-11.26c0,0-1.09-6.62-7.49-7.52a8.67,8.67,0,0,0-10,8.22S187.2,99.47,187.7,115.53Z"/><path class="cls-1" d="M17.63,96.21l37.79.09S57.72,81.05,45.88,85c0,0-1.09-6.61-7.49-7.52a8.69,8.69,0,0,0-10,8.22S17.14,80.15,17.63,96.21Z"/><path class="cls-2" d="M103.23,161.49s-41.58-59.55-47.51,27.24H64S72.13,140.46,95.87,169Z"/><path class="cls-3" d="M40.17,213.67a5.46,5.46,0,1,1-5.48-5.43A5.45,5.45,0,0,1,40.17,213.67Z"/><path class="cls-3" d="M37.31,213.51a2.63,2.63,0,1,1-2.64-2.61A2.61,2.61,0,0,1,37.31,213.51Z"/><path class="cls-4" d="M55.08,213.58a5.46,5.46,0,1,1-5.48-5.43A5.45,5.45,0,0,1,55.08,213.58Z"/><path class="cls-3" d="M52.22,213.42a2.63,2.63,0,1,1-2.64-2.62A2.62,2.62,0,0,1,52.22,213.42Z"/><path class="cls-4" d="M40.17,213.67a5.46,5.46,0,1,1-5.48-5.43A5.45,5.45,0,0,1,40.17,213.67Z"/><path class="cls-1" d="M37.31,213.51a2.63,2.63,0,1,1-2.64-2.61A2.61,2.61,0,0,1,37.31,213.51Z"/><path class="cls-4" d="M55.08,213.58a5.46,5.46,0,1,1-5.48-5.43A5.45,5.45,0,0,1,55.08,213.58Z"/><path class="cls-1" d="M52.22,213.42a2.63,2.63,0,1,1-2.64-2.62A2.62,2.62,0,0,1,52.22,213.42Z"/><path class="cls-4" d="M70.83,213.58a5.46,5.46,0,1,1-5.49-5.43A5.46,5.46,0,0,1,70.83,213.58Z"/><path class="cls-3" d="M68,213.42a2.63,2.63,0,1,1-2.64-2.62A2.63,2.63,0,0,1,68,213.42Z"/><path class="cls-4" d="M70.83,213.58a5.46,5.46,0,1,1-5.49-5.43A5.46,5.46,0,0,1,70.83,213.58Z"/><path class="cls-1" d="M68,213.42a2.63,2.63,0,1,1-2.64-2.62A2.63,2.63,0,0,1,68,213.42Z"/><path class="cls-5" d="M71.54,207.67l-43.06.54s-2-15.16,17.07-13.73a42.14,42.14,0,0,1,4.66.61l-2.76-9.78,21.17-.83Z"/><path class="cls-6" d="M60,192.85c0,.75-3.35,1.37-7.5,1.39-.73,0-1.43,0-2.1,0l-.48-1.33-.45-1.31c.71-.05,2.24,0,3,0C56.6,191.5,60,192.1,60,192.85Z"/><path class="cls-6" d="M59.36,187.88c0,.75-3.51,1.67-7.66,1.69-.84,0-2,.07-2.69,0l-.91-2.7c.78-.06,2.7-.05,3.59-.05C55.83,186.83,59.36,187.12,59.36,187.88Z"/><path class="cls-7" d="M37.4,197.24a1,1,0,0,0-1.36-.35,9.45,9.45,0,0,0-5.84,7.36,1,1,0,0,0,1,1,1,1,0,0,0,1-1c0,.2,0-.11,0-.12a2.74,2.74,0,0,1,.05-.28,3.45,3.45,0,0,1,.12-.46q.07-.27.18-.54l0,0v0l.09-.22a8,8,0,0,1,.51-.9l.16-.23a.85.85,0,0,0,.1-.13c.1-.13.2-.25.31-.37a8.61,8.61,0,0,1,.74-.74l.36-.32a1.7,1.7,0,0,0,.14-.1l.19-.14a10.15,10.15,0,0,1,1.85-1A1,1,0,0,0,37.4,197.24Z"/><path class="cls-7" d="M64.83,187.1l1.89,16.74a1,1,0,0,0,2-.22l-1.88-16.74A1,1,0,0,0,64.83,187.1Z"/><path class="cls-2" d="M117.05,166.75s24.44,88.95,55.8,5.93l-5.28-6.15s-25.21,47.32-39.27-2.18Z"/><path class="cls-3" d="M187.75,161.78a5.46,5.46,0,1,1-.5,7.7A5.44,5.44,0,0,1,187.75,161.78Z"/><path class="cls-3" d="M189.5,164a2.63,2.63,0,1,1-.23,3.71A2.64,2.64,0,0,1,189.5,164Z"/><path class="cls-4" d="M178.43,151.54a5.46,5.46,0,1,1-.5,7.71A5.46,5.46,0,0,1,178.43,151.54Z"/><path class="cls-3" d="M180.18,153.8a2.63,2.63,0,1,1-.23,3.71A2.64,2.64,0,0,1,180.18,153.8Z"/><path class="cls-4" d="M187.75,161.78a5.46,5.46,0,1,1-.5,7.7A5.44,5.44,0,0,1,187.75,161.78Z"/><path class="cls-1" d="M189.5,164a2.63,2.63,0,1,1-.23,3.71A2.64,2.64,0,0,1,189.5,164Z"/><path class="cls-3" d="M197.33,172.74a5.46,5.46,0,1,1-.49,7.7A5.44,5.44,0,0,1,197.33,172.74Z"/><path class="cls-3" d="M199.09,175a2.63,2.63,0,1,1-.24,3.71A2.63,2.63,0,0,1,199.09,175Z"/><path class="cls-4" d="M197.33,172.74a5.46,5.46,0,1,1-.49,7.7A5.44,5.44,0,0,1,197.33,172.74Z"/><path class="cls-1" d="M199.09,175a2.63,2.63,0,1,1-.24,3.71A2.63,2.63,0,0,1,199.09,175Z"/><path class="cls-4" d="M178.43,151.54a5.46,5.46,0,1,1-.5,7.71A5.46,5.46,0,0,1,178.43,151.54Z"/><path class="cls-1" d="M180.18,153.8a2.63,2.63,0,1,1-.23,3.71A2.64,2.64,0,0,1,180.18,153.8Z"/><path class="cls-5" d="M173.53,154.43l28.69,32.1s-10.09,11.49-21.56-3.84a42.09,42.09,0,0,1-2.6-3.91l-5.57,8.5L158,171.87Z"/><path class="cls-6" d="M170,172.9c.56-.5,3.24,1.63,6,4.74.48.55.93,1.09,1.35,1.61l-.69,1.23-.69,1.21c-.5-.51-1.5-1.67-2-2.25C171.15,176.32,169.4,173.39,170,172.9Z"/><path class="cls-6" d="M166.61,176.62c.56-.5,3.57,1.55,6.31,4.66.55.63,1.33,1.42,1.79,2l-1.44,2.46c-.56-.55-1.81-2-2.39-2.67C168.14,180,166,177.12,166.61,176.62Z"/><path class="cls-7" d="M188.09,187a1,1,0,0,0,.63,1.26,9.43,9.43,0,0,0,9.39-.44,1,1,0,0,0,.09-1.4,1,1,0,0,0-1.41-.09c.17-.12-.09.05-.1.06l-.25.14-.42.22-.53.21,0,0h0l-.23.07a8.62,8.62,0,0,1-1,.21l-.28,0h-.17a3.85,3.85,0,0,1-.48,0,8.94,8.94,0,0,1-1-.06l-.48-.08-.16,0-.23,0a10.16,10.16,0,0,1-2-.72A1,1,0,0,0,188.09,187Z"/><path class="cls-7" d="M162.43,173l11.38-12.42a1,1,0,0,0-1.47-1.34L161,171.66A1,1,0,0,0,162.43,173Z"/><path class="cls-2" d="M49.53,106.83s18.16,36.38,54.2,37.51l2.54-10.11A87.37,87.37,0,0,1,83.16,128c-15-6.64-26.13-15.14-31.63-22.39C51.48,105.55,49.61,106.83,49.53,106.83Z"/><path class="cls-8" d="M64.5,99.65a10.44,10.44,0,0,0-4.56-12.36c-4-2.29-9.69-1.35-13.71,2.58-3.07-2.22-6.92-1.65-8.57.56s-.45,5.3-.38,5.48a5,5,0,0,0-1.83.32c-3.7,1.44-6.33,8.1-3.77,13,1.93,3.71,6.48,5.8,11.2,5a6,6,0,0,0,5.32,5.45,5.3,5.3,0,0,0,6-3.9A9.82,9.82,0,0,0,66.35,101.7,8.13,8.13,0,0,0,64.5,99.65Z"/><path class="cls-2" d="M188.84,127.83s-25.53,31.64-61,25l-.31-10.42a86.92,86.92,0,0,0,23.91-1.15c16.1-3.26,28.76-9.19,35.69-15.09C187.2,126.16,188.76,127.81,188.84,127.83Z"/><path class="cls-8" d="M175.75,117.61a10.45,10.45,0,0,1,7.1-11.11c4.41-1.38,9.75.76,12.84,5.46,3.48-1.51,7.11-.13,8.25,2.38s-.69,5.28-.8,5.44a4.73,4.73,0,0,1,1.72.7c3.3,2.2,4.44,9.27.9,13.52-2.68,3.21-7.58,4.28-12,2.48a6,6,0,0,1-6.36,4.19,5.29,5.29,0,0,1-5-5.09,9.81,9.81,0,0,1-8.89-16.36A7.94,7.94,0,0,1,175.75,117.61Z"/><path class="cls-2" d="M91.63,164.39c8.88-13.13,16.72-59.86,16.72-59.86l29,3.09c-6.3,27.92-6.83,63.9-6.83,63.9-2.66,1.57-10.11,5.11-18.14,4.89C99.71,176.06,93.28,166.15,91.63,164.39Z"/><path class="cls-9" d="M112.25,110.43c-1,4.3-1.12,8.67-1.94,13-.88,4.6-2.59,9-3.59,13.54-2.59,11.82-5.06,27-10,31.18"/><path class="cls-9" d="M115.3,111c.58,6.19-1.47,12.84-4.14,18.29-2.2,4.51-2.72,9.44-3.57,14.32-.46,2.68-.73,5.72,1.33,7.81a6.15,6.15,0,0,0,7.76,1,11.37,11.37,0,0,0,4.37-5.27c1.11-2.55.8-4.91,1-7.62.16-2.93.9-11.82-4.82-9.35-2.46,1.06-3.71,5-4.41,7.28s-2.46,6.74-.87,9,4.23,1.05,5.51-.62c1.73-2.25,1.44-4.89.56-7.38"/><path class="cls-9" d="M116.49,126.46c3.77-2.29,8.53-1.2,9.36,3.62.43,2.45-.29,4.83-.57,7.25-.37,3.1,1,5.85.9,8.91-.24,6.11-4.26,11.24-10.76,11.36a11.59,11.59,0,0,1-5.58-1.68c-1.09-.72-2.13-2.83-3.61-2.61-2,.31-1.08,3.3-1,4.62.24,2.72-3.35,11.35-4.39,13.83"/><path class="cls-9" d="M112.07,159.88c-.65,3.42-1.34,12.53-4.18,15.26"/><path class="cls-9" d="M120.38,123.28c1.85-1.61,1.16-4.32,1.35-6.42.16-1.78.28-4.5,1.21-6"/><path class="cls-9" d="M130.88,110c-3.11,3.26-4.88,7.87-3.3,12.26.58,1.61,1.6,3.11,1.87,4.82s-.7,3.07-.61,4.77a13.77,13.77,0,0,1-.87,6.69c-1.14,2.93.74,6.66,1.18,9.61a10.54,10.54,0,0,1-8.54,11.51c-.53,0-2-.29-2.53,0-1.69,1-.18,5-.13,6.38.17,5.52-1.59,8.92-2.13,8.9"/><path class="cls-9" d="M126.66,159.62c-.82,2.49-3.15,3-4.36,5.16s.24,5.67,0,8"/><path class="cls-9" d="M105,128.12c-6.24,31.3-8.19,28.19-10.66,37.54"/><path class="cls-9" d="M131.76,132.71c-.9,3.22-1.78,6.64-.95,10"/><path class="cls-9" d="M127.52,171.54a7.92,7.92,0,0,1-1-3.59c0-1.61,1.09-2.51,1.69-3.9a19.55,19.55,0,0,0,1.29-7.89"/><path class="cls-8" d="M177.77,67c6.34-14.74,3.74-31.51-6.47-42.31-12.68-13.41-35.09-15.48-51.87-3.44C106.64,1.2,74.54,14.44,84.33,39.6c-27.43-7.12-37.45,29-10.93,37.28A11.41,11.41,0,0,0,69.77,81c-6.85,14.88,1.12,30.45,12.62,39.91,12.57,10.35,32.2,11,49.35,1.74,6.62,12.08,21.68,14.85,30.54,8.32,6.65-4.9,9.75-14.78,4.56-26.65C195.52,109.85,205.07,77.32,177.77,67Z"/><path class="cls-3" d="M81.16,41.73s1.52,8,11.41,8.08"/><path class="cls-3" d="M83.1,35.86s1.51,8,11.4,8.08"/><path class="cls-3" d="M87.59,31.23s1.51,8,11.4,8.08"/><path class="cls-4" d="M106,31.47c4.54,1.48,5.54,5.28,5,9-.46,3.28-2.78,5.24-4,8.17s1.54,6,1.44,9c-.11,3.47-2,6-4,8.89S103.43,72,102,75c-2,4.14-9.06,7.4-12.69,3.49-4.11-4.43-.26-8.64.51-13.38s-2.8-8.25.55-12.92c1.32-1.82,2.82-3.25,3.78-5.32,1.47-3.21.39-6.57,1.5-9.91C96.85,33.42,100.06,29.54,106,31.47Z"/><path class="cls-1" d="M89.83,65.11c-.77,4.74-4.63,9-.51,13.38a5.57,5.57,0,0,0,4.31,1.77A5.24,5.24,0,0,1,92,79.05c-4.11-4.42-.25-8.64.51-13.38s-2.8-8.24.56-12.91c1.32-1.82,2.82-3.25,3.77-5.32,1.48-3.21.39-6.57,1.51-9.91,1-3,3.48-6.27,7.87-6l-.17-.07c-6-1.93-9.18,2-10.37,5.5-1.12,3.34,0,6.7-1.51,9.91-.94,2.07-2.45,3.5-3.76,5.32C87,56.87,90.57,60.52,89.83,65.11Z"/><path class="cls-3" d="M162.16,62.64S157,69,148.28,64.27"/><path class="cls-3" d="M163.28,56.56s-5.17,6.31-13.88,1.63"/><path class="cls-3" d="M161.55,50.35s-5.16,6.31-13.88,1.63"/><path class="cls-4" d="M145.24,41.73c-4.69-.88-7.39,2-8.71,5.48-1.17,3.1-.07,5.93-.42,9.07s-4.22,4.5-5.58,7.21c-1.57,3.1-1.1,6.17-.7,9.74s-1.72,5.35-1.9,8.65c-.25,4.58,4.41,10.83,9.47,9.13,5.73-1.91,4.36-7.46,6-12s6.41-5.9,5.69-11.6c-.27-2.23-.91-4.21-.76-6.48.24-3.53,2.8-5.95,3.42-9.42C152.36,47.84,151.4,42.89,145.24,41.73Z"/><path class="cls-1" d="M143.37,79c-1.6,4.53-.23,10.08-6,12a5.61,5.61,0,0,1-4.64-.51,5.16,5.16,0,0,0,2-.27c5.73-1.92,4.36-7.47,6-12s6.4-5.9,5.69-11.61c-.29-2.23-.92-4.2-.77-6.47.24-3.53,2.81-6,3.42-9.43.55-3.13-.06-7.17-4-9a.55.55,0,0,1,.18,0c6.16,1.16,7.12,6.11,6.47,9.79-.62,3.47-3.18,5.9-3.42,9.42-.16,2.27.48,4.25.76,6.48C149.77,73.12,144.91,74.63,143.37,79Z"/><path class="cls-8" d="M109.32,106c-5-2.81-6.88-3.49-11.11-3.34-2.49.09-4.78,1-7.31.59a9.48,9.48,0,0,1-5.66-2.72,4.15,4.15,0,0,1-.27-.32c-3.14-4.09-2.08-11.3-.14-15.63,1.27-2.84,3.51-5.7,6.56-6.36,1.51-.33,3.28.31,4.74.82A30.68,30.68,0,0,1,99,80.42c4.61,2.17,8.62,4.31,13.3,2.89l1.06-5.93"/><path class="cls-4" d="M93.13,90.11c-1,5.07-3.34,8.85-5.2,8.45s-2.55-4.84-1.53-9.91,3.35-8.85,5.21-8.45S94.15,85,93.13,90.11Z"/><path class="cls-7" d="M95.55,80.07a.53.53,0,0,0-.72-.16.52.52,0,0,0-.15.73c1.82,2.18,1.6,5,1.07,7.62a.52.52,0,0,0,1,.22C97.35,85.63,97.54,82.44,95.55,80.07Z"/><path class="cls-7" d="M96.59,90.22a.42.42,0,0,0-.06-.19.5.5,0,0,0-.14-.15.4.4,0,0,0-.18-.1h-.14a.46.46,0,0,0-.26.07l-.1.08a.56.56,0,0,0-.14.25l0,.15a.5.5,0,0,0,0,.21.4.4,0,0,0,.07.19.32.32,0,0,0,.13.15.5.5,0,0,0,.19.1l.14,0a.57.57,0,0,0,.25-.08l.11-.08a.7.7,0,0,0,.13-.24l0-.16A.37.37,0,0,0,96.59,90.22Z"/><path class="cls-10" d="M107.45,72.62A5.22,5.22,0,0,0,110,79.7a5.61,5.61,0,0,0,7.44-2.24,5.23,5.23,0,0,0-2.58-7.09A5.6,5.6,0,0,0,107.45,72.62Z"/><line class="cls-3" x1="89.4" y1="205.73" x2="108.12" y2="205.73"/><line class="cls-3" x1="82.06" y1="210.46" x2="105.55" y2="210.46"/></g></svg>