<svg xmlns="http://www.w3.org/2000/svg" viewBox="0 0 234.2 225.92"><defs><style>.cls-1,.cls-7{fill:#fff;}.cls-1,.cls-10,.cls-2,.cls-3,.cls-4,.cls-5,.cls-6,.cls-8{stroke:#000;}.cls-1,.cls-10,.cls-2,.cls-3,.cls-4,.cls-5,.cls-6,.cls-8,.cls-9{stroke-miterlimit:10;stroke-width:0.5px;}.cls-2{fill:#71513c;}.cls-3,.cls-9{fill:none;}.cls-5{fill:#f3b5d3;}.cls-6{fill:#f8f300;}.cls-8{fill:#4db16d;}.cls-9{stroke:#9a8375;}.cls-10{fill:#ea5f3d;}</style></defs><g id="_02" data-name="02"><path class="cls-1" d="M5.57,42.44,83,42.62s4.7-31.24-19.55-23.08c0,0-2.24-13.56-15.35-15.42A17.81,17.81,0,0,0,27.64,21S4.56,9.54,5.57,42.44Z"/><path class="cls-1" d="M160.54,56.93l65.94.16s4-26.6-16.65-19.66c0,0-1.9-11.55-13.06-13.13a15.17,15.17,0,0,0-17.44,14.35S159.68,28.91,160.54,56.93Z"/><path class="cls-1" d="M185.82,114.7l40.06.09s2.44-16.16-10.11-11.94c0,0-1.16-7-7.94-8a9.22,9.22,0,0,0-10.59,8.72S185.3,97.68,185.82,114.7Z"/><path class="cls-1" d="M5.55,94.22l40.06.1S48,78.15,35.5,82.37c0,0-1.16-7-7.94-8A9.21,9.21,0,0,0,17,83.11S5,77.2,5.55,94.22Z"/><path class="cls-2" d="M96.29,163.42S52.21,100.3,45.92,192.29h8.8s8.6-51.16,33.76-20.93Z"/><path class="cls-3" d="M29.45,218.74A5.79,5.79,0,1,1,23.63,213,5.79,5.79,0,0,1,29.45,218.74Z"/><path class="cls-3" d="M26.41,218.57a2.79,2.79,0,1,1-2.8-2.78A2.78,2.78,0,0,1,26.41,218.57Z"/><path class="cls-4" d="M45.25,218.64a5.79,5.79,0,1,1-5.81-5.76A5.79,5.79,0,0,1,45.25,218.64Z"/><path class="cls-3" d="M42.22,218.47a2.79,2.79,0,1,1-2.8-2.78A2.79,2.79,0,0,1,42.22,218.47Z"/><path class="cls-4" d="M29.45,218.74A5.79,5.79,0,1,1,23.63,213,5.79,5.79,0,0,1,29.45,218.74Z"/><path class="cls-1" d="M26.41,218.57a2.79,2.79,0,1,1-2.8-2.78A2.78,2.78,0,0,1,26.41,218.57Z"/><path class="cls-4" d="M45.25,218.64a5.79,5.79,0,1,1-5.81-5.76A5.79,5.79,0,0,1,45.25,218.64Z"/><path class="cls-1" d="M42.22,218.47a2.79,2.79,0,1,1-2.8-2.78A2.79,2.79,0,0,1,42.22,218.47Z"/><path class="cls-4" d="M62,218.64a5.79,5.79,0,1,1-5.82-5.76A5.8,5.8,0,0,1,62,218.64Z"/><path class="cls-3" d="M58.91,218.47a2.79,2.79,0,1,1-2.8-2.78A2.78,2.78,0,0,1,58.91,218.47Z"/><path class="cls-4" d="M62,218.64a5.79,5.79,0,1,1-5.82-5.76A5.8,5.8,0,0,1,62,218.64Z"/><path class="cls-1" d="M58.91,218.47a2.79,2.79,0,1,1-2.8-2.78A2.78,2.78,0,0,1,58.91,218.47Z"/><path class="cls-5" d="M62.69,212.37,17.05,213s-2.14-16.07,18.09-14.56a47.59,47.59,0,0,1,4.94.64l-2.92-10.36,22.44-.88Z"/><path class="cls-6" d="M50.42,196.66c0,.79-3.55,1.46-8,1.48-.77,0-1.52,0-2.23,0l-.5-1.4-.48-1.4c.75,0,2.37,0,3.2,0C46.85,195.23,50.42,195.87,50.42,196.66Z"/><path class="cls-6" d="M49.79,191.39c0,.8-3.73,1.78-8.13,1.8-.88,0-2.06.07-2.85,0l-1-2.87c.83,0,2.86,0,3.8,0C46.05,190.28,49.78,190.59,49.79,191.39Z"/><path class="cls-7" d="M26.51,201.31a1.09,1.09,0,0,0-1.45-.37,10,10,0,0,0-6.18,7.8,1.05,1.05,0,0,0,1.06,1,1.09,1.09,0,0,0,1-1.06c0,.22,0-.11,0-.12l.06-.3c0-.16.08-.32.12-.48s.13-.39.19-.57l0,0v0l.11-.23a8,8,0,0,1,.54-1,2.2,2.2,0,0,1,.17-.25l.1-.14q.17-.21.33-.39a8.3,8.3,0,0,1,.78-.79l.39-.33L24,204l.2-.15a11.47,11.47,0,0,1,2-1.09A1.07,1.07,0,0,0,26.51,201.31Z"/><path class="cls-7" d="M55.59,190.57l2,17.74a1.06,1.06,0,0,0,2.1-.23l-2-17.75A1.06,1.06,0,0,0,55.59,190.57Z"/><path class="cls-2" d="M110.94,169s25.91,94.29,59.15,6.3l-5.6-6.53s-26.72,50.16-41.62-2.3Z"/><path class="cls-3" d="M185.88,163.72a5.79,5.79,0,1,1-.52,8.17A5.79,5.79,0,0,1,185.88,163.72Z"/><path class="cls-3" d="M187.74,166.12a2.79,2.79,0,1,1-.25,3.94A2.79,2.79,0,0,1,187.74,166.12Z"/><path class="cls-4" d="M176,152.87a5.79,5.79,0,1,1-.52,8.17A5.79,5.79,0,0,1,176,152.87Z"/><path class="cls-3" d="M177.86,155.27a2.78,2.78,0,1,1-.25,3.93A2.8,2.8,0,0,1,177.86,155.27Z"/><path class="cls-4" d="M185.88,163.72a5.79,5.79,0,1,1-.52,8.17A5.79,5.79,0,0,1,185.88,163.72Z"/><path class="cls-1" d="M187.74,166.12a2.79,2.79,0,1,1-.25,3.94A2.79,2.79,0,0,1,187.74,166.12Z"/><path class="cls-3" d="M196,175.34a5.79,5.79,0,1,1-.52,8.17A5.79,5.79,0,0,1,196,175.34Z"/><path class="cls-3" d="M197.9,177.74a2.78,2.78,0,1,1-.25,3.93A2.78,2.78,0,0,1,197.9,177.74Z"/><path class="cls-4" d="M196,175.34a5.79,5.79,0,1,1-.52,8.17A5.79,5.79,0,0,1,196,175.34Z"/><path class="cls-1" d="M197.9,177.74a2.78,2.78,0,1,1-.25,3.93A2.78,2.78,0,0,1,197.9,177.74Z"/><path class="cls-4" d="M176,152.87a5.79,5.79,0,1,1-.52,8.17A5.79,5.79,0,0,1,176,152.87Z"/><path class="cls-1" d="M177.86,155.27a2.78,2.78,0,1,1-.25,3.93A2.8,2.8,0,0,1,177.86,155.27Z"/><path class="cls-5" d="M170.81,155.94l30.41,34s-10.69,12.17-22.85-4.07a46,46,0,0,1-2.76-4.15l-5.9,9L154.3,174.43Z"/><path class="cls-6" d="M167,175.51c.6-.52,3.43,1.73,6.34,5,.51.58,1,1.16,1.43,1.71l-.73,1.3-.73,1.28c-.53-.53-1.59-1.77-2.14-2.38C168.29,179.14,166.43,176,167,175.51Z"/><path class="cls-6" d="M163.47,179.46c.59-.53,3.79,1.64,6.69,4.94.59.67,1.41,1.5,1.9,2.13l-1.53,2.61c-.59-.59-1.91-2.13-2.53-2.83C165.09,183,162.86,180,163.47,179.46Z"/><path class="cls-7" d="M186.24,190.48a1.1,1.1,0,0,0,.67,1.34,10,10,0,0,0,10-.46,1.06,1.06,0,0,0,.09-1.5,1.09,1.09,0,0,0-1.49-.09c.18-.12-.09.06-.1.06l-.27.16-.44.22c-.19.09-.37.16-.56.23l-.05,0h0l-.24.07a9.38,9.38,0,0,1-1.08.22l-.29,0-.18,0h-.51a10,10,0,0,1-1.1-.08l-.51-.07-.17,0-.25,0a10.67,10.67,0,0,1-2.11-.77A1.08,1.08,0,0,0,186.24,190.48Z"/><path class="cls-7" d="M159,175.63l12.06-13.17a1.06,1.06,0,0,0-1.56-1.43L157.48,174.2A1.06,1.06,0,0,0,159,175.63Z"/><path class="cls-2" d="M39.36,105.48S58.62,144,96.82,145.24l2.69-10.71A92.5,92.5,0,0,1,75,127.92c-15.94-7-27.7-16-33.53-23.73C41.43,104.12,39.45,105.48,39.36,105.48Z"/><path class="cls-8" d="M55.23,97.87A11,11,0,0,0,50.4,84.76c-4.25-2.42-10.27-1.43-14.53,2.74-3.26-2.35-7.34-1.75-9.08.59s-.49,5.62-.41,5.82a5.2,5.2,0,0,0-1.94.33c-3.92,1.53-6.71,8.59-4,13.8,2,3.93,6.88,6.15,11.88,5.29A6.36,6.36,0,0,0,38,119.11,5.6,5.6,0,0,0,44.27,115a10.41,10.41,0,0,0,12.92-14.93A8.47,8.47,0,0,0,55.23,97.87Z"/><path class="cls-2" d="M187,127.74S160,161.28,122.4,154.28l-.33-11A92.51,92.51,0,0,0,147.41,142c17.07-3.46,30.49-9.74,37.83-16C185.3,126,187,127.71,187,127.74Z"/><path class="cls-8" d="M173.16,116.9a11.06,11.06,0,0,1,7.53-11.77c4.67-1.46,10.33.81,13.61,5.79,3.68-1.6,7.54-.14,8.74,2.52s-.73,5.59-.84,5.76A5.41,5.41,0,0,1,204,120c3.5,2.33,4.71,9.82.95,14.33-2.84,3.4-8,4.54-12.74,2.63a6.36,6.36,0,0,1-6.74,4.44,5.6,5.6,0,0,1-5.28-5.39,10.4,10.4,0,0,1-9.42-17.35A8.5,8.5,0,0,1,173.16,116.9Z"/><path class="cls-2" d="M84,166.5C93.41,152.58,101.72,103,101.72,103l30.69,3.28c-6.68,29.6-7.24,67.73-7.24,67.73-2.82,1.67-10.72,5.42-19.23,5.19C92.56,178.87,85.75,168.36,84,166.5Z"/><path class="cls-9" d="M105.84,109.3c-1.08,4.55-1.18,9.19-2,13.76-.93,4.87-2.74,9.53-3.8,14.35-2.75,12.53-5.37,28.64-10.6,33"/><path class="cls-9" d="M109.08,109.9c.62,6.56-1.56,13.61-4.38,19.39-2.34,4.78-2.89,10-3.79,15.18-.49,2.84-.77,6.06,1.41,8.28a6.53,6.53,0,0,0,8.23,1,12,12,0,0,0,4.63-5.59c1.17-2.69.85-5.2,1-8.07.17-3.1,1-12.53-5.11-9.91-2.6,1.12-3.92,5.28-4.67,7.71s-2.61,7.15-.92,9.56,4.48,1.11,5.84-.66c1.83-2.38,1.53-5.18.59-7.82"/><path class="cls-9" d="M110.34,126.29c4-2.43,9-1.28,9.93,3.84.45,2.59-.31,5.12-.61,7.68-.39,3.29,1.09,6.2,1,9.45-.26,6.48-4.52,11.91-11.41,12a12.24,12.24,0,0,1-5.91-1.79c-1.16-.75-2.26-3-3.84-2.76-2.16.33-1.14,3.5-1,4.89.25,2.89-3.55,12-4.65,14.67"/><path class="cls-9" d="M105.65,161.71c-.68,3.63-1.42,13.29-4.42,16.18"/><path class="cls-9" d="M114.47,122.92c2-1.71,1.23-4.58,1.43-6.81.17-1.88.3-4.77,1.28-6.42"/><path class="cls-9" d="M125.59,108.79c-3.29,3.46-5.17,8.34-3.49,13,.62,1.71,1.69,3.3,2,5.11s-.75,3.26-.65,5.06a14.69,14.69,0,0,1-.93,7.09c-1.21,3.11.79,7.06,1.25,10.19a10.28,10.28,0,0,1-3.49,9.39,10.1,10.1,0,0,1-5.56,2.8c-.56.05-2.16-.3-2.68,0-1.79,1-.19,5.28-.14,6.77.18,5.85-1.68,9.46-2.26,9.43"/><path class="cls-9" d="M121.12,161.44c-.87,2.64-3.34,3.17-4.62,5.47s.26,6,0,8.5"/><path class="cls-9" d="M98.2,128.05c-6.61,33.18-8.67,29.88-11.29,39.79"/><path class="cls-9" d="M126.53,132.91c-1,3.41-1.89,7.05-1,10.59"/><path class="cls-9" d="M122,174.07a8.39,8.39,0,0,1-1.1-3.8c0-1.71,1.16-2.66,1.79-4.14a20.6,20.6,0,0,0,1.37-8.36"/><path class="cls-8" d="M175.3,63.26c6.72-15.61,4-33.39-6.86-44.84C155,4.21,131.25,2,113.46,14.78,99.91-6.49,65.87,7.54,76.25,34.21,47.17,26.67,36.56,65,64.66,73.73a12.18,12.18,0,0,0-3.84,4.34C53.56,93.84,62,110.34,74.2,120.38c13.32,11,34.13,11.64,52.3,1.84,7,12.8,23,15.73,32.38,8.81,7.05-5.19,10.34-15.66,4.83-28.25C194.12,108.68,204.24,74.2,175.3,63.26Z"/><path class="cls-3" d="M72.9,36.47S74.5,45,85,45"/><path class="cls-3" d="M74.94,30.25S76.55,38.74,87,38.81"/><path class="cls-3" d="M79.7,25.34s1.61,8.5,12.09,8.57"/><path class="cls-4" d="M99.25,25.6c4.82,1.56,5.88,5.6,5.33,9.52-.48,3.48-2.94,5.55-4.2,8.65s1.64,6.33,1.53,9.54c-.12,3.69-2.11,6.31-4.29,9.43s-1.12,5.85-2.63,9c-2.09,4.39-9.6,7.84-13.45,3.7-4.35-4.69-.27-9.16.54-14.19.79-4.87-3-8.74.59-13.68,1.39-1.94,3-3.45,4-5.65,1.56-3.4.41-7,1.6-10.5C89.53,27.67,92.93,23.55,99.25,25.6Z"/><path class="cls-1" d="M82.08,61.26c-.81,5-4.9,9.49-.54,14.18a5.93,5.93,0,0,0,4.57,1.88A5.33,5.33,0,0,1,84.37,76c-4.36-4.68-.27-9.16.53-14.18s-3-8.74.6-13.69c1.39-1.93,3-3.44,4-5.63,1.57-3.41.42-7,1.6-10.51,1.08-3.2,3.7-6.65,8.35-6.35l-.19-.07c-6.32-2.05-9.72,2.07-11,5.83-1.19,3.54,0,7.1-1.6,10.5-1,2.2-2.6,3.71-4,5.64C79.11,52.52,82.86,56.39,82.08,61.26Z"/><path class="cls-3" d="M158.76,58.63s-5.48,6.69-14.71,1.74"/><path class="cls-3" d="M159.94,52.19s-5.47,6.69-14.71,1.73"/><path class="cls-3" d="M158.11,45.61s-5.48,6.68-14.71,1.73"/><path class="cls-4" d="M140.82,36.47c-5-.93-7.84,2.1-9.23,5.81-1.24,3.29-.08,6.28-.45,9.61s-4.47,4.78-5.92,7.64c-1.65,3.3-1.16,6.55-.74,10.33s-1.82,5.67-2,9.17c-.26,4.86,4.68,11.48,10,9.69,6.07-2,4.62-7.92,6.32-12.72s6.79-6.25,6-12.3c-.29-2.36-1-4.45-.81-6.86.26-3.74,3-6.32,3.63-10C148.37,42.94,147.35,37.7,140.82,36.47Z"/><path class="cls-1" d="M138.83,76c-1.69,4.8-.24,10.68-6.31,12.71a6,6,0,0,1-4.92-.54,5.59,5.59,0,0,0,2.15-.29c6.07-2,4.63-7.91,6.32-12.71s6.79-6.26,6-12.3c-.3-2.36-1-4.46-.81-6.86.25-3.74,3-6.32,3.62-10,.59-3.33-.06-7.61-4.29-9.57a1.23,1.23,0,0,1,.2,0c6.53,1.23,7.55,6.47,6.86,10.38-.65,3.68-3.37,6.25-3.62,10-.17,2.41.5,4.5.8,6.86C145.62,69.75,140.47,71.35,138.83,76Z"/><path class="cls-8" d="M102.74,104.55c-5.32-3-7.29-3.7-11.77-3.54-2.64.09-5.08,1-7.75.62a10.1,10.1,0,0,1-6-2.88c-.09-.11-.19-.22-.28-.34-3.32-4.33-2.2-12-.15-16.57,1.35-3,3.72-6,7-6.75,1.59-.34,3.47.34,5,.88a30.93,30.93,0,0,1,3,1.52c4.88,2.29,9.14,4.56,14.09,3.05L107,74.26"/><path class="cls-4" d="M85.59,87.75c-1.08,5.38-3.55,9.39-5.53,9s-2.69-5.13-1.61-10.5,3.55-9.38,5.52-9S86.66,82.38,85.59,87.75Z"/><path class="cls-7" d="M88.14,77.11a.55.55,0,1,0-.92.61c1.94,2.3,1.7,5.31,1.14,8.08a.55.55,0,0,0,1.08.23C90.06,83,90.26,79.63,88.14,77.11Z"/><path class="cls-7" d="M89.25,87.87a.48.48,0,0,0-.07-.2.36.36,0,0,0-.14-.16.47.47,0,0,0-.2-.1l-.15,0a.56.56,0,0,0-.27.08l-.11.09a.6.6,0,0,0-.14.26l0,.16a.41.41,0,0,0,0,.22.4.4,0,0,0,.07.21.43.43,0,0,0,.14.16.47.47,0,0,0,.2.1h.14a.5.5,0,0,0,.27-.07l.11-.09a.55.55,0,0,0,.14-.26l0-.16A.36.36,0,0,0,89.25,87.87Z"/><path class="cls-10" d="M100.76,69.21a5.54,5.54,0,0,0,2.73,7.51,6,6,0,0,0,7.88-2.37,5.55,5.55,0,0,0-2.73-7.52A6,6,0,0,0,100.76,69.21Z"/><line class="cls-3" x1="81.63" y1="210.32" x2="101.47" y2="210.32"/><line class="cls-3" x1="73.85" y1="215.33" x2="98.75" y2="215.33"/></g></svg>