<svg xmlns="http://www.w3.org/2000/svg" viewBox="0 0 263.69 225.92"><defs><style>.cls-1{fill:#6fc463;}.cls-2{fill:#355900;}.cls-3{fill:#bc96f1;}.cls-4{fill:#f3c51e;}.cls-5{fill:#ff744d;}.cls-6{fill:#fff;}.cls-7{fill:#f78992;}.cls-8{fill:#81349b;}</style></defs><g id="PREVIEW"><path class="cls-1" d="M55.06,214.78s-10.12-50-.43-50.34S55.06,214.78,55.06,214.78Z"/><path d="M55.07,215.86l-.21-1c0-.1-2.13-10.56-3.48-21.79-1.83-15.13-1.49-24.41,1-27.57a3,3,0,0,1,2.25-1.23,2.78,2.78,0,0,1,2.26,1.05c2.56,2.95,3.06,12.19,1.49,27.47-1.16,11.34-3.09,22-3.11,22.07Zm-.33-51.22h-.1a2.52,2.52,0,0,0-1.94,1.07c-5.27,6.69,1.08,41.38,2.35,48C56.2,207,62,171.78,56.58,165.55A2.36,2.36,0,0,0,54.74,164.64Z"/><path class="cls-1" d="M54.7,215.32S33.81,174,42.8,168.4,54.7,215.32,54.7,215.32Z"/><path d="M55,216.28l-.44-.87c-.86-1.69-20.87-41.59-11.82-47.18a2.39,2.39,0,0,1,2.51-.16c3,1.59,5.6,10,7.6,25.09,1.48,11.18,2.09,22,2.09,22.15ZM44.11,168.19a2.24,2.24,0,0,0-1.2.39c-8,4.94,8.55,39.67,11.52,45.75-.41-6.53-3-42.56-9.4-45.9A2,2,0,0,0,44.11,168.19Z"/><path class="cls-1" d="M54.69,215.81S24,193,30.45,181.91,54.69,215.81,54.69,215.81Z"/><path d="M55.14,216.4l-.57-.43A135.56,135.56,0,0,1,40,203.17c-9.19-9.47-12.46-16.66-9.74-21.36A3.07,3.07,0,0,1,33.15,180c7.73.57,21.16,34.35,21.73,35.78ZM33,180.35A2.71,2.71,0,0,0,30.63,182c-5.8,10,19.39,30,23.6,33.19-2-4.9-14.22-34.33-21.11-34.85Z"/><path class="cls-1" d="M54.51,215.81S85.19,193,78.75,181.91,54.51,215.81,54.51,215.81Z"/><path d="M54.05,216.4l.27-.67c.56-1.43,14-35.21,21.72-35.78a3,3,0,0,1,2.88,1.86c2.73,4.7-.55,11.89-9.73,21.36A137.77,137.77,0,0,1,54.63,216Zm22.2-36.05h-.18c-6.88.52-19.11,30-21.1,34.85C59.18,212,84.36,192,78.57,182A2.72,2.72,0,0,0,76.25,180.35Z"/><path class="cls-1" d="M54.8,215.59S59.07,163.66,68,169.5,54.8,215.59,54.8,215.59Z"/><path d="M54.52,216.52l.08-1c.14-1.75,3.61-42.9,10.94-46.48a2.44,2.44,0,0,1,2.56.24c9,5.87-12.22,44.71-13.12,46.36Zm12.09-47.28a1.92,1.92,0,0,0-.89.22c-6.52,3.18-10,38.74-10.63,45.16,3.14-5.89,20.73-39.75,12.79-45A2.25,2.25,0,0,0,66.61,169.24Z"/><path class="cls-1" d="M161.74,215.25s-5.57-27.53-.23-27.72S161.74,215.25,161.74,215.25Z"/><path d="M161.75,216.33l-.21-1c-.19-.94-4.63-23.09-1.35-27.26a1.73,1.73,0,0,1,1.31-.71,1.64,1.64,0,0,1,1.32.61c3.36,3.89-.7,26.4-.88,27.36Zm-.19-28.6h-.05a1.3,1.3,0,0,0-1,.56c-2.76,3.5.35,21.23,1.22,25.83.79-4.65,3.61-22.65.78-25.92A1.19,1.19,0,0,0,161.56,187.73Z"/><path class="cls-1" d="M161.54,215.55S150,192.77,155,189.71,161.54,215.55,161.54,215.55Z"/><path d="M161.8,216.51l-.44-.87c-.47-.94-11.53-23-6.47-26.1a1.42,1.42,0,0,1,1.47-.1c4,2.1,5.33,25.12,5.39,26.1Zm-6.09-26.82a1.17,1.17,0,0,0-.61.19c-4.19,2.59,4.11,20.39,6.18,24.66-.31-4.57-1.75-23-5.11-24.73A1,1,0,0,0,155.71,189.69Z"/><path class="cls-1" d="M161.54,215.82s-16.9-12.55-13.35-18.67S161.54,215.82,161.54,215.82Z"/><path d="M162,216.4l-.57-.42a74.55,74.55,0,0,1-8-7.06c-5.09-5.25-6.9-9.25-5.38-11.87a1.76,1.76,0,0,1,1.67-1.07c4.32.32,11.73,19,12,19.76Zm-12.42-20a1.4,1.4,0,0,0-1.2.87c-3.05,5.26,9.75,15.66,12.7,17.95-1.41-3.44-7.8-18.55-11.42-18.82Z"/><path class="cls-1" d="M161.44,215.82s16.9-12.55,13.35-18.67S161.44,215.82,161.44,215.82Z"/><path d="M161,216.4l.26-.66c.31-.79,7.73-19.44,12-19.76a1.76,1.76,0,0,1,1.67,1.07c1.53,2.62-.28,6.62-5.37,11.87a75.64,75.64,0,0,1-8,7.06Zm12.42-20h-.09c-3.61.27-10,15.38-11.41,18.82,2.94-2.29,15.75-12.7,12.7-17.95A1.41,1.41,0,0,0,173.41,196.38Z"/><path class="cls-1" d="M161.6,215.69s2.35-28.59,7.26-25.38S161.6,215.69,161.6,215.69Z"/><path d="M161.32,216.63l.08-.95c.08-1,2-23.68,6.07-25.67a1.46,1.46,0,0,1,1.51.13c5,3.28-6.7,24.74-7.2,25.65Zm6.78-26.37a1.06,1.06,0,0,0-.45.11c-3.41,1.67-5.33,19.85-5.76,24.34,2.19-4.13,11-21.51,6.86-24.23A1.23,1.23,0,0,0,168.1,190.26Z"/><path class="cls-2" d="M110.17,106.26C107,104.38,60,75.55,68,67.4c5.8-5.91,38.65,33,43.4,38.66-6.53-8.21-38.43-49.22-28.21-54C91,48.32,109,97.68,112.07,106.23c-2.25-8.72-14.26-57.35-3.51-57.56,8.57-.16,4.14,54.18,3.78,58.6h0Z"/><path class="cls-2" d="M121.87,105.11c-.51-2.85-7.67-45.76,1.33-45.21,6.51.4.34,40.05-.59,45.82,1.51-8.13,9.44-48.32,17.59-44.72,6.25,2.76-13.82,39-17.34,45.23,4-5.85,26.78-38.13,32.46-31.84,4.53,5-30.11,30.47-32.93,32.53h0Z"/><path d="M103.19,99.44c-9.37-15-34.26-54.94-43.85-75.53l.37-.17c9.58,20.56,34.46,60.47,43.82,75.49Z"/><path d="M74.07,51.52c-1.9-1.36-4.61-3.68-7-5.73l-1.9-1.62A121.94,121.94,0,0,1,56,35.55l.3-.28a119.23,119.23,0,0,0,9.11,8.59l1.89,1.62c2.39,2,5.09,4.36,7,5.71Z"/><rect x="75.7" y="31.59" width="0.41" height="27.91" transform="translate(-8.01 17.37) rotate(-12.4)"/><rect x="77.71" y="56.85" width="0.41" height="20.89" transform="translate(-19.16 101.6) rotate(-60.28)"/><rect x="85.29" y="48.3" width="0.41" height="23.41" transform="translate(-4.18 6.44) rotate(-4.21)"/><path class="cls-3" d="M60.54,21.06c1,1.75,1,3.62,0,4.17s-2.58-.42-3.56-2.17-1-3.61,0-4.16S59.57,19.31,60.54,21.06Z"/><path d="M59.86,25.59c-1,0-2.27-.93-3.1-2.43A5.39,5.39,0,0,1,56,20.53a1.94,1.94,0,0,1,.86-1.81,2,2,0,0,1,2,.22,5.47,5.47,0,0,1,1.85,2c1,1.87,1,3.82-.13,4.44A1.52,1.52,0,0,1,59.86,25.59ZM57.61,19a1,1,0,0,0-.53.13,1.57,1.57,0,0,0-.66,1.45A5.09,5.09,0,0,0,57.11,23c.9,1.62,2.4,2.57,3.29,2.08s.86-2.27,0-3.89h0a5.1,5.1,0,0,0-1.7-1.87A2.08,2.08,0,0,0,57.61,19Z"/><path class="cls-3" d="M56,33.09c1.57,1.24,2.27,3,1.56,3.86s-2.55.61-4.12-.63-2.27-3-1.56-3.86S54.4,31.85,56,33.09Z"/><path d="M56.26,37.68a5,5,0,0,1-3-1.2,5.45,5.45,0,0,1-1.7-2.14,1.73,1.73,0,0,1,2-2.57,5.59,5.59,0,0,1,2.48,1.16h0a5.45,5.45,0,0,1,1.7,2.14,2,2,0,0,1-.1,2A1.77,1.77,0,0,1,56.26,37.68Zm-3.13-5.54a1.32,1.32,0,0,0-1.11.45,1.59,1.59,0,0,0-.05,1.6,5.22,5.22,0,0,0,1.58,2c1.45,1.15,3.21,1.45,3.83.66a1.55,1.55,0,0,0,0-1.59,5,5,0,0,0-1.57-2h0a5,5,0,0,0-2.29-1.07A2.15,2.15,0,0,0,53.13,32.14Z"/><path class="cls-3" d="M68.73,59.28c1.57,1.24,2.27,3,1.57,3.87s-2.55.61-4.12-.63-2.28-3-1.57-3.86S67.16,58,68.73,59.28Z"/><path d="M69,63.88a5.1,5.1,0,0,1-3-1.2,5.45,5.45,0,0,1-1.7-2.14,1.73,1.73,0,0,1,2-2.57,5.46,5.46,0,0,1,2.48,1.15h0c1.68,1.33,2.38,3.16,1.6,4.15A1.78,1.78,0,0,1,69,63.88Zm-3.12-5.54a1.37,1.37,0,0,0-1.12.44,1.59,1.59,0,0,0,0,1.6,5,5,0,0,0,1.57,2c1.46,1.15,3.21,1.45,3.84.66s-.08-2.43-1.54-3.58h0a5.18,5.18,0,0,0-2.29-1.07Z"/><path class="cls-3" d="M74.56,29.83c.51,1.94,0,3.74-1.08,4s-2.4-1-2.91-3,0-3.74,1.08-4S74.06,27.9,74.56,29.83Z"/><path d="M73.17,34.1a2.16,2.16,0,0,1-1.51-.76,5.4,5.4,0,0,1-1.28-2.42c-.55-2.07,0-4,1.22-4.27a2,2,0,0,1,1.88.71,5.5,5.5,0,0,1,1.28,2.42h0a5.56,5.56,0,0,1,.06,2.74,1.94,1.94,0,0,1-1.29,1.53A1.49,1.49,0,0,1,73.17,34.1ZM72,27a1.15,1.15,0,0,0-.26,0c-1,.26-1.4,2-.93,3.78A5,5,0,0,0,72,33.06a1.34,1.34,0,0,0,2.48-.65,5.09,5.09,0,0,0-.07-2.53h0a5,5,0,0,0-1.18-2.23A1.77,1.77,0,0,0,72,27Z"/><path class="cls-3" d="M86.31,45.84c.5,1.94,0,3.74-1.09,4s-2.4-1-2.9-3,0-3.74,1.09-4S85.81,43.9,86.31,45.84Z"/><path d="M84.91,50.1c-1.13,0-2.3-1.3-2.79-3.18-.53-2.08,0-4,1.24-4.27s2.62,1.06,3.15,3.14h0a5.44,5.44,0,0,1,0,2.74,2,2,0,0,1-1.29,1.53A1.47,1.47,0,0,1,84.91,50.1ZM83.71,43l-.25,0c-1,.25-1.4,2-.94,3.78s1.67,3.1,2.65,2.84a1.57,1.57,0,0,0,1-1.24,5.07,5.07,0,0,0,0-2.53h0C85.69,44.25,84.64,43,83.71,43Z"/><path class="cls-1" d="M109,133.51a41.61,41.61,0,0,1-1.14-5.89c-.73-4.94-1.64-11.1-6-18.28A92.86,92.86,0,0,0,91.44,94.93c-1-1.14-2.15-2.3-3.2-3.43C83.08,86,77.75,80.35,74.08,73.68A39.69,39.69,0,0,1,69.6,58.23L67.46,58a42.41,42.41,0,0,0,4.82,16.7c3.85,7,9.3,12.77,14.57,18.38C87.9,94.21,89,95.36,90,96.5a89.7,89.7,0,0,1,10,14c4.11,6.69,4.94,12.3,5.67,17.24A42.59,42.59,0,0,0,107,134Z"/><path d="M106.84,134.25l-.06-.19a44.35,44.35,0,0,1-1.23-6.29c-.73-4.94-1.55-10.52-5.64-17.18a90.18,90.18,0,0,0-10-14c-1-1.14-2.13-2.29-3.18-3.41C81.42,87.61,76,81.81,72.11,74.81A42.59,42.59,0,0,1,67.26,58v-.23L69.8,58v.18a39.68,39.68,0,0,0,4.46,15.37c3.66,6.64,9,12.3,14.13,17.77,1,1.13,2.15,2.29,3.2,3.44A92.83,92.83,0,0,1,102,109.24c4.42,7.21,5.33,13.39,6.07,18.35a41.21,41.21,0,0,0,1.13,5.86l.07.2Zm-39.16-76a42.52,42.52,0,0,0,4.78,16.38C76.3,81.57,81.74,87.35,87,93c1,1.12,2.14,2.27,3.18,3.41a90.23,90.23,0,0,1,10.08,14c4.13,6.72,5,12.35,5.69,17.31a45.08,45.08,0,0,0,1.17,6.07l1.62-.4a44.63,44.63,0,0,1-1.09-5.71c-.72-4.93-1.63-11.06-6-18.2A92.67,92.67,0,0,0,91.29,95.07c-1.05-1.14-2.14-2.31-3.2-3.43-5.16-5.49-10.5-11.17-14.19-17.86a40.24,40.24,0,0,1-4.5-15.37Z"/><path class="cls-1" d="M87.91,91.14A61.33,61.33,0,0,0,81.73,73c-2-3.66-3.06-2.52-2.13.77A74.86,74.86,0,0,0,87.91,91.14Z"/><path d="M88.25,92l-.51-.75A75.47,75.47,0,0,1,79.4,73.8c-.51-1.79-.46-3,.12-3.25.74-.31,1.7,1.1,2.38,2.33a61.94,61.94,0,0,1,6.21,18.23Zm-8.51-21.1h-.06c-.25.11-.38,1,.12,2.77a74.9,74.9,0,0,0,7.74,16.52,61.28,61.28,0,0,0-6-17.13C80.6,71.35,80,70.91,79.74,70.91Z"/><path class="cls-1" d="M91.23,98a50.15,50.15,0,0,1-16.44-7.24c-3.28-2.31-2.21-3.42.77-2.31A64.54,64.54,0,0,1,91.23,98Z"/><path d="M92,98.33l-.78-.16a50.68,50.68,0,0,1-16.51-7.28c-1.63-1.14-2.35-2.09-2-2.69s1.42-.55,3,0a64.94,64.94,0,0,1,15.74,9.58ZM73.63,88.19c-.36,0-.57.09-.63.2s.15.94,1.91,2.17a50.72,50.72,0,0,0,15.52,7,64.36,64.36,0,0,0-14.94-9A5.66,5.66,0,0,0,73.63,88.19Z"/><path class="cls-4" d="M75.88,53.91s3.19-3.1.6-4S69.86,54.08,68,56.6c2.15-4.08,5.19-9.43,3.21-10.44S68,48.06,68,48.06,66.94,43.55,65,45.4c-2.27,2.12,1.3,10.6,2.1,12.41H67c-2.41-4.15-5.76-11-7.72-9.69-1.7,1.15,0,3.91,0,3.91s-4.23-1.51-3.66,1.26c.5,2.42,5.64,3.84,8.92,4.5-4.43-.08-9.83-.22-9.65,1.91s3.28,2,3.28,2-3.22,3-.62,4c2.78,1,7.53-5.17,9-7.24-2.33,4-6.25,9.9-4.17,11.09,1.83,1.05,3.3-1.74,3.3-1.74s.86,4.54,2.93,2.8c2.33-2-.72-10.37-1.5-12.39h.1L67.09,58h0v0l.08.17v0c2.23,4.25,5.31,11.42,7.35,10.18,1.76-1.06.16-3.89.16-3.89s4.17,1.71,3.72-1.09C78,60.29,70.11,58.45,67.73,58c4.58-.05,11.65.38,11.43-2.06C79,53.75,75.88,53.91,75.88,53.91Z"/><path d="M67.76,71.23a1.07,1.07,0,0,1-.39-.07c-1-.34-1.51-2-1.73-2.8a3.73,3.73,0,0,1-1.86,1.57,1.74,1.74,0,0,1-1.45-.19,1.3,1.3,0,0,1-.63-.83c-.42-1.6,1.32-4.77,3.1-7.78-2.19,2.61-5.22,5.54-7.3,4.78a1.55,1.55,0,0,1-1.12-1.11c-.21-1,.79-2.27,1.34-2.87-1.19-.08-2.88-.6-3-2.21a1.26,1.26,0,0,1,.35-1c1-1.1,4.27-1.21,7.54-1.17-3.36-.85-6.73-2.19-7.15-4.23a1.5,1.5,0,0,1,.36-1.53c.74-.64,2.29-.33,3.08-.12-.43-.87-1.14-2.77.29-3.73a1.17,1.17,0,0,1,.95-.17c1.66.4,3.78,4.1,5.68,7.5-1.28-3.39-2.73-8.39-1-10a1.43,1.43,0,0,1,1.4-.45c1,.3,1.59,1.9,1.85,2.72a3.85,3.85,0,0,1,1.79-1.67,1.84,1.84,0,0,1,1.45.12,1.29,1.29,0,0,1,.66.8c.49,1.56-1,4.76-2.67,7.83,2.2-2.69,5.17-5.62,7.24-4.89a1.52,1.52,0,0,1,1.12,1.09c.22,1-.77,2.3-1.31,2.9,1.18.07,2.87.57,3,2.18a1.24,1.24,0,0,1-.34,1c-1.2,1.32-5.48,1.3-9.24,1.28h-.22c3.49.86,8.68,2.56,9.1,5.15a1.5,1.5,0,0,1-.43,1.51c-.77.61-2.31.23-3.09,0,.39.89,1,2.82-.46,3.71a1.15,1.15,0,0,1-1,.12c-1.71-.5-3.75-4.56-5.54-8.15h0c1.13,3.41,2.5,8.74.62,10.32A1.62,1.62,0,0,1,67.76,71.23Zm-1.94-4,.11.57c.14.73.69,2.68,1.58,3a1,1,0,0,0,1-.31c1.74-1.47.33-7.25-1.56-12.16L66.84,58h0l-1-.21h.91l-1.08-1.91c-1.82-3.26-4.08-7.31-5.64-7.68a.71.71,0,0,0-.62.11c-1.52,1,.06,3.6.08,3.63l.3.49-.55-.19c-.65-.23-2.48-.7-3.16-.11a1.13,1.13,0,0,0-.23,1.14c.48,2.33,5.69,3.72,8.76,4.34l0,.4h-.23c-3.51-.06-7.88-.15-9,1a.84.84,0,0,0-.24.67c.16,1.93,3,1.85,3.07,1.85l.54,0-.39.38c-.5.47-1.74,1.89-1.55,2.83a1.14,1.14,0,0,0,.85.81c2.66,1,7.41-5.25,8.8-7.17l.35.22-1,1.72c-1.82,3.07-4.09,6.89-3.66,8.51a.91.91,0,0,0,.43.58,1.36,1.36,0,0,0,1.14.15c1.09-.31,1.87-1.79,1.88-1.81Zm1.82-8.71c.29.56.59,1.16.9,1.78,1.67,3.34,3.76,7.49,5.3,7.94a.77.77,0,0,0,.63-.08c1.57-1,.1-3.6.08-3.62L74.26,64l.55.22c.64.26,2.46.82,3.17.26a1.1,1.1,0,0,0,.27-1.12c-.37-2.32-5.7-4.22-10.56-5.22l-.26,0,.18.34,0,.06ZM65.89,45.16a1.2,1.2,0,0,0-.79.39c-1.69,1.58.1,7.55,2.15,12.18v0h2.52c3.51,0,7.86,0,8.94-1.15a.89.89,0,0,0,.24-.69c-.17-1.93-3-1.81-3.07-1.81l-.54,0,.39-.38c.49-.48,1.73-1.94,1.52-2.88a1.13,1.13,0,0,0-.85-.78c-2.41-.86-6.56,4.35-8.23,6.63l-.35-.22.49-.91c1.68-3.17,3.77-7.11,3.26-8.7a.86.86,0,0,0-.45-.56,1.39,1.39,0,0,0-1.14-.1c-1.07.37-1.79,1.89-1.8,1.9l-.25.54-.13-.57c-.17-.72-.81-2.65-1.71-2.92Z"/><path class="cls-5" d="M70,56.93a3.08,3.08,0,1,1-3.85-1.4A2.9,2.9,0,0,1,70,56.93Z"/><path d="M67,61a3,3,0,0,1-2.81-1.77A2.78,2.78,0,0,1,64.28,57a3.41,3.41,0,0,1,1.82-1.64,3.11,3.11,0,0,1,4.11,1.52,2.78,2.78,0,0,1-.12,2.29,3.45,3.45,0,0,1-1.82,1.64A3.62,3.62,0,0,1,67,61Zm.45-5.55a3,3,0,0,0-1.16.23,3,3,0,0,0-1.61,1.44,2.34,2.34,0,0,0-.11,2,2.72,2.72,0,0,0,3.59,1.3A3,3,0,0,0,69.72,59a2.37,2.37,0,0,0,.11-2A2.54,2.54,0,0,0,67.41,55.49Z"/><path class="cls-1" d="M126.08,115.15a41.3,41.3,0,0,1,3.13-5.12c2.8-4.14,6.28-9.3,7.87-17.57a92.46,92.46,0,0,0,2.08-17.63c0-1.56,0-3.15,0-4.69-.11-7.53-.21-15.31,1.57-22.71A40,40,0,0,1,147.81,33l-1.43-1.61c-3.13,3.6-6.44,10.3-7.72,15.58-1.86,7.74-1.75,15.7-1.65,23.39,0,1.54.05,3.12.05,4.67a90.38,90.38,0,0,1-2,17.1c-1.49,7.71-4.66,12.4-7.46,16.54a43,43,0,0,0-3.32,5.47Z"/><path d="M126.17,115.43l-2.18-1.2.08-.17a43.84,43.84,0,0,1,3.34-5.49c2.79-4.13,6-8.8,7.43-16.47a89.86,89.86,0,0,0,2-17.06c0-1.52,0-3.08-.05-4.59v-.08c-.11-7.7-.22-15.67,1.66-23.44,1.28-5.3,4.61-12,7.75-15.66l.15-.17,1.71,1.9-.12.14a39.65,39.65,0,0,0-7.08,14.34c-1.78,7.38-1.67,15.14-1.57,22.66,0,1.54,0,3.13.05,4.69a93.59,93.59,0,0,1-2.07,17.67c-1.61,8.31-5.1,13.49-7.91,17.65a41.6,41.6,0,0,0-3.12,5.08Zm-1.65-1.37,1.47.8a44.6,44.6,0,0,1,3-4.94c2.79-4.13,6.26-9.27,7.84-17.49A92.34,92.34,0,0,0,139,74.83c0-1.56,0-3.15,0-4.69-.1-7.54-.21-15.33,1.58-22.76A40.42,40.42,0,0,1,147.54,33l-1.16-1.3A42.47,42.47,0,0,0,138.86,47c-1.86,7.72-1.75,15.66-1.64,23.34v.07c0,1.51,0,3.08,0,4.6a90.7,90.7,0,0,1-2,17.14c-1.49,7.75-4.68,12.46-7.49,16.62A44.45,44.45,0,0,0,124.52,114.06Z"/><path class="cls-1" d="M139.11,69.65a61.43,61.43,0,0,0,7.69-17.58c1-4.06-.56-3.92-2.09-.86A75.42,75.42,0,0,0,139.11,69.65Z"/><path d="M138.77,70.51l.14-.89a75.28,75.28,0,0,1,5.62-18.51c.84-1.67,1.7-2.53,2.29-2.32.75.28.51,2,.18,3.33a62.36,62.36,0,0,1-7.72,17.65Zm7.85-21.34c-.29,0-1,.62-1.72,2.13a74.54,74.54,0,0,0-5.43,17.41A61.81,61.81,0,0,0,146.61,52c.5-2.09.26-2.77.07-2.84Z"/><path class="cls-1" d="M137,76.93a50.06,50.06,0,0,1-7.24-16.44c-.87-3.92.67-4,2.12-1.18A64.5,64.5,0,0,1,137,76.93Z"/><path d="M137.25,77.7l-.46-.65a50.79,50.79,0,0,1-7.28-16.51c-.43-1.94-.32-3.13.32-3.36s1.41.54,2.18,2a64.92,64.92,0,0,1,5.15,17.7ZM130,57.55H130c-.24.09-.52.79-.05,2.89a50.41,50.41,0,0,0,6.72,15.64,64.2,64.2,0,0,0-5-16.69C130.94,58,130.33,57.55,130,57.55Z"/><path class="cls-4" d="M155.36,34.05s4.44-.13,3.14-2.55-7.7-1.38-10.77-.76c4.34-1.57,10.2-3.47,9.42-5.55s-3.65-.77-3.65-.77,2.25-4-.46-4c-3.11,0-6.19,8.7-6.83,10.58l0,0c1-4.69,3.19-12,.85-12.37-2-.3-2.63,2.9-2.63,2.9s-2.1-4-3.55-1.54c-1.27,2.12,1.57,6.64,3.54,9.34-3.21-3.05-7.11-6.8-8.41-5.1S137,27.89,137,27.89s-4.42.08-3.15,2.52c1.37,2.62,9,1.27,11.56.75-4.44,1.41-11.3,3.1-10.57,5.37.65,2,3.61.95,3.61.95s-2.43,3.94.28,4c3.05.12,6.46-8.14,7.25-10.16l.06.08a3,3,0,0,0,.07-.32l0,0v0l-.05.17h0c-1.22,4.63-3.79,12-1.44,12.47,2,.4,2.74-2.77,2.74-2.77s1.92,4.08,3.48,1.71c1.7-2.58-2.85-9.24-4.28-11.2,3.41,3.05,8.34,8.14,9.82,6.19C157.74,36,155.36,34.05,155.36,34.05Z"/><path d="M145,44.05a1.72,1.72,0,0,1-.39,0,1.13,1.13,0,0,1-.79-.56c-.93-1.51.31-5.89,1.4-9.75h0c-1.47,3.28-4,8.11-6.51,8a1.42,1.42,0,0,1-1.31-.67c-.48-.91.22-2.47.62-3.24a3.82,3.82,0,0,1-2.44-.09,1.81,1.81,0,0,1-.94-1.13,1.29,1.29,0,0,1,.1-1c.77-1.46,4.19-2.63,7.54-3.66-3.38.46-7.59.58-8.62-1.4a1.52,1.52,0,0,1-.07-1.56c.53-.9,2.11-1.15,2.92-1.22-.82-.86-1.72-2.39-.73-3.67a1.2,1.2,0,0,1,.92-.49c1.5-.12,4,2,6.36,4.22-1.91-2.89-3.49-6.16-2.43-7.94A1.45,1.45,0,0,1,142,19c1,0,1.92,1.3,2.36,2,.27-.93,1-2.81,2.73-2.56a1.15,1.15,0,0,1,.81.52c1,1.41,0,5.57-.86,9.37,1.34-3.37,3.64-8,6-8.07a1.42,1.42,0,0,1,1.34.62c.53.88-.1,2.47-.47,3.25a3.85,3.85,0,0,1,2.45,0,1.78,1.78,0,0,1,1,1.07,1.28,1.28,0,0,1-.05,1c-.69,1.48-4,2.8-7.26,4,3.44-.5,7.61-.66,8.65,1.28a1.51,1.51,0,0,1,.09,1.55c-.52.9-2.12,1.18-2.93,1.26.83.85,1.74,2.35.76,3.64a1.24,1.24,0,0,1-.93.51c-1.78.17-4.91-2.74-7.68-5.29a1.29,1.29,0,0,1-.17-.16c2,3,4.68,7.76,3.24,9.95a1.5,1.5,0,0,1-1.33.82c-1-.07-1.86-1.39-2.27-2.11C147.18,42.43,146.44,44.05,145,44.05Zm1.15-12.16c-.16.61-.35,1.26-.54,1.92-1,3.6-2.28,8.06-1.44,9.43a.71.71,0,0,0,.51.37c1.81.37,2.5-2.58,2.51-2.61l.13-.58.25.53c.3.63,1.26,2.27,2.17,2.34.33,0,.66-.2,1-.65,1.29-2-1.36-7-4.27-11l-.16-.22-.09.34,0,.1ZM139,37.09l-.3.49c-.39.63-1.3,2.45-.86,3.28a1,1,0,0,0,1,.46h.05c2.94,0,6.34-8.35,7-10l.12-.32,0,0h0l-.62-.85.68.6c.15-.67.32-1.39.49-2.13.85-3.63,1.92-8.15,1-9.47a.74.74,0,0,0-.53-.35c-1.81-.27-2.39,2.71-2.4,2.74l-.1.57-.28-.52c-.32-.61-1.36-2.19-2.26-2.21-.36,0-.66.22-.94.69-1.22,2,1.69,6.58,3.54,9.11l-.31.27-.17-.16c-2.54-2.42-5.71-5.44-7.31-5.31a.84.84,0,0,0-.63.34c-1.18,1.53,1,3.42,1,3.44l.41.35H137c-.68,0-2.56.22-3.05,1a1.18,1.18,0,0,0,.08,1.18c1.31,2.5,9,1.13,11.33.64l.11.4-1.91.58c-3.42,1-7.67,2.33-8.45,3.81a.87.87,0,0,0-.07.72,1.41,1.41,0,0,0,.73.88,4.1,4.1,0,0,0,2.61-.06Zm7.45-6,.35.31,1.51,1.39c2.58,2.37,5.78,5.31,7.37,5.18a.84.84,0,0,0,.64-.34c1.18-1.55-1-3.39-1-3.41l-.42-.35h.54c.69,0,2.59-.26,3.07-1.09a1.15,1.15,0,0,0-.1-1.16c-1.21-2.26-7.78-1.22-10.55-.66l-.11-.4,1-.35C152,29,156.21,27.5,156.92,26a.87.87,0,0,0,0-.72,1.39,1.39,0,0,0-.77-.84,4.17,4.17,0,0,0-2.62.19l-.54.23.29-.51c.36-.65,1.18-2.5.7-3.31a1.05,1.05,0,0,0-1-.41c-2.31,0-5,5.64-6.63,10.44Z"/><path class="cls-5" d="M149,32.33a3.07,3.07,0,1,1-1.89-3.63A2.9,2.9,0,0,1,149,32.33Z"/><path d="M146.36,34.23A3.48,3.48,0,0,1,145.1,34a3.11,3.11,0,0,1-2-3.9,2.76,2.76,0,0,1,1.47-1.53,3.42,3.42,0,0,1,2.61,0,3.11,3.11,0,0,1,2,3.9h0a2.79,2.79,0,0,1-1.64,1.6A3.13,3.13,0,0,1,146.36,34.23Zm-.45-5.55a2.81,2.81,0,0,0-1.18.25,2.35,2.35,0,0,0-1.26,1.31,2.71,2.71,0,0,0,1.77,3.37,3,3,0,0,0,2.16,0,2.34,2.34,0,0,0,1.4-1.37h0A2.71,2.71,0,0,0,147,28.89,3.17,3.17,0,0,0,145.91,28.68Z"/><path class="cls-1" d="M99.12,66.37c3.76,7.27,7.57,14.53,10.61,22.14a143,143,0,0,1,6.92,23.12,279.75,279.75,0,0,1,5.92,48.78c.09,2.63-4,2.22-4.09-.4a274.36,274.36,0,0,0-5.88-47.68,135.07,135.07,0,0,0-6.88-22.79c-3-7.34-6.68-14.38-10.32-21.41C94.19,65.78,97.9,64,99.12,66.37Z"/><path d="M120.83,162.39a2.79,2.79,0,0,1-1.26-.31,2.37,2.37,0,0,1-1.29-2.06,273.24,273.24,0,0,0-5.88-47.64,133.84,133.84,0,0,0-6.87-22.77c-2.86-7-6.39-13.83-9.82-20.44l-.49-1a2,2,0,0,1,0-2.06,2.51,2.51,0,0,1,2.18-1.1,2.14,2.14,0,0,1,1.85,1.22l.51,1c3.54,6.83,7.2,13.9,10.11,21.17a144.51,144.51,0,0,1,6.93,23.15,280.51,280.51,0,0,1,5.92,48.82,1.82,1.82,0,0,1-.81,1.69A2.15,2.15,0,0,1,120.83,162.39ZM97.34,65.47a2.11,2.11,0,0,0-1.73.91,1.59,1.59,0,0,0,0,1.66l.5.95c3.42,6.61,7,13.45,9.83,20.47a135.46,135.46,0,0,1,6.89,22.83A273.19,273.19,0,0,1,118.68,160a2,2,0,0,0,1.08,1.71,2.08,2.08,0,0,0,2,0,1.42,1.42,0,0,0,.63-1.33,279.58,279.58,0,0,0-5.92-48.74,143.76,143.76,0,0,0-6.91-23.09c-2.9-7.25-6.56-14.31-10.1-21.14l-.5-1a1.74,1.74,0,0,0-1.51-1Z"/><path class="cls-6" d="M98.54,63.52c2-18.07-15.85-11.8-2.21.78-13.64-12.58-19.88,5.3-.77,2.21-19.11,3.09-9,19.13,1.25,2-10.28,17.15,8.55,19.26,2.33.26,6.22,19,19.61,5.59,1.65-1.66,18,7.25,15.83-11.57-.26-2.32C116.62,55.52,100.57,45.45,98.54,63.52Z"/><path d="M96.71,82.39a2.67,2.67,0,0,1-1.9-.82c-1.48-1.45-2.13-4.86.17-10-3.4,4.36-6.59,5.38-8.49,4.78a2.69,2.69,0,0,1-1.91-2.89c.16-2.1,2.27-4.8,7.54-6.37-6.75.27-8.32-2.66-8.58-3.33a2.78,2.78,0,0,1,1.09-3.43c1.7-1.17,5-1.25,9.26,1.74-3.18-3.8-3.42-6.83-2.41-8.54A2.88,2.88,0,0,1,95,52.23c1.87.63,3.81,3.12,3.92,8.09,1.22-4.83,3.65-6.82,5.62-7a2.87,2.87,0,0,1,3.13,2c.61,1.9-.3,4.79-4.24,7.8,4.81-2,8-1.17,9.42.35a2.8,2.8,0,0,1,.3,3.58c-.41.6-2.59,3.1-9.11,1.36,4.79,2.69,6.26,5.79,5.94,7.88a2.67,2.67,0,0,1-2.5,2.39c-2,.17-4.87-1.53-7.21-6.54,1.09,5.55-.29,8.72-2.06,9.81A2.74,2.74,0,0,1,96.71,82.39ZM97,68.59c-4,6.76-3.55,11.06-1.89,12.69a2.27,2.27,0,0,0,2.89.33c2-1.23,3.41-5.31,1-12.8l.39-.12c2.42,7.37,5.87,9.78,8.1,9.58a2.29,2.29,0,0,0,2.13-2c.35-2.33-1.75-6.07-8.85-8.94l.16-.38c6.85,2.77,10.7,1.69,11.93-.08a2.39,2.39,0,0,0-.27-3.07c-1.57-1.71-5.62-2.41-11.9,1.19l-.2-.35c6.09-3.5,7.49-7.11,6.83-9.14a2.47,2.47,0,0,0-2.7-1.74c-2.2.22-5,2.92-5.81,9.83l-.41,0c.78-6.91-1.39-10.18-3.49-10.88a2.48,2.48,0,0,0-3,1.1c-1.09,1.83-.52,5.67,4.64,10.43l-.27.3c-5.33-4.91-9.44-5.12-11.34-3.81a2.42,2.42,0,0,0-1,2.94c.81,2,4.33,3.91,11.62,2.73l.07.4C88,67.93,85.16,71.12,85,73.47a2.29,2.29,0,0,0,1.63,2.47c2.12.67,6-.9,10-7.56Z"/><line class="cls-6" x1="94.62" y1="56.42" x2="96.75" y2="61.55"/><rect x="95.48" y="56.21" width="0.41" height="5.55" transform="translate(-15.28 41.06) rotate(-22.48)"/><line class="cls-6" x1="101.2" y1="62.25" x2="104.23" y2="57.18"/><rect x="99.76" y="59.51" width="5.91" height="0.41" transform="matrix(0.51, -0.86, 0.86, 0.51, -1.24, 117.23)"/><line class="cls-6" x1="103.65" y1="65.82" x2="109.79" y2="65.52"/><rect x="103.65" y="65.47" width="6.15" height="0.41" transform="translate(-3.02 5.18) rotate(-2.74)"/><line class="cls-6" x1="102.73" y1="70.21" x2="106.91" y2="74.9"/><rect x="104.61" y="69.41" width="0.41" height="6.28" transform="translate(-21.71 88.1) rotate(-41.7)"/><line class="cls-6" x1="97.14" y1="72.45" x2="96.98" y2="78.39"/><polygon points="97.18 78.4 96.78 78.39 96.94 72.45 97.35 72.46 97.18 78.4"/><line class="cls-6" x1="88.26" y1="72.56" x2="93.2" y2="69.67"/><rect x="87.87" y="70.91" width="5.73" height="0.41" transform="translate(-23.47 55.42) rotate(-30.26)"/><line class="cls-6" x1="87.78" y1="62.75" x2="93.19" y2="64.43"/><rect x="90.28" y="60.76" width="0.41" height="5.66" transform="matrix(0.3, -0.95, 0.95, 0.3, 2.85, 131.05)"/><path class="cls-7" d="M102.54,65.83A4.35,4.35,0,1,1,97,63.17,4.34,4.34,0,0,1,102.54,65.83Z"/><path d="M98.44,71.82A4.55,4.55,0,0,1,96.93,63a4.55,4.55,0,1,1,1.51,8.84Zm0-8.69a4.14,4.14,0,1,0,3.74,5.93,4.2,4.2,0,0,0,.17-3.17h0a4.12,4.12,0,0,0-3.91-2.76Z"/><path class="cls-2" d="M177.2,109.67c1.94-3.12,30.45-50.38,19.58-53.93-7.87-2.57-19.13,47.06-20.73,54.3,2-10.3,11.46-61.38.17-61-8.67.33-1.94,52.44-.71,61.44-2-8.78-13.75-57.48-23.39-52.71-7.67,3.8,21.27,50,23.63,53.75h0Z"/><path class="cls-2" d="M203,111.39c2.21-1.87,35.13-30.32,27.85-35.64C225.53,71.9,205,106.35,202,111.38c4-7.22,23.59-43.21,15-45.65-6.57-1.87-14.26,38.83-15.54,45.88.63-7.08,3.74-46.44-4.65-45.22-6.68,1,3.72,42.67,4.57,46.06h0Z"/><path d="M183.53,109.13l-.39-.13c5.77-16.74,21.07-61.19,25.81-83.39l.4.09C204.6,47.91,189.29,92.39,183.53,109.13Z"/><path d="M201.18,55.91l-.31-.27c1.54-1.75,3.65-4.61,5.52-7.14l1.48-2a120.73,120.73,0,0,0,7-10.4l.35.2a118,118,0,0,1-7,10.45c-.46.6-1,1.28-1.48,2C204.85,51.28,202.73,54.15,201.18,55.91Z"/><rect x="197.85" y="36.53" width="0.41" height="27.91" transform="matrix(1, -0.01, 0.01, 1, -0.46, 1.85)"/><rect x="190.52" y="71.94" width="20.89" height="0.41" transform="translate(4.3 155.29) rotate(-42.66)"/><rect x="191.74" y="55.03" width="0.41" height="23.41" transform="translate(-7.9 29.9) rotate(-8.73)"/><path class="cls-3" d="M207.54,23.19c-.55,1.92-.12,3.74,1,4s2.43-1,3-2.91.12-3.73-1-4S208.1,21.27,207.54,23.19Z"/><path d="M208.86,27.49a1.37,1.37,0,0,1-.4,0c-1.22-.35-1.71-2.24-1.11-4.31h0c.59-2.06,2-3.39,3.23-3s1.71,2.24,1.12,4.3C211.17,26.23,210,27.49,208.86,27.49Zm-1.12-4.24c-.52,1.78-.13,3.52.83,3.8s2.22-1,2.74-2.77.13-3.52-.84-3.8-2.22,1-2.73,2.77Z"/><path class="cls-3" d="M214.68,33.89c-1.25,1.56-1.55,3.4-.66,4.11s2.62,0,3.88-1.53,1.54-3.4.66-4.12S215.93,32.33,214.68,33.89Z"/><path d="M214.89,38.49a1.54,1.54,0,0,1-1-.33c-1-.79-.71-2.73.63-4.4s3.17-2.36,4.16-1.56.72,2.72-.63,4.4a5.51,5.51,0,0,1-2.15,1.68A2.81,2.81,0,0,1,214.89,38.49Zm2.8-6.21A4.22,4.22,0,0,0,214.84,34c-1.16,1.45-1.48,3.2-.69,3.83a1.58,1.58,0,0,0,1.6.06,5.19,5.19,0,0,0,2-1.56c1.16-1.44,1.47-3.2.69-3.83A1.15,1.15,0,0,0,217.69,32.28Z"/><path class="cls-3" d="M208.12,62.27c-1.26,1.56-1.55,3.41-.66,4.12s2.62,0,3.87-1.53,1.55-3.41.66-4.12S209.37,60.72,208.12,62.27Z"/><path d="M208.33,66.88a1.54,1.54,0,0,1-1-.33c-1-.8-.71-2.73.63-4.4a5.44,5.44,0,0,1,2.16-1.68,2,2,0,0,1,2,.11c1,.8.71,2.73-.63,4.4a5.35,5.35,0,0,1-2.16,1.68A2.59,2.59,0,0,1,208.33,66.88Zm2.79-6.22a2.19,2.19,0,0,0-.85.19,5,5,0,0,0-2,1.55c-1.16,1.45-1.48,3.2-.7,3.83a1.58,1.58,0,0,0,1.6.06,5,5,0,0,0,2-1.56c1.16-1.45,1.48-3.2.7-3.83A1.18,1.18,0,0,0,211.12,60.66Z"/><path class="cls-3" d="M195.84,34.88c-.06,2,.82,3.64,1.95,3.68S199.9,37,200,35s-.82-3.65-2-3.68S195.9,32.88,195.84,34.88Z"/><path d="M197.83,38.76h0c-1.27,0-2.22-1.74-2.15-3.89h0c.06-2.12,1.08-3.76,2.33-3.76h0c1.27,0,2.22,1.75,2.15,3.89S199.08,38.76,197.83,38.76ZM196,34.88c0,1.85.75,3.44,1.76,3.47h0c1,0,1.87-1.52,1.93-3.36S199,31.55,198,31.52h0c-1,0-1.87,1.53-1.93,3.36Z"/><path class="cls-3" d="M188,53.11c-.05,2,.83,3.65,2,3.68s2.1-1.57,2.15-3.57-.83-3.65-2-3.68S188,51.11,188,53.11Z"/><path d="M190,57h0a2,2,0,0,1-1.6-1.21,5.38,5.38,0,0,1-.56-2.68,5.33,5.33,0,0,1,.7-2.64,1.91,1.91,0,0,1,1.66-1.12c1.27,0,2.22,1.74,2.16,3.88a5.47,5.47,0,0,1-.69,2.65A2,2,0,0,1,190,57Zm-2-3.88h.2a5,5,0,0,0,.52,2.47,1.57,1.57,0,0,0,1.25,1,1.6,1.6,0,0,0,1.31-.92,5.13,5.13,0,0,0,.64-2.45c.05-1.85-.76-3.44-1.77-3.46a1.58,1.58,0,0,0-1.3.92,5.14,5.14,0,0,0-.65,2.45Z"/><path class="cls-1" d="M200.83,138.32a41,41,0,0,0-.51-6c-.65-5-1.46-11.12.81-19.23a93.12,93.12,0,0,1,6-16.7c.7-1.39,1.43-2.81,2.14-4.18,3.46-6.68,7-13.59,8.75-21a39.84,39.84,0,0,0,.08-16.09l2-.79a42.07,42.07,0,0,1-.07,17.38c-1.79,7.76-5.44,14.83-9,21.66-.7,1.36-1.43,2.77-2.13,4.15a90.16,90.16,0,0,0-5.84,16.2c-2.12,7.56-1.38,13.18-.73,18.13a43.89,43.89,0,0,1,.53,6.38Z"/><path d="M200.63,138.53v-.22a41.94,41.94,0,0,0-.51-5.94c-.65-5-1.47-11.17.82-19.32A92.47,92.47,0,0,1,207,96.32c.7-1.39,1.43-2.81,2.14-4.18,3.45-6.68,7-13.57,8.73-21a39.57,39.57,0,0,0,.08-16l0-.17,2.37-.94.06.22a42.55,42.55,0,0,1-.07,17.48c-1.79,7.78-5.46,14.86-9,21.7l0,.09c-.69,1.34-1.41,2.71-2.09,4.06a90.56,90.56,0,0,0-5.82,16.17c-2.11,7.52-1.38,13.11-.73,18a44,44,0,0,1,.53,6.4v.2Zm17.75-83.27a40.38,40.38,0,0,1-.12,16c-1.72,7.44-5.3,14.36-8.76,21-.72,1.38-1.45,2.79-2.15,4.18a92.93,92.93,0,0,0-6,16.66c-2.26,8.07-1.45,14.22-.81,19.16a44.06,44.06,0,0,1,.52,5.78l1.67-.06a45.24,45.24,0,0,0-.53-6.15c-.66-5-1.4-10.61.73-18.21a90.9,90.9,0,0,1,5.86-16.24c.68-1.35,1.39-2.73,2.08-4.07l.05-.08c3.53-6.83,7.18-13.88,9-21.61A42.48,42.48,0,0,0,220,54.62Z"/><path class="cls-1" d="M209.53,91.8a61.34,61.34,0,0,1,1-19.17c.94-4.07,2.25-3.25,2.25.16A74.71,74.71,0,0,1,209.53,91.8Z"/><path d="M209.44,92.72l-.11-.89a61.84,61.84,0,0,1,1-19.24c.32-1.37.87-3,1.65-2.9.63.08,1,1.23,1,3.1a74.85,74.85,0,0,1-3.25,19.07ZM211.9,70.1c-.21,0-.72.53-1.19,2.58a61.39,61.39,0,0,0-1.08,18.12,75.08,75.08,0,0,0,2.93-18c0-1.8-.38-2.66-.64-2.69Z"/><path class="cls-1" d="M208.2,99.27A49.91,49.91,0,0,0,222,87.81c2.53-3.12,1.2-3.89-1.36-2A64.81,64.81,0,0,0,208.2,99.27Z"/><path d="M207.59,99.83l.44-.67a64.63,64.63,0,0,1,12.52-13.52c1.35-1,2.42-1.31,2.86-.85s0,1.61-1.22,3.15a50.68,50.68,0,0,1-13.9,11.51ZM222.84,85a4.06,4.06,0,0,0-2.05,1,64.28,64.28,0,0,0-11.93,12.7,50.37,50.37,0,0,0,13-11c1.36-1.66,1.42-2.42,1.24-2.6A.34.34,0,0,0,222.84,85Z"/><path class="cls-4" d="M208.3,55.51c.46,2.4,7.14.06,11.56-1.15-2.15,1.12-9.2,5-8.84,8.11.34,2.82,3.88,0,3.88,0s-.76,3.16,1.21,3.7c2.31.63,3.31-7.11,4.29-11.8h0s0-.07,0-.18v0h0c0,.1-.06.21-.08.31l.09,0c-.2,2.16-.84,11.07,1.94,12.33,2.47,1.12,2.06-3.49,2.06-3.49s2.17,2.28,3.65.77c1.67-1.71-3.71-6.29-7-9.53,2,1.58,8.28,6.23,10.67,4.49s-1.69-3.65-1.69-3.65,3-.75,2.6-2.86-5.56-.49-9.8.8c3-1.53,7.53-4.3,7.35-6.76-.21-2.83-3.87-.22-3.87-.22s.9-3.12-1-3.77c-2.25-.73-3.6,6.79-4.78,11.44l-.05,0c.27-2,1.39-11.1-1.37-12.52-2.42-1.23-2.21,3.39-2.21,3.39s-2.07-2.39-3.61-.95,2.76,5.84,5.94,9.18c-2.47-1.93-7.8-5.67-10-4.14s1.67,3.69,1.67,3.69S207.9,53.39,208.3,55.51Z"/><path d="M223.14,67.18a2.06,2.06,0,0,1-.79-.19c-2.24-1-2.38-6.51-2.23-10.11v0c-.75,3.94-1.6,8.41-3.11,9.35a1.15,1.15,0,0,1-.95.15c-1.66-.45-1.58-2.48-1.45-3.44-.69.46-2.06,1.25-3,.87a1.48,1.48,0,0,1-.82-1.33c-.31-2.61,4.22-5.66,7.34-7.45l-.21.07c-3.62,1-7.72,2.23-9.24,1.29a1.28,1.28,0,0,1-.61-.86h0c-.3-1.6,1.19-2.54,2.31-2.92-.69-.44-2-1.4-2.06-2.44a1.53,1.53,0,0,1,.78-1.35c1.79-1.27,5.45.73,8.3,2.72-2.39-2.51-4.75-5.17-4.71-6.8a1.29,1.29,0,0,1,.42-.95,1.77,1.77,0,0,1,1.37-.51,3.85,3.85,0,0,1,2.17,1.11c0-.86.18-2.57,1-3.12a1.42,1.42,0,0,1,1.47.05c2.13,1.1,2.09,6.31,1.79,9.92.9-3.79,1.93-7.93,3.42-8.77a1.16,1.16,0,0,1,1-.1c1.64.54,1.47,2.56,1.3,3.51.7-.42,2.11-1.14,3-.73a1.52,1.52,0,0,1,.76,1.38c.15,2.07-2.73,4.29-5.72,6,3.13-.93,6.28-1.71,7.57-.94a1.24,1.24,0,0,1,.6.86c.32,1.59-1.17,2.55-2.29,2.95.69.43,2,1.37,2.07,2.4a1.54,1.54,0,0,1-.77,1.37c-1.8,1.3-5.51-.68-8.33-2.6,2.53,2.41,5.07,5,5.11,6.64a1.35,1.35,0,0,1-.37,1,1.85,1.85,0,0,1-1.34.58h0a3.89,3.89,0,0,1-2.23-1c0,.87-.05,2.58-.89,3.17A1.11,1.11,0,0,1,223.14,67.18Zm-2.41-13,0,.34c-.16,1.81-.86,10.91,1.83,12.12a1,1,0,0,0,1.06,0c.77-.54.77-2.57.7-3.31l-.05-.58.4.43a4.11,4.11,0,0,0,2.31,1.22,1.33,1.33,0,0,0,1.05-.46.9.9,0,0,0,.26-.68c0-1.67-3.26-4.72-5.85-7.17L221,54.69l.27-.3c1.86,1.47,8.13,6.15,10.42,4.49a1.15,1.15,0,0,0,.6-1c-.06-1-1.65-2-2.26-2.3l-.48-.25.52-.13s2.83-.73,2.46-2.62a.88.88,0,0,0-.42-.59c-1.37-.82-5.55.45-8.91,1.48l-.22.07-.16-.38c2.78-1.44,7.42-4.2,7.24-6.57a1.15,1.15,0,0,0-.53-1c-.81-.38-2.45.57-3,1l-.47.34.16-.56s.83-2.94-.92-3.51a.74.74,0,0,0-.63.07c-1.39.78-2.46,5.3-3.32,8.93-.18.74-.35,1.46-.52,2.12l.88-.24-.94.5ZM215.23,62l-.13.57s-.7,3,1.07,3.47a.79.79,0,0,0,.63-.1c1.36-.85,2.22-5.42,2.92-9.09l.38-2h0l0-.1c0-.12,0-.24.07-.35l-.24.12c-4.4,2.3-9,5.58-8.73,7.91.07.54.26.88.58,1,.83.34,2.43-.69,3-1.12Zm-6.73-6.5a.89.89,0,0,0,.42.6c1.37.84,5.55-.37,8.91-1.34l2-.56.45-.13v0c.26-1.82,1.39-10.94-1.26-12.3a1,1,0,0,0-1.06-.07c-.79.5-.88,2.53-.85,3.26l0,.59-.39-.44a4,4,0,0,0-2.25-1.34,1.39,1.39,0,0,0-1.07.4.91.91,0,0,0-.28.66c0,1.67,3,4.89,5.52,7.47l.72.76-.27.3c-2.23-1.74-7.64-5.61-9.74-4.13a1.14,1.14,0,0,0-.6,1c.06,1,1.65,2,2.25,2.35l.48.26-.53.12s-2.82.68-2.46,2.58Z"/><path class="cls-5" d="M217.38,54a3.07,3.07,0,1,0,3.32-2.41A2.91,2.91,0,0,0,217.38,54Z"/><path d="M220.49,57.25l-.37,0a3.45,3.45,0,0,1-2.2-1.08,2.76,2.76,0,0,1-.74-2.17h0a3.12,3.12,0,0,1,3.54-2.59A3.46,3.46,0,0,1,223,52.6a2.8,2.8,0,0,1,.63,2A3.07,3.07,0,0,1,220.49,57.25ZM217.58,54a2.35,2.35,0,0,0,.64,1.85,3,3,0,0,0,1.94,1,2.71,2.71,0,0,0,3.1-2.22,2.35,2.35,0,0,0-.55-1.74,3,3,0,0,0-2-1.06,2.71,2.71,0,0,0-3.1,2.22Z"/><path class="cls-1" d="M190.41,73.84c.29,6.28.62,12.57.3,18.86a109.41,109.41,0,0,1-2.59,18.36A215,215,0,0,1,176.59,147c-.78,1.87-3.5.27-2.73-1.59a210.38,210.38,0,0,0,11.21-35.17,104.53,104.53,0,0,0,2.51-18.12c.27-6.09,0-12.18-.33-18.26C187.16,71.84,190.32,71.81,190.41,73.84Z"/><path d="M175.44,148.05a2,2,0,0,1-1.52-.81,1.87,1.87,0,0,1-.25-1.89,209.94,209.94,0,0,0,11.2-35.14,103.17,103.17,0,0,0,2.51-18.09c.25-5.8,0-11.7-.29-17.4l0-.84a1.63,1.63,0,0,1,1.63-1.75,1.76,1.76,0,0,1,1.93,1.7l0,.84c.28,5.91.57,12,.26,18a110.67,110.67,0,0,1-2.59,18.39,215.15,215.15,0,0,1-11.54,36,1.47,1.47,0,0,1-1.15.95Zm13.34-75.51h-.08a1.21,1.21,0,0,0-1.24,1.32l0,.84c.26,5.71.54,11.62.29,17.44a105.06,105.06,0,0,1-2.52,18.16,210.37,210.37,0,0,1-11.22,35.2,1.45,1.45,0,0,0,.2,1.49,1.52,1.52,0,0,0,1.33.64,1,1,0,0,0,.82-.7A214.33,214.33,0,0,0,187.92,111a109.74,109.74,0,0,0,2.59-18.32c.3-6,0-12.1-.26-18l0-.84A1.35,1.35,0,0,0,188.78,72.54Z"/><path class="cls-6" d="M190.92,71.66c7.22-12-7.27-13.33-1.79-.17-5.48-13.16-15.58-2.68-1.25,1.3-14.33-4-12.44,10.45.24,1.78-12.68,8.67-.21,16.19,1.54.93-1.75,15.26,11.89,10.2,1.69-.62,10.2,10.82,14.76-3,.56-1.71C206.11,71.88,198.14,59.7,190.92,71.66Z"/><path d="M193,85.29a2.13,2.13,0,0,1-.77-.14c-1.42-.51-2.86-2.53-3-6.57-1.05,4-3,5.69-4.54,5.88a2.07,2.07,0,0,1-2.29-1.38c-.56-1.46,0-4,3.08-6.76-3.62,1.79-6.08,1.46-7.19.45a2.12,2.12,0,0,1-.42-2.69c.77-1.39,3-2.59,7-2.09-3.48-1.53-4.72-3.49-4.65-5a2.21,2.21,0,0,1,1.9-2.09c1.53-.26,3.8.69,5.79,3.94-.88-3.51-.07-5.62,1.16-6.47a2.25,2.25,0,0,1,2.91.23c1.09,1,1.65,3.3.28,6.67,2.34-2.79,4.61-3.35,6-2.87A2.25,2.25,0,0,1,200,68.87c-.18,1.49-1.67,3.18-5.18,4,3.8.25,5.7,1.81,6.18,3.29a2.19,2.19,0,0,1-1,2.65c-1.3.77-3.62.59-6.59-1.77,2.3,3.3,2.3,5.86,1.43,7.18A2.14,2.14,0,0,1,193,85.29Zm-3.18-9.76c-.68,5.89.95,8.66,2.55,9.24A1.72,1.72,0,0,0,194.5,84c1.06-1.62.46-5-3.3-9l.3-.28c3.87,4.11,6.89,4.6,8.29,3.76a1.77,1.77,0,0,0,.78-2.18c-.54-1.67-3.13-3.45-8.64-2.95l0-.4c5.35-.49,7.47-2.54,7.67-4.15a1.86,1.86,0,0,0-1.3-2c-1.59-.55-4.42.43-7.16,5l-.35-.21c2.74-4.55,2.29-7.51,1.07-8.66a1.87,1.87,0,0,0-2.41-.2c-1.33.92-2.15,3.76-.09,8.72l-.37.15c-2.13-5.11-4.92-6.57-6.65-6.26a1.77,1.77,0,0,0-1.56,1.7c-.08,1.63,1.76,4.07,7.2,5.58l-.11.4c-5.28-1.47-8.58-.41-9.52,1.29a1.72,1.72,0,0,0,.33,2.19c1.26,1.14,4.47,1.29,9.36-2.06l.23.33c-4.65,3.18-6,6.41-5.37,8.19a1.68,1.68,0,0,0,1.86,1.13c1.89-.24,4.09-3,4.74-8.58Z"/><line class="cls-6" x1="190.47" y1="65.44" x2="190.3" y2="69.71"/><rect x="188.25" y="67.37" width="4.27" height="0.41" transform="translate(115.52 255.22) rotate(-87.79)"/><line class="cls-6" x1="193.19" y1="71.63" x2="196.93" y2="69.06"/><rect x="192.79" y="70.14" width="4.54" height="0.41" transform="translate(-5.57 122.71) rotate(-34.46)"/><line class="cls-6" x1="193.75" y1="74.91" x2="198.14" y2="76.67"/><rect x="195.74" y="73.43" width="0.41" height="4.72" transform="translate(52.5 229.29) rotate(-68.09)"/><line class="cls-6" x1="191.7" y1="77.67" x2="193.11" y2="82.29"/><rect x="192.2" y="77.57" width="0.41" height="4.83" transform="translate(-14.98 59.75) rotate(-17)"/><line class="cls-6" x1="187.08" y1="77.45" x2="185.06" y2="81.54"/><rect x="183.78" y="79.29" width="4.57" height="0.41" transform="translate(32.3 211.01) rotate(-63.67)"/><line class="cls-6" x1="180.84" y1="74.67" x2="185.22" y2="74.24"/><rect x="180.83" y="74.25" width="4.4" height="0.41" transform="translate(-6.3 17.92) rotate(-5.51)"/><line class="cls-6" x1="183.66" y1="67.67" x2="186.89" y2="70.58"/><rect x="185.07" y="66.95" width="0.41" height="4.35" transform="translate(9.91 160.51) rotate(-47.98)"/><path class="cls-7" d="M193,74.55a3.34,3.34,0,1,1-3-3.63A3.33,3.33,0,0,1,193,74.55Z"/><path d="M189.65,77.79h-.33a3.53,3.53,0,0,1-2.4-1.27,3.55,3.55,0,0,1,.46-5,3.45,3.45,0,0,1,2.59-.8,3.55,3.55,0,0,1,3.21,3.85h0a3.56,3.56,0,0,1-3.53,3.22Zm0-6.68A3.13,3.13,0,0,0,186.52,74a3.14,3.14,0,1,0,3.42-2.84Z"/><path class="cls-1" d="M155.23,81.63a85.78,85.78,0,0,1-3.48,14.22A148,148,0,0,1,146.2,110l2.47.62.73.19a142.92,142.92,0,0,0,5.74-14.86,89.84,89.84,0,0,0,3.38-14.19,73.79,73.79,0,0,0,.27-14.33c-.11-2.1-3.35-1.67-3.24.43A69,69,0,0,1,155.23,81.63Z"/><path d="M149.52,111l-.9-.23-2.47-.62-.24-.06.1-.22a144.75,144.75,0,0,0,5.55-14.12A86.35,86.35,0,0,0,155,81.6h0a68.83,68.83,0,0,0,.31-13.74,1.91,1.91,0,0,1,1.88-2A1.57,1.57,0,0,1,159,67.41a74.43,74.43,0,0,1-.27,14.36A89.16,89.16,0,0,1,155.34,96a143,143,0,0,1-5.75,14.89Zm-3-1.19,2.24.57.56.14A140.11,140.11,0,0,0,155,95.88a88.62,88.62,0,0,0,3.37-14.16,74.49,74.49,0,0,0,.27-14.29,1.19,1.19,0,0,0-1.35-1.18,1.51,1.51,0,0,0-1.49,1.59,69.69,69.69,0,0,1-.32,13.82A87.14,87.14,0,0,1,152,95.92,146,146,0,0,1,146.48,109.85Z"/><path class="cls-6" d="M157.58,59.38c6.26-15.72,18.19-2.74,1.47,1.61,16.72-4.35,14,13.07-.33,2.15,14.34,10.92-1,19.67-1.89,1.08.92,18.59-15.47,12.07-2-.8-13.44,12.87-18.55-4-.63-2.09-17.92-1.92-7.92-16.44,1.23-1.79C146.25,44.89,163.84,43.66,157.58,59.38Z"/><path d="M151.94,76a2.45,2.45,0,0,1-2.16-1.3c-1-1.67-.72-4.85,2.54-8.89-4.08,3-7.17,3.14-8.72,2.14a2.52,2.52,0,0,1-1-3.08c.65-1.83,3.19-3.73,8.24-3.87-6-1.44-6.72-4.42-6.79-5.09a2.61,2.61,0,0,1,1.83-2.82c1.8-.64,4.76.09,7.84,3.76-1.88-4.15-1.35-6.9,0-8.18a2.69,2.69,0,0,1,3.47-.29c1.52,1,2.64,3.7,1.56,8.14,2.27-4,4.93-5.14,6.74-4.84a2.68,2.68,0,0,1,2.32,2.6c.08,1.84-1.42,4.2-5.63,5.93,4.74-.55,7.4,1,8.28,2.65a2.63,2.63,0,0,1-.61,3.31c-.51.43-3.06,2.13-8.43-1,3.57,3.57,4.11,6.69,3.32,8.47a2.53,2.53,0,0,1-2.85,1.55c-1.82-.34-4-2.55-4.86-7.55-.41,5.18-2.41,7.66-4.26,8.21A2.82,2.82,0,0,1,151.94,76Zm3-12.42c-5.28,5.07-5.9,9-4.81,10.91a2.11,2.11,0,0,0,2.5,1c2.07-.62,4.36-3.93,4-11.24l.41,0c.36,7.21,2.86,10.21,4.9,10.59a2.13,2.13,0,0,0,2.41-1.31c1.33-3-1.93-7.28-5.74-10.19l.24-.32c5.47,4.16,9.19,4.14,10.72,2.86a2.2,2.2,0,0,0,.51-2.81c-1-1.91-4.45-3.54-11-1.84l-.11-.4c6.32-1.64,8.46-4.54,8.38-6.52a2.3,2.3,0,0,0-2-2.21c-2-.34-5.23,1.39-7.62,7.4l-.38-.15c2.39-6,1.25-9.47-.46-10.61a2.29,2.29,0,0,0-3,.24c-1.42,1.38-1.85,5,1.61,10.49l-.35.21c-3.57-5.7-7.2-6.9-9.23-6.19a2.2,2.2,0,0,0-1.56,2.39c.23,2,2.92,4.56,9.75,5.29l0,.4c-4.77-.5-10.08.36-11.17,3.46a2.11,2.11,0,0,0,.85,2.6c1.74,1.13,5.62.67,10.83-4.32Z"/><line class="cls-6" x1="163.91" y1="55.27" x2="159.92" y2="58.55"/><rect x="159.33" y="56.71" width="5.17" height="0.41" transform="translate(0.74 115.88) rotate(-39.46)"/><line class="cls-6" x1="155.96" y1="57.18" x2="155.69" y2="51.68"/><rect x="155.62" y="51.68" width="0.41" height="5.5" transform="translate(-2.43 7.55) rotate(-2.75)"/><line class="cls-6" x1="152.38" y1="59.03" x2="147.47" y2="56.09"/><rect x="149.72" y="54.7" width="0.41" height="5.72" transform="translate(23.58 156.7) rotate(-59.12)"/><line class="cls-6" x1="151.21" y1="63.04" x2="145.73" y2="65.06"/><rect x="145.55" y="63.85" width="5.85" height="0.41" transform="translate(-12.98 55.12) rotate(-20.17)"/><line class="cls-6" x1="154.81" y1="67.33" x2="152.35" y2="72.28"/><rect x="150.81" y="69.6" width="5.53" height="0.41" transform="translate(22.59 176.11) rotate(-63.5)"/><line class="cls-6" x1="162.07" y1="71.31" x2="159.27" y2="66.77"/><rect x="160.46" y="66.38" width="0.41" height="5.33" transform="translate(-12.33 94.56) rotate(-31.65)"/><line class="cls-6" x1="166.76" y1="63.46" x2="161.58" y2="62.48"/><rect x="163.96" y="60.33" width="0.41" height="5.27" transform="translate(71.61 212.47) rotate(-79.22)"/><path class="cls-7" d="M153.29,59.52a4,4,0,1,0,5.72.25A4,4,0,0,0,153.29,59.52Z"/><path d="M156,66.76a4.26,4.26,0,1,1,2.87-1.12A4.21,4.21,0,0,1,156,66.76Zm0-8.1a3.79,3.79,0,0,0-2.59,1,3.84,3.84,0,1,0,2.76-1Z"/><path class="cls-1" d="M160.9,119.7c1.06-3.3,2.11-6.61,3.12-9.91,4.92-16.05,9.36-32.47,11.63-49.13,1.29-9.45,1.87-19,2.6-28.48.22-2.83-4.18-3.65-4.4-.78-.64,8.35-1.16,16.72-2.16,25a234.59,234.59,0,0,1-4.41,24.24c-3,13.13-6.77,26.06-11,38.84Q158.58,119.6,160.9,119.7Z"/><path d="M161.05,119.91h-.16c-1.52-.07-3.08-.13-4.65-.18H156l.09-.26c4.68-14.06,8.29-26.75,11-38.81a232.24,232.24,0,0,0,4.41-24.23c.8-6.71,1.31-13.58,1.8-20.22l.36-4.81a2,2,0,0,1,2.31-2,2.62,2.62,0,0,1,2.49,2.79l-.36,4.8c-.57,7.78-1.16,15.82-2.24,23.69-2.42,17.79-7.24,34.83-11.64,49.16-.94,3.08-2,6.33-3.11,9.91Zm-4.52-.59c1.42.05,2.84.1,4.23.17,1.13-3.53,2.13-6.72,3.06-9.76,4.39-14.31,9.21-31.33,11.63-49.1,1.07-7.85,1.66-15.89,2.24-23.66.12-1.6.23-3.2.36-4.8a2.21,2.21,0,0,0-2.12-2.35,1.64,1.64,0,0,0-1.88,1.6c-.12,1.6-.24,3.2-.35,4.8-.49,6.65-1,13.52-1.8,20.24a235.79,235.79,0,0,1-4.42,24.27C164.76,92.73,161.18,105.35,156.53,119.32Z"/><path class="cls-6" d="M177,26.09c-2.49-22.87,20.11-14.87,2.79,1,17.32-15.86,25.15,6.8,1,2.8,24.18,4,11.34,24.24-1.59,2.5,12.93,21.74-10.9,24.33-2.94.32-8,24-24.84,7-2.09-2.1-22.75,9.1-20-14.71.35-2.94C154.14,15.89,174.48,3.22,177,26.09Z"/><path d="M179.22,49.92a3.52,3.52,0,0,1-1.86-.55c-2.26-1.41-4-5.56-2.43-12.83-3,6.63-6.75,8.85-9.3,8.64a3.35,3.35,0,0,1-3.11-3c-.4-2.69,1.58-6.74,8-10.17-4.82,1.31-9.95,1.48-12-1.54a3.49,3.49,0,0,1,.4-4.47c1.8-1.94,6-2.94,12.26-.22-5.25-3.89-6.46-7.65-5.67-10.09a3.58,3.58,0,0,1,3.92-2.5c3.79.39,6.07,4.81,7.15,9.46.05-4.77,1.33-9.58,4.94-10.78a3.6,3.6,0,0,1,4.37,1.61c1.29,2.21.92,6.14-3.37,11.07,5.55-4,9.85-3.93,12-2.42a3.49,3.49,0,0,1,1.35,4.28c-1.38,3.4-6.43,4.34-11.42,4.08,7.06,2,9.86,5.5,10,8.21a3.36,3.36,0,0,1-2.39,3.6c-2.45.76-6.57-.62-10.94-6.44,3.1,6.76,2.28,11.18.38,13A3.38,3.38,0,0,1,179.22,49.92Zm-2.83-17.15c-3.14,9.49-1.32,14.68,1.19,16.25a2.92,2.92,0,0,0,3.72-.4c2.12-2.08,2.78-7.54-2.33-16.13l.35-.21c5,8.46,10,10.48,12.71,9.63a3,3,0,0,0,2.1-3.18c-.21-3-3.85-7.06-13.43-8.65l.06-.4c9.26,1.53,13.74-.89,14.77-3.43a3.09,3.09,0,0,0-1.2-3.79c-2.42-1.68-7.65-1.44-14.43,4.77l-.28-.3c6.58-6,7.31-10.9,5.93-13.25a3.19,3.19,0,0,0-3.88-1.42c-2.67.88-5.45,5-4.5,13.81l-.4,0c-1-8.78-4.56-12.23-7.36-12.52a3.2,3.2,0,0,0-3.49,2.23c-.84,2.58.92,7.19,8.64,11.66l-.21.35c-7.95-4.6-13.11-3.71-15.12-1.55a3.1,3.1,0,0,0-.36,4c1.56,2.25,6.46,3.65,15.17.17l.15.38c-9,3.61-11.71,8.36-11.27,11.33a3,3,0,0,0,2.74,2.65C168.52,45,172.91,42,176,32.64Z"/><line class="cls-6" x1="181.96" y1="17.12" x2="179.25" y2="23.6"/><rect x="177.09" y="20.16" width="7.03" height="0.41" transform="translate(92.16 179.14) rotate(-67.31)"/><line class="cls-6" x1="173.62" y1="24.47" x2="169.81" y2="18.04"/><rect x="171.51" y="17.52" width="0.41" height="7.48" transform="matrix(0.86, -0.51, 0.51, 0.86, 13.16, 90.51)"/><line class="cls-6" x1="170.5" y1="28.98" x2="162.73" y2="28.57"/><rect x="166.41" y="24.89" width="0.41" height="7.78" transform="translate(129.22 193.67) rotate(-87.02)"/><line class="cls-6" x1="171.65" y1="34.53" x2="166.34" y2="40.45"/><rect x="165.02" y="37.29" width="7.95" height="0.41" transform="translate(28.23 138.24) rotate(-48.1)"/><line class="cls-6" x1="178.7" y1="37.4" x2="178.89" y2="44.92"/><rect x="178.59" y="37.4" width="0.41" height="7.52" transform="translate(-0.96 4.4) rotate(-1.41)"/><line class="cls-6" x1="189.95" y1="37.57" x2="183.7" y2="33.89"/><polygon points="189.84 37.74 183.6 34.07 183.8 33.72 190.05 37.39 189.84 37.74"/><line class="cls-6" x1="190.59" y1="25.15" x2="183.74" y2="27.26"/><rect x="183.58" y="26.01" width="7.16" height="0.41" transform="translate(0.58 56.3) rotate(-17.13)"/><path class="cls-7" d="M171.91,29a5.5,5.5,0,1,0,7-3.34A5.5,5.5,0,0,0,171.91,29Z"/><path d="M177.08,36.54a5.57,5.57,0,0,1-1.91-.33,5.72,5.72,0,0,1-3.46-7.29h0a5.71,5.71,0,1,1,5.37,7.62Zm0-11a5.29,5.29,0,0,0-5,3.52h0a5.3,5.3,0,1,0,9.77-.5,5.23,5.23,0,0,0-3-2.71A5.31,5.31,0,0,0,177.08,25.54Z"/><path class="cls-1" d="M123.07,118.31c-.71-3.39-1.41-6.79-2.07-10.18-3.22-16.48-5.93-33.27-6.45-50.07-.3-9.53.11-19.07.38-28.6.08-2.84,4.54-3.19,4.45-.32-.23,8.38-.58,16.75-.46,25.13a237.46,237.46,0,0,0,1.86,24.57c1.6,13.37,4,26.63,6.93,39.77C126.16,118.5,124.62,118.4,123.07,118.31Z"/><path d="M128,118.83l-.27,0c-1.55-.11-3.11-.21-4.65-.29h-.15l0-.16c-.77-3.68-1.45-7-2.07-10.18-2.88-14.71-5.9-32.16-6.46-50.11-.24-7.93,0-16,.24-23.78l.15-4.82a2.47,2.47,0,0,1,1.33-2.17,2.7,2.7,0,0,1,2.6,0,2,2,0,0,1,.93,1.87L119.44,34c-.2,6.66-.41,13.54-.31,20.31A237,237,0,0,0,121,78.82c1.46,12.27,3.73,25.27,6.92,39.75Zm-4.74-.71c1.4.08,2.82.17,4.22.27C124.29,104,122,91.08,120.58,78.87a240.49,240.49,0,0,1-1.86-24.6c-.1-6.78.11-13.66.32-20.32,0-1.61.1-3.21.14-4.81a1.6,1.6,0,0,0-.73-1.51,2.27,2.27,0,0,0-2.2,0,2.07,2.07,0,0,0-1.12,1.82c0,1.61-.09,3.21-.14,4.82-.24,7.79-.49,15.84-.24,23.76.56,17.92,3.58,35.35,6.45,50C121.81,111.21,122.48,114.5,123.23,118.12Z"/><path class="cls-6" d="M116.84,23.54c4.85-22.49-18.45-16.88-2.88.69-15.57-17.57-25.72,4.14-1.26,2.69C88.24,28.37,98.9,49.85,114,29.57c-15.12,20.28,8.31,25.33,2.9.63,5.41,24.7,24,9.54,2.29-1.88,21.68,11.42,21.4-12.55,0-3C140.61,15.77,121.69,1.05,116.84,23.54Z"/><path d="M112.45,47a3.3,3.3,0,0,1-2.58-1.27c-1.7-2-2.05-6.54,1.73-12.94-4.95,5.34-9.2,6.28-11.55,5.26a3.34,3.34,0,0,1-2-3.82c.47-2.68,3.63-5.9,10.85-7.12-5-.27-9.91-1.72-10.93-5.25a3.47,3.47,0,0,1,1.78-4.11c2.32-1.28,6.6-.91,11.71,3.65-3.76-5.35-3.71-9.3-2.2-11.36a3.6,3.6,0,0,1,4.51-1.14c3.47,1.57,4.24,6.49,3.8,11.23,1.55-4.5,4.28-8.66,8.08-8.66h0a3.58,3.58,0,0,1,3.63,2.9c.54,2.5-1,6.11-6.68,9.44,6.53-2,10.58-.63,12.17,1.5a3.48,3.48,0,0,1-.07,4.48c-2.38,2.79-7.47,2.09-12.13.28,6.08,4.09,7.63,8.32,7,11a3.35,3.35,0,0,1-3.4,2.65c-2.56,0-6-2.65-8.35-9.56.81,7.4-1.36,11.34-3.76,12.51A3.61,3.61,0,0,1,112.45,47Zm1.73-17.33c-6,8-5.89,13.52-4,15.8a2.92,2.92,0,0,0,3.66.79c2.67-1.3,5-6.28,2.88-16l.39-.09c2.11,9.62,6.18,13.09,9,13.15h.06A3,3,0,0,0,129.14,41c.75-2.92-1.43-7.92-10-12.45l.19-.36c8.3,4.37,13.32,3.49,15.1,1.41a3.11,3.11,0,0,0,.06-4c-1.77-2.36-6.81-3.78-15.2,0l-.17-.37c8.14-3.64,10.37-8,9.81-10.7a3.21,3.21,0,0,0-3.24-2.58h0c-2.81,0-6.75,3.06-8.61,11.69l-.4-.08c1.86-8.64-.47-13-3-14.21a3.2,3.2,0,0,0-4,1c-1.61,2.19-1.4,7.12,4.52,13.8l-.31.27c-6.09-6.88-11.27-7.67-13.85-6.25a3.09,3.09,0,0,0-1.59,3.65c.76,2.63,5,5.5,14.33,4.94l0,.41C103,27.7,99,31.36,98.45,34.32a3,3,0,0,0,1.76,3.38c2.62,1.13,7.76-.36,13.65-8.25Z"/><line class="cls-6" x1="112.8" y1="14.09" x2="114.82" y2="20.83"/><rect x="113.61" y="13.94" width="0.41" height="7.03" transform="translate(-0.22 33.44) rotate(-16.7)"/><line class="cls-6" x1="120.34" y1="22.27" x2="124.8" y2="16.27"/><rect x="118.83" y="19.07" width="7.48" height="0.41" transform="translate(33.97 106.13) rotate(-53.37)"/><line class="cls-6" x1="122.98" y1="27.08" x2="130.74" y2="27.49"/><rect x="126.66" y="23.4" width="0.41" height="7.78" transform="translate(92.97 152.54) rotate(-87)"/><line class="cls-6" x1="121.25" y1="32.49" x2="125.91" y2="38.93"/><rect x="123.38" y="31.73" width="0.41" height="7.95" transform="translate(2.55 79.28) rotate(-35.91)"/><line class="cls-6" x1="113.93" y1="34.6" x2="112.97" y2="42.06"/><rect x="109.69" y="38.13" width="7.52" height="0.41" transform="translate(60.78 145.88) rotate(-82.57)"/><line class="cls-6" x1="102.73" y1="33.6" x2="109.33" y2="30.6"/><rect x="102.41" y="31.89" width="7.25" height="0.41" transform="translate(-3.77 46.81) rotate(-24.47)"/><line class="cls-6" x1="103.39" y1="21.19" x2="109.98" y2="24"/><rect x="106.48" y="19.01" width="0.41" height="7.16" transform="translate(44.04 111.86) rotate(-66.9)"/><path class="cls-7" d="M121.57,27a5.5,5.5,0,1,1-6.64-4.05A5.5,5.5,0,0,1,121.57,27Z"/><path d="M116.21,34a5.71,5.71,0,1,1,5.56-7.05h0A5.7,5.7,0,0,1,116.21,34Zm0-11a5.36,5.36,0,0,0-1.25.16,5.3,5.3,0,0,0-1.51,9.67,5.29,5.29,0,0,0,7.9-5.77h0a5.31,5.31,0,0,0-5.14-4.06Z"/><polygon class="cls-3" points="34.9 95.17 64.23 80.99 86.24 130.81 80.41 133.5 61.15 88.98 37.63 100.3 34.9 95.17"/><path d="M80.3,133.78l-.08-.2L61.05,89.26l-23.5,11.3-2.93-5.49.19-.09L64.33,80.72l.08.19,22.1,50Zm-19-45.07,19.25,44.52L86,130.71,64.13,81.27l-28.95,14L37.72,100Z"/><rect x="25.8" y="91.81" width="25.38" height="8.88" transform="translate(-36.94 25.14) rotate(-24.89)"/><path d="M28.75,105.89l-3.91-8.42.19-.09,23.2-10.77L52.14,95Zm-3.37-8.23L29,105.35,51.6,94.84,48,87.16Z"/><polygon class="cls-3" points="202.24 202.05 206.53 201.41 206.21 163.85 196.7 164.98 202.24 202.05"/><path d="M202.07,202.28l0-.2-5.57-37.28,9.94-1.17.33,38Zm-5.13-37.12,5.47,36.66,3.92-.59L206,164.08Z"/><path class="cls-2" d="M186.86,202.15a16.76,16.76,0,1,0,14.76-18.53A16.75,16.75,0,0,0,186.86,202.15Zm2.23-.25a14.51,14.51,0,1,1,16,12.78A14.5,14.5,0,0,1,189.09,201.9Z"/><path d="M203.5,217.23a17,17,0,0,1-16.84-15.06h0a17,17,0,1,1,18.76,15A18,18,0,0,1,203.5,217.23Zm-16.44-15.1a16.56,16.56,0,1,0,14.59-18.31,16.57,16.57,0,0,0-14.59,18.31ZM203.5,215a14.68,14.68,0,1,1,1.67-.09A15.71,15.71,0,0,1,203.5,215Zm-14.21-13.11a14.31,14.31,0,1,0,3-10.52,14.33,14.33,0,0,0-3,10.52Z"/><line class="cls-2" x1="209.32" y1="187.11" x2="197.7" y2="213.49"/><rect x="189.1" y="200.1" width="28.82" height="0.41" transform="translate(-61.79 305.92) rotate(-66.25)"/><line class="cls-2" x1="216.7" y1="206.11" x2="190.32" y2="194.5"/><rect x="203.31" y="185.89" width="0.41" height="28.82" transform="translate(-61.8 305.88) rotate(-66.24)"/><line class="cls-2" x1="216.94" y1="195.08" x2="190.08" y2="205.52"/><rect x="189.1" y="200.1" width="28.82" height="0.41" transform="translate(-58.7 87.24) rotate(-21.22)"/><line class="cls-2" x1="208.73" y1="213.73" x2="198.29" y2="186.87"/><rect x="203.31" y="185.89" width="0.41" height="28.82" transform="translate(-58.75 87.35) rotate(-21.24)"/><circle class="cls-2" cx="203.62" cy="200.84" r="4.14" transform="translate(-78.7 246.54) rotate(-53.8)"/><path d="M203.61,205.18a4.33,4.33,0,0,1-4.28-3.7h0a4.34,4.34,0,1,1,4.94,3.65A4.89,4.89,0,0,1,203.61,205.18Zm-3.88-3.76a3.93,3.93,0,1,0,3.31-4.48,4,4,0,0,0-3.31,4.48Z"/><path class="cls-3" d="M137.74,176.51l-8.53-4.37-14,27.24a.92.92,0,0,1-1.66,0l-13.18-28.77-8.9,3.59,19.4,39.56a3.17,3.17,0,0,0,5.6.17Z"/><path d="M113.7,215.7h-.11a3.32,3.32,0,0,1-2.92-1.88l-19.5-39.76,9.28-3.74,13.26,28.95a.71.71,0,0,0,.64.42.68.68,0,0,0,.66-.39l14.11-27.43,8.91,4.57-.11.18L116.62,214A3.3,3.3,0,0,1,113.7,215.7Zm-22-41.43L111,213.63a2.93,2.93,0,0,0,2.56,1.66,2.89,2.89,0,0,0,2.67-1.5l21.19-37.2-8.17-4.18-13.92,27.06a1.13,1.13,0,0,1-2,0l-13.09-28.6Z"/><polygon class="cls-3" points="84.7 181.57 215.87 169.45 231.51 103.24 70.63 95.59 84.7 181.57"/><path d="M84.53,181.79l0-.19L70.38,95.37l.25,0,161.13,7.66-.06.24L216,169.64h-.15Zm-13.66-86,14,85.54,130.83-12.09,15.54-65.83Z"/><line class="cls-8" x1="228.83" y1="115.17" x2="73.69" y2="111.79"/><rect x="151.06" y="35.89" width="0.41" height="155.18" transform="translate(34.51 262.23) rotate(-88.75)"/><line class="cls-8" x1="225.41" y1="128.83" x2="76.73" y2="130.21"/><rect x="76.73" y="129.32" width="148.68" height="0.41" transform="translate(-1.23 1.45) rotate(-0.55)"/><line class="cls-8" x1="221.31" y1="145.78" x2="79.74" y2="150.36"/><polygon points="79.75 150.57 79.74 150.16 221.31 145.58 221.32 145.99 79.75 150.57"/><line class="cls-8" x1="217.23" y1="162.24" x2="83.04" y2="170.9"/><rect x="82.9" y="166.37" width="134.47" height="0.41" transform="translate(-10.45 10.05) rotate(-3.7)"/><path d="M172.73,153.28h0a10.87,10.87,0,0,1-1.42,2.91,21.8,21.8,0,0,1-5.39,5.54.1.1,0,0,0,0,0c-.45.3-.91.59-1.37.85a24,24,0,0,1-19,1.79,26.74,26.74,0,0,1-5.87-2.65c-.49-.3-1-.62-1.44-1a15.16,15.16,0,0,1-5-5.68,10,10,0,0,1-1-4.37c0-.18,0-.36,0-.54.26-4.15,3.48-5.19,7.15-5h.08a41,41,0,0,1,9,1.8c.72.21,1.44.39,2.17.54l.71.13a15.16,15.16,0,0,0,2.44.23h.54q.3,0,.6,0c3-.21,5.82-1.45,8.81-1.66a12.19,12.19,0,0,1,2.09,0c2.16.17,4.59.83,5.94,2.21A4.69,4.69,0,0,1,172.73,153.28Z"/><path d="M153.11,165.8a25.56,25.56,0,0,1-7.64-1.18,27.06,27.06,0,0,1-5.92-2.68c-.48-.29-1-.62-1.45-.95a15.4,15.4,0,0,1-5.1-5.76,10.21,10.21,0,0,1-1-4.46c0-.18,0-.37,0-.55.24-3.65,2.71-5.42,7.37-5.24h.07a40.32,40.32,0,0,1,9,1.81c.81.23,1.49.4,2.15.53l.7.13a16,16,0,0,0,2.41.23h.54l.58,0a25.77,25.77,0,0,0,4.39-.83,26.06,26.06,0,0,1,4.43-.84,13.59,13.59,0,0,1,2.12,0c1.26.1,4.36.52,6.07,2.27a4.86,4.86,0,0,1,1,5.07l0,0a10.78,10.78,0,0,1-1.43,2.93A21.84,21.84,0,0,1,166,161.9l-.06,0c-.44.31-.91.6-1.38.87A23,23,0,0,1,153.11,165.8Zm-14.35-20.43c-4,0-6.12,1.6-6.33,4.87,0,.18,0,.36,0,.53a9.91,9.91,0,0,0,1,4.29,14.89,14.89,0,0,0,5,5.59c.47.34.95.65,1.42.95a27.38,27.38,0,0,0,5.83,2.63,23.65,23.65,0,0,0,18.8-1.77c.47-.27.93-.56,1.36-.85l.06,0a21.82,21.82,0,0,0,5.33-5.48,10.68,10.68,0,0,0,1.39-2.86h0a4.48,4.48,0,0,0-.95-4.66c-1.6-1.66-4.59-2.06-5.8-2.15a11.78,11.78,0,0,0-2.06,0,25.6,25.6,0,0,0-4.36.82,24.4,24.4,0,0,1-4.46.84l-.6,0h-.56a15.61,15.61,0,0,1-2.47-.24l-.72-.13c-.66-.14-1.35-.31-2.18-.54a40.08,40.08,0,0,0-8.93-1.8h-.69Z"/><path class="cls-7" d="M164.5,162.63a24,24,0,0,1-19,1.79,26.74,26.74,0,0,1-5.87-2.65,18.48,18.48,0,0,1,24.84.86Z"/><path d="M153.11,165.8a25.56,25.56,0,0,1-7.64-1.18,27.06,27.06,0,0,1-5.92-2.68l-.23-.14.2-.18a18.65,18.65,0,0,1,25.12.88l.18.18-.22.13A23,23,0,0,1,153.11,165.8ZM140,161.74a27,27,0,0,0,5.59,2.49,23.75,23.75,0,0,0,18.58-1.64,18.3,18.3,0,0,0-24.17-.85Z"/><path class="cls-6" d="M151.32,147.65l-.13,4.1a3.27,3.27,0,0,1-3.22,3.17l-14.73.23a9.8,9.8,0,0,1-1-4.38c0-.18,0-.36,0-.54.26-4.06,3.47-5.14,7.19-5h0a41,41,0,0,1,9,1.8c.72.21,1.44.39,2.17.54Z"/><path d="M133.12,155.35l-.06-.11a10.08,10.08,0,0,1-1.05-4.47c0-.18,0-.37,0-.55.23-3.59,2.71-5.37,7.39-5.24a40.26,40.26,0,0,1,9.07,1.81c.81.23,1.49.4,2.15.53l.7.13.18,0-.14,4.28a3.47,3.47,0,0,1-3.42,3.37Zm5.9-10c-4.22,0-6.37,1.59-6.58,4.86,0,.18,0,.36,0,.53a9.42,9.42,0,0,0,1,4.17l14.59-.22a3.06,3.06,0,0,0,3-3l.13-3.93-.55-.1c-.66-.14-1.35-.31-2.18-.54a40.08,40.08,0,0,0-8.93-1.8Z"/><path class="cls-6" d="M172.73,153.28h0a10.87,10.87,0,0,1-1.42,2.91l-14.76-1a3.13,3.13,0,0,1-2.9-3.19l.11-4.09h.54q.3,0,.6,0c3-.21,5.82-1.45,8.81-1.66a12.19,12.19,0,0,1,2.09,0c2.16.17,4.59.83,5.94,2.21A4.69,4.69,0,0,1,172.73,153.28Z"/><path d="M171.42,156.41l-14.88-1a3.32,3.32,0,0,1-3.09-3.4l.11-4.29h.74l.58,0a25.77,25.77,0,0,0,4.39-.83,26.06,26.06,0,0,1,4.43-.84,13.59,13.59,0,0,1,2.12,0c1.26.1,4.36.52,6.07,2.27a4.86,4.86,0,0,1,1,5.07l0,0a10.78,10.78,0,0,1-1.43,2.93ZM154,148.09l-.09,3.88a2.91,2.91,0,0,0,2.7,3l14.65,1a10.93,10.93,0,0,0,1.32-2.76h0a4.48,4.48,0,0,0-.95-4.66c-1.6-1.66-4.59-2.06-5.8-2.15a11.78,11.78,0,0,0-2.06,0,25.6,25.6,0,0,0-4.36.82,24.4,24.4,0,0,1-4.46.84l-.6,0Z"/><path d="M101.23,114.83a27.71,27.71,0,0,0-4.82-5.15,17.6,17.6,0,0,0-5.82-3.48l-.15-.06.15-.38.16.06a18.34,18.34,0,0,1,5.92,3.54,28.53,28.53,0,0,1,4.89,5.23Z"/><path d="M98.81,122.75a32.35,32.35,0,0,0-13-3.62l0-.41a33.18,33.18,0,0,1,6.49,1.07,32.74,32.74,0,0,1,6.66,2.6Z"/><path d="M86,132.64l-.14-.38a32.32,32.32,0,0,1,6-1.5,33.34,33.34,0,0,1,7-.31l0,.41a32.52,32.52,0,0,0-6.9.31A32,32,0,0,0,86,132.64Z"/><path class="cls-6" d="M144.58,126.62a24.28,24.28,0,1,1-23.86-24.69,22.52,22.52,0,0,1,3.2.27A24.28,24.28,0,0,1,144.58,126.62Z"/><path d="M120.33,150.7h-.44a24.49,24.49,0,0,1,.84-49A23.44,23.44,0,0,1,124,102a24.49,24.49,0,0,1-.84,48.54A22.42,22.42,0,0,1,120.33,150.7Zm0-48.57a24.08,24.08,0,0,0-.4,48.16,23.31,23.31,0,0,0,3.18-.15,24.09,24.09,0,0,0,.81-47.74,22.43,22.43,0,0,0-3.17-.27Z"/><circle cx="120.46" cy="125.75" r="19.16" transform="translate(-53.65 128.7) rotate(-47.2)"/><path d="M120.47,145.11l-.79,0a19.25,19.25,0,1,1,.79,0Zm0-38.32a19.06,19.06,0,1,0,.78,0Z"/><path d="M203.62,120.68l-.35-.2a28,28,0,0,1,4.24-5.77A18.22,18.22,0,0,1,213,110.5l.14-.07.2.35-.14.08a17.67,17.67,0,0,0-5.37,4.13A27.85,27.85,0,0,0,203.62,120.68Z"/><path d="M207,128.26l-.23-.34a33.5,33.5,0,0,1,6.31-3.36,33.09,33.09,0,0,1,6.32-1.82l.08.4a31.87,31.87,0,0,0-6.24,1.8A32.2,32.2,0,0,0,207,128.26Z"/><path d="M220.81,136.58a33,33,0,0,0-6-.77,31.86,31.86,0,0,0-6.89.51l-.07-.41a33.3,33.3,0,0,1,7-.51,32.15,32.15,0,0,1,6.09.79Z"/><path class="cls-6" d="M210.83,128.9a24.3,24.3,0,0,1-21.48,23.72,22.78,22.78,0,0,1-3.21.16,24.29,24.29,0,0,1,.83-48.57,22.52,22.52,0,0,1,3.2.27A24.28,24.28,0,0,1,210.83,128.9Z"/><path d="M186.59,153h-.45a24.49,24.49,0,0,1,.41-49H187a23.16,23.16,0,0,1,3.22.27A24.53,24.53,0,0,1,211,128.9h0a24.55,24.55,0,0,1-21.67,23.92A22.37,22.37,0,0,1,186.59,153Zm0-48.57a24.08,24.08,0,0,0-.4,48.16,23.31,23.31,0,0,0,3.18-.15,24.09,24.09,0,0,0,.81-47.74,22.55,22.55,0,0,0-3.17-.27Z"/><circle cx="186.73" cy="128.41" r="19.16" transform="translate(-19.59 222.15) rotate(-58.95)"/><path d="M186.75,147.77l-.8,0a19.36,19.36,0,1,1,20.13-18.57h0a19.38,19.38,0,0,1-19.33,18.59Zm0-38.32a19,19,0,0,0-.75,37.89,19,19,0,0,0,19.7-18.17h0a19,19,0,0,0-18.18-19.7Z"/><path class="cls-4" d="M159.12,137.74a5.52,5.52,0,1,1-5.34-5.7A5.52,5.52,0,0,1,159.12,137.74Z"/><path d="M153.6,143.29h-.19a5.73,5.73,0,0,1-3.73-9.91,5.73,5.73,0,1,1,3.92,9.91Zm0-11a5.32,5.32,0,0,0-5.31,5.15,5.32,5.32,0,0,0,10.64.34h0a5.33,5.33,0,0,0-5.15-5.49Z"/><path d="M233.21,216.38c-.52-6.34-12.41-9.51-21.15-11-14.46-2.42-30,4.28-44.64,2.31-8.83-1.19-15.92-3-25.83-3.21-12.38-.21-19.44,3.85-32.67,3.51-8.33-.21-15.28-1.74-23.32-2.16-9.84-.51-16.8,2.1-26.59,1.86-8.15-.2-18.31-1.87-24.31.67-5,2.1-10.11,3.32-9.66,8Z"/><path d="M24.86,216.61l0-.19c-.41-4.17,3.51-5.72,7.66-7.36.7-.27,1.41-.56,2.12-.86,4.53-1.91,11.34-1.46,17.93-1,2.27.15,4.41.29,6.47.34a79.54,79.54,0,0,0,12.72-.95,71.33,71.33,0,0,1,13.87-.9c3.67.19,7.17.62,10.56,1,4,.49,8.23,1,12.75,1.12a74.59,74.59,0,0,0,17-1.78,72,72,0,0,1,15.66-1.73,114.24,114.24,0,0,1,18.1,2c2.48.42,5.05.85,7.76,1.21,7.12,1,14.58-.16,21.79-1.24,7.58-1.13,15.42-2.31,22.86-1.06,17.1,2.85,21,7.64,21.32,11.15v.22Zm19.19-9.41a24.54,24.54,0,0,0-9.27,1.38l-2.13.86c-4.11,1.63-7.67,3-7.42,6.76l207.76,0c-.8-6.28-13.44-9.32-21-10.57-7.37-1.23-15.18-.06-22.73,1.07-7.24,1.08-14.73,2.2-21.91,1.24-2.71-.37-5.28-.8-7.77-1.22a114.76,114.76,0,0,0-18-2A71.71,71.71,0,0,0,126,206.44a75.25,75.25,0,0,1-17.1,1.79c-4.54-.12-8.74-.63-12.79-1.13-3.38-.41-6.88-.84-10.54-1A71.37,71.37,0,0,0,71.8,207a77.94,77.94,0,0,1-12.79,1c-2.07,0-4.22-.19-6.49-.34C49.67,207.39,46.78,207.2,44.05,207.2Z"/></g></svg>