<svg xmlns="http://www.w3.org/2000/svg" viewBox="0 0 231.76 225.92"><defs><style>.cls-1{fill:#6fc463;}.cls-2{fill:#355900;}.cls-3{fill:#bc96f1;}.cls-4{fill:#f3c51e;}.cls-5{fill:#ff744d;}.cls-6{fill:#fff;}.cls-7{fill:#f78992;}.cls-8{fill:#81349b;}</style></defs><g id="PREVIEW"><path class="cls-1" d="M43.63,223.25s-10.12-50-.43-50.34S43.63,223.25,43.63,223.25Z"/><path d="M43.64,224.33l-.21-1c0-.1-2.13-10.56-3.49-21.79-1.82-15.13-1.49-24.41,1-27.57a3,3,0,0,1,2.25-1.23,2.78,2.78,0,0,1,2.26,1.05c2.56,2.95,3.06,12.19,1.49,27.47-1.16,11.34-3.09,22-3.11,22.07Zm-.34-51.22h-.09a2.53,2.53,0,0,0-2,1.08c-5.26,6.68,1.09,41.37,2.36,47.95,1.15-6.65,6.92-41.89,1.52-48.12A2.34,2.34,0,0,0,43.3,173.11Z"/><path class="cls-1" d="M43.27,223.79s-20.89-41.36-11.9-46.92S43.27,223.79,43.27,223.79Z"/><path d="M43.52,224.75l-.44-.87c-.85-1.69-20.87-41.59-11.82-47.18a2.42,2.42,0,0,1,2.52-.16c3,1.59,5.6,10,7.59,25.1,1.48,11.17,2.09,22,2.1,22.14ZM32.68,176.66a2.24,2.24,0,0,0-1.2.39C23.47,182,40,216.72,43,222.8c-.42-6.53-3-42.56-9.41-45.9A1.91,1.91,0,0,0,32.68,176.66Z"/><path class="cls-1" d="M43.26,224.28S12.57,201.5,19,190.38,43.26,224.28,43.26,224.28Z"/><path d="M43.71,224.87l-.57-.43a134.91,134.91,0,0,1-14.57-12.8c-9.18-9.47-12.45-16.66-9.73-21.36a3.07,3.07,0,0,1,2.88-1.86c7.73.58,21.16,34.35,21.73,35.78Zm-22.2-36.05a2.72,2.72,0,0,0-2.32,1.66c-5.79,10,19.39,30,23.6,33.19-2-4.9-14.21-34.33-21.1-34.85Z"/><path class="cls-1" d="M43.07,224.28s30.69-22.78,24.24-33.9S43.07,224.28,43.07,224.28Z"/><path d="M42.62,224.87l.26-.67c.57-1.43,14-35.2,21.73-35.78a3,3,0,0,1,2.88,1.86c2.73,4.7-.55,11.89-9.73,21.36a134.91,134.91,0,0,1-14.57,12.8Zm22.2-36.05h-.18c-6.89.52-19.11,30-21.1,34.85,4.21-3.24,29.39-23.2,23.6-33.19A2.72,2.72,0,0,0,64.82,188.82Z"/><path class="cls-1" d="M43.37,224.06S47.64,172.13,56.56,178,43.37,224.06,43.37,224.06Z"/><path d="M43.09,225l.07-1c.15-1.75,3.61-42.89,11-46.48a2.44,2.44,0,0,1,2.56.24c9,5.87-12.22,44.71-13.12,46.36Zm12.09-47.28a1.92,1.92,0,0,0-.89.22c-6.52,3.18-10,38.75-10.63,45.16,3.14-5.89,20.73-39.75,12.79-45A2.3,2.3,0,0,0,55.18,177.71Z"/><path class="cls-1" d="M150.31,223.72s-5.57-27.53-.24-27.72S150.31,223.72,150.31,223.72Z"/><path d="M150.32,224.8l-.21-1c-.19-.94-4.63-23.09-1.35-27.26a1.73,1.73,0,0,1,1.31-.71,1.6,1.6,0,0,1,1.31.61c3.37,3.89-.7,26.4-.87,27.36Zm-.19-28.6h0a1.28,1.28,0,0,0-1,.56c-2.76,3.5.35,21.23,1.22,25.83.78-4.65,3.61-22.65.78-25.92A1.22,1.22,0,0,0,150.13,196.2Z"/><path class="cls-1" d="M150.11,224s-11.5-22.78-6.55-25.84S150.11,224,150.11,224Z"/><path d="M150.37,225l-.44-.87c-.47-.94-11.53-23-6.48-26.1a1.42,1.42,0,0,1,1.48-.09c4,2.09,5.33,25.11,5.38,26.09Zm-6.09-26.82a1.14,1.14,0,0,0-.61.19c-4.19,2.59,4.11,20.39,6.17,24.66-.3-4.57-1.75-23-5.1-24.73A1,1,0,0,0,144.28,198.16Z"/><path class="cls-1" d="M150.11,224.29s-16.9-12.55-13.35-18.67S150.11,224.29,150.11,224.29Z"/><path d="M150.56,224.88l-.58-.43a75.64,75.64,0,0,1-8-7.06c-5.09-5.25-6.89-9.25-5.37-11.87a1.76,1.76,0,0,1,1.67-1.07c4.31.32,11.73,19,12.05,19.76Zm-12.43-20a1.44,1.44,0,0,0-1.2.87c-3,5.26,9.76,15.66,12.71,17.95-1.41-3.44-7.8-18.55-11.42-18.82Z"/><path class="cls-1" d="M150,224.29s16.9-12.55,13.35-18.67S150,224.29,150,224.29Z"/><path d="M149.55,224.88l.26-.67c.32-.79,7.74-19.44,12.05-19.76a1.76,1.76,0,0,1,1.67,1.07c1.52,2.62-.28,6.62-5.37,11.87a75.64,75.64,0,0,1-8,7.06Zm12.43-20h-.09c-3.62.27-10,15.38-11.42,18.82,2.95-2.29,15.75-12.69,12.71-17.95A1.44,1.44,0,0,0,162,204.85Z"/><path class="cls-1" d="M150.17,224.16s2.35-28.59,7.26-25.38S150.17,224.16,150.17,224.16Z"/><path d="M149.89,225.1l.07-.95c.08-1,2-23.68,6.08-25.67a1.44,1.44,0,0,1,1.5.13c5,3.28-6.69,24.74-7.19,25.65Zm6.78-26.37a1.06,1.06,0,0,0-.45.11c-3.41,1.67-5.34,19.85-5.76,24.34,2.18-4.13,11-21.51,6.86-24.23A1.23,1.23,0,0,0,156.67,198.73Z"/><path class="cls-2" d="M98.74,114.73C95.58,112.85,48.52,84,56.53,75.87c5.8-5.91,38.65,33,43.4,38.66-6.53-8.21-38.43-49.22-28.21-54,7.85-3.69,25.86,45.66,28.92,54.21C98.39,106,86.38,57.35,97.13,57.14c8.56-.16,4.14,54.18,3.77,58.6h0Z"/><path class="cls-2" d="M110.44,113.58c-.51-2.85-7.68-45.76,1.32-45.21,6.52.4.35,40.05-.59,45.82,1.52-8.13,9.44-48.31,17.6-44.72,6.25,2.76-13.82,39-17.34,45.23,4-5.85,26.78-38.13,32.46-31.83,4.52,5-30.11,30.46-32.94,32.53h0Z"/><path d="M91.75,107.92C82.39,92.89,57.5,53,47.91,32.38l.37-.17C57.86,52.77,82.74,92.68,92.1,107.7Z"/><path d="M62.64,60c-1.91-1.36-4.61-3.68-7-5.73l-1.9-1.62A118.08,118.08,0,0,1,44.6,44l.29-.28A119.36,119.36,0,0,0,54,52.33L55.9,54c2.38,2,5.08,4.36,7,5.71Z"/><rect x="64.26" y="40.06" width="0.41" height="27.91" transform="translate(-10.1 15.11) rotate(-12.4)"/><rect x="66.27" y="65.33" width="0.41" height="20.89" transform="translate(-32.28 95.94) rotate(-60.28)"/><rect x="73.85" y="56.78" width="0.41" height="23.41" transform="translate(-4.83 5.63) rotate(-4.21)"/><path class="cls-3" d="M49.11,29.53c1,1.75,1,3.62,0,4.17s-2.59-.42-3.56-2.16-1-3.62,0-4.17S48.13,27.79,49.11,29.53Z"/><path d="M48.43,34.06c-1,0-2.27-.93-3.11-2.43A5.5,5.5,0,0,1,44.58,29a2,2,0,0,1,.87-1.81,2,2,0,0,1,2,.22,5.45,5.45,0,0,1,1.84,2c1,1.87,1,3.82-.12,4.44A1.52,1.52,0,0,1,48.43,34.06Zm-2.26-6.64a1.07,1.07,0,0,0-.53.13A1.58,1.58,0,0,0,45,29a5.09,5.09,0,0,0,.69,2.44c.9,1.62,2.4,2.57,3.28,2.08s.87-2.27,0-3.89h0a5.18,5.18,0,0,0-1.7-1.87A2.08,2.08,0,0,0,46.17,27.42Z"/><path class="cls-3" d="M44.54,41.56c1.57,1.24,2.27,3,1.57,3.86S43.56,46,42,44.79s-2.27-3-1.57-3.86S43,40.32,44.54,41.56Z"/><path d="M44.82,46.15a5,5,0,0,1-3-1.2,5.54,5.54,0,0,1-1.7-2.14,1.74,1.74,0,0,1,2-2.57,5.59,5.59,0,0,1,2.48,1.16h0a5.45,5.45,0,0,1,1.7,2.14,2,2,0,0,1-.1,2A1.79,1.79,0,0,1,44.82,46.15ZM41.7,40.61a1.37,1.37,0,0,0-1.12.45,1.59,1.59,0,0,0,0,1.6,5,5,0,0,0,1.58,2c1.45,1.15,3.21,1.46,3.83.66a1.57,1.57,0,0,0,0-1.59,5,5,0,0,0-1.57-2h0a5.06,5.06,0,0,0-2.29-1.07A2.22,2.22,0,0,0,41.7,40.61Z"/><path class="cls-3" d="M57.3,67.75c1.57,1.24,2.27,3,1.56,3.87s-2.55.61-4.12-.63-2.27-3-1.56-3.86S55.73,66.52,57.3,67.75Z"/><path d="M57.58,72.35a5,5,0,0,1-3-1.2A5.45,5.45,0,0,1,52.92,69a1.73,1.73,0,0,1,2-2.57,5.29,5.29,0,0,1,2.48,1.16h0c1.69,1.33,2.39,3.16,1.6,4.15A1.75,1.75,0,0,1,57.58,72.35Zm-3.13-5.54a1.36,1.36,0,0,0-1.11.44,1.57,1.57,0,0,0,0,1.6,5,5,0,0,0,1.57,2c1.45,1.15,3.21,1.45,3.83.66s-.07-2.43-1.53-3.57h0a5.18,5.18,0,0,0-2.29-1.07Z"/><path class="cls-3" d="M63.13,38.3c.5,1.94,0,3.74-1.08,4s-2.41-1-2.91-3,0-3.74,1.08-4S62.62,36.37,63.13,38.3Z"/><path d="M61.74,42.57a2.2,2.2,0,0,1-1.52-.76,5.6,5.6,0,0,1-1.28-2.42c-.54-2.07,0-4,1.23-4.27a2,2,0,0,1,1.87.71,5.51,5.51,0,0,1,1.29,2.42h0A5.56,5.56,0,0,1,63.39,41a2,2,0,0,1-1.29,1.53A1.12,1.12,0,0,1,61.74,42.57Zm-1.21-7.09a1.09,1.09,0,0,0-.26,0c-1,.26-1.4,2-.93,3.78a5,5,0,0,0,1.18,2.24A1.33,1.33,0,0,0,63,40.88a5,5,0,0,0-.06-2.53h0a5,5,0,0,0-1.18-2.23A1.77,1.77,0,0,0,60.53,35.48Z"/><path class="cls-3" d="M74.88,54.31c.5,1.94,0,3.74-1.09,4s-2.4-1-2.9-3,0-3.74,1.09-4S74.38,52.37,74.88,54.31Z"/><path d="M73.48,58.58c-1.13,0-2.3-1.31-2.79-3.19-.53-2.08,0-4,1.24-4.27s2.61,1.06,3.15,3.14h0a5.44,5.44,0,0,1,0,2.74,2,2,0,0,1-1.29,1.53A1.49,1.49,0,0,1,73.48,58.58Zm-1.2-7.1a1.07,1.07,0,0,0-.25,0c-1,.26-1.41,2-.94,3.78s1.67,3.1,2.65,2.85a1.61,1.61,0,0,0,1-1.25,5.08,5.08,0,0,0-.06-2.53h0C74.26,52.72,73.2,51.48,72.28,51.48Z"/><path class="cls-1" d="M97.57,142a41.69,41.69,0,0,1-1.15-5.88c-.73-4.95-1.64-11.11-6-18.29A93.53,93.53,0,0,0,80,103.4L76.81,100c-5.16-5.48-10.49-11.15-14.16-17.81A39.79,39.79,0,0,1,58.17,66.7L56,66.48a42.41,42.41,0,0,0,4.82,16.7c3.85,7,9.3,12.77,14.57,18.38,1,1.12,2.14,2.27,3.18,3.41a90.37,90.37,0,0,1,10.05,14c4.11,6.69,4.93,12.3,5.66,17.24a42.57,42.57,0,0,0,1.24,6.28Z"/><path d="M95.41,142.72l-.06-.19a44.33,44.33,0,0,1-1.24-6.29c-.72-4.94-1.55-10.52-5.63-17.18a90.18,90.18,0,0,0-10-14c-1-1.14-2.13-2.29-3.18-3.41C70,96.08,64.53,90.28,60.67,83.28,58,78.5,56,71.28,55.83,66.49v-.23l2.55.26v.17a39.66,39.66,0,0,0,4.45,15.37c3.67,6.64,9,12.3,14.13,17.77,1.06,1.13,2.15,2.29,3.21,3.44a92.76,92.76,0,0,1,10.39,14.44c4.43,7.21,5.34,13.39,6.07,18.35a42.31,42.31,0,0,0,1.14,5.86l.06.21Zm-39.17-76A42.49,42.49,0,0,0,61,83.09c3.83,7,9.27,12.73,14.54,18.33,1.05,1.12,2.14,2.27,3.18,3.41a90.89,90.89,0,0,1,10.08,14c4.12,6.73,5,12.35,5.68,17.31a43.54,43.54,0,0,0,1.18,6.07l1.62-.4a43.11,43.11,0,0,1-1.09-5.7c-.73-4.94-1.63-11.07-6-18.21a92.67,92.67,0,0,0-10.35-14.38l-3.2-3.43c-5.17-5.49-10.5-11.17-14.19-17.86A40.24,40.24,0,0,1,58,66.88Z"/><path class="cls-1" d="M76.48,99.62a61.2,61.2,0,0,0-6.19-18.17c-2-3.66-3.06-2.52-2.12.77A75.1,75.1,0,0,0,76.48,99.62Z"/><path d="M76.81,100.48l-.5-.75A75.06,75.06,0,0,1,68,82.27c-.51-1.79-.46-3,.12-3.25.74-.31,1.7,1.1,2.38,2.33a61.94,61.94,0,0,1,6.21,18.23ZM68.3,79.38h0c-.25.11-.38,1,.11,2.77a75.44,75.44,0,0,0,7.75,16.52,62,62,0,0,0-6-17.13C69.16,79.82,68.55,79.38,68.3,79.38Z"/><path class="cls-1" d="M79.8,106.44A50.15,50.15,0,0,1,63.36,99.2c-3.29-2.31-2.22-3.42.76-2.31A64.9,64.9,0,0,1,79.8,106.44Z"/><path d="M80.54,106.8l-.78-.16a50.68,50.68,0,0,1-16.51-7.28c-1.63-1.14-2.35-2.09-2-2.69s1.41-.55,3,0a64.51,64.51,0,0,1,15.74,9.59ZM62.2,96.66c-.37,0-.57.09-.63.2s.15.94,1.91,2.17A50.47,50.47,0,0,0,79,106a64.55,64.55,0,0,0-15-9A5.62,5.62,0,0,0,62.2,96.66Z"/><path class="cls-4" d="M64.45,62.38s3.18-3.1.59-4-6.61,4.18-8.46,6.71c2.15-4.09,5.19-9.44,3.21-10.45s-3.22,1.9-3.22,1.9-1.06-4.51-3-2.66c-2.28,2.13,1.3,10.6,2.1,12.41h-.06c-2.41-4.15-5.76-11-7.72-9.69-1.7,1.15,0,3.91,0,3.91S43.63,59,44.21,61.76c.5,2.42,5.64,3.84,8.92,4.5-4.44-.08-9.84-.22-9.66,1.91s3.29,2,3.29,2-3.22,3-.63,4c2.78,1,7.54-5.17,9-7.24C52.84,71,48.92,76.85,51,78c1.84,1,3.31-1.74,3.31-1.74s.86,4.55,2.93,2.8c2.33-2-.73-10.37-1.51-12.39h.11l-.17-.28h0v0c0,.11.07.17.07.17v0C58,70.86,61.1,78,63.14,76.8c1.76-1.07.16-3.9.16-3.9s4.17,1.71,3.72-1.09c-.49-3-8.34-4.89-10.72-5.38,4.58-.05,11.65.38,11.43-2.06C67.54,62.22,64.45,62.38,64.45,62.38Z"/><path d="M56.32,79.7a1.21,1.21,0,0,1-.38-.06c-1-.35-1.51-2-1.73-2.81a3.77,3.77,0,0,1-1.86,1.57,1.79,1.79,0,0,1-1.46-.18,1.37,1.37,0,0,1-.62-.84c-.42-1.59,1.32-4.77,3.1-7.78-2.19,2.61-5.22,5.54-7.31,4.78A1.53,1.53,0,0,1,45,73.27c-.21-1,.79-2.27,1.33-2.87-1.18-.08-2.87-.6-3-2.21a1.26,1.26,0,0,1,.35-1c1-1.1,4.27-1.21,7.54-1.17-3.36-.85-6.73-2.19-7.15-4.22a1.51,1.51,0,0,1,.36-1.54c.74-.64,2.29-.33,3.08-.12-.43-.87-1.14-2.77.28-3.73a1.18,1.18,0,0,1,1-.17c1.67.4,3.79,4.1,5.69,7.5-1.28-3.39-2.74-8.39-1-10a1.43,1.43,0,0,1,1.4-.45c1,.3,1.59,1.9,1.85,2.72a3.8,3.8,0,0,1,1.79-1.67,1.84,1.84,0,0,1,1.45.12,1.32,1.32,0,0,1,.66.8C61,56.8,59.48,60,57.87,63.07c2.2-2.69,5.17-5.61,7.24-4.89a1.54,1.54,0,0,1,1.12,1.09c.22,1-.77,2.3-1.31,2.91,1.18.06,2.87.56,3,2.17a1.24,1.24,0,0,1-.34,1c-1.21,1.32-5.48,1.3-9.24,1.28h-.23c3.5.86,8.69,2.56,9.1,5.15a1.5,1.5,0,0,1-.42,1.51c-.77.61-2.31.23-3.1,0,.39.89,1,2.82-.45,3.71a1.15,1.15,0,0,1-1,.12c-1.71-.5-3.75-4.56-5.55-8.15h0c1.13,3.41,2.5,8.74.62,10.32A1.62,1.62,0,0,1,56.32,79.7Zm-1.93-4,.11.57c.14.73.69,2.68,1.57,3a1,1,0,0,0,1-.31c1.74-1.47.33-7.25-1.57-12.16l-.12-.32h0l-1-.21h.92c-.35-.6-.71-1.24-1.08-1.91-1.82-3.26-4.09-7.31-5.64-7.68a.77.77,0,0,0-.63.11c-1.52,1,.07,3.6.08,3.63l.31.49-.55-.19c-.65-.23-2.48-.7-3.17-.11a1.13,1.13,0,0,0-.22,1.14c.48,2.33,5.69,3.72,8.76,4.34l-.05.4h-.23c-3.51-.06-7.89-.15-9,1a.78.78,0,0,0-.24.68c.16,1.92,3,1.84,3.07,1.84h.54l-.39.37c-.5.47-1.75,1.89-1.55,2.83a1.14,1.14,0,0,0,.85.81c2.66,1,7.41-5.25,8.8-7.17l.34.22c-.31.54-.66,1.12-1,1.72-1.82,3.07-4.09,6.89-3.67,8.51a.9.9,0,0,0,.44.58,1.36,1.36,0,0,0,1.14.15c1.08-.31,1.87-1.79,1.88-1.81ZM56.21,67c.29.56.59,1.16.9,1.78,1.67,3.34,3.75,7.49,5.29,7.94a.79.79,0,0,0,.64-.08c1.56-1,.1-3.6.08-3.62l-.29-.51.55.22c.64.26,2.46.82,3.16.26a1.1,1.1,0,0,0,.28-1.12c-.37-2.32-5.7-4.22-10.56-5.22l-.26,0,.18.34,0,.06ZM54.46,53.63a1.22,1.22,0,0,0-.8.39c-1.69,1.58.11,7.55,2.16,12.18v0h.47c.64,0,1.34,0,2.05,0,3.5,0,7.85,0,8.94-1.15a.89.89,0,0,0,.24-.69c-.18-1.93-3-1.81-3.07-1.81l-.54,0,.38-.38c.5-.48,1.74-1.94,1.53-2.87a1.14,1.14,0,0,0-.85-.79c-2.42-.85-6.57,4.35-8.24,6.63L56.4,65l.48-.91c1.68-3.17,3.77-7.11,3.27-8.7a.88.88,0,0,0-.45-.56,1.39,1.39,0,0,0-1.14-.1c-1.07.37-1.79,1.89-1.8,1.91l-.25.53-.13-.57c-.17-.72-.81-2.65-1.71-2.92Z"/><path class="cls-5" d="M58.59,65.41A3.07,3.07,0,1,1,54.74,64,2.9,2.9,0,0,1,58.59,65.41Z"/><path d="M55.52,69.51a2.94,2.94,0,0,1-2.8-1.77,2.75,2.75,0,0,1,.13-2.29,3.39,3.39,0,0,1,1.81-1.64,3.13,3.13,0,0,1,4.12,1.52,2.79,2.79,0,0,1-.13,2.29,3.38,3.38,0,0,1-1.82,1.64A3.54,3.54,0,0,1,55.52,69.51ZM56,64a3,3,0,0,0-1.17.23,3,3,0,0,0-1.6,1.44,2.37,2.37,0,0,0-.11,2,2.71,2.71,0,0,0,3.58,1.29,3,3,0,0,0,1.61-1.44,2.37,2.37,0,0,0,.11-2A2.54,2.54,0,0,0,56,64Z"/><path class="cls-1" d="M114.65,123.62a41.91,41.91,0,0,1,3.12-5.12c2.8-4.14,6.29-9.3,7.88-17.57a92.46,92.46,0,0,0,2.07-17.63c0-1.56,0-3.15,0-4.69-.1-7.53-.21-15.31,1.58-22.71a39.77,39.77,0,0,1,7.12-14.42l-1.43-1.6a42.28,42.28,0,0,0-7.71,15.57c-1.87,7.74-1.76,15.7-1.65,23.39,0,1.54,0,3.12,0,4.67a90.28,90.28,0,0,1-2,17.1c-1.49,7.71-4.66,12.4-7.46,16.54a44.27,44.27,0,0,0-3.33,5.47Z"/><path d="M114.74,123.9l-2.18-1.2.08-.17A43.84,43.84,0,0,1,116,117c2.79-4.13,6-8.8,7.43-16.47a89.86,89.86,0,0,0,2-17.06c0-1.52,0-3.08,0-4.59v-.07c-.11-7.71-.22-15.68,1.65-23.45a42.62,42.62,0,0,1,7.76-15.66l.15-.17,1.71,1.9-.12.14A39.5,39.5,0,0,0,129.45,56c-1.78,7.38-1.68,15.14-1.57,22.66,0,1.54,0,3.13.05,4.69A92.78,92.78,0,0,1,125.85,101c-1.6,8.31-5.1,13.49-7.91,17.65a41.46,41.46,0,0,0-3.11,5.08Zm-1.65-1.37,1.47.8a43,43,0,0,1,3-4.94c2.79-4.13,6.27-9.27,7.85-17.49a92.34,92.34,0,0,0,2.07-17.6c0-1.55,0-3.15,0-4.69-.1-7.53-.21-15.33,1.58-22.75a40.53,40.53,0,0,1,7-14.38L135,40.19a42.35,42.35,0,0,0-7.52,15.31c-1.86,7.72-1.75,15.66-1.65,23.34v.07c0,1.51,0,3.08,0,4.6a90.7,90.7,0,0,1-2,17.14c-1.5,7.75-4.68,12.46-7.49,16.62A44.45,44.45,0,0,0,113.09,122.53Z"/><path class="cls-1" d="M127.67,78.12a61.29,61.29,0,0,0,7.7-17.58c1-4.06-.56-3.92-2.09-.86A75,75,0,0,0,127.67,78.12Z"/><path d="M127.34,79l.13-.9a75,75,0,0,1,5.63-18.5c.84-1.68,1.69-2.54,2.29-2.33s.51,2,.18,3.33a61.76,61.76,0,0,1-7.73,17.65Zm7.85-21.35c-.29,0-1,.62-1.73,2.13A75.5,75.5,0,0,0,128,77.18a61.17,61.17,0,0,0,7.14-16.69c.51-2.09.27-2.77.08-2.84Z"/><path class="cls-1" d="M125.52,85.4A50.06,50.06,0,0,1,118.28,69c-.87-3.92.66-4,2.12-1.18A64.5,64.5,0,0,1,125.52,85.4Z"/><path d="M125.82,86.17l-.46-.65A50.31,50.31,0,0,1,118.08,69c-.43-1.94-.32-3.13.31-3.36s1.42.54,2.19,2a64.7,64.7,0,0,1,5.14,17.7ZM118.6,66h-.07c-.24.09-.52.79,0,2.89a50.62,50.62,0,0,0,6.72,15.65,64.53,64.53,0,0,0-5-16.7C119.5,66.48,118.89,66,118.6,66Z"/><path class="cls-4" d="M143.92,42.52s4.45-.13,3.15-2.55-7.7-1.38-10.77-.76c4.34-1.56,10.2-3.46,9.42-5.55s-3.66-.76-3.66-.76,2.26-4-.46-4c-3.1,0-6.19,8.7-6.82,10.58l0,0c1-4.69,3.18-12,.84-12.37-2-.3-2.62,2.9-2.62,2.9s-2.11-4-3.56-1.54c-1.26,2.12,1.58,6.64,3.55,9.34-3.22-3-7.11-6.8-8.41-5.1s1,3.71,1,3.71-4.43.08-3.15,2.52c1.37,2.62,9.05,1.27,11.55.75C129.56,41,122.7,42.73,123.43,45c.64,2,3.61,1,3.61,1s-2.43,3.94.27,4c3.06.12,6.47-8.14,7.26-10.16l.06.08c0-.1.05-.21.07-.32l0,0v0l-.06.17h0c-1.22,4.63-3.79,12-1.45,12.47,2,.4,2.75-2.77,2.75-2.77s1.92,4.08,3.48,1.72c1.7-2.59-2.86-9.25-4.28-11.21,3.41,3,8.34,8.14,9.82,6.19C146.31,44.49,143.92,42.52,143.92,42.52Z"/><path d="M133.59,52.52a1.87,1.87,0,0,1-.4,0,1.11,1.11,0,0,1-.78-.56c-.93-1.51.31-5.89,1.4-9.75h0c-1.46,3.28-4,8.11-6.5,8a1.42,1.42,0,0,1-1.31-.67c-.48-.91.22-2.47.62-3.24a3.82,3.82,0,0,1-2.44-.09,1.81,1.81,0,0,1-.94-1.13,1.25,1.25,0,0,1,.1-1c.77-1.46,4.19-2.63,7.53-3.65-3.38.45-7.58.57-8.61-1.4a1.56,1.56,0,0,1-.08-1.57c.53-.89,2.12-1.15,2.93-1.22-.83-.86-1.72-2.38-.73-3.67a1.23,1.23,0,0,1,.92-.49c1.5-.12,4,2,6.35,4.22-1.9-2.89-3.49-6.16-2.42-7.94a1.47,1.47,0,0,1,1.3-.89c1,0,1.91,1.3,2.35,2,.27-.93,1-2.81,2.73-2.56a1.15,1.15,0,0,1,.82.52c1,1.41,0,5.57-.87,9.37,1.35-3.37,3.64-8,6-8.07a1.43,1.43,0,0,1,1.34.62c.52.88-.1,2.47-.47,3.25a3.85,3.85,0,0,1,2.45,0,1.78,1.78,0,0,1,1,1.07,1.28,1.28,0,0,1,0,1c-.69,1.48-4,2.8-7.26,4,3.44-.5,7.61-.66,8.65,1.28a1.55,1.55,0,0,1,.09,1.55c-.52.9-2.12,1.18-2.93,1.26.83.85,1.74,2.35.75,3.64a1.22,1.22,0,0,1-.93.51c-1.77.17-4.91-2.74-7.67-5.29a1.29,1.29,0,0,1-.17-.16c2,3,4.68,7.76,3.24,10a1.5,1.5,0,0,1-1.34.82c-1-.07-1.85-1.39-2.26-2.11C135.75,50.9,135,52.52,133.59,52.52Zm1.15-12.16c-.17.61-.35,1.26-.54,1.92-1,3.6-2.28,8.07-1.45,9.43a.75.75,0,0,0,.52.37c1.81.37,2.5-2.58,2.51-2.61l.13-.58.25.54c.3.62,1.26,2.26,2.16,2.33.34,0,.67-.19,1-.65,1.29-2-1.36-7-4.28-11l-.15-.22-.09.34,0,.1Zm-7.22,5.2-.31.5c-.38.62-1.29,2.44-.85,3.27a1,1,0,0,0,1,.46h.06c2.93,0,6.34-8.35,7-10l.12-.32,0,0h0l-.62-.86.68.6c.14-.67.31-1.39.49-2.13.85-3.63,1.92-8.15,1-9.47a.79.79,0,0,0-.54-.35C133.74,27,133.17,30,133.16,30l-.1.57-.28-.52c-.32-.6-1.36-2.19-2.26-2.21-.36,0-.66.22-.94.69-1.22,2,1.69,6.58,3.53,9.11l-.3.27-.17-.16c-2.55-2.42-5.71-5.44-7.31-5.31a.84.84,0,0,0-.63.34c-1.18,1.53,1,3.42,1,3.44l.41.35h-.54c-.68,0-2.57.22-3.06,1a1.18,1.18,0,0,0,.09,1.18c1.31,2.5,9,1.13,11.33.64l.1.4-1.9.58c-3.42,1-7.67,2.33-8.45,3.81a.92.92,0,0,0-.08.72,1.45,1.45,0,0,0,.74.88,4.1,4.1,0,0,0,2.61-.06Zm7.44-6,.35.32,1.52,1.38c2.57,2.37,5.78,5.31,7.37,5.18a.84.84,0,0,0,.64-.34c1.18-1.55-1-3.39-1.05-3.41l-.41-.34.54,0c.69,0,2.58-.26,3.07-1.09a1.15,1.15,0,0,0-.1-1.16c-1.21-2.26-7.78-1.22-10.55-.66l-.11-.4,1-.34c3.37-1.21,7.57-2.7,8.28-4.22a.91.91,0,0,0,0-.72,1.41,1.41,0,0,0-.78-.84,4.14,4.14,0,0,0-2.61.19l-.54.23.28-.51c.36-.65,1.19-2.5.71-3.31a1.06,1.06,0,0,0-1-.41c-2.31,0-5,5.64-6.64,10.44Z"/><path class="cls-5" d="M137.56,40.81a3.07,3.07,0,1,1-1.89-3.64A2.9,2.9,0,0,1,137.56,40.81Z"/><path d="M134.93,42.7a3.57,3.57,0,0,1-1.27-.24,3.1,3.1,0,0,1-2-3.9A2.75,2.75,0,0,1,133.13,37a3.42,3.42,0,0,1,2.61-.05,3.11,3.11,0,0,1,2,3.9h0a2.79,2.79,0,0,1-1.64,1.6A3.17,3.17,0,0,1,134.93,42.7Zm-.45-5.55a2.78,2.78,0,0,0-1.18.25A2.34,2.34,0,0,0,132,38.71a2.7,2.7,0,0,0,1.77,3.37,3,3,0,0,0,2.16,0,2.37,2.37,0,0,0,1.4-1.37h0a2.71,2.71,0,0,0-1.77-3.37A3.17,3.17,0,0,0,134.48,37.15Z"/><path class="cls-1" d="M87.69,74.84C91.45,82.11,95.25,89.38,98.3,97a143,143,0,0,1,6.92,23.12,280.83,280.83,0,0,1,5.92,48.78c.09,2.63-4,2.22-4.09-.4a274.36,274.36,0,0,0-5.88-47.68A136,136,0,0,0,94.29,98c-3-7.34-6.68-14.38-10.32-21.41C82.75,74.25,86.47,72.5,87.69,74.84Z"/><path d="M109.39,170.86a2.66,2.66,0,0,1-1.25-.31,2.38,2.38,0,0,1-1.3-2.06A273.23,273.23,0,0,0,101,120.85,134.75,134.75,0,0,0,94.1,98.08c-2.86-7-6.4-13.83-9.82-20.44l-.49-1a2,2,0,0,1,0-2.06A2.56,2.56,0,0,1,86,73.53a2.15,2.15,0,0,1,1.85,1.22l.5,1c3.54,6.83,7.2,13.9,10.12,21.17a144.51,144.51,0,0,1,6.93,23.15,280.51,280.51,0,0,1,5.92,48.82,1.82,1.82,0,0,1-.81,1.69A2.16,2.16,0,0,1,109.39,170.86ZM85.91,73.94a2.09,2.09,0,0,0-1.73.91,1.59,1.59,0,0,0,0,1.66l.49.95c3.43,6.61,7,13.45,9.84,20.47a135.46,135.46,0,0,1,6.89,22.83,274.15,274.15,0,0,1,5.88,47.72,2,2,0,0,0,1.08,1.71,2.08,2.08,0,0,0,2,0,1.39,1.39,0,0,0,.62-1.33A280.55,280.55,0,0,0,105,120.14a143.76,143.76,0,0,0-6.91-23.09C95.2,89.8,91.55,82.74,88,75.91l-.51-1a1.72,1.72,0,0,0-1.5-1Z"/><path class="cls-6" d="M87.11,72c2-18.07-15.85-11.8-2.21.78C71.26,60.19,65,78.07,84.13,75c-19.12,3.09-9,19.13,1.25,2-10.28,17.15,8.55,19.26,2.32.26,6.23,19,19.62,5.59,1.66-1.66,18,7.25,15.82-11.57-.27-2.32C105.18,64,89.14,53.92,87.11,72Z"/><path d="M85.28,90.86A2.69,2.69,0,0,1,83.37,90c-1.48-1.45-2.12-4.85.17-10C80.15,84.38,77,85.4,75.06,84.8a2.69,2.69,0,0,1-1.91-2.89c.15-2.1,2.27-4.8,7.54-6.37-6.75.27-8.32-2.66-8.59-3.33a2.81,2.81,0,0,1,1.09-3.43c1.7-1.17,5-1.25,9.27,1.74C79.28,66.72,79,63.69,80.05,62a2.88,2.88,0,0,1,3.5-1.28c1.87.63,3.8,3.12,3.92,8.09,1.21-4.82,3.65-6.82,5.62-7a2.87,2.87,0,0,1,3.13,2c.61,1.9-.3,4.8-4.25,7.8,4.82-2,8-1.17,9.43.35a2.8,2.8,0,0,1,.3,3.58c-.41.6-2.59,3.11-9.11,1.36,4.79,2.69,6.26,5.8,5.94,7.88A2.68,2.68,0,0,1,96,87.15c-2,.17-4.87-1.53-7.22-6.54,1.1,5.55-.28,8.72-2,9.81A2.76,2.76,0,0,1,85.28,90.86Zm.27-13.8c-4,6.76-3.55,11.06-1.89,12.69a2.27,2.27,0,0,0,2.89.33c2-1.23,3.41-5.31,1-12.8l.39-.12c2.41,7.37,5.87,9.78,8.1,9.58a2.3,2.3,0,0,0,2.13-2c.35-2.33-1.75-6.07-8.85-8.94l.15-.37c6.85,2.76,10.71,1.68,11.94-.09a2.4,2.4,0,0,0-.27-3.07c-1.57-1.71-5.62-2.41-11.9,1.19L89,73.06c6.09-3.5,7.49-7.11,6.84-9.14a2.47,2.47,0,0,0-2.7-1.74c-2.2.22-5,2.92-5.82,9.84l-.4,0c.77-6.91-1.4-10.18-3.49-10.88a2.48,2.48,0,0,0-3,1.1C79.31,64,79.88,67.86,85,72.62l-.28.3C79.44,68,75.33,67.8,73.43,69.11a2.4,2.4,0,0,0-1,3c.8,2,4.33,3.9,11.62,2.72l.06.4c-7.55,1.22-10.43,4.41-10.6,6.76a2.28,2.28,0,0,0,1.62,2.47c2.13.67,6-.9,10-7.55Z"/><line class="cls-6" x1="83.19" y1="64.89" x2="85.31" y2="70.02"/><rect x="84.05" y="64.68" width="0.41" height="5.55" transform="translate(-19.39 37.33) rotate(-22.48)"/><line class="cls-6" x1="89.76" y1="70.72" x2="92.79" y2="65.65"/><rect x="88.32" y="67.98" width="5.91" height="0.41" transform="translate(-14.08 111.54) rotate(-59.13)"/><line class="cls-6" x1="92.22" y1="74.29" x2="98.36" y2="73.99"/><rect x="92.22" y="73.94" width="6.15" height="0.41" transform="translate(-3.44 4.64) rotate(-2.74)"/><line class="cls-6" x1="91.29" y1="78.68" x2="95.47" y2="83.37"/><rect x="93.18" y="77.88" width="0.41" height="6.28" transform="translate(-30.24 82.64) rotate(-41.7)"/><line class="cls-6" x1="85.71" y1="80.92" x2="85.55" y2="86.87"/><polygon points="85.75 86.87 85.34 86.86 85.51 80.92 85.92 80.93 85.75 86.87"/><line class="cls-6" x1="76.82" y1="81.03" x2="81.77" y2="78.14"/><rect x="76.43" y="79.38" width="5.73" height="0.41" transform="translate(-29.3 50.81) rotate(-30.26)"/><line class="cls-6" x1="76.35" y1="71.22" x2="81.76" y2="72.9"/><rect x="78.85" y="69.23" width="0.41" height="5.66" transform="matrix(0.3, -0.95, 0.95, 0.3, -13.27, 126.08)"/><path class="cls-7" d="M91.11,74.3a4.35,4.35,0,1,1-5.55-2.66A4.34,4.34,0,0,1,91.11,74.3Z"/><path d="M87,80.29a4.55,4.55,0,0,1-1.52-8.84,4.56,4.56,0,0,1,5.81,2.78A4.56,4.56,0,0,1,88.52,80,4.69,4.69,0,0,1,87,80.29Zm0-8.69a4.08,4.08,0,0,0-1.38.23,4.15,4.15,0,0,0-2.53,5.29,4.14,4.14,0,0,0,7.81-2.75h0A4.11,4.11,0,0,0,88.8,72,4.17,4.17,0,0,0,87,71.6Z"/><path class="cls-2" d="M165.77,118.14c1.94-3.12,30.45-50.38,19.58-53.93-7.87-2.57-19.13,47.06-20.73,54.3,2-10.3,11.46-61.38.17-60.95-8.67.32-1.94,52.43-.71,61.43-2-8.78-13.75-57.48-23.39-52.71-7.68,3.8,21.27,50,23.63,53.75h0Z"/><path class="cls-2" d="M191.52,119.86c2.21-1.87,35.12-30.32,27.85-35.64-5.27-3.85-25.84,30.6-28.81,35.63,4-7.22,23.59-43.21,15-45.64C199,72.33,191.32,113,190,120.08c.62-7.07,3.74-46.44-4.66-45.22-6.68,1,3.73,42.67,4.58,46.06h0Z"/><path d="M172.1,117.6l-.39-.13c5.76-16.74,21.07-61.19,25.81-83.39l.4.09C193.17,56.39,177.86,100.86,172.1,117.6Z"/><path d="M189.74,64.38l-.3-.27C191,62.37,193.09,59.5,195,57c.52-.71,1-1.39,1.48-2a120.73,120.73,0,0,0,7-10.4l.35.2a120.31,120.31,0,0,1-7,10.45l-1.47,2C193.41,59.75,191.29,62.62,189.74,64.38Z"/><rect x="186.42" y="45" width="0.41" height="27.91" transform="translate(-0.54 1.75) rotate(-0.54)"/><rect x="179.09" y="80.41" width="20.89" height="0.41" transform="translate(-4.47 149.78) rotate(-42.66)"/><rect x="180.31" y="63.5" width="0.41" height="23.41" transform="translate(-9.32 28.26) rotate(-8.73)"/><path class="cls-3" d="M196.11,31.66c-.56,1.92-.12,3.74,1,4.05s2.43-1,3-2.91.12-3.73-1-4S196.66,29.74,196.11,31.66Z"/><path d="M197.43,36a1.34,1.34,0,0,1-.4-.06c-1.22-.35-1.71-2.24-1.12-4.31h0c.6-2.06,2-3.39,3.24-3s1.71,2.24,1.12,4.3C199.73,34.7,198.54,36,197.43,36Zm-1.12-4.25c-.52,1.78-.14,3.52.83,3.8s2.22-1,2.73-2.77S200,29.23,199,29s-2.22,1-2.73,2.77Z"/><path class="cls-3" d="M203.25,42.36c-1.25,1.56-1.55,3.4-.66,4.11s2.62,0,3.87-1.53,1.55-3.4.66-4.12S204.5,40.8,203.25,42.36Z"/><path d="M203.46,47a1.54,1.54,0,0,1-1-.33c-1-.79-.71-2.73.63-4.4s3.17-2.36,4.16-1.56.71,2.72-.63,4.4a5.44,5.44,0,0,1-2.16,1.68A2.72,2.72,0,0,1,203.46,47Zm2.8-6.21a4.19,4.19,0,0,0-2.85,1.74c-1.16,1.44-1.48,3.19-.7,3.82a1.58,1.58,0,0,0,1.6.06,5,5,0,0,0,2-1.56c1.16-1.44,1.48-3.2.7-3.83A1.15,1.15,0,0,0,206.26,40.75Z"/><path class="cls-3" d="M196.68,70.75c-1.25,1.56-1.54,3.4-.66,4.11s2.63,0,3.88-1.53,1.55-3.4.66-4.12S197.94,69.19,196.68,70.75Z"/><path d="M196.89,75.35a1.54,1.54,0,0,1-1-.33c-1-.8-.72-2.73.63-4.4a5.42,5.42,0,0,1,2.15-1.68,2,2,0,0,1,2,.11c1,.8.71,2.73-.63,4.4a5.42,5.42,0,0,1-2.16,1.68A2.64,2.64,0,0,1,196.89,75.35Zm2.8-6.22a2.24,2.24,0,0,0-.86.19,5.15,5.15,0,0,0-2,1.55c-1.16,1.45-1.47,3.2-.69,3.83a1.58,1.58,0,0,0,1.6.06,5,5,0,0,0,2-1.56c1.16-1.45,1.48-3.2.69-3.83A1.13,1.13,0,0,0,199.69,69.13Z"/><path class="cls-3" d="M184.41,43.35c-.06,2,.81,3.64,2,3.68s2.11-1.56,2.17-3.56-.82-3.65-2-3.68S184.46,41.35,184.41,43.35Z"/><path d="M186.4,47.23h0c-1.27,0-2.22-1.74-2.16-3.89h0c.06-2.12,1.09-3.76,2.34-3.76h0c1.27,0,2.21,1.75,2.15,3.89S187.65,47.23,186.4,47.23Zm-1.79-3.88c-.05,1.86.75,3.44,1.76,3.47h0c1,0,1.88-1.52,1.93-3.36S187.57,40,186.57,40h0c-1,0-1.88,1.53-1.93,3.36Z"/><path class="cls-3" d="M176.54,61.58c0,2,.83,3.65,2,3.68s2.11-1.57,2.16-3.57-.83-3.65-2-3.68S176.59,59.58,176.54,61.58Z"/><path d="M178.54,65.46h0a2,2,0,0,1-1.61-1.21,5.93,5.93,0,0,1,.14-5.32,1.93,1.93,0,0,1,1.67-1.12c1.27,0,2.22,1.74,2.16,3.88a5.34,5.34,0,0,1-.7,2.65A2,2,0,0,1,178.54,65.46Zm-2-3.88h.2a5.15,5.15,0,0,0,.51,2.47,1.34,1.34,0,0,0,2.56.07,5,5,0,0,0,.64-2.45c.05-1.85-.76-3.44-1.76-3.46a1.6,1.6,0,0,0-1.31.92,5.13,5.13,0,0,0-.64,2.45Z"/><path class="cls-1" d="M189.4,146.79a42.22,42.22,0,0,0-.51-6c-.65-5-1.46-11.13.81-19.24a92.63,92.63,0,0,1,6-16.7c.7-1.39,1.43-2.81,2.14-4.17,3.46-6.69,7-13.6,8.75-21a40,40,0,0,0,.08-16.09l2-.79a42.42,42.42,0,0,1-.07,17.38c-1.79,7.76-5.45,14.83-9,21.66-.71,1.36-1.44,2.77-2.13,4.15a90.43,90.43,0,0,0-5.84,16.2c-2.12,7.56-1.38,13.18-.73,18.13a43.89,43.89,0,0,1,.53,6.38Z"/><path d="M189.19,147v-.22a41.94,41.94,0,0,0-.51-5.94c-.66-5-1.47-11.17.82-19.32a93.19,93.19,0,0,1,6-16.73c.71-1.39,1.44-2.81,2.15-4.18,3.45-6.67,7-13.57,8.73-21a39.75,39.75,0,0,0,.08-16l0-.17,2.38-.94.06.22a42.55,42.55,0,0,1-.07,17.48c-1.8,7.78-5.46,14.86-9,21.7l-.05.09c-.69,1.34-1.4,2.71-2.08,4.06a90.6,90.6,0,0,0-5.83,16.17c-2.11,7.52-1.37,13.11-.72,18a44,44,0,0,1,.53,6.4v.2ZM207,63.73a40.39,40.39,0,0,1-.13,16c-1.71,7.44-5.29,14.36-8.76,21.05-.71,1.38-1.44,2.79-2.14,4.18a92.93,92.93,0,0,0-6,16.66c-2.26,8.07-1.46,14.22-.81,19.16a44.06,44.06,0,0,1,.52,5.79l1.67-.07a45.31,45.31,0,0,0-.54-6.15c-.65-5-1.39-10.61.74-18.21a90.9,90.9,0,0,1,5.86-16.24c.68-1.35,1.39-2.73,2.08-4.07l.05-.08c3.53-6.83,7.18-13.88,9-21.61a42.31,42.31,0,0,0,.13-17.06Z"/><path class="cls-1" d="M198.1,100.27a61.34,61.34,0,0,1,1-19.17c.94-4.07,2.25-3.25,2.25.17A75.15,75.15,0,0,1,198.1,100.27Z"/><path d="M198,101.19l-.12-.89a62.37,62.37,0,0,1,1-19.24c.31-1.37.86-3,1.65-2.89.63.07,1,1.23,1,3.1a75.29,75.29,0,0,1-3.25,19.06Zm2.46-22.62c-.22,0-.72.53-1.2,2.58a61.64,61.64,0,0,0-1.07,18.12,75.59,75.59,0,0,0,2.93-18c0-1.81-.38-2.67-.65-2.7Z"/><path class="cls-1" d="M196.77,107.74A49.91,49.91,0,0,0,210.6,96.28c2.53-3.12,1.2-3.89-1.37-2A64.79,64.79,0,0,0,196.77,107.74Z"/><path d="M196.15,108.3l.45-.67a65.13,65.13,0,0,1,12.51-13.52c1.36-1,2.43-1.31,2.87-.84s0,1.6-1.22,3.14a51,51,0,0,1-13.9,11.52Zm15.26-14.84a4.06,4.06,0,0,0-2,1,64.28,64.28,0,0,0-11.93,12.7,50.32,50.32,0,0,0,13-11c1.35-1.66,1.42-2.42,1.24-2.6A.34.34,0,0,0,211.41,93.46Z"/><path class="cls-4" d="M196.87,64c.46,2.41,7.14.06,11.56-1.15-2.16,1.12-9.21,5-8.84,8.11.33,2.82,3.88,0,3.88,0s-.77,3.16,1.21,3.7c2.31.64,3.31-7.11,4.29-11.8h0l0-.18v0h0L209,63l.1,0c-.2,2.16-.84,11.07,1.94,12.33,2.47,1.12,2.05-3.49,2.05-3.49s2.18,2.28,3.66.77c1.67-1.71-3.71-6.29-7.05-9.53,2,1.59,8.27,6.23,10.67,4.49,2.23-1.61-1.69-3.65-1.69-3.65s3-.75,2.6-2.86-5.56-.49-9.8.8c3-1.53,7.52-4.3,7.34-6.76-.2-2.83-3.87-.22-3.87-.22s.91-3.12-1-3.77c-2.25-.73-3.6,6.79-4.78,11.44l-.06,0c.28-2,1.4-11.09-1.37-12.51-2.41-1.24-2.2,3.38-2.2,3.38s-2.07-2.39-3.62-1,2.76,5.84,5.95,9.18c-2.47-1.92-7.8-5.67-10-4.14s1.68,3.69,1.68,3.69S196.47,61.86,196.87,64Z"/><path d="M211.7,75.65a2,2,0,0,1-.78-.19c-2.24-1-2.39-6.51-2.23-10.11v0c-.75,3.94-1.6,8.41-3.11,9.35a1.15,1.15,0,0,1-1,.15c-1.66-.45-1.59-2.48-1.45-3.44-.69.46-2.06,1.25-3,.87a1.48,1.48,0,0,1-.82-1.33c-.31-2.61,4.21-5.66,7.34-7.44l-.22.06c-3.62,1-7.72,2.23-9.23,1.29a1.25,1.25,0,0,1-.61-.86h0c-.3-1.6,1.19-2.54,2.31-2.92-.69-.44-2-1.4-2.06-2.44a1.53,1.53,0,0,1,.78-1.35C199.49,56,203.15,58,206,60c-2.39-2.51-4.76-5.17-4.71-6.8a1.32,1.32,0,0,1,.41-.95,1.8,1.8,0,0,1,1.37-.51,3.88,3.88,0,0,1,2.18,1.11c0-.86.17-2.56,1-3.12a1.44,1.44,0,0,1,1.48.05c2.13,1.1,2.09,6.31,1.79,9.92.9-3.79,1.93-7.93,3.42-8.77a1.16,1.16,0,0,1,1-.1c1.63.54,1.47,2.56,1.29,3.52.71-.43,2.11-1.15,3-.73A1.49,1.49,0,0,1,219,55c.15,2.07-2.73,4.29-5.72,6,3.13-.93,6.28-1.71,7.57-.94a1.24,1.24,0,0,1,.6.86c.31,1.59-1.17,2.55-2.29,2.95.69.43,2,1.37,2.07,2.4a1.54,1.54,0,0,1-.77,1.37c-1.81,1.3-5.51-.68-8.33-2.6,2.53,2.41,5.07,5,5.1,6.64a1.27,1.27,0,0,1-.37,1,1.81,1.81,0,0,1-1.33.58h0a3.83,3.83,0,0,1-2.22-1c0,.87-.06,2.58-.89,3.17A1.12,1.12,0,0,1,211.7,75.65Zm-2.41-13,0,.34c-.17,1.81-.86,10.91,1.82,12.12a1,1,0,0,0,1.07,0c.77-.54.77-2.57.7-3.3l0-.59.4.43a4.05,4.05,0,0,0,2.31,1.22,1.29,1.29,0,0,0,1.05-.46.9.9,0,0,0,.26-.68c0-1.66-3.26-4.72-5.86-7.17l-1.44-1.38.27-.31c1.86,1.47,8.13,6.15,10.42,4.49a1.15,1.15,0,0,0,.6-1c-.07-1-1.66-2-2.26-2.3l-.48-.25.52-.13s2.82-.72,2.45-2.62a.84.84,0,0,0-.41-.59c-1.37-.82-5.55.46-8.91,1.48l-.23.07-.15-.38c2.78-1.43,7.41-4.2,7.24-6.57a1.15,1.15,0,0,0-.53-1c-.82-.38-2.46.57-3,1l-.47.33.16-.56s.82-2.94-.92-3.51a.74.74,0,0,0-.63.07c-1.39.78-2.47,5.3-3.33,8.93-.17.74-.34,1.46-.51,2.12l.88-.24-.94.5Zm-5.49,7.82-.14.58s-.69,3,1.08,3.46a.79.79,0,0,0,.63-.1c1.35-.85,2.22-5.42,2.92-9.09.13-.68.25-1.34.38-2h0l0-.1c0-.12,0-.24.07-.35l-.24.12c-4.4,2.3-9,5.58-8.73,7.91a1.13,1.13,0,0,0,.57,1c.84.35,2.44-.69,3-1.12Zm-6.73-6.5a.87.87,0,0,0,.42.6c1.37.84,5.55-.37,8.91-1.34l2-.56.46-.13v0c.26-1.82,1.39-10.94-1.26-12.3a1,1,0,0,0-1.07-.07c-.78.5-.87,2.53-.84,3.27l0,.58-.38-.44a4,4,0,0,0-2.25-1.34,1.37,1.37,0,0,0-1.07.4.87.87,0,0,0-.28.66c0,1.67,3,4.89,5.52,7.47l.71.76-.27.3c-2.23-1.74-7.63-5.61-9.73-4.13a1.12,1.12,0,0,0-.6,1c0,1,1.64,2,2.25,2.35l.48.26-.53.12s-2.82.68-2.46,2.58Z"/><path class="cls-5" d="M206,62.47a3.07,3.07,0,1,0,3.31-2.41A2.9,2.9,0,0,0,206,62.47Z"/><path d="M209.06,65.72l-.37,0a3.45,3.45,0,0,1-2.2-1.08,2.77,2.77,0,0,1-.75-2.17h0a3.13,3.13,0,0,1,3.54-2.59,3.52,3.52,0,0,1,2.32,1.21,2.8,2.8,0,0,1,.63,2A3.07,3.07,0,0,1,209.06,65.72Zm-2.91-3.23a2.39,2.39,0,0,0,.64,1.86,3,3,0,0,0,1.94.94,2.7,2.7,0,0,0,3.09-2.22,2.34,2.34,0,0,0-.54-1.74,3,3,0,0,0-2-1.06,2.71,2.71,0,0,0-3.09,2.22Z"/><path class="cls-1" d="M179,82.31c.29,6.28.61,12.57.3,18.86a110.44,110.44,0,0,1-2.59,18.36,214.73,214.73,0,0,1-11.53,35.95c-.78,1.87-3.5.27-2.73-1.59a210.34,210.34,0,0,0,11.2-35.17,104.41,104.41,0,0,0,2.52-18.12c.27-6.09-.05-12.18-.33-18.26C175.73,80.31,178.88,80.28,179,82.31Z"/><path d="M164,156.52a2,2,0,0,1-1.52-.81,1.85,1.85,0,0,1-.25-1.89,210.87,210.87,0,0,0,11.2-35.14A104.12,104.12,0,0,0,176,100.59c.25-5.8,0-11.7-.29-17.4l0-.84a1.62,1.62,0,0,1,1.63-1.75,1.76,1.76,0,0,1,1.93,1.7l0,.84c.28,5.91.56,12,.26,18a110.67,110.67,0,0,1-2.59,18.39,216.08,216.08,0,0,1-11.54,36,1.47,1.47,0,0,1-1.15.95ZM177.35,81h-.08A1.22,1.22,0,0,0,176,82.33l0,.84c.27,5.71.55,11.62.29,17.44a103.15,103.15,0,0,1-2.52,18.16A210.32,210.32,0,0,1,162.62,154a1.49,1.49,0,0,0,.19,1.5,1.53,1.53,0,0,0,1.34.63,1,1,0,0,0,.82-.7,215.25,215.25,0,0,0,11.52-35.92,109.68,109.68,0,0,0,2.58-18.32c.31-6,0-12.1-.26-18l0-.84A1.35,1.35,0,0,0,177.35,81Z"/><path class="cls-6" d="M179.49,80.13c7.22-12-7.27-13.33-1.79-.16-5.48-13.17-15.59-2.69-1.25,1.29-14.34-4-12.44,10.46.24,1.78-12.68,8.68-.22,16.19,1.54.93-1.76,15.26,11.89,10.2,1.68-.62,10.21,10.82,14.77-3,.57-1.71C194.68,80.35,186.71,68.17,179.49,80.13Z"/><path d="M181.61,93.76a2.22,2.22,0,0,1-.78-.14c-1.41-.51-2.85-2.53-3-6.57-1,4-3,5.69-4.53,5.88a2.08,2.08,0,0,1-2.3-1.38c-.55-1.46,0-4,3.09-6.76-3.62,1.79-6.08,1.46-7.2.45a2.13,2.13,0,0,1-.41-2.69c.77-1.39,3-2.59,7-2.09-3.47-1.53-4.72-3.49-4.64-5a2.19,2.19,0,0,1,1.9-2.08c1.53-.27,3.8.68,5.79,3.93-.88-3.51-.08-5.62,1.16-6.47a2.25,2.25,0,0,1,2.91.23c1.09,1,1.65,3.3.28,6.67,2.34-2.79,4.61-3.35,6-2.87a2.26,2.26,0,0,1,1.57,2.47c-.18,1.49-1.67,3.18-5.18,4,3.8.25,5.7,1.81,6.18,3.29a2.2,2.2,0,0,1-1,2.65c-1.3.77-3.62.59-6.59-1.77,2.3,3.3,2.3,5.86,1.43,7.19A2.15,2.15,0,0,1,181.61,93.76ZM178.43,84c-.68,5.89.95,8.66,2.54,9.24a1.73,1.73,0,0,0,2.1-.73c1.06-1.62.45-5-3.3-9l.29-.28c3.88,4.11,6.9,4.6,8.3,3.76a1.77,1.77,0,0,0,.78-2.18c-.54-1.67-3.13-3.45-8.64-3l0-.4c5.35-.49,7.47-2.54,7.66-4.15a1.84,1.84,0,0,0-1.29-2c-1.59-.55-4.42.43-7.16,5l-.35-.21c2.74-4.55,2.29-7.51,1.06-8.66a1.86,1.86,0,0,0-2.4-.2c-1.33.92-2.16,3.76-.09,8.72l-.38.15c-2.13-5.11-4.91-6.57-6.64-6.26a1.77,1.77,0,0,0-1.56,1.7c-.08,1.63,1.75,4.07,7.2,5.58l-.11.4c-5.28-1.47-8.59-.41-9.52,1.29a1.72,1.72,0,0,0,.33,2.19c1.26,1.14,4.46,1.29,9.36-2.06l.23.33c-4.65,3.18-6.05,6.41-5.38,8.2a1.71,1.71,0,0,0,1.87,1.12c1.89-.24,4.09-3,4.73-8.58Z"/><line class="cls-6" x1="179.03" y1="73.91" x2="178.87" y2="78.18"/><rect x="176.82" y="75.84" width="4.27" height="0.41" transform="translate(96.07 251.94) rotate(-87.79)"/><line class="cls-6" x1="181.75" y1="80.1" x2="185.5" y2="77.53"/><rect x="181.35" y="78.61" width="4.54" height="0.41" transform="translate(-12.37 117.73) rotate(-34.46)"/><line class="cls-6" x1="182.32" y1="83.38" x2="186.7" y2="85.14"/><rect x="184.31" y="81.9" width="0.41" height="4.72" transform="translate(37.48 223.99) rotate(-68.09)"/><line class="cls-6" x1="180.27" y1="86.14" x2="181.68" y2="90.76"/><rect x="180.77" y="86.04" width="0.41" height="4.83" transform="translate(-17.95 56.78) rotate(-17)"/><line class="cls-6" x1="175.65" y1="85.92" x2="173.62" y2="90.01"/><rect x="172.35" y="87.76" width="4.57" height="0.41" transform="translate(18.35 205.48) rotate(-63.67)"/><line class="cls-6" x1="169.41" y1="83.14" x2="173.79" y2="82.71"/><rect x="169.4" y="82.72" width="4.4" height="0.41" transform="matrix(1, -0.1, 0.1, 1, -7.17, 16.86)"/><line class="cls-6" x1="172.23" y1="76.14" x2="175.46" y2="79.05"/><rect x="173.64" y="75.42" width="0.41" height="4.35" transform="translate(-0.16 154.82) rotate(-47.98)"/><path class="cls-7" d="M181.54,83a3.34,3.34,0,1,1-3-3.64A3.34,3.34,0,0,1,181.54,83Z"/><path d="M178.22,86.26h-.33a3.57,3.57,0,0,1-3.21-3.86,3.54,3.54,0,0,1,7.06.65h0a3.54,3.54,0,0,1-3.52,3.22Zm0-6.68a3.11,3.11,0,1,0,.29,0Z"/><path class="cls-1" d="M143.8,90.1a87.82,87.82,0,0,1-3.48,14.22,145.51,145.51,0,0,1-5.56,14.14l2.47.63.74.18a145.2,145.2,0,0,0,5.74-14.86,89.84,89.84,0,0,0,3.38-14.19,73.79,73.79,0,0,0,.27-14.33c-.11-2.1-3.36-1.67-3.25.43A68.25,68.25,0,0,1,143.8,90.1Z"/><path d="M138.08,119.51l-.9-.23-2.47-.62-.23-.06.1-.22a147.36,147.36,0,0,0,5.55-14.12,87.13,87.13,0,0,0,3.47-14.19h0a69.58,69.58,0,0,0,.31-13.74,1.91,1.91,0,0,1,1.88-2,1.57,1.57,0,0,1,1.77,1.56,74.55,74.55,0,0,1-.27,14.37,90.42,90.42,0,0,1-3.38,14.22,142.51,142.51,0,0,1-5.76,14.89Zm-3-1.19,2.23.57.57.14a140.11,140.11,0,0,0,5.67-14.68,89.59,89.59,0,0,0,3.36-14.16,73.69,73.69,0,0,0,.27-14.29,1.19,1.19,0,0,0-1.34-1.18,1.51,1.51,0,0,0-1.49,1.59A69.69,69.69,0,0,1,144,90.13a87,87,0,0,1-3.49,14.26A143,143,0,0,1,135.05,118.32Z"/><path class="cls-6" d="M146.15,67.85c6.25-15.72,18.19-2.74,1.47,1.61,16.72-4.35,14,13.07-.33,2.15,14.34,10.92-1,19.67-1.9,1.08.93,18.59-15.46,12.07-2-.8-13.44,12.87-18.56-4-.63-2.09C124.81,67.88,134.81,53.36,144,68,134.81,53.36,152.4,52.13,146.15,67.85Z"/><path d="M140.51,84.45a2.48,2.48,0,0,1-2.17-1.3c-1-1.66-.72-4.85,2.55-8.89-4.08,3-7.17,3.14-8.72,2.14a2.52,2.52,0,0,1-1-3.08c.65-1.83,3.19-3.73,8.24-3.87-6-1.43-6.72-4.42-6.8-5.09a2.63,2.63,0,0,1,1.84-2.82c1.8-.64,4.76.1,7.84,3.76-1.88-4.15-1.35-6.9,0-8.18a2.7,2.7,0,0,1,3.48-.29c1.52,1,2.64,3.7,1.56,8.15,2.27-4,4.93-5.15,6.73-4.85a2.69,2.69,0,0,1,2.33,2.6c.08,1.84-1.42,4.2-5.64,5.93,4.75-.55,7.41,1,8.29,2.65a2.62,2.62,0,0,1-.61,3.31c-.52.43-3.07,2.13-8.43-1,3.57,3.57,4.11,6.69,3.32,8.47a2.54,2.54,0,0,1-2.85,1.55c-1.82-.34-4-2.55-4.87-7.55-.4,5.18-2.41,7.66-4.25,8.21A2.82,2.82,0,0,1,140.51,84.45Zm3-12.42c-5.29,5.07-5.9,9-4.81,10.91a2.1,2.1,0,0,0,2.49,1c2.07-.61,4.36-3.92,4-11.24l.41,0c.35,7.21,2.86,10.21,4.9,10.59A2.12,2.12,0,0,0,152.9,82c1.34-3-1.92-7.28-5.74-10.19l.25-.32c5.46,4.16,9.19,4.14,10.71,2.86a2.19,2.19,0,0,0,.51-2.81c-1-1.91-4.44-3.54-11-1.84l-.1-.4c6.32-1.64,8.46-4.54,8.37-6.51a2.3,2.3,0,0,0-2-2.22c-2-.34-5.23,1.39-7.62,7.4l-.38-.15c2.39-6,1.25-9.47-.46-10.61a2.29,2.29,0,0,0-3,.24c-1.42,1.38-1.86,5,1.61,10.49l-.35.21c-3.57-5.7-7.2-6.9-9.23-6.19A2.19,2.19,0,0,0,133,64.31c.23,2,2.92,4.56,9.75,5.29l0,.4c-4.76-.5-10.07.36-11.16,3.46a2.12,2.12,0,0,0,.84,2.6c1.75,1.13,5.63.67,10.84-4.32Z"/><line class="cls-6" x1="152.48" y1="63.74" x2="148.49" y2="67.02"/><rect x="147.9" y="65.18" width="5.17" height="0.41" transform="translate(-7.25 110.54) rotate(-39.46)"/><line class="cls-6" x1="144.53" y1="65.65" x2="144.26" y2="60.15"/><rect x="144.19" y="60.15" width="0.41" height="5.5" transform="translate(-2.85 7.01) rotate(-2.75)"/><line class="cls-6" x1="140.94" y1="67.5" x2="136.03" y2="64.56"/><rect x="138.29" y="63.17" width="0.41" height="5.72" transform="matrix(0.51, -0.86, 0.86, 0.51, 10.74, 151.01)"/><line class="cls-6" x1="139.78" y1="71.51" x2="134.29" y2="73.53"/><rect x="134.11" y="72.32" width="5.85" height="0.41" transform="matrix(0.94, -0.34, 0.34, 0.94, -16.6, 51.69)"/><line class="cls-6" x1="143.38" y1="75.8" x2="140.91" y2="80.75"/><rect x="139.38" y="78.07" width="5.53" height="0.41" transform="translate(8.68 170.57) rotate(-63.5)"/><line class="cls-6" x1="150.63" y1="79.78" x2="147.84" y2="75.24"/><rect x="149.03" y="74.85" width="0.41" height="5.33" transform="matrix(0.85, -0.52, 0.52, 0.85, -18.48, 89.83)"/><line class="cls-6" x1="155.32" y1="71.93" x2="150.15" y2="70.95"/><rect x="152.53" y="68.81" width="0.41" height="5.27" transform="translate(54 208.13) rotate(-79.22)"/><path class="cls-7" d="M141.86,68a4,4,0,1,0,5.71.25A4,4,0,0,0,141.86,68Z"/><path d="M144.59,75.23a4.2,4.2,0,0,1-3.13-1.38,4.24,4.24,0,1,1,3.13,1.38Zm0-8.09a3.81,3.81,0,0,0-2.6,1,3.84,3.84,0,1,0,2.77-1Z"/><path class="cls-1" d="M149.47,128.17q1.59-4.95,3.12-9.91c4.92-16.05,9.36-32.47,11.63-49.13,1.29-9.45,1.87-19,2.6-28.47.21-2.84-4.18-3.66-4.4-.79-.64,8.35-1.16,16.72-2.16,25a237.29,237.29,0,0,1-4.41,24.24c-3,13.13-6.78,26.06-11,38.84Z"/><path d="M149.62,128.38h-.16c-1.52-.08-3.08-.14-4.65-.19h-.27l.09-.26c4.68-14,8.28-26.75,11-38.81a232.58,232.58,0,0,0,4.41-24.22c.8-6.72,1.31-13.59,1.8-20.22.12-1.61.23-3.21.36-4.82a2,2,0,0,1,2.31-2A2.62,2.62,0,0,1,167,40.67l-.36,4.8c-.57,7.78-1.17,15.83-2.24,23.69C162,87,157.18,104,152.78,118.32c-.94,3.08-2,6.33-3.12,9.91Zm-4.52-.59,4.22.17c1.14-3.53,2.14-6.72,3.07-9.76,4.39-14.31,9.2-31.33,11.63-49.1,1.07-7.85,1.66-15.88,2.23-23.66l.36-4.8a2.2,2.2,0,0,0-2.11-2.35,1.64,1.64,0,0,0-1.88,1.6l-.36,4.8c-.49,6.65-1,13.52-1.8,20.24a232.76,232.76,0,0,1-4.41,24.27C153.33,101.2,149.74,113.83,145.1,127.79Z"/><path class="cls-6" d="M165.54,34.56c-2.49-22.87,20.11-14.87,2.79,1,17.32-15.86,25.14,6.8,1,2.8,24.17,4,11.34,24.25-1.59,2.5,12.93,21.75-10.9,24.34-2.94.32-8,24-24.84,7-2.09-2.1-22.75,9.1-20-14.71.34-2.94C142.7,24.36,163.05,11.69,165.54,34.56Z"/><path d="M167.79,58.39a3.52,3.52,0,0,1-1.86-.55c-2.26-1.41-4-5.56-2.43-12.83-3,6.63-6.76,8.85-9.31,8.64a3.34,3.34,0,0,1-3.1-3c-.4-2.7,1.58-6.75,8-10.18-4.82,1.31-9.95,1.49-12-1.54a3.49,3.49,0,0,1,.39-4.47c1.8-1.94,6-2.94,12.27-.22-5.25-3.89-6.46-7.65-5.67-10.09a3.58,3.58,0,0,1,3.92-2.5c3.78.39,6.07,4.81,7.14,9.46.05-4.77,1.34-9.58,5-10.78A3.59,3.59,0,0,1,174.47,22c1.3,2.21.93,6.14-3.37,11.07,5.56-4,9.85-3.93,12-2.42a3.5,3.5,0,0,1,1.35,4.28c-1.38,3.4-6.43,4.34-11.43,4.08,7.06,2,9.87,5.5,10.06,8.22a3.35,3.35,0,0,1-2.39,3.59c-2.45.76-6.58-.61-10.94-6.44,3.09,6.76,2.28,11.18.37,13.05A3.34,3.34,0,0,1,167.79,58.39ZM165,41.24c-3.14,9.49-1.33,14.68,1.19,16.25a2.92,2.92,0,0,0,3.72-.4C172,55,172.64,49.55,167.54,41l.35-.21c5,8.46,10,10.48,12.71,9.63a3,3,0,0,0,2.1-3.18c-.21-3-3.85-7.06-13.44-8.65l.07-.4c9.25,1.53,13.74-.89,14.77-3.43a3.09,3.09,0,0,0-1.2-3.79c-2.42-1.68-7.65-1.44-14.43,4.77l-.28-.3c6.58-6,7.31-10.9,5.93-13.24a3.19,3.19,0,0,0-3.88-1.43c-2.67.88-5.45,5-4.5,13.81l-.41,0c-1-8.78-4.56-12.23-7.36-12.52a3.19,3.19,0,0,0-3.48,2.23c-.84,2.59.92,7.19,8.63,11.66l-.2.36c-8-4.61-13.12-3.72-15.12-1.56a3.1,3.1,0,0,0-.36,4c1.55,2.25,6.46,3.66,15.16.17l.15.38c-9,3.61-11.7,8.36-11.26,11.34a2.94,2.94,0,0,0,2.74,2.64c2.85.25,7.24-2.78,10.34-12.13Z"/><line class="cls-6" x1="170.53" y1="25.59" x2="167.82" y2="32.07"/><rect x="165.66" y="28.63" width="7.03" height="0.41" transform="translate(77.32 173.79) rotate(-67.31)"/><line class="cls-6" x1="162.19" y1="32.94" x2="158.37" y2="26.51"/><rect x="160.08" y="25.99" width="0.41" height="7.48" transform="translate(7.24 85.87) rotate(-30.65)"/><line class="cls-6" x1="159.06" y1="37.45" x2="151.29" y2="37.04"/><rect x="154.97" y="33.36" width="0.41" height="7.78" transform="translate(109.92 190.28) rotate(-87.02)"/><line class="cls-6" x1="160.22" y1="43" x2="154.91" y2="48.92"/><rect x="153.59" y="45.76" width="7.95" height="0.41" transform="translate(18.13 132.54) rotate(-48.1)"/><line class="cls-6" x1="167.27" y1="45.87" x2="167.46" y2="53.39"/><rect x="167.16" y="45.87" width="0.41" height="7.52" transform="translate(-1.17 4.12) rotate(-1.41)"/><line class="cls-6" x1="178.52" y1="46.04" x2="172.27" y2="42.36"/><polygon points="178.41 46.21 172.16 42.54 172.37 42.19 178.62 45.86 178.41 46.21"/><line class="cls-6" x1="179.16" y1="33.63" x2="172.31" y2="35.74"/><rect x="172.15" y="34.48" width="7.16" height="0.41" transform="translate(-2.42 53.31) rotate(-17.13)"/><path class="cls-7" d="M160.47,37.46a5.5,5.5,0,1,0,7-3.34A5.51,5.51,0,0,0,160.47,37.46Z"/><path d="M165.65,45a5.57,5.57,0,0,1-1.91-.33,5.72,5.72,0,0,1-3.46-7.29h0A5.71,5.71,0,1,1,165.65,45Zm0-11a5.29,5.29,0,0,0-5,3.52h0a5.3,5.3,0,1,0,9.78-.5,5.33,5.33,0,0,0-4.79-3Z"/><path class="cls-1" d="M111.63,126.78q-1.06-5.09-2.06-10.18c-3.23-16.48-5.93-33.27-6.46-50.07-.29-9.53.12-19.07.39-28.59.08-2.85,4.53-3.2,4.45-.33-.23,8.38-.58,16.75-.46,25.13a237.46,237.46,0,0,0,1.86,24.57c1.6,13.37,4,26.63,6.93,39.77Q114,126.92,111.63,126.78Z"/><path d="M116.54,127.31l-.27,0c-1.55-.12-3.12-.22-4.65-.3h-.15l0-.16c-.77-3.68-1.44-7-2.06-10.18-2.88-14.71-5.9-32.16-6.46-50.11-.25-7.93,0-16,.24-23.78,0-1.61.1-3.21.14-4.82a2.5,2.5,0,0,1,1.33-2.17,2.72,2.72,0,0,1,2.61,0,2,2,0,0,1,.93,1.87L108,42.43c-.2,6.66-.41,13.54-.32,20.31a242.74,242.74,0,0,0,1.86,24.55c1.47,12.27,3.74,25.28,6.93,39.75Zm-4.74-.72,4.22.27c-3.16-14.38-5.41-27.31-6.87-39.52a237.67,237.67,0,0,1-1.86-24.6c-.1-6.77.11-13.66.31-20.32l.15-4.81A1.61,1.61,0,0,0,107,36.1a2.27,2.27,0,0,0-2.2,0,2.05,2.05,0,0,0-1.12,1.82c0,1.61-.09,3.22-.14,4.82-.24,7.79-.49,15.84-.24,23.76.56,17.92,3.57,35.35,6.45,50C110.38,119.69,111,123,111.8,126.59Z"/><path class="cls-6" d="M105.4,32c4.86-22.49-18.45-16.88-2.88.69C87,15.13,76.81,36.84,101.27,35.39,76.81,36.84,87.46,58.32,102.59,38c-15.13,20.28,8.3,25.34,2.89.63,5.41,24.71,24,9.54,2.3-1.88,21.68,11.42,21.4-12.55,0-3C129.18,24.24,110.26,9.52,105.4,32Z"/><path d="M101,55.5a3.31,3.31,0,0,1-2.58-1.28c-1.7-2-2-6.54,1.73-12.94-5,5.34-9.2,6.28-11.55,5.26a3.34,3.34,0,0,1-2-3.82c.47-2.68,3.62-5.9,10.85-7.12-5-.27-9.92-1.72-10.94-5.25a3.49,3.49,0,0,1,1.79-4.11c2.32-1.28,6.6-.91,11.71,3.65-3.76-5.35-3.72-9.3-2.2-11.36a3.6,3.6,0,0,1,4.51-1.14c3.47,1.57,4.24,6.49,3.79,11.23,1.55-4.5,4.29-8.66,8.09-8.66h0a3.58,3.58,0,0,1,3.63,2.9c.53,2.5-1.06,6.11-6.69,9.44,6.54-2,10.59-.62,12.18,1.5a3.49,3.49,0,0,1-.07,4.48c-2.39,2.8-7.47,2.09-12.13.28,6.08,4.09,7.63,8.32,6.95,11a3.36,3.36,0,0,1-3.4,2.65c-2.56,0-6-2.65-8.35-9.56.8,7.4-1.37,11.34-3.76,12.51A3.62,3.62,0,0,1,101,55.5Zm1.73-17.34c-6,8-5.89,13.52-4,15.8a2.91,2.91,0,0,0,3.66.79c2.66-1.3,5-6.28,2.87-16l.4-.09c2.11,9.62,6.18,13.1,9,13.15h.06a3,3,0,0,0,2.94-2.35c.74-2.91-1.43-7.92-10-12.45l.19-.36C116.17,41,121.19,40.1,123,38a3.1,3.1,0,0,0,0-4c-1.76-2.36-6.8-3.78-15.2,0l-.16-.38c8.14-3.64,10.37-8,9.8-10.7a3.18,3.18,0,0,0-3.23-2.57h0c-2.81,0-6.75,3.06-8.62,11.68l-.4-.08c1.87-8.64-.47-13-3-14.21a3.19,3.19,0,0,0-4,1c-1.61,2.18-1.4,7.11,4.52,13.79l-.31.27C96.27,26,91.1,25.17,88.52,26.59a3.09,3.09,0,0,0-1.59,3.65c.76,2.63,5,5.5,14.33,4.94l0,.41c-9.69.58-13.74,4.24-14.26,7.2a3,3,0,0,0,1.76,3.38c2.62,1.13,7.76-.36,13.64-8.25Z"/><line class="cls-6" x1="101.37" y1="22.56" x2="103.39" y2="29.3"/><rect x="102.18" y="22.42" width="0.41" height="7.03" transform="translate(-3.13 30.51) rotate(-16.7)"/><line class="cls-6" x1="108.91" y1="30.74" x2="113.37" y2="24.74"/><rect x="107.4" y="27.54" width="7.48" height="0.41" transform="translate(22.56 100.38) rotate(-53.37)"/><line class="cls-6" x1="111.54" y1="35.55" x2="119.31" y2="35.96"/><rect x="115.22" y="31.87" width="0.41" height="7.78" transform="translate(73.68 149.15) rotate(-87)"/><line class="cls-6" x1="109.82" y1="40.96" x2="114.48" y2="47.4"/><rect x="111.94" y="40.2" width="0.41" height="7.95" transform="translate(-4.59 74.18) rotate(-35.91)"/><line class="cls-6" x1="102.5" y1="43.07" x2="101.54" y2="50.53"/><rect x="98.26" y="46.6" width="7.52" height="0.41" transform="translate(42.42 141.92) rotate(-82.57)"/><line class="cls-6" x1="91.3" y1="42.07" x2="97.9" y2="39.07"/><rect x="90.98" y="40.36" width="7.25" height="0.41" transform="translate(-8.31 42.83) rotate(-24.47)"/><line class="cls-6" x1="91.96" y1="29.66" x2="98.55" y2="32.47"/><rect x="95.05" y="27.48" width="0.41" height="7.16" transform="translate(29.3 106.49) rotate(-66.9)"/><path class="cls-7" d="M110.14,35.42a5.5,5.5,0,1,1-6.64-4.05A5.5,5.5,0,0,1,110.14,35.42Z"/><path d="M104.78,42.42a5.71,5.71,0,1,1,5.56-7.05h0a5.7,5.7,0,0,1-5.56,7.05Zm0-11a5.42,5.42,0,0,0-1.26.15A5.3,5.3,0,0,0,102,41.24a5.3,5.3,0,0,0,7.91-5.77h0a5.28,5.28,0,0,0-5.14-4Z"/><polygon class="cls-3" points="23.47 103.64 52.79 89.46 74.81 139.28 68.97 141.97 49.72 97.45 26.2 108.77 23.47 103.64"/><path d="M68.87,142.25l-.08-.19L49.62,97.73,26.11,109l-2.92-5.5.19-.09L52.89,89.19l.09.19,22.1,50ZM49.82,97.18,69.08,141.7l5.46-2.52L52.69,89.74l-28.94,14,2.54,4.77Z"/><rect x="14.37" y="100.28" width="25.38" height="8.88" transform="translate(-41.56 21.12) rotate(-24.89)"/><path d="M17.32,114.36l-3.91-8.42.19-.09L36.8,95.09l3.91,8.42ZM14,106.14l3.57,7.68,22.65-10.51L36.6,95.63Z"/><polygon class="cls-3" points="190.81 210.52 195.1 209.88 194.78 172.32 185.27 173.45 190.81 210.52"/><path d="M190.64,210.75l0-.2L185,173.27,195,172.1l.32,38Zm-5.14-37.12L191,210.29l3.91-.59-.31-37.15Z"/><path class="cls-2" d="M175.43,210.62a16.76,16.76,0,1,0,14.76-18.53A16.74,16.74,0,0,0,175.43,210.62Zm2.23-.25a14.51,14.51,0,1,1,16.05,12.78A14.5,14.5,0,0,1,177.66,210.37Z"/><path d="M192.06,225.7a17,17,0,0,1-16.83-15.06h0a17,17,0,1,1,18.76,15A18,18,0,0,1,192.06,225.7Zm-16.43-15.1a16.55,16.55,0,1,0,14.58-18.31,16.57,16.57,0,0,0-14.58,18.31Zm16.44,12.85a14.74,14.74,0,0,1-14.61-13.06,14.72,14.72,0,0,1,13-16.28,14.72,14.72,0,0,1,3.31,29.25A15.53,15.53,0,0,1,192.07,223.45Zm-14.21-13.1a14.31,14.31,0,1,0,3-10.53,14.33,14.33,0,0,0-3,10.53Z"/><line class="cls-2" x1="197.88" y1="195.58" x2="186.27" y2="221.96"/><rect x="177.66" y="208.57" width="28.82" height="0.41" transform="translate(-76.37 300.51) rotate(-66.25)"/><line class="cls-2" x1="205.27" y1="214.58" x2="178.89" y2="202.97"/><rect x="191.87" y="194.36" width="0.41" height="28.82" transform="translate(-76.38 300.47) rotate(-66.24)"/><line class="cls-2" x1="205.51" y1="203.55" x2="178.64" y2="213.99"/><rect x="177.66" y="208.57" width="28.82" height="0.41" transform="translate(-62.54 83.67) rotate(-21.22)"/><line class="cls-2" x1="197.3" y1="222.21" x2="186.85" y2="195.34"/><rect x="191.87" y="194.36" width="0.41" height="28.82" transform="translate(-62.59 83.78) rotate(-21.24)"/><circle class="cls-2" cx="192.19" cy="209.31" r="4.14" transform="translate(-90.22 240.78) rotate(-53.8)"/><path d="M192.18,213.65a4.33,4.33,0,0,1-4.28-3.7h0a4.34,4.34,0,1,1,4.93,3.65A4.62,4.62,0,0,1,192.18,213.65Zm-3.88-3.76a3.93,3.93,0,0,0,7,1.76,3.93,3.93,0,1,0-7-1.76Z"/><path class="cls-3" d="M126.31,185l-8.54-4.37-14,27.24a.93.93,0,0,1-1.67,0L88.92,179,80,182.63l19.4,39.56a3.16,3.16,0,0,0,5.59.17Z"/><path d="M102.27,224.17h-.11a3.33,3.33,0,0,1-2.92-1.89l-19.5-39.76L89,178.78l13.26,28.95a.7.7,0,0,0,.64.42.68.68,0,0,0,.66-.39l14.11-27.43,8.9,4.57-.1.18-21.3,37.38A3.31,3.31,0,0,1,102.27,224.17Zm-22-41.43L99.6,222.1a3,3,0,0,0,2.57,1.66,2.9,2.9,0,0,0,2.67-1.5L126,185.07l-8.17-4.19L103.94,208a1.13,1.13,0,0,1-1,.61,1.11,1.11,0,0,1-1-.66l-13.1-28.59Z"/><polygon class="cls-3" points="73.27 190.04 204.44 177.92 220.07 111.71 59.19 104.06 73.27 190.04"/><path d="M73.1,190.26l0-.19L59,103.85h.25l161.13,7.66-.06.24-15.66,66.35h-.15Zm-13.67-86,14,85.54,130.84-12.09,15.54-65.83Z"/><line class="cls-8" x1="217.4" y1="123.65" x2="62.26" y2="120.26"/><rect x="139.63" y="44.36" width="0.41" height="155.18" transform="translate(14.86 259.09) rotate(-88.75)"/><line class="cls-8" x1="213.97" y1="137.3" x2="65.3" y2="138.69"/><rect x="65.3" y="137.79" width="148.68" height="0.41" transform="translate(-1.32 1.34) rotate(-0.55)"/><line class="cls-8" x1="209.88" y1="154.26" x2="68.31" y2="158.83"/><polygon points="68.32 159.04 68.3 158.63 209.87 154.05 209.88 154.46 68.32 159.04"/><line class="cls-8" x1="205.8" y1="170.71" x2="71.61" y2="179.37"/><rect x="71.47" y="174.84" width="134.47" height="0.41" transform="translate(-11.02 9.33) rotate(-3.7)"/><path d="M161.3,161.75h0a11.18,11.18,0,0,1-1.42,2.91,21.8,21.8,0,0,1-5.39,5.54l-.06,0c-.44.3-.9.59-1.37.85a23.93,23.93,0,0,1-19,1.79,26.74,26.74,0,0,1-5.87-2.65c-.49-.3-1-.62-1.44-1a15.21,15.21,0,0,1-5-5.67,10,10,0,0,1-1-4.38,4.87,4.87,0,0,1,0-.54c.26-4.15,3.48-5.19,7.15-5H128a41,41,0,0,1,9,1.8q1.08.31,2.16.54l.71.13a15.38,15.38,0,0,0,2.44.23,5,5,0,0,0,.55,0,5.68,5.68,0,0,0,.59,0c3-.21,5.82-1.45,8.82-1.66a12.19,12.19,0,0,1,2.09,0c2.16.18,4.59.83,5.94,2.22A4.67,4.67,0,0,1,161.3,161.75Z"/><path d="M141.68,174.27a25.56,25.56,0,0,1-7.64-1.18,27.06,27.06,0,0,1-5.92-2.68c-.49-.29-1-.61-1.45-.95a15.24,15.24,0,0,1-5.1-5.76,10.22,10.22,0,0,1-1-4.46c0-.18,0-.37,0-.55.23-3.65,2.7-5.42,7.37-5.24H128a40.1,40.1,0,0,1,9,1.81c.82.23,1.5.4,2.15.53l.71.13a15.93,15.93,0,0,0,2.41.23h.54l.58,0a25,25,0,0,0,4.39-.83,26,26,0,0,1,4.42-.84,13.72,13.72,0,0,1,2.13,0c1.25.1,4.36.52,6.06,2.27a4.88,4.88,0,0,1,1.05,5.07l0,0a11.08,11.08,0,0,1-1.43,2.93,21.92,21.92,0,0,1-5.45,5.6l0,0a16.27,16.27,0,0,1-1.39.87A22.94,22.94,0,0,1,141.68,174.27Zm-14.35-20.43c-4,0-6.12,1.6-6.33,4.87,0,.18,0,.36,0,.54a9.76,9.76,0,0,0,1,4.28,14.81,14.81,0,0,0,5,5.59c.46.34.94.65,1.42.95a26.68,26.68,0,0,0,5.83,2.63,23.66,23.66,0,0,0,18.8-1.77c.47-.27.93-.56,1.36-.85l.05,0a21.85,21.85,0,0,0,5.34-5.48,10.84,10.84,0,0,0,1.39-2.86h0a4.47,4.47,0,0,0-.94-4.67c-1.6-1.65-4.6-2.06-5.81-2.15a11.77,11.77,0,0,0-2.06,0,25.48,25.48,0,0,0-4.35.82,25.46,25.46,0,0,1-4.46.85l-.6,0h-.56a15.61,15.61,0,0,1-2.47-.24l-.72-.13c-.66-.14-1.35-.31-2.18-.54a40.2,40.2,0,0,0-8.93-1.8h-.69Z"/><path class="cls-7" d="M153.06,171.1a23.93,23.93,0,0,1-19,1.79,26.74,26.74,0,0,1-5.87-2.65,18.47,18.47,0,0,1,24.83.86Z"/><path d="M141.68,174.27a25.56,25.56,0,0,1-7.64-1.18,27.06,27.06,0,0,1-5.92-2.68l-.23-.14.2-.18a18.65,18.65,0,0,1,25.12.88l.18.18-.23.13A22.94,22.94,0,0,1,141.68,174.27Zm-13.12-4.06a27.31,27.31,0,0,0,5.6,2.49,23.76,23.76,0,0,0,18.58-1.64,18.31,18.31,0,0,0-24.18-.85Z"/><path class="cls-6" d="M139.88,156.12l-.12,4.1a3.28,3.28,0,0,1-3.23,3.17l-14.72.23a9.67,9.67,0,0,1-1-4.38,5,5,0,0,1,0-.54c.26-4.06,3.47-5.14,7.19-5h0a41,41,0,0,1,9,1.8q1.08.31,2.16.54Z"/><path d="M121.68,163.82l-.05-.11a9.94,9.94,0,0,1-1-4.47c0-.18,0-.37,0-.55.23-3.59,2.72-5.37,7.4-5.24a40,40,0,0,1,9.06,1.81c.82.23,1.5.4,2.15.53l.71.13.17,0-.13,4.28a3.47,3.47,0,0,1-3.42,3.37Zm5.91-10c-4.22,0-6.37,1.59-6.58,4.86,0,.18,0,.36,0,.54a9.41,9.41,0,0,0,1,4.16l14.59-.22a3.07,3.07,0,0,0,3-3l.13-3.93-.55-.1c-.66-.14-1.35-.31-2.18-.54a40.2,40.2,0,0,0-8.93-1.8Z"/><path class="cls-6" d="M161.3,161.75h0a11.18,11.18,0,0,1-1.42,2.91l-14.76-1a3.12,3.12,0,0,1-2.9-3.19l.1-4.09a5,5,0,0,0,.55,0,5.68,5.68,0,0,0,.59,0c3-.21,5.82-1.45,8.82-1.66a12.19,12.19,0,0,1,2.09,0c2.16.18,4.59.83,5.94,2.22A4.67,4.67,0,0,1,161.3,161.75Z"/><path d="M160,164.88l-14.89-1a3.32,3.32,0,0,1-3.08-3.4l.1-4.28h.75l.58,0a25,25,0,0,0,4.39-.83,26,26,0,0,1,4.42-.84,13.72,13.72,0,0,1,2.13,0c1.25.1,4.36.52,6.06,2.27a4.88,4.88,0,0,1,1.05,5.07l0,0a11.08,11.08,0,0,1-1.43,2.93Zm-17.47-8.32-.1,3.88a2.91,2.91,0,0,0,2.71,3l14.65,1a10.93,10.93,0,0,0,1.32-2.76h0a4.47,4.47,0,0,0-.94-4.67c-1.6-1.65-4.6-2.06-5.81-2.15a11.77,11.77,0,0,0-2.06,0,25.48,25.48,0,0,0-4.35.82,25.46,25.46,0,0,1-4.46.85l-.6,0Z"/><path d="M89.79,123.3A27.69,27.69,0,0,0,85,118.15a17.67,17.67,0,0,0-5.81-3.48l-.15-.06.15-.38.15.06a18.24,18.24,0,0,1,5.92,3.54,28.19,28.19,0,0,1,4.89,5.23Z"/><path d="M87.38,131.22a33.15,33.15,0,0,0-6.58-2.57,32.36,32.36,0,0,0-6.41-1.05l0-.41a33.09,33.09,0,0,1,6.48,1.07,32.6,32.6,0,0,1,6.67,2.6Z"/><path d="M74.59,141.11l-.13-.38a32.32,32.32,0,0,1,13-1.8l0,.4a32.55,32.55,0,0,0-12.79,1.78Z"/><path class="cls-6" d="M133.15,135.09a24.3,24.3,0,0,1-21.48,23.72,22.78,22.78,0,0,1-3.21.16,24.29,24.29,0,0,1,.83-48.57,22.52,22.52,0,0,1,3.2.27A24.28,24.28,0,0,1,133.15,135.09Z"/><path d="M108.9,159.17h-.44a24.49,24.49,0,1,1,.83-49,23.17,23.17,0,0,1,3.23.27,24.49,24.49,0,0,1-.83,48.54A22.65,22.65,0,0,1,108.9,159.17Zm0-48.57a24.08,24.08,0,0,0-.41,48.16,23.15,23.15,0,0,0,3.18-.15,24.08,24.08,0,0,0,.82-47.74,22.55,22.55,0,0,0-3.17-.27Z"/><circle cx="109.02" cy="134.22" r="19.16" transform="translate(-63.53 123.03) rotate(-47.2)"/><path d="M109,153.58l-.78,0a19.25,19.25,0,1,1,.78,0Zm0-38.32a19.07,19.07,0,1,0,.78,0Z"/><path d="M192.19,129.15l-.35-.2a28,28,0,0,1,4.24-5.77,18.1,18.1,0,0,1,5.47-4.21l.14-.07.19.35-.14.08a17.91,17.91,0,0,0-5.37,4.13A28.18,28.18,0,0,0,192.19,129.15Z"/><path d="M195.52,136.73l-.23-.34a32.91,32.91,0,0,1,12.63-5.18l.07.4a32.52,32.52,0,0,0-12.47,5.12Z"/><path d="M209.38,145.05a33.07,33.07,0,0,0-6-.77,31.81,31.81,0,0,0-6.89.51l-.08-.4a32.42,32.42,0,0,1,13.08.27Z"/><path class="cls-6" d="M199.4,137.37a24.3,24.3,0,0,1-21.48,23.72,22.78,22.78,0,0,1-3.21.16,24.29,24.29,0,0,1,.83-48.57,22.52,22.52,0,0,1,3.2.27A24.28,24.28,0,0,1,199.4,137.37Z"/><path d="M175.16,161.46h-.45a24.49,24.49,0,0,1,.41-49h.42a23.3,23.3,0,0,1,3.23.27,24.52,24.52,0,0,1,20.83,24.63h0a24.54,24.54,0,0,1-21.66,23.91A22.44,22.44,0,0,1,175.16,161.46Zm0-48.58a24.08,24.08,0,0,0-.41,48.16,23.15,23.15,0,0,0,3.18-.15,24.08,24.08,0,0,0,.82-47.74,21.18,21.18,0,0,0-3.17-.26Z"/><circle cx="175.3" cy="136.88" r="19.16" transform="translate(-32.38 216.46) rotate(-58.95)"/><path d="M175.32,156.24l-.8,0a19.36,19.36,0,1,1,20.12-18.57h0a19.37,19.37,0,0,1-19.32,18.59Zm0-38.32a19,19,0,0,0-.75,37.89,19,19,0,0,0,19.7-18.17h0a19,19,0,0,0-18.18-19.7Z"/><path class="cls-4" d="M147.69,146.21a5.53,5.53,0,1,1-5.35-5.7A5.52,5.52,0,0,1,147.69,146.21Z"/><path d="M142.17,151.76H142a5.73,5.73,0,0,1-3.73-9.91,5.73,5.73,0,1,1,3.92,9.91Zm0-11a5.32,5.32,0,0,0-.16,10.64,5.33,5.33,0,0,0,5.49-5.15h0a5.33,5.33,0,0,0-5.15-5.49Z"/><path d="M221.78,224.85c-.52-6.34-12.41-9.51-21.15-11-14.46-2.42-30,4.28-44.64,2.31-8.84-1.19-15.92-3-25.84-3.21-12.37-.21-19.43,3.85-32.66,3.52-8.33-.21-15.29-1.75-23.33-2.16-9.83-.52-16.79,2.09-26.58,1.85-8.15-.2-18.31-1.87-24.32.67-5,2.1-10.11,3.32-9.65,8Z"/><path d="M13.42,225.08v-.19c-.41-4.17,3.51-5.72,7.65-7.36.7-.27,1.42-.56,2.12-.86,4.54-1.91,11.35-1.46,17.94-1,2.26.15,4.4.29,6.46.34A78.53,78.53,0,0,0,60.31,215a72.07,72.07,0,0,1,13.86-.9c3.67.19,7.18.62,10.56,1,4,.49,8.24,1,12.76,1.12a74.65,74.65,0,0,0,17-1.78,72.63,72.63,0,0,1,15.66-1.73,114.11,114.11,0,0,1,18.09,2c2.49.42,5.06.85,7.77,1.21,7.11,1,14.57-.16,21.79-1.24,7.58-1.13,15.42-2.3,22.86-1.06,17.09,2.85,21,7.64,21.31,11.15l0,.22Zm19.2-9.41a24.59,24.59,0,0,0-9.28,1.38c-.71.3-1.42.58-2.13.86-4.1,1.63-7.66,3-7.41,6.76l207.76,0c-.8-6.28-13.44-9.32-21-10.57s-15.18-.06-22.73,1.07c-7.24,1.08-14.73,2.2-21.91,1.24-2.71-.37-5.29-.8-7.77-1.21a112.43,112.43,0,0,0-18-2,71.22,71.22,0,0,0-15.58,1.72,75.16,75.16,0,0,1-17.09,1.79c-4.54-.12-8.74-.63-12.8-1.13-3.38-.41-6.87-.84-10.53-1a71.32,71.32,0,0,0-13.78.89,78.12,78.12,0,0,1-12.79,1c-2.07,0-4.22-.19-6.49-.34C38.24,215.86,35.35,215.67,32.62,215.67Z"/></g></svg>