<svg width="24" height="25" viewBox="0 0 24 25" fill="none" xmlns="http://www.w3.org/2000/svg">
<path d="M18.0254 14.575H16.5V23.51C16.5 23.9075 16.6695 24.289 16.9709 24.5684C17.2712 24.8478 17.6792 25.0033 18.1029 24.9999H18.9164C19.7917 24.9977 20.5 24.3311 20.5 23.51V14.575H18.96V11H18.0254L18.0254 14.575Z" fill="black"/>
<path d="M23.3316 8.52681L19.5113 0.931599C19.2206 0.359588 18.6333 0 17.9927 0C17.352 0 16.7647 0.359588 16.474 0.931599L12.6774 8.52681C12.4164 9.05493 12.4448 9.68153 12.7533 10.1835C13.0618 10.6855 13.6064 10.9941 14.196 11H17.5513V7.69608C17.5122 7.55367 17.543 7.40058 17.632 7.28308C17.7222 7.16559 17.861 7.09676 18.0093 7.09676C18.1576 7.09676 18.2964 7.16559 18.3866 7.28308C18.4756 7.40057 18.5064 7.55366 18.4673 7.69608V10.9857H21.8226C22.4051 10.9715 22.9414 10.6641 23.2463 10.1669C23.5512 9.66962 23.5831 9.05253 23.3316 8.52681Z" fill="black"/>
<path d="M5.76451 11.0134C5.64826 11.0179 5.53051 11.0179 5.41426 11.0134V14.5974H3.50001V23.5119C3.4985 23.9089 3.70834 24.2888 4.08274 24.569C4.45713 24.848 4.96436 25.0033 5.49275 24.9999H6.51931C7.04469 24.9999 7.54892 24.8434 7.92029 24.5644C8.29165 24.2854 8.5 23.9066 8.5 23.5119V14.5884H6.57968V11C6.33209 11.0091 6.01208 11.0179 5.76451 11.0134Z" fill="black"/>
<path d="M9.83925 0C9.14872 0 8.58814 0.604662 8.58814 1.34949V4.16251C8.58814 4.35377 8.44387 4.50938 8.26656 4.50938C8.08926 4.50938 7.94498 4.35376 7.94498 4.16251V2.49465C7.86128 -0.803124 4.1388 -0.803124 4.05506 2.49465V4.16251C4.05506 4.35377 3.91079 4.50938 3.73348 4.50938C3.55618 4.50938 3.4119 4.35376 3.4119 4.16251V1.34949C3.4097 0.603476 2.84802 0 2.1564 0C1.24229 0.00237571 0.502199 0.800661 0.5 1.78665V5.22674C0.504405 6.71284 1.03743 8.14073 1.98898 9.21454C2.94053 10.2896 4.239 10.9287 5.61444 11V7.72139C5.5781 7.57884 5.60673 7.42559 5.68933 7.30798C5.77303 7.19037 5.90189 7.12148 6.03956 7.12148C6.17722 7.12148 6.30608 7.19037 6.38978 7.30798C6.47238 7.42559 6.50102 7.57883 6.46467 7.72139V10.9954C7.8259 10.9028 9.10346 10.2554 10.0385 9.18385C10.9736 8.11235 11.4956 6.69751 11.5 5.22677V1.78668C11.4978 0.799506 10.7545 0 9.83925 0Z" fill="black"/>
</svg>
