<svg width="183" height="213" viewBox="0 0 183 213" fill="none" xmlns="http://www.w3.org/2000/svg">
<path d="M85.6389 16C81.3614 15.994 77.2024 17.7174 74.1974 20.8694C74.1975 20.8692 74.1973 20.8695 74.1974 20.8694C70.4902 24.7607 69.0889 30.2689 70.4701 35.4096C68.9563 37.9563 67.7734 40.7161 67.0898 43.7715C66.7784 43.1362 66.4423 42.5165 66.0847 41.9108C67.2535 37.4444 66.0245 32.6709 62.8073 29.2939C62.8075 29.294 62.8072 29.2938 62.8073 29.2939C60.1832 26.5414 56.5515 25.0365 52.8171 25.0417C51.7715 25.0431 50.7178 25.163 49.6758 25.4069L49.7063 25.4034C49.449 25.4578 49.2107 25.5797 49.0161 25.7567C48.8214 25.9336 48.6774 26.1592 48.5987 26.4102C47.1615 31.0398 48.3552 36.0842 51.713 39.6074C51.7129 39.6074 51.7131 39.6075 51.713 39.6074C54.8073 42.8527 59.302 44.3632 63.7146 43.7092C65.2332 46.3648 66.2498 49.273 66.5113 52.6145V59.5184C66.5113 59.9114 66.6674 60.2882 66.9452 60.5661C67.2231 60.8439 67.5999 61 67.9928 61C68.1874 61 68.38 60.9617 68.5598 60.8872C68.7395 60.8128 68.9028 60.7036 69.0404 60.5661C69.178 60.4285 69.2871 60.2652 69.3616 60.0854C69.436 59.9056 69.4743 59.713 69.4743 59.5184V47.811C69.7852 43.8208 71.014 40.3579 72.8424 37.2021C77.9483 38.0123 83.1677 36.2856 86.7486 32.53C86.7485 32.5301 86.7487 32.5299 86.7486 32.53C90.5938 28.4955 91.9598 22.7219 90.3144 17.4216C90.2358 17.1706 90.0917 16.945 89.8971 16.768C89.7024 16.5911 89.4641 16.4692 89.2067 16.4148L89.2373 16.4183C88.0437 16.1389 86.8366 16.0017 85.6389 16ZM85.634 18.9632C86.3248 18.9641 87.0196 19.0206 87.7117 19.1344C88.6623 23.1723 87.5176 27.4282 84.6038 30.4854C82.0167 33.1987 78.3638 34.61 74.6569 34.4165C76.8708 31.3551 79.6126 28.5459 82.5414 25.7532C82.8258 25.482 82.9909 25.109 83.0003 24.7162C83.0096 24.3234 82.8626 23.9429 82.5915 23.6585C82.4422 23.5019 82.2604 23.3799 82.0589 23.3011C81.8575 23.2223 81.6412 23.1886 81.4253 23.2023C81.0777 23.2244 80.749 23.3682 80.4969 23.6086C77.8012 26.1789 75.1645 28.8583 72.9156 31.8074C72.8202 28.5598 74.0167 25.3552 76.3421 22.9141C78.7766 20.3605 82.1548 18.9586 85.634 18.9632ZM52.822 28.0049C55.758 28.001 58.6086 29.1841 60.6624 31.3382C62.4809 33.2472 63.4808 35.7083 63.5525 38.2387C61.6924 35.8766 59.5569 33.7153 57.3827 31.6422C57.1306 31.4018 56.8019 31.258 56.4543 31.2359C56.2384 31.2222 56.0221 31.2559 55.8206 31.3347C55.6192 31.4136 55.4374 31.5355 55.2881 31.6921C55.1539 31.8329 55.0487 31.9988 54.9785 32.1803C54.9084 32.3618 54.8747 32.5553 54.8793 32.7498C54.884 32.9443 54.9269 33.136 55.0056 33.3139C55.0843 33.4919 55.1973 33.6526 55.3381 33.7868C57.753 36.0894 60.0122 38.3975 61.8627 40.8918C58.8689 40.9413 55.95 39.7572 53.8579 37.5631C51.433 35.0186 50.4626 31.4926 51.207 28.1289C51.7454 28.0475 52.285 28.0056 52.822 28.0049Z" fill="white"/>
<circle cx="68" cy="58" r="5" fill="#F8F7F3"/>
<path d="M69.08 106.349C69.08 107.839 67.87 109.049 66.38 109.049C64.89 109.049 63.68 107.839 63.68 106.349C63.68 106.069 63.46 105.629 63.09 105.239C62.88 105.009 62.65 104.839 62.46 104.839H59.5V109.599C59.5 110.839 59.8 112.029 60.33 113.099C60.42 111.699 61.6 110.579 63.03 110.579C64.52 110.579 65.73 111.789 65.73 113.279V114.119C66.12 113.099 67.1 112.379 68.25 112.379C69.74 112.379 70.95 113.589 70.95 115.079V117.659H77.58V127.679L103.05 119.119V107.769H99.45C96.36 107.769 94.11 106.839 92.54 104.979L92.36 104.769C91.65 103.879 91.15 102.809 90.81 101.569C90.6 102.839 90.12 103.869 89.38 104.679C88.29 105.899 86.82 106.459 85.03 106.459C83.54 106.459 82.33 105.249 82.33 103.759C82.33 102.269 83.54 101.059 85.03 101.059C85.28 101.059 85.39 101.089 85.4 101.079C85.48 100.989 85.53 100.659 85.53 100.049V81.8893H83.02C81.77 81.8893 80.65 81.0293 80.38 79.7593L78.34 70.3593L62.67 69.5493C61.76 71.3493 61.04 73.2793 60.51 75.3193C59.85 77.8993 59.5 80.6793 59.5 83.5693V84.2993L52.91 95.3393C52.56 95.9393 52.4 96.5193 52.4 97.0393C52.4 97.4893 52.52 97.9093 52.73 98.2593C52.95 98.6293 53.25 98.9293 53.6 99.1393C53.92 99.3293 54.29 99.4393 54.67 99.4393H56.8H59.5H62.46C64.31 99.4393 65.89 100.329 67.04 101.569C68.31 102.929 69.08 104.829 69.08 106.349ZM71.17 56.2093C71.87 55.9793 72.63 56.3693 72.86 57.0793C73.09 57.7793 72.71 58.5493 72 58.7793L71.13 59.0593L71.67 59.7993C72.1 60.3993 71.97 61.2493 71.37 61.6793C70.76 62.1193 69.92 61.9793 69.49 61.3793L68.95 60.6393L68.41 61.3793C67.98 61.9793 67.13 62.1193 66.53 61.6793C65.93 61.2493 65.79 60.3993 66.23 59.7993L66.77 59.0593L65.9 58.7793C65.19 58.5493 64.8 57.7793 65.03 57.0793C65.26 56.3693 66.02 55.9793 66.73 56.2093L67.6 56.4993V55.5793C67.6 54.8393 68.2 54.2293 68.95 54.2293C69.69 54.2293 70.3 54.8393 70.3 55.5793V56.4993L71.17 56.2093ZM108.45 113.969V117.309V134.129H105.75H74.43H72.18V123.059H67.56C66.9 123.059 66.26 123.009 65.63 122.919H59.3C57.31 122.919 55.48 122.099 54.16 120.769C52.83 119.459 52.01 117.629 52.01 115.629C52.01 114.409 52.33 113.219 52.9 112.159C53.23 111.549 53.64 110.999 54.13 110.499C54.11 110.199 54.1 109.899 54.1 109.599V104.819C52.95 104.719 51.83 104.349 50.84 103.759C49.72 103.089 48.77 102.149 48.09 100.999C47.4 99.8493 47 98.4893 47 97.0393C47 95.6093 47.39 94.0893 48.29 92.5693L54.11 82.8293C54.17 79.7893 54.57 76.8193 55.3 73.9793C55.88 71.7293 56.67 69.5893 57.65 67.5693C56.52 65.0993 56.05 62.3793 56.18 59.7293C56.32 56.8793 57.14 54.0793 58.57 51.6993C60.07 49.2193 62.06 47.5393 64.74 46.6593C67.19 45.8493 70.15 45.7893 73.79 46.4593L106.17 52.4793C106.62 52.5693 107.02 52.6593 107.37 52.7493C110.69 53.6493 113.1 55.5493 114.51 58.3093C115.82 60.8993 116.17 64.1793 115.46 68.0093V68.0193L115.44 68.1293L119.65 72.1793L119.67 72.1893C120.35 72.7893 121.16 73.2593 122.06 73.5793C123.02 73.9193 124.07 74.0993 125.19 74.0893C126.67 74.0893 127.89 75.2893 127.89 76.7693C127.9 78.1393 126.87 79.2793 125.55 79.4493C126.4 81.0293 126.93 82.6193 127.14 84.2693C127.57 87.6893 126.63 91.1493 124.3 95.2593C124.42 95.2693 124.55 95.2693 124.68 95.2693C126.16 95.2593 127.37 96.4593 127.38 97.9493C127.38 99.4293 126.18 100.639 124.7 100.649C124.1 100.649 123.5 100.599 122.93 100.499C122.53 104.329 121.55 107.259 120.03 109.399C117.78 112.569 114.55 113.969 110.48 113.969H108.45ZM62.08 64.1293L80.82 65.0993L110.3 66.2393C110.61 63.9793 110.4 62.1393 109.7 60.7593C109.01 59.3993 107.74 58.4393 105.97 57.9593C105.68 57.8793 105.42 57.8193 105.2 57.7693L72.82 51.7593C70.09 51.2493 68 51.2593 66.4 51.7793C65.04 52.2293 64 53.1293 63.19 54.4793C62.21 56.0993 61.65 58.0193 61.56 59.9793C61.49 61.3793 61.66 62.7893 62.08 64.1293Z" fill="white"/>
<path d="M63.1706 162.104C63.2003 162.504 63.0962 162.877 62.8583 163.221C62.6337 163.547 62.3318 163.845 61.9526 164.115C61.5868 164.366 61.182 164.574 60.7382 164.74C60.3102 164.904 59.9144 165.014 59.5508 165.07C58.4756 165.237 57.4719 165.134 56.5396 164.761C55.6048 164.371 54.7745 163.82 54.0485 163.107C53.3201 162.378 52.7047 161.543 52.2022 160.601C51.7205 159.688 51.3835 158.768 51.1913 157.843C51.3726 158.803 51.7054 159.747 52.1896 160.675C52.6944 161.633 53.3111 162.477 54.0395 163.206C54.7679 163.934 55.6074 164.492 56.558 164.879C57.5061 165.25 58.5257 165.351 59.6166 165.182C60.2174 165.088 60.7877 164.903 61.3274 164.625C61.8671 164.346 62.3563 164.003 62.7949 163.595C62.5171 164.205 62.0963 164.675 61.5323 165.006C60.9683 165.336 60.3701 165.55 59.7376 165.649C59.0262 165.759 58.3541 165.758 57.7214 165.646C57.0911 165.549 56.4583 165.332 55.8228 164.993L55.6691 164.628C54.9595 164.334 54.3221 163.931 53.757 163.419C53.2077 162.906 52.7301 162.332 52.3241 161.699C51.934 161.063 51.6101 160.385 51.3525 159.664C51.1107 158.94 50.9321 158.207 50.8167 157.464C50.694 156.673 50.6437 155.88 50.6657 155.083C50.7011 154.268 50.7943 153.46 50.9453 152.659C50.8821 152.669 50.8468 152.65 50.8394 152.603C50.6203 153.382 50.4918 154.171 50.4539 154.97C50.4161 155.769 50.4597 156.572 50.5849 157.379C50.8229 158.912 51.3528 160.344 52.1745 161.674C52.9937 162.987 54.0723 164.042 55.4102 164.839C54.72 164.46 54.0899 163.999 53.5198 163.456C52.9656 162.911 52.4843 162.314 52.0759 161.665C51.6651 161 51.3217 160.3 51.0458 159.566C50.7857 158.829 50.5955 158.073 50.4753 157.298C50.3133 156.255 50.2912 155.173 50.4089 154.054C50.54 152.917 50.8293 151.86 51.2769 150.884C51.7402 149.905 52.3717 149.07 53.1712 148.379C53.9682 147.673 54.9597 147.227 56.1455 147.043C56.683 146.96 57.2025 146.968 57.7038 147.069C58.2209 147.166 58.715 147.325 59.1861 147.543C59.6571 147.761 60.1027 148.024 60.5228 148.331C60.9587 148.636 61.3721 148.952 61.763 149.28L61.3312 149.784C61.0976 149.74 60.8658 149.654 60.6357 149.528C60.419 149.384 60.2181 149.237 60.033 149.087L59.9164 149.275C60.1588 149.481 60.3915 149.728 60.6145 150.017C60.835 150.29 60.971 150.593 61.0226 150.925L60.828 151.393C60.62 151.409 60.3407 151.331 59.9901 151.158C59.6529 150.968 59.2749 150.775 58.8562 150.581C58.4508 150.369 58.0333 150.183 57.6037 150.023C57.1899 149.86 56.8012 149.807 56.4375 149.864C55.9632 149.938 55.5547 150.122 55.2121 150.418C54.8853 150.712 54.6011 151.072 54.3596 151.498C54.1181 151.924 53.9247 152.399 53.7794 152.924C53.65 153.446 53.5533 153.971 53.4896 154.499C53.4416 155.024 53.4162 155.538 53.4132 156.041C53.4236 156.525 53.457 156.949 53.5134 157.313C53.6091 157.929 53.8095 158.594 54.1146 159.308C54.4355 160.019 54.8359 160.669 55.316 161.259C55.8095 161.83 56.3739 162.285 57.0093 162.623C57.6448 162.962 58.3261 163.075 59.0534 162.962C59.3855 162.91 59.7205 162.826 60.0585 162.709C60.4099 162.573 60.7144 162.396 60.972 162.178L61.1948 162.362C60.6652 162.914 60.013 163.25 59.2383 163.37C58.4794 163.488 57.7555 163.414 57.0666 163.149C57.3989 163.308 57.7542 163.406 58.1326 163.445C58.5451 163.494 58.9489 163.488 59.3442 163.427C60.0715 163.314 60.7194 163.003 61.2881 162.493L61.5494 162.769C61.6805 162.57 61.8523 162.373 62.065 162.178C62.2751 161.968 62.5042 161.827 62.7523 161.756L63.1706 162.104ZM53.3712 158.743C53.5926 159.648 53.9976 160.484 54.5861 161.251C55.1723 162.002 55.8761 162.572 56.6978 162.963C55.8737 162.557 55.1844 161.975 54.6299 161.22C54.0571 160.45 53.6376 159.625 53.3712 158.743ZM78.2573 163.43C78.1259 163.418 77.9751 163.384 77.8047 163.33C77.6526 163.289 77.5272 163.211 77.4285 163.097C77.3426 162.543 77.2421 162 77.1271 161.468C77.0254 160.917 76.9316 160.365 76.8457 159.811C76.7131 158.958 76.6043 158.1 76.5192 157.239C76.45 156.375 76.3491 155.517 76.2165 154.663C76.3011 156.042 76.4489 157.412 76.66 158.772C76.8686 160.115 77.0389 161.473 77.1709 162.845C76.9004 162.564 76.7108 162.229 76.602 161.841C76.5066 161.435 76.4295 161.042 76.3706 160.662L76.2339 159.469L76.4764 159.31C76.3603 158.875 76.2654 158.42 76.1917 157.946C76.1059 157.392 76.0461 156.851 76.0126 156.322C75.9766 155.777 75.9393 155.224 75.9009 154.663L75.7111 154.693L76.0519 158.453L75.5926 154.711C75.1657 154.778 74.7528 154.882 74.354 155.025C73.9552 155.168 73.5424 155.272 73.1155 155.339C72.3091 155.464 71.5003 155.573 70.6891 155.667C69.8936 155.758 69.0903 155.85 68.279 155.944C68.4165 156.829 68.5052 157.714 68.5454 158.598C68.5988 159.464 68.693 160.332 68.828 161.202C68.8476 161.328 68.8813 161.493 68.929 161.696C68.9901 161.881 69.0378 162.084 69.0722 162.305C69.1041 162.511 69.1086 162.696 69.0857 162.862C69.0628 163.027 68.9918 163.143 68.8727 163.211L68.6993 163.189L68.3402 160.719C68.3724 161.135 68.4125 161.549 68.4604 161.963C68.5084 162.377 68.5643 162.789 68.6282 163.2C68.5783 163.191 68.5059 163.195 68.411 163.209C68.3004 163.226 68.2304 163.245 68.2013 163.266C68.2244 163.311 68.2422 163.373 68.2544 163.452C68.3133 163.832 68.1604 164.098 67.7957 164.252C67.6436 164.211 67.5164 164.174 67.4142 164.141C67.3119 164.109 67.2231 164.058 67.1476 163.988C67.0696 163.903 67.005 163.8 66.9537 163.678C66.9025 163.557 66.8597 163.385 66.8253 163.164L66.7627 162.761L66.7656 163.562C66.6195 163.455 66.5196 163.333 66.4659 163.195C66.4122 163.058 66.3731 162.91 66.3485 162.752C66.2872 162.357 66.2429 161.967 66.2156 161.583C66.1858 161.183 66.1403 160.785 66.0789 160.39L66.2503 160.242C66.1219 159.727 66.0172 159.209 65.9362 158.687C65.8576 158.181 65.7858 157.666 65.7206 157.142C65.6712 156.616 65.6061 156.091 65.5251 155.57C65.4686 155.206 65.4031 154.836 65.3284 154.459C65.2536 154.082 65.1564 153.716 65.0368 153.362L64.8945 153.384C65.0242 154.012 65.1382 154.642 65.2364 155.274C65.3504 155.904 65.4564 156.536 65.5546 157.168L66.0147 160.132C65.7693 158.551 65.4765 156.978 65.1362 155.411C64.8118 153.843 64.5268 152.268 64.2814 150.687C64.2427 149.915 64.2041 149.249 64.1656 148.689C64.1429 148.125 64.1196 147.506 64.0956 146.829C64.2562 146.821 64.4338 146.817 64.6284 146.82C64.8388 146.819 64.9612 146.93 64.9956 147.151L65.0107 147.562L65.319 147.514C65.3359 147.414 65.3583 147.297 65.3861 147.163C65.4272 147.011 65.4788 146.874 65.5406 146.751C65.6001 146.612 65.6711 146.496 65.7537 146.402C65.8496 146.29 65.9608 146.224 66.0873 146.205C66.2454 146.18 66.3824 146.28 66.4983 146.505C66.6275 146.712 66.744 146.993 66.8479 147.349C66.9518 147.706 67.0497 148.128 67.1416 148.615C67.231 149.087 67.3138 149.568 67.3898 150.058C67.4315 150.327 67.4641 150.589 67.4876 150.845C67.5269 151.098 67.5649 151.343 67.6017 151.58C67.6508 151.896 67.6974 152.196 67.7416 152.481C67.7991 152.747 67.853 152.99 67.9031 153.209L69.1601 153.014L69.394 153.269C69.6104 153.203 69.8202 153.146 70.0233 153.098C70.2264 153.051 70.4386 153.01 70.6599 152.975C70.8338 152.948 71.0169 152.928 71.2091 152.914C71.3988 152.885 71.5806 152.857 71.7545 152.83C72.0549 152.783 72.345 152.722 72.6247 152.646C72.9202 152.568 73.212 152.466 73.5001 152.34L73.478 152.198C72.9369 152.363 72.3988 152.495 71.8637 152.594C71.3736 152.67 70.8755 152.748 70.3696 152.826C71.1394 152.674 71.9214 152.496 72.7154 152.292C73.5411 152.083 74.3705 151.897 75.2036 151.736C75.0612 150.819 74.9505 149.897 74.8714 148.97C74.7923 148.043 74.6828 147.129 74.5429 146.228L74.4419 145.733L75.0275 145.594C75.0907 145.584 75.1443 145.616 75.1882 145.691C75.2454 145.746 75.2972 145.819 75.3436 145.909C75.3875 145.983 75.4247 146.067 75.4552 146.159C75.4833 146.236 75.4998 146.29 75.5047 146.321C75.5448 146.267 75.589 146.187 75.6376 146.082C75.6861 145.978 75.7346 145.873 75.7831 145.768C75.8474 145.661 75.9063 145.571 75.9598 145.498C76.0107 145.409 76.052 145.362 76.0836 145.357C76.3524 145.316 76.5732 145.33 76.7461 145.4C76.9189 145.47 77.0583 145.586 77.1644 145.748C77.2838 145.891 77.3673 146.065 77.4151 146.268C77.4786 146.468 77.5263 146.672 77.5582 146.877C77.5827 147.035 77.5994 147.194 77.6081 147.355C77.6302 147.497 77.6511 147.632 77.6707 147.758L78.1308 150.723C78.3689 152.256 78.52 153.803 78.5841 155.364C78.6458 156.909 78.7944 158.44 79.03 159.958C79.0472 160.069 79.0949 160.272 79.1731 160.567C79.2648 160.845 79.3326 161.125 79.3768 161.41C79.4112 161.631 79.4169 161.825 79.394 161.99C79.3687 162.14 79.2928 162.225 79.1663 162.244C78.9648 161.676 78.8004 161.087 78.6731 160.475C78.7663 161.076 78.8833 161.673 79.024 162.266L78.8032 162.252C78.8059 162.478 78.7679 162.703 78.6891 162.925C78.6262 163.146 78.4822 163.314 78.2573 163.43ZM66.5144 159.909C66.4735 159.333 66.4076 158.752 66.3168 158.167C66.253 157.756 66.1825 157.354 66.1054 156.961C66.0331 156.6 65.9517 156.232 65.8612 155.857C65.9422 156.379 66.0232 156.901 66.1042 157.423C66.2034 157.958 66.296 158.502 66.3819 159.055L66.5144 159.909ZM70.6788 153.41C70.9159 153.373 71.1519 153.328 71.3866 153.275C71.6371 153.22 71.8785 153.159 72.1107 153.09L71.6364 153.164C71.3044 153.215 70.9736 153.275 70.644 153.342C70.3302 153.407 70.0073 153.465 69.6753 153.517C69.8541 153.521 70.0226 153.511 70.1807 153.487L70.6788 153.41ZM68.0189 153.798L69.5367 153.563C69.4893 153.57 69.4406 153.569 69.3907 153.561C69.246 153.567 69.0775 153.577 68.8853 153.591C68.6932 153.604 68.5089 153.617 68.3325 153.628C68.1719 153.637 68.0588 153.638 67.9931 153.632L68.0189 153.798ZM78.2014 157.124C78.2508 157.65 78.316 158.174 78.397 158.696C78.3501 158.185 78.3007 157.659 78.2489 157.116C78.2104 156.556 78.1811 156.001 78.1609 155.454C78.1495 156.006 78.163 156.563 78.2014 157.124ZM69.6995 155.237C69.2178 155.264 68.7398 155.313 68.2655 155.387L68.2528 155.462L69.6995 155.237ZM90.8737 152.485C90.2227 152.359 89.5603 152.317 88.8864 152.356C88.2417 152.375 87.5824 152.405 86.9086 152.445C87.5241 152.446 88.1542 152.438 88.7989 152.419C89.4752 152.394 90.1268 152.471 90.7535 152.649C90.7 152.723 90.6454 152.788 90.5895 152.845C90.5336 152.902 90.4741 152.936 90.4108 152.946C90.1895 152.98 89.9723 152.989 89.7594 152.974C89.5441 152.942 89.3178 152.945 89.0807 152.982L89.0365 152.697C88.9599 152.725 88.8505 152.751 88.7082 152.773C88.3129 152.834 87.9169 152.839 87.5203 152.787C87.1237 152.735 86.7277 152.74 86.3325 152.801C86.1269 152.833 85.933 152.888 85.7506 152.965L85.7653 153.059C86.2762 153.012 86.7986 152.988 87.3326 152.986C87.88 152.966 88.439 152.968 89.0095 152.993C88.4913 152.992 87.9348 153.006 87.34 153.034C86.761 153.059 86.2185 153.11 85.7126 153.189C85.507 153.221 85.3106 153.259 85.1234 153.305C84.9494 153.332 84.7768 153.367 84.6053 153.409C84.6568 153.741 84.7249 154.128 84.8094 154.568C84.8939 155.008 84.993 155.438 85.1067 155.858C85.2179 156.261 85.3297 156.616 85.4421 156.923C85.5544 157.229 85.6653 157.422 85.7749 157.502L86.0546 157.896C86.3352 158.452 87.013 158.646 88.0881 158.479C88.3253 158.442 88.605 158.367 88.9272 158.252C89.2494 158.137 89.5704 158.014 89.8901 157.884C90.2232 157.735 90.5351 157.606 90.8257 157.496C91.132 157.383 91.3959 157.31 91.6173 157.276C91.8386 157.241 91.97 157.253 92.0115 157.312C92.0529 157.37 92.0822 157.454 92.0994 157.565C91.4476 157.747 90.8257 157.965 90.2336 158.219C89.7181 158.445 89.2135 158.636 88.7199 158.794C89.2135 158.636 89.7127 158.462 90.2172 158.27C90.8118 158.032 91.4191 157.825 92.0393 157.647C92.0224 157.747 92.0164 157.813 92.0213 157.844C92.036 157.939 92.0878 158.012 92.1767 158.063L92.5013 157.964C92.5938 157.934 92.6874 157.911 92.7823 157.896C92.8747 157.866 92.9579 157.829 93.0321 157.785C93.3289 157.82 93.5401 157.876 93.6655 157.954C93.8067 158.029 93.8859 158.122 93.9031 158.232C93.935 158.438 93.8543 158.596 93.661 158.707C93.4836 158.816 93.3214 158.97 93.1744 159.171L93.0796 159.186C92.6211 159.257 92.1845 159.365 91.7699 159.511C91.3528 159.64 90.937 159.778 90.5224 159.923C90.1235 160.066 89.7089 160.211 89.2785 160.359C88.8614 160.488 88.4236 160.589 87.9651 160.66L87.6331 160.711L87.4908 160.734C87.7961 160.719 88.1227 160.684 88.4705 160.63C88.9132 160.561 89.3206 160.474 89.6927 160.367C90.0806 160.259 90.4515 160.144 90.8053 160.025C91.1591 159.905 91.4984 159.796 91.8231 159.697C92.1635 159.595 92.5077 159.518 92.8555 159.464C92.6222 159.629 92.3335 159.804 91.9895 159.987C91.643 160.154 91.2546 160.311 90.8241 160.459C90.3962 160.623 89.9487 160.765 89.4817 160.886C89.0172 161.023 88.5557 161.127 88.0972 161.198C87.781 161.247 87.4703 161.279 87.1649 161.294C86.8596 161.309 86.5196 161.257 86.1447 161.137L86.0805 160.88C85.8469 160.835 85.5877 160.729 85.3028 160.563C85.0313 160.379 84.7743 160.184 84.532 159.978C84.2896 159.773 84.0814 159.579 83.9072 159.395C83.733 159.212 83.6409 159.089 83.6311 159.025L83.5269 158.823C83.3379 158.545 83.1678 158.231 83.0165 157.882C82.881 157.531 82.7613 157.177 82.6574 156.821C82.5511 156.448 82.4539 156.083 82.3658 155.724C82.2778 155.366 82.2013 155.029 82.1364 154.716C82.0238 154.199 81.9191 153.681 81.8223 153.161C81.7231 152.626 81.6317 152.09 81.5483 151.552C81.4648 151.015 81.3814 150.477 81.298 149.94C81.2279 149.384 81.1499 148.829 81.064 148.276L80.9928 148.287C81.007 148.9 81.0492 149.484 81.1193 150.04C81.2052 150.594 81.2911 151.147 81.377 151.7L81.5205 152.625C81.6923 153.732 81.9268 154.878 82.224 156.062C82.537 157.244 83.0269 158.366 83.6937 159.428C83.2344 158.868 82.9106 158.295 82.7225 157.709C82.5319 157.107 82.3566 156.552 82.1966 156.042C81.9962 155.377 81.8232 154.732 81.6776 154.107C81.5478 153.479 81.4314 152.833 81.3283 152.169L81.251 151.671C81.1087 150.754 80.9876 149.818 80.8878 148.862C80.788 147.906 80.7744 146.88 80.8472 145.784C80.7523 145.798 80.6975 145.758 80.6828 145.663C80.6681 145.569 80.6946 145.427 80.7625 145.238C80.8462 145.047 80.9548 144.86 81.0884 144.678C81.2195 144.479 81.3713 144.31 81.5439 144.17C81.7298 144.011 81.9176 143.917 82.1073 143.888L87.7517 143.012C88.3539 143.032 88.9378 143.038 89.5034 143.031C90.0824 143.006 90.6827 142.962 91.3042 142.898L91.3652 143.447C91.3799 143.542 91.3447 143.628 91.2597 143.706C91.188 143.766 91.002 143.819 90.7016 143.865C90.6067 143.88 90.4881 143.899 90.3458 143.921C90.2169 143.925 90.0721 143.931 89.9116 143.94L89.9447 144.153C90.615 144.195 91.148 144.29 91.5435 144.439C91.9549 144.586 92.1753 144.754 92.2047 144.944C92.2391 145.165 92.0465 145.333 91.627 145.446C91.2233 145.557 90.6736 145.667 89.9779 145.775C89.0925 145.912 88.1439 146.06 87.132 146.217C86.1334 146.356 85.1616 146.458 84.2165 146.524L83.8134 146.586C83.8276 147.199 83.8679 147.824 83.9345 148.462C84.001 149.099 84.0779 149.751 84.1652 150.418C84.4182 150.378 84.662 150.332 84.8967 150.28C85.1448 150.209 85.4032 150.153 85.672 150.111C85.8933 150.076 86.15 150.061 86.4419 150.064C86.7472 150.049 87.0629 150.049 87.3889 150.063C87.7308 150.075 88.0672 150.103 88.3981 150.149C88.7424 150.177 89.0563 150.217 89.3398 150.27C89.3897 150.279 89.4462 150.278 89.5095 150.268L89.9127 150.205C90.1182 150.174 90.2575 150.184 90.3306 150.238C90.4194 150.289 90.4786 150.409 90.508 150.599C90.2393 150.641 89.9838 150.664 89.7418 150.669C89.4997 150.674 89.2655 150.678 89.0393 150.681C89.2729 150.726 89.512 150.753 89.7565 150.764C89.9986 150.759 90.2564 150.751 90.5301 150.741C90.5108 150.825 90.4981 150.9 90.4921 150.966C90.5019 151.029 90.5105 151.084 90.5179 151.132C90.6809 151.139 90.7959 151.202 90.863 151.321C90.9434 151.422 90.9947 151.543 91.0168 151.686C91.0487 151.891 91.027 152.065 90.9518 152.206C90.8899 152.329 90.8639 152.422 90.8737 152.485ZM82.9416 156.461C83.0638 156.83 83.1987 157.23 83.3465 157.661C83.5076 158.073 83.7083 158.479 83.9484 158.879C84.202 159.261 84.5151 159.609 84.8877 159.923C85.1873 160.184 85.5586 160.386 86.0016 160.528C85.488 160.348 85.0467 160.06 84.6775 159.664C84.2463 159.181 83.8763 158.623 83.5677 157.991C83.2749 157.356 83.0234 156.675 82.8132 155.946C82.6188 155.216 82.4451 154.514 82.2922 153.841C82.3742 154.266 82.4654 154.697 82.5658 155.135C82.6661 155.572 82.7914 156.014 82.9416 156.461ZM88.0011 150.721C88.2772 150.726 88.568 150.722 88.8733 150.707C88.5764 150.672 88.299 150.658 88.0411 150.666C87.7808 150.658 87.5193 150.642 87.2565 150.618C87.4767 150.681 87.7249 150.715 88.0011 150.721ZM85.6209 161.048C85.4007 160.985 85.2017 160.903 85.0239 160.801C84.8985 160.723 84.781 160.644 84.6714 160.564C84.781 160.644 84.9052 160.714 85.044 160.773C85.2375 160.873 85.4298 160.964 85.6209 161.048ZM86.2809 160.606L86.0527 160.544L86.2809 160.606ZM83.4448 142.49C83.3657 142.503 83.2909 142.49 83.2203 142.452C83.1472 142.399 83.0821 142.344 83.0248 142.288C83.637 141.643 84.3346 141.13 85.1175 140.749C84.7187 140.892 84.3388 141.105 83.9779 141.387C83.6145 141.654 83.2682 141.927 82.9389 142.204C82.8975 142.146 82.8494 142.097 82.7946 142.057C82.7531 141.999 82.7063 141.957 82.6539 141.933L82.53 142.074C82.2672 142.05 82.0487 141.946 81.8745 141.762C81.6979 141.563 81.5948 141.369 81.5654 141.179L81.6529 141.117C82.037 140.879 82.4587 140.571 82.918 140.192C83.3931 139.81 83.8312 139.451 84.2321 139.114C83.7922 139.408 83.3559 139.727 82.9233 140.07C82.5065 140.41 82.0362 140.717 81.5122 140.993C81.4705 140.724 81.528 140.521 81.6848 140.383C81.8573 140.243 82.0603 140.09 82.2936 139.924L82.6003 140.023C82.7472 139.822 82.9148 139.65 83.1032 139.507C83.3074 139.362 83.5049 139.226 83.6957 139.1C83.9023 138.97 84.0919 138.836 84.2644 138.696C84.4528 138.553 84.6192 138.373 84.7637 138.157C84.7321 138.162 84.7113 138.132 84.7015 138.069C84.3747 138.363 84.0442 138.633 83.71 138.879C83.3916 139.123 83.0586 139.377 82.7111 139.641C83.2421 139.202 83.7639 138.757 84.2767 138.305C84.8052 137.851 85.4183 137.367 86.1158 136.854C86.1657 136.862 86.246 136.858 86.3567 136.841C86.5622 136.809 86.7446 136.732 86.9038 136.61C86.9526 136.716 87.0263 136.826 87.125 136.94C87.2237 137.054 87.2816 137.167 87.2988 137.277C87.316 137.388 87.2547 137.462 87.1148 137.5L87.2702 137.719C87.4807 137.719 87.6955 137.799 87.9146 137.959C88.1338 138.119 88.2569 138.286 88.2839 138.46C88.3183 138.682 88.2662 138.868 88.1277 139.019C88.0051 139.167 87.8167 139.31 87.5626 139.447C87.3585 139.592 87.1209 139.782 86.85 140.019C86.5924 140.237 86.3044 140.468 85.986 140.711C85.6834 140.953 85.3559 141.19 85.0034 141.423C84.6668 141.653 84.307 141.838 83.924 141.979C83.834 142.025 83.7514 142.119 83.6762 142.26C83.601 142.401 83.5238 142.478 83.4448 142.49Z" fill="white"/>
<path d="M67.024 182L62.576 170.48H63.984L68.112 181.424H67.632L71.744 170.48H73.072L68.624 182H67.024ZM76.6166 182V170.48H77.9286V182H76.6166ZM77.2886 182V180.848H84.3286V182H77.2886ZM77.2886 176.576V175.424H83.7526V176.576H77.2886ZM77.2886 171.632V170.48H84.2006V171.632H77.2886ZM87.9041 182V170.48H92.1601C92.9815 170.48 93.6801 170.613 94.2561 170.88C94.8321 171.147 95.2695 171.52 95.5681 172C95.8775 172.469 96.0321 173.029 96.0321 173.68C96.0321 174.331 95.8775 174.901 95.5681 175.392C95.2695 175.872 94.8321 176.251 94.2561 176.528C93.6801 176.795 92.9815 176.928 92.1601 176.928H88.8641V175.776H92.1121C92.9655 175.776 93.6108 175.589 94.0481 175.216C94.4961 174.843 94.7201 174.331 94.7201 173.68C94.7201 173.04 94.5015 172.539 94.0641 172.176C93.6268 171.813 92.9761 171.632 92.1121 171.632H89.2161V182H87.9041ZM94.6561 182L88.5281 176.288H90.3201L96.6401 182H94.6561ZM100.788 182V180.848H103.876C104.836 180.848 105.663 180.656 106.356 180.272C107.049 179.877 107.583 179.328 107.956 178.624C108.329 177.92 108.516 177.104 108.516 176.176C108.516 175.259 108.329 174.459 107.956 173.776C107.583 173.093 107.049 172.565 106.356 172.192C105.673 171.819 104.847 171.632 103.876 171.632H100.788V170.48H103.876C105.081 170.48 106.132 170.72 107.028 171.2C107.924 171.669 108.617 172.336 109.108 173.2C109.609 174.053 109.86 175.056 109.86 176.208C109.86 177.36 109.609 178.373 109.108 179.248C108.607 180.112 107.908 180.789 107.012 181.28C106.127 181.76 105.087 182 103.892 182H100.788ZM100.004 182V170.48H101.316V182H100.004ZM113.635 182V170.48H114.947V182H113.635ZM114.307 182V180.848H121.347V182H114.307ZM114.307 176.576V175.424H120.771V176.576H114.307ZM114.307 171.632V170.48H121.219V171.632H114.307Z" fill="white"/>
<path d="M100.93 159.551L104.465 160.141L103.754 164.402L100.219 163.813L100.93 159.551ZM107.914 142.387L105.755 152.408L105.023 156.795L101.488 156.206L102.22 151.818L103.431 141.639L107.914 142.387Z" fill="white"/>
</svg>
