<svg width="27" height="23" viewBox="0 0 27 23" fill="none" xmlns="http://www.w3.org/2000/svg">
<path d="M21.5017 15.9649C21.4798 16.1632 21.4805 16.3341 21.497 16.484C21.2942 16.7447 21.1036 17.0342 20.9307 17.3567C20.7761 16.7219 20.5506 16.1751 20.2808 15.7004C20.3194 15.5535 20.3448 15.3833 20.352 15.1821C20.4363 12.754 16.4931 12.38 15.5933 12.6861C17.1865 13.6514 16.718 14.0188 17.2016 14.9495C17.6068 15.7293 19.4836 17.0684 20.1322 16.0556C20.3849 16.5812 20.5773 17.1859 20.6781 17.8817C20.3876 18.5569 20.169 19.6685 20.0543 20.6111C18.6513 20.722 17.4757 22.123 17.4757 22.123H23.0724C22.2673 21.164 21.7714 20.7063 20.4831 20.6157C20.5293 20.0368 20.6209 19.1982 20.7518 18.7237C20.8339 18.4261 20.9304 18.1479 21.04 17.8881C21.1998 17.5079 21.388 17.1689 21.5941 16.8626C22.0915 17.9553 24.1398 16.9011 24.6527 16.1884C25.2652 15.337 24.8543 14.9059 26.57 14.1805C25.7238 13.7476 21.7679 13.5497 21.5017 15.9649ZM20.0953 16.0115C20.0953 16.0115 19.8405 15.0849 17.891 13.6889C19.8493 14.5818 20.2167 15.6577 20.2167 15.6577C20.2167 15.6577 20.1719 15.8288 20.0953 16.0115ZM21.627 16.8203C21.571 16.6302 21.5449 16.4553 21.5449 16.4553C21.5449 16.4553 22.0491 15.5201 24.0933 14.8464C22.0028 16.0213 21.627 16.8203 21.627 16.8203Z" fill="#7FDD53"/>
<path d="M6.49344 14.3042L5.31479 14.4936C5.48492 14.1089 5.67151 13.7301 5.86569 13.3594C5.75126 13.1648 5.65174 12.9813 5.5673 12.8135C4.64198 10.9925 4.49603 9.45956 4.47336 9.03332V9.03097L4.47281 9.01867C4.45913 8.64993 4.58988 8.29777 4.84142 8.02729C5.09255 7.75654 5.4342 7.60008 5.80308 7.58668C5.82036 7.58599 5.83764 7.58543 5.85491 7.58543C6.59959 7.58543 7.2055 8.16868 7.23466 8.91336L7.23646 8.9363C7.23826 8.95772 7.24213 9.00416 7.24959 9.06677C7.263 9.18646 7.29036 9.3812 7.3444 9.63398C7.39084 9.85305 7.46174 10.1313 7.56609 10.446C7.60617 10.3798 7.64694 10.3127 7.68564 10.2486C8.52762 9.09068 8.60156 7.36623 7.59277 6.68734C6.58397 6.00832 4.75766 6.02739 3.41329 7.69227C1.578 9.99291 0.76892 11.6297 0.0575531 14.6379C-0.295021 16.8773 1.06082 17.6122 2.25689 18.029C2.68728 18.1791 3.03722 18.2829 3.33493 18.2689C3.45835 18.2761 3.58412 18.2713 3.71127 18.2508L4.12093 18.1848L2.85396 19.2336C2.11854 19.8419 2.01613 20.931 2.62439 21.6663C2.96605 22.079 3.45946 22.2924 3.95646 22.2924C4.34455 22.2924 4.73472 22.1625 5.05703 21.8957L10.327 17.5334C8.51048 16.5842 7.29078 15.3725 6.49344 14.3042Z" fill="#7FDD53"/>
<path d="M11.6795 14.7609C11.359 14.0528 10.5994 13.6445 9.83206 13.768L9.72412 13.7852C10.3219 14.3335 11.0154 14.7987 11.8086 15.1852C11.7843 15.0411 11.742 14.8985 11.6795 14.7609Z" fill="#7FDD53"/>
<path d="M17.5915 19.8827C17.5915 19.8827 18.7266 19.8364 18.9387 19.2784C19.1512 18.7207 18.3341 17.9309 18.3341 17.9309C18.3341 17.9309 18.3281 17.9275 18.3173 17.9211C18.148 17.8225 16.7415 17.0053 16.3487 16.856C15.9306 16.6969 15.1404 17.5135 15.1404 17.5135L14.7179 17.3527L14.7819 17.1845C14.7946 17.1518 14.7698 17.1116 14.7266 17.0952C14.6837 17.0788 14.6385 17.0923 14.6259 17.1252L14.5868 17.2282L14.1475 17.0415C14.1502 17.1921 14.1294 17.3455 14.0795 17.4966C14.0453 17.6005 13.9994 17.698 13.9441 17.7881L14.3246 17.9165L14.2852 18.0195C14.2728 18.0525 14.2976 18.0926 14.3405 18.109C14.3839 18.1253 14.4288 18.1119 14.4414 18.0789L14.5054 17.9108L14.928 18.0714C14.928 18.0714 14.975 19.2067 15.3934 19.3659C15.7862 19.5152 17.3801 19.8404 17.572 19.8789C17.5845 19.8816 17.5915 19.8827 17.5915 19.8827Z" fill="#7FDD53"/>
<path d="M13.4219 5.99724C14.3583 4.55812 13.9507 2.6323 12.5114 1.69581C11.0722 0.759322 9.14633 1.16679 8.20992 2.60591C7.27351 4.04503 7.68115 5.97085 9.1204 6.90734C10.5596 7.84383 12.4855 7.43637 13.4219 5.99724Z" fill="#7FDD53"/>
<path d="M13.1134 16.0134C10.0485 14.9924 8.58084 13.2244 7.78405 11.6848C7.3914 10.9151 7.18229 10.2022 7.07379 9.69163C7.01934 9.43663 6.9899 9.23249 6.9747 9.09884C6.96696 9.03181 6.96281 8.98233 6.96032 8.95317C6.95949 8.93838 6.9588 8.92871 6.95853 8.92428C6.93448 8.31547 6.42213 7.8403 5.8129 7.86283C5.20271 7.88522 4.72616 8.39839 4.74882 9.00845C4.75477 9.11031 4.81903 10.731 5.81415 12.6893C6.79958 14.6451 8.78857 16.9248 12.4204 18.1132C12.5354 18.1512 12.6524 18.1692 12.7672 18.1692C13.2313 18.1693 13.6637 17.8746 13.8171 17.4098C14.0083 16.8298 13.6932 16.2048 13.1134 16.0134Z" fill="#7FDD53"/>
</svg>
