<svg xmlns="http://www.w3.org/2000/svg" viewBox="0 0 231.76 225.92"><defs><style>.cls-1,.cls-12{fill:#de582c;}.cls-1,.cls-11,.cls-13,.cls-14,.cls-15,.cls-2,.cls-3,.cls-4,.cls-5,.cls-6,.cls-7,.cls-8{stroke:#000;stroke-miterlimit:10;}.cls-1,.cls-11,.cls-15,.cls-2,.cls-6,.cls-7,.cls-8{stroke-width:0.49px;}.cls-2{fill:#ebcc33;}.cls-3,.cls-4{stroke-width:0.25px;}.cls-4,.cls-6,.cls-9{fill:#fff;}.cls-5,.cls-8{fill:none;}.cls-5{stroke-width:0.75px;}.cls-13,.cls-7{fill:#67b774;}.cls-10{opacity:0.12;}.cls-13{stroke-width:0.4px;}.cls-14{stroke-width:0.46px;}.cls-15{fill:#c454e0;}</style></defs><g id="PREVIEW"><path class="cls-1" d="M199.44,170.29c33.68,13.93,33.86-21.46,0-7.77,33.82-13.69-9.34-31.54-9.48-3.92.14-27.62-43.19-10.08-9.51,3.85-33.68-13.93-33.86,21.45,0,7.77-33.82,13.68,9.34,31.54,9.48,3.92C189.79,201.76,233.12,184.22,199.44,170.29Z"/><ellipse class="cls-2" cx="191.43" cy="165.55" rx="11.03" ry="15.26" transform="translate(23.72 355.09) rotate(-89.35)"/><path class="cls-3" d="M183.81,157.61a2,2,0,0,0-1.95,1.89c-.13.87.31,1.53.4,2.36s-.84,1.4-1,2.17a4.31,4.31,0,0,0,.35,2.55c.31.9-.14,1.48,0,2.34.19,1.19,1.74,2.55,2.95,1.83,1.37-.81.71-2.17.87-3.42s1.33-1.88.83-3.31a8.45,8.45,0,0,1-.55-1.63c-.14-.92.39-1.69.36-2.62A2.05,2.05,0,0,0,183.81,157.61Z"/><path class="cls-4" d="M185.38,167.23c-.16,1.25.5,2.61-.87,3.42a1.52,1.52,0,0,1-1.23.13,1.37,1.37,0,0,0,.51-.19c1.37-.81.71-2.16.88-3.42s1.32-1.87.82-3.31a8.36,8.36,0,0,1-.55-1.62c-.14-.93.39-1.69.36-2.62s-.14-1.77-1.27-2l-.25,0a2,2,0,0,1,2.23,2.05c0,.92-.49,1.69-.36,2.62a8.63,8.63,0,0,0,.56,1.62C186.71,165.35,185.54,166,185.38,167.23Z"/><path class="cls-3" d="M196.42,157.67a2.09,2.09,0,0,0-2.2,1.89c-.2.92.23,1.66.26,2.55s-1,1.43-1.25,2.25a4.64,4.64,0,0,0,.22,2.74c.26,1-.25,1.57-.17,2.49.13,1.29,1.69,2.84,3,2.15,1.52-.77.9-2.26,1.16-3.59s1.53-1.92,1.09-3.48a9.09,9.09,0,0,1-.48-1.77c-.08-1,.53-1.78.55-2.78A2.18,2.18,0,0,0,196.42,157.67Z"/><path class="cls-4" d="M197.44,168c-.25,1.33.36,2.82-1.15,3.6a1.6,1.6,0,0,1-1.32.05,1.39,1.39,0,0,0,.55-.16c1.52-.78.91-2.27,1.16-3.6s1.54-1.91,1.1-3.47a8.55,8.55,0,0,1-.49-1.78c-.08-1,.53-1.77.56-2.77a2.06,2.06,0,0,0-1.56-2.17s0-.08.05-.08a2.17,2.17,0,0,1,2.27,2.36c0,1-.64,1.78-.56,2.77a8.55,8.55,0,0,0,.49,1.78C199,166.13,197.69,166.75,197.44,168Z"/><path class="cls-5" d="M187.08,167c-.33,2.11.75,3.92,1.95,4s2.59-1.59,2.5-3.79"/><path class="cls-6" d="M157.93,201.67c33.72,13.83,33.8-21.55,0-7.77,33.79-13.78-9.42-31.51-9.48-3.89.06-27.62-43.23-10-9.5,3.88-33.73-13.84-33.8,21.55,0,7.76-33.78,13.79,9.42,31.52,9.48,3.9C148.36,233.17,191.65,215.5,157.93,201.67Z"/><ellipse class="cls-2" cx="149.9" cy="196.95" rx="11.03" ry="15.26" transform="translate(-48.31 345.19) rotate(-89.52)"/><path class="cls-3" d="M156,189.46a2,2,0,0,1,1.81,2c.07.87-.41,1.5-.55,2.33s.74,1.44.89,2.23a4.32,4.32,0,0,1-.53,2.52c-.36.88,0,1.48-.15,2.33-.26,1.18-1.9,2.43-3.06,1.63-1.31-.9-.56-2.21-.64-3.47s-1.19-2-.6-3.36a8.2,8.2,0,0,0,.66-1.59c.2-.91-.27-1.71-.18-2.63A2,2,0,0,1,156,189.46Z"/><path class="cls-4" d="M153.75,199c.08,1.26-.67,2.57.64,3.47a1.46,1.46,0,0,0,1.21.21,1.43,1.43,0,0,1-.49-.22c-1.32-.9-.57-2.21-.64-3.47s-1.2-2-.6-3.36a8.38,8.38,0,0,0,.66-1.58c.2-.91-.28-1.72-.18-2.64s.26-1.75,1.4-1.93l.25,0a2,2,0,0,0-2.37,1.89c-.09.92.38,1.73.18,2.64a8.38,8.38,0,0,1-.66,1.58C152.55,197,153.68,197.72,153.75,199Z"/><path class="cls-3" d="M143.39,188.66a2.1,2.1,0,0,1,2.06,2c.14.93-.34,1.64-.43,2.52s.88,1.5,1.09,2.33a4.61,4.61,0,0,1-.4,2.73c-.33,1,.15,1.57,0,2.49-.21,1.28-1.87,2.72-3.16,1.94-1.46-.88-.75-2.32-.91-3.67s-1.4-2-.86-3.54a9.7,9.7,0,0,0,.61-1.74c.15-1-.41-1.81-.37-2.8A2.19,2.19,0,0,1,143.39,188.66Z"/><path class="cls-4" d="M141.66,198.94c.17,1.35-.55,2.79.91,3.67a1.59,1.59,0,0,0,1.31.14,1.36,1.36,0,0,1-.54-.2c-1.46-.88-.75-2.32-.91-3.66s-1.4-2-.86-3.55a8.89,8.89,0,0,0,.61-1.73c.15-1-.41-1.81-.37-2.81a2.07,2.07,0,0,1,1.7-2.06s0-.08,0-.08a2.16,2.16,0,0,0-2.43,2.2c0,1,.52,1.82.37,2.8a9,9,0,0,1-.6,1.74C140.26,196.93,141.5,197.64,141.66,198.94Z"/><path class="cls-5" d="M152.07,198.63c.18,2.13-1,3.87-2.22,3.89s-2.47-1.76-2.24-3.94"/><path class="cls-6" d="M52.49,183.41c33.84,13.55,33.62-21.84-.05-7.77,33.67-14.07-9.69-31.43-9.52-3.81-.17-27.62-43.31-9.6-9.47,3.95-33.84-13.55-33.61,21.84,0,7.77C-.16,197.62,43.19,215,43,187.36,43.19,215,86.33,197,52.49,183.41Z"/><ellipse class="cls-2" cx="44.42" cy="178.76" rx="15.26" ry="11.03"/><path class="cls-3" d="M49.89,170.64a2,2,0,0,1,2,1.86,9.07,9.07,0,0,1-.36,2.37c-.07.84.86,1.38,1.07,2.15a4.4,4.4,0,0,1-.32,2.56c-.29.9.17,1.47,0,2.33-.17,1.2-1.7,2.58-2.92,1.88-1.38-.79-.74-2.16-.92-3.41s-1.35-1.86-.87-3.3a9.4,9.4,0,0,0,.53-1.63c.12-.93-.42-1.69-.4-2.62A2,2,0,0,1,49.89,170.64Z"/><path class="cls-4" d="M48.45,180.28c.18,1.25-.46,2.62.92,3.41a1.52,1.52,0,0,0,1.23.11,1.55,1.55,0,0,1-.51-.18c-1.38-.79-.74-2.16-.92-3.41s-1.36-1.86-.88-3.29a8,8,0,0,0,.53-1.64c.12-.92-.41-1.68-.39-2.61s.11-1.77,1.24-2l.25,0a2,2,0,0,0-2.21,2.08c0,.93.52,1.69.4,2.61a8.71,8.71,0,0,1-.53,1.64C47.1,178.42,48.28,179.06,48.45,180.28Z"/><path class="cls-3" d="M37.28,170.88a2.1,2.1,0,0,1,2.23,1.86,9.93,9.93,0,0,1-.23,2.55c0,.9,1,1.42,1.28,2.23a4.58,4.58,0,0,1-.18,2.75c-.24,1,.28,1.56.2,2.49-.1,1.29-1.64,2.86-3,2.19-1.53-.76-.94-2.25-1.21-3.58s-1.56-1.89-1.15-3.46a8.47,8.47,0,0,0,.46-1.78c.07-1-.55-1.77-.59-2.77A2.18,2.18,0,0,1,37.28,170.88Z"/><path class="cls-4" d="M36.4,181.27c.28,1.32-.32,2.82,1.21,3.57a1.6,1.6,0,0,0,1.32,0,1.43,1.43,0,0,1-.56-.16c-1.53-.75-.93-2.25-1.21-3.57s-1.56-1.9-1.14-3.47a9,9,0,0,0,.46-1.77c.07-1-.56-1.78-.6-2.77A2.06,2.06,0,0,1,37.41,171s0-.08,0-.08a2.16,2.16,0,0,0-2.24,2.39c0,1,.67,1.77.6,2.77a9,9,0,0,1-.46,1.77C34.84,179.37,36.14,180,36.4,181.27Z"/><path class="cls-5" d="M46.75,180.1c.36,2.11-.69,3.94-1.89,4.06s-2.61-1.55-2.55-3.75"/><path class="cls-1" d="M101.32,205.72c33.75,13.76,33.75-21.63,0-7.77,33.75-13.86-9.5-31.48-9.5-3.86,0-27.62-43.25-9.86-9.49,3.9-33.76-13.76-33.75,21.63,0,7.76-33.75,13.87,9.5,31.49,9.5,3.87C91.83,237.24,135.07,219.48,101.32,205.72Z"/><path class="cls-2" d="M108.54,201.12c0,6.09-6.9,11-15.32,10.94S78,207,78,200.94s6.9-11,15.33-10.94S108.58,195,108.54,201.12Z"/><path class="cls-3" d="M99.52,193a2,2,0,0,1,2,1.86,9,9,0,0,1-.36,2.37c-.07.84.86,1.38,1.07,2.15a4.25,4.25,0,0,1-.32,2.56c-.29.91.17,1.47,0,2.33-.17,1.2-1.69,2.58-2.92,1.88s-.74-2.16-.92-3.41-1.35-1.86-.87-3.29a8.71,8.71,0,0,0,.53-1.64c.12-.93-.42-1.69-.4-2.61A2,2,0,0,1,99.52,193Z"/><path class="cls-4" d="M98.08,202.61c.18,1.26-.46,2.62.93,3.41a1.46,1.46,0,0,0,1.22.11,1.3,1.3,0,0,1-.51-.18c-1.38-.79-.74-2.15-.92-3.41s-1.35-1.85-.87-3.29a9.23,9.23,0,0,0,.53-1.64c.12-.92-.42-1.68-.4-2.61s.11-1.77,1.24-2l.25,0a2,2,0,0,0-2.21,2.08c0,.93.52,1.69.4,2.61a7.85,7.85,0,0,1-.53,1.64C96.73,200.76,97.91,201.4,98.08,202.61Z"/><path class="cls-3" d="M86.91,193.21a2.1,2.1,0,0,1,2.23,1.86c.21.91-.21,1.66-.23,2.55s1,1.42,1.28,2.23A4.65,4.65,0,0,1,90,202.6c-.25,1,.27,1.56.2,2.49-.11,1.29-1.65,2.86-3,2.19-1.53-.75-.93-2.25-1.21-3.58s-1.56-1.89-1.14-3.46a9.9,9.9,0,0,0,.46-1.78c.06-1-.56-1.77-.6-2.76A2.19,2.19,0,0,1,86.91,193.21Z"/><path class="cls-4" d="M86,203.6c.27,1.32-.32,2.82,1.2,3.58a1.6,1.6,0,0,0,1.32,0,1.46,1.46,0,0,1-.56-.15c-1.53-.76-.93-2.26-1.2-3.58s-1.57-1.9-1.15-3.46a9.13,9.13,0,0,0,.46-1.78c.07-1-.55-1.77-.59-2.77A2.05,2.05,0,0,1,87,193.28s0-.08-.05-.08a2.15,2.15,0,0,0-2.23,2.39c0,1,.66,1.77.59,2.77a8.47,8.47,0,0,1-.46,1.78C84.47,201.7,85.77,202.31,86,203.6Z"/><path class="cls-5" d="M96.38,202.43c.36,2.11-.69,3.94-1.89,4.06s-2.61-1.55-2.55-3.75"/><path d="M96.05,149.32a21.25,21.25,0,0,1-14-9.21c-3.41-5-5.31-11-6.92-16.86-.94-3.38-1.76-6.78-2.67-10.17A2.72,2.72,0,0,0,69,111.49,2.76,2.76,0,0,0,67.38,115c3.26,12.15,5.72,27,16.57,34.94a26.87,26.87,0,0,0,11.17,4.74C98.55,155.29,99.48,150,96.05,149.32Z"/><path class="cls-7" d="M72.67,114.64c.4-4.06.13-6.75-.63-8.46-2.11-4.75-8-2-13.74-.31S43.94,111,43,116c-.31,1.67.23,3.53,2,5.58,7.09,8.13,18.37-5.45,18.37-5.45l.09,1A3.57,3.57,0,0,0,62,118.36a2.35,2.35,0,0,0,.07,2.57c1.14,1.46,4.72.29,6.64-.33,1.77-.58,5.94-1.93,5.88-3.82C74.6,116.4,74.41,115.59,72.67,114.64Z"/><path class="cls-8" d="M72.68,114.64a15.8,15.8,0,0,0-4.62.87"/><path class="cls-8" d="M65.08,116.59a4.41,4.41,0,0,0-1.76.61"/><path class="cls-9" d="M51.77,122.26a4.2,4.2,0,0,1-2,.45,4.57,4.57,0,0,1-2-.55,4.37,4.37,0,0,1-1.51-1.45,7.18,7.18,0,0,1-.46-.92,8.79,8.79,0,0,1-.22-1l0,0a7.32,7.32,0,0,0,.94,1.69A4.61,4.61,0,0,0,48,121.73a5.2,5.2,0,0,0,3.75.48Z"/><path class="cls-6" d="M72,106.18a1.56,1.56,0,0,0-.09-.47c-.39-1.15-1.88-1.88-3-2.09-3.46-.67-7.37,1.28-10.6,2.25C52.4,107.62,43.93,111.29,43,116c-.85,4.3,9.42.65,11.49-.09a92.47,92.47,0,0,0,14.5-6.5C70.17,108.69,72.08,107.79,72,106.18Z"/><line class="cls-8" x1="46.89" y1="111.09" x2="50.48" y2="117.23"/><line class="cls-8" x1="51.65" y1="108.25" x2="55.96" y2="115.17"/><line class="cls-8" x1="57.47" y1="105.86" x2="61.31" y2="112.97"/><line class="cls-8" x1="63.72" y1="104.24" x2="67.14" y2="110.31"/><path d="M129.5,149.44a21.23,21.23,0,0,0,14-9.21c3.41-5,5.31-11,6.93-16.86.93-3.38,1.76-6.79,2.66-10.17a2.73,2.73,0,0,1,3.49-1.59,2.77,2.77,0,0,1,1.58,3.48c-3.25,12.15-5.71,27-16.56,34.94a27,27,0,0,1-11.18,4.74C127,155.41,126.08,150.08,129.5,149.44Z"/><path class="cls-7" d="M152.88,114.76c-.4-4.06-.12-6.75.63-8.47,2.11-4.74,8-2,13.75-.31s14.35,5.12,15.28,10.1c.32,1.68-.22,3.54-2,5.59-7.09,8.13-18.37-5.45-18.37-5.45l-.09,1a3.63,3.63,0,0,1,1.47,1.28,2.39,2.39,0,0,1-.07,2.57c-1.15,1.45-4.73.29-6.64-.33s-5.94-1.93-5.89-3.82C151,116.52,151.14,115.7,152.88,114.76Z"/><path class="cls-8" d="M152.88,114.76a15.72,15.72,0,0,1,4.61.87"/><path class="cls-8" d="M160.48,116.71a4.34,4.34,0,0,1,1.75.61"/><path class="cls-9" d="M173.73,122.67a7,7,0,0,0,.93-.06,6.58,6.58,0,0,0,.89-.13,4.78,4.78,0,0,0,1.59-.61,4.48,4.48,0,0,0,1.34-1.05,14.47,14.47,0,0,0,1.14-1.44l0,0a6.74,6.74,0,0,1-.89,1.65,4.41,4.41,0,0,1-1.4,1.25,5,5,0,0,1-3.66.42Z"/><path class="cls-6" d="M153.58,106.3a2,2,0,0,1,.09-.47c.39-1.15,1.88-1.88,3-2.1,3.46-.66,7.36,1.29,10.6,2.25,5.9,1.76,14.36,5.42,15.28,10.1.85,4.3-9.42.65-11.48-.1a91.11,91.11,0,0,1-14.5-6.49C155.39,108.81,153.48,107.91,153.58,106.3Z"/><line class="cls-8" x1="178.66" y1="111.21" x2="175.08" y2="117.34"/><line class="cls-8" x1="173.9" y1="108.37" x2="169.6" y2="115.29"/><line class="cls-8" x1="168.09" y1="105.98" x2="164.25" y2="113.09"/><line class="cls-8" x1="161.84" y1="104.36" x2="158.41" y2="110.42"/><path class="cls-7" d="M134,134.92c-1.79,38.18-20.17,37.56-20.17,37.56C95,172.18,92.08,142,91.63,131.78A47,47,0,0,0,117,138.29,46.32,46.32,0,0,0,134,134.92Z"/><path class="cls-7" d="M112.14,172.37c-.49,2.3-1.87,5.41-4.42,5.23-2.74-.19-3.26-3-3.75-5.08-2.06,2.3-5.85,3.7-8.64,1.15-1.82-1.64-1.84-4.74-.57-7.75-3,1.83-7.7,5.64-11.3,1.42-2.24-2.62-1.14-6.54,1.62-8.38-6.35,3.65-8.67-3.9-3.65-8.76C84.7,147,88.9,145.5,93,144.47,95,156.43,100,171,112.14,172.37Z"/><path class="cls-7" d="M114.32,172.37c.49,2.3,1.87,5.41,4.43,5.23,2.73-.19,3.25-3,3.74-5.08,2.07,2.3,5.86,3.7,8.65,1.15,1.81-1.64,1.84-4.74.56-7.75,3,1.83,7.7,5.64,11.31,1.42,2.24-2.62,1.13-6.54-1.63-8.38,6.36,3.65,8.67-3.9,3.65-8.76-3.27-3.16-7.47-4.7-11.55-5.73C131.43,156.43,126.44,171,114.32,172.37Z"/><g class="cls-10"><path class="cls-11" d="M112.14,172.37c-.49,2.3-1.87,5.41-4.42,5.23-2.74-.19-3.26-3-3.75-5.08-2.06,2.3-5.85,3.7-8.64,1.15-1.82-1.64-1.84-4.74-.57-7.75-3,1.83-7.7,5.64-11.3,1.42-2.24-2.62-1.14-6.54,1.62-8.38-6.35,3.65-8.67-3.9-3.65-8.76C84.7,147,88.9,145.5,93,144.47,95,156.43,100,171,112.14,172.37Z"/><path class="cls-11" d="M114.32,172.37c.49,2.3,1.87,5.41,4.43,5.23,2.73-.19,3.25-3,3.74-5.08,2.07,2.3,5.86,3.7,8.65,1.15,1.81-1.64,1.84-4.74.56-7.75,3,1.83,7.7,5.64,11.31,1.42,2.24-2.62,1.13-6.54-1.63-8.38,6.36,3.65,8.67-3.9,3.65-8.76-3.27-3.16-7.47-4.7-11.55-5.73C131.43,156.43,126.44,171,114.32,172.37Z"/></g><path d="M163,155.36c-2.45,7.72-8.4,16.69-17.3,17.43-8.31.68-13.12-6.13-16.28-14.2A53.34,53.34,0,0,0,132.72,147c.62,2.23,1.28,4.44,2.05,6.62,1.48,4.16,4.15,12.07,9.37,12.73,7.69,1,12.2-10.22,13.47-16a44.67,44.67,0,0,0-1.3-23.58c-1.35-4,4.92-5.66,6.25-1.73A50,50,0,0,1,163,155.36Z"/><path class="cls-6" d="M163.67,124c-2.21,3.87-7.88,8.13-9.85,6.72,0,0-1.82-1.28-.13-3.42a4.27,4.27,0,0,1-4.05-2.92l.3-.49c6.86-7.08,11.79-16,15.34-24.82,1.53,0,8.19,2.36-4.59,20.8C160.69,119.9,167,118.2,163.67,124Z"/><line class="cls-8" x1="153.43" y1="127.5" x2="156.38" y2="125.51"/><line class="cls-8" x1="161.4" y1="119.36" x2="159.23" y2="121.44"/><path d="M108.13,180.47a151.85,151.85,0,0,1-20.76,1.79c-7,0-15.63-.41-21.31-5.09-6.56-5.41-4.45-14-.71-20.51,5.71-9.9,16-16.23,26.62-19.86.19,2,.45,4.21.82,6.56-9.18,3.32-18,9-22.55,17.89-2.78,5.46-3,10.36,3.29,12.72,10.12,3.81,22.79,1.64,33.2.16C110.85,173.54,112.26,179.89,108.13,180.47Z"/><path class="cls-6" d="M107.92,183.78c.86,1.88,4.35,2.26,5.1.09a2.54,2.54,0,0,0,.12-1c0-.21,0-.43-.08-.65,27.79,2.64,23.84-4.71,23.84-4.71,2.57-3.53-.06-4.94-.06-4.94,1.81-6.62-12.91-5.37-12.91-5.37-8.77-5.88-11.82,4.09-11.83,4.14a4,4,0,0,0-1.16-1.54,2.74,2.74,0,0,0-3.15.44c-1,1.1-.7,3-.75,4.29-.06,1.67.06,2.84.09,4.51A13.63,13.63,0,0,0,107.92,183.78Z"/><path class="cls-8" d="M124.19,177.41a29.7,29.7,0,0,1,12.69.13"/><path class="cls-8" d="M124,172.47a35.84,35.84,0,0,1,6.74-.58,31,31,0,0,1,6.07.76"/><line class="cls-8" x1="119.32" y1="168.25" x2="125.06" y2="167.25"/><line class="cls-8" x1="112.13" y1="171.27" x2="112.2" y2="174.84"/><line class="cls-8" x1="112.74" y1="179.88" x2="113" y2="182.67"/><path class="cls-7" d="M148.15,151c-17.49,1.55-24.38-11.21-24.38-11.21,2.44,16.57-12,19.63-12,19.63-14.2-7.23-7.08-21.14-7.08-21.14-15.37,12.18-29.23,5.21-29.23,5.21C77.86,137.07,83.85,131,88,129.36a46.78,46.78,0,0,0,25.36,9A44.91,44.91,0,0,0,138,133.26,23.77,23.77,0,0,1,148.15,151Z"/><path class="cls-2" d="M57.5,61.88S67.79,38.36,93.31,49.63c0,0,20.46-24.5,43.16-1.2,0,0,23.5-8.6,37.35,13.87L116.44,89.59Z"/><line class="cls-8" x1="93.28" y1="49.96" x2="97.76" y2="81.08"/><line class="cls-8" x1="136.43" y1="48.07" x2="132.66" y2="81.79"/><ellipse class="cls-1" cx="115.08" cy="70.73" rx="26.7" ry="21.55" transform="translate(-1.41 2.35) rotate(-1.16)"/><path class="cls-2" d="M146.7,72.11c.45.73,9.8-12.33,27.3-9.51,0,0-5.4,74.88-57,75.7-54.63.86-59.4-76.46-59.4-76.46S74,60.09,84.37,70.28c2.46-5,7.86-8.48,14.08-9.11,6.87-.69,13.43,3,18,9.18C116.41,70.35,133.66,50.84,146.7,72.11Z"/><line class="cls-8" x1="84.34" y1="70.1" x2="107.33" y2="137.09"/><line class="cls-8" x1="146.71" y1="72.37" x2="124.1" y2="137.4"/><circle class="cls-12" cx="91.44" cy="111.38" r="11.54" transform="translate(-38.04 174.64) rotate(-76.66)"/><circle class="cls-12" cx="140.08" cy="113.38" r="11.54" transform="translate(-2.33 223.81) rotate(-76.78)"/><path class="cls-6" d="M109.23,92.31c0,.25,0,1.75,0,2.25A16,16,0,0,1,96.89,108.8,16,16,0,0,1,77.21,93.35,16,16,0,0,1,93.09,77.18a17.65,17.65,0,0,1,2.06.1,16,16,0,0,1,11.77,7.58h0l.24.4A15.78,15.78,0,0,1,109.23,92.31Z"/><path class="cls-11" d="M107,101.65a16.23,16.23,0,0,1-13.4,7.52,13.73,13.73,0,0,1-1.7-.08,15.85,15.85,0,0,1-4.33-1c-.4-2,2.18-2.52,2.18-4.43,0-1.58-1-2.79,0-4.19.76-1.13,2.46-1.31,3.68-2,2.41-1.3,1.08-2.66,1.27-5.25.12-1.65.91-2.28,2.45-2.94,1.79-.76,2.11-.48,2-2.45-.09-1.18-.75-2.63-.39-3.72.52-1.55,2.34-2.38,4.33-1.88.3.07.61.16.9.25a15.91,15.91,0,0,1,5.4,12.85,1.15,1.15,0,0,0,0,.46,7.86,7.86,0,0,1-.44,2.61A15.15,15.15,0,0,1,107,101.65Z"/><line class="cls-8" x1="77.52" y1="90.68" x2="71.34" y2="88.65"/><line class="cls-8" x1="79.63" y1="84.43" x2="73.88" y2="80.58"/><line class="cls-8" x1="83.95" y1="79.84" x2="79.78" y2="74.56"/><path class="cls-6" d="M157.76,91.61c0,.25,0,1.75,0,2.25a16,16,0,0,1-12.31,14.24,15.68,15.68,0,0,1-3.51.42,16,16,0,1,1-.3-32,15.52,15.52,0,0,1,2.06.11,16,16,0,0,1,11.78,7.57h0l.24.4A16,16,0,0,1,157.76,91.61Z"/><path class="cls-11" d="M155.54,101a16.21,16.21,0,0,1-13.39,7.52,15.52,15.52,0,0,1-6-1.13c-.41-2,2.17-2.52,2.17-4.43,0-1.58-1-2.78,0-4.18.75-1.14,2.45-1.32,3.68-2,2.41-1.3,1.07-2.66,1.27-5.25.12-1.65.91-2.28,2.45-2.94,1.79-.76,2.11-.48,2-2.45-.08-1.18-.74-2.63-.38-3.72.52-1.55,2.33-2.38,4.32-1.88.31.07.61.16.91.25a16,16,0,0,1,5.4,12.85,1.15,1.15,0,0,0,0,.46,7.87,7.87,0,0,1-.45,2.61A14.87,14.87,0,0,1,155.54,101Z"/><line class="cls-8" x1="153.01" y1="81.22" x2="158.02" y2="77.08"/><line class="cls-8" x1="156.75" y1="86.16" x2="163.08" y2="83.35"/><line class="cls-8" x1="157.88" y1="92.68" x2="164.57" y2="91.97"/><path class="cls-13" d="M110.15,114.63s-8.76-8.76-22.29,5.92C87.86,120.55,107,127,110.15,114.63Z"/><path class="cls-8" d="M118.42,114.11a61.5,61.5,0,0,0-22.72,4l-.34.13"/><path class="cls-1" d="M118.28,95.89l.1,4.44s-5.46-1.12-5.62,2.61c-.15,3.36,5.89,3,5.89,3"/><path class="cls-2" d="M118.35,105.51l-.12,3.74s-5.33-1-5.42,2.07c-.08,2.56,3.86,2.74,3.86,2.74s-4.24-.61-4.35,2.67c-.08,2.48,6.18,3.24,6.18,3.24"/><path class="cls-14" d="M102.57,68.53c.05,1.37-6.5,2.75-14.64,3.07s-14.78-.52-14.83-1.89S79.6,67,87.73,66.63,102.51,67.15,102.57,68.53Z"/><path class="cls-14" d="M161.35,70.33c-.06,1.38-6.71,2.2-14.84,1.85s-14.69-1.76-14.63-3.13,6.71-2.2,14.84-1.85S161.41,69,161.35,70.33Z"/><path class="cls-15" d="M34.9,42.31l1.89,2.83a5.23,5.23,0,0,1-.87,1.66A7.5,7.5,0,0,1,34,48.49a4.82,4.82,0,0,1-2.48.86,2.27,2.27,0,0,1-2.1-1L21.89,36.93c-.46-.69,1-2.15,4.36-4.39l6.58-4.37a5.94,5.94,0,0,1,1.36,1,8.11,8.11,0,0,1,1,1.21c1.14,1.71,1,3.07-.54,4.06L30.8,37c-.28.19-.34.41-.18.64l.05.08a.19.19,0,0,0,.08.08l5-3.3a5.12,5.12,0,0,1,2,1.82,4.4,4.4,0,0,1,.9,2.83l-5.49,3.65a.34.34,0,0,0,0,.26c.08.12.21.13.41,0s.41-.23.65-.38S34.7,42.43,34.9,42.31Z"/><path class="cls-15" d="M47.21,40.06a3.21,3.21,0,0,1-2.42.34A3.18,3.18,0,0,1,43,38.64l-6-11.7a5,5,0,0,1,1.12-1.63,6.84,6.84,0,0,1,1.75-1.26,4.56,4.56,0,0,1,2.82-.54,3,3,0,0,1,2.24,1.69l3.36,6.55a4.15,4.15,0,0,0-1.13,1c-.32.43-.42.76-.31,1a.47.47,0,0,0,.41.23,6,6,0,0,1,3-2.8l2.83-1.45a6.51,6.51,0,0,1,2.25,2.43,6.81,6.81,0,0,1,.56,1.72,3.86,3.86,0,0,1,0,1.69Z"/><path class="cls-15" d="M65.78,32.08a9.76,9.76,0,0,1-4.46.62A7.74,7.74,0,0,1,57.24,31a9.72,9.72,0,0,1-2.93-4.34,9,9,0,0,1,.06-7.4,8.64,8.64,0,0,1,4.94-4.2,8.38,8.38,0,0,1,6.88.1,9.17,9.17,0,0,1,4.52,5.35c1.07,2.83,1.09,5.29.08,7.38A8.62,8.62,0,0,1,65.78,32.08ZM62.87,22.8a9.39,9.39,0,0,0-.76-1.69c-.2-.28-.39-.39-.59-.31a.53.53,0,0,0-.3.25l.3.58a16.4,16.4,0,0,1,.66,1.59l.31.82c.21.57.36,1,.43,1.26l.18.69.09.31a.53.53,0,0,0,.39,0q.3-.12.24-.63a8.91,8.91,0,0,0-.54-1.77Z"/><path class="cls-15" d="M82,26.79a9.4,9.4,0,0,1-2.17.27,3.59,3.59,0,0,1-1.9-.39,38.45,38.45,0,0,1-3.37-5.27,54.76,54.76,0,0,1-3.65-8.52,4,4,0,0,1,1.33-1.7,6.26,6.26,0,0,1,5.31-.91A2.42,2.42,0,0,1,79,12.1c.08.68.24,1.67.47,3s.46,2.47.69,3.52a1.93,1.93,0,0,0,.24.65.35.35,0,0,0,.41.17,1.43,1.43,0,0,0,.25-.1c0-.08-.06-.21-.1-.39l-.1-.46c-.27-1.27-.55-2.75-.83-4.42s-.44-2.94-.49-3.79A5.35,5.35,0,0,1,82.23,8.9a6.54,6.54,0,0,1,2.7-.13,1.94,1.94,0,0,1,1.6,1.35c.14.87.25,1.73.31,2.59s.13,1.84.2,3,.13,1.86.16,2.22a.54.54,0,0,0,.28,0,.44.44,0,0,0,.29-.2,1.22,1.22,0,0,0,.1-.68c0-1.46-.13-3-.3-4.58s-.34-3-.54-4.14a6,6,0,0,1,3.15-1.54,4,4,0,0,1,2.95.31,3.17,3.17,0,0,1,1.56,2.23,36.83,36.83,0,0,1,.2,5.58c0,1.6,0,3-.1,4.12a19.11,19.11,0,0,1-.26,2.44,3.81,3.81,0,0,1-1.39,2.31A7.16,7.16,0,0,1,90.21,25a8.45,8.45,0,0,1-1.78.16,6.35,6.35,0,0,1-1.6-.18,7.28,7.28,0,0,1-.86-1.1,7.58,7.58,0,0,1-.68-1.16.48.48,0,0,0-.39.66,5.84,5.84,0,0,0,.74,1.46A6.28,6.28,0,0,1,82,26.79Z"/><path class="cls-15" d="M103.77,5.47l7.74-.62a5.21,5.21,0,0,1,.69,1.35,6.59,6.59,0,0,1,.3,1.34,3.32,3.32,0,0,1-.37,2.09,1.78,1.78,0,0,1-1.43.8l-5.4.44c-.33,0-.48.17-.46.42v.11a.16.16,0,0,0,0,.11l6.41-.52a4.52,4.52,0,0,1,.5,1,5.75,5.75,0,0,1,.26,1.21,4.53,4.53,0,0,1-.39,2.54l-2.91.23a16.2,16.2,0,0,0-2.75.38,3.71,3.71,0,0,0-.87.33A.37.37,0,0,0,105,17a.35.35,0,0,0,.21.28,7.43,7.43,0,0,1,1.43-.44,21.63,21.63,0,0,1,2.18-.27l3.77-.31a4.78,4.78,0,0,1,1,2.71,6.41,6.41,0,0,1-.09,1.76,3.44,3.44,0,0,1-.57,1.4l-10,.81a4.2,4.2,0,0,1-2.74-.59,3,3,0,0,1-1.3-2.43l-1-12.75c0-.43.43-.78,1.4-1.06A26.66,26.66,0,0,1,103.77,5.47Z"/><path class="cls-15" d="M130.06,16l2.25,2.45a5.47,5.47,0,0,1-1.42,3.19,4,4,0,0,1-3,1,4.52,4.52,0,0,1-2.48-.76,5.16,5.16,0,0,1-1.94-2.8L123,17.73a10.79,10.79,0,0,1-1.42-.19.4.4,0,0,0-.11.29c0,.25.35.4,1.07.47l.71,2,0,1.14a6.73,6.73,0,0,1-4,1,4.8,4.8,0,0,1-2.75-.8,2.35,2.35,0,0,1-1-2.1l.39-12.77c0-.4.39-.77,1.12-1.12a10.88,10.88,0,0,1,2.88-.81,19.11,19.11,0,0,1,3.53-.24,10.61,10.61,0,0,1,6.26,1.85,5.69,5.69,0,0,1,2.24,5,4.87,4.87,0,0,1-1.11,3.06,5.28,5.28,0,0,1-2.62,1.7c0,.29.16.44.51.45A2.61,2.61,0,0,0,130.06,16Zm-6.84-3.28a.55.55,0,0,0,.31.05.42.42,0,0,0,.39-.19,1.17,1.17,0,0,0,.15-.65l0-.49a1.54,1.54,0,0,0-.09-.69.4.4,0,0,0-.37-.22.79.79,0,0,0-.36,0,1.35,1.35,0,0,1,0,.23Z"/><path class="cls-15" d="M154.19,15.52l-1.82,9.27a4.78,4.78,0,0,1-1.79.57,7.51,7.51,0,0,1-2.54-.13,4.52,4.52,0,0,1-2.34-1.13,2.21,2.21,0,0,1-.76-2.2l1.66-8.5-3.08-.6a5.15,5.15,0,0,1-.36-3.16,4.86,4.86,0,0,1,.72-1.84A3.69,3.69,0,0,1,145,6.71l13.65,2.67a6.28,6.28,0,0,1,.27,3.29,3.33,3.33,0,0,1-1.13,2.16,2.46,2.46,0,0,1-2,.37l-3.87-.76a.46.46,0,0,0-.08.19.32.32,0,0,0,.22.37,5.27,5.27,0,0,0,1.22.34Z"/><path class="cls-15" d="M169.32,15l-3.87,13.34a5.06,5.06,0,0,1-1.84.4,7.8,7.8,0,0,1-2.52-.35A4.57,4.57,0,0,1,158.86,27a2.23,2.23,0,0,1-.56-2.26l3.88-13.34A5,5,0,0,1,164,11a7.39,7.39,0,0,1,2.5.35,4.77,4.77,0,0,1,2.26,1.33A2.29,2.29,0,0,1,169.32,15Z"/><path class="cls-15" d="M180.67,35.46a5.88,5.88,0,0,1-2.45-1.65,2.17,2.17,0,0,1-.46-2.12l.36-1.22a3.5,3.5,0,0,0,2.51-.63,1.2,1.2,0,0,0,.44-.48.3.3,0,0,0-.19-.45l0,0s0,0-.06,0a3.16,3.16,0,0,1-3.57.69,3.44,3.44,0,0,1-1.52-1.13,4.26,4.26,0,0,1-.68-2l-.08,0q-.33-.14-.45.15a1,1,0,0,0,0,.51,4.15,4.15,0,0,0,.71,1.81,3,3,0,0,0,1.05,1l-1.06,2.31a6.14,6.14,0,0,1-1.86.07,10.88,10.88,0,0,1-2.45-.74,6.58,6.58,0,0,1-2.48-1.71,2.44,2.44,0,0,1-.64-2.64c.45-1.08,1.75-3.68,3.92-7.8,1.14-2.13,2-3.62,2.47-4.45a5.92,5.92,0,0,1,4.25.39,6.46,6.46,0,0,1,2.74,1.9l-.24,2.57-1.18,1.65a1.51,1.51,0,0,0-.2.34c-.12.29,0,.51.32.65L183,17.93a6.92,6.92,0,0,1,1.53.06,7.78,7.78,0,0,1,1.87.53,5.06,5.06,0,0,1,2.45,1.71,3,3,0,0,1,.2,2.5c-.05.19-.13.51-.26.95q-2.82,10.2-3.52,11.94A5.7,5.7,0,0,1,180.67,35.46Z"/><path class="cls-15" d="M199.79,25.48l6.76,3.8a4.82,4.82,0,0,1-.18,1.5,5.78,5.78,0,0,1-.51,1.29,3.31,3.31,0,0,1-1.46,1.52,1.79,1.79,0,0,1-1.63-.13L198,30.81c-.29-.17-.49-.13-.62.09l0,.1a.11.11,0,0,0,0,.1l5.6,3.15a4.07,4.07,0,0,1-.15,1.12,5.64,5.64,0,0,1-.45,1.14,4.59,4.59,0,0,1-1.74,1.9L198.05,37a16.14,16.14,0,0,0-2.49-1.22,4,4,0,0,0-.92-.22.38.38,0,0,0-.3.19.34.34,0,0,0,0,.35,7.87,7.87,0,0,1,1.44.43c.61.28,1.27.61,1.95,1l3.3,1.85a4.7,4.7,0,0,1-.65,2.83,6.81,6.81,0,0,1-1.05,1.41,3.24,3.24,0,0,1-1.26.83l-8.78-4.93a4.12,4.12,0,0,1-1.94-2,3,3,0,0,1,.27-2.74l6.26-11.16c.21-.37.8-.4,1.75-.09A25.36,25.36,0,0,1,199.79,25.48Z"/><path class="cls-15" d="M209.18,42.53a3.21,3.21,0,0,0-.84-1,.46.46,0,0,0-.73.11l0,0A3.85,3.85,0,0,1,209,44.21a3.87,3.87,0,0,1-3.12,4.41A3.83,3.83,0,0,1,203,48a3.78,3.78,0,0,1-1.62-2.49,3.74,3.74,0,0,1,.61-2.89,3.88,3.88,0,0,1,1.57-1.33,4.11,4.11,0,0,1,2-.36,13,13,0,0,1,.75-3.38,14.38,14.38,0,0,1,1.74-3.37l2.48-3.62a4.92,4.92,0,0,1,1.58.29,6.79,6.79,0,0,1,1.66.83,3.72,3.72,0,0,1,1.82,2.48,5.2,5.2,0,0,1-1.2,3.33l-.49.71A14.87,14.87,0,0,1,209.18,42.53Z"/></g></svg>