<svg xmlns="http://www.w3.org/2000/svg" xmlns:xlink="http://www.w3.org/1999/xlink" viewBox="0 0 231.76 225.92"><defs><style>.cls-1,.cls-11{fill:#fff;}.cls-1,.cls-2,.cls-3,.cls-4,.cls-5,.cls-6,.cls-7,.cls-8,.cls-9{stroke:#000;stroke-miterlimit:10;stroke-width:0.5px;}.cls-2{fill:#ebcc33;}.cls-3{fill:#c454e0;}.cls-4{fill:#67b774;}.cls-5{fill:#8282f8;}.cls-6{fill:none;}.cls-8{fill:#7d36e5;}.cls-10,.cls-9{fill:#de582c;}.cls-12{clip-path:url(#clip-path);}</style><clipPath id="clip-path"><path class="cls-1" d="M177.5,108.68s-3.72,16.5-9.51,14.77c-6.59-2-.24-17.69-.24-17.69a11.12,11.12,0,0,0,9.75,2.92Z"/></clipPath></defs><g id="PREVIEW"><path class="cls-2" d="M176.27,93.37c0,.69,0,1.38,0,2.08,0,1.66-.09,3.31-.23,4.94l-8.73-.14h0c.12-1.39.18-2.79.2-4.2,0-.59,0-1.19,0-1.78-.31-31.68-22.49-57.41-50.24-57.86S66.47,61,65.15,92.63c0,.59,0,1.18-.05,1.78q0,2.11.06,4.2l-8.77-.14c-.07-1.64-.09-3.29-.07-5,0-.69,0-1.38.06-2.08,1.55-37.08,28.5-66.4,61-65.88a54.15,54.15,0,0,1,32.34,11.53c.2.15.4.3.59.46a63.54,63.54,0,0,1,7.9,7.42l.55.65h0q1.58,1.82,3.05,3.77c.68.92,1.35,1.86,2,2.81.53.79,1,1.6,1.54,2.41h0c.15.23.3.47.45.73,0,0,0,0,0,0A65.9,65.9,0,0,1,169,61.33s0,0,0,.05a.05.05,0,0,1,0,0c.6,1.26,1.17,2.56,1.71,3.88v0l.19.46A77.23,77.23,0,0,1,176.27,93.37Z"/><path class="cls-3" d="M167.46,94.27c0,.59,0,1.19,0,1.78,0,1.42-.08,2.82-.2,4.22l-7.44-.13-1.5,0c.09-1.14.15-2.3.16-3.46,0-.49,0-1,0-1.47-.25-26.11-18.55-47.35-41.44-47.71S75.19,67.74,74.1,93.84c0,.49,0,1,0,1.47,0,1.15,0,2.32,0,3.46l-8.94-.14c-.06-1.39-.08-2.8-.06-4.22,0-.6,0-1.19.05-1.78C66.47,61,89.47,36,117.22,36.41S167.15,62.59,167.46,94.27Z"/><path class="cls-4" d="M158.48,95.19c0,.5,0,1,0,1.47,0,1.18-.07,2.33-.16,3.48l-6.15-.1-1.51,0c.07-.89.11-1.79.12-2.69a11.22,11.22,0,0,0,0-1.16c-.22-20.58-15.3-37.32-34.14-37.62S82.18,74.49,81.29,95.05l0,1.16c0,.91,0,1.8,0,2.7l-7.2-.12c0-1.15-.07-2.32,0-3.48,0-.49,0-1,0-1.47C75.19,67.74,94.16,47.11,117,47.48S158.23,69.08,158.48,95.19Z"/><path class="cls-5" d="M150.78,96.17c-.23-20.58-15.31-37.31-34.15-37.61S82.18,74.5,81.29,95.06l0,1.15c0,.92,0,1.83,0,2.74l8.26.13q0-1,0-2.07c0-.29,0-.59,0-.88.67-15.66,12.56-28,26.91-27.8s25.84,13,26,28.65c0,.29,0,.59,0,.88,0,.7,0,1.39-.1,2.07l3.2,0,5.06.08c.08-.9.12-1.82.13-2.74C150.78,96.94,150.78,96.55,150.78,96.17Z"/><path class="cls-1" d="M106.35,26.68C95.62,29.15,89.88,33,89.6,33.17a32.09,32.09,0,0,1-1.7-9.41A32.88,32.88,0,0,1,88,19.9,27.62,27.62,0,0,1,90.09,11C92,6.64,94.93,3.83,98.34,3.71c6.14-.22,11.43,8.41,11.81,19.27,0,1.06,0,2.11,0,3.12A31.76,31.76,0,0,0,106.35,26.68Z"/><path class="cls-6" d="M87.09,5.93S87,9.69,90.09,11"/><path class="cls-6" d="M84.13,10.17s.89,4,4.58,4.32"/><path class="cls-6" d="M83.29,16A5.57,5.57,0,0,0,88,19.9"/><path class="cls-7" d="M106.35,26.68a50.07,50.07,0,0,0-13.3,4.7,34.18,34.18,0,0,1-1.31-7.32c0-.49,0-1-.07-1.46l7.92-2.37-7.75-2.15c.64-5.95,3-10.13,6-10.1,4,0,7.77,7.32,8.4,16.24C106.31,25.09,106.35,25.91,106.35,26.68Z"/><path class="cls-1" d="M149.33,22a36.84,36.84,0,0,1-.3,3.86,32.58,32.58,0,0,1-2.61,9.19l-.47-.26h0c-2.35-1.3-10.28-6-15.59-7.42-1.23-.32-2.45-.66-3.69-.9,0-1.16.14-2.35.3-3.55,1.43-10.76,7.54-18.84,13.63-18,3.38.45,6,3.54,7.51,8A28.19,28.19,0,0,1,149.33,22Z"/><path class="cls-6" d="M151.57,8.22S151.33,12,148.09,13"/><path class="cls-6" d="M154.1,12.73s-1.28,3.93-5,3.84"/><path class="cls-6" d="M154.36,18.66a5.55,5.55,0,0,1-5,3.37"/><path class="cls-7" d="M145.66,19.85l-7.92,1.38,7.65,3.13c-.07.48-.14,1-.22,1.45a33.34,33.34,0,0,1-2,7.2,53.41,53.41,0,0,0-12.78-5.62c.07-.89.19-1.83.37-2.84,1.49-8.81,5.95-15.69,9.95-15.34C143.71,9.48,145.6,13.87,145.66,19.85Z"/><path class="cls-8" d="M122.41,25.3a4,4,0,1,1-4-4A4,4,0,0,1,122.41,25.3Z"/><path class="cls-9" d="M107.34,41.05c2.21,2.17,5.64,3.82,10.62,4a15,15,0,0,0,11.39-4c4.2-4.1,4.63-10.13.49-12-6.62-2.94-11.21,3.65-11.21,3.65s-7.8-7.87-13.27-2.46C103.42,32.22,103.57,37.37,107.34,41.05Z"/><path class="cls-6" d="M126.59,33.66c-1.17,1.39-4.36,4.79-8.7,4.68s-7.45-3.84-8.51-5.31"/><path class="cls-9" d="M96.68,79.06C85,68.69,75,84.58,67.45,92.08L67.27,92C71.1,81.39,75.35,61.26,53,60c-5.39-.3-10.43.36-15.2,4.35-5.2,4.34-11.69,16.61,3.07,33v0l-.06.06s-23-18.73-32.62-3.17C5.53,98.61,3.52,110.79,7,117.38c5.73,10.76,30.81,1.42,30.81,1.42v.07c-8.74,4-30.58,14-13,31.8,4,4,14,8.78,20,8.24,7.27-.64,12.65-5.65,14.48-28.6,3.65,8.09,9.87,33.8,30.09,18.12A21.61,21.61,0,0,0,98,132.85c1-12.1-.72-12.83-19.4-17.76,0,0-3.15-.87-5.2-1.44,15.26,1.65,29.64-1.16,32.67-8.81C109.55,96,100.46,82.43,96.68,79.06Z"/><line class="cls-6" x1="53.2" y1="91.46" x2="50.15" y2="72.06"/><line class="cls-6" x1="35.98" y1="107.64" x2="17.21" y2="103.87"/><line class="cls-6" x1="93.25" y1="94.53" x2="72.46" y2="103.96"/><line class="cls-6" x1="45.85" y1="126.97" x2="37.65" y2="144.67"/><line class="cls-6" x1="84.16" y1="135.99" x2="68.61" y2="123.01"/><path class="cls-2" d="M74.38,107.35A18.87,18.87,0,1,1,52.81,91.63,18.87,18.87,0,0,1,74.38,107.35Z"/><path class="cls-10" d="M52.27,116.79a5.63,5.63,0,1,1-5.56-5.69A5.63,5.63,0,0,1,52.27,116.79Z"/><path class="cls-10" d="M72.14,113.35a5.63,5.63,0,1,1-5.56-5.69A5.63,5.63,0,0,1,72.14,113.35Z"/><path class="cls-7" d="M44.53,101.78c-2.06.51-3.13,3.63-2.72,6.65l2.16.14-1.78,1.66c1.1,2.6,3.44,4.38,5.39,3.9,2.29-.57,3.46-3.79,2.61-7.2S46.82,101.22,44.53,101.78Z"/><path class="cls-6" d="M40,102.35a4.89,4.89,0,0,0,1.14.93,4.57,4.57,0,0,0,1.12.46"/><path class="cls-6" d="M42.09,100.45a5.55,5.55,0,0,0,.55,1,5.31,5.31,0,0,0,.8.9"/><path class="cls-6" d="M44.83,99.55a5.17,5.17,0,0,0,.11,1,5.27,5.27,0,0,0,.36,1.12"/><path class="cls-6" d="M46.74,116.93a4.57,4.57,0,0,0,.31-1.44,4.74,4.74,0,0,0-.08-1.2"/><path class="cls-6" d="M44.12,116a5.86,5.86,0,0,0,.61-.92,5.27,5.27,0,0,0,.45-1.13"/><path class="cls-6" d="M42.08,113.92a5.44,5.44,0,0,0,.87-.56,5.63,5.63,0,0,0,.85-.83"/><path class="cls-7" d="M61.49,97.8c2.07-.48,4.43,1.82,5.42,4.7l-1.86,1.09,2.34.69c.18,2.82-1.1,5.46-3.06,5.91-2.29.52-4.79-1.82-5.57-5.25S59.19,98.32,61.49,97.8Z"/><path class="cls-6" d="M65.75,96.27a4.67,4.67,0,0,1-.6,1.35,5.15,5.15,0,0,1-.78.92"/><path class="cls-6" d="M63.07,95.5A5.62,5.62,0,0,1,63,96.61a5.18,5.18,0,0,1-.31,1.16"/><path class="cls-6" d="M60.22,95.93a5.87,5.87,0,0,1,.36,1,6,6,0,0,1,.19,1.17"/><path class="cls-6" d="M66.35,112.32a5,5,0,0,1-.93-1.15,5.26,5.26,0,0,1-.47-1.11"/><path class="cls-6" d="M68.25,110.26a5.17,5.17,0,0,1-1.87-1.35"/><path class="cls-6" d="M69.14,107.53a6.16,6.16,0,0,1-1-.12,5.27,5.27,0,0,1-1.12-.36"/><path class="cls-6" d="M54.83,110l.57,2.53s3.5-1.37,4,.68c.39,1.73-2.26,2.38-2.26,2.38s2.8-1,3.31,1.23c.38,1.68-3.71,2.17-3.71,2.17"/><path class="cls-3" d="M56.71,108.76a1.72,1.72,0,0,1-1.36,2,1.65,1.65,0,1,1,1.36-2Z"/><path class="cls-8" d="M220.82,90.73c-7.95-13.42-22.38-1.35-31.81,3.52l-.15-.12c6.88-8.95,17-26.84-3.88-34.79-5-1.92-10-2.82-15.8-.47-6.27,2.56-16.18,12.27-7.1,32.38v0l-.08,0s-16.18-24.82-30.11-12.93c-3.85,3.29-9.47,14.28-8.13,21.63,2.19,12,28.92,10.7,28.92,10.7v.08c-9.54,1.15-33.39,4-22.07,26.33,2.56,5,10.63,12.61,16.53,13.93,7.12,1.59,13.77-1.55,22.49-22.86,1,8.82-.87,35.2,23.16,26.4a21.55,21.55,0,0,0,12.92-12.23c4.66-11.21,3.22-12.44-13.09-22.81,0,0-2.73-1.79-4.51-3,14,6.21,28.59,7.89,33.8,1.53C227.94,110.74,223.39,95.08,220.82,90.73Z"/><line class="cls-6" x1="175.62" y1="89.33" x2="178.61" y2="69.92"/><line class="cls-6" x1="154.3" y1="99.52" x2="137.57" y2="90.22"/><line class="cls-6" x1="212.85" y1="104.43" x2="190.17" y2="107.09"/><line class="cls-6" x1="157.83" y1="120.93" x2="144.64" y2="135.3"/><line class="cls-6" x1="191.59" y1="141.16" x2="180.72" y2="124.07"/><path class="cls-2" d="M191,110.91a18.87,18.87,0,1,1-15.78-21.53A18.88,18.88,0,0,1,191,110.91Z"/><path class="cls-10" d="M166.49,111.89a5.63,5.63,0,1,1-2-7.71A5.63,5.63,0,0,1,166.49,111.89Z"/><path class="cls-10" d="M185.71,118.18a5.63,5.63,0,1,1-2-7.71A5.62,5.62,0,0,1,185.71,118.18Z"/><path class="cls-11" d="M177.5,108.68s-3.72,16.5-9.51,14.77c-6.59-2-.24-17.69-.24-17.69a11.12,11.12,0,0,0,9.75,2.92Z"/><g class="cls-12"><line class="cls-6" x1="174.52" y1="107.78" x2="169.62" y2="124.26"/><line class="cls-6" x1="170.83" y1="106.95" x2="166.21" y2="122.92"/><line class="cls-6" x1="176.01" y1="117.23" x2="163.93" y2="113.62"/></g><path class="cls-6" d="M177.5,108.68s-3.72,16.5-9.51,14.77c-6.59-2-.24-17.69-.24-17.69a11.12,11.12,0,0,0,9.75,2.92Z"/><path class="cls-3" d="M175,105.72a1.78,1.78,0,1,1-1.43-2A1.72,1.72,0,0,1,175,105.72Z"/><path class="cls-7" d="M166.17,96.1c-2-.56-4.5,1.64-5.62,4.47l1.81,1.17-2.36.58c-.31,2.81.86,5.5,2.8,6,2.27.62,4.86-1.62,5.79-5S168.44,96.72,166.17,96.1Z"/><path class="cls-6" d="M162,94.4a5.24,5.24,0,0,0,.55,1.37,5.52,5.52,0,0,0,.74,1"/><path class="cls-6" d="M164.69,93.74A5.59,5.59,0,0,0,165,96"/><path class="cls-6" d="M167.52,94.29a6.42,6.42,0,0,0-.41,1,6.12,6.12,0,0,0-.23,1.15"/><path class="cls-6" d="M160.69,110.4a4.69,4.69,0,0,0,1-1.11,4.77,4.77,0,0,0,.52-1.09"/><path class="cls-6" d="M158.88,108.27a6.27,6.27,0,0,0,1-.51,5.79,5.79,0,0,0,.94-.76"/><path class="cls-6" d="M158.1,105.49a4.94,4.94,0,0,0,1-.07,5.13,5.13,0,0,0,1.14-.31"/><path class="cls-7" d="M183.86,101.31c2,.6,3,3.76,2.44,6.75l-2.16,0,1.7,1.74c-1.21,2.55-3.62,4.22-5.55,3.66-2.26-.66-3.29-3.93-2.3-7.3S181.61,100.65,183.86,101.31Z"/><path class="cls-6" d="M188.33,102.07a4.79,4.79,0,0,1-1.18.87,4.5,4.5,0,0,1-1.14.42"/><path class="cls-6" d="M186.36,100.08a5,5,0,0,1-.59.94,4.93,4.93,0,0,1-.84.86"/><path class="cls-6" d="M183.67,99.06a5.66,5.66,0,0,1-.16,1,5.44,5.44,0,0,1-.41,1.1"/><path class="cls-6" d="M181,116.35a4.63,4.63,0,0,1-.25-1.45,4.93,4.93,0,0,1,.13-1.2"/><path class="cls-6" d="M183.67,115.49a5.28,5.28,0,0,1-.57-.95,5.06,5.06,0,0,1-.4-1.14"/><path class="cls-6" d="M185.79,113.54a6.5,6.5,0,0,1-.85-.6,5.5,5.5,0,0,1-.8-.86"/><path class="cls-1" d="M161.69,124.46c-9.6-12.3-22.37,1.51-31.09,7.54l-.17-.1c5.68-9.75,13.48-28.79-8.28-34-5.25-1.26-10.32-1.52-15.73,1.54-5.9,3.34-14.49,14.23-2.92,33v0l-.07.05s-19.21-22.56-31.52-9c-3.39,3.75-7.57,15.37-5.3,22.48,3.7,11.61,30,6.93,30,6.93s0,.08,0,.08C87.33,155.39,64,161.31,78.11,182c3.18,4.67,12.15,11.16,18.16,11.71,7.27.67,13.47-3.29,19.4-25.53,2.13,8.61,3.63,35,26.34,23.23a21.63,21.63,0,0,0,11.26-13.77c3.19-11.72,1.6-12.75-15.89-21,0,0-2.94-1.43-4.85-2.36,14.71,4.38,29.36,4.19,33.71-2.78C171.31,143.39,164.8,128.45,161.69,124.46Z"/><line class="cls-6" x1="116.69" y1="128.83" x2="117.18" y2="109.19"/><line class="cls-6" x1="96.84" y1="141.65" x2="79.05" y2="134.56"/><line class="cls-6" x1="155.53" y1="139.06" x2="133.38" y2="144.59"/><line class="cls-6" x1="103.06" y1="162.43" x2="91.81" y2="178.37"/><line class="cls-6" x1="139.13" y1="178.2" x2="126.17" y2="162.64"/><path class="cls-2" d="M134.66,148.27a18.88,18.88,0,1,1-18.39-19.34A18.88,18.88,0,0,1,134.66,148.27Z"/><circle class="cls-10" cx="104.56" cy="151.29" r="5.63" transform="translate(-76.35 118.24) rotate(-45)"/><path class="cls-10" d="M133,152.28a5.63,5.63,0,1,1-5.56-5.69A5.61,5.61,0,0,1,133,152.28Z"/><path class="cls-7" d="M106.91,136.2c-2.13,0-3.94,2.73-4.3,5.75l2,.67-2.14,1.17c.42,2.79,2.24,5.1,4.25,5.12,2.35,0,4.29-2.8,4.33-6.31S109.26,136.22,106.91,136.2Z"/><path class="cls-6" d="M102.41,135.62a4.82,4.82,0,0,0,.88,1.18,4.42,4.42,0,0,0,1,.73"/><path class="cls-6" d="M104.87,134.29a5.8,5.8,0,0,0,.29,1.07,5.54,5.54,0,0,0,.55,1.07"/><path class="cls-6" d="M107.75,134.1a5.51,5.51,0,0,0-.15,1,5.93,5.93,0,0,0,.07,1.18"/><path class="cls-6" d="M105.25,151.42a4.72,4.72,0,0,0,.67-1.32,5.24,5.24,0,0,0,.22-1.19"/><path class="cls-6" d="M103,149.82a5.25,5.25,0,0,0,.82-.74,5.75,5.75,0,0,0,.72-1"/><path class="cls-6" d="M101.5,147.33a5,5,0,0,0,1-.32,5.5,5.5,0,0,0,1-.6"/><path class="cls-7" d="M125.34,136.72c2.12.06,3.83,2.88,4.08,5.92l-2.08.59,2.09,1.24c-.52,2.78-2.43,5-4.43,5-2.36-.06-4.19-3-4.09-6.47S123,136.66,125.34,136.72Z"/><path class="cls-6" d="M129.85,136.32a4.82,4.82,0,0,1-.92,1.15,5.14,5.14,0,0,1-1,.69"/><path class="cls-6" d="M127.45,134.89a6.07,6.07,0,0,1-.34,1.06,5.34,5.34,0,0,1-.59,1.06"/><path class="cls-6" d="M124.58,134.6a5.7,5.7,0,0,1,.11,1,6.4,6.4,0,0,1-.11,1.18"/><path class="cls-6" d="M126.42,152a5.12,5.12,0,0,1-.62-1.34,4.52,4.52,0,0,1-.17-1.2"/><path class="cls-6" d="M128.77,150.49a5.73,5.73,0,0,1-.8-.78,5.61,5.61,0,0,1-.67-1"/><path class="cls-6" d="M130.32,148.06a5.51,5.51,0,0,1-1-.37,5.44,5.44,0,0,1-1-.63"/><path class="cls-1" d="M115.32,150c-3.46-.08-5.74-1.9-8.92-2-1.78-.07-3.53.23-3.75,2.23-.4,3.66,2.14,6.33,5.34,8.07a16.67,16.67,0,0,0,13.56.9c3.74-1.35,7.72-3.83,7.27-8.2-.21-2-1.83-2.4-3.61-2.44C122,148.43,118.48,150,115.32,150Z"/><path class="cls-6" d="M121.44,149a18.05,18.05,0,0,1,.11,10.17"/><path class="cls-6" d="M115.32,150a19.78,19.78,0,0,1,.44,4.81,19.28,19.28,0,0,1-.94,5.37"/><path class="cls-6" d="M108.89,148.36a18.28,18.28,0,0,1,.21,5.22,17.71,17.71,0,0,1-1.11,4.66"/><path class="cls-3" d="M118.12,146.49a1.78,1.78,0,1,1-1.72-1.7A1.71,1.71,0,0,1,118.12,146.49Z"/><path class="cls-1" d="M182.79,30c-6.9,0-7.81.75-9.92,8,.19-7.58-.45-8.55-7-10.65,6.9,0,7.81-.75,9.92-8C175.57,26.87,176.21,27.85,182.79,30Z"/><path class="cls-1" d="M214.77,69.4c-4.11-.12-4.67.3-6.06,4.6.25-4.51-.11-5.11-4-6.48,4.12.12,4.68-.3,6.07-4.6C210.52,67.43,210.89,68,214.77,69.4Z"/><path class="cls-1" d="M25.56,67.62c-4.57.6-5.11,1.17-5.88,6.17-.53-5-1-5.62-5.58-6.44,4.57-.61,5.11-1.18,5.88-6.18C20.51,66.2,21,66.79,25.56,67.62Z"/><path class="cls-1" d="M58.55,26.27c-5.19,1.44-5.72,2.18-5.79,8.09-1.43-5.73-2.12-6.33-7.5-6.54,5.19-1.45,5.72-2.19,5.79-8.1C52.48,25.46,53.17,26.06,58.55,26.27Z"/><path class="cls-2" d="M13.49,171.29a.44.44,0,0,0,.62.07,1.88,1.88,0,0,0,.49-.69,3,3,0,0,0,.26-1.08,4.63,4.63,0,0,0-1.16-3.15,5.16,5.16,0,0,0-1.41-1.24,3.36,3.36,0,0,1,.24-2,4.44,4.44,0,0,1,1.36-1.77,5.3,5.3,0,0,1,5.25-.94,9.64,9.64,0,0,1,4.45,3.33,13.51,13.51,0,0,1,2.1,3.45,8.62,8.62,0,0,1,.64,2.88,5.53,5.53,0,0,1-1.23,1.37,5.31,5.31,0,0,1-1.49.86,2.87,2.87,0,0,1-1.41.2,5.88,5.88,0,0,0-.49-1.69A7.81,7.81,0,0,0,20.65,169a4.39,4.39,0,0,0-.9-.93c-.2-.12-.36-.13-.49,0a.61.61,0,0,0-.15.17,4.81,4.81,0,0,1,.83.85,6.84,6.84,0,0,1,1.67,4,5.11,5.11,0,0,1-2.22,4.21,5.25,5.25,0,0,1-4.62,1,9.36,9.36,0,0,1-5.18-3.6,18.76,18.76,0,0,1-2-3,11.07,11.07,0,0,1-1-3,5.07,5.07,0,0,1,1.68-2.59,3.24,3.24,0,0,1,2.56-.74,3.42,3.42,0,0,1,2.32,1.35,4.32,4.32,0,0,1,1,2.28A3.52,3.52,0,0,1,13.49,171.29Z"/><path class="cls-2" d="M28,193.7a5.74,5.74,0,0,1-1.69-2.37,2.13,2.13,0,0,1,.31-2.1l.76-1a3.4,3.4,0,0,0,2.52.28,1.08,1.08,0,0,0,.57-.28.3.3,0,0,0,0-.49l0,0a.05.05,0,0,1,0,0,3.11,3.11,0,0,1-3.52-.61,3.31,3.31,0,0,1-1-1.56,4.24,4.24,0,0,1,.08-2.1l-.06,0c-.17-.17-.33-.17-.46,0a.86.86,0,0,0-.21.45,4.14,4.14,0,0,0,0,1.92,2.87,2.87,0,0,0,.62,1.26L24,188.74a5.62,5.62,0,0,1-1.73-.59,10.29,10.29,0,0,1-2-1.52,6.42,6.42,0,0,1-1.69-2.43,2.37,2.37,0,0,1,.33-2.64q1.17-1.27,6.3-5.82c1.79-1.57,3.06-2.66,3.81-3.25a5.83,5.83,0,0,1,3.77,1.84A6.43,6.43,0,0,1,34.7,177l-1.12,2.28-1.65,1.11a1.25,1.25,0,0,0-.3.25c-.21.22-.19.46.06.71l4.46-3a6.09,6.09,0,0,1,1.39.59,7.39,7.39,0,0,1,1.54,1.13,5,5,0,0,1,1.66,2.42,2.89,2.89,0,0,1-.68,2.36c-.11.16-.3.43-.57.79q-6.12,8.42-7.37,9.76A5.59,5.59,0,0,1,28,193.7Z"/><path class="cls-2" d="M48.9,190.85,41,201.94a5,5,0,0,1-1.84-.22,8,8,0,0,1-2.21-1.15,4.51,4.51,0,0,1-1.63-2,2.2,2.2,0,0,1,.22-2.28l7.94-11.09a5,5,0,0,1,1.84.22,7.37,7.37,0,0,1,2.2,1.14,4.75,4.75,0,0,1,1.66,2A2.26,2.26,0,0,1,48.9,190.85Z"/><path class="cls-2" d="M45.88,206.28a3.13,3.13,0,0,1-1.59-1.79,3.17,3.17,0,0,1,.47-2.44l6.38-11.24a4.92,4.92,0,0,1,1.94.05,6.63,6.63,0,0,1,2,.75,4.53,4.53,0,0,1,2,2,3,3,0,0,1-.18,2.76l-3.57,6.28a4.17,4.17,0,0,0-1.47-.35c-.53,0-.85.06-1,.27a.45.45,0,0,0,0,.46,5.88,5.88,0,0,1,3.92,1l2.72,1.55a6.25,6.25,0,0,1-.79,3.15,6.37,6.37,0,0,1-1.11,1.39,3.55,3.55,0,0,1-1.37.92Z"/><path class="cls-2" d="M70.08,199.41l7.07,2.85a5,5,0,0,1,0,1.49,5.32,5.32,0,0,1-.33,1.31,3.23,3.23,0,0,1-1.23,1.67,1.75,1.75,0,0,1-1.61.08l-4.94-2c-.3-.12-.5-.06-.59.17l0,.1a.16.16,0,0,0,0,.11l5.86,2.36a4.61,4.61,0,0,1,0,1.11,5.37,5.37,0,0,1-.3,1.17,4.49,4.49,0,0,1-1.45,2.06l-2.66-1.07a15.68,15.68,0,0,0-2.58-.87,3.67,3.67,0,0,0-.92-.1.38.38,0,0,0-.28.22.33.33,0,0,0,.07.34,7.44,7.44,0,0,1,1.45.24c.64.19,1.31.43,2,.72l3.45,1.39a4.64,4.64,0,0,1-.28,2.84,6.2,6.2,0,0,1-.85,1.51,3.15,3.15,0,0,1-1.12,1l-9.18-3.7a4.11,4.11,0,0,1-2.14-1.72,2.93,2.93,0,0,1-.07-2.7l4.69-11.66c.16-.39.73-.49,1.7-.31A24.68,24.68,0,0,1,70.08,199.41Z"/><path class="cls-2" d="M81.28,216.89c.24.06.39,0,.46-.31a13.32,13.32,0,0,1-3.23-5.67,14.5,14.5,0,0,1-.24-6.47,3.76,3.76,0,0,1,2-.91,6.46,6.46,0,0,1,2.48.1,5.94,5.94,0,0,1,2.61,1.29c.17,1.41.27,2.74.3,4l-1.29,2.63a2,2,0,0,0-.14.35q-.11.44.36.54c.18-.3.66-1.23,1.43-2.78.19-.4.46-.95.79-1.66s.75-1.55,1.25-2.51a6.2,6.2,0,0,1,2.83.08,4.6,4.6,0,0,1,2.72,1.59,3.26,3.26,0,0,1,.48,2.83,9.62,9.62,0,0,1-2.54,4.48,15.16,15.16,0,0,1-3.71,2.77l-1,4.24a7.32,7.32,0,0,1-2.13.41,7.79,7.79,0,0,1-1.83-.21,5.22,5.22,0,0,1-2.63-1.34,2.28,2.28,0,0,1-.54-2.23l.54-2.26a5.63,5.63,0,0,0,.47.65A1,1,0,0,0,81.28,216.89Z"/><path class="cls-2" d="M110.61,220.54l-.08,3.34a5.14,5.14,0,0,1-1.64.85,7.29,7.29,0,0,1-2.46.29,4.61,4.61,0,0,1-2.48-.71,2.22,2.22,0,0,1-1.1-2l.34-13.42c0-.81,2-1.16,6-1.07l7.75.2a5.88,5.88,0,0,1,.53,1.58,7.42,7.42,0,0,1,.14,1.55c0,2-1,3-2.73,3L110.3,214c-.33,0-.5.12-.51.41v.09a.27.27,0,0,0,0,.11l5.84.14a5.09,5.09,0,0,1,.61,2.61,4.35,4.35,0,0,1-.88,2.78l-6.47-.16a.3.3,0,0,0-.11.23c0,.14.1.23.32.26a7.18,7.18,0,0,0,.73.06C110.12,220.51,110.38,220.52,110.61,220.54Z"/><path class="cls-2" d="M123.8,224.49a2.77,2.77,0,0,1-3.4-2.76L119,208.89a5.08,5.08,0,0,1,1.59-1.11,7.15,7.15,0,0,1,2-.55,4.55,4.55,0,0,1,2.78.48,2.92,2.92,0,0,1,1.47,2.33l.82,7.18a4,4,0,0,0-1.4.58c-.45.29-.66.55-.63.8a.47.47,0,0,0,.29.35,5.89,5.89,0,0,1,3.74-1.53l3.11-.35a6.28,6.28,0,0,1,1.22,3,6.09,6.09,0,0,1-.08,1.78,3.65,3.65,0,0,1-.57,1.55Z"/><path class="cls-2" d="M145.58,221.1a9.48,9.48,0,0,1-4.42.15,7.48,7.48,0,0,1-3.81-2.07,9.65,9.65,0,0,1-2.43-4.53,8.78,8.78,0,0,1,.81-7.23,8.37,8.37,0,0,1,5.24-3.6,8.24,8.24,0,0,1,6.72.78,9.08,9.08,0,0,1,3.88,5.68c.76,2.88.53,5.29-.67,7.23A8.48,8.48,0,0,1,145.58,221.1Zm-1.9-9.36a9.74,9.74,0,0,0-.58-1.73c-.16-.3-.34-.42-.55-.37a.62.62,0,0,0-.31.22l.24.59c.1.25.26.79.48,1.63l.22.83c.15.58.25,1,.29,1.27s.08.5.11.7l.06.31a.55.55,0,0,0,.38,0c.2-.06.3-.25.29-.59a8.72,8.72,0,0,0-.34-1.79Z"/><path class="cls-2" d="M163.92,214.63a9.69,9.69,0,0,1-2,.73,3.55,3.55,0,0,1-1.91,0,37.75,37.75,0,0,1-4.37-4.32,53,53,0,0,1-5.36-7.36,3.87,3.87,0,0,1,.9-1.92,5.37,5.37,0,0,1,1.87-1.41,5.44,5.44,0,0,1,3-.62,2.37,2.37,0,0,1,1.87,1.42c.23.63.59,1.54,1.1,2.74s1,2.26,1.43,3.21a2.25,2.25,0,0,0,.36.58.38.38,0,0,0,.44.07,1.44,1.44,0,0,0,.22-.15l-.18-.36-.2-.41c-.54-1.16-1.12-2.51-1.75-4.06s-1.07-2.72-1.3-3.51a5.23,5.23,0,0,1,2.24-1.88,6.42,6.42,0,0,1,2.56-.7,1.9,1.9,0,0,1,1.83.94c.32.8.61,1.6.86,2.41s.53,1.74.84,2.8.52,1.76.63,2.1a.67.67,0,0,0,.28-.07.49.49,0,0,0,.23-.26,1.2,1.2,0,0,0-.06-.67c-.35-1.39-.78-2.83-1.28-4.33s-1-2.77-1.43-3.84a6,6,0,0,1,2.69-2.17,4,4,0,0,1,2.89-.34,3.12,3.12,0,0,1,2,1.79,34.69,34.69,0,0,1,1.41,5.31c.35,1.53.62,2.85.8,4a20,20,0,0,1,.29,2.39,3.75,3.75,0,0,1-.83,2.51,7.11,7.11,0,0,1-2.54,1.85,7.84,7.84,0,0,1-1.67.53,6.35,6.35,0,0,1-1.57.18,7.31,7.31,0,0,1-1.06-.87,7.84,7.84,0,0,1-.91-1,.48.48,0,0,0-.23.72,5.84,5.84,0,0,0,1,1.24A6.17,6.17,0,0,1,163.92,214.63Z"/><path class="cls-2" d="M176.47,188l6.26-4.36a4.78,4.78,0,0,1,1.25.81,4.89,4.89,0,0,1,.92,1,3.23,3.23,0,0,1,.72,1.95,1.74,1.74,0,0,1-.81,1.38l-4.37,3c-.26.18-.33.38-.18.59l.06.09s.06.07.08.07l5.18-3.61a4.33,4.33,0,0,1,.93.61,6.47,6.47,0,0,1,.82.89,4.5,4.5,0,0,1,.93,2.35l-2.35,1.64a16.38,16.38,0,0,0-2.15,1.68,3.87,3.87,0,0,0-.58.72.36.36,0,0,0,0,.35.33.33,0,0,0,.32.13,7.76,7.76,0,0,1,1-1.08c.51-.43,1.08-.87,1.71-1.31l3-2.12a4.68,4.68,0,0,1,2.23,1.78,6.42,6.42,0,0,1,.79,1.54,3.28,3.28,0,0,1,.21,1.47l-8.12,5.66a4.16,4.16,0,0,1-2.61.85,3,3,0,0,1-2.31-1.42l-7.19-10.3c-.24-.35,0-.88.67-1.59A24.35,24.35,0,0,1,176.47,188Z"/><path class="cls-2" d="M202.09,180.5l3.27.16a5.35,5.35,0,0,1,1.21,3.21,3.88,3.88,0,0,1-1.4,2.81,4.39,4.39,0,0,1-2.26,1.18,5.06,5.06,0,0,1-3.3-.61l-1.22-.63a11.33,11.33,0,0,1-1.13.85.46.46,0,0,0,.12.29c.16.17.52,0,1.07-.42l1.85.88.76.82a6.59,6.59,0,0,1-2.12,3.44,4.76,4.76,0,0,1-2.47,1.34,2.33,2.33,0,0,1-2.13-.8l-8.55-9.19c-.26-.29-.26-.8,0-1.56a10.64,10.64,0,0,1,1.44-2.55,18.58,18.58,0,0,1,2.31-2.61,10.39,10.39,0,0,1,5.64-3,5.61,5.61,0,0,1,5,1.91,4.77,4.77,0,0,1,1.34,2.9,5.29,5.29,0,0,1-.65,3c.19.21.41.19.66,0A2.52,2.52,0,0,0,202.09,180.5Zm-7,2.44s.13-.06.25-.18a.45.45,0,0,0,.15-.4,1.21,1.21,0,0,0-.35-.57l-.32-.35a1.56,1.56,0,0,0-.55-.42.4.4,0,0,0-.41.1.85.85,0,0,0-.22.28,1.17,1.17,0,0,1,.16.16Z"/><path class="cls-2" d="M211.24,172.38a.44.44,0,0,0-.06-.62,1.87,1.87,0,0,0-.79-.34,3.11,3.11,0,0,0-1.1,0,4.53,4.53,0,0,0-2.82,1.8,5.18,5.18,0,0,0-.91,1.65,3.39,3.39,0,0,1-2.06.21,4.59,4.59,0,0,1-2-.95,5.27,5.27,0,0,1-2-4.92,9.71,9.71,0,0,1,2.29-5.07,13.81,13.81,0,0,1,2.91-2.79,8.51,8.51,0,0,1,2.69-1.24,5.63,5.63,0,0,1,1.6.9,5.48,5.48,0,0,1,1.16,1.27,3,3,0,0,1,.5,1.34,5.39,5.39,0,0,0-1.55.84,7.42,7.42,0,0,0-1.61,1.44,4.17,4.17,0,0,0-.72,1.08.39.39,0,0,0,.08.48.56.56,0,0,0,.2.11,4.72,4.72,0,0,1,.66-1,6.83,6.83,0,0,1,3.59-2.49,5.09,5.09,0,0,1,4.59,1.25,5.26,5.26,0,0,1,2,4.29,9.31,9.31,0,0,1-2.39,5.83,19.38,19.38,0,0,1-2.52,2.62,11,11,0,0,1-2.73,1.63,5.15,5.15,0,0,1-2.9-1.07,3.25,3.25,0,0,1-1.27-2.34,3.48,3.48,0,0,1,.81-2.56,4.53,4.53,0,0,1,2-1.51A3.53,3.53,0,0,1,211.24,172.38Z"/><path class="cls-2" d="M218.38,157.44a3.2,3.2,0,0,0-.92.85.45.45,0,0,0,.13.71l0,0a3.86,3.86,0,0,1,5.19-.92,3.65,3.65,0,0,1,1.62,2.4,3.73,3.73,0,0,1-.55,2.87,3.81,3.81,0,0,1-5.25,1.13A3.75,3.75,0,0,1,217.3,163a4.07,4.07,0,0,1-.41-2,12.89,12.89,0,0,1-3.34-.66,14.4,14.4,0,0,1-3.36-1.61l-3.61-2.35a4.71,4.71,0,0,1,.24-1.56,6.48,6.48,0,0,1,.77-1.64,3.64,3.64,0,0,1,2.4-1.86,5.07,5.07,0,0,1,3.29,1.1l.71.46A14.72,14.72,0,0,1,218.38,157.44Z"/></g></svg>